<svg width="552" height="139" viewBox="0 0 552 139" fill="none" xmlns="http://www.w3.org/2000/svg">
<g clip-path="url(#clip0_6266_12922)">
<path d="M14.4706 54.2175H537.528C544.846 54.2175 550.788 60.1592 550.788 67.4772V124.441C550.788 131.759 544.846 137.701 537.528 137.701H14.4706C7.15257 137.701 1.21094 131.759 1.21094 124.441V67.482C1.21094 60.164 7.15257 54.2224 14.4706 54.2224V54.2175Z" fill="#974EF2"/>
<path d="M537.529 55.4296C544.173 55.4296 549.577 60.8333 549.577 67.4777V124.437C549.577 131.081 544.173 136.485 537.529 136.485H14.4712C7.82687 136.485 2.42318 131.081 2.42318 124.437V67.4777C2.42318 60.8333 7.82687 55.4296 14.4712 55.4296H537.529ZM537.529 53.0065H14.4712C6.47958 53.0065 0 59.486 0 67.4777V124.437C0 132.429 6.47958 138.908 14.4712 138.908H537.529C545.52 138.908 552 132.429 552 124.437V67.4777C552 59.486 545.52 53.0065 537.529 53.0065Z" fill="#2B1400"/>
<path d="M17.1705 63.0962H534.834C538.59 63.0962 541.638 66.1445 541.638 69.9005V122.008C541.638 125.764 538.59 128.813 534.834 128.813H17.1705C13.4146 128.813 10.3662 125.764 10.3662 122.008V69.9005C10.3662 66.1445 13.4146 63.0962 17.1705 63.0962Z" fill="#2B1400"/>
<path d="M534.83 64.1528C537.999 64.1528 540.578 66.7311 540.578 69.9006V122.009C540.578 125.178 537.999 127.756 534.83 127.756H17.1713C14.0018 127.756 11.4235 125.178 11.4235 122.009V69.9006C11.4235 66.7311 14.0018 64.1528 17.1713 64.1528H534.835M534.83 62.0398H17.1713C12.829 62.0398 9.30566 65.5631 9.30566 69.9054V122.013C9.30566 126.356 12.829 129.879 17.1713 129.879H534.835C539.177 129.879 542.701 126.356 542.701 122.013V69.9054C542.701 65.5631 539.177 62.0398 534.835 62.0398H534.83Z" fill="#2B1400"/>
<path d="M23.5098 103.394L40.7531 93.0129V92.6107L23.5098 82.288V75.8278L47.0388 90.4783V95.2083L23.5098 109.859V103.399V103.394Z" fill="#FF943F"/>
<path d="M51.998 116.634V111.211H80.892V116.634H51.998Z" fill="#FF943F"/>
<path d="M104.995 116.867C99.727 116.867 95.5931 115.088 92.598 111.531C89.5981 107.974 88.1006 102.813 88.1006 96.047C88.1006 92.6642 88.4835 89.6837 89.254 87.1103C90.0246 84.5369 91.1393 82.3609 92.598 80.592C94.0568 78.823 95.8354 77.4854 97.9338 76.584C100.027 75.6826 102.383 75.2271 105 75.2271C108.499 75.2271 111.431 75.9879 113.796 77.5097C116.161 79.0314 118.017 81.2898 119.36 84.28L113.878 87.2799C113.185 85.3559 112.119 83.8293 110.68 82.6953C109.24 81.5612 107.345 80.9942 105 80.9942C101.884 80.9942 99.4459 82.0556 97.677 84.1783C95.9081 86.301 95.026 89.233 95.026 92.9793V99.1147C95.026 102.861 95.9081 105.793 97.677 107.916C99.4459 110.038 101.888 111.1 105 111.1C107.423 111.1 109.391 110.475 110.912 109.224C112.429 107.974 113.554 106.37 114.285 104.407L119.534 107.576C118.187 110.494 116.306 112.772 113.883 114.405C111.46 116.043 108.499 116.862 105 116.862L104.995 116.867Z" fill="white"/>
<path d="M126.221 116.178V75.9246H132.739V110.411H149.12V116.178H126.226H126.221Z" fill="white"/>
<path d="M153.729 116.178V110.871H159.21V81.2262H153.729V75.9194H171.263V81.2262H165.728V110.871H171.263V116.178H153.729Z" fill="white"/>
<path d="M199.839 78.2895V110.149H212.324V116.173H192.24V78.2847H199.839V78.2895Z" fill="#FF943F"/>
<path d="M226.76 85.6173C231.592 85.6173 234.902 87.8951 236.695 90.3958V86.1068H244.347V116.178H236.695V111.783C234.902 114.39 231.485 116.668 226.707 116.668C219.108 116.668 213.03 110.426 213.03 101.034C213.03 91.6413 219.108 85.6173 226.765 85.6173H226.76ZM228.718 92.2907C224.647 92.2907 220.794 95.3294 220.794 101.029C220.794 106.728 224.647 109.985 228.718 109.985C232.789 109.985 236.695 106.835 236.695 101.135C236.695 95.436 232.895 92.2859 228.718 92.2859V92.2907Z" fill="#FF943F"/>
<path d="M278 116.174H270.348V112.374C268.448 114.923 265.138 116.552 261.392 116.552C254.389 116.552 249.344 111.991 249.344 103.743V86.1019H256.943V102.657C256.943 107.489 259.603 110.091 263.621 110.091C267.639 110.091 270.353 107.484 270.353 102.657V86.1019H278.005V116.174H278Z" fill="#FF943F"/>
<path d="M304.38 99.5652C304.38 94.7333 301.719 92.1308 297.701 92.1308C293.684 92.1308 290.916 94.7382 290.916 99.5652V116.174H283.317V86.102H290.916V89.8482C292.87 87.299 296.126 85.6707 299.979 85.6707C306.982 85.6707 311.974 90.2311 311.974 98.5329V116.174H304.375V99.5652H304.38Z" fill="#FF943F"/>
<path d="M329.949 85.6173C337.441 85.6173 342.486 89.5235 344.115 96.2551H335.919C335.052 93.7059 333.041 92.0775 329.895 92.0775C325.66 92.0775 322.839 95.2809 322.839 101.14C322.839 106.999 325.66 110.15 329.895 110.15C333.045 110.15 334.999 108.739 335.919 106.025H344.115C342.486 112.432 337.436 116.663 329.949 116.663C321.264 116.663 315.075 110.586 315.075 101.14C315.075 91.6946 321.264 85.6173 329.949 85.6173Z" fill="#FF943F"/>
<path d="M347.531 76.0072H355.13V89.8484C357.083 87.2992 360.452 85.6708 364.464 85.6708C371.249 85.6708 376.188 90.2313 376.188 98.5331V116.174H368.589V99.5653C368.589 94.7335 365.928 92.131 361.91 92.131C357.893 92.131 355.125 94.7384 355.125 99.5653V116.174H347.526V76.0072H347.531Z" fill="#FF943F"/>
<path d="M385.638 78.2894H393.78L400.458 107.707L408.164 78.2894H416.63L423.905 107.547L430.636 78.2894H438.831L428.247 116.178H419.291L412.181 89.2034L404.747 116.178L395.844 116.232L385.638 78.2894Z" fill="#FF943F"/>
<path d="M452.019 116.663C443.281 116.663 436.928 110.586 436.928 101.14C436.928 91.6946 443.117 85.6173 452.019 85.6173C460.922 85.6173 466.839 91.5347 466.839 100.491C466.839 101.47 466.786 102.444 466.621 103.423H444.638C445.016 107.872 448.06 110.372 451.859 110.372C455.116 110.372 456.909 108.744 457.883 106.738H466.079C464.45 112.272 459.458 116.673 452.019 116.673V116.663ZM444.692 98.3148H458.969C458.862 94.3504 455.712 91.8546 451.806 91.8546C448.171 91.8546 445.293 94.1905 444.696 98.3148H444.692Z" fill="#FF943F"/>
<path d="M484.426 116.663C475.688 116.663 469.334 110.586 469.334 101.14C469.334 91.6946 475.523 85.6173 484.426 85.6173C493.328 85.6173 499.246 91.5347 499.246 100.491C499.246 101.47 499.192 102.444 499.028 103.423H477.045C477.423 107.872 480.466 110.372 484.266 110.372C487.522 110.372 489.316 108.744 490.29 106.738H498.485C496.856 112.272 491.865 116.673 484.426 116.673V116.663ZM477.098 98.3148H491.375C491.269 94.3504 488.118 91.8546 484.212 91.8546C480.578 91.8546 477.699 94.1905 477.103 98.3148H477.098Z" fill="#FF943F"/>
<path d="M502.61 76.0072H510.209V98.8578L520.304 86.1022H530.181L516.936 101.194L530.288 116.174H520.411L510.205 103.365V116.174H502.605V76.0072H502.61Z" fill="#FF943F"/>
<path d="M134.492 7.8866C135.359 8.68625 136.44 9.0885 137.729 9.0885C139.018 9.0885 140.079 8.68625 140.913 7.8866C141.78 7.05303 142.217 6.0256 142.217 4.80432C142.217 3.58304 141.78 2.575 140.913 1.77535C140.075 0.941775 139.013 0.520142 137.729 0.520142C136.445 0.520142 135.359 0.936928 134.492 1.77535C133.653 2.575 133.236 3.58789 133.236 4.80432C133.236 6.02076 133.653 7.04818 134.492 7.8866Z" fill="#2B1400"/>
<path d="M141.334 12.5343H134.021V41.4622H141.334V12.5343Z" fill="#2B1400"/>
<path d="M155.393 18.5391V32.5354C155.393 33.5095 155.621 34.2219 156.072 34.6775C156.561 35.0942 157.361 35.3026 158.476 35.3026H161.868V41.4623H157.274C151.109 41.4623 148.032 38.4673 148.032 32.482V18.5391H144.586V12.5344H148.032V5.38123H155.393V12.5344H161.868V18.5391H155.393Z" fill="#2B1400"/>
<path fill-rule="evenodd" clip-rule="evenodd" d="M203.054 41.9371C200.267 41.9371 197.761 41.3264 195.532 40.11C193.303 38.8548 191.548 37.1004 190.259 34.8372C189.004 32.5739 188.379 29.9617 188.379 27.0054C188.379 24.0492 189.023 21.437 190.313 19.1737C191.636 16.9105 193.429 15.1706 195.692 13.9494C197.955 12.6941 200.48 12.069 203.262 12.069C206.044 12.069 208.569 12.6941 210.832 13.9494C213.095 15.1658 214.869 16.9105 216.158 19.1737C217.481 21.437 218.145 24.0492 218.145 27.0054C218.145 29.9617 217.467 32.5739 216.11 34.8372C214.787 37.1004 212.979 38.8596 210.677 40.11C208.414 41.3264 205.874 41.9371 203.054 41.9371ZM203.054 35.5641C204.377 35.5641 205.613 35.2491 206.761 34.6239C207.944 33.9648 208.884 32.9858 209.582 31.7016C210.28 30.4124 210.629 28.8471 210.629 27.0006C210.629 24.2479 209.897 22.1445 208.433 20.6809C207.003 19.1834 205.249 18.4371 203.16 18.4371C201.072 18.4371 199.312 19.1834 197.887 20.6809C196.497 22.1445 195.799 24.2479 195.799 27.0006C195.799 29.7533 196.477 31.876 197.834 33.3736C199.225 34.8372 200.965 35.569 203.059 35.569L203.054 35.5641Z" fill="#2B1400"/>
<path d="M116.899 12.1174C120.451 12.1174 123.306 13.2127 125.462 15.4081C127.658 17.5647 128.753 20.5937 128.753 24.495V41.4669H121.44V25.4885C121.44 23.2252 120.868 21.4999 119.719 20.3174C118.571 19.101 117.005 18.4904 115.018 18.4904C113.031 18.4904 111.451 19.101 110.264 20.3174C109.115 21.4999 108.544 23.2252 108.544 25.4885V41.4669H101.23V25.4885C101.23 23.2252 100.659 21.4999 99.5051 20.3174C98.3565 19.101 96.7911 18.4904 94.8041 18.4904C92.8171 18.4904 91.1839 19.101 90.0014 20.3174C88.8528 21.4999 88.2809 23.2252 88.2809 25.4885V41.4669H80.9678V12.1174H88.2809V16.0333C89.2211 14.8168 90.423 13.8572 91.8818 13.1594C93.3793 12.4615 95.0125 12.1125 96.7911 12.1125C99.0544 12.1125 101.07 12.602 102.849 13.5761C104.623 14.5163 105.999 15.8733 106.973 17.6471C107.914 15.9751 109.27 14.6375 111.044 13.6246C112.852 12.6166 114.805 12.1125 116.894 12.1125L116.899 12.1174Z" fill="#2B1400"/>
<path d="M72.4966 13.4211C70.9991 14.2934 69.7826 15.4905 68.8425 17.0268V12.5342H61.5293V41.4621H68.8425V27.049C68.8425 24.369 69.4143 22.4886 70.5678 21.4079C71.7503 20.3271 73.4901 19.7892 75.7873 19.7892H77.721V12.1125C75.7727 12.1125 74.0281 12.5487 72.5015 13.4162L72.4966 13.4211Z" fill="#2B1400"/>
<path fill-rule="evenodd" clip-rule="evenodd" d="M57.8715 26.3754C57.8715 27.4222 57.8036 28.3576 57.6631 29.196H36.5136C36.688 31.2848 37.4198 32.9228 38.709 34.1054C39.9981 35.2879 41.5828 35.8791 43.4632 35.8791C46.1772 35.8791 48.1109 34.7112 49.2595 32.3801H57.1445C56.3109 35.1667 54.7068 37.4639 52.3418 39.2716C49.9719 41.0453 47.0689 41.9371 43.6183 41.9371C40.8317 41.9371 38.3261 41.3264 36.0968 40.11C33.9014 38.8548 32.1809 37.1004 30.9257 34.8372C29.7093 32.5739 29.0986 29.9617 29.0986 27.0054C29.0986 24.0492 29.7093 21.3837 30.9257 19.1204C32.1421 16.8572 33.8481 15.1173 36.0435 13.896C38.2389 12.6796 40.759 12.069 43.6135 12.069C46.468 12.069 48.8185 12.6602 50.9751 13.8427C53.1705 15.0252 54.857 16.7166 56.0395 18.9072C57.256 21.0638 57.8666 23.5548 57.8666 26.3754H57.8715ZM50.2966 24.2866C50.2627 22.4062 49.5842 20.9087 48.2611 19.7941C46.9381 18.6455 45.3194 18.0688 43.4051 18.0688C41.5925 18.0688 40.0611 18.6261 38.8107 19.7408C37.5943 20.8215 36.8431 22.3336 36.5669 24.2818H50.3014L50.2966 24.2866Z" fill="#2B1400"/>
<path fill-rule="evenodd" clip-rule="evenodd" d="M26.0441 21.7811C26.9843 20.0752 27.4544 18.2481 27.4544 16.2999C27.4544 14.1433 26.9503 12.2096 25.9423 10.5037C24.9682 8.79774 23.49 7.4553 21.503 6.48118C19.516 5.50706 17.1171 5.01758 14.2965 5.01758H0.876953V41.467H8.1901V27.4707H14.3014C17.2964 27.4707 19.768 26.9473 21.7163 25.9054C23.6984 24.8586 25.1427 23.487 26.0489 21.7811H26.0441ZM18.4741 20.2109C17.5 21.1172 16.0024 21.5679 13.9815 21.5679H8.18526V10.9689H13.9815C17.9507 10.9689 19.9328 12.7427 19.9328 16.295C19.9328 17.967 19.4433 19.2707 18.4692 20.2109H18.4741Z" fill="#2B1400"/>
<path d="M181.056 9.0885C179.767 9.0885 178.691 8.68625 177.819 7.8866C176.985 7.05303 176.563 6.0256 176.563 4.80432C176.563 3.58304 176.98 2.575 177.819 1.77535C178.691 0.941775 179.767 0.520142 181.056 0.520142C182.345 0.520142 183.407 0.936928 184.24 1.77535C185.112 2.575 185.544 3.58789 185.544 4.80432C185.544 6.02076 185.108 7.04818 184.24 7.8866C183.407 8.68625 182.34 9.0885 181.056 9.0885Z" fill="#2B1400"/>
<path d="M184.661 12.5343H177.348V41.4622H184.661V12.5343Z" fill="#2B1400"/>
<path d="M169.608 41.9369C168.319 41.9369 167.243 41.5346 166.37 40.735C165.532 39.9014 165.115 38.874 165.115 37.6527C165.115 36.4314 165.532 35.4234 166.37 34.6237C167.238 33.7902 168.319 33.3685 169.608 33.3685C170.897 33.3685 171.958 33.7853 172.792 34.6237C173.664 35.4234 174.096 36.4363 174.096 37.6527C174.096 38.8691 173.659 39.8966 172.792 40.735C171.958 41.5346 170.897 41.9369 169.608 41.9369Z" fill="#2B1400"/>
<path fill-rule="evenodd" clip-rule="evenodd" d="M134.331 8.04639C133.454 7.1692 133.013 6.08362 133.013 4.80903C133.013 3.53444 133.454 2.46339 134.336 1.62013C135.252 0.742935 136.386 0.306763 137.729 0.306763C139.071 0.306763 140.191 0.742935 141.068 1.62013C141.984 2.46339 142.439 3.53444 142.439 4.80903C142.439 6.08362 141.979 7.17405 141.068 8.05124C140.186 8.89451 139.066 9.31614 137.729 9.31614C136.391 9.31614 135.257 8.89935 134.341 8.05609H134.336L134.331 8.04639ZM140.913 1.78006C140.079 0.946482 139.018 0.524849 137.729 0.524849C136.44 0.524849 135.364 0.941635 134.491 1.78006C133.653 2.5797 133.236 3.59259 133.236 4.80903C133.236 6.02546 133.653 7.05289 134.491 7.89131C135.359 8.69096 136.44 9.09321 137.729 9.09321C139.018 9.09321 140.079 8.69096 140.913 7.89131C141.785 7.05774 142.216 6.03031 142.216 4.80903C142.216 3.58775 141.78 2.5797 140.913 1.78006ZM141.552 41.6898H133.793V12.3112H141.552V41.6898ZM162.091 35.0794V41.6898H157.274C154.158 41.6898 151.783 40.9338 150.184 39.3829C148.584 37.8273 147.804 35.5155 147.804 32.4866V18.7665H144.358V12.316H147.804V5.16281H155.612V12.316H162.086V18.7665H155.612V32.5399C155.612 33.4801 155.83 34.1246 156.217 34.5172C156.644 34.8807 157.376 35.0842 158.471 35.0842H162.086L162.091 35.0794ZM156.072 34.6771C155.621 34.2264 155.394 33.5092 155.394 32.535V18.5388H161.868V12.5341H155.394V5.3809H148.032V12.5341H144.586V18.5388H148.032V32.4817C148.032 38.4718 151.114 41.462 157.274 41.462H161.868V35.3023H158.476C157.361 35.3023 156.562 35.0939 156.072 34.6771ZM195.429 40.3037C193.166 39.0292 191.378 37.2408 190.069 34.9437C188.795 32.6417 188.16 29.9907 188.16 27.0005C188.16 24.0103 188.809 21.3593 190.123 19.0573C191.465 16.7601 193.287 14.9864 195.589 13.7506C197.886 12.476 200.45 11.8411 203.266 11.8411C206.082 11.8411 208.645 12.476 210.943 13.7506C213.24 14.9912 215.047 16.7601 216.356 19.0573C217.698 21.3593 218.367 24.0103 218.367 27.0005C218.367 29.9907 217.679 32.6465 216.298 34.9485C214.955 37.2457 213.114 39.034 210.783 40.3037C208.485 41.5396 205.907 42.1599 203.053 42.1599C200.198 42.1599 197.693 41.5444 195.425 40.3037H195.429ZM216.109 34.8322C217.466 32.569 218.144 29.9568 218.144 27.0005C218.144 24.0442 217.485 21.432 216.157 19.1688C214.868 16.9055 213.094 15.1657 210.831 13.9444C208.568 12.6892 206.043 12.064 203.261 12.064C200.479 12.064 197.949 12.6892 195.691 13.9444C193.428 15.1608 191.635 16.9055 190.312 19.1688C189.022 21.432 188.383 24.0442 188.383 27.0005C188.383 29.9568 189.008 32.569 190.263 34.8322C191.552 37.0955 193.312 38.8547 195.536 40.105C197.765 41.3215 200.271 41.9321 203.058 41.9321C205.844 41.9321 208.418 41.3215 210.681 40.105C212.978 38.8498 214.791 37.0955 216.114 34.8322H216.109ZM197.886 20.6808C196.496 22.1444 195.798 24.2478 195.798 27.0005C195.798 29.7532 196.476 31.8759 197.833 33.3735C199.224 34.8371 200.964 35.5689 203.053 35.5689C204.376 35.5689 205.612 35.2538 206.76 34.6287C207.943 33.9696 208.883 32.9906 209.581 31.7063C210.279 30.4172 210.623 28.8518 210.623 27.0053C210.623 24.2526 209.891 22.1493 208.427 20.6857C207.002 19.1882 205.243 18.4418 203.154 18.4418C201.066 18.4418 199.306 19.1882 197.882 20.6857L197.886 20.6808ZM206.654 34.43C207.797 33.7902 208.708 32.85 209.387 31.5948C210.061 30.3445 210.405 28.8179 210.405 27.0005C210.405 24.2914 209.687 22.2462 208.277 20.8408C206.891 19.3869 205.19 18.6599 203.164 18.6599C201.138 18.6599 199.437 19.382 198.051 20.8359C196.709 22.2414 196.025 24.2865 196.025 27.0005C196.025 29.7145 196.694 31.779 198.003 33.2184C199.35 34.6335 201.032 35.3411 203.062 35.3411C204.347 35.3411 205.549 35.0358 206.663 34.43H206.654ZM128.976 41.6898H121.217V25.4884C121.217 23.264 120.65 21.6017 119.555 20.4725C118.455 19.3045 116.952 18.7132 115.019 18.7132C113.085 18.7132 111.563 19.3045 110.429 20.4725C109.334 21.6017 108.767 23.2591 108.767 25.4884V41.6898H101.008V25.4884C101.008 23.264 100.441 21.6017 99.3455 20.4725C98.2454 19.3045 96.743 18.7132 94.8093 18.7132C92.8756 18.7132 91.3005 19.3045 90.1665 20.4725C89.0712 21.6017 88.5042 23.2591 88.5042 25.4884V41.6898H80.7452V11.8944H88.5042V15.4129C89.4008 14.3951 90.496 13.5761 91.79 12.9606C93.3166 12.2482 94.9886 11.8944 96.7915 11.8944C99.0838 11.8944 101.143 12.3887 102.956 13.3822C104.657 14.2837 106 15.5582 106.979 17.206C107.928 15.6503 109.251 14.3951 110.938 13.4355C112.784 12.4081 114.771 11.8896 116.894 11.8896C120.495 11.8896 123.408 13.0042 125.618 15.2432C127.861 17.4532 128.971 20.5451 128.971 24.4852V41.6801L128.976 41.6898ZM125.463 15.408C123.306 13.2126 120.451 12.1173 116.899 12.1173C114.81 12.1173 112.862 12.6214 111.049 13.6294C109.353 14.5938 108.04 15.8587 107.105 17.4241C107.061 17.4968 107.017 17.5743 106.974 17.647C106.93 17.5695 106.891 17.4968 106.848 17.4192C105.883 15.7521 104.55 14.4727 102.849 13.5712C101.076 12.5971 99.0547 12.1076 96.7915 12.1076C95.0177 12.1076 93.3796 12.4566 91.8821 13.1545C90.5348 13.799 89.4056 14.6617 88.4994 15.7473C88.4218 15.8393 88.3491 15.9314 88.2764 16.0235V12.1076H80.9633V41.4572H88.2764V25.4787C88.2764 23.2155 88.8531 21.4902 90.0017 20.3077C91.1842 19.0912 92.7884 18.4806 94.8045 18.4806C96.8205 18.4806 98.3568 19.0912 99.5054 20.3077C100.654 21.4902 101.231 23.2155 101.231 25.4787V41.4572H108.544V25.4787C108.544 23.2155 109.116 21.4902 110.264 20.3077C111.447 19.0912 113.032 18.4806 115.019 18.4806C117.006 18.4806 118.571 19.0912 119.72 20.3077C120.868 21.4902 121.445 23.2155 121.445 25.4787V41.4572H128.758V24.4852C128.758 20.5839 127.663 17.5549 125.467 15.3983L125.463 15.408ZM72.3852 13.232C73.9554 12.3403 75.734 11.8944 77.7162 11.8944H77.9391V20.0169H75.7825C73.5193 20.0169 71.8376 20.55 70.7132 21.5774C69.6325 22.5952 69.0606 24.3932 69.0606 27.0538V41.6898H61.3016V12.3112H69.0606V16.2804C69.9572 15.0155 71.0622 13.9977 72.3804 13.2271L72.3852 13.232ZM69.0655 16.6778C68.9879 16.7941 68.9152 16.9104 68.8425 17.0267V12.5341H61.5294V41.462H68.8425V27.049C68.8425 24.3689 69.4144 22.4885 70.563 21.4078C71.7455 20.3271 73.4853 19.7891 75.7874 19.7891H77.7211V12.1125C77.6484 12.1125 77.5708 12.1125 77.4981 12.1125C75.6371 12.1464 73.9748 12.5777 72.4967 13.4162C71.1155 14.2207 69.9717 15.3062 69.0655 16.6681V16.6778ZM57.8461 29.4188H36.7548C36.9584 31.3477 37.6659 32.8452 38.8533 33.9405C40.0988 35.0842 41.6254 35.6561 43.4525 35.6561C44.7804 35.6561 45.8999 35.3702 46.8207 34.8128C47.7463 34.2555 48.4878 33.4171 49.0452 32.283L49.1082 32.157H57.4294L57.3421 32.443C56.494 35.2732 54.8656 37.6092 52.4618 39.4508C50.0484 41.2633 47.0921 42.1599 43.6076 42.1599C40.787 42.1599 38.2426 41.5444 35.9794 40.3037C33.7501 39.0292 31.9957 37.2408 30.7259 34.9437C29.4853 32.6417 28.8698 29.9907 28.8698 27.0005C28.8698 24.0103 29.4853 21.3109 30.7259 19.0089C31.9618 16.7117 33.7016 14.9379 35.9309 13.6972C38.1603 12.4566 40.724 11.8411 43.6124 11.8411C46.5008 11.8411 48.8852 12.442 51.0806 13.6439C53.31 14.8458 55.0304 16.5663 56.2372 18.7956C57.4778 20.991 58.0933 23.5208 58.0933 26.3705C58.0933 27.4221 58.0255 28.3769 57.8801 29.225L57.851 29.4091L57.8461 29.4188ZM56.0385 18.9071C54.8559 16.7117 53.1646 15.0251 50.974 13.8426C48.8174 12.6601 46.3603 12.0689 43.6124 12.0689C40.8645 12.0689 38.2329 12.6795 36.0424 13.8959C33.847 15.1124 32.1411 16.8571 30.9246 19.1203C29.7082 21.3836 29.0976 24.0103 29.0976 27.0053C29.0976 30.0004 29.7082 32.5738 30.9246 34.8371C32.1798 37.1003 33.9003 38.8595 36.0957 40.1099C38.325 41.3263 40.8306 41.937 43.6172 41.937C47.063 41.937 49.9708 41.0501 52.3358 39.2715C54.6427 37.5074 56.2178 35.2878 57.0707 32.6029C57.095 32.5302 57.1192 32.4526 57.1386 32.38H49.2536C48.105 34.711 46.1713 35.879 43.4573 35.879C41.5769 35.879 39.9922 35.2878 38.703 34.1053C37.4624 32.9664 36.7354 31.401 36.5319 29.4188C36.5222 29.3461 36.5173 29.2686 36.5125 29.1959H57.662C57.8025 28.3623 57.8704 27.4221 57.8704 26.3753C57.8704 23.5547 57.2597 21.0686 56.0433 18.9071H56.0385ZM48.1147 19.9636C46.8352 18.8489 45.2699 18.2916 43.404 18.2916C41.6448 18.2916 40.1666 18.8295 38.9599 19.9054C37.8404 20.8941 37.128 22.2753 36.8275 24.0588H50.0726C49.9902 22.3431 49.3408 20.9862 48.1244 19.9636H48.1147ZM50.2907 24.0636C50.2907 24.1363 50.2955 24.2138 50.3004 24.2865H36.5658C36.5755 24.2138 36.59 24.1363 36.5997 24.0636C36.9002 22.222 37.6368 20.7826 38.8097 19.7455C40.0649 18.6308 41.5963 18.0735 43.404 18.0735C45.3183 18.0735 46.937 18.6502 48.2601 19.7988C49.5298 20.8699 50.2083 22.2898 50.2907 24.0684V24.0636ZM8.18553 27.4706H14.2968C17.2918 27.4706 19.7635 26.9472 21.7117 25.9052C23.6987 24.8584 25.1429 23.4869 26.0444 21.781C26.9846 20.0751 27.4546 18.248 27.4546 16.2997C27.4546 14.1431 26.9506 12.2094 25.9426 10.5035C24.9685 8.79758 23.4903 7.45514 21.5033 6.48102C19.5163 5.5069 17.1174 5.01742 14.2968 5.01742H0.877229V41.4669H8.19038V27.4706H8.18553ZM26.1364 10.3872C25.1381 8.63765 23.6212 7.27098 21.6051 6.27747C19.5842 5.28397 17.1464 4.79449 14.3016 4.79449H0.654297V41.6898H8.41331V27.6935H14.3016C17.3209 27.6935 19.8313 27.1653 21.8232 26.0991C23.8393 25.0377 25.3174 23.6323 26.2479 21.8827C27.2026 20.1429 27.6824 18.2819 27.6824 16.2949C27.6824 14.0995 27.1687 12.127 26.1364 10.3872ZM177.658 8.04639C176.776 7.1692 176.34 6.08362 176.34 4.80903C176.34 3.53444 176.781 2.46339 177.663 1.62013C178.579 0.742935 179.713 0.306763 181.055 0.306763C182.398 0.306763 183.512 0.742935 184.394 1.62013C185.31 2.46339 185.771 3.53444 185.771 4.80903C185.771 6.08362 185.31 7.17405 184.394 8.05124C183.512 8.89451 182.393 9.31614 181.055 9.31614C179.717 9.31614 178.579 8.89935 177.667 8.05609H177.663L177.658 8.04639ZM184.239 1.78006C183.401 0.946482 182.339 0.524849 181.055 0.524849C179.771 0.524849 178.69 0.941635 177.818 1.78006C176.984 2.5797 176.562 3.59259 176.562 4.80903C176.562 6.02546 176.979 7.05289 177.818 7.89131C178.69 8.69096 179.766 9.09321 181.055 9.09321C182.344 9.09321 183.406 8.69096 184.239 7.89131C185.107 7.05774 185.543 6.03031 185.543 4.80903C185.543 3.58775 185.107 2.5797 184.239 1.78006ZM184.879 41.6898H177.12V12.3112H184.879V41.6898ZM166.211 40.8902C165.333 40.013 164.892 38.9274 164.892 37.6528C164.892 36.3782 165.333 35.3071 166.216 34.4639C167.131 33.5867 168.266 33.1505 169.608 33.1505C170.95 33.1505 172.07 33.5867 172.947 34.4639C173.863 35.3071 174.319 36.3782 174.319 37.6528C174.319 38.9274 173.858 40.0178 172.947 40.895C172.065 41.7383 170.946 42.1599 169.608 42.1599C168.27 42.1599 167.136 41.7431 166.22 40.8998H166.216L166.211 40.8902ZM172.792 34.6238C171.958 33.7902 170.892 33.3686 169.608 33.3686C168.324 33.3686 167.243 33.7854 166.371 34.6238C165.537 35.4235 165.115 36.4363 165.115 37.6528C165.115 38.8692 165.532 39.8966 166.371 40.7351C167.243 41.5347 168.319 41.937 169.608 41.937C170.897 41.937 171.958 41.5347 172.792 40.7351C173.664 39.9015 174.096 38.8741 174.096 37.6528C174.096 36.4315 173.66 35.4235 172.792 34.6238ZM141.329 12.5341V41.462H134.016V12.5341H141.329ZM18.4743 20.2108C19.4485 19.2706 19.938 17.9669 19.938 16.2949C19.938 12.7425 17.9509 10.9687 13.9866 10.9687H8.19038V21.5677H13.9866C16.0076 21.5677 17.5002 21.117 18.4792 20.2108H18.4743ZM8.40847 21.3448H13.9818C15.9736 21.3448 17.4033 20.8989 18.3193 20.046C19.2401 19.1591 19.7102 17.9184 19.7102 16.29C19.7102 14.5551 19.2255 13.295 18.295 12.4614C17.3597 11.623 15.9349 11.1868 13.9769 11.1868H8.40362V21.34L8.40847 21.3448ZM184.656 12.5341V41.462H177.343V12.5341H184.656Z" fill="#2B1400"/>
</g>
<defs>
<clipPath id="clip0_6266_12922">
<rect width="552" height="138.606" fill="white" transform="translate(0 0.302246)"/>
</clipPath>
</defs>
</svg>
