<svg width="407" height="379" viewBox="0 0 407 379" fill="none" xmlns="http://www.w3.org/2000/svg">
<path d="M214.597 236.552C196.597 248.523 184.292 275.87 168.069 286.59C151.859 297.296 134.008 313.526 125.895 321.499C117.785 329.467 97.8295 340.334 82.3532 347.566C72.0042 352.399 63.5936 353.834 60.3418 343.756C56.6178 332.181 71.3115 325.091 77.8376 318.015C84.3636 310.939 93.2779 302.508 97.0109 292.274C100.744 282.025 105.939 284.522 115.06 277.309C122.445 271.475 129.695 235.24 132.313 209.994C134.921 184.744 171.339 171.517 193.795 190.895C216.265 210.273 214.579 236.595 214.579 236.595L214.592 236.557L214.597 236.552Z" fill="#F57100"/>
<path d="M138.592 309.726C134.662 293.591 118.43 286.382 118.43 286.382L106.021 282.644C102.126 284.499 99.3238 286.019 97.048 292.241C93.315 302.489 84.4007 310.906 77.8747 317.982C71.3486 325.072 56.6549 332.162 60.379 343.723C63.6172 353.801 72.0413 352.366 82.3903 347.533C97.8531 340.296 117.818 329.448 125.932 321.466C128.977 318.463 133.411 314.304 138.615 309.697L138.592 309.721V309.726Z" fill="white"/>
<path d="M326.465 203.924C382.308 207.856 380.423 221.324 377.324 267.661C373.969 291.665 340.435 287.506 338.415 275.412C337.588 270.422 340.772 263.403 341.726 259.98C343.255 254.505 342.391 250.105 341.357 248.887C339.576 246.815 317.897 246.815 302.583 247.018C287.269 247.221 295.072 205.902 326.465 203.924Z" fill="#F57100"/>
<path d="M338.424 275.398C340.435 287.492 373.969 291.641 377.333 267.647C379.587 233.932 381.192 217.632 360.386 209.721C355.286 213.615 355.272 214.979 355.272 214.979C355.272 214.979 353.905 213.266 352.183 214.979C350.46 216.693 352.183 221.768 352.183 221.768C340.889 234.655 338.146 247.858 338.146 247.858C339.859 248.122 341.006 248.448 341.361 248.859C342.405 250.077 343.255 254.49 341.73 259.952C340.777 263.375 337.592 270.394 338.42 275.384V275.398H338.424Z" fill="white"/>
<path d="M99.9581 214.21C63.1406 226.233 40.2207 172.357 40.8414 170.091C41.4621 167.811 45.3345 170.091 45.3345 170.091C45.3345 170.091 43.3241 130.146 56.7899 121.38C61.2831 118.137 60.6624 125.444 60.6624 125.444C60.6624 125.444 73.8179 104.981 99.18 104.174C124.556 103.366 122.693 111.651 122.693 111.651C122.693 111.651 133.056 113.761 146.369 126.11C159.673 138.459 148.69 136.83 148.69 136.83C148.69 136.83 160.145 146.418 154.573 164.271C149 182.129 99.9715 214.238 99.9715 214.238L99.9581 214.215V214.21Z" fill="#FF923F"/>
<path d="M144.498 150.916C144.498 150.916 137.994 144.586 135.674 145.393C133.353 146.2 138.143 152.871 138.143 152.871C124.056 152.389 110.298 162.614 110.298 162.614C110.298 162.614 102.405 153.196 91.1112 162.614C79.8177 172.031 96.9941 185.513 96.9941 185.513C96.9941 185.513 99.3958 194.992 101.672 202.743C119.284 194.025 150.574 176.988 154.55 164.242C156.147 159.107 156.34 154.655 155.8 150.921C150.804 149.906 144.484 150.921 144.484 150.921H144.498V150.916Z" fill="#F57100"/>
<path d="M118.419 106.439C115.123 104.957 109.334 103.824 99.165 104.15C73.7895 104.957 60.6475 125.421 60.6475 125.421C60.6475 125.421 61.2681 118.113 56.775 121.356C43.3091 130.122 45.3196 170.068 45.3196 170.068C45.3196 170.068 41.4471 167.788 40.8265 170.068C40.3452 171.815 47.7888 200.813 68.109 208.47C58.8034 201.224 51.4993 179.688 54.4048 177.866C57.3102 176.035 60.3191 178.603 60.3191 178.603C60.3191 178.603 56.9549 155.949 58.2277 154.245C59.5006 152.54 60.4316 154.245 60.4316 154.245C60.4316 154.245 61.3626 138.294 66.0041 131.104C70.6457 123.92 74.2393 122.943 74.1268 125.256C74.1268 125.256 91.0963 104.301 118.415 106.435L118.419 106.439Z" fill="white"/>
<path d="M252.772 104.712C215.208 155.415 173.033 162.236 144.474 160.693C115.239 159.126 78.5116 186.651 89.3778 224.416C100.244 262.18 133.445 267.557 149.551 261.142C165.671 254.726 185.231 259.093 212.541 269.946C290.187 292.576 321.437 227.021 321.437 227.021C321.437 227.021 320.438 234.522 323.906 232.856C350.028 218.86 347.24 164.37 352.191 144.147C352.191 144.147 289.319 166.079 252.776 104.707L252.772 104.712Z" fill="#FF923F"/>
<path d="M332.923 148.216C319.538 166.773 296.151 176.577 292.476 200.931C289.616 219.813 285.869 237.114 292.867 249.246C305.123 239.696 273.613 282.729 310.296 253.263C353.064 218.897 348.849 165.881 352.205 145.275L332.928 148.207V148.221L332.923 148.216Z" fill="white"/>
<path d="M179.871 244.506C159.263 258.215 145.176 289.517 126.623 301.781C108.071 314.045 86.1988 324.038 76.9157 333.168C67.6326 342.297 46.2195 363.299 28.5169 371.57C16.6747 377.102 7.03626 378.745 3.32573 367.203C-0.938013 353.962 15.8831 345.847 23.3491 337.733C30.8152 329.618 41.0157 319.983 45.302 308.262C49.5747 296.532 55.5161 299.388 65.9595 291.127C74.415 284.447 82.7086 242.967 85.7086 214.068C88.7085 185.164 130.374 170.021 156.096 192.207C181.818 214.394 179.875 244.511 179.875 244.511V244.497L179.871 244.506Z" fill="#FF923F"/>
<path d="M367.273 35.9613C367.273 35.9613 369.09 9.44587 359.29 11.065C349.489 12.6795 337.796 42.9808 334.773 54.5461C331.751 66.121 364.273 48.3244 367.273 35.966V35.9613Z" fill="#F57100"/>
<path d="M357.98 113.662C382.735 99.3962 381.107 66.1776 381.107 66.1776C375.962 44.378 366.265 24.3629 337.876 25.9773C318.554 26.6759 311.547 26.2558 291.708 39.7094C281.161 46.8611 273.717 59.7388 269.868 64.4404C260.782 75.1089 263.814 78.739 267.488 78.739C263.171 81.3684 255.151 88.3265 253.977 92.0133C252.574 96.4364 256.586 101.648 256.586 101.648C256.586 101.648 271.797 141.05 325.512 153.111C341.582 156.501 357.998 113.662 357.998 113.662H357.976H357.98Z" fill="#FF923F"/>
<path d="M338.298 27.3889C338.298 27.3889 340.115 0.873522 330.315 2.48795C320.515 4.10239 308.821 34.4037 305.799 45.9691C302.776 57.5439 335.299 39.7474 338.298 27.3889Z" fill="#FF923F"/>
<path d="M333.038 28.196C332.817 16.1255 332.889 9.96518 329.808 11.471C326.718 12.9769 319.985 30.0889 322.536 31.5004C325.086 32.9118 333.276 30.3297 333.047 28.196H333.033H333.038Z" fill="#F57100"/>
<path d="M386.321 64.2138C393.859 65.0682 402.67 66.1681 404.037 71.0255C405.094 75.1135 404.82 86.5939 398.946 95.5017C391.561 106.713 366.595 113.648 362.034 115.238C357.473 116.829 357.105 132.53 351.501 150.978C345.757 169.884 323.274 158.984 329.179 153.593C334.108 148.938 342.15 142.452 343.459 138.303C347.929 124.146 332.489 102.672 329.97 88.7229C327.146 73.1309 338.772 70.1192 355.324 72.8807C362.686 74.1128 366.891 73.2914 370.373 71.9649C375.783 68.0091 372.923 59.6773 369.352 54.2062C365.079 47.6587 346.711 58.5727 339.312 50.2881C331.913 42.0177 338.705 38.8927 343.229 39.8934C347.745 40.8942 345.204 48.0317 353.844 46.5588C361.665 45.2324 367.413 43.3253 371.753 46.776C374.214 49.0088 376.107 51.4305 377.645 53.9985C377.875 55.3721 380.551 63.534 386.317 64.1996V64.2138H386.321Z" fill="white"/>
<path d="M404.037 71.0257C403.52 69.1799 401.91 67.8771 399.728 66.9282C388.25 70.5914 389.379 75.1373 391.7 75.8973C393.697 76.5487 400.673 79.636 402.224 78.5739C402.341 78.4889 402.499 78.3425 402.683 78.1396C403.394 77.5967 404.028 76.9453 404.509 76.2702C404.532 74.0657 404.347 72.22 404.037 71.0257Z" fill="#49250D"/>
<path d="M402.025 75.8832C404.013 83.2756 398.063 91.4752 390.7 91.3902C388.573 91.546 381.579 89.1716 383.648 86.1551C384.268 85.3574 385.415 85.263 386.139 85.9616C390.412 90.3045 397.204 87.4911 399.317 82.1521C400.078 80.3677 400.293 78.3521 399.893 76.4355C399.605 74.9863 401.638 74.4576 402.03 75.8832H402.025Z" fill="#49250D"/>
<path d="M386.136 89.9457C386.136 89.9457 382.781 101.535 388.916 99.2074C397.016 96.1438 398.051 89.5869 399.67 85.6405C399.67 85.6405 396.076 92.1738 386.15 89.9315L386.136 89.9457Z" fill="#49250D"/>
<path d="M367.929 65.6677C367.929 65.6677 363.242 62.1462 358.97 65.7621" stroke="#49250D" stroke-width="2.18327" stroke-miterlimit="10" stroke-linecap="round"/>
<path d="M87.2782 305.312C86.2348 303.24 82.8211 305.312 82.8211 305.312C82.8211 305.312 84.5797 295.847 82.8211 296.536C81.0625 297.226 79.6278 301.611 79.6278 301.611C79.6278 301.611 77.1001 291.216 69.4857 286.382C68.3253 288.54 67.1424 290.183 65.9595 291.108C55.5161 299.369 49.5792 296.508 45.302 308.243C41.0292 319.974 30.8286 329.599 23.3491 337.714C15.8831 345.828 -0.938012 353.943 3.32573 367.184C7.03626 378.721 16.6746 377.083 28.5169 371.551C46.2195 363.28 67.6461 342.274 76.9157 333.149C79.5333 330.567 83.1674 327.914 87.4401 325.167C90.3006 318.945 88.3262 307.37 87.2782 305.298V305.321V305.312Z" fill="white"/>
<path d="M244.664 195.87C272.005 161.085 324.883 185.443 324.528 214.498C324.173 243.553 301.482 271.229 284.594 280.222C272.472 286.675 245.19 294.162 238.997 273.878C232.803 253.598 246.247 246.81 255.426 245.243C255.426 245.243 222.616 223.915 244.664 195.866V195.87Z" fill="#FF923F"/>
<path d="M286.972 221.72C286.972 219.214 282.951 226.412 279.964 227.352C276.978 228.291 281.458 216.249 281.458 216.249C281.458 216.249 276.092 216.877 273.268 215.621C270.443 214.366 276.69 211.557 276.69 211.557C276.69 211.557 236.459 201.705 237.044 215.149C237.628 228.593 244.789 235.334 244.789 235.334C240.894 247.221 200.995 260.981 176.996 259.098C187.278 260.759 198.949 264.55 212.541 269.936C243.385 278.929 267.074 275.653 284.422 268.44L271.419 240.659C285.042 234.182 286.963 224.213 286.963 221.706L286.976 221.72H286.972Z" fill="#F57100"/>
<path d="M300.173 267.972C300.047 255.227 279.956 242.047 279.956 242.047C279.956 242.047 284.197 233.909 279.956 234.112C275.715 234.315 274.739 237.86 274.739 237.86C274.739 237.86 274.257 232.228 272.13 232.917C270.003 233.607 269.697 240.079 269.697 240.079C269.697 240.079 266.607 242.127 255.417 245.252C246.237 246.805 232.798 253.608 238.987 273.887C245.18 294.167 272.463 286.68 284.584 280.232C289.522 277.602 294.946 273.373 300.173 267.982V267.968V267.972Z" fill="white"/>
<path d="M256.159 100.675C256.159 100.675 250.452 102.29 249.404 105.439C247.106 112.42 263.005 135.485 298.091 148.278C333.829 161.302 357.198 150.015 359.587 146.951C361.714 144.237 360.999 140.441 359.033 139.776C356.231 138.837 338.551 151.025 301.536 137.581C264.52 124.137 258.363 102.686 256.159 100.661V100.675Z" fill="#944EEF"/>
<path d="M358.979 175.491C365.492 175.166 369.225 169.907 369.225 169.907C369.225 169.907 358.048 146.998 352.89 148.334C347.731 149.675 345.077 152.337 343.607 155.136C342.136 157.936 358.979 175.477 358.979 175.477V175.491Z" fill="#6D2BD3"/>
<path d="M343.458 164.771C346.768 173.585 356.28 177.819 362.631 174.189C367.65 171.333 368.374 164.531 365.329 158.923C362.505 153.725 356.69 149.987 351.324 150.303C344.775 150.69 340.489 156.874 343.444 164.762L343.458 164.776V164.771Z" fill="#6D2BD3"/>
<path d="M347.93 162.194C351.24 171.007 360.753 175.242 367.104 171.611C372.123 168.756 372.847 161.953 369.802 156.345C366.978 151.148 361.162 147.409 355.797 147.725C349.248 148.113 344.962 154.296 347.917 162.185L347.93 162.199V162.194Z" fill="#944EEF"/>
<path d="M365.447 155.547L363.058 165.243C362.838 166.121 361.965 166.485 361.106 166.027L353.227 161.854C352.619 161.528 352.331 160.815 352.583 160.273L353.343 158.611C353.573 158.106 354.216 157.96 354.778 158.271L360.099 161.236L362.478 153.702C362.595 153.329 363.04 153.253 363.477 153.522L364.844 154.377C365.271 154.641 365.532 155.16 365.442 155.533L365.456 155.547H365.447Z" fill="white"/>
<path d="M249.476 109.04C243.997 110.593 236.446 118.458 242.788 118.576L249.476 109.04Z" fill="#FF923F"/>
<path d="M331.153 2.41693C338.722 2.41693 338.574 20.6713 338.367 25.9537C339.262 25.9064 340.134 25.8923 340.998 25.8923C342.734 25.8923 344.384 25.9773 345.972 26.1472C350.164 18.2119 354.909 11.7731 359.285 11.0508C359.573 11.0036 359.847 10.98 360.122 10.98C368.977 10.98 367.268 35.9518 367.268 35.9518C367.246 36.0368 367.21 36.1218 367.187 36.2067C371.725 40.9556 374.977 47.0215 377.433 53.7011C377.5 53.8097 377.572 53.9041 377.626 54.0127C377.662 54.1921 377.73 54.4847 377.847 54.8577C377.995 55.2684 378.135 55.6885 378.283 56.0992C379.407 59.007 381.994 63.7087 386.311 64.1997C393.849 65.0541 402.66 66.154 404.027 71.0114C405.084 75.0994 404.81 86.5798 398.936 95.4875C391.551 106.699 366.585 113.633 362.024 115.224C358.327 116.513 357.383 127.101 354.167 140.909C356.348 140.248 357.832 139.729 358.66 139.729C358.808 139.729 358.934 139.743 359.038 139.776C360.99 140.437 361.705 144.237 359.591 146.951C359.384 147.215 359.015 147.541 358.512 147.905C363.027 148.712 367.462 152.016 369.805 156.345C372.342 161.037 372.252 166.546 369.22 169.898C369.22 169.898 365.487 175.156 358.975 175.482L358.894 175.397C358.458 175.444 358.021 175.468 357.571 175.468C354.873 175.468 352.044 174.505 349.566 172.754C348.45 182.785 346.588 194.095 342.801 205.576C381.886 211.184 380.082 226.389 377.321 267.637C375.562 280.25 365.465 285.084 355.988 285.084C347.429 285.084 339.365 281.128 338.412 275.388C337.584 270.399 340.768 263.379 341.722 259.957C343.251 254.481 342.388 250.081 341.353 248.863C340.112 247.414 329.165 246.985 317.457 246.923C316.171 248.179 314.826 249.406 313.436 250.624C305.278 264.309 294.034 275.185 284.589 280.213C278.409 283.503 268.276 287.062 259.015 287.062C250.353 287.062 242.437 283.937 239.244 274.572C231.031 274.175 222.148 272.726 212.546 269.931C204.572 266.773 197.276 264.167 190.526 262.213C183.221 271.824 176.133 281.251 168.078 286.571C151.869 297.277 134.018 313.507 125.904 321.48C117.804 329.448 97.8387 340.315 82.3624 347.547C77.6174 349.765 73.2862 351.262 69.6701 351.262C66.4993 351.262 63.8682 350.105 62.0197 347.282C51.954 356.351 39.5136 366.42 28.499 371.565C23.0523 374.109 18.0915 375.832 13.9447 375.832C9.06026 375.832 5.31825 373.444 3.31681 367.198C-0.946929 353.957 15.8742 345.843 23.3402 337.728C30.8062 329.613 41.0068 319.979 45.2931 308.257C49.5793 296.536 55.5071 299.383 65.9506 291.122C74.2442 284.56 82.3894 244.52 85.5152 215.716C78.9442 214.918 72.9939 212.147 67.7182 208.314C47.7308 200.44 40.3772 171.913 40.8269 170.091C41.0203 169.379 41.5286 169.114 42.1357 169.076H42.2617C42.9633 169.076 43.7909 169.364 44.398 169.629C44.9377 169.869 45.3155 170.087 45.3155 170.087C45.3155 170.087 45.2256 168.17 45.2121 165.097C45.2121 164.219 45.2121 163.242 45.2346 162.189C45.2481 161.141 45.2796 160.008 45.3155 158.814C45.7653 146.309 47.9332 127.125 56.771 121.375C57.585 120.785 58.2282 120.544 58.7454 120.544C58.9388 120.544 59.1142 120.582 59.2627 120.639C59.4021 120.7 59.537 120.771 59.6539 120.879C60.8008 121.88 60.6749 124.798 60.6434 125.34V125.435C60.6434 125.435 72.9804 106.227 96.8312 104.296C97.6003 104.235 98.3829 104.188 99.1745 104.164C99.8986 104.14 100.6 104.126 101.275 104.117H103.951C104.378 104.117 104.788 104.131 105.201 104.14C105.395 104.14 105.593 104.14 105.786 104.164C106.312 104.188 106.82 104.211 107.302 104.235H107.509C108.026 104.273 108.53 104.306 109.015 104.357C109.2 104.372 109.384 104.395 109.568 104.405C109.879 104.442 110.176 104.466 110.477 104.499C110.67 104.523 110.868 104.546 111.062 104.57C111.327 104.608 111.588 104.641 111.844 104.678C112.029 104.702 112.213 104.726 112.397 104.763C112.663 104.811 112.924 104.858 113.18 104.896C113.432 104.943 113.684 104.99 113.927 105.042C114.156 105.089 114.399 105.136 114.615 105.188C114.799 105.236 114.97 105.273 115.155 105.32C115.303 105.358 115.465 105.391 115.613 105.443C115.798 105.49 115.969 105.538 116.14 105.599C116.265 105.637 116.391 105.67 116.508 105.708C116.679 105.769 116.864 105.816 117.026 105.878C117.106 105.901 117.187 105.939 117.268 105.962C117.682 106.109 118.06 106.265 118.415 106.42H118.429C123.345 108.625 122.693 111.604 122.693 111.604C122.693 111.604 133.055 113.714 146.368 126.063C156.901 135.829 152.215 136.854 149.804 136.854C149.174 136.854 148.689 136.783 148.689 136.783C148.689 136.783 158.673 145.153 155.453 160.815C180.105 160.018 211.709 151.506 241.591 118.411C237.629 117.278 244.416 110.475 249.485 109.04C249.139 107.605 249.116 106.387 249.426 105.457C250.344 102.658 254.94 101.081 255.961 100.756C254.891 99.0657 252.93 95.3412 253.973 92.0368C255.147 88.3359 263.162 81.3919 267.484 78.7626C263.81 78.7626 260.774 75.1325 269.864 64.464C273.722 59.7482 281.166 46.8846 291.704 39.733C299.998 34.1013 306.051 30.9055 311.691 29.0362C316.756 16.7627 323.938 3.5593 330.311 2.51134C330.599 2.46413 330.887 2.44053 331.148 2.44053M331.153 0.0330439C330.761 0.0330439 330.361 0.0708085 329.956 0.127455C322.342 1.38313 314.966 15.2474 310 27.0866C304.36 29.0881 298.284 32.4019 290.458 37.7079C282.048 43.4103 275.593 52.5163 271.33 58.5303C270.066 60.3146 268.973 61.8441 268.123 62.8968C262.55 69.4442 260.562 74.363 262.069 77.894C262.263 78.3519 262.519 78.7626 262.816 79.1355C258.404 82.5107 252.948 87.6703 251.797 91.2768C250.866 94.1941 251.626 97.187 252.647 99.4859C250.519 100.501 248.073 102.162 247.249 104.669C246.975 105.5 246.872 106.43 246.926 107.468C242.891 109.347 238.101 113.511 238.092 117.065C238.092 117.523 238.173 118.005 238.358 118.477C215.37 143.217 188.421 156.605 158.183 158.304C159.263 148.901 155.979 142.231 153.276 138.482C154.297 137.869 154.783 137.024 154.999 136.41C156.042 133.516 153.919 129.886 147.888 124.292C137.238 114.417 128.369 110.862 124.811 109.739C124.294 107.94 122.8 105.821 119.378 104.263L119.342 104.239L119.283 104.216C118.883 104.036 118.478 103.876 118.033 103.72L117.966 103.697L117.772 103.626C117.588 103.564 117.394 103.503 117.196 103.432C117.057 103.394 116.931 103.347 116.796 103.31C116.612 103.248 116.418 103.201 116.211 103.14C116.05 103.092 115.888 103.055 115.717 103.007L115.613 102.984C115.451 102.946 115.289 102.899 115.132 102.861C114.903 102.814 114.673 102.767 114.43 102.705C114.134 102.644 113.868 102.597 113.594 102.535C113.328 102.488 113.054 102.441 112.766 102.389C112.604 102.365 112.442 102.342 112.285 102.318H112.182C111.916 102.271 111.642 102.224 111.368 102.186C111.174 102.162 110.967 102.139 110.76 102.115C110.45 102.077 110.14 102.044 109.82 102.021H109.694L109.245 101.959C108.741 101.912 108.224 101.874 107.684 101.837H107.477C106.96 101.799 106.443 101.775 105.903 101.766H105.453L105.291 101.742C104.877 101.728 104.455 101.719 104.014 101.719H101.279C100.578 101.733 99.8671 101.742 99.1295 101.766C98.3155 101.789 97.4879 101.837 96.6828 101.898C78.8633 103.347 67.2279 113.931 61.9657 119.983C61.7453 119.633 61.471 119.308 61.1606 119.029C60.8503 118.765 60.495 118.547 60.1262 118.401C59.6989 118.231 59.2537 118.146 58.7949 118.146C57.7739 118.146 56.717 118.543 55.5566 119.378C46.1836 125.539 43.584 144.18 43.0712 158.748C43.0263 159.952 43.0038 161.113 42.9813 162.17C42.9588 163.232 42.9588 164.233 42.9588 165.125C42.9588 165.706 42.9588 166.235 42.9723 166.73C42.7429 166.707 42.5225 166.683 42.3156 166.683H42.0863C40.4087 166.768 39.1448 167.778 38.6861 169.383L38.5961 169.671V170.011H38.6096C38.5286 175.317 46.8942 202.47 66.6972 210.476C71.9684 214.262 77.451 216.712 83.0236 217.769C79.4839 248.429 71.4197 283.833 64.6193 289.21C60.9762 292.09 57.9089 293.539 55.2013 294.827C50.3889 297.108 46.2421 299.071 43.1972 307.403C39.6935 317 31.9171 325.247 25.0583 332.516C23.9114 333.734 22.796 334.914 21.739 336.062C19.949 338.016 17.5113 340.017 14.9387 342.127C7.16227 348.529 -2.5121 356.502 1.18944 367.977C3.38428 374.789 7.69299 378.249 13.9986 378.249C18.042 378.249 22.9714 376.828 29.4974 373.774C38.3532 369.639 49.233 361.859 61.8353 350.672C63.8817 352.673 66.5353 353.674 69.7286 353.674C73.2997 353.674 77.6309 352.433 83.3519 349.756C99.215 342.34 119.162 331.478 127.523 323.255C135.551 315.343 153.407 299.166 169.351 288.639C177.379 283.333 184.229 274.458 191.421 264.994C197.416 266.792 204.09 269.152 211.777 272.202L211.867 272.24L211.97 272.263C220.759 274.817 229.407 276.389 237.692 276.903C241.128 285.141 248.477 289.479 259.047 289.479C268.825 289.479 279.21 285.802 285.664 282.365C296.071 276.833 307.378 265.305 315.222 252.234C316.315 251.28 317.372 250.303 318.379 249.34C334.679 249.463 338.758 250.28 339.77 250.652C340.148 251.53 340.804 254.788 339.55 259.286C339.356 259.999 339.032 260.924 338.655 262.01C337.301 265.952 335.439 271.343 336.185 275.818C337.449 283.413 347.353 287.515 356.024 287.515C366.112 287.515 377.608 282.389 379.632 268.005V267.92L379.655 267.826L379.817 265.475C381.197 245.049 382.102 231.544 377.622 221.668C373.201 211.892 363.918 206.562 345.891 203.617C348.396 195.441 350.2 186.698 351.473 176.549C353.47 177.427 355.575 177.89 357.607 177.89H358.057L358.116 177.951L359.114 177.904C366.409 177.54 370.673 171.947 371.073 171.394C374.599 167.32 374.91 160.83 371.842 155.165C369.796 151.393 366.342 148.292 362.514 146.63C363.261 144.893 363.432 142.929 362.942 141.154C362.438 139.332 361.287 138.006 359.784 137.501C359.452 137.392 359.096 137.331 358.705 137.331C358.314 137.331 357.841 137.392 357.338 137.501C357.796 135.353 358.21 133.318 358.588 131.435C359.735 125.779 361.3 118.038 362.793 117.518C363.274 117.348 363.99 117.122 364.885 116.829C372.8 114.285 393.822 107.544 400.866 96.8612C406.861 87.76 407.643 75.6753 406.29 70.3836C404.441 63.8362 394.551 62.7174 386.599 61.7969C383.154 61.4004 381.049 56.7459 380.464 55.2353C380.347 54.886 380.222 54.5367 380.109 54.1873L380.064 54.0646C379.983 53.7861 379.947 53.6162 379.938 53.5831L379.857 53.1347L379.628 52.724C379.628 52.724 379.56 52.6154 379.524 52.5682C376.871 45.4307 373.632 39.7755 369.643 35.3523C369.85 31.4437 370.273 16.6258 365.267 10.9848C363.864 9.40336 362.096 8.57254 360.153 8.57254C359.762 8.57254 359.362 8.61031 358.957 8.66695C354.486 9.40336 349.822 14.2986 344.722 23.6075C343.516 23.5226 342.275 23.4754 341.025 23.4754H340.75C340.831 16.5645 340.175 6.66544 336.19 2.31308C334.809 0.807216 333.078 0 331.171 0V0.0141617L331.153 0.0330439Z" fill="#49250D"/>
</svg>
