<svg width="134" height="39" viewBox="0 0 134 39" fill="none" xmlns="http://www.w3.org/2000/svg">
<g clip-path="url(#clip0_6266_12916)">
<path d="M25.0978 0.119995C24.2135 0.119995 23.4427 2.01263 23.4427 4.93205C22.3147 4.66846 21.1056 4.52134 19.8122 4.52134C18.5187 4.52134 17.3096 4.66846 16.1817 4.93205C16.1817 2.01263 15.4093 0.119995 14.5266 0.119995C11.0815 0.119995 6.11621 14.7692 6.11621 17.5338C6.11621 20.2984 11.6393 28.3471 19.8106 28.3471C27.9819 28.3471 33.5051 20.2969 33.5051 17.5338C33.5051 14.7707 28.5413 0.119995 25.0978 0.119995Z" fill="url(#paint0_linear_6266_12916)"/>
<path d="M25.0978 0.119995C24.2135 0.119995 23.4427 2.01263 23.4427 4.93205C22.3147 4.66846 21.1056 4.52134 19.8122 4.52134C18.5187 4.52134 17.3096 4.66846 16.1817 4.93205C16.1817 2.01263 15.4093 0.119995 14.5266 0.119995C11.0815 0.119995 6.11621 14.7692 6.11621 17.5338C6.11621 20.2984 11.6393 28.3471 19.8106 28.3471C27.9819 28.3471 33.5051 20.2969 33.5051 17.5338C33.5051 14.7707 28.5413 0.119995 25.0978 0.119995Z" fill="#FF953F"/>
<path d="M25.0479 13.183H24.8334C24.4195 13.183 24.084 13.5185 24.084 13.9324V14.6527C24.084 15.0665 24.4195 15.402 24.8334 15.402H25.0479C25.4618 15.402 25.7973 15.0665 25.7973 14.6527V13.9324C25.7973 13.5185 25.4618 13.183 25.0479 13.183Z" fill="#451E11"/>
<path d="M14.7891 13.183H14.5746C14.1607 13.183 13.8252 13.5185 13.8252 13.9324V14.6527C13.8252 15.0665 14.1607 15.402 14.5746 15.402H14.7891C15.203 15.402 15.5385 15.0665 15.5385 14.6527V13.9324C15.5385 13.5185 15.203 13.183 14.7891 13.183Z" fill="#451E11"/>
<path d="M30.91 25.1733L30.9039 25.1794C27.7147 28.3088 23.7762 30.0328 19.8116 30.0328C15.847 30.0328 11.907 28.3088 8.71939 25.1794L8.71326 25.1733C8.47112 24.9373 8.06348 25.1074 8.06348 25.4461V26.5173C8.06348 27.5594 8.55847 28.5448 9.40595 29.1516C10.894 30.2183 12.4817 31.0519 14.126 31.6374L14.1352 31.6236C14.7038 31.832 15.2892 32.0113 15.8884 32.1599C16.0172 32.1906 16.1474 32.2228 16.2777 32.2504C16.3543 32.2672 16.4309 32.2825 16.5091 32.2994C15.9482 33.0519 15.6386 34.002 15.703 35.0273C15.8333 37.0762 17.5021 38.7436 19.5511 38.8708C21.9449 39.0194 23.9325 37.1206 23.9325 34.7591C23.9325 33.8365 23.6291 32.986 23.1172 32.2994C23.2552 32.2703 23.3946 32.2396 23.531 32.2075C23.5923 32.1937 23.6521 32.1799 23.7134 32.1645C24.1042 32.068 24.4873 31.9592 24.8658 31.8381L24.8689 31.8458C26.7385 31.2588 28.5454 30.3516 30.225 29.147C31.0709 28.5402 31.5628 27.5563 31.5628 26.5157V25.443C31.5628 25.1043 31.1552 24.9327 30.9131 25.1702L30.91 25.1733Z" fill="#974EF2"/>
<path d="M19.016 13.4205L18.4889 12.2328C18.1762 11.5386 17.4789 11.0881 16.7142 11.0881H13.1787C11.9527 11.0881 10.9551 10.0904 10.9551 8.8644V8.11807C10.9551 7.71656 11.28 7.39014 11.683 7.39014C12.0861 7.39014 12.411 7.71503 12.411 8.11807V8.8644C12.411 9.28891 12.7558 9.63372 13.1803 9.63372H16.7157C18.049 9.63372 19.2643 10.4168 19.8145 11.6306C20.3677 10.4168 21.5814 9.63372 22.9132 9.63372H26.4487C26.8732 9.63372 27.218 9.28891 27.218 8.8644V8.11807C27.218 7.71656 27.5429 7.39014 27.9459 7.39014C28.349 7.39014 28.6739 7.71503 28.6739 8.11807V8.8644C28.6739 10.0904 27.6762 11.0881 26.4502 11.0881H22.9147C22.15 11.0881 21.4527 11.5386 21.1385 12.2359L20.6129 13.4205H19.0206H19.016Z" fill="#FFFAF6"/>
<path d="M18.3626 12.688L14.4317 22.0837C13.9995 23.1182 14.7581 24.2599 15.8799 24.2599H23.7432C24.865 24.2599 25.6251 23.1182 25.1914 22.0837L21.2605 12.688C20.7226 11.4022 18.902 11.4022 18.3641 12.688H18.3626Z" fill="#FFFAF6"/>
<path d="M19.2226 14.2941H17.6916L17.1031 15.4818C16.7905 16.176 16.0932 16.6265 15.3285 16.6265H11.793C10.567 16.6265 9.46973 17.8449 9.46973 19.0464C9.46973 20.2478 10.4536 21.8186 12.3003 23.6301C13.5707 24.8775 16.2357 26.9678 19.8126 26.9678C23.3894 26.9678 26.0544 24.876 27.3249 23.6301C29.1716 21.8171 30.1554 20.2463 30.1554 19.0464C30.1554 17.8464 29.0581 16.6265 27.8321 16.6265H24.2967C23.532 16.6265 22.8347 16.176 22.522 15.4818L21.9336 14.2941H20.4026H19.2256H19.2226Z" fill="#FFFAF6"/>
<path d="M22.298 33.9914L19.6927 36.5966C19.4981 36.7913 19.1809 36.7913 18.9847 36.5966L17.299 34.9109C17.1764 34.7883 17.1764 34.589 17.299 34.4664L17.6898 34.0757C17.8124 33.9531 18.0116 33.9531 18.1342 34.0757L19.3403 35.2817L21.4659 33.1562C21.5885 33.0336 21.7877 33.0336 21.9103 33.1562L22.3011 33.5469C22.4237 33.6695 22.4237 33.8688 22.3011 33.9914H22.298Z" fill="#FFFAF6"/>
<path d="M21.3602 12.6175C21.3602 11.7731 22.0453 11.0896 22.8881 11.0896H23.1931V10.6942L23.3326 10.4061L21.8981 10.7678L20.4561 12.0153L20.8928 13.3363L21.4736 13.2014C21.3985 13.0221 21.3572 12.8244 21.3572 12.6175H21.3602Z" fill="#FFFAF6"/>
<path d="M18.2633 12.6175C18.2633 11.7731 17.5783 11.0896 16.7354 11.0896H16.4305V10.6942L16.291 10.4061L17.7254 10.7678L19.1675 12.0153L18.7308 13.3363L18.1499 13.2014C18.225 13.0221 18.2664 12.8244 18.2664 12.6175H18.2633Z" fill="#FFFAF6"/>
<path d="M22.7931 19.5751C22.6705 19.5751 22.5632 19.6548 22.5295 19.7728C22.4881 19.9184 22.4084 20.0502 22.2873 20.1513C21.2713 20.9973 20.1173 20.2862 20.1173 19.31V18.7813C20.1173 18.6142 20.1893 18.4549 20.3165 18.3461C20.8146 17.917 22.0743 16.8212 22.0743 16.8212C22.4896 16.4596 22.2337 15.7776 21.6835 15.7776H17.9366C17.3864 15.7776 17.1305 16.4596 17.5458 16.8212C17.5458 16.8212 18.8055 17.9154 19.3036 18.3461C19.4308 18.4549 19.5028 18.6142 19.5028 18.7813V19.2702C19.5028 19.8954 19.0476 20.4502 18.4254 20.5207C17.8553 20.585 17.3512 20.2525 17.1535 19.7652C17.109 19.6533 17.0063 19.5767 16.8853 19.5767H16.8608C16.6477 19.5767 16.5052 19.7927 16.5849 19.9904C16.8546 20.6647 17.5136 21.1413 18.2829 21.1413C18.9189 21.1413 19.4798 20.8149 19.8077 20.323C20.1357 20.8165 20.6966 21.1413 21.3326 21.1413C22.1218 21.1413 22.7931 20.6402 23.0505 19.9399C23.1149 19.7636 22.9785 19.5767 22.79 19.5767L22.7931 19.5751Z" fill="#451E11"/>
</g>
<path d="M118.495 25.6243L118.495 25.6245C119.375 26.1058 120.365 26.346 121.462 26.346C122.574 26.346 123.577 26.1058 124.471 25.6247L124.471 25.6245C125.378 25.1297 126.093 24.4353 126.615 23.5419C127.152 22.6477 127.419 21.6167 127.419 20.4504C127.419 19.2843 127.159 18.2535 126.636 17.3594C126.127 16.4659 125.426 15.7781 124.532 15.2968C123.639 14.8019 122.642 14.5548 121.544 14.5548C120.446 14.5548 119.45 14.8019 118.557 15.2968C117.663 15.7781 116.955 16.4658 116.432 17.3592L116.432 17.3592L116.432 17.3596C115.923 18.2537 115.669 19.2844 115.669 20.4504C115.669 21.6162 115.916 22.6468 116.411 23.5408L116.412 23.5412C116.92 24.4346 117.615 25.1292 118.495 25.6243ZM123.538 18.0048L123.538 18.0048L123.539 18.0055C124.101 18.5678 124.386 19.3804 124.386 20.4504C124.386 21.168 124.25 21.7743 123.982 22.2712C123.713 22.7691 123.35 23.1447 122.894 23.3995C122.451 23.6414 121.974 23.7624 121.462 23.7624C120.656 23.7624 119.985 23.4806 119.448 22.917C118.926 22.341 118.662 21.5209 118.662 20.4504C118.662 19.3799 118.933 18.567 119.468 18.0047C120.019 17.4269 120.697 17.1385 121.503 17.1385C122.31 17.1385 122.987 17.4269 123.538 18.0048Z" fill="#451E11" stroke="#451E11" stroke-width="0.0873749"/>
<path d="M105.368 23.7038V23.6601H105.324H103.994C103.562 23.6601 103.262 23.5789 103.083 23.4262C102.918 23.2604 102.831 22.9947 102.831 22.6193V17.1794H105.324H105.368V17.1357V14.7827V14.739H105.324H102.831V11.9795V11.9358H102.787H99.9022H99.8585V11.9795V14.739H98.5518H98.5081V14.7827V17.1357V17.1794H98.5518H99.8585V22.5989C99.8585 23.779 100.162 24.6721 100.777 25.2697C101.392 25.8671 102.31 26.1619 103.524 26.1619H105.324H105.368V26.1182V23.7038Z" fill="#451E11" stroke="#451E11" stroke-width="0.0873749"/>
<path d="M94.5656 12.9925L94.5656 12.9925L94.567 12.9937C94.9168 13.3156 95.3505 13.4759 95.8651 13.4759C96.3797 13.4759 96.807 13.3156 97.1435 12.9931L97.1435 12.9931C97.4932 12.6574 97.6685 12.2435 97.6685 11.7544C97.6685 11.2654 97.4934 10.8583 97.1435 10.5361C96.8073 10.2002 96.3799 10.0329 95.8651 10.0329C95.35 10.0329 94.916 10.2003 94.5663 10.5361C94.2298 10.8585 94.0618 11.2657 94.0618 11.7544C94.0618 12.243 94.2298 12.6566 94.5656 12.9925ZM97.3206 14.7826V14.7389H97.277H94.4124H94.3687V14.7826V26.1181V26.1618H94.4124H97.277H97.3206V26.1181V14.7826Z" fill="#451E11" stroke="#451E11" stroke-width="0.0873749"/>
<path d="M92.35 26.1619H92.3936V26.1182V19.4683C92.3936 17.9323 91.9614 16.7332 91.0918 15.8772C90.2366 15.0083 89.1062 14.5753 87.7053 14.5753C86.8794 14.5753 86.1082 14.775 85.3923 15.1742L85.392 15.1744C84.7138 15.5601 84.1888 16.0684 83.8181 16.6994C83.4347 16.0294 82.9024 15.5138 82.2219 15.1535C81.5191 14.7677 80.7207 14.5753 79.8277 14.5753C79.1261 14.5753 78.4787 14.7129 77.8859 14.9886L77.8855 14.9888C77.3465 15.2455 76.8965 15.5921 76.5362 16.0288V14.619V14.5753H76.4925H73.6279H73.5842V14.619V26.1182V26.1619H73.6279H76.4925H76.5362V26.1182V19.8571C76.5362 18.9775 76.7594 18.3149 77.1991 17.8619C77.6531 17.3945 78.2684 17.159 79.0502 17.159C79.8181 17.159 80.4195 17.3943 80.8599 17.8614L80.8599 17.8614L80.8603 17.8619C81.3 18.3149 81.5232 18.9775 81.5232 19.8571V26.1182V26.1619H81.5669H84.4315H84.4751V26.1182V19.8571C84.4751 18.9775 84.6984 18.3149 85.138 17.8619C85.5922 17.3943 86.2008 17.159 86.9687 17.159C87.7366 17.159 88.338 17.3943 88.7784 17.8614L88.7788 17.8619C89.2185 18.3149 89.4417 18.9775 89.4417 19.8571V26.1182V26.1619H89.4854H92.35Z" fill="#451E11" stroke="#451E11" stroke-width="0.0873749"/>
<path d="M68.919 16.3924V14.7827V14.739H68.8753H66.0107H65.9671V14.7827V26.1182V26.1619H66.0107H68.8753H68.919V26.1182V20.4709C68.919 19.4248 69.1435 18.7036 69.5802 18.2932C70.033 17.8804 70.7027 17.6705 71.5967 17.6705H72.3537H72.3974V17.6268V14.619V14.5753H72.3537C71.5831 14.5753 70.8935 14.7474 70.286 15.0926L70.2856 15.0928C69.7347 15.4131 69.2791 15.8465 68.919 16.3924Z" fill="#451E11" stroke="#451E11" stroke-width="0.0873749"/>
<path d="M64.4931 21.3535H64.5301L64.5362 21.317C64.5912 20.9868 64.6186 20.616 64.6186 20.2049C64.6186 19.0937 64.3785 18.1109 63.897 17.2578C63.4292 16.3912 62.7616 15.7236 61.8949 15.2558C61.042 14.7881 60.073 14.5548 58.989 14.5548C57.8641 14.5548 56.8676 14.795 56.0009 15.2765C55.134 15.7581 54.4597 16.4462 53.9785 17.3401C53.4971 18.2341 53.2571 19.2713 53.2571 20.4504C53.2571 21.616 53.4971 22.6464 53.9785 23.5403L53.9787 23.5408C54.4736 24.4342 55.1544 25.129 56.0209 25.6241L56.0216 25.6245C56.9017 26.1058 57.8911 26.346 58.989 26.346C60.3473 26.346 61.4959 25.996 62.4322 25.2938L62.4326 25.2935C63.3673 24.5788 64.0002 23.6708 64.3303 22.5705L64.3472 22.5142H64.2885H61.1988H61.1716L61.1596 22.5386C60.9377 22.9893 60.6412 23.3252 60.2708 23.5487C59.9004 23.7723 59.4533 23.8851 58.9276 23.8851C58.2011 23.8851 57.5912 23.6568 57.0952 23.201C56.6098 22.7549 56.3284 22.1406 56.254 21.3535H64.4931ZM60.7814 17.6598L60.7814 17.6598L60.7819 17.6602C61.2793 18.079 61.5401 18.6385 61.5632 19.3428H56.2774C56.3908 18.611 56.6778 18.0445 57.1355 17.639L57.1356 17.639C57.618 17.2102 58.2076 16.9952 58.9072 16.9952C59.6479 16.9952 60.2718 17.2172 60.7814 17.6598Z" fill="#451E11" stroke="#451E11" stroke-width="0.0873749"/>
<path d="M45.1087 26.1618H45.1524V26.1181V20.6782H47.5027C48.6804 20.6782 49.6565 20.4728 50.4286 20.0593C51.2124 19.6467 51.7855 19.1022 52.1449 18.425C52.5166 17.7502 52.7026 17.0269 52.7026 16.2558C52.7026 15.4031 52.5031 14.6383 52.1033 13.9626C51.7165 13.2859 51.1298 12.7551 50.3456 12.3699C49.5606 11.9843 48.6125 11.7925 47.5027 11.7925H42.2441H42.2005V11.8362V26.1181V26.1618H42.2441H45.1087ZM49.1095 17.7587C48.739 18.1026 48.1654 18.2787 47.3799 18.2787H45.1524V14.2124H47.3799C48.1518 14.2124 48.7226 14.3852 49.1002 14.7231C49.4769 15.0601 49.6688 15.5682 49.6688 16.2558C49.6688 16.9015 49.4808 17.4005 49.1095 17.7587Z" fill="#451E11" stroke="#451E11" stroke-width="0.0873749"/>
<mask id="path-20-outside-1_6266_12916" maskUnits="userSpaceOnUse" x="110.082" y="9.07654" width="5" height="18" fill="black">
<rect fill="white" x="110.082" y="9.07654" width="5" height="18"/>
<path fill-rule="evenodd" clip-rule="evenodd" d="M112.842 13.4322C112.337 13.4322 111.914 13.2753 111.573 12.9616C111.246 12.6342 111.082 12.2318 111.082 11.7544C111.082 11.2769 111.246 10.8813 111.573 10.5676C111.914 10.2402 112.337 10.0765 112.842 10.0765C113.346 10.0765 113.762 10.2402 114.09 10.5676C114.431 10.8813 114.601 11.2769 114.601 11.7544C114.601 12.2318 114.431 12.6342 114.09 12.9616C113.762 13.2753 113.346 13.4322 112.842 13.4322ZM114.254 26.1181V14.7826H111.389V26.1181H114.254Z"/>
</mask>
<path fill-rule="evenodd" clip-rule="evenodd" d="M112.842 13.4322C112.337 13.4322 111.914 13.2753 111.573 12.9616C111.246 12.6342 111.082 12.2318 111.082 11.7544C111.082 11.2769 111.246 10.8813 111.573 10.5676C111.914 10.2402 112.337 10.0765 112.842 10.0765C113.346 10.0765 113.762 10.2402 114.09 10.5676C114.431 10.8813 114.601 11.2769 114.601 11.7544C114.601 12.2318 114.431 12.6342 114.09 12.9616C113.762 13.2753 113.346 13.4322 112.842 13.4322ZM114.254 26.1181V14.7826H111.389V26.1181H114.254Z" fill="#451E11"/>
<path d="M111.573 12.9616L111.511 13.0234L111.514 13.0259L111.573 12.9616ZM111.573 10.5676L111.634 10.6307L111.634 10.6306L111.573 10.5676ZM114.09 10.5676L114.028 10.6294L114.031 10.6319L114.09 10.5676ZM114.09 12.9616L114.15 13.0247L114.15 13.0246L114.09 12.9616ZM114.254 14.7826H114.341V14.6952H114.254V14.7826ZM114.254 26.1181V26.2055H114.341V26.1181H114.254ZM111.389 14.7826V14.6952H111.302V14.7826H111.389ZM111.389 26.1181H111.302V26.2055H111.389V26.1181ZM111.514 13.0259C111.873 13.3558 112.317 13.5196 112.842 13.5196V13.3448C112.357 13.3448 111.956 13.1948 111.632 12.8973L111.514 13.0259ZM110.995 11.7544C110.995 12.2542 111.167 12.679 111.511 13.0234L111.635 12.8998C111.324 12.5894 111.169 12.2094 111.169 11.7544H110.995ZM111.513 10.5045C111.167 10.8357 110.995 11.2545 110.995 11.7544H111.169C111.169 11.2993 111.324 10.927 111.634 10.6307L111.513 10.5045ZM112.842 9.98916C112.316 9.98916 111.871 10.1605 111.513 10.5046L111.634 10.6306C111.957 10.32 112.358 10.1639 112.842 10.1639V9.98916ZM114.152 10.5058C113.806 10.1605 113.367 9.98916 112.842 9.98916V10.1639C113.326 10.1639 113.719 10.32 114.028 10.6294L114.152 10.5058ZM114.689 11.7544C114.689 11.2533 114.509 10.8341 114.149 10.5033L114.031 10.6319C114.353 10.9285 114.514 11.3005 114.514 11.7544H114.689ZM114.15 13.0246C114.509 12.6806 114.689 12.2553 114.689 11.7544H114.514C114.514 12.2083 114.353 12.5878 114.029 12.8985L114.15 13.0246ZM112.842 13.5196C113.366 13.5196 113.805 13.3558 114.15 13.0247L114.029 12.8985C113.72 13.1948 113.327 13.3448 112.842 13.3448V13.5196ZM114.166 14.7826V26.1181H114.341V14.7826H114.166ZM111.389 14.87H114.254V14.6952H111.389V14.87ZM111.477 26.1181V14.7826H111.302V26.1181H111.477ZM114.254 26.0308H111.389V26.2055H114.254V26.0308Z" fill="#451E11" mask="url(#path-20-outside-1_6266_12916)"/>
<path d="M107.057 25.8626L107.057 25.8626L107.058 25.8638C107.408 26.1857 107.842 26.346 108.356 26.346C108.871 26.346 109.298 26.1857 109.635 25.8632L109.635 25.8632C109.984 25.5275 110.16 25.1137 110.16 24.6245C110.16 24.1356 109.985 23.7284 109.635 23.4062C109.298 23.0703 108.871 22.903 108.356 22.903C107.841 22.903 107.407 23.0704 107.058 23.4062C106.721 23.7286 106.553 24.1358 106.553 24.6245C106.553 25.1131 106.721 25.5267 107.057 25.8626Z" fill="#451E11" stroke="#451E11" stroke-width="0.0873749"/>
<defs>
<linearGradient id="paint0_linear_6266_12916" x1="19.8106" y1="39.9175" x2="19.8106" y2="5.90059" gradientUnits="userSpaceOnUse">
<stop stop-color="#AA52E5"/>
<stop offset="1" stop-color="#FF9469"/>
</linearGradient>
<clipPath id="clip0_6266_12916">
<rect width="27.3904" height="38.76" fill="white" transform="translate(6.11621 0.119995)"/>
</clipPath>
</defs>
</svg>
