<svg width="31" height="31" viewBox="0 0 31 31" fill="none" xmlns="http://www.w3.org/2000/svg">
<g clip-path="url(#clip0_6266_12986)">
<path fill-rule="evenodd" clip-rule="evenodd" d="M15.5 0.980713C6.93625 0.980713 0 7.69321 0 15.9807C0 22.6182 4.43687 28.2245 10.5981 30.212C11.3731 30.3432 11.6637 29.8932 11.6637 29.4995C11.6637 29.1432 11.6444 27.962 11.6444 26.7057C7.75 27.3995 6.7425 25.787 6.4325 24.9432C6.25812 24.512 5.5025 23.1807 4.84375 22.8245C4.30125 22.5432 3.52625 21.8495 4.82438 21.8307C6.045 21.812 6.91687 22.9182 7.2075 23.3682C8.6025 25.637 10.8306 24.9995 11.7219 24.6057C11.8575 23.6307 12.2644 22.9745 12.71 22.5995C9.26125 22.2245 5.6575 20.9307 5.6575 15.1932C5.6575 13.562 6.25812 12.212 7.24625 11.162C7.09125 10.787 6.54875 9.24946 7.40125 7.18696C7.40125 7.18696 8.69938 6.79321 11.6637 8.72446C12.9037 8.38696 14.2213 8.21821 15.5388 8.21821C16.8563 8.21821 18.1738 8.38696 19.4138 8.72446C22.3781 6.77446 23.6763 7.18696 23.6763 7.18696C24.5288 9.24946 23.9862 10.787 23.8313 11.162C24.8194 12.212 25.42 13.5432 25.42 15.1932C25.42 20.9495 21.7969 22.2245 18.3481 22.5995C18.91 23.0682 19.3944 23.9682 19.3944 25.3745C19.3944 27.3807 19.375 28.9932 19.375 29.4995C19.375 29.8932 19.6656 30.362 20.4406 30.212C26.5631 28.2245 31 22.5995 31 15.9807C31 7.69321 24.0637 0.980713 15.5 0.980713Z" fill="#FDFCFC"/>
</g>
<defs>
<clipPath id="clip0_6266_12986">
<rect width="31" height="30" fill="white" transform="translate(0 0.980713)"/>
</clipPath>
</defs>
</svg>
