<svg width="310" height="78" viewBox="0 0 310 78" fill="none" xmlns="http://www.w3.org/2000/svg">
<g clip-path="url(#clip0_6659_18792)">
<g clip-path="url(#clip1_6659_18792)">
<path d="M8.21225 30.5455H301.5C305.603 30.5455 308.935 33.8771 308.935 37.9804V69.9212C308.935 74.0245 305.603 77.3561 301.5 77.3561H8.21225C4.10892 77.3561 0.777344 74.0245 0.777344 69.9212V37.9832C0.777344 33.8798 4.10892 30.5483 8.21225 30.5483V30.5455Z" fill="#974EF2"/>
<path d="M301.5 31.2255C305.225 31.2255 308.255 34.2554 308.255 37.981V69.9191C308.255 73.6447 305.225 76.6746 301.5 76.6746H8.21193C4.48632 76.6746 1.45638 73.6447 1.45638 69.9191V37.981C1.45638 34.2554 4.48632 31.2255 8.21193 31.2255H301.5ZM301.5 29.8668H8.21193C3.73087 29.8668 0.0976562 33.5 0.0976562 37.981V69.9191C0.0976562 74.4002 3.73087 78.0334 8.21193 78.0334H301.5C305.981 78.0334 309.614 74.4002 309.614 69.9191V37.981C309.614 33.5 305.981 29.8668 301.5 29.8668Z" fill="#2B1400"/>
<path d="M9.72349 35.5245H299.987C302.093 35.5245 303.802 37.2337 303.802 39.3398V68.5577C303.802 70.6637 302.093 72.3729 299.987 72.3729H9.72349C7.61747 72.3729 5.9082 70.6637 5.9082 68.5577V39.3398C5.9082 37.2337 7.61747 35.5245 9.72349 35.5245Z" fill="#2B1400"/>
<path d="M299.985 36.1168C301.763 36.1168 303.208 37.5625 303.208 39.3397V68.5576C303.208 70.3348 301.763 71.7805 299.985 71.7805H9.72486C7.94765 71.7805 6.50197 70.3348 6.50197 68.5576V39.3397C6.50197 37.5625 7.94765 36.1168 9.72486 36.1168H299.988M299.985 34.932H9.72486C7.29003 34.932 5.31445 36.9076 5.31445 39.3424V68.5603C5.31445 70.9951 7.29003 72.9707 9.72486 72.9707H299.988C302.423 72.9707 304.398 70.9951 304.398 68.5603V39.3424C304.398 36.9076 302.423 34.932 299.988 34.932H299.985Z" fill="#2B1400"/>
<path d="M13.2812 58.1199L22.9499 52.2991V52.0736L13.2812 46.2854V42.6631L26.4744 50.8779V53.5301L13.2812 61.7449V58.1226V58.1199Z" fill="#FF943F"/>
<path d="M29.2539 65.5442V62.5034H45.4553V65.5442H29.2539Z" fill="#FF943F"/>
<path d="M58.971 65.6745C56.0172 65.6745 53.6992 64.6772 52.0198 62.6826C50.3377 60.688 49.498 57.7939 49.498 54.0003C49.498 52.1036 49.7127 50.4324 50.1448 48.9894C50.5769 47.5464 51.2019 46.3263 52.0198 45.3344C52.8378 44.3426 53.8351 43.5926 55.0117 43.0871C56.1857 42.5817 57.5063 42.3262 58.9738 42.3262C60.9357 42.3262 62.5798 42.7529 63.9059 43.6061C65.232 44.4594 66.2728 45.7257 67.0255 47.4024L63.9521 49.0845C63.5635 48.0057 62.9657 47.1497 62.1586 46.5138C61.3515 45.8779 60.289 45.56 58.9738 45.56C57.2264 45.56 55.8596 46.1551 54.8677 47.3453C53.8758 48.5356 53.3813 50.1796 53.3813 52.2802V55.7205C53.3813 57.8211 53.8758 59.4651 54.8677 60.6554C55.8596 61.8456 57.2292 62.4407 58.9738 62.4407C60.3325 62.4407 61.4358 62.0902 62.289 61.3891C63.1396 60.688 63.77 59.7885 64.1804 58.6879L67.1234 60.4651C66.3679 62.101 65.3135 63.3782 63.9548 64.294C62.5961 65.2125 60.9357 65.6717 58.9738 65.6717L58.971 65.6745Z" fill="white"/>
<path d="M70.873 65.2884V42.7173H74.528V62.0546H83.7129V65.2884H70.8758H70.873Z" fill="white"/>
<path d="M86.2969 65.2882V62.3126H89.3703V45.69H86.2969V42.7144H96.1286V45.69H93.0253V62.3126H96.1286V65.2882H86.2969Z" fill="white"/>
<path d="M112.152 44.0434V61.9078H119.152V65.2856H107.891V44.0406H112.152V44.0434Z" fill="#FF943F"/>
<path d="M127.247 48.1523C129.957 48.1523 131.813 49.4295 132.818 50.8317V48.4268H137.109V65.2885H132.818V62.8238C131.813 64.2858 129.897 65.563 127.217 65.563C122.956 65.563 119.549 62.0629 119.549 56.7965C119.549 51.5301 122.956 48.1523 127.25 48.1523H127.247ZM128.345 51.8943C126.063 51.8943 123.902 53.5981 123.902 56.7938C123.902 59.9895 126.063 61.8156 128.345 61.8156C130.628 61.8156 132.818 60.0493 132.818 56.8536C132.818 53.6579 130.688 51.8915 128.345 51.8915V51.8943Z" fill="#FF943F"/>
<path d="M155.976 65.2857H151.686V63.1552C150.62 64.5846 148.764 65.4976 146.664 65.4976C142.737 65.4976 139.908 62.9405 139.908 58.3154V48.424H144.169V57.7067C144.169 60.416 145.661 61.8753 147.914 61.8753C150.167 61.8753 151.688 60.4133 151.688 57.7067V48.424H155.979V65.2857H155.976Z" fill="#FF943F"/>
<path d="M170.769 55.9732C170.769 53.2639 169.277 51.8046 167.024 51.8046C164.772 51.8046 163.22 53.2666 163.22 55.9732V65.2858H158.959V48.4241H163.22V50.5247C164.315 49.0953 166.141 48.1823 168.302 48.1823C172.228 48.1823 175.027 50.7394 175.027 55.3943V65.2858H170.766V55.9732H170.769Z" fill="#FF943F"/>
<path d="M185.105 48.1523C189.307 48.1523 192.135 50.3426 193.049 54.1171H188.453C187.967 52.6878 186.839 51.7747 185.076 51.7747C182.701 51.7747 181.119 53.5709 181.119 56.8563C181.119 60.1417 182.701 61.908 185.076 61.908C186.842 61.908 187.937 61.1172 188.453 59.5955H193.049C192.135 63.1879 189.304 65.5603 185.105 65.5603C180.236 65.5603 176.766 62.1526 176.766 56.8563C176.766 51.56 180.236 48.1523 185.105 48.1523Z" fill="#FF943F"/>
<path d="M194.968 42.7638H199.229V50.5248C200.324 49.0954 202.212 48.1824 204.462 48.1824C208.267 48.1824 211.036 50.7395 211.036 55.3944V65.2859H206.775V55.9733C206.775 53.264 205.283 51.8047 203.03 51.8047C200.777 51.8047 199.226 53.2667 199.226 55.9733V65.2859H194.965V42.7638H194.968Z" fill="#FF943F"/>
<path d="M216.332 44.0432H220.897L224.642 60.5381L228.963 44.0432H233.71L237.789 60.4484L241.563 44.0432H246.159L240.224 65.2881H235.202L231.215 50.1629L227.047 65.2881L222.055 65.318L216.332 44.0432Z" fill="#FF943F"/>
<path d="M253.552 65.5603C248.652 65.5603 245.09 62.1526 245.09 56.8563C245.09 51.56 248.56 48.1523 253.552 48.1523C258.544 48.1523 261.862 51.4703 261.862 56.4922C261.862 57.0411 261.832 57.5873 261.74 58.1362H249.413C249.625 60.6308 251.332 62.033 253.462 62.033C255.288 62.033 256.294 61.12 256.84 59.9949H261.435C260.522 63.0983 257.723 65.5657 253.552 65.5657V65.5603ZM249.443 55.272H257.449C257.389 53.0492 255.623 51.6497 253.432 51.6497C251.394 51.6497 249.78 52.9595 249.446 55.272H249.443Z" fill="#FF943F"/>
<path d="M271.726 65.5603C266.826 65.5603 263.264 62.1526 263.264 56.8563C263.264 51.56 266.734 48.1523 271.726 48.1523C276.718 48.1523 280.036 51.4703 280.036 56.4922C280.036 57.0411 280.006 57.5873 279.913 58.1362H267.587C267.799 60.6308 269.506 62.033 271.636 62.033C273.462 62.033 274.468 61.12 275.014 59.9949H279.609C278.696 63.0983 275.897 65.5657 271.726 65.5657V65.5603ZM267.617 55.272H275.623C275.563 53.0492 273.796 51.6497 271.606 51.6497C269.568 51.6497 267.954 52.9595 267.62 55.272H267.617Z" fill="#FF943F"/>
<path d="M281.921 42.7638H286.182V55.5765L291.842 48.4242H297.38L289.953 56.8863L297.44 65.2859H291.902L286.179 58.1037V65.2859H281.918V42.7638H281.921Z" fill="#FF943F"/>
<path d="M75.5085 4.56727C75.9949 5.01565 76.6009 5.2412 77.3238 5.2412C78.0466 5.2412 78.6417 5.01565 79.1091 4.56727C79.5955 4.09987 79.8401 3.52378 79.8401 2.83898C79.8401 2.15419 79.5955 1.58896 79.1091 1.14058C78.639 0.673185 78.0439 0.436768 77.3238 0.436768C76.6036 0.436768 75.9949 0.670467 75.5085 1.14058C75.0384 1.58896 74.8047 2.15691 74.8047 2.83898C74.8047 3.52106 75.0384 4.09716 75.5085 4.56727Z" fill="#FEFCFB"/>
<path d="M79.3448 7.17322H75.2441V23.3936H79.3448V7.17322Z" fill="#FEFCFB"/>
<path d="M87.2279 10.5405V18.3885C87.2279 18.9347 87.3556 19.3341 87.6083 19.5896C87.8828 19.8233 88.3311 19.9401 88.9561 19.9401H90.8584V23.394H88.2822C84.8256 23.394 83.1001 21.7146 83.1001 18.3586V10.5405H81.168V7.1736H83.1001V3.16266H87.2279V7.1736H90.8584V10.5405H87.2279Z" fill="#FEFCFB"/>
<path fill-rule="evenodd" clip-rule="evenodd" d="M113.951 23.6599C112.389 23.6599 110.984 23.3175 109.734 22.6355C108.484 21.9316 107.5 20.9479 106.777 19.6789C106.073 18.4098 105.723 16.9451 105.723 15.2875C105.723 13.6299 106.084 12.1652 106.807 10.8961C107.549 9.62707 108.554 8.65151 109.823 7.96672C111.092 7.2629 112.508 6.91235 114.068 6.91235C115.628 6.91235 117.044 7.2629 118.313 7.96672C119.582 8.6488 120.576 9.62707 121.299 10.8961C122.041 12.1652 122.413 13.6299 122.413 15.2875C122.413 16.9451 122.033 18.4098 121.272 19.6789C120.53 20.9479 119.516 21.9344 118.226 22.6355C116.957 23.3175 115.533 23.6599 113.951 23.6599ZM113.951 20.0865C114.693 20.0865 115.386 19.9099 116.03 19.5593C116.693 19.1897 117.22 18.6408 117.611 17.9207C118.003 17.1979 118.198 16.3201 118.198 15.2848C118.198 13.7413 117.788 12.5619 116.967 11.7412C116.166 10.9016 115.182 10.4831 114.011 10.4831C112.84 10.4831 111.853 10.9016 111.054 11.7412C110.274 12.5619 109.883 13.7413 109.883 15.2848C109.883 16.8283 110.263 18.0185 111.024 18.8582C111.804 19.6789 112.78 20.0892 113.954 20.0892L113.951 20.0865Z" fill="#FEFCFB"/>
<path d="M65.6412 6.93948C67.6331 6.93948 69.2337 7.55363 70.4429 8.78463C71.6739 9.99389 72.2881 11.6923 72.2881 13.8798V23.3963H68.1875V14.4369C68.1875 13.1679 67.8668 12.2004 67.2228 11.5374C66.5787 10.8553 65.701 10.5129 64.5869 10.5129C63.4727 10.5129 62.5868 10.8553 61.9211 11.5374C61.277 12.2004 60.9564 13.1679 60.9564 14.4369V23.3963H56.8557V14.4369C56.8557 13.1679 56.5351 12.2004 55.8883 11.5374C55.2443 10.8553 54.3666 10.5129 53.2524 10.5129C52.1383 10.5129 51.2225 10.8553 50.5594 11.5374C49.9154 12.2004 49.5948 13.1679 49.5948 14.4369V23.3963H45.4941V6.93948H49.5948V9.13517C50.1219 8.4531 50.7959 7.91505 51.6138 7.52373C52.4535 7.13242 53.3693 6.93677 54.3666 6.93677C55.6356 6.93677 56.7661 7.21123 57.7634 7.75743C58.758 8.28462 59.5297 9.0455 60.0759 10.0401C60.6031 9.10257 61.364 8.35255 62.3586 7.78461C63.3722 7.21938 64.4673 6.93677 65.6385 6.93677L65.6412 6.93948Z" fill="#FEFCFB"/>
<path d="M40.7453 7.67048C39.9056 8.15961 39.2235 8.83082 38.6963 9.69225V7.17318H34.5957V23.3936H38.6963V15.3119C38.6963 13.8092 39.017 12.7548 39.6637 12.1488C40.3268 11.5428 41.3023 11.2412 42.5904 11.2412H43.6747V6.93677C42.5823 6.93677 41.604 7.18134 40.748 7.66776L40.7453 7.67048Z" fill="#FEFCFB"/>
<path fill-rule="evenodd" clip-rule="evenodd" d="M32.5455 14.9342C32.5455 15.5212 32.5075 16.0457 32.4287 16.5158H20.5698C20.6676 17.687 21.078 18.6055 21.8008 19.2685C22.5236 19.9316 23.4122 20.2631 24.4666 20.2631C25.9884 20.2631 27.0726 19.6082 27.7167 18.3011H32.1379C31.6705 19.8637 30.7711 21.1517 29.4449 22.1653C28.1161 23.1599 26.4884 23.6599 24.5536 23.6599C22.991 23.6599 21.5861 23.3175 20.3361 22.6355C19.1051 21.9316 18.1404 20.9479 17.4366 19.6789C16.7545 18.4098 16.4121 16.9451 16.4121 15.2875C16.4121 13.6299 16.7545 12.1353 17.4366 10.8662C18.1187 9.59718 19.0752 8.62162 20.3062 7.93683C21.5372 7.25475 22.9503 6.91235 24.5508 6.91235C26.1514 6.91235 27.4694 7.24388 28.6786 7.90694C29.9096 8.56999 30.8553 9.51838 31.5183 10.7467C32.2004 11.9559 32.5428 13.3527 32.5428 14.9342H32.5455ZM28.2982 13.763C28.2792 12.7087 27.8987 11.869 27.1569 11.244C26.415 10.5999 25.5074 10.2765 24.434 10.2765C23.4177 10.2765 22.559 10.589 21.8579 11.2141C21.1758 11.82 20.7546 12.6679 20.5997 13.7603H28.3009L28.2982 13.763Z" fill="#FEFCFB"/>
<path fill-rule="evenodd" clip-rule="evenodd" d="M14.6995 12.3581C15.2267 11.4016 15.4903 10.3771 15.4903 9.28469C15.4903 8.07543 15.2077 6.99118 14.6425 6.03464C14.0963 5.0781 13.2675 4.32537 12.1533 3.77916C11.0392 3.23296 9.69403 2.9585 8.11248 2.9585H0.587891V23.3964H4.6885V15.5484H8.11519C9.79457 15.5484 11.1805 15.2549 12.2729 14.6707C13.3843 14.0837 14.1941 13.3147 14.7023 12.3581H14.6995ZM10.4549 11.4777C9.9087 11.9858 9.06901 12.2386 7.93584 12.2386H4.68579V6.29551H7.93584C10.1614 6.29551 11.2729 7.29009 11.2729 9.28198C11.2729 10.2195 10.9984 10.9505 10.4522 11.4777H10.4549Z" fill="#FEFCFB"/>
<path d="M101.617 5.2412C100.894 5.2412 100.291 5.01565 99.8015 4.56727C99.3341 4.09987 99.0977 3.52378 99.0977 2.83898C99.0977 2.15419 99.3314 1.58896 99.8015 1.14058C100.291 0.673185 100.894 0.436768 101.617 0.436768C102.34 0.436768 102.935 0.670467 103.402 1.14058C103.891 1.58896 104.133 2.15691 104.133 2.83898C104.133 3.52106 103.888 4.09716 103.402 4.56727C102.935 5.01565 102.337 5.2412 101.617 5.2412Z" fill="#FEFCFB"/>
<path d="M103.638 7.17322H99.5371V23.3936H103.638V7.17322Z" fill="#FEFCFB"/>
<path d="M95.1988 23.6598C94.4759 23.6598 93.8726 23.4343 93.3835 22.9859C92.9134 22.5185 92.6797 21.9424 92.6797 21.2576C92.6797 20.5728 92.9134 20.0076 93.3835 19.5592C93.8699 19.0918 94.4759 18.8554 95.1988 18.8554C95.9216 18.8554 96.5167 19.0891 96.9841 19.5592C97.4732 20.0076 97.7151 20.5755 97.7151 21.2576C97.7151 21.9397 97.4705 22.5158 96.9841 22.9859C96.5167 23.4343 95.9216 23.6598 95.1988 23.6598Z" fill="#FEFCFB"/>
<path fill-rule="evenodd" clip-rule="evenodd" d="M75.418 4.65677C74.9261 4.16491 74.6788 3.5562 74.6788 2.84152C74.6788 2.12683 74.9261 1.52628 75.4207 1.05344C75.9343 0.561586 76.5702 0.317017 77.3229 0.317017C78.0756 0.317017 78.7034 0.561586 79.1952 1.05344C79.7088 1.52628 79.9643 2.12683 79.9643 2.84152C79.9643 3.5562 79.7061 4.16763 79.1952 4.65948C78.7006 5.13232 78.0729 5.36873 77.3229 5.36873C76.5729 5.36873 75.937 5.13504 75.4234 4.6622H75.4207L75.418 4.65677ZM79.1083 1.14312C78.6409 0.675718 78.0457 0.439301 77.3229 0.439301C76.6001 0.439301 75.9968 0.673001 75.5077 1.14312C75.0375 1.5915 74.8038 2.15944 74.8038 2.84152C74.8038 3.52359 75.0375 4.09969 75.5077 4.56981C75.9941 5.01819 76.6001 5.24373 77.3229 5.24373C78.0457 5.24373 78.6409 5.01819 79.1083 4.56981C79.5974 4.10241 79.8393 3.52631 79.8393 2.84152C79.8393 2.15672 79.5947 1.5915 79.1083 1.14312ZM79.467 23.5212H75.1163V7.04811H79.467V23.5212ZM90.9835 19.8146V23.5212H88.2823C86.535 23.5212 85.2035 23.0973 84.3067 22.2277C83.41 21.3554 82.9725 20.0592 82.9725 18.3608V10.6677H81.0404V7.05083H82.9725V3.03989H87.3503V7.05083H90.9808V10.6677H87.3503V18.3907C87.3503 18.9179 87.4725 19.2793 87.6899 19.4994C87.9291 19.7032 88.3394 19.8174 88.9535 19.8174H90.9808L90.9835 19.8146ZM87.6084 19.5891C87.3557 19.3364 87.228 18.9342 87.228 18.388V10.54H90.8585V7.17311H87.228V3.16217H83.1002V7.17311H81.1681V10.54H83.1002V18.3581C83.1002 21.7168 84.8285 23.3935 88.2823 23.3935H90.8585V19.9396H88.9563C88.3312 19.9396 87.8829 19.8228 87.6084 19.5891ZM109.677 22.744C108.408 22.0294 107.405 21.0266 106.671 19.7386C105.957 18.4478 105.601 16.9613 105.601 15.2847C105.601 13.608 105.965 12.1216 106.701 10.8308C107.454 9.54272 108.476 8.54814 109.766 7.85519C111.054 7.1405 112.492 6.78452 114.071 6.78452C115.65 6.78452 117.087 7.1405 118.375 7.85519C119.663 8.55086 120.677 9.54272 121.411 10.8308C122.163 12.1216 122.538 13.608 122.538 15.2847C122.538 16.9613 122.152 18.4505 121.378 19.7413C120.625 21.0293 119.593 22.0321 118.286 22.744C116.997 23.437 115.552 23.7848 113.951 23.7848C112.351 23.7848 110.946 23.4397 109.674 22.744H109.677ZM121.272 19.676C122.033 18.407 122.413 16.9423 122.413 15.2847C122.413 13.627 122.044 12.1623 121.299 10.8933C120.576 9.62424 119.582 8.64868 118.313 7.96389C117.044 7.26007 115.628 6.90952 114.068 6.90952C112.508 6.90952 111.09 7.26007 109.823 7.96389C108.554 8.64597 107.549 9.62424 106.807 10.8933C106.084 12.1623 105.726 13.627 105.726 15.2847C105.726 16.9423 106.076 18.407 106.78 19.676C107.503 20.9451 108.489 21.9315 109.737 22.6326C110.987 23.3147 112.391 23.6571 113.954 23.6571C115.516 23.6571 116.959 23.3147 118.229 22.6326C119.517 21.9288 120.533 20.9451 121.275 19.676H121.272ZM111.054 11.7411C110.275 12.5618 109.883 13.7412 109.883 15.2847C109.883 16.8282 110.264 18.0184 111.025 18.8581C111.804 19.6788 112.78 20.0891 113.951 20.0891C114.693 20.0891 115.386 19.9125 116.03 19.5619C116.693 19.1923 117.22 18.6434 117.612 17.9233C118.003 17.2005 118.196 16.3227 118.196 15.2874C118.196 13.7439 117.786 12.5645 116.965 11.7438C116.166 10.9042 115.18 10.4857 114.008 10.4857C112.837 10.4857 111.851 10.9042 111.052 11.7438L111.054 11.7411ZM115.97 19.4505C116.612 19.0918 117.122 18.5646 117.503 17.8608C117.881 17.1597 118.074 16.3037 118.074 15.2847C118.074 13.7656 117.671 12.6189 116.881 11.8308C116.103 11.0156 115.15 10.608 114.014 10.608C112.878 10.608 111.924 11.0129 111.147 11.8281C110.394 12.6161 110.011 13.7629 110.011 15.2847C110.011 16.8064 110.386 17.9641 111.12 18.7711C111.875 19.5646 112.818 19.9614 113.957 19.9614C114.677 19.9614 115.351 19.7902 115.976 19.4505H115.97ZM72.4152 23.5212H68.0646V14.4368C68.0646 13.1895 67.7467 12.2574 67.1325 11.6243C66.5157 10.9694 65.6732 10.6378 64.589 10.6378C63.5047 10.6378 62.6515 10.9694 62.0156 11.6243C61.4014 12.2574 61.0835 13.1868 61.0835 14.4368V23.5212H56.7329V14.4368C56.7329 13.1895 56.4149 12.2574 55.8008 11.6243C55.1839 10.9694 54.3415 10.6378 53.2573 10.6378C52.173 10.6378 51.2899 10.9694 50.654 11.6243C50.0398 12.2574 49.7219 13.1868 49.7219 14.4368V23.5212H45.3713V6.81441H49.7219V8.78727C50.2246 8.21661 50.8388 7.75736 51.5643 7.41225C52.4203 7.01279 53.3578 6.81441 54.3687 6.81441C55.6541 6.81441 56.809 7.09159 57.8253 7.64867C58.7791 8.15411 59.5318 8.8688 60.0808 9.79273C60.6134 8.92043 61.3552 8.21661 62.3009 7.67856C63.3363 7.10246 64.4504 6.81169 65.6406 6.81169C67.6597 6.81169 69.2929 7.43671 70.532 8.69216C71.7902 9.93131 72.4125 11.665 72.4125 13.8743V23.5158L72.4152 23.5212ZM70.4451 8.78456C69.2358 7.55356 67.6352 6.93941 65.6434 6.93941C64.4721 6.93941 63.3797 7.22203 62.3634 7.78726C61.4123 8.32803 60.6759 9.03728 60.1514 9.91501C60.127 9.95577 60.1025 9.99925 60.078 10.04C60.0536 9.99653 60.0318 9.95577 60.0074 9.91229C59.4666 8.97749 58.7193 8.26009 57.7655 7.75465C56.7709 7.20844 55.6378 6.93398 54.3687 6.93398C53.3741 6.93398 52.4556 7.12964 51.6159 7.52095C50.8605 7.88237 50.2273 8.36607 49.7192 8.97478C49.6757 9.02641 49.6349 9.07804 49.5942 9.12967V6.93398H45.4936V23.3908H49.5942V14.4314C49.5942 13.1623 49.9175 12.1949 50.5616 11.5319C51.2246 10.8498 52.1241 10.5074 53.2546 10.5074C54.385 10.5074 55.2464 10.8498 55.8905 11.5319C56.5345 12.1949 56.8579 13.1623 56.8579 14.4314V23.3908H60.9585V14.4314C60.9585 13.1623 61.2792 12.1949 61.9232 11.5319C62.5862 10.8498 63.4748 10.5074 64.589 10.5074C65.7031 10.5074 66.5809 10.8498 67.2249 11.5319C67.8689 12.1949 68.1923 13.1623 68.1923 14.4314V23.3908H72.2929V13.8743C72.2929 11.6868 71.6788 9.98838 70.4478 8.77912L70.4451 8.78456ZM40.6837 7.56443C41.5641 7.06442 42.5614 6.81441 43.6729 6.81441H43.7979V11.3688H42.5886C41.3196 11.3688 40.3766 11.6678 39.7462 12.2439C39.1402 12.8145 38.8195 13.8227 38.8195 15.3146V23.5212H34.4689V7.04811H38.8195V9.27369C39.3223 8.56444 39.9418 7.99378 40.681 7.56171L40.6837 7.56443ZM38.8222 9.49652C38.7788 9.56174 38.738 9.62696 38.6972 9.69218V7.17311H34.5966V23.3935H38.6972V15.3118C38.6972 13.8091 39.0179 12.7547 39.6619 12.1487C40.325 11.5428 41.3005 11.2411 42.5913 11.2411H43.6756V6.9367C43.6348 6.9367 43.5914 6.9367 43.5506 6.9367C42.5071 6.95572 41.575 7.19757 40.7462 7.66769C39.9717 8.11878 39.3304 8.72749 38.8222 9.49109V9.49652ZM32.5314 16.6407H20.7051C20.8192 17.7222 21.216 18.5619 21.8817 19.176C22.5801 19.8174 23.4361 20.138 24.4606 20.138C25.2052 20.138 25.8329 19.9777 26.3492 19.6652C26.8682 19.3527 27.284 18.8826 27.5965 18.2467L27.6318 18.176H32.2977L32.2488 18.3364C31.7732 19.9233 30.8602 21.2331 29.5123 22.2658C28.159 23.2821 26.5014 23.7848 24.5475 23.7848C22.966 23.7848 21.5393 23.4397 20.2703 22.744C19.0203 22.0294 18.0366 21.0266 17.3246 19.7386C16.6289 18.4478 16.2838 16.9613 16.2838 15.2847C16.2838 13.608 16.6289 12.0944 17.3246 10.8036C18.0175 9.51555 18.9931 8.52096 20.2431 7.8253C21.4931 7.12963 22.9307 6.78452 24.5503 6.78452C26.1699 6.78452 27.5068 7.12148 28.7378 7.79541C29.9879 8.46933 30.9525 9.43402 31.6292 10.684C32.3249 11.915 32.67 13.3335 32.67 14.9314C32.67 15.5211 32.6319 16.0564 32.5504 16.532L32.5341 16.6352L32.5314 16.6407ZM31.5178 10.7465C30.8547 9.51555 29.9063 8.56988 28.6781 7.90682C27.4688 7.24377 26.091 6.91224 24.5503 6.91224C23.0095 6.91224 21.5339 7.25464 20.3056 7.93671C19.0746 8.61879 18.1181 9.59707 17.436 10.8661C16.7539 12.1352 16.4115 13.608 16.4115 15.2874C16.4115 16.9668 16.7539 18.4097 17.436 19.6788C18.1398 20.9478 19.1045 21.9342 20.3355 22.6353C21.5855 23.3174 22.9905 23.6598 24.553 23.6598C26.4851 23.6598 28.1155 23.1625 29.4417 22.1652C30.7351 21.1761 31.6183 19.9315 32.0966 18.426C32.1102 18.3853 32.1238 18.3418 32.1346 18.301H27.7134C27.0693 19.6081 25.9851 20.263 24.4633 20.263C23.4089 20.263 22.5203 19.9315 21.7975 19.2684C21.1018 18.6298 20.6942 17.7521 20.5801 16.6407C20.5746 16.5999 20.5719 16.5564 20.5692 16.5157H32.4281C32.5069 16.0483 32.545 15.5211 32.545 14.9341C32.545 13.3526 32.2026 11.9585 31.5205 10.7465H31.5178ZM27.0748 11.3389C26.3574 10.7139 25.4796 10.4014 24.4334 10.4014C23.447 10.4014 22.6182 10.7031 21.9415 11.3063C21.3138 11.8607 20.9143 12.6352 20.7458 13.6352H28.1726C28.1264 12.6732 27.7623 11.9123 27.0802 11.3389H27.0748ZM28.2949 13.6379C28.2949 13.6787 28.2976 13.7221 28.3003 13.7629H20.5991C20.6045 13.7221 20.6127 13.6787 20.6181 13.6379C20.7866 12.6053 21.1997 11.7982 21.8573 11.2167C22.5611 10.5917 23.4198 10.2791 24.4334 10.2791C25.5068 10.2791 26.4144 10.6025 27.1563 11.2466C27.8683 11.8471 28.2487 12.6433 28.2949 13.6406V13.6379ZM4.68579 15.5483H8.11248C9.79185 15.5483 11.1777 15.2548 12.2702 14.6705C13.3843 14.0836 14.1941 13.3145 14.6995 12.358C15.2267 11.4014 15.4903 10.377 15.4903 9.28456C15.4903 8.0753 15.2077 6.99105 14.6425 6.03451C14.0963 5.07797 13.2675 4.32524 12.1533 3.77903C11.0392 3.23283 9.69403 2.95837 8.11248 2.95837H0.587893V23.3962H4.68851V15.5483H4.68579ZM14.7512 5.96929C14.1914 4.98829 13.3408 4.22198 12.2104 3.6649C11.0772 3.10783 9.71033 2.83336 8.1152 2.83336H0.462891V23.5212H4.81351V15.6733H8.1152C9.80816 15.6733 11.2158 15.3771 12.3327 14.7792C13.4631 14.1841 14.2919 13.396 14.8137 12.4151C15.349 11.4395 15.618 10.396 15.618 9.28185C15.618 8.05085 15.33 6.94485 14.7512 5.96929ZM99.7119 4.65677C99.2173 4.16491 98.9727 3.5562 98.9727 2.84152C98.9727 2.12683 99.22 1.52628 99.7146 1.05344C100.228 0.561586 100.864 0.317017 101.617 0.317017C102.37 0.317017 102.995 0.561586 103.489 1.05344C104.003 1.52628 104.261 2.12683 104.261 2.84152C104.261 3.5562 104.003 4.16763 103.489 4.65948C102.995 5.13232 102.367 5.36873 101.617 5.36873C100.867 5.36873 100.228 5.13504 99.7173 4.6622H99.7146L99.7119 4.65677ZM103.402 1.14312C102.932 0.675718 102.337 0.439301 101.617 0.439301C100.897 0.439301 100.291 0.673001 99.8016 1.14312C99.3342 1.5915 99.0977 2.15944 99.0977 2.84152C99.0977 3.52359 99.3314 4.09969 99.8016 4.56981C100.291 5.01819 100.894 5.24373 101.617 5.24373C102.34 5.24373 102.935 5.01819 103.402 4.56981C103.889 4.10241 104.133 3.52631 104.133 2.84152C104.133 2.15672 103.889 1.5915 103.402 1.14312ZM103.761 23.5212H99.4102V7.04811H103.761V23.5212ZM93.2933 23.0728C92.8014 22.581 92.5541 21.9723 92.5541 21.2576C92.5541 20.5429 92.8014 19.9424 93.296 19.4695C93.8096 18.9777 94.4455 18.7331 95.1982 18.7331C95.9509 18.7331 96.5787 18.9777 97.0705 19.4695C97.5841 19.9424 97.8396 20.5429 97.8396 21.2576C97.8396 21.9723 97.5814 22.5837 97.0705 23.0756C96.576 23.5484 95.9482 23.7848 95.1982 23.7848C94.4482 23.7848 93.8123 23.5511 93.2987 23.0783H93.296L93.2933 23.0728ZM96.9836 19.5592C96.5162 19.0918 95.9183 18.8554 95.1982 18.8554C94.4781 18.8554 93.8721 19.0891 93.383 19.5592C92.9156 20.0076 92.6792 20.5755 92.6792 21.2576C92.6792 21.9397 92.9128 22.5158 93.383 22.9859C93.8721 23.4343 94.4754 23.6598 95.1982 23.6598C95.9211 23.6598 96.5162 23.4343 96.9836 22.9859C97.4727 22.5185 97.7146 21.9424 97.7146 21.2576C97.7146 20.5728 97.47 20.0076 96.9836 19.5592ZM79.342 7.17311V23.3935H75.2413V7.17311H79.342ZM10.4549 11.4775C11.0011 10.9504 11.2756 10.2194 11.2756 9.28185C11.2756 7.28996 10.1614 6.29538 7.93856 6.29538H4.68851V12.2384H7.93856C9.07173 12.2384 9.90871 11.9857 10.4576 11.4775H10.4549ZM4.81079 12.1134H7.93585C9.05271 12.1134 9.85436 11.8634 10.368 11.3851C10.8843 10.8879 11.1479 10.1922 11.1479 9.27913C11.1479 8.30629 10.8761 7.59975 10.3544 7.13235C9.8299 6.66224 9.03097 6.41767 7.93313 6.41767H4.80807V12.1107L4.81079 12.1134ZM103.636 7.17311V23.3935H99.5352V7.17311H103.636Z" fill="#FEFCFB"/>
</g>
</g>
<defs>
<clipPath id="clip0_6659_18792">
<rect width="309.516" height="77.7188" fill="white" transform="translate(0.0976562 0.145081)"/>
</clipPath>
<clipPath id="clip1_6659_18792">
<rect width="309.516" height="77.7188" fill="white" transform="translate(0.0976562 0.314636)"/>
</clipPath>
</defs>
</svg>
