<svg width="328" height="304" viewBox="0 0 328 304" fill="none" xmlns="http://www.w3.org/2000/svg">
<mask id="path-1-inside-1_6701_1378" fill="white">
<path d="M0 6.47995C0 3.11375 2.72885 0.384888 6.09506 0.384888L181.074 0.384888C184.44 0.384888 187.169 3.11374 187.169 6.47995V258.331C187.169 261.698 184.44 264.426 181.074 264.426H6.09507C2.72886 264.426 0 261.698 0 258.331L0 6.47995Z"/>
</mask>
<path d="M0 6.47995C0 3.11375 2.72885 0.384888 6.09506 0.384888L181.074 0.384888C184.44 0.384888 187.169 3.11374 187.169 6.47995V258.331C187.169 261.698 184.44 264.426 181.074 264.426H6.09507C2.72886 264.426 0 261.698 0 258.331L0 6.47995Z" fill="#ED5F00"/>
<path d="M6.09506 1.88489L181.074 1.88489V-1.11511L6.09506 -1.11511V1.88489ZM185.669 6.47995V258.331H188.669V6.47995H185.669ZM181.074 262.926H6.09507V265.926H181.074V262.926ZM1.5 258.331L1.5 6.47995H-1.5L-1.5 258.331H1.5ZM6.09507 262.926C3.55728 262.926 1.5 260.869 1.5 258.331H-1.5C-1.5 262.526 1.90044 265.926 6.09507 265.926V262.926ZM185.669 258.331C185.669 260.869 183.611 262.926 181.074 262.926V265.926C185.268 265.926 188.669 262.526 188.669 258.331H185.669ZM181.074 1.88489C183.611 1.88489 185.669 3.94217 185.669 6.47995H188.669C188.669 2.28531 185.268 -1.11511 181.074 -1.11511V1.88489ZM6.09506 -1.11511C1.90042 -1.11511 -1.5 2.28532 -1.5 6.47995H1.5C1.5 3.94217 3.55728 1.88489 6.09506 1.88489V-1.11511Z" fill="black" mask="url(#path-1-inside-1_6701_1378)"/>
<mask id="path-3-inside-2_6701_1378" fill="white">
<path fill-rule="evenodd" clip-rule="evenodd" d="M34.9251 22.0067C31.5589 22.0067 28.8301 24.7355 28.8301 28.1017L28.8301 279.953C28.8301 283.319 31.5589 286.048 34.9251 286.048H209.904C213.27 286.048 215.999 283.319 215.999 279.953V28.1017C215.999 24.7355 213.27 22.0067 209.904 22.0067L34.9251 22.0067ZM99.7585 31.5665C98.0754 31.5665 96.711 32.9309 96.711 34.614V35.9062C96.711 37.5893 98.0754 38.9537 99.7585 38.9537H146.016C147.699 38.9537 149.064 37.5893 149.064 35.9062V34.614C149.064 32.9309 147.699 31.5665 146.016 31.5665L99.7585 31.5665Z"/>
</mask>
<path fill-rule="evenodd" clip-rule="evenodd" d="M34.9251 22.0067C31.5589 22.0067 28.8301 24.7355 28.8301 28.1017L28.8301 279.953C28.8301 283.319 31.5589 286.048 34.9251 286.048H209.904C213.27 286.048 215.999 283.319 215.999 279.953V28.1017C215.999 24.7355 213.27 22.0067 209.904 22.0067L34.9251 22.0067ZM99.7585 31.5665C98.0754 31.5665 96.711 32.9309 96.711 34.614V35.9062C96.711 37.5893 98.0754 38.9537 99.7585 38.9537H146.016C147.699 38.9537 149.064 37.5893 149.064 35.9062V34.614C149.064 32.9309 147.699 31.5665 146.016 31.5665L99.7585 31.5665Z" fill="#BD4B00"/>
<path d="M30.3301 28.1017C30.3301 25.5639 32.3874 23.5067 34.9251 23.5067V20.5067C30.7305 20.5067 27.3301 23.9071 27.3301 28.1017H30.3301ZM30.3301 279.953L30.3301 28.1017H27.3301L27.3301 279.953H30.3301ZM34.9251 284.548C32.3874 284.548 30.3301 282.491 30.3301 279.953H27.3301C27.3301 284.148 30.7305 287.548 34.9251 287.548V284.548ZM209.904 284.548H34.9251V287.548H209.904V284.548ZM214.499 279.953C214.499 282.491 212.441 284.548 209.904 284.548V287.548C214.098 287.548 217.499 284.148 217.499 279.953H214.499ZM214.499 28.1017V279.953H217.499V28.1017H214.499ZM209.904 23.5067C212.441 23.5067 214.499 25.5639 214.499 28.1017H217.499C217.499 23.9071 214.098 20.5067 209.904 20.5067V23.5067ZM34.9251 23.5067L209.904 23.5067V20.5067L34.9251 20.5067V23.5067ZM98.211 34.614C98.211 33.7594 98.9038 33.0665 99.7585 33.0665V30.0665C97.247 30.0665 95.211 32.1025 95.211 34.614H98.211ZM98.211 35.9062V34.614H95.211V35.9062H98.211ZM99.7585 37.4537C98.9038 37.4537 98.211 36.7608 98.211 35.9062H95.211C95.211 38.4177 97.247 40.4537 99.7585 40.4537V37.4537ZM146.016 37.4537H99.7585V40.4537H146.016V37.4537ZM147.564 35.9062C147.564 36.7608 146.871 37.4537 146.016 37.4537V40.4537C148.528 40.4537 150.564 38.4177 150.564 35.9062H147.564ZM147.564 34.614V35.9062H150.564V34.614H147.564ZM146.016 33.0665C146.871 33.0665 147.564 33.7594 147.564 34.614H150.564C150.564 32.1025 148.528 30.0665 146.016 30.0665V33.0665ZM99.7585 33.0665H146.016V30.0665L99.7585 30.0665V33.0665Z" fill="black" mask="url(#path-3-inside-2_6701_1378)"/>
<mask id="path-5-inside-3_6701_1378" fill="white">
<path fill-rule="evenodd" clip-rule="evenodd" d="M63.7552 39.5099C60.389 39.5099 57.6602 42.2388 57.6602 45.605L57.6602 297.456C57.6602 300.823 60.389 303.551 63.7552 303.551H238.734C242.1 303.551 244.829 300.823 244.829 297.456V45.605C244.829 42.2388 242.1 39.5099 238.734 39.5099L63.7552 39.5099ZM128.589 49.0698C126.905 49.0698 125.541 50.4342 125.541 52.1173V53.4095C125.541 55.0926 126.905 56.457 128.589 56.457H174.846C176.529 56.457 177.894 55.0926 177.894 53.4095V52.1173C177.894 50.4342 176.529 49.0698 174.846 49.0698H128.589Z"/>
</mask>
<path fill-rule="evenodd" clip-rule="evenodd" d="M63.7552 39.5099C60.389 39.5099 57.6602 42.2388 57.6602 45.605L57.6602 297.456C57.6602 300.823 60.389 303.551 63.7552 303.551H238.734C242.1 303.551 244.829 300.823 244.829 297.456V45.605C244.829 42.2388 242.1 39.5099 238.734 39.5099L63.7552 39.5099ZM128.589 49.0698C126.905 49.0698 125.541 50.4342 125.541 52.1173V53.4095C125.541 55.0926 126.905 56.457 128.589 56.457H174.846C176.529 56.457 177.894 55.0926 177.894 53.4095V52.1173C177.894 50.4342 176.529 49.0698 174.846 49.0698H128.589Z" fill="#943E00"/>
<path d="M59.1602 45.605C59.1602 43.0672 61.2174 41.0099 63.7552 41.0099V38.0099C59.5606 38.0099 56.1602 41.4104 56.1602 45.605H59.1602ZM59.1602 297.456L59.1602 45.605H56.1602L56.1602 297.456H59.1602ZM63.7552 302.051C61.2174 302.051 59.1602 299.994 59.1602 297.456H56.1602C56.1602 301.651 59.5606 305.051 63.7552 305.051V302.051ZM238.734 302.051H63.7552V305.051H238.734V302.051ZM243.329 297.456C243.329 299.994 241.272 302.051 238.734 302.051V305.051C242.928 305.051 246.329 301.651 246.329 297.456H243.329ZM243.329 45.605V297.456H246.329V45.605H243.329ZM238.734 41.0099C241.272 41.0099 243.329 43.0672 243.329 45.605H246.329C246.329 41.4104 242.928 38.0099 238.734 38.0099V41.0099ZM63.7552 41.0099L238.734 41.0099V38.0099L63.7552 38.0099V41.0099ZM127.041 52.1173C127.041 51.2627 127.734 50.5698 128.589 50.5698V47.5698C126.077 47.5698 124.041 49.6058 124.041 52.1173H127.041ZM127.041 53.4095V52.1173H124.041V53.4095H127.041ZM128.589 54.957C127.734 54.957 127.041 54.2641 127.041 53.4095H124.041C124.041 55.921 126.077 57.957 128.589 57.957V54.957ZM174.846 54.957H128.589V57.957H174.846V54.957ZM176.394 53.4095C176.394 54.2641 175.701 54.957 174.846 54.957V57.957C177.358 57.957 179.394 55.921 179.394 53.4095H176.394ZM176.394 52.1173V53.4095H179.394V52.1173H176.394ZM174.846 50.5698C175.701 50.5698 176.394 51.2627 176.394 52.1173H179.394C179.394 49.6058 177.358 47.5698 174.846 47.5698V50.5698ZM128.589 50.5698H174.846V47.5698H128.589V50.5698Z" fill="black" mask="url(#path-5-inside-3_6701_1378)"/>
<mask id="path-7-inside-4_6701_1378" fill="white">
<path fill-rule="evenodd" clip-rule="evenodd" d="M99.7904 30.2437C96.4242 30.2437 93.6953 32.9726 93.6953 36.3388L93.6953 288.19C93.6953 291.556 96.4242 294.285 99.7904 294.285H274.769C278.135 294.285 280.864 291.556 280.864 288.19V36.3388C280.864 32.9726 278.135 30.2437 274.769 30.2437L99.7904 30.2437ZM164.624 39.8035C162.941 39.8035 161.576 41.168 161.576 42.8511V44.1432C161.576 45.8263 162.941 47.1907 164.624 47.1907H210.881C212.564 47.1907 213.929 45.8263 213.929 44.1432V42.8511C213.929 41.168 212.564 39.8035 210.881 39.8035H164.624Z"/>
</mask>
<path fill-rule="evenodd" clip-rule="evenodd" d="M99.7904 30.2437C96.4242 30.2437 93.6953 32.9726 93.6953 36.3388L93.6953 288.19C93.6953 291.556 96.4242 294.285 99.7904 294.285H274.769C278.135 294.285 280.864 291.556 280.864 288.19V36.3388C280.864 32.9726 278.135 30.2437 274.769 30.2437L99.7904 30.2437ZM164.624 39.8035C162.941 39.8035 161.576 41.168 161.576 42.8511V44.1432C161.576 45.8263 162.941 47.1907 164.624 47.1907H210.881C212.564 47.1907 213.929 45.8263 213.929 44.1432V42.8511C213.929 41.168 212.564 39.8035 210.881 39.8035H164.624Z" fill="#763205"/>
<path d="M95.1953 36.3388C95.1953 33.801 97.2526 31.7437 99.7904 31.7437V28.7437C95.5957 28.7437 92.1953 32.1441 92.1953 36.3388H95.1953ZM95.1953 288.19V36.3388H92.1953V288.19H95.1953ZM99.7904 292.785C97.2526 292.785 95.1953 290.728 95.1953 288.19H92.1953C92.1953 292.385 95.5957 295.785 99.7904 295.785V292.785ZM274.769 292.785H99.7904V295.785H274.769V292.785ZM279.364 288.19C279.364 290.728 277.307 292.785 274.769 292.785V295.785C278.964 295.785 282.364 292.385 282.364 288.19H279.364ZM279.364 36.3388V288.19H282.364V36.3388H279.364ZM274.769 31.7437C277.307 31.7437 279.364 33.801 279.364 36.3388H282.364C282.364 32.1441 278.964 28.7437 274.769 28.7437V31.7437ZM99.7904 31.7437L274.769 31.7437V28.7437L99.7904 28.7437V31.7437ZM163.076 42.8511C163.076 41.9964 163.769 41.3035 164.624 41.3035V38.3035C162.112 38.3035 160.076 40.3395 160.076 42.8511H163.076ZM163.076 44.1432V42.8511H160.076V44.1432H163.076ZM164.624 45.6907C163.769 45.6907 163.076 44.9979 163.076 44.1432H160.076C160.076 46.6547 162.112 48.6907 164.624 48.6907V45.6907ZM210.881 45.6907H164.624V48.6907H210.881V45.6907ZM212.429 44.1432C212.429 44.9979 211.736 45.6907 210.881 45.6907V48.6907C213.393 48.6907 215.429 46.6547 215.429 44.1432H212.429ZM212.429 42.8511V44.1432H215.429V42.8511H212.429ZM210.881 41.3035C211.736 41.3035 212.429 41.9964 212.429 42.8511H215.429C215.429 40.3395 213.393 38.3035 210.881 38.3035V41.3035ZM164.624 41.3035H210.881V38.3035H164.624V41.3035Z" fill="black" mask="url(#path-7-inside-4_6701_1378)"/>
<mask id="path-9-inside-5_6701_1378" fill="white">
<path d="M117.375 23.0091C117.375 19.6429 120.104 16.914 123.47 16.914L298.449 16.914C301.815 16.914 304.544 19.6429 304.544 23.0091V274.86C304.544 278.227 301.815 280.955 298.449 280.955H123.47C120.104 280.955 117.375 278.227 117.375 274.86L117.375 23.0091Z"/>
</mask>
<path d="M117.375 23.0091C117.375 19.6429 120.104 16.914 123.47 16.914L298.449 16.914C301.815 16.914 304.544 19.6429 304.544 23.0091V274.86C304.544 278.227 301.815 280.955 298.449 280.955H123.47C120.104 280.955 117.375 278.227 117.375 274.86L117.375 23.0091Z" fill="#5F2A06"/>
<path d="M123.47 18.414L298.449 18.414V15.414L123.47 15.414V18.414ZM303.044 23.0091V274.86H306.044V23.0091H303.044ZM298.449 279.455H123.47V282.455H298.449V279.455ZM118.875 274.86V23.0091H115.875V274.86H118.875ZM123.47 279.455C120.932 279.455 118.875 277.398 118.875 274.86H115.875C115.875 279.055 119.275 282.455 123.47 282.455V279.455ZM303.044 274.86C303.044 277.398 300.986 279.455 298.449 279.455V282.455C302.643 282.455 306.044 279.055 306.044 274.86H303.044ZM298.449 18.414C300.986 18.414 303.044 20.4713 303.044 23.0091H306.044C306.044 18.8144 302.643 15.414 298.449 15.414V18.414ZM123.47 15.414C119.275 15.414 115.875 18.8144 115.875 23.0091H118.875C118.875 20.4713 120.932 18.414 123.47 18.414V15.414Z" fill="black" mask="url(#path-9-inside-5_6701_1378)"/>
<mask id="path-11-inside-6_6701_1378" fill="white">
<path fill-rule="evenodd" clip-rule="evenodd" d="M146.24 8.64945C142.873 8.64945 140.145 11.3783 140.145 14.7445V266.596C140.145 269.962 142.873 272.691 146.24 272.691H321.218C324.584 272.691 327.313 269.962 327.313 266.596V14.7445C327.313 11.3783 324.584 8.64945 321.218 8.64945L146.24 8.64945ZM211.074 18.2093C209.391 18.2093 208.026 19.5738 208.026 21.2569V22.549C208.026 24.2321 209.391 25.5965 211.074 25.5965H257.332C259.015 25.5965 260.379 24.2321 260.379 22.549V21.2569C260.379 19.5738 259.015 18.2093 257.332 18.2093L211.074 18.2093Z"/>
</mask>
<path fill-rule="evenodd" clip-rule="evenodd" d="M146.24 8.64945C142.873 8.64945 140.145 11.3783 140.145 14.7445V266.596C140.145 269.962 142.873 272.691 146.24 272.691H321.218C324.584 272.691 327.313 269.962 327.313 266.596V14.7445C327.313 11.3783 324.584 8.64945 321.218 8.64945L146.24 8.64945ZM211.074 18.2093C209.391 18.2093 208.026 19.5738 208.026 21.2569V22.549C208.026 24.2321 209.391 25.5965 211.074 25.5965H257.332C259.015 25.5965 260.379 24.2321 260.379 22.549V21.2569C260.379 19.5738 259.015 18.2093 257.332 18.2093L211.074 18.2093Z" fill="#251C17"/>
<path d="M141.645 14.7445C141.645 12.2067 143.702 10.1494 146.24 10.1494V7.14945C142.045 7.14945 138.645 10.5499 138.645 14.7445H141.645ZM141.645 266.596V14.7445H138.645V266.596H141.645ZM146.24 271.191C143.702 271.191 141.645 269.134 141.645 266.596H138.645C138.645 270.79 142.045 274.191 146.24 274.191V271.191ZM321.218 271.191H146.24V274.191H321.218V271.191ZM325.813 266.596C325.813 269.134 323.756 271.191 321.218 271.191V274.191C325.413 274.191 328.813 270.79 328.813 266.596H325.813ZM325.813 14.7445V266.596H328.813V14.7445H325.813ZM321.218 10.1494C323.756 10.1494 325.813 12.2067 325.813 14.7445H328.813C328.813 10.5499 325.413 7.14945 321.218 7.14945V10.1494ZM146.24 10.1494L321.218 10.1494V7.14945L146.24 7.14945V10.1494ZM209.526 21.2569C209.526 20.4022 210.219 19.7093 211.074 19.7093V16.7093C208.562 16.7093 206.526 18.7453 206.526 21.2569H209.526ZM209.526 22.549V21.2569H206.526V22.549H209.526ZM211.074 24.0965C210.219 24.0965 209.526 23.4037 209.526 22.549H206.526C206.526 25.0605 208.562 27.0965 211.074 27.0965V24.0965ZM257.332 24.0965L211.074 24.0965V27.0965H257.332V24.0965ZM258.879 22.549C258.879 23.4037 258.186 24.0965 257.332 24.0965V27.0965C259.843 27.0965 261.879 25.0605 261.879 22.549H258.879ZM258.879 21.2569V22.549H261.879V21.2569H258.879ZM257.332 19.7093C258.186 19.7093 258.879 20.4022 258.879 21.2569H261.879C261.879 18.7453 259.843 16.7093 257.332 16.7093V19.7093ZM211.074 19.7093L257.332 19.7093V16.7093L211.074 16.7093V19.7093Z" fill="black" mask="url(#path-11-inside-6_6701_1378)"/>
<g clip-path="url(#clip0_6701_1378)">
<g clip-path="url(#clip1_6701_1378)">
<path d="M305.319 35.6976C304.738 35.6976 304.237 36.937 304.237 38.8468C303.499 38.6721 302.71 38.5764 301.86 38.5764C301.009 38.5764 300.22 38.6721 299.482 38.8468C299.482 36.937 298.975 35.6976 298.401 35.6976C296.153 35.6976 292.902 45.2802 292.902 47.0886C292.902 48.8969 296.513 54.1643 301.86 54.1643C307.206 54.1643 310.817 48.8969 310.817 47.0886C310.817 45.2802 307.572 35.6976 305.319 35.6976ZM306.282 44.9253L301.674 49.5335C301.33 49.8772 300.767 49.8772 300.423 49.5335L297.443 46.5534C297.229 46.3393 297.229 45.9844 297.443 45.7703L298.136 45.0774C298.35 44.8634 298.705 44.8634 298.919 45.0774L301.054 47.2125L304.817 43.4493C305.031 43.2353 305.386 43.2353 305.6 43.4493L306.293 44.1423C306.507 44.3563 306.507 44.7112 306.293 44.9253H306.282Z" fill="#FEFCFB"/>
</g>
</g>
<defs>
<clipPath id="clip0_6701_1378">
<rect width="37.9964" height="29.8619" fill="white" transform="translate(288.969 30)"/>
</clipPath>
<clipPath id="clip1_6701_1378">
<rect width="17.9202" height="18.4666" fill="white" transform="translate(292.902 35.6976)"/>
</clipPath>
</defs>
</svg>
