<svg width="153" height="204" viewBox="0 0 153 204" fill="none" xmlns="http://www.w3.org/2000/svg">
<mask id="path-1-inside-1_6520_1301" fill="white">
<path d="M0.609375 4.29948C0.609375 1.92494 2.53432 0 4.90887 0L128.34 0C130.714 0 132.639 1.92495 132.639 4.29949V181.957C132.639 184.331 130.714 186.256 128.34 186.256H4.90887C2.53433 186.256 0.609375 184.331 0.609375 181.957L0.609375 4.29948Z"/>
</mask>
<path d="M0.609375 4.29948C0.609375 1.92494 2.53432 0 4.90887 0L128.34 0C130.714 0 132.639 1.92495 132.639 4.29949V181.957C132.639 184.331 130.714 186.256 128.34 186.256H4.90887C2.53433 186.256 0.609375 184.331 0.609375 181.957L0.609375 4.29948Z" fill="#E9D9FC"/>
<path d="M4.90887 0.918919L128.34 0.918919V-0.918919L4.90887 -0.918919V0.918919ZM131.72 4.29949V181.957H133.558V4.29949H131.72ZM128.34 185.337H4.90887V187.175H128.34V185.337ZM1.52829 181.957L1.52829 4.29948H-0.309544L-0.309544 181.957H1.52829ZM4.90887 185.337C3.04183 185.337 1.52829 183.824 1.52829 181.957H-0.309544C-0.309544 184.839 2.02683 187.175 4.90887 187.175V185.337ZM131.72 181.957C131.72 183.824 130.207 185.337 128.34 185.337V187.175C131.222 187.175 133.558 184.839 133.558 181.957H131.72ZM128.34 0.918919C130.207 0.918919 131.72 2.43245 131.72 4.29949H133.558C133.558 1.41744 131.222 -0.918919 128.34 -0.918919V0.918919ZM4.90887 -0.918919C2.02682 -0.918919 -0.309544 1.41743 -0.309544 4.29948H1.52829C1.52829 2.43245 3.04183 0.918919 4.90887 0.918919V-0.918919Z" fill="black" mask="url(#path-1-inside-1_6520_1301)"/>
<mask id="path-3-inside-2_6520_1301" fill="white">
<path fill-rule="evenodd" clip-rule="evenodd" d="M11.1764 6C8.8019 6 6.87695 7.92494 6.87695 10.2995L6.87695 187.957C6.87695 190.331 8.80191 192.256 11.1764 192.256H134.607C136.982 192.256 138.907 190.331 138.907 187.957V10.2995C138.907 7.92495 136.982 6 134.607 6L11.1764 6ZM56.9115 12.7435C55.7242 12.7435 54.7617 13.706 54.7617 14.8933V15.8047C54.7617 16.992 55.7242 17.9545 56.9115 17.9545H89.5418C90.7291 17.9545 91.6916 16.992 91.6916 15.8047V14.8933C91.6916 13.706 90.7291 12.7435 89.5418 12.7435L56.9115 12.7435Z"/>
</mask>
<path fill-rule="evenodd" clip-rule="evenodd" d="M11.1764 6C8.8019 6 6.87695 7.92494 6.87695 10.2995L6.87695 187.957C6.87695 190.331 8.80191 192.256 11.1764 192.256H134.607C136.982 192.256 138.907 190.331 138.907 187.957V10.2995C138.907 7.92495 136.982 6 134.607 6L11.1764 6ZM56.9115 12.7435C55.7242 12.7435 54.7617 13.706 54.7617 14.8933V15.8047C54.7617 16.992 55.7242 17.9545 56.9115 17.9545H89.5418C90.7291 17.9545 91.6916 16.992 91.6916 15.8047V14.8933C91.6916 13.706 90.7291 12.7435 89.5418 12.7435L56.9115 12.7435Z" fill="#DEC5FB"/>
<path d="M7.79587 10.2995C7.79587 8.43245 9.3094 6.91892 11.1764 6.91892V5.08108C8.2944 5.08108 5.95803 7.41743 5.95803 10.2995H7.79587ZM7.79587 187.957L7.79587 10.2995H5.95803L5.95803 187.957H7.79587ZM11.1764 191.337C9.30941 191.337 7.79587 189.824 7.79587 187.957H5.95803C5.95803 190.839 8.29441 193.175 11.1764 193.175V191.337ZM134.607 191.337H11.1764V193.175H134.607V191.337ZM137.988 187.957C137.988 189.824 136.474 191.337 134.607 191.337V193.175C137.489 193.175 139.826 190.839 139.826 187.957H137.988ZM137.988 10.2995V187.957H139.826V10.2995H137.988ZM134.607 6.91892C136.474 6.91892 137.988 8.43245 137.988 10.2995H139.826C139.826 7.41744 137.489 5.08108 134.607 5.08108V6.91892ZM11.1764 6.91892L134.607 6.91892V5.08108L11.1764 5.08108V6.91892ZM55.6806 14.8933C55.6806 14.2135 56.2317 13.6624 56.9115 13.6624V11.8246C55.2167 11.8246 53.8428 13.1985 53.8428 14.8933H55.6806ZM55.6806 15.8047V14.8933H53.8428V15.8047H55.6806ZM56.9115 17.0356C56.2317 17.0356 55.6806 16.4845 55.6806 15.8047H53.8428C53.8428 17.4995 55.2167 18.8734 56.9115 18.8734V17.0356ZM89.5418 17.0356H56.9115V18.8734H89.5418V17.0356ZM90.7726 15.8047C90.7726 16.4845 90.2216 17.0356 89.5418 17.0356V18.8734C91.2366 18.8734 92.6105 17.4995 92.6105 15.8047H90.7726ZM90.7726 14.8933V15.8047H92.6105V14.8933H90.7726ZM89.5418 13.6624C90.2216 13.6624 90.7726 14.2135 90.7726 14.8933H92.6105C92.6105 13.1985 91.2366 11.8246 89.5418 11.8246V13.6624ZM56.9115 13.6624L89.5418 13.6624V11.8246L56.9115 11.8246V13.6624Z" fill="black" mask="url(#path-3-inside-2_6520_1301)"/>
<mask id="path-5-inside-3_6520_1301" fill="white">
<path fill-rule="evenodd" clip-rule="evenodd" d="M18.1764 11C15.8019 11 13.877 12.9249 13.877 15.2995L13.877 192.957C13.877 195.331 15.8019 197.256 18.1764 197.256H141.607C143.982 197.256 145.907 195.331 145.907 192.957V15.2995C145.907 12.9249 143.982 11 141.607 11L18.1764 11ZM63.9095 17.7436C62.7222 17.7436 61.7598 18.706 61.7598 19.8933V20.8048C61.7598 21.992 62.7222 22.9545 63.9095 22.9545H96.5399C97.7271 22.9545 98.6896 21.992 98.6896 20.8048V19.8933C98.6896 18.706 97.7271 17.7436 96.5399 17.7436L63.9095 17.7436Z"/>
</mask>
<path fill-rule="evenodd" clip-rule="evenodd" d="M18.1764 11C15.8019 11 13.877 12.9249 13.877 15.2995L13.877 192.957C13.877 195.331 15.8019 197.256 18.1764 197.256H141.607C143.982 197.256 145.907 195.331 145.907 192.957V15.2995C145.907 12.9249 143.982 11 141.607 11L18.1764 11ZM63.9095 17.7436C62.7222 17.7436 61.7598 18.706 61.7598 19.8933V20.8048C61.7598 21.992 62.7222 22.9545 63.9095 22.9545H96.5399C97.7271 22.9545 98.6896 21.992 98.6896 20.8048V19.8933C98.6896 18.706 97.7271 17.7436 96.5399 17.7436L63.9095 17.7436Z" fill="#C598FB"/>
<path d="M14.7959 15.2995C14.7959 13.4324 16.3094 11.9189 18.1764 11.9189V10.0811C15.2944 10.0811 12.958 12.4174 12.958 15.2995H14.7959ZM14.7959 192.957L14.7959 15.2995H12.958L12.958 192.957H14.7959ZM18.1764 196.337C16.3094 196.337 14.7959 194.824 14.7959 192.957H12.958C12.958 195.839 15.2944 198.175 18.1764 198.175V196.337ZM141.607 196.337H18.1764V198.175H141.607V196.337ZM144.988 192.957C144.988 194.824 143.474 196.337 141.607 196.337V198.175C144.489 198.175 146.826 195.839 146.826 192.957H144.988ZM144.988 15.2995V192.957H146.826V15.2995H144.988ZM141.607 11.9189C143.474 11.9189 144.988 13.4325 144.988 15.2995H146.826C146.826 12.4174 144.489 10.0811 141.607 10.0811V11.9189ZM18.1764 11.9189L141.607 11.9189V10.0811L18.1764 10.0811V11.9189ZM62.6787 19.8933C62.6787 19.2135 63.2297 18.6625 63.9095 18.6625V16.8246C62.2147 16.8246 60.8408 18.1985 60.8408 19.8933H62.6787ZM62.6787 20.8048V19.8933H60.8408V20.8048H62.6787ZM63.9095 22.0356C63.2297 22.0356 62.6787 21.4845 62.6787 20.8048H60.8408C60.8408 22.4995 62.2147 23.8734 63.9095 23.8734V22.0356ZM96.5399 22.0356H63.9095V23.8734H96.5399V22.0356ZM97.7707 20.8048C97.7707 21.4845 97.2196 22.0356 96.5399 22.0356V23.8734C98.2346 23.8734 99.6085 22.4995 99.6085 20.8048H97.7707ZM97.7707 19.8933V20.8048H99.6085V19.8933H97.7707ZM96.5399 18.6625C97.2196 18.6625 97.7707 19.2135 97.7707 19.8933H99.6085C99.6085 18.1985 98.2346 16.8246 96.5399 16.8246V18.6625ZM63.9095 18.6625L96.5399 18.6625V16.8246L63.9095 16.8246V18.6625Z" fill="black" mask="url(#path-5-inside-3_6520_1301)"/>
<mask id="path-7-inside-4_6520_1301" fill="white">
<path fill-rule="evenodd" clip-rule="evenodd" d="M25.2565 16.9744C22.882 16.9744 20.957 18.8993 20.957 21.2738L20.957 198.931C20.957 201.306 22.882 203.231 25.2565 203.231H148.687C151.062 203.231 152.987 201.306 152.987 198.931V21.2739C152.987 18.8993 151.062 16.9744 148.687 16.9744L25.2565 16.9744ZM70.9915 23.718C69.8043 23.718 68.8418 24.6804 68.8418 25.8677V26.7792C68.8418 27.9664 69.8043 28.9289 70.9915 28.9289H103.622C104.809 28.9289 105.772 27.9664 105.772 26.7792V25.8677C105.772 24.6804 104.809 23.718 103.622 23.718L70.9915 23.718Z"/>
</mask>
<path fill-rule="evenodd" clip-rule="evenodd" d="M25.2565 16.9744C22.882 16.9744 20.957 18.8993 20.957 21.2738L20.957 198.931C20.957 201.306 22.882 203.231 25.2565 203.231H148.687C151.062 203.231 152.987 201.306 152.987 198.931V21.2739C152.987 18.8993 151.062 16.9744 148.687 16.9744L25.2565 16.9744ZM70.9915 23.718C69.8043 23.718 68.8418 24.6804 68.8418 25.8677V26.7792C68.8418 27.9664 69.8043 28.9289 70.9915 28.9289H103.622C104.809 28.9289 105.772 27.9664 105.772 26.7792V25.8677C105.772 24.6804 104.809 23.718 103.622 23.718L70.9915 23.718Z" fill="#974EF2"/>
<path d="M21.876 21.2738C21.876 19.4068 23.3895 17.8933 25.2565 17.8933V16.0554C22.3745 16.0554 20.0381 18.3918 20.0381 21.2738H21.876ZM21.876 198.931L21.876 21.2738H20.0381L20.0381 198.931H21.876ZM25.2565 202.312C23.3895 202.312 21.876 200.798 21.876 198.931H20.0381C20.0381 201.813 22.3745 204.15 25.2565 204.15V202.312ZM148.687 202.312H25.2565V204.15H148.687V202.312ZM152.068 198.931C152.068 200.798 150.554 202.312 148.687 202.312V204.15C151.569 204.15 153.906 201.813 153.906 198.931H152.068ZM152.068 21.2739V198.931H153.906V21.2739H152.068ZM148.687 17.8933C150.554 17.8933 152.068 19.4068 152.068 21.2739H153.906C153.906 18.3918 151.569 16.0554 148.687 16.0554V17.8933ZM25.2565 17.8933L148.687 17.8933V16.0554L25.2565 16.0554V17.8933ZM69.7607 25.8677C69.7607 25.1879 70.3118 24.6369 70.9915 24.6369V22.799C69.2968 22.799 67.9229 24.1729 67.9229 25.8677H69.7607ZM69.7607 26.7792V25.8677H67.9229V26.7792H69.7607ZM70.9915 28.01C70.3118 28.01 69.7607 27.4589 69.7607 26.7792H67.9229C67.9229 28.474 69.2968 29.8478 70.9915 29.8478V28.01ZM103.622 28.01H70.9915V29.8478H103.622V28.01ZM104.853 26.7792C104.853 27.4589 104.302 28.01 103.622 28.01V29.8478C105.317 29.8478 106.691 28.474 106.691 26.7792H104.853ZM104.853 25.8677V26.7792H106.691V25.8677H104.853ZM103.622 24.6369C104.302 24.6369 104.853 25.1879 104.853 25.8677H106.691C106.691 24.1729 105.317 22.799 103.622 22.799V24.6369ZM70.9915 24.6369L103.622 24.6369V22.799L70.9915 22.799V24.6369Z" fill="black" mask="url(#path-7-inside-4_6520_1301)"/>
<g clip-path="url(#clip0_6520_1301)">
<g clip-path="url(#clip1_6520_1301)">
<path d="M132.251 42.446C131.71 42.446 131.242 43.6022 131.242 45.3837C130.554 45.2208 129.818 45.1315 129.025 45.1315C128.231 45.1315 127.495 45.2208 126.807 45.3837C126.807 43.6022 126.334 42.446 125.798 42.446C123.701 42.446 120.669 51.3852 120.669 53.0721C120.669 54.7591 124.038 59.6727 129.025 59.6727C134.012 59.6727 137.381 54.7591 137.381 53.0721C137.381 51.3852 134.354 42.446 132.251 42.446ZM133.15 51.0541L128.851 55.3529C128.531 55.6735 128.005 55.6735 127.685 55.3529L124.905 52.5729C124.705 52.3732 124.705 52.0421 124.905 51.8424L125.551 51.196C125.751 50.9963 126.082 50.9963 126.282 51.196L128.273 53.1877L131.784 49.6772C131.983 49.4775 132.315 49.4775 132.514 49.6772L133.161 50.3236C133.36 50.5233 133.36 50.8544 133.161 51.0541H133.15Z" fill="#FEF8F4"/>
</g>
</g>
<defs>
<clipPath id="clip0_6520_1301">
<rect width="36" height="22.1187" fill="white" transform="translate(117 40)"/>
</clipPath>
<clipPath id="clip1_6520_1301">
<rect width="16.7169" height="17.2267" fill="white" transform="translate(120.669 42.446)"/>
</clipPath>
</defs>
</svg>
