<svg width="133" height="210" viewBox="0 0 133 210" fill="none" xmlns="http://www.w3.org/2000/svg">
<mask id="path-1-inside-1_6595_1550" fill="white">
<path d="M0.5 27.2995C0.5 24.9249 2.42495 23 4.79949 23L128.23 23C130.605 23 132.53 24.9249 132.53 27.2995V204.957C132.53 207.331 130.605 209.256 128.23 209.256H4.7995C2.42495 209.256 0.5 207.331 0.5 204.957L0.5 27.2995Z"/>
</mask>
<path d="M0.5 27.2995C0.5 24.9249 2.42495 23 4.79949 23L128.23 23C130.605 23 132.53 24.9249 132.53 27.2995V204.957C132.53 207.331 130.605 209.256 128.23 209.256H4.7995C2.42495 209.256 0.5 207.331 0.5 204.957L0.5 27.2995Z" fill="#E9D9FC"/>
<path d="M128.23 23V23.9189V23ZM4.79949 23V22.0811V23ZM4.79949 23.9189L128.23 23.9189V22.0811L4.79949 22.0811V23.9189ZM131.611 27.2995V204.957H133.449V27.2995H131.611ZM128.23 208.337H4.7995V210.175H128.23V208.337ZM1.41892 204.957L1.41892 27.2995H-0.418919L-0.418919 204.957H1.41892ZM4.7995 208.337C2.93246 208.337 1.41892 206.824 1.41892 204.957H-0.418919C-0.418919 207.839 1.91745 210.175 4.7995 210.175V208.337ZM131.611 204.957C131.611 206.824 130.097 208.337 128.23 208.337V210.175C131.112 210.175 133.449 207.839 133.449 204.957H131.611ZM128.23 23.9189C130.097 23.9189 131.611 25.4325 131.611 27.2995H133.449C133.449 24.4174 131.112 22.0811 128.23 22.0811V23.9189ZM4.79949 22.0811C1.91744 22.0811 -0.418919 24.4174 -0.418919 27.2995H1.41892C1.41892 25.4324 2.93245 23.9189 4.79949 23.9189V22.0811Z" fill="black" mask="url(#path-1-inside-1_6595_1550)"/>
<mask id="path-3-inside-2_6595_1550" fill="white">
<path fill-rule="evenodd" clip-rule="evenodd" d="M4.67644 15C2.3019 15 0.376953 16.9249 0.376953 19.2995L0.376953 196.957C0.376953 199.331 2.30191 201.256 4.67645 201.256H128.107C130.482 201.256 132.407 199.331 132.407 196.957V19.2995C132.407 16.9249 130.482 15 128.107 15L4.67644 15ZM50.4115 21.7435C49.2242 21.7435 48.2617 22.706 48.2617 23.8933V24.8047C48.2617 25.992 49.2242 26.9545 50.4115 26.9545H83.0418C84.2291 26.9545 85.1916 25.992 85.1916 24.8047V23.8933C85.1916 22.706 84.2291 21.7435 83.0418 21.7435L50.4115 21.7435Z"/>
</mask>
<path fill-rule="evenodd" clip-rule="evenodd" d="M4.67644 15C2.3019 15 0.376953 16.9249 0.376953 19.2995L0.376953 196.957C0.376953 199.331 2.30191 201.256 4.67645 201.256H128.107C130.482 201.256 132.407 199.331 132.407 196.957V19.2995C132.407 16.9249 130.482 15 128.107 15L4.67644 15ZM50.4115 21.7435C49.2242 21.7435 48.2617 22.706 48.2617 23.8933V24.8047C48.2617 25.992 49.2242 26.9545 50.4115 26.9545H83.0418C84.2291 26.9545 85.1916 25.992 85.1916 24.8047V23.8933C85.1916 22.706 84.2291 21.7435 83.0418 21.7435L50.4115 21.7435Z" fill="#DEC5FB"/>
<path d="M4.67644 15V14.0811V15ZM128.107 15V15.9189V15ZM1.29587 19.2995C1.29587 17.4324 2.8094 15.9189 4.67644 15.9189V14.0811C1.7944 14.0811 -0.541966 16.4174 -0.541966 19.2995H1.29587ZM1.29587 196.957L1.29587 19.2995H-0.541966L-0.541966 196.957H1.29587ZM4.67645 200.337C2.80941 200.337 1.29587 198.824 1.29587 196.957H-0.541966C-0.541966 199.839 1.79441 202.175 4.67645 202.175V200.337ZM128.107 200.337H4.67645V202.175H128.107V200.337ZM131.488 196.957C131.488 198.824 129.974 200.337 128.107 200.337V202.175C130.989 202.175 133.326 199.839 133.326 196.957H131.488ZM131.488 19.2995V196.957H133.326V19.2995H131.488ZM128.107 15.9189C129.974 15.9189 131.488 17.4325 131.488 19.2995H133.326C133.326 16.4174 130.989 14.0811 128.107 14.0811V15.9189ZM4.67644 15.9189L128.107 15.9189V14.0811L4.67644 14.0811V15.9189ZM49.1806 23.8933C49.1806 23.2135 49.7317 22.6624 50.4115 22.6624V20.8246C48.7167 20.8246 47.3428 22.1985 47.3428 23.8933H49.1806ZM49.1806 24.8047V23.8933H47.3428V24.8047H49.1806ZM50.4115 26.0356C49.7317 26.0356 49.1806 25.4845 49.1806 24.8047H47.3428C47.3428 26.4995 48.7167 27.8734 50.4115 27.8734V26.0356ZM83.0418 26.0356H50.4115V27.8734H83.0418V26.0356ZM84.2726 24.8047C84.2726 25.4845 83.7216 26.0356 83.0418 26.0356V27.8734C84.7366 27.8734 86.1105 26.4995 86.1105 24.8047H84.2726ZM84.2726 23.8933V24.8047H86.1105V23.8933H84.2726ZM83.0418 22.6624C83.7216 22.6624 84.2726 23.2135 84.2726 23.8933H86.1105C86.1105 22.1985 84.7366 20.8246 83.0418 20.8246V22.6624ZM50.4115 22.6624L83.0418 22.6624V20.8246L50.4115 20.8246V22.6624Z" fill="black" mask="url(#path-3-inside-2_6595_1550)"/>
<mask id="path-5-inside-3_6595_1550" fill="white">
<path fill-rule="evenodd" clip-rule="evenodd" d="M4.79949 9C2.42495 9 0.5 10.9249 0.5 13.2995L0.5 190.957C0.5 193.331 2.42495 195.256 4.7995 195.256H128.23C130.605 195.256 132.53 193.331 132.53 190.957V13.2995C132.53 10.9249 130.605 9 128.23 9L4.79949 9ZM50.5326 15.7436C49.3453 15.7436 48.3828 16.706 48.3828 17.8933V18.8048C48.3828 19.992 49.3453 20.9545 50.5326 20.9545H83.1629C84.3502 20.9545 85.3127 19.992 85.3127 18.8048V17.8933C85.3127 16.706 84.3502 15.7436 83.1629 15.7436L50.5326 15.7436Z"/>
</mask>
<path fill-rule="evenodd" clip-rule="evenodd" d="M4.79949 9C2.42495 9 0.5 10.9249 0.5 13.2995L0.5 190.957C0.5 193.331 2.42495 195.256 4.7995 195.256H128.23C130.605 195.256 132.53 193.331 132.53 190.957V13.2995C132.53 10.9249 130.605 9 128.23 9L4.79949 9ZM50.5326 15.7436C49.3453 15.7436 48.3828 16.706 48.3828 17.8933V18.8048C48.3828 19.992 49.3453 20.9545 50.5326 20.9545H83.1629C84.3502 20.9545 85.3127 19.992 85.3127 18.8048V17.8933C85.3127 16.706 84.3502 15.7436 83.1629 15.7436L50.5326 15.7436Z" fill="#C598FB"/>
<path d="M4.79949 9V8.08108V9ZM128.23 9V9.91892V9ZM1.41892 13.2995C1.41892 11.4324 2.93245 9.91892 4.79949 9.91892V8.08108C1.91744 8.08108 -0.418919 10.4174 -0.418919 13.2995H1.41892ZM1.41892 190.957L1.41892 13.2995H-0.418919L-0.418919 190.957H1.41892ZM4.7995 194.337C2.93246 194.337 1.41892 192.824 1.41892 190.957H-0.418919C-0.418919 193.839 1.91745 196.175 4.7995 196.175V194.337ZM128.23 194.337H4.7995V196.175H128.23V194.337ZM131.611 190.957C131.611 192.824 130.097 194.337 128.23 194.337V196.175C131.112 196.175 133.449 193.839 133.449 190.957H131.611ZM131.611 13.2995V190.957H133.449V13.2995H131.611ZM128.23 9.91892C130.097 9.91892 131.611 11.4325 131.611 13.2995H133.449C133.449 10.4174 131.112 8.08108 128.23 8.08108V9.91892ZM4.79949 9.91892L128.23 9.91892V8.08108L4.79949 8.08108V9.91892ZM49.3017 17.8933C49.3017 17.2135 49.8528 16.6625 50.5326 16.6625V14.8246C48.8378 14.8246 47.4639 16.1985 47.4639 17.8933H49.3017ZM49.3017 18.8048V17.8933H47.4639V18.8048H49.3017ZM50.5326 20.0356C49.8528 20.0356 49.3017 19.4845 49.3017 18.8048H47.4639C47.4639 20.4995 48.8378 21.8734 50.5326 21.8734V20.0356ZM83.1629 20.0356H50.5326V21.8734H83.1629V20.0356ZM84.3937 18.8048C84.3937 19.4845 83.8427 20.0356 83.1629 20.0356V21.8734C84.8577 21.8734 86.2316 20.4995 86.2316 18.8048H84.3937ZM84.3937 17.8933V18.8048H86.2316V17.8933H84.3937ZM83.1629 16.6625C83.8427 16.6625 84.3937 17.2135 84.3937 17.8933H86.2316C86.2316 16.1985 84.8577 14.8246 83.1629 14.8246V16.6625ZM50.5326 16.6625L83.1629 16.6625V14.8246L50.5326 14.8246V16.6625Z" fill="black" mask="url(#path-5-inside-3_6595_1550)"/>
<mask id="path-7-inside-4_6595_1550" fill="white">
<path fill-rule="evenodd" clip-rule="evenodd" d="M4.75652 0.974365C2.38198 0.974365 0.457031 2.89931 0.457031 5.27385L0.457031 182.931C0.457031 185.306 2.38198 187.231 4.75653 187.231H128.187C130.562 187.231 132.487 185.306 132.487 182.931V5.27386C132.487 2.89931 130.562 0.974365 128.187 0.974365L4.75652 0.974365ZM50.4915 7.71796C49.3043 7.71796 48.3418 8.68044 48.3418 9.86771V10.7792C48.3418 11.9664 49.3043 12.9289 50.4915 12.9289H83.1219C84.3092 12.9289 85.2716 11.9664 85.2716 10.7792V9.86771C85.2716 8.68044 84.3092 7.71796 83.1219 7.71796L50.4915 7.71796Z"/>
</mask>
<path fill-rule="evenodd" clip-rule="evenodd" d="M4.75652 0.974365C2.38198 0.974365 0.457031 2.89931 0.457031 5.27385L0.457031 182.931C0.457031 185.306 2.38198 187.231 4.75653 187.231H128.187C130.562 187.231 132.487 185.306 132.487 182.931V5.27386C132.487 2.89931 130.562 0.974365 128.187 0.974365L4.75652 0.974365ZM50.4915 7.71796C49.3043 7.71796 48.3418 8.68044 48.3418 9.86771V10.7792C48.3418 11.9664 49.3043 12.9289 50.4915 12.9289H83.1219C84.3092 12.9289 85.2716 11.9664 85.2716 10.7792V9.86771C85.2716 8.68044 84.3092 7.71796 83.1219 7.71796L50.4915 7.71796Z" fill="#974EF2"/>
<path d="M4.75652 0.974365V0.0554463V0.974365ZM128.187 0.974365V1.89328V0.974365ZM1.37595 5.27385C1.37595 3.40681 2.88948 1.89328 4.75652 1.89328V0.0554463C1.87448 0.0554463 -0.461888 2.3918 -0.461888 5.27385H1.37595ZM1.37595 182.931L1.37595 5.27385H-0.461888L-0.461888 182.931H1.37595ZM4.75653 186.312C2.88949 186.312 1.37595 184.798 1.37595 182.931H-0.461888C-0.461888 185.813 1.87448 188.15 4.75653 188.15V186.312ZM128.187 186.312H4.75653V188.15H128.187V186.312ZM131.568 182.931C131.568 184.798 130.054 186.312 128.187 186.312V188.15C131.069 188.15 133.406 185.813 133.406 182.931H131.568ZM131.568 5.27386V182.931H133.406V5.27386H131.568ZM128.187 1.89328C130.054 1.89328 131.568 3.40682 131.568 5.27386H133.406C133.406 2.3918 131.069 0.0554463 128.187 0.0554463V1.89328ZM4.75652 1.89328L128.187 1.89328V0.0554463L4.75652 0.0554463V1.89328ZM49.2607 9.86771C49.2607 9.18794 49.8118 8.63688 50.4915 8.63688V6.79905C48.7968 6.79905 47.4229 8.17293 47.4229 9.86771H49.2607ZM49.2607 10.7792V9.86771H47.4229V10.7792H49.2607ZM50.4915 12.01C49.8118 12.01 49.2607 11.4589 49.2607 10.7792H47.4229C47.4229 12.474 48.7968 13.8478 50.4915 13.8478V12.01ZM83.1219 12.01H50.4915V13.8478H83.1219V12.01ZM84.3527 10.7792C84.3527 11.4589 83.8017 12.01 83.1219 12.01V13.8478C84.8167 13.8478 86.1906 12.474 86.1906 10.7792H84.3527ZM84.3527 9.86771V10.7792H86.1906V9.86771H84.3527ZM83.1219 8.63688C83.8017 8.63688 84.3527 9.18795 84.3527 9.86771H86.1906C86.1906 8.17293 84.8167 6.79905 83.1219 6.79905V8.63688ZM50.4915 8.63688L83.1219 8.63688V6.79905L50.4915 6.79905V8.63688Z" fill="black" mask="url(#path-7-inside-4_6595_1550)"/>
</svg>
