<svg width="328" height="304" viewBox="0 0 328 304" fill="none" xmlns="http://www.w3.org/2000/svg">
<mask id="path-1-inside-1_6520_1276" fill="white">
<path d="M0 6.47995C0 3.11375 2.72885 0.384888 6.09506 0.384888L181.074 0.384888C184.44 0.384888 187.169 3.11374 187.169 6.47995V258.331C187.169 261.698 184.44 264.426 181.074 264.426H6.09507C2.72886 264.426 0 261.698 0 258.331L0 6.47995Z"/>
</mask>
<path d="M0 6.47995C0 3.11375 2.72885 0.384888 6.09506 0.384888L181.074 0.384888C184.44 0.384888 187.169 3.11374 187.169 6.47995V258.331C187.169 261.698 184.44 264.426 181.074 264.426H6.09507C2.72886 264.426 0 261.698 0 258.331L0 6.47995Z" fill="#E9D9FC"/>
<path d="M6.09506 1.88489L181.074 1.88489V-1.11511L6.09506 -1.11511V1.88489ZM185.669 6.47995V258.331H188.669V6.47995H185.669ZM181.074 262.926H6.09507V265.926H181.074V262.926ZM1.5 258.331L1.5 6.47995H-1.5L-1.5 258.331H1.5ZM6.09507 262.926C3.55728 262.926 1.5 260.869 1.5 258.331H-1.5C-1.5 262.526 1.90044 265.926 6.09507 265.926V262.926ZM185.669 258.331C185.669 260.869 183.611 262.926 181.074 262.926V265.926C185.268 265.926 188.669 262.526 188.669 258.331H185.669ZM181.074 1.88489C183.611 1.88489 185.669 3.94217 185.669 6.47995H188.669C188.669 2.28531 185.268 -1.11511 181.074 -1.11511V1.88489ZM6.09506 -1.11511C1.90042 -1.11511 -1.5 2.28532 -1.5 6.47995H1.5C1.5 3.94217 3.55728 1.88489 6.09506 1.88489V-1.11511Z" fill="black" mask="url(#path-1-inside-1_6520_1276)"/>
<mask id="path-3-inside-2_6520_1276" fill="white">
<path fill-rule="evenodd" clip-rule="evenodd" d="M34.9251 22.0067C31.5589 22.0067 28.8301 24.7355 28.8301 28.1017L28.8301 279.953C28.8301 283.319 31.5589 286.048 34.9251 286.048H209.904C213.27 286.048 215.999 283.319 215.999 279.953V28.1017C215.999 24.7355 213.27 22.0067 209.904 22.0067L34.9251 22.0067ZM99.7585 31.5665C98.0754 31.5665 96.711 32.9309 96.711 34.614V35.9062C96.711 37.5893 98.0754 38.9537 99.7585 38.9537H146.016C147.699 38.9537 149.064 37.5893 149.064 35.9062V34.614C149.064 32.9309 147.699 31.5665 146.016 31.5665L99.7585 31.5665Z"/>
</mask>
<path fill-rule="evenodd" clip-rule="evenodd" d="M34.9251 22.0067C31.5589 22.0067 28.8301 24.7355 28.8301 28.1017L28.8301 279.953C28.8301 283.319 31.5589 286.048 34.9251 286.048H209.904C213.27 286.048 215.999 283.319 215.999 279.953V28.1017C215.999 24.7355 213.27 22.0067 209.904 22.0067L34.9251 22.0067ZM99.7585 31.5665C98.0754 31.5665 96.711 32.9309 96.711 34.614V35.9062C96.711 37.5893 98.0754 38.9537 99.7585 38.9537H146.016C147.699 38.9537 149.064 37.5893 149.064 35.9062V34.614C149.064 32.9309 147.699 31.5665 146.016 31.5665L99.7585 31.5665Z" fill="#DEC5FB"/>
<path d="M30.3301 28.1017C30.3301 25.5639 32.3874 23.5067 34.9251 23.5067V20.5067C30.7305 20.5067 27.3301 23.9071 27.3301 28.1017H30.3301ZM30.3301 279.953L30.3301 28.1017H27.3301L27.3301 279.953H30.3301ZM34.9251 284.548C32.3874 284.548 30.3301 282.491 30.3301 279.953H27.3301C27.3301 284.148 30.7305 287.548 34.9251 287.548V284.548ZM209.904 284.548H34.9251V287.548H209.904V284.548ZM214.499 279.953C214.499 282.491 212.441 284.548 209.904 284.548V287.548C214.098 287.548 217.499 284.148 217.499 279.953H214.499ZM214.499 28.1017V279.953H217.499V28.1017H214.499ZM209.904 23.5067C212.441 23.5067 214.499 25.5639 214.499 28.1017H217.499C217.499 23.9071 214.098 20.5067 209.904 20.5067V23.5067ZM34.9251 23.5067L209.904 23.5067V20.5067L34.9251 20.5067V23.5067ZM98.211 34.614C98.211 33.7594 98.9038 33.0665 99.7585 33.0665V30.0665C97.247 30.0665 95.211 32.1025 95.211 34.614H98.211ZM98.211 35.9062V34.614H95.211V35.9062H98.211ZM99.7585 37.4537C98.9038 37.4537 98.211 36.7608 98.211 35.9062H95.211C95.211 38.4177 97.247 40.4537 99.7585 40.4537V37.4537ZM146.016 37.4537H99.7585V40.4537H146.016V37.4537ZM147.564 35.9062C147.564 36.7608 146.871 37.4537 146.016 37.4537V40.4537C148.528 40.4537 150.564 38.4177 150.564 35.9062H147.564ZM147.564 34.614V35.9062H150.564V34.614H147.564ZM146.016 33.0665C146.871 33.0665 147.564 33.7594 147.564 34.614H150.564C150.564 32.1025 148.528 30.0665 146.016 30.0665V33.0665ZM99.7585 33.0665H146.016V30.0665L99.7585 30.0665V33.0665Z" fill="black" mask="url(#path-3-inside-2_6520_1276)"/>
<mask id="path-5-inside-3_6520_1276" fill="white">
<path fill-rule="evenodd" clip-rule="evenodd" d="M63.7542 39.5099C60.388 39.5099 57.6592 42.2388 57.6592 45.605L57.6592 297.456C57.6592 300.823 60.388 303.551 63.7542 303.551H238.733C242.099 303.551 244.828 300.823 244.828 297.456V45.605C244.828 42.2388 242.099 39.5099 238.733 39.5099L63.7542 39.5099ZM128.588 49.0698C126.904 49.0698 125.54 50.4342 125.54 52.1173V53.4095C125.54 55.0926 126.904 56.457 128.588 56.457H174.845C176.528 56.457 177.893 55.0926 177.893 53.4095V52.1173C177.893 50.4342 176.528 49.0698 174.845 49.0698H128.588Z"/>
</mask>
<path fill-rule="evenodd" clip-rule="evenodd" d="M63.7542 39.5099C60.388 39.5099 57.6592 42.2388 57.6592 45.605L57.6592 297.456C57.6592 300.823 60.388 303.551 63.7542 303.551H238.733C242.099 303.551 244.828 300.823 244.828 297.456V45.605C244.828 42.2388 242.099 39.5099 238.733 39.5099L63.7542 39.5099ZM128.588 49.0698C126.904 49.0698 125.54 50.4342 125.54 52.1173V53.4095C125.54 55.0926 126.904 56.457 128.588 56.457H174.845C176.528 56.457 177.893 55.0926 177.893 53.4095V52.1173C177.893 50.4342 176.528 49.0698 174.845 49.0698H128.588Z" fill="#D3B3FA"/>
<path d="M59.1592 45.605C59.1592 43.0672 61.2165 41.0099 63.7542 41.0099V38.0099C59.5596 38.0099 56.1592 41.4104 56.1592 45.605H59.1592ZM59.1592 297.456L59.1592 45.605H56.1592L56.1592 297.456H59.1592ZM63.7542 302.051C61.2165 302.051 59.1592 299.994 59.1592 297.456H56.1592C56.1592 301.651 59.5596 305.051 63.7542 305.051V302.051ZM238.733 302.051H63.7542V305.051H238.733V302.051ZM243.328 297.456C243.328 299.994 241.271 302.051 238.733 302.051V305.051C242.927 305.051 246.328 301.651 246.328 297.456H243.328ZM243.328 45.605V297.456H246.328V45.605H243.328ZM238.733 41.0099C241.271 41.0099 243.328 43.0672 243.328 45.605H246.328C246.328 41.4104 242.927 38.0099 238.733 38.0099V41.0099ZM63.7542 41.0099L238.733 41.0099V38.0099L63.7542 38.0099V41.0099ZM127.04 52.1173C127.04 51.2627 127.733 50.5698 128.588 50.5698V47.5698C126.076 47.5698 124.04 49.6058 124.04 52.1173H127.04ZM127.04 53.4095V52.1173H124.04V53.4095H127.04ZM128.588 54.957C127.733 54.957 127.04 54.2641 127.04 53.4095H124.04C124.04 55.921 126.076 57.957 128.588 57.957V54.957ZM174.845 54.957H128.588V57.957H174.845V54.957ZM176.393 53.4095C176.393 54.2641 175.7 54.957 174.845 54.957V57.957C177.357 57.957 179.393 55.921 179.393 53.4095H176.393ZM176.393 52.1173V53.4095H179.393V52.1173H176.393ZM174.845 50.5698C175.7 50.5698 176.393 51.2627 176.393 52.1173H179.393C179.393 49.6058 177.357 47.5698 174.845 47.5698V50.5698ZM128.588 50.5698H174.845V47.5698H128.588V50.5698Z" fill="black" mask="url(#path-5-inside-3_6520_1276)"/>
<mask id="path-7-inside-4_6520_1276" fill="white">
<path fill-rule="evenodd" clip-rule="evenodd" d="M99.7904 30.2437C96.4242 30.2437 93.6953 32.9726 93.6953 36.3388L93.6953 288.19C93.6953 291.556 96.4242 294.285 99.7904 294.285H274.769C278.135 294.285 280.864 291.556 280.864 288.19V36.3388C280.864 32.9726 278.135 30.2437 274.769 30.2437L99.7904 30.2437ZM164.624 39.8035C162.941 39.8035 161.576 41.168 161.576 42.8511V44.1432C161.576 45.8263 162.941 47.1907 164.624 47.1907H210.881C212.564 47.1907 213.929 45.8263 213.929 44.1432V42.8511C213.929 41.168 212.564 39.8035 210.881 39.8035H164.624Z"/>
</mask>
<path fill-rule="evenodd" clip-rule="evenodd" d="M99.7904 30.2437C96.4242 30.2437 93.6953 32.9726 93.6953 36.3388L93.6953 288.19C93.6953 291.556 96.4242 294.285 99.7904 294.285H274.769C278.135 294.285 280.864 291.556 280.864 288.19V36.3388C280.864 32.9726 278.135 30.2437 274.769 30.2437L99.7904 30.2437ZM164.624 39.8035C162.941 39.8035 161.576 41.168 161.576 42.8511V44.1432C161.576 45.8263 162.941 47.1907 164.624 47.1907H210.881C212.564 47.1907 213.929 45.8263 213.929 44.1432V42.8511C213.929 41.168 212.564 39.8035 210.881 39.8035H164.624Z" fill="#C598FB"/>
<path d="M95.1953 36.3388C95.1953 33.801 97.2526 31.7437 99.7904 31.7437V28.7437C95.5957 28.7437 92.1953 32.1441 92.1953 36.3388H95.1953ZM95.1953 288.19V36.3388H92.1953V288.19H95.1953ZM99.7904 292.785C97.2526 292.785 95.1953 290.728 95.1953 288.19H92.1953C92.1953 292.385 95.5957 295.785 99.7904 295.785V292.785ZM274.769 292.785H99.7904V295.785H274.769V292.785ZM279.364 288.19C279.364 290.728 277.307 292.785 274.769 292.785V295.785C278.964 295.785 282.364 292.385 282.364 288.19H279.364ZM279.364 36.3388V288.19H282.364V36.3388H279.364ZM274.769 31.7437C277.307 31.7437 279.364 33.801 279.364 36.3388H282.364C282.364 32.1441 278.964 28.7437 274.769 28.7437V31.7437ZM99.7904 31.7437L274.769 31.7437V28.7437L99.7904 28.7437V31.7437ZM163.076 42.8511C163.076 41.9964 163.769 41.3035 164.624 41.3035V38.3035C162.112 38.3035 160.076 40.3395 160.076 42.8511H163.076ZM163.076 44.1432V42.8511H160.076V44.1432H163.076ZM164.624 45.6907C163.769 45.6907 163.076 44.9979 163.076 44.1432H160.076C160.076 46.6547 162.112 48.6907 164.624 48.6907V45.6907ZM210.881 45.6907H164.624V48.6907H210.881V45.6907ZM212.429 44.1432C212.429 44.9979 211.736 45.6907 210.881 45.6907V48.6907C213.393 48.6907 215.429 46.6547 215.429 44.1432H212.429ZM212.429 42.8511V44.1432H215.429V42.8511H212.429ZM210.881 41.3035C211.736 41.3035 212.429 41.9964 212.429 42.8511H215.429C215.429 40.3395 213.393 38.3035 210.881 38.3035V41.3035ZM164.624 41.3035H210.881V38.3035H164.624V41.3035Z" fill="black" mask="url(#path-7-inside-4_6520_1276)"/>
<mask id="path-9-inside-5_6520_1276" fill="white">
<path d="M117.376 23.0091C117.376 19.6429 120.105 16.914 123.471 16.914L298.45 16.914C301.816 16.914 304.545 19.6429 304.545 23.0091V274.86C304.545 278.227 301.816 280.955 298.45 280.955H123.471C120.105 280.955 117.376 278.227 117.376 274.86L117.376 23.0091Z"/>
</mask>
<path d="M117.376 23.0091C117.376 19.6429 120.105 16.914 123.471 16.914L298.45 16.914C301.816 16.914 304.545 19.6429 304.545 23.0091V274.86C304.545 278.227 301.816 280.955 298.45 280.955H123.471C120.105 280.955 117.376 278.227 117.376 274.86L117.376 23.0091Z" fill="#A666F4"/>
<path d="M123.471 18.414L298.45 18.414V15.414L123.471 15.414V18.414ZM303.045 23.0091V274.86H306.045V23.0091H303.045ZM298.45 279.455H123.471V282.455H298.45V279.455ZM118.876 274.86V23.0091H115.876V274.86H118.876ZM123.471 279.455C120.933 279.455 118.876 277.398 118.876 274.86H115.876C115.876 279.055 119.276 282.455 123.471 282.455V279.455ZM303.045 274.86C303.045 277.398 300.987 279.455 298.45 279.455V282.455C302.644 282.455 306.045 279.055 306.045 274.86H303.045ZM298.45 18.414C300.987 18.414 303.045 20.4713 303.045 23.0091H306.045C306.045 18.8144 302.644 15.414 298.45 15.414V18.414ZM123.471 15.414C119.276 15.414 115.876 18.8144 115.876 23.0091H118.876C118.876 20.4713 120.933 18.414 123.471 18.414V15.414Z" fill="black" mask="url(#path-9-inside-5_6520_1276)"/>
<mask id="path-11-inside-6_6520_1276" fill="white">
<path fill-rule="evenodd" clip-rule="evenodd" d="M146.268 8.64948C142.902 8.64948 140.173 11.3783 140.173 14.7445V266.596C140.173 269.962 142.902 272.691 146.268 272.691H321.246C324.613 272.691 327.341 269.962 327.341 266.596V14.7445C327.341 11.3783 324.613 8.64948 321.246 8.64948L146.268 8.64948ZM211.102 18.2094C209.419 18.2094 208.055 19.5738 208.055 21.2569V22.549C208.055 24.2321 209.419 25.5965 211.102 25.5965H257.36C259.043 25.5965 260.407 24.2321 260.407 22.549V21.2569C260.407 19.5738 259.043 18.2094 257.36 18.2094L211.102 18.2094Z"/>
</mask>
<path fill-rule="evenodd" clip-rule="evenodd" d="M146.268 8.64948C142.902 8.64948 140.173 11.3783 140.173 14.7445V266.596C140.173 269.962 142.902 272.691 146.268 272.691H321.246C324.613 272.691 327.341 269.962 327.341 266.596V14.7445C327.341 11.3783 324.613 8.64948 321.246 8.64948L146.268 8.64948ZM211.102 18.2094C209.419 18.2094 208.055 19.5738 208.055 21.2569V22.549C208.055 24.2321 209.419 25.5965 211.102 25.5965H257.36C259.043 25.5965 260.407 24.2321 260.407 22.549V21.2569C260.407 19.5738 259.043 18.2094 257.36 18.2094L211.102 18.2094Z" fill="#974EF2"/>
<path d="M141.673 14.7445C141.673 12.2068 143.73 10.1495 146.268 10.1495V7.14948C142.073 7.14948 138.673 10.5499 138.673 14.7445H141.673ZM141.673 266.596V14.7445H138.673V266.596H141.673ZM146.268 271.191C143.73 271.191 141.673 269.134 141.673 266.596H138.673C138.673 270.791 142.073 274.191 146.268 274.191V271.191ZM321.246 271.191H146.268V274.191H321.246V271.191ZM325.841 266.596C325.841 269.134 323.784 271.191 321.246 271.191V274.191C325.441 274.191 328.841 270.791 328.841 266.596H325.841ZM325.841 14.7445V266.596H328.841V14.7445H325.841ZM321.246 10.1495C323.784 10.1495 325.841 12.2068 325.841 14.7445H328.841C328.841 10.5499 325.441 7.14948 321.246 7.14948V10.1495ZM146.268 10.1495L321.246 10.1495V7.14948L146.268 7.14948V10.1495ZM209.555 21.2569C209.555 20.4022 210.248 19.7094 211.102 19.7094V16.7094C208.591 16.7094 206.555 18.7454 206.555 21.2569H209.555ZM209.555 22.549V21.2569H206.555V22.549H209.555ZM211.102 24.0965C210.248 24.0965 209.555 23.4037 209.555 22.549H206.555C206.555 25.0605 208.591 27.0965 211.102 27.0965V24.0965ZM257.36 24.0965L211.102 24.0965V27.0965H257.36V24.0965ZM258.907 22.549C258.907 23.4037 258.215 24.0965 257.36 24.0965V27.0965C259.871 27.0965 261.907 25.0605 261.907 22.549H258.907ZM258.907 21.2569V22.549H261.907V21.2569H258.907ZM257.36 19.7094C258.215 19.7094 258.907 20.4022 258.907 21.2569H261.907C261.907 18.7454 259.871 16.7094 257.36 16.7094V19.7094ZM211.102 19.7094L257.36 19.7094V16.7094L211.102 16.7094V19.7094Z" fill="black" mask="url(#path-11-inside-6_6520_1276)"/>
<g clip-path="url(#clip0_6520_1276)">
<g clip-path="url(#clip1_6520_1276)">
<path d="M298.621 45.4676C297.854 45.4676 297.19 47.1065 297.19 49.6321C296.215 49.4011 295.172 49.2745 294.047 49.2745C292.922 49.2745 291.879 49.4011 290.903 49.6321C290.903 47.1065 290.232 45.4676 289.472 45.4676C286.5 45.4676 282.201 58.1399 282.201 60.5313C282.201 62.9228 286.977 69.8885 294.047 69.8885C301.117 69.8885 305.892 62.9228 305.892 60.5313C305.892 58.1399 301.601 45.4676 298.621 45.4676ZM299.895 57.6706L293.801 63.7646C293.346 64.2191 292.601 64.2191 292.147 63.7646L288.206 59.8236C287.923 59.5405 287.923 59.0712 288.206 58.7881L289.122 57.8717C289.405 57.5886 289.875 57.5886 290.158 57.8717L292.981 60.6952L297.958 55.7187C298.241 55.4356 298.71 55.4356 298.993 55.7187L299.91 56.635C300.193 56.9181 300.193 57.3875 299.91 57.6706H299.895Z" fill="#FEF8F4"/>
</g>
</g>
<defs>
<clipPath id="clip0_6520_1276">
<rect width="50" height="31.3561" fill="white" transform="translate(277 42)"/>
</clipPath>
<clipPath id="clip1_6520_1276">
<rect width="23.6983" height="24.4209" fill="white" transform="translate(282.201 45.4676)"/>
</clipPath>
</defs>
</svg>
