<svg width="136" height="207" viewBox="0 0 136 207" fill="none" xmlns="http://www.w3.org/2000/svg">
<mask id="path-1-inside-1_6701_1410" fill="white">
<path fill-rule="evenodd" clip-rule="evenodd" d="M4.21713 24C1.88807 24 0 25.8881 0 28.2171L0 202.71C0 205.039 1.88808 206.927 4.21714 206.927H131.172C133.501 206.927 135.389 205.039 135.389 202.71V28.2171C135.389 25.8881 133.501 24 131.172 24L4.21713 24ZM47.1105 30.6421C45.946 30.6421 45.002 31.5861 45.002 32.7507V33.6494C45.002 34.814 45.946 35.758 47.1105 35.758H88.9367C90.1012 35.758 91.0452 34.814 91.0452 33.6494V32.7507C91.0452 31.5861 90.1012 30.6421 88.9367 30.6421L47.1105 30.6421Z"/>
</mask>
<path fill-rule="evenodd" clip-rule="evenodd" d="M4.21713 24C1.88807 24 0 25.8881 0 28.2171L0 202.71C0 205.039 1.88808 206.927 4.21714 206.927H131.172C133.501 206.927 135.389 205.039 135.389 202.71V28.2171C135.389 25.8881 133.501 24 131.172 24L4.21713 24ZM47.1105 30.6421C45.946 30.6421 45.002 31.5861 45.002 32.7507V33.6494C45.002 34.814 45.946 35.758 47.1105 35.758H88.9367C90.1012 35.758 91.0452 34.814 91.0452 33.6494V32.7507C91.0452 31.5861 90.1012 30.6421 88.9367 30.6421L47.1105 30.6421Z" fill="#BD4B00"/>
<path d="M0.92 28.2171C0.92 26.3962 2.39617 24.92 4.21713 24.92V23.08C1.37997 23.08 -0.92 25.38 -0.92 28.2171H0.92ZM0.92 202.71L0.92 28.2171H-0.92L-0.92 202.71H0.92ZM4.21714 206.007C2.39618 206.007 0.92 204.531 0.92 202.71H-0.92C-0.92 205.547 1.37998 207.847 4.21714 207.847V206.007ZM131.172 206.007H4.21714V207.847H131.172V206.007ZM134.469 202.71C134.469 204.531 132.993 206.007 131.172 206.007V207.847C134.009 207.847 136.309 205.547 136.309 202.71H134.469ZM134.469 28.2171V202.71H136.309V28.2171H134.469ZM131.172 24.92C132.993 24.92 134.469 26.3962 134.469 28.2171H136.309C136.309 25.38 134.009 23.08 131.172 23.08V24.92ZM4.21713 24.92L131.172 24.92V23.08L4.21713 23.08V24.92ZM45.922 32.7507C45.922 32.0942 46.4541 31.5621 47.1105 31.5621V29.7221C45.4379 29.7221 44.082 31.078 44.082 32.7507H45.922ZM45.922 33.6494V32.7507H44.082V33.6494H45.922ZM47.1105 34.838C46.4541 34.838 45.922 34.3059 45.922 33.6494H44.082C44.082 35.3221 45.4379 36.678 47.1105 36.678V34.838ZM88.9367 34.838H47.1105V36.678H88.9367V34.838ZM90.1252 33.6494C90.1252 34.3059 89.5931 34.838 88.9367 34.838V36.678C90.6093 36.678 91.9652 35.3221 91.9652 33.6494H90.1252ZM90.1252 32.7507V33.6494H91.9652V32.7507H90.1252ZM88.9367 31.5621C89.5931 31.5621 90.1252 32.0942 90.1252 32.7507H91.9652C91.9652 31.078 90.6093 29.7221 88.9367 29.7221V31.5621ZM47.1105 31.5621L88.9367 31.5621V29.7221L47.1105 29.7221V31.5621Z" fill="#191514" mask="url(#path-1-inside-1_6701_1410)"/>
<mask id="path-3-inside-2_6701_1410" fill="white">
<path fill-rule="evenodd" clip-rule="evenodd" d="M4.21713 17C1.88807 17 0 18.8881 0 21.2171L0 195.71C0 198.039 1.88808 199.927 4.21714 199.927H131.172C133.501 199.927 135.389 198.039 135.389 195.71V21.2171C135.389 18.8881 133.501 17 131.172 17L4.21713 17ZM47.1105 23.6421C45.946 23.6421 45.002 24.5861 45.002 25.7507V26.6494C45.002 27.814 45.946 28.758 47.1105 28.758H88.9367C90.1012 28.758 91.0452 27.814 91.0452 26.6494V25.7507C91.0452 24.5861 90.1012 23.6421 88.9367 23.6421L47.1105 23.6421Z"/>
</mask>
<path fill-rule="evenodd" clip-rule="evenodd" d="M4.21713 17C1.88807 17 0 18.8881 0 21.2171L0 195.71C0 198.039 1.88808 199.927 4.21714 199.927H131.172C133.501 199.927 135.389 198.039 135.389 195.71V21.2171C135.389 18.8881 133.501 17 131.172 17L4.21713 17ZM47.1105 23.6421C45.946 23.6421 45.002 24.5861 45.002 25.7507V26.6494C45.002 27.814 45.946 28.758 47.1105 28.758H88.9367C90.1012 28.758 91.0452 27.814 91.0452 26.6494V25.7507C91.0452 24.5861 90.1012 23.6421 88.9367 23.6421L47.1105 23.6421Z" fill="#943E00"/>
<path d="M0.92 21.2171C0.92 19.3962 2.39617 17.92 4.21713 17.92V16.08C1.37997 16.08 -0.92 18.38 -0.92 21.2171H0.92ZM0.92 195.71L0.92 21.2171H-0.92L-0.92 195.71H0.92ZM4.21714 199.007C2.39618 199.007 0.92 197.531 0.92 195.71H-0.92C-0.92 198.547 1.37998 200.847 4.21714 200.847V199.007ZM131.172 199.007H4.21714V200.847H131.172V199.007ZM134.469 195.71C134.469 197.531 132.993 199.007 131.172 199.007V200.847C134.009 200.847 136.309 198.547 136.309 195.71H134.469ZM134.469 21.2171V195.71H136.309V21.2171H134.469ZM131.172 17.92C132.993 17.92 134.469 19.3962 134.469 21.2171H136.309C136.309 18.38 134.009 16.08 131.172 16.08V17.92ZM4.21713 17.92L131.172 17.92V16.08L4.21713 16.08V17.92ZM45.922 25.7507C45.922 25.0942 46.4541 24.5621 47.1105 24.5621V22.7221C45.4379 22.7221 44.082 24.078 44.082 25.7507H45.922ZM45.922 26.6494V25.7507H44.082V26.6494H45.922ZM47.1105 27.838C46.4541 27.838 45.922 27.3059 45.922 26.6494H44.082C44.082 28.3221 45.4379 29.678 47.1105 29.678V27.838ZM88.9367 27.838H47.1105V29.678H88.9367V27.838ZM90.1252 26.6494C90.1252 27.3059 89.5931 27.838 88.9367 27.838V29.678C90.6093 29.678 91.9652 28.3221 91.9652 26.6494H90.1252ZM90.1252 25.7507V26.6494H91.9652V25.7507H90.1252ZM88.9367 24.5621C89.5931 24.5621 90.1252 25.0942 90.1252 25.7507H91.9652C91.9652 24.078 90.6093 22.7221 88.9367 22.7221V24.5621ZM47.1105 24.5621L88.9367 24.5621V22.7221L47.1105 22.7221V24.5621Z" fill="#191514" mask="url(#path-3-inside-2_6701_1410)"/>
<mask id="path-5-inside-3_6701_1410" fill="white">
<path fill-rule="evenodd" clip-rule="evenodd" d="M4.21713 9C1.88807 9 0 10.8881 0 13.2171L0 187.71C0 190.039 1.88808 191.927 4.21714 191.927H131.172C133.501 191.927 135.389 190.039 135.389 187.71V13.2171C135.389 10.8881 133.501 9 131.172 9L4.21713 9ZM47.1105 14.6421C45.946 14.6421 45.002 15.5861 45.002 16.7507V17.6494C45.002 18.814 45.946 19.758 47.1105 19.758H88.9367C90.1012 19.758 91.0452 18.814 91.0452 17.6494V16.7507C91.0452 15.5861 90.1012 14.6421 88.9367 14.6421L47.1105 14.6421Z"/>
</mask>
<path fill-rule="evenodd" clip-rule="evenodd" d="M4.21713 9C1.88807 9 0 10.8881 0 13.2171L0 187.71C0 190.039 1.88808 191.927 4.21714 191.927H131.172C133.501 191.927 135.389 190.039 135.389 187.71V13.2171C135.389 10.8881 133.501 9 131.172 9L4.21713 9ZM47.1105 14.6421C45.946 14.6421 45.002 15.5861 45.002 16.7507V17.6494C45.002 18.814 45.946 19.758 47.1105 19.758H88.9367C90.1012 19.758 91.0452 18.814 91.0452 17.6494V16.7507C91.0452 15.5861 90.1012 14.6421 88.9367 14.6421L47.1105 14.6421Z" fill="#5F2A06"/>
<path d="M0.92 13.2171C0.92 11.3962 2.39617 9.92 4.21713 9.92V8.08C1.37997 8.08 -0.92 10.38 -0.92 13.2171H0.92ZM0.92 187.71L0.92 13.2171H-0.92L-0.92 187.71H0.92ZM4.21714 191.007C2.39618 191.007 0.92 189.531 0.92 187.71H-0.92C-0.92 190.547 1.37998 192.847 4.21714 192.847V191.007ZM131.172 191.007H4.21714V192.847H131.172V191.007ZM134.469 187.71C134.469 189.531 132.993 191.007 131.172 191.007V192.847C134.009 192.847 136.309 190.547 136.309 187.71H134.469ZM134.469 13.2171V187.71H136.309V13.2171H134.469ZM131.172 9.92C132.993 9.92 134.469 11.3962 134.469 13.2171H136.309C136.309 10.38 134.009 8.08 131.172 8.08V9.92ZM4.21713 9.92L131.172 9.92V8.08L4.21713 8.08V9.92ZM45.922 16.7507C45.922 16.0942 46.4541 15.5621 47.1105 15.5621V13.7221C45.4379 13.7221 44.082 15.078 44.082 16.7507H45.922ZM45.922 17.6494V16.7507H44.082V17.6494H45.922ZM47.1105 18.838C46.4541 18.838 45.922 18.3059 45.922 17.6494H44.082C44.082 19.3221 45.4379 20.678 47.1105 20.678V18.838ZM88.9367 18.838H47.1105V20.678H88.9367V18.838ZM90.1252 17.6494C90.1252 18.3059 89.5931 18.838 88.9367 18.838V20.678C90.6093 20.678 91.9652 19.3221 91.9652 17.6494H90.1252ZM90.1252 16.7507V17.6494H91.9652V16.7507H90.1252ZM88.9367 15.5621C89.5931 15.5621 90.1252 16.0942 90.1252 16.7507H91.9652C91.9652 15.078 90.6093 13.7221 88.9367 13.7221V15.5621ZM47.1105 15.5621L88.9367 15.5621V13.7221L47.1105 13.7221V15.5621Z" fill="#191514" mask="url(#path-5-inside-3_6701_1410)"/>
<mask id="path-7-inside-4_6701_1410" fill="white">
<path fill-rule="evenodd" clip-rule="evenodd" d="M4.21713 0C1.88807 0 0 1.88808 0 4.21713L0 178.71C0 181.039 1.88808 182.927 4.21714 182.927H131.172C133.501 182.927 135.389 181.039 135.389 178.71V4.21713C135.389 1.88807 133.501 0 131.172 0L4.21713 0ZM47.1105 6.64209C45.946 6.64209 45.002 7.58612 45.002 8.75065V9.64945C45.002 10.814 45.946 11.758 47.1105 11.758H88.9367C90.1012 11.758 91.0452 10.814 91.0452 9.64945V8.75065C91.0452 7.58613 90.1012 6.64209 88.9367 6.64209L47.1105 6.64209Z"/>
</mask>
<path fill-rule="evenodd" clip-rule="evenodd" d="M4.21713 0C1.88807 0 0 1.88808 0 4.21713L0 178.71C0 181.039 1.88808 182.927 4.21714 182.927H131.172C133.501 182.927 135.389 181.039 135.389 178.71V4.21713C135.389 1.88807 133.501 0 131.172 0L4.21713 0ZM47.1105 6.64209C45.946 6.64209 45.002 7.58612 45.002 8.75065V9.64945C45.002 10.814 45.946 11.758 47.1105 11.758H88.9367C90.1012 11.758 91.0452 10.814 91.0452 9.64945V8.75065C91.0452 7.58613 90.1012 6.64209 88.9367 6.64209L47.1105 6.64209Z" fill="#251C17"/>
<path d="M0.92 4.21713C0.92 2.39618 2.39617 0.92 4.21713 0.92V-0.92C1.37997 -0.92 -0.92 1.37997 -0.92 4.21713H0.92ZM0.92 178.71L0.92 4.21713H-0.92L-0.92 178.71H0.92ZM4.21714 182.007C2.39618 182.007 0.92 180.531 0.92 178.71H-0.92C-0.92 181.547 1.37998 183.847 4.21714 183.847V182.007ZM131.172 182.007H4.21714V183.847H131.172V182.007ZM134.469 178.71C134.469 180.531 132.993 182.007 131.172 182.007V183.847C134.009 183.847 136.309 181.547 136.309 178.71H134.469ZM134.469 4.21713V178.71H136.309V4.21713H134.469ZM131.172 0.92C132.993 0.92 134.469 2.39618 134.469 4.21713H136.309C136.309 1.37997 134.009 -0.92 131.172 -0.92V0.92ZM4.21713 0.92L131.172 0.92V-0.92L4.21713 -0.92V0.92ZM45.922 8.75065C45.922 8.09423 46.4541 7.56209 47.1105 7.56209V5.72209C45.4379 5.72209 44.082 7.07802 44.082 8.75065H45.922ZM45.922 9.64945V8.75065H44.082V9.64945H45.922ZM47.1105 10.838C46.4541 10.838 45.922 10.3059 45.922 9.64945H44.082C44.082 11.3221 45.4379 12.678 47.1105 12.678V10.838ZM88.9367 10.838H47.1105V12.678H88.9367V10.838ZM90.1252 9.64945C90.1252 10.3059 89.5931 10.838 88.9367 10.838V12.678C90.6093 12.678 91.9652 11.3221 91.9652 9.64945H90.1252ZM90.1252 8.75065V9.64945H91.9652V8.75065H90.1252ZM88.9367 7.56209C89.5931 7.56209 90.1252 8.09423 90.1252 8.75065H91.9652C91.9652 7.07802 90.6093 5.72209 88.9367 5.72209V7.56209ZM47.1105 7.56209L88.9367 7.56209V5.72209L47.1105 5.72209V7.56209Z" fill="#191514" mask="url(#path-7-inside-4_6701_1410)"/>
<g clip-path="url(#clip0_6701_1410)">
<g clip-path="url(#clip1_6701_1410)">
<path d="M120.069 12.8949C119.656 12.8949 119.299 13.7777 119.299 15.1381C118.773 15.0137 118.211 14.9454 117.605 14.9454C116.999 14.9454 116.437 15.0137 115.912 15.1381C115.912 13.7777 115.55 12.8949 115.141 12.8949C113.54 12.8949 111.225 19.7208 111.225 21.0089C111.225 22.297 113.797 26.0491 117.605 26.0491C121.413 26.0491 123.986 22.297 123.986 21.0089C123.986 19.7208 121.674 12.8949 120.069 12.8949ZM120.755 19.468L117.473 22.7505C117.228 22.9953 116.827 22.9953 116.582 22.7505L114.459 20.6277C114.306 20.4752 114.306 20.2224 114.459 20.0699L114.953 19.5763C115.105 19.4238 115.358 19.4238 115.51 19.5763L117.031 21.0972L119.712 18.4166C119.864 18.2641 120.117 18.2641 120.27 18.4166L120.763 18.9102C120.916 19.0627 120.916 19.3155 120.763 19.468H120.755Z" fill="#FEFCFB"/>
</g>
</g>
<defs>
<clipPath id="clip0_6701_1410">
<rect width="27.0658" height="16.8898" fill="white" transform="translate(108.424 11.0271)"/>
</clipPath>
<clipPath id="clip1_6701_1410">
<rect width="12.765" height="13.1542" fill="white" transform="translate(111.225 12.8949)"/>
</clipPath>
</defs>
</svg>
