<svg width="175" height="175" viewBox="0 0 175 175" fill="none" xmlns="http://www.w3.org/2000/svg">
<path d="M66.2793 10H71.0255V11.0123H66.2793V10Z" fill="#FF943F"/>
<path d="M106.371 10H111.117V11.0123H106.371V10Z" fill="#FF943F"/>
<path d="M61.1888 13.7414H62.3733L58.464 22.1293H57.2715L61.1888 13.7414Z" fill="#FF943F"/>
<path d="M71.0938 13.7414H72.2783L76.1956 22.1293H74.9923L71.0938 13.7414Z" fill="#FF943F"/>
<path d="M105.814 13.7414H106.998L103.089 22.1293H101.896L105.814 13.7414Z" fill="#FF943F"/>
<path d="M115.721 13.7414H116.905L120.823 22.1293H119.619L115.721 13.7414Z" fill="#FF943F"/>
<path d="M52.6595 25.3109H53.844L49.9348 33.6988H48.7422L52.6595 25.3109Z" fill="#FF943F"/>
<path d="M76.7344 25.8412H78.189V27.1321H76.7344V25.8412Z" fill="#FF943F"/>
<path d="M80.6699 29.379H83.8171V30.4395H80.6699V29.379Z" fill="#FF943F"/>
<path d="M85.9648 29.379H89.112V30.4395H85.9648V29.379Z" fill="#FF943F"/>
<path d="M91.2598 29.379H94.407V30.4395H91.2598V29.379Z" fill="#FF943F"/>
<path d="M96.8711 25.8412H98.3257V27.1321H96.8711V25.8412Z" fill="#FF943F"/>
<path d="M121.07 25.3109H122.255L126.172 33.6988H124.969L121.07 25.3109Z" fill="#FF943F"/>
<path d="M48.3939 36.8805H49.5784L45.6691 45.2685H44.4766L48.3939 36.8805Z" fill="#FF943F"/>
<path d="M126.529 36.8805H127.714L131.631 45.2685H130.428L126.529 36.8805Z" fill="#FF943F"/>
<path d="M44.1282 48.45H45.3128L41.4035 56.838H40.2109L44.1282 48.45Z" fill="#FF943F"/>
<path d="M130.793 48.45H131.978L135.895 56.838H134.692L130.793 48.45Z" fill="#FF943F"/>
<path d="M39.8665 60.0197H41.0511L37.1418 68.4076H35.9492L39.8665 60.0197Z" fill="#FF943F"/>
<path d="M135.059 60.0197H136.243L140.16 68.4076H138.957L135.059 60.0197Z" fill="#FF943F"/>
<path d="M35.9863 71.5892H37.1709L41.0882 79.9771H39.8849L35.9863 71.5892Z" fill="#FF943F"/>
<path d="M138.939 71.5892H140.123L136.214 79.9771H135.021L138.939 71.5892Z" fill="#FF943F"/>
<path d="M40.0977 83.1587H41.2822L45.1995 91.5466H43.9962L40.0977 83.1587Z" fill="#FF943F"/>
<path d="M134.519 83.1587H135.703L131.794 91.5466H130.602L134.519 83.1587Z" fill="#FF943F"/>
<path d="M48.627 94.7283H49.8115L53.7288 103.116H52.5255L48.627 94.7283Z" fill="#FF943F"/>
<path d="M54.4805 102.556H59.2267V103.569H54.4805V102.556Z" fill="#FF943F"/>
<path d="M73.9609 100.521H75.4824V102.005H73.9609V100.521Z" fill="#FF943F"/>
<path d="M99.4531 100.521H100.975V102.005H99.4531V100.521Z" fill="#FF943F"/>
<path d="M119.963 102.556H124.709V103.569H119.963V102.556Z" fill="#FF943F"/>
<path d="M129.378 94.7283H130.563L126.654 103.116H125.461L129.378 94.7283Z" fill="#FF943F"/>
<path d="M61.418 106.298H62.6025L66.5198 114.686H65.3165L61.418 106.298Z" fill="#FF943F"/>
<path d="M68.0977 112.091H69.6191V113.574H68.0977V112.091Z" fill="#FF943F"/>
<path d="M72.498 112.091H74.0195V113.574H72.498V112.091Z" fill="#FF943F"/>
<path d="M76.0684 114.126H80.8146V115.138H76.0684V114.126Z" fill="#FF943F"/>
<path d="M94.8379 114.126H99.5841V115.138H94.8379V114.126Z" fill="#FF943F"/>
<path d="M101.645 112.091H103.166V113.574H101.645V112.091Z" fill="#FF943F"/>
<path d="M106.047 112.091H107.568V113.574H106.047V112.091Z" fill="#FF943F"/>
<path d="M113.05 106.298H114.235L110.325 114.686H109.133L113.05 106.298Z" fill="#FF943F"/>
<path d="M53.5801 39.1302H54.6389V47.6146H53.5801V39.1302Z" fill="#FF943F"/>
<path d="M56.9492 47.0066H61.6954V48.0189H56.9492V47.0066Z" fill="#FF943F"/>
<path d="M62.9297 47.0066H67.6759V48.0189H62.9297V47.0066Z" fill="#FF943F"/>
<path d="M68.9043 47.0066H73.6505V48.0189H68.9043V47.0066Z" fill="#FF943F"/>
<path d="M96.2051 47.0066H100.951V48.0189H96.2051V47.0066Z" fill="#FF943F"/>
<path d="M102.182 47.0066H106.928V48.0189H102.182V47.0066Z" fill="#FF943F"/>
<path d="M108.16 47.0066H112.906V48.0189H108.16V47.0066Z" fill="#FF943F"/>
<path d="M115.225 39.1302H116.283V47.6146H115.225V39.1302Z" fill="#FF943F"/>
<path d="M77.4824 50.7479H78.667L82.5843 59.1359H81.381L77.4824 50.7479Z" fill="#FF943F"/>
<path d="M95.1458 50.7479H96.3303L92.4211 59.1359H91.2285L95.1458 50.7479Z" fill="#FF943F"/>
<path d="M56.7578 70.1457H61.504V71.1581H56.7578V70.1457Z" fill="#FF943F"/>
<path d="M62.7324 70.1457H67.4786V71.1581H62.7324V70.1457Z" fill="#FF943F"/>
<path d="M68.7129 70.1457H73.4591V71.1581H68.7129V70.1457Z" fill="#FF943F"/>
<path d="M78.1263 62.3176H79.3108L75.4016 70.7055H74.209L78.1263 62.3176Z" fill="#FF943F"/>
<path d="M80.1016 70.1457H84.8478V71.1581H80.1016V70.1457Z" fill="#FF943F"/>
<path d="M86.0762 70.1457H90.8224V71.1581H86.0762V70.1457Z" fill="#FF943F"/>
<path d="M92.0566 70.1457H96.8028V71.1581H92.0566V70.1457Z" fill="#FF943F"/>
<path d="M97.5918 62.3176H98.7763L102.694 70.7055H101.49L97.5918 62.3176Z" fill="#FF943F"/>
<path d="M103.445 70.1457H108.192V71.1581H103.445V70.1457Z" fill="#FF943F"/>
<path d="M109.422 70.1457H114.168V71.1581H109.422V70.1457Z" fill="#FF943F"/>
<path d="M115.4 70.1457H120.147V71.1581H115.4V70.1457Z" fill="#FF943F"/>
<path d="M51.6634 74.1014H52.8479L48.9386 82.4894H47.7461L51.6634 74.1014Z" fill="#FF943F"/>
<path d="M80.3477 74.1014H81.5322L85.4495 82.4894H84.2462L80.3477 74.1014Z" fill="#FF943F"/>
<path d="M93.7493 74.1014H94.9339L91.0246 82.4894H89.832L93.7493 74.1014Z" fill="#FF943F"/>
<path d="M120.711 74.1014H121.895L125.813 82.4894H124.609L120.711 74.1014Z" fill="#FF943F"/>
<path d="M52.4922 91.303H57.2384V92.3153H52.4922V91.303Z" fill="#FF943F"/>
<path d="M74.1211 83.4749H75.3057L79.2229 91.8628H78.0197L74.1211 83.4749Z" fill="#FF943F"/>
<path d="M79.9746 91.303H84.7208V92.3153H79.9746V91.303Z" fill="#FF943F"/>
<path d="M87.041 83.4267H88.0999V91.911H87.041V83.4267Z" fill="#FF943F"/>
<path d="M90.4082 91.303H95.1544V92.3153H90.4082V91.303Z" fill="#FF943F"/>
<path d="M99.8216 83.4749H101.006L97.0969 91.8628H95.9043L99.8216 83.4749Z" fill="#FF943F"/>
<path d="M114.59 91.303H119.336V92.3153H114.59V91.303Z" fill="#FF943F"/>
<path d="M60.4258 92.8483H61.6103L65.5276 101.236H64.3244L60.4258 92.8483Z" fill="#FF943F"/>
<path d="M66.2773 100.677H71.0235V101.689H66.2773V100.677Z" fill="#FF943F"/>
<path d="M102.104 100.677H106.85V101.689H102.104V100.677Z" fill="#FF943F"/>
<path d="M111.519 92.8483H112.703L108.794 101.236H107.602L111.519 92.8483Z" fill="#FF943F"/>
<path d="M66.1874 66.5034C65.7194 66.2115 65.3531 65.799 65.0911 65.2661C64.829 64.7331 64.6953 64.1225 64.6953 63.4342C64.6953 62.7459 64.8263 62.1353 65.0911 61.6024C65.3531 61.0694 65.7194 60.657 66.1874 60.3624C66.6553 60.0678 67.1954 59.9232 67.8051 59.9232C68.4147 59.9232 68.9575 60.0705 69.4308 60.3624C69.9068 60.6543 70.2758 61.0667 70.5378 61.6024C70.7999 62.1353 70.9336 62.7459 70.9336 63.4342C70.9336 64.1225 70.8025 64.7331 70.5378 65.2661C70.2758 65.799 69.9068 66.2115 69.4308 66.5034C68.9549 66.7953 68.4147 66.9426 67.8051 66.9426C67.1954 66.9426 66.6553 66.7953 66.1874 66.5034ZM68.757 65.5098C69.0271 65.3196 69.2329 65.0465 69.3773 64.6903C69.5217 64.3341 69.5939 63.9109 69.5939 63.4235C69.5939 62.9361 69.5217 62.5237 69.3773 62.1701C69.2329 61.8166 69.0271 61.5461 68.757 61.356C68.4869 61.1658 68.1687 61.0721 67.8051 61.0721C67.4414 61.0721 67.1339 61.1658 66.8665 61.356C66.5991 61.5461 66.3932 61.8166 66.2462 62.1701C66.0991 62.5237 66.0243 62.9414 66.0243 63.4235C66.0243 63.9056 66.0991 64.3341 66.2462 64.6903C66.3932 65.0465 66.6018 65.3196 66.8665 65.5098C67.1339 65.6999 67.4468 65.7937 67.8051 65.7937C68.1634 65.7937 68.4896 65.6999 68.757 65.5098Z" fill="#FF943F"/>
<path d="M102.988 66.5034C102.52 66.2115 102.154 65.799 101.892 65.2661C101.63 64.7331 101.496 64.1225 101.496 63.4342C101.496 62.7459 101.627 62.1353 101.892 61.6024C102.154 61.0694 102.52 60.657 102.988 60.3624C103.456 60.0705 103.996 59.9232 104.606 59.9232C105.216 59.9232 105.758 60.0705 106.232 60.3624C106.708 60.6543 107.077 61.0667 107.339 61.6024C107.601 62.1353 107.734 62.7459 107.734 63.4342C107.734 64.1225 107.603 64.7331 107.339 65.2661C107.074 65.799 106.708 66.2115 106.232 66.5034C105.756 66.7953 105.216 66.9426 104.606 66.9426C103.996 66.9426 103.456 66.7953 102.988 66.5034ZM105.558 65.5098C105.828 65.3196 106.034 65.0465 106.178 64.6903C106.323 64.3341 106.395 63.9109 106.395 63.4235C106.395 62.9361 106.323 62.5237 106.178 62.1701C106.034 61.8166 105.828 61.5461 105.558 61.356C105.288 61.1658 104.97 61.0721 104.606 61.0721C104.242 61.0721 103.935 61.1658 103.667 61.356C103.4 61.5461 103.194 61.8166 103.047 62.1701C102.9 62.5237 102.825 62.9414 102.825 63.4235C102.825 63.9056 102.9 64.3341 103.047 64.6903C103.194 65.0465 103.403 65.3196 103.667 65.5098C103.935 65.6999 104.248 65.7937 104.606 65.7937C104.964 65.7937 105.29 65.6999 105.558 65.5098Z" fill="#FF943F"/>
<path d="M43.2109 109.881H44.3955L48.3128 118.269H47.1095L43.2109 109.881Z" fill="#FF943F"/>
<path d="M49.0645 117.709H53.8107V118.722H49.0645V117.709Z" fill="#FF943F"/>
<path d="M123.27 117.709H128.016V118.722H123.27V117.709Z" fill="#FF943F"/>
<path d="M132.685 109.881H133.869L129.96 118.269H128.768L132.685 109.881Z" fill="#FF943F"/>
<path d="M52.6348 127.169L56.052 125.318L56.0627 125.655L52.6348 123.813V122.589L56.9184 124.97V126.012L52.6348 128.393V127.169Z" fill="#FF943F"/>
<path d="M57.9102 121.451H59.0947L63.012 129.839H61.8087L57.9102 121.451Z" fill="#FF943F"/>
<path d="M62.5039 121.451H63.6885L67.6057 129.839H66.4025L62.5039 121.451Z" fill="#FF943F"/>
<path d="M68.8086 127.169L72.2259 125.318L72.2366 125.655L68.8086 123.813V122.589L73.0922 124.97V126.012L68.8086 128.393V127.169Z" fill="#FF943F"/>
<path d="M74.9766 127.169L78.3938 125.318L78.4045 125.655L74.9766 123.813V122.589L79.2602 124.97V126.012L74.9766 128.393V127.169Z" fill="#FF943F"/>
<path d="M81.1484 127.169L84.5657 125.318L84.5764 125.655L81.1484 123.813V122.589L85.432 124.97V126.012L81.1484 128.393V127.169Z" fill="#FF943F"/>
<path d="M87.6953 127.246H89.2168V128.73H87.6953V127.246Z" fill="#FF943F"/>
<path d="M95.7504 128.393L91.4668 126.012V124.97L95.7504 122.589V123.813L92.3225 125.655L92.3331 125.318L95.7504 127.169V128.393Z" fill="#FF943F"/>
<path d="M101.922 128.393L97.6387 126.012V124.97L101.922 122.589V123.813L98.4943 125.655L98.505 125.318L101.922 127.169V128.393Z" fill="#FF943F"/>
<path d="M108.09 128.393L103.807 126.012V124.97L108.09 122.589V123.813L104.662 125.655L104.673 125.318L108.09 127.169V128.393Z" fill="#FF943F"/>
<path d="M113.21 121.451H114.395L110.486 129.839H109.293L113.21 121.451Z" fill="#FF943F"/>
<path d="M117.804 121.451H118.989L115.079 129.839H113.887L117.804 121.451Z" fill="#FF943F"/>
<path d="M124.264 128.393L119.98 126.012V124.97L124.264 122.589V123.813L120.836 125.655L120.847 125.318L124.264 127.169V128.393Z" fill="#FF943F"/>
<path d="M74.9192 133.02H76.1038L72.1945 141.408H71.002L74.9192 133.02Z" fill="#FF943F"/>
<path d="M101.881 133.02H103.065L106.983 141.408H105.779L101.881 133.02Z" fill="#FF943F"/>
<path d="M68.5938 144.542H69.6526V153.026H68.5938V144.542Z" fill="#FF943F"/>
<path d="M107.168 144.542H108.227V153.026H107.168V144.542Z" fill="#FF943F"/>
<path d="M71.041 156.159H72.2256L76.1428 164.547H74.9396L71.041 156.159Z" fill="#FF943F"/>
<path d="M76.8945 163.988H81.6407V165H76.8945V163.988Z" fill="#FF943F"/>
<path d="M82.8711 163.988H87.6173V165H82.8711V163.988Z" fill="#FF943F"/>
<path d="M88.8496 163.988H93.5958V165H88.8496V163.988Z" fill="#FF943F"/>
<path d="M94.8262 163.988H99.5724V165H94.8262V163.988Z" fill="#FF943F"/>
<path d="M104.242 156.159H105.426L101.517 164.547H100.324L104.242 156.159Z" fill="#FF943F"/>
<path d="M95.6204 136.537H96.805L92.8957 144.925H91.7031L95.6204 136.537Z" fill="white"/>
<path d="M80.6816 148.106H81.8662L85.7835 156.494H84.5802L80.6816 148.106Z" fill="white"/>
<path d="M89.97 148.106H91.1546L87.2453 156.494H86.0527L89.97 148.106Z" fill="white"/>
</svg>
