<svg width="175" height="175" viewBox="0 0 175 175" fill="none" xmlns="http://www.w3.org/2000/svg">
<path d="M82.4434 4.6053H87.3031V5.64191H82.4434V4.6053Z" fill="#FF943F"/>
<path d="M79.4454 16.8856C79.2811 16.7923 79.1552 16.6662 79.0703 16.5016C78.9854 16.3371 78.9416 16.1561 78.9416 15.9586V14.1624C78.9416 13.9704 78.9142 13.8114 78.8568 13.6825C78.7993 13.5536 78.7171 13.4494 78.6049 13.3671C78.4926 13.2849 78.342 13.2273 78.1504 13.1944V12.2866C78.3667 12.2592 78.531 12.2099 78.6432 12.1386C78.7555 12.0673 78.8321 11.9685 78.8759 11.8424C78.9197 11.7162 78.9389 11.5462 78.9389 11.3296V9.50316C78.9389 9.19327 79.0347 8.93824 79.2291 8.73804C79.4235 8.53785 79.6863 8.43639 80.0231 8.43639H81.6302V9.3441H80.5761C80.3982 9.3441 80.2722 9.3825 80.1956 9.45654C80.1189 9.53058 80.0833 9.65673 80.0833 9.82676V11.4557C80.0833 11.7574 80.0532 11.985 79.9902 12.1358C79.9273 12.2866 79.7986 12.421 79.6015 12.5417C79.4043 12.6596 79.0813 12.8022 78.635 12.9667V12.6514C79.0676 12.7364 79.3879 12.8351 79.5905 12.9421C79.7931 13.0518 79.9273 13.1861 79.9902 13.3479C80.0532 13.5097 80.0833 13.7511 80.0833 14.0746V15.635C80.0833 15.8051 80.1217 15.9285 80.1956 16.0053C80.2695 16.082 80.3982 16.1177 80.5761 16.1177H81.6302V17.0254H80.0231C79.7986 17.0254 79.6069 16.9788 79.4427 16.8883L79.4454 16.8856Z" fill="#FF943F"/>
<path d="M83.0117 16.4522H87.8714V17.4888H83.0117V16.4522Z" fill="#FF943F"/>
<path d="M91.4407 8.57351C91.605 8.66675 91.7309 8.7929 91.8158 8.95744C91.9006 9.12198 91.9445 9.30298 91.9445 9.50043V11.2967C91.9445 11.4886 91.9718 11.6477 92.0293 11.7766C92.0841 11.9055 92.169 12.0097 92.2812 12.0919C92.3935 12.1742 92.544 12.2318 92.7357 12.2647V13.1724C92.5194 13.1999 92.3551 13.2492 92.2429 13.3205C92.1306 13.3918 92.054 13.4905 92.0102 13.6167C91.9664 13.7428 91.9472 13.9129 91.9472 14.1295V15.9559C91.9472 16.2658 91.8514 16.5208 91.657 16.721C91.4626 16.9212 91.1997 17.0227 90.863 17.0227H89.2559V16.115H90.3099C90.4879 16.115 90.6138 16.0766 90.6905 16.0025C90.7672 15.9257 90.8027 15.8023 90.8027 15.6323V14.0034C90.8027 13.7017 90.8329 13.4741 90.8958 13.3233C90.9588 13.1724 91.0875 13.0381 91.2846 12.9174C91.4817 12.7995 91.8048 12.6569 92.2511 12.4923V12.8077C91.8185 12.7227 91.4982 12.624 91.2956 12.517C91.093 12.4073 90.9588 12.2729 90.8958 12.1111C90.8329 11.9493 90.8027 11.708 90.8027 11.3844V9.82402C90.8027 9.654 90.7644 9.53059 90.6905 9.45381C90.6138 9.37702 90.4879 9.34137 90.3099 9.34137H89.2559V8.43365H90.863C91.0848 8.43365 91.2791 8.48027 91.4434 8.57077L91.4407 8.57351Z" fill="#FF943F"/>
<path d="M85.5566 20.234H86.6408V28.9217H85.5566V20.234Z" fill="white"/>
<path d="M47.5117 40.1461H52.3714V41.1827H47.5117V40.1461Z" fill="white"/>
<path d="M53.6328 40.1461H58.4925V41.1827H53.6328V40.1461Z" fill="white"/>
<path d="M59.752 40.1461H64.6117V41.1827H59.752V40.1461Z" fill="white"/>
<path d="M65.875 40.1461H70.7347V41.1827H65.875V40.1461Z" fill="white"/>
<path d="M71.9961 40.1461H76.8558V41.1827H71.9961V40.1461Z" fill="white"/>
<path d="M78.1152 40.1461H82.975V41.1827H78.1152V40.1461Z" fill="white"/>
<path d="M85.3516 32.0808H86.4358V40.7686H85.3516V32.0808Z" fill="white"/>
<path d="M88.8008 40.1461H93.6605V41.1827H88.8008V40.1461Z" fill="white"/>
<path d="M94.9199 40.1461H99.7796V41.1827H94.9199V40.1461Z" fill="white"/>
<path d="M101.041 40.1461H105.901V41.1827H101.041V40.1461Z" fill="white"/>
<path d="M107.16 40.1461H112.02V41.1827H107.16V40.1461Z" fill="white"/>
<path d="M113.283 40.1461H118.143V41.1827H113.283V40.1461Z" fill="white"/>
<path d="M119.404 40.1461H124.264V41.1827H119.404V40.1461Z" fill="white"/>
<path d="M125.523 40.1461H130.383V41.1827H125.523V40.1461Z" fill="white"/>
<path d="M42.2981 43.9772H43.511L39.5082 52.5662H38.2871L42.2981 43.9772Z" fill="white"/>
<path d="M53.0508 51.993H57.9105V53.0296H53.0508V51.993Z" fill="white"/>
<path d="M59.1719 51.9931H64.0316V53.0297H59.1719V51.9931Z" fill="white"/>
<path d="M65.293 51.993H70.1527V53.0296H65.293V51.993Z" fill="white"/>
<path d="M71.4121 51.993H76.2718V53.0296H71.4121V51.993Z" fill="white"/>
<path d="M77.5352 51.993H82.3949V53.0296H77.5352V51.993Z" fill="white"/>
<path d="M83.6543 51.993H88.514V53.0296H83.6543V51.993Z" fill="white"/>
<path d="M89.7754 51.993H94.6351V53.0296H89.7754V51.993Z" fill="white"/>
<path d="M95.8965 51.993H100.756V53.0296H95.8965V51.993Z" fill="white"/>
<path d="M102.018 51.993H106.877V53.0296H102.018V51.993Z" fill="white"/>
<path d="M108.139 51.9931H112.998V53.0297H108.139V51.9931Z" fill="white"/>
<path d="M131.111 43.9772H132.324L136.335 52.5662H135.103L131.111 43.9772Z" fill="white"/>
<path d="M35.5273 55.7748H36.6115V64.4625H35.5273V55.7748Z" fill="white"/>
<path d="M51.2258 55.8241H52.4387L48.4359 64.4131H47.2148L51.2258 55.8241Z" fill="white"/>
<path d="M118.131 55.8241H119.344L123.355 64.4131H122.123L118.131 55.8241Z" fill="white"/>
<path d="M138.182 55.7748H139.266V64.4625H138.182V55.7748Z" fill="white"/>
<path d="M35.5273 67.6217H36.6115V76.3094H35.5273V67.6217Z" fill="white"/>
<path d="M44.4551 67.6217H45.5393V76.3094H44.4551V67.6217Z" fill="white"/>
<path d="M63.1645 74.8121C62.6853 74.5132 62.3102 74.0909 62.0419 73.5424C61.7736 72.9939 61.6367 72.3714 61.6367 71.6666C61.6367 70.9619 61.7709 70.3366 62.0419 69.7909C62.3102 69.2452 62.6853 68.8228 63.1645 68.5212C63.6436 68.2223 64.1966 68.0714 64.8209 68.0714C65.4451 68.0714 66.0009 68.2223 66.4855 68.5212C66.9728 68.8201 67.3507 69.2424 67.619 69.7909C67.8873 70.3366 68.0242 70.9619 68.0242 71.6666C68.0242 72.3714 67.89 72.9967 67.619 73.5424C67.3507 74.0881 66.9728 74.5105 66.4855 74.8121C65.9982 75.111 65.4451 75.2619 64.8209 75.2619C64.1966 75.2619 63.6436 75.111 63.1645 74.8121ZM65.7956 73.7974C66.0721 73.6027 66.2829 73.323 66.4307 72.9583C66.5786 72.5936 66.6525 72.1603 66.6525 71.6612C66.6525 71.1621 66.5786 70.7397 66.4307 70.3777C66.2829 70.0158 66.0721 69.7388 65.7956 69.5441C65.519 69.3494 65.1932 69.2534 64.8209 69.2534C64.4485 69.2534 64.1337 69.3494 63.8599 69.5441C63.5861 69.7388 63.3753 70.0158 63.2247 70.3777C63.0741 70.7397 62.9975 71.1675 62.9975 71.6612C62.9975 72.1548 63.0741 72.5936 63.2247 72.9583C63.3753 73.323 63.5888 73.6027 63.8599 73.7974C64.1337 73.9922 64.454 74.0881 64.8209 74.0881C65.1877 74.0881 65.5218 73.9922 65.7956 73.7974Z" fill="white"/>
<path d="M105.209 74.8121C104.73 74.5132 104.355 74.0909 104.087 73.5424C103.819 72.9967 103.682 72.3714 103.682 71.6666C103.682 70.9619 103.816 70.3366 104.087 69.7909C104.355 69.2452 104.73 68.8228 105.209 68.5212C105.689 68.2223 106.242 68.0714 106.866 68.0714C107.49 68.0714 108.046 68.2223 108.53 68.5212C109.018 68.8201 109.396 69.2424 109.664 69.7909C109.932 70.3366 110.069 70.9619 110.069 71.6666C110.069 72.3714 109.935 72.9967 109.664 73.5424C109.393 74.0881 109.018 74.5105 108.53 74.8121C108.043 75.1138 107.49 75.2619 106.866 75.2619C106.242 75.2619 105.689 75.111 105.209 74.8121ZM107.84 73.7974C108.117 73.6027 108.328 73.323 108.476 72.9583C108.624 72.5936 108.697 72.1603 108.697 71.6612C108.697 71.1621 108.624 70.7397 108.476 70.3777C108.328 70.0158 108.117 69.7388 107.84 69.5441C107.564 69.3494 107.238 69.2534 106.866 69.2534C106.493 69.2534 106.179 69.3494 105.905 69.5441C105.631 69.7388 105.42 70.0158 105.27 70.3777C105.119 70.7397 105.042 71.1675 105.042 71.6612C105.042 72.1548 105.119 72.5936 105.27 72.9583C105.42 73.323 105.634 73.6027 105.905 73.7974C106.179 73.9922 106.499 74.0881 106.866 74.0881C107.233 74.0881 107.567 73.9922 107.84 73.7974Z" fill="white"/>
<path d="M124.381 67.6217H125.465V76.3094H124.381V67.6217Z" fill="white"/>
<path d="M137.678 67.6217H138.762V76.3094H137.678V67.6217Z" fill="white"/>
<path d="M35.5273 79.4686H36.6115V88.1564H35.5273V79.4686Z" fill="white"/>
<path d="M47.0977 79.5179H48.3105L52.3215 88.1069H51.0895L47.0977 79.5179Z" fill="white"/>
<path d="M53.0918 87.5339H57.9515V88.5705H53.0918V87.5339Z" fill="white"/>
<path d="M59.2109 87.5339H64.0707V88.5705H59.2109V87.5339Z" fill="white"/>
<path d="M65.332 87.5338H70.1918V88.5705H65.332V87.5338Z" fill="white"/>
<path d="M71.4531 87.5339H76.3129V88.5705H71.4531V87.5339Z" fill="white"/>
<path d="M77.5742 87.5339H82.4339V88.5705H77.5742V87.5339Z" fill="white"/>
<path d="M83.6953 87.5339H88.555V88.5705H83.6953V87.5339Z" fill="white"/>
<path d="M89.8145 87.5338H94.6742V88.5705H89.8145V87.5338Z" fill="white"/>
<path d="M95.9355 87.5339H100.795V88.5705H95.9355V87.5339Z" fill="white"/>
<path d="M102.059 87.5339H106.918V88.5705H102.059V87.5339Z" fill="white"/>
<path d="M108.178 87.5339H113.037V88.5705H108.178V87.5339Z" fill="white"/>
<path d="M122.183 79.518H123.396L119.393 88.107H118.172L122.183 79.518Z" fill="white"/>
<path d="M138.418 79.4686H139.502V88.1564H138.418V79.4686Z" fill="white"/>
<path d="M35.5273 91.3155H36.6115V100.003H35.5273V91.3155Z" fill="white"/>
<path d="M84.3457 91.3649H87.0562V92.2918H85.4984V99.0242H87.0562V99.9512H84.3457V91.3621V91.3649Z" fill="white"/>
<path d="M91.2828 99.954H88.5723V99.0271H90.1301V92.2947H88.5723V91.3677H91.2828V99.9568V99.954Z" fill="white"/>
<path d="M137.234 91.3155H138.319V100.003H137.234V91.3155Z" fill="white"/>
<path d="M38.166 103.212H39.3789L43.3899 111.801H42.1578L38.166 103.212Z" fill="white"/>
<path d="M44.1602 111.228H49.0199V112.264H44.1602V111.228Z" fill="white"/>
<path d="M50.2812 111.228H55.141V112.264H50.2812V111.228Z" fill="white"/>
<path d="M56.4023 111.228H61.2621V112.264H56.4023V111.228Z" fill="white"/>
<path d="M62.5234 111.228H67.3832V112.264H62.5234V111.228Z" fill="white"/>
<path d="M68.6445 111.228H73.5043V112.264H68.6445V111.228Z" fill="white"/>
<path d="M74.7637 111.228H79.6234V112.264H74.7637V111.228Z" fill="white"/>
<path d="M80.8867 111.228H85.7464V112.264H80.8867V111.228Z" fill="white"/>
<path d="M87.0059 111.228H91.8656V112.264H87.0059V111.228Z" fill="white"/>
<path d="M93.127 111.228H97.9867V112.264H93.127V111.228Z" fill="white"/>
<path d="M99.248 111.228H104.108V112.264H99.248V111.228Z" fill="white"/>
<path d="M105.369 111.228H110.229V112.264H105.369V111.228Z" fill="white"/>
<path d="M111.49 111.228H116.35V112.264H111.49V111.228Z" fill="white"/>
<path d="M117.609 111.228H122.469V112.264H117.609V111.228Z" fill="white"/>
<path d="M123.73 111.228H128.59V112.264H123.73V111.228Z" fill="white"/>
<path d="M133.37 103.212H134.583L130.58 111.801H129.359L133.37 103.212Z" fill="white"/>
<path d="M86.8477 123.075H91.7074V124.111H86.8477V123.075Z" fill="white"/>
<path d="M68.4219 123.075H73.2816V124.111H68.4219V123.075Z" fill="white"/>
<path d="M92.9688 123.075H97.8285V124.111H92.9688V123.075Z" fill="white"/>
<path d="M74.543 123.075H79.4027V124.111H74.543V123.075Z" fill="white"/>
<path d="M99.0898 123.075H103.95V124.111H99.0898V123.075Z" fill="white"/>
<path d="M80.6641 123.075H85.5238V124.111H80.6641V123.075Z" fill="white"/>
<path d="M105.211 123.075H110.071V124.111H105.211V123.075Z" fill="white"/>
<path d="M113.568 126.906H114.781L118.792 135.495H117.56L113.568 126.906Z" fill="white"/>
<path d="M117.936 138.753H119.148L123.159 147.342H121.927L117.936 138.753Z" fill="white"/>
<path d="M122.301 150.6H123.514L127.525 159.189H126.293L122.301 150.6Z" fill="white"/>
<path d="M128.404 162.447H129.617L133.628 171.036H132.396L128.404 162.447Z" fill="white"/>
<path d="M67.4297 126.906H66.2168L62.2058 135.495H63.4379L67.4297 126.906Z" fill="white"/>
<path d="M63.0605 138.753H61.8477L57.8367 147.342H59.0687L63.0605 138.753Z" fill="white"/>
<path d="M58.6953 150.6H57.4824L53.4715 159.189H54.7035L58.6953 150.6Z" fill="white"/>
<path d="M52.5938 162.447H51.3809L47.3699 171.036H48.6019L52.5938 162.447Z" fill="white"/>
</svg>
