<svg width="175" height="175" viewBox="0 0 175 175" fill="none" xmlns="http://www.w3.org/2000/svg">
<g clip-path="url(#clip0_6659_23500)">
<path d="M102.56 9H98.1087V9.94863H102.56V9Z" fill="white"/>
<path d="M96.9561 9H92.5052V9.94863H96.9561V9Z" fill="white"/>
<path d="M114.559 19.8415H110.108V20.7901H114.559V19.8415Z" fill="white"/>
<path d="M105.729 12.5033H104.618L108.284 20.3634H109.402L105.729 12.5033Z" fill="white"/>
<path d="M95.8818 19.8415H91.431V20.7901H95.8818V19.8415Z" fill="white"/>
<path d="M86.8379 12.5033H85.7271L82.0535 20.3634H83.1819L86.8379 12.5033Z" fill="white"/>
<path d="M115.336 23.3446H114.225L117.891 31.2047H119.01L115.336 23.3446Z" fill="white"/>
<path d="M98.2669 23.3446H97.1561L100.822 31.2047H101.94L98.2669 23.3446Z" fill="white"/>
<path d="M80.4531 26.6347H75.7591V27.5658H80.4531V26.6347ZM78.5951 24.8002H77.6121V29.4355H78.5951V24.8002Z" fill="white"/>
<path d="M119.335 34.1863H118.224L121.89 42.0464H123.009L119.335 34.1863Z" fill="white"/>
<path d="M102.048 34.1863H100.937L97.2635 42.0464H98.3919L102.048 34.1863Z" fill="white"/>
<path d="M123.333 45.0276H122.222L125.888 52.8876H127.007L123.333 45.0276Z" fill="white"/>
<path d="M98.0479 45.0276H96.937L93.2635 52.8876H94.3919L98.0479 45.0276Z" fill="white"/>
<path d="M142.551 63.207H138.1V64.1556H142.551V63.207Z" fill="white"/>
<path d="M136.945 63.207H132.494V64.1556H136.945V63.207Z" fill="white"/>
<path d="M128.116 55.8693H127.005L130.671 63.7294H131.789L128.116 55.8693Z" fill="white"/>
<path d="M126.266 63.207H121.815V64.1556H126.266V63.207Z" fill="white"/>
<path d="M120.662 63.207H116.211V64.1556H120.662V63.207Z" fill="white"/>
<path d="M115.054 63.207H110.603V64.1556H115.054V63.207Z" fill="white"/>
<path d="M109.449 63.207H104.998V64.1556H109.449V63.207Z" fill="white"/>
<path d="M103.844 63.207H99.3929V64.1556H103.844V63.207Z" fill="white"/>
<path d="M98.2373 63.207H93.7865V64.1556H98.2373V63.207Z" fill="white"/>
<path d="M93.0449 55.8693H91.9341L88.2606 63.7294H89.389L93.0449 55.8693Z" fill="white"/>
<path d="M87.5576 63.207H83.1068V64.1556H87.5576V63.207Z" fill="white"/>
<path d="M81.9541 63.207H77.5033V64.1556H81.9541V63.207Z" fill="white"/>
<path d="M130.148 69.4862L129.183 68.4121L129.075 68.5928L130.502 68.2665L130.204 67.4183L128.912 67.988L129.075 68.0883L129.221 66.6704H128.318L128.463 68.0883L128.616 67.988L127.325 67.4183L127.037 68.2665L128.436 68.5827L128.363 68.4121L127.38 69.4862L128.13 69.9931L128.852 68.7634H128.681L129.404 69.9931L130.153 69.4862H130.148Z" fill="white"/>
<path d="M118.583 66.7104H117.472L121.138 74.5704H122.257L118.583 66.7104Z" fill="white"/>
<path d="M112.33 69.4862L111.365 68.4121L111.257 68.5928L112.684 68.2665L112.385 67.4183L111.094 67.988L111.257 68.0883L111.402 66.6704H110.5L110.645 68.0883L110.798 67.988L109.507 67.4183L109.218 68.2665L110.617 68.5827L110.545 68.4121L109.562 69.4862L110.311 69.9931L111.034 68.7634H110.863L111.585 69.9931L112.335 69.4862H112.33Z" fill="white"/>
<path d="M93.6557 68.6279C93.395 69.2904 93.2621 69.9705 93.2621 70.6707C93.2621 71.1349 93.3197 71.5942 93.4326 72.0484C93.5479 72.5027 93.7209 72.9444 93.9516 73.371C94.1823 73.7976 94.4732 74.1992 94.8217 74.5731H95.895C95.5514 74.1941 95.2681 73.7951 95.0474 73.376C94.8242 72.9569 94.6613 72.5227 94.5559 72.076C94.4506 71.6268 94.398 71.1625 94.398 70.6807C94.398 69.9931 94.5208 69.318 94.7691 68.653C95.0148 67.9879 95.3909 67.3404 95.8975 66.7155H94.8242C94.3077 67.3304 93.9165 67.9678 93.6557 68.6304V68.6279Z" fill="white"/>
<path d="M79.6875 74.0487H75.2367V74.9974H79.6875V74.0487Z" fill="white"/>
<path d="M74.0811 74.0487H69.6302V74.9974H74.0811V74.0487Z" fill="white"/>
<path d="M131.33 77.5521H130.22L133.886 85.4122H135.004L131.33 77.5521Z" fill="white"/>
<path d="M127.321 79.2687C127.426 79.226 127.559 79.1608 127.722 79.0704C127.843 79.0102 127.94 78.9625 128.016 78.9299C128.091 78.8973 128.164 78.8797 128.236 78.8797C128.332 78.8797 128.404 78.9073 128.449 78.965C128.495 79.0228 128.517 79.1056 128.517 79.2135V79.2762H129.239V79.1231C129.239 78.7919 129.151 78.5359 128.978 78.3552C128.803 78.1745 128.57 78.0842 128.274 78.0842C128.159 78.0842 128.046 78.1093 127.935 78.1569C127.825 78.2046 127.692 78.2724 127.542 78.3552C127.434 78.4154 127.339 78.4631 127.258 78.4957C127.178 78.5284 127.105 78.5459 127.045 78.5459C126.955 78.5459 126.89 78.5183 126.847 78.4606C126.804 78.4029 126.784 78.3176 126.784 78.2021V78.1394H126.09V78.3552C126.09 78.6815 126.17 78.9249 126.333 79.088C126.496 79.2511 126.714 79.3314 126.993 79.3314C127.108 79.3314 127.216 79.3114 127.321 79.2687Z" fill="white"/>
<path d="M122.518 79.2687C122.624 79.226 122.756 79.1608 122.919 79.0704C123.04 79.0102 123.138 78.9625 123.213 78.9299C123.288 78.8973 123.361 78.8797 123.434 78.8797C123.529 78.8797 123.602 78.9073 123.647 78.965C123.692 79.0228 123.714 79.1056 123.714 79.2135V79.2762H124.437V79.1231C124.437 78.7919 124.349 78.5359 124.176 78.3552C124 78.1745 123.767 78.0842 123.471 78.0842C123.356 78.0842 123.243 78.1093 123.133 78.1569C123.022 78.2046 122.889 78.2724 122.739 78.3552C122.631 78.4154 122.536 78.4631 122.456 78.4957C122.375 78.5284 122.303 78.5459 122.242 78.5459C122.152 78.5459 122.087 78.5183 122.044 78.4606C122.002 78.4029 121.982 78.3176 121.982 78.2021V78.1394H121.287V78.3552C121.287 78.6815 121.367 78.9249 121.53 79.088C121.693 79.2511 121.911 79.3314 122.19 79.3314C122.305 79.3314 122.413 79.3114 122.518 79.2687Z" fill="white"/>
<path d="M117.714 79.2687C117.819 79.226 117.952 79.1608 118.115 79.0704C118.235 79.0102 118.333 78.9625 118.408 78.9299C118.483 78.8973 118.556 78.8797 118.629 78.8797C118.724 78.8797 118.797 78.9073 118.842 78.965C118.887 79.0228 118.91 79.1056 118.91 79.2135V79.2762H119.632V79.1231C119.632 78.7919 119.544 78.5359 119.371 78.3552C119.196 78.1745 118.962 78.0842 118.666 78.0842C118.551 78.0842 118.438 78.1093 118.328 78.1569C118.218 78.2046 118.085 78.2724 117.934 78.3552C117.826 78.4154 117.731 78.4631 117.651 78.4957C117.571 78.5284 117.498 78.5459 117.438 78.5459C117.347 78.5459 117.282 78.5183 117.24 78.4606C117.197 78.4029 117.177 78.3176 117.177 78.2021V78.1394H116.482V78.3552C116.482 78.6815 116.563 78.9249 116.726 79.088C116.889 79.2511 117.107 79.3314 117.385 79.3314C117.5 79.3314 117.608 79.3114 117.714 79.2687Z" fill="white"/>
<path d="M112.911 79.2687C113.016 79.226 113.149 79.1608 113.312 79.0704C113.432 79.0102 113.53 78.9625 113.605 78.9299C113.681 78.8973 113.753 78.8797 113.826 78.8797C113.921 78.8797 113.994 78.9073 114.039 78.965C114.084 79.0228 114.107 79.1056 114.107 79.2135V79.2762H114.829V79.1231C114.829 78.7919 114.741 78.5359 114.568 78.3552C114.393 78.1745 114.16 78.0842 113.864 78.0842C113.748 78.0842 113.636 78.1093 113.525 78.1569C113.415 78.2046 113.282 78.2724 113.132 78.3552C113.024 78.4154 112.928 78.4631 112.848 78.4957C112.768 78.5284 112.695 78.5459 112.635 78.5459C112.545 78.5459 112.48 78.5183 112.437 78.4606C112.394 78.4029 112.374 78.3176 112.374 78.2021V78.1394H111.68V78.3552C111.68 78.6815 111.76 78.9249 111.923 79.088C112.086 79.2511 112.304 79.3314 112.582 79.3314C112.698 79.3314 112.806 79.3114 112.911 79.2687Z" fill="white"/>
<path d="M110.688 77.5521H109.577L105.903 85.4122H107.032L110.688 77.5521Z" fill="white"/>
<path d="M98.1214 77.5521H97.0106L100.677 85.4122H101.795L98.1214 77.5521Z" fill="white"/>
<path d="M96.2695 84.89H91.8187V85.8386H96.2695V84.89Z" fill="white"/>
<path d="M87.4417 77.5521H86.3309L89.9969 85.4122H91.1152L87.4417 77.5521Z" fill="white"/>
<path d="M70.1543 77.5521H69.0435L65.3699 85.4122H66.4983L70.1543 77.5521Z" fill="white"/>
<path d="M139.329 88.3933H138.219L141.885 96.2534H143.003L139.329 88.3933Z" fill="white"/>
<path d="M117.484 95.7318H113.034V96.6804H117.484V95.7318Z" fill="white"/>
<path d="M108.655 88.3933H107.544L111.21 96.2534H112.328L108.655 88.3933Z" fill="white"/>
<path d="M87.3672 88.3933H86.2564L82.5828 96.2534H83.7112L87.3672 88.3933Z" fill="white"/>
<path d="M62.804 88.3933H61.6932L65.3592 96.2534H66.4775L62.804 88.3933Z" fill="white"/>
<path d="M145.531 99.1897H144.538V107.14H145.531V99.1897Z" fill="white"/>
<path d="M126.376 106.573H121.925V107.522H126.376V106.573Z" fill="white"/>
<path d="M117.547 99.2351H116.436L120.102 107.095H121.221L117.547 99.2351Z" fill="white"/>
<path d="M82.6855 99.1897H81.6926V107.14H82.6855V99.1897Z" fill="white"/>
<path d="M79.5254 106.573H75.0745V107.522H79.5254V106.573Z" fill="white"/>
<path d="M70.6976 99.2351H69.5867L73.2527 107.095H74.3711L70.6976 99.2351Z" fill="white"/>
<path d="M147.326 110.076H146.216L149.882 117.936H151L147.326 110.076Z" fill="white"/>
<path d="M133.48 117.415H129.03V118.363H133.48V117.415Z" fill="white"/>
<path d="M124.651 110.076H123.54L127.206 117.936H128.324L124.651 110.076Z" fill="white"/>
<path d="M79.3701 110.076H78.2593L74.5858 117.936H75.7141L79.3701 110.076Z" fill="white"/>
<path d="M149.531 120.875H148.538V128.826H149.531V120.875Z" fill="white"/>
<path d="M142.372 128.256H137.921V129.204H142.372V128.256Z" fill="white"/>
<path d="M133.543 120.918H132.432L136.098 128.778H137.217L133.543 120.918Z" fill="white"/>
<path d="M126.67 120.875H125.677V128.826H126.67V120.875Z" fill="white"/>
<path d="M76.0869 120.918H74.9761L71.3026 128.778H72.4309L76.0869 120.918Z" fill="white"/>
<path d="M146.586 135.049H141.892V135.981H146.586V135.049ZM144.725 133.215H143.742V137.85H144.725V133.215Z" fill="white"/>
<path d="M127.748 131.714H126.755V139.665H127.748V131.714Z" fill="white"/>
<path d="M71.5811 131.714H70.5881V139.665H71.5811V131.714Z" fill="white"/>
<path d="M129.538 142.555H128.545V150.506H129.538V142.555Z" fill="white"/>
<path d="M125.601 144.887H124.174V146.277H125.601V144.887ZM125.601 148.031H124.174V149.422H125.601V148.031Z" fill="#FF943F"/>
<path d="M121.467 144.887H120.04V146.277H121.467V144.887ZM121.467 148.031H120.04V149.421H121.467V148.031Z" fill="#FF943F"/>
<path d="M117.331 144.887H115.904V146.277H117.331V144.887ZM117.331 148.031H115.904V149.421H117.331V148.031Z" fill="#FF943F"/>
<path d="M113.199 144.887H111.772V146.277H113.199V144.887ZM113.199 148.031H111.772V149.421H113.199V148.031Z" fill="#FF943F"/>
<path d="M109.062 144.887H107.636V146.277H109.062V144.887ZM109.062 148.031H107.636V149.421H109.062V148.031Z" fill="#FF943F"/>
<path d="M104.927 144.887H103.5V146.277H104.927V144.887ZM104.927 148.031H103.5V149.421H104.927V148.031Z" fill="#FF943F"/>
<path d="M100.793 144.887H99.3662V146.277H100.793V144.887ZM100.793 148.031H99.3662V149.421H100.793V148.031Z" fill="#FF943F"/>
<path d="M96.6572 144.887H95.2304V146.277H96.6572V144.887ZM96.6572 148.031H95.2304V149.421H96.6572V148.031Z" fill="#FF943F"/>
<path d="M92.5273 144.887H91.1006V146.277H92.5273V144.887ZM92.5273 148.031H91.1006V149.421H92.5273V148.031Z" fill="#FF943F"/>
<path d="M88.3916 144.887H86.9648V146.277H88.3916V144.887ZM88.3916 148.031H86.9648V149.421H88.3916V148.031Z" fill="#FF943F"/>
<path d="M84.2578 144.887H82.831V146.277H84.2578V144.887ZM84.2578 148.031H82.831V149.421H84.2578V148.031Z" fill="#FF943F"/>
<path d="M80.1201 144.887H78.6933V146.277H80.1201V144.887ZM80.1201 148.031H78.6933V149.421H80.1201V148.031Z" fill="#FF943F"/>
<path d="M75.9854 144.887H74.5586V146.277H75.9854V144.887ZM75.9854 148.031H74.5586V149.421H75.9854V148.031Z" fill="#FF943F"/>
<path d="M71.8535 144.887H70.4267V146.277H71.8535V144.887ZM71.8535 148.031H70.4267V149.421H71.8535V148.031Z" fill="#FF943F"/>
<path d="M68.999 142.601H67.8882L64.2147 150.461H65.3431L68.999 142.601Z" fill="white"/>
<path d="M129.538 153.397H128.545V161.348H129.538V153.397Z" fill="white"/>
<path d="M65.3701 153.397H64.3771V161.348H65.3701V153.397Z" fill="white"/>
<path d="M129.538 164.238H128.545V172.189H129.538V164.238Z" fill="white"/>
<path d="M62.9502 164.284H61.8394L58.1659 172.144H59.2942L62.9502 164.284Z" fill="white"/>
<path d="M45.6963 24.6089H41.2454V25.5575H45.6963V24.6089Z" fill="white"/>
<path d="M40.0879 24.6089H35.637V25.5575H40.0879V24.6089Z" fill="white"/>
<path d="M34.4814 24.6089H30.0306V25.5575H34.4814V24.6089Z" fill="white"/>
<path d="M49.7295 28.893H45.0354V29.8241H49.7295V28.893ZM47.8714 27.0585H46.8885V31.6937H47.8714V27.0585Z" fill="white"/>
<path d="M31.9453 28.893H27.2512V29.8241H31.9453V28.893ZM30.0872 27.0585H29.1043V31.6937H30.0872V27.0585Z" fill="white"/>
<path d="M52.6719 33.892H51.6789V41.8424H52.6719V33.892Z" fill="white"/>
<path d="M24.4961 33.892H23.5031V41.8424H24.4961V33.892Z" fill="white"/>
<path d="M49.7295 48.0659H45.0354V48.997H49.7295V48.0659ZM47.8714 46.2314H46.8885V50.8666H47.8714V46.2314Z" fill="white"/>
<path d="M43.9062 52.1142H39.4554V53.0628H43.9062V52.1142Z" fill="white"/>
<path d="M38.3037 52.1142H33.8529V53.0628H38.3037V52.1142Z" fill="white"/>
<path d="M32.7314 48.0659H28.0374V48.997H32.7314V48.0659ZM30.8734 46.2314H29.8904V50.8666H30.8734V46.2314Z" fill="white"/>
<path d="M40.6758 55.575H39.6828V63.5254H40.6758V55.575Z" fill="white"/>
<path d="M40.6758 66.4162H39.6828V74.3666H40.6758V66.4162Z" fill="white"/>
<path d="M40.6758 77.258H39.6828V85.2084H40.6758V77.258Z" fill="white"/>
<path d="M40.6758 88.099H39.6828V96.0494H40.6758V88.099Z" fill="white"/>
<path d="M40.6758 98.9407H39.6828V106.891H40.6758V98.9407Z" fill="white"/>
<path d="M49.0244 115.256H47.5976V116.646H49.0244V115.256Z" fill="white"/>
<path d="M44.8984 115.256H43.4717V116.646H44.8984V115.256Z" fill="white"/>
<path d="M40.5322 109.782H39.5392V117.732H40.5322V109.782Z" fill="white"/>
<path d="M37.3721 117.163H32.9212V118.112H37.3721V117.163Z" fill="white"/>
<path d="M52.8758 126.611C53.1366 125.949 53.2695 125.269 53.2695 124.569C53.2695 124.104 53.2119 123.645 53.099 123.191C52.9837 122.737 52.8107 122.295 52.58 121.868C52.3493 121.442 52.0584 121.04 51.7099 120.666H50.6366C50.9802 121.045 51.2635 121.444 51.4842 121.863C51.7073 122.282 51.8703 122.717 51.9757 123.163C52.081 123.613 52.1336 124.077 52.1336 124.559C52.1336 125.246 52.0108 125.921 51.7625 126.586C51.5168 127.251 51.1406 127.899 50.6341 128.524H51.7074C52.2239 127.909 52.6151 127.272 52.8758 126.609V126.611Z" fill="white"/>
<path d="M33.9502 120.666H32.8394L29.1658 128.526H30.2942L33.9502 120.666Z" fill="white"/>
<path d="M50.2529 131.51H49.1421L45.4686 139.37H46.597L50.2529 131.51Z" fill="white"/>
<path d="M44.7656 138.846H40.3148V139.794H44.7656V138.846Z" fill="white"/>
<path d="M39.1602 138.846H34.7093V139.794H39.1602V138.846Z" fill="white"/>
<path d="M30.3304 131.51H29.2196L32.8856 139.37H34.0039L30.3304 131.51Z" fill="white"/>
<path d="M40.6758 142.304H39.6828V150.254H40.6758V142.304Z" fill="white"/>
<path d="M40.6758 153.145H39.6828V161.096H40.6758V153.145Z" fill="white"/>
<path d="M40.6758 163.99H39.6828V171.94H40.6758V163.99Z" fill="white"/>
<path d="M40.6758 174.831H39.6828V182.781H40.6758V174.831Z" fill="white"/>
</g>
<defs>
<clipPath id="clip0_6659_23500">
<rect width="175" height="175" fill="white" transform="matrix(-1 0 0 1 175 0)"/>
</clipPath>
</defs>
</svg>
