<svg width="338" height="148" viewBox="0 0 338 148" fill="none" xmlns="http://www.w3.org/2000/svg">
<rect width="338" height="148" rx="12" fill="#3B2E29"/>
<g clip-path="url(#clip0_6364_2435)">
<path d="M243.216 17.6389H246.775V18.3948H243.216V17.6389Z" fill="white"/>
<path d="M241.022 26.5938C240.901 26.5258 240.809 26.4338 240.747 26.3138C240.685 26.1938 240.653 26.0618 240.653 25.9179V24.608C240.653 24.4681 240.633 24.3521 240.59 24.2581C240.548 24.1641 240.488 24.0881 240.406 24.0281C240.324 23.9681 240.214 23.9261 240.073 23.9021V23.2402C240.232 23.2202 240.352 23.1842 240.434 23.1322C240.516 23.0803 240.572 23.0083 240.605 22.9163C240.637 22.8243 240.651 22.7003 240.651 22.5423V21.2105C240.651 20.9845 240.721 20.7986 240.863 20.6526C241.006 20.5066 241.198 20.4326 241.445 20.4326H242.621V21.0945H241.85C241.719 21.0945 241.627 21.1225 241.571 21.1765C241.515 21.2305 241.489 21.3225 241.489 21.4465V22.6343C241.489 22.8543 241.467 23.0203 241.421 23.1302C241.374 23.2402 241.28 23.3382 241.136 23.4262C240.991 23.5122 240.755 23.6162 240.428 23.7362V23.5062C240.745 23.5682 240.979 23.6402 241.128 23.7182C241.276 23.7982 241.374 23.8961 241.421 24.0141C241.467 24.1321 241.489 24.3081 241.489 24.544V25.6819C241.489 25.8059 241.517 25.8959 241.571 25.9519C241.625 26.0078 241.719 26.0338 241.85 26.0338H242.621V26.6957H241.445C241.28 26.6957 241.14 26.6618 241.02 26.5958L241.022 26.5938Z" fill="white"/>
<path d="M243.635 26.2778H247.193V27.0337H243.635V26.2778Z" fill="white"/>
<path d="M249.806 20.5324C249.926 20.6004 250.018 20.6924 250.081 20.8124C250.143 20.9324 250.175 21.0643 250.175 21.2083V22.5181C250.175 22.6581 250.195 22.7741 250.237 22.8681C250.277 22.9621 250.339 23.0381 250.421 23.0981C250.504 23.158 250.614 23.2 250.754 23.224V23.8859C250.596 23.9059 250.476 23.9419 250.393 23.9939C250.311 24.0459 250.255 24.1179 250.223 24.2099C250.191 24.3019 250.177 24.4259 250.177 24.5838V25.9157C250.177 26.1416 250.107 26.3276 249.964 26.4736C249.822 26.6196 249.63 26.6936 249.383 26.6936H248.206V26.0316H248.978C249.108 26.0316 249.2 26.0036 249.257 25.9497C249.313 25.8937 249.339 25.8037 249.339 25.6797V24.4919C249.339 24.2719 249.361 24.1059 249.407 23.9959C249.453 23.8859 249.547 23.788 249.692 23.7C249.836 23.614 250.073 23.51 250.399 23.39V23.62C250.083 23.558 249.848 23.486 249.7 23.408C249.551 23.328 249.453 23.23 249.407 23.112C249.361 22.9941 249.339 22.8181 249.339 22.5821V21.4443C249.339 21.3203 249.311 21.2303 249.257 21.1743C249.2 21.1183 249.108 21.0923 248.978 21.0923H248.206V20.4304H249.383C249.545 20.4304 249.688 20.4644 249.808 20.5304L249.806 20.5324Z" fill="white"/>
<path d="M245.497 29.0354H246.291V35.3705H245.497V29.0354Z" fill="white"/>
<path d="M217.637 43.5554H221.195V44.3113H217.637V43.5554Z" fill="white"/>
<path d="M222.12 43.5554H225.679V44.3113H222.12V43.5554Z" fill="white"/>
<path d="M226.601 43.5554H230.159V44.3113H226.601V43.5554Z" fill="white"/>
<path d="M231.084 43.5554H234.643V44.3113H231.084V43.5554Z" fill="white"/>
<path d="M235.564 43.5554H239.123V44.3113H235.564V43.5554Z" fill="white"/>
<path d="M240.048 43.5554H243.607V44.3113H240.048V43.5554Z" fill="white"/>
<path d="M245.345 37.6741H246.139V44.0092H245.345V37.6741Z" fill="white"/>
<path d="M247.871 43.5554H251.43V44.3113H247.871V43.5554Z" fill="white"/>
<path d="M252.354 43.5554H255.912V44.3113H252.354V43.5554Z" fill="white"/>
<path d="M256.837 43.5554H260.396V44.3113H256.837V43.5554Z" fill="white"/>
<path d="M261.317 43.5554H264.876V44.3113H261.317V43.5554Z" fill="white"/>
<path d="M265.801 43.5554H269.359V44.3113H265.801V43.5554Z" fill="white"/>
<path d="M270.281 43.5554H273.84V44.3113H270.281V43.5554Z" fill="white"/>
<path d="M274.765 43.5554H278.323V44.3113H274.765V43.5554Z" fill="white"/>
<path d="M213.82 46.3489H214.708L211.777 52.612H210.883L213.82 46.3489Z" fill="white"/>
<path d="M221.692 52.1941H225.251V52.95H221.692V52.1941Z" fill="white"/>
<path d="M226.176 52.1941H229.734V52.95H226.176V52.1941Z" fill="white"/>
<path d="M230.656 52.1941H234.215V52.95H230.656V52.1941Z" fill="white"/>
<path d="M235.14 52.1941H238.698V52.95H235.14V52.1941Z" fill="white"/>
<path d="M239.623 52.1941H243.182V52.95H239.623V52.1941Z" fill="white"/>
<path d="M244.104 52.1941H247.662V52.95H244.104V52.1941Z" fill="white"/>
<path d="M248.587 52.1941H252.146V52.95H248.587V52.1941Z" fill="white"/>
<path d="M253.067 52.1941H256.626V52.95H253.067V52.1941Z" fill="white"/>
<path d="M257.551 52.1941H261.109V52.95H257.551V52.1941Z" fill="white"/>
<path d="M262.033 52.1941H265.592V52.95H262.033V52.1941Z" fill="white"/>
<path d="M278.856 46.3489H279.745L282.682 52.612H281.78L278.856 46.3489Z" fill="white"/>
<path d="M208.859 54.9517H209.653V61.2868H208.859V54.9517Z" fill="white"/>
<path d="M220.357 54.9878H221.245L218.314 61.2509H217.42L220.357 54.9878Z" fill="white"/>
<path d="M269.352 54.9878H270.24L273.177 61.2509H272.275L269.352 54.9878Z" fill="white"/>
<path d="M284.031 54.9517H284.825V61.2868H284.031V54.9517Z" fill="white"/>
<path d="M208.859 63.5906H209.653V69.9257H208.859V63.5906Z" fill="white"/>
<path d="M215.399 63.5906H216.193V69.9257H215.399V63.5906Z" fill="white"/>
<path d="M225.244 68.8338C224.893 68.6158 224.618 68.3078 224.422 67.9079C224.225 67.508 224.125 67.054 224.125 66.5401C224.125 66.0262 224.223 65.5702 224.422 65.1723C224.618 64.7743 224.893 64.4664 225.244 64.2464C225.595 64.0284 226 63.9185 226.457 63.9185C226.914 63.9185 227.321 64.0284 227.676 64.2464C228.033 64.4644 228.309 64.7723 228.506 65.1723C228.702 65.5702 228.802 66.0262 228.802 66.5401C228.802 67.054 228.704 67.51 228.506 67.9079C228.309 68.3058 228.033 68.6138 227.676 68.8338C227.319 69.0517 226.914 69.1617 226.457 69.1617C226 69.1617 225.595 69.0517 225.244 68.8338ZM227.172 68.0939C227.375 67.9519 227.529 67.7479 227.638 67.482C227.746 67.216 227.8 66.9 227.8 66.5361C227.8 66.1721 227.746 65.8642 227.638 65.6002C227.529 65.3363 227.375 65.1343 227.172 64.9923C226.97 64.8503 226.731 64.7803 226.459 64.7803C226.186 64.7803 225.955 64.8503 225.755 64.9923C225.554 65.1343 225.4 65.3363 225.29 65.6002C225.18 65.8642 225.123 66.1761 225.123 66.5361C225.123 66.896 225.18 67.216 225.29 67.482C225.4 67.7479 225.557 67.9519 225.755 68.0939C225.955 68.2359 226.19 68.3059 226.459 68.3059C226.727 68.3059 226.972 68.2359 227.172 68.0939Z" fill="white"/>
<path d="M256.035 68.8338C255.684 68.6158 255.409 68.3078 255.213 67.9079C255.016 67.51 254.916 67.054 254.916 66.5401C254.916 66.0262 255.014 65.5702 255.213 65.1723C255.409 64.7743 255.684 64.4664 256.035 64.2464C256.386 64.0284 256.791 63.9185 257.248 63.9185C257.705 63.9185 258.112 64.0284 258.467 64.2464C258.824 64.4644 259.1 64.7723 259.297 65.1723C259.493 65.5702 259.593 66.0262 259.593 66.5401C259.593 67.054 259.495 67.51 259.297 67.9079C259.098 68.3058 258.824 68.6138 258.467 68.8338C258.11 69.0537 257.705 69.1617 257.248 69.1617C256.791 69.1617 256.386 69.0517 256.035 68.8338ZM257.961 68.0939C258.164 67.9519 258.318 67.7479 258.427 67.482C258.535 67.216 258.589 66.9 258.589 66.5361C258.589 66.1721 258.535 65.8642 258.427 65.6002C258.318 65.3363 258.164 65.1343 257.961 64.9923C257.759 64.8503 257.52 64.7803 257.248 64.7803C256.975 64.7803 256.744 64.8503 256.544 64.9923C256.344 65.1343 256.189 65.3363 256.079 65.6002C255.969 65.8642 255.912 66.1761 255.912 66.5361C255.912 66.896 255.969 67.216 256.079 67.482C256.189 67.7479 256.346 67.9519 256.544 68.0939C256.744 68.2359 256.979 68.3059 257.248 68.3059C257.516 68.3059 257.761 68.2359 257.961 68.0939Z" fill="white"/>
<path d="M273.927 63.5906H274.721V69.9257H273.927V63.5906Z" fill="white"/>
<path d="M283.664 63.5906H284.458V69.9257H283.664V63.5906Z" fill="white"/>
<path d="M208.859 72.2292H209.653V78.5644H208.859V72.2292Z" fill="white"/>
<path d="M217.334 72.2654H218.222L221.159 78.5285H220.257L217.334 72.2654Z" fill="white"/>
<path d="M221.723 78.1106H225.281V78.8665H221.723V78.1106Z" fill="white"/>
<path d="M226.204 78.1106H229.763V78.8665H226.204V78.1106Z" fill="white"/>
<path d="M230.687 78.1106H234.245V78.8665H230.687V78.1106Z" fill="white"/>
<path d="M235.168 78.1106H238.727V78.8665H235.168V78.1106Z" fill="white"/>
<path d="M239.65 78.1106H243.209V78.8665H239.65V78.1106Z" fill="white"/>
<path d="M244.134 78.1106H247.692V78.8665H244.134V78.1106Z" fill="white"/>
<path d="M248.614 78.1106H252.173V78.8665H248.614V78.1106Z" fill="white"/>
<path d="M253.098 78.1106H256.656V78.8665H253.098V78.1106Z" fill="white"/>
<path d="M257.578 78.1106H261.137V78.8665H257.578V78.1106Z" fill="white"/>
<path d="M262.062 78.1106H265.62V78.8665H262.062V78.1106Z" fill="white"/>
<path d="M272.319 72.2654H273.207L270.276 78.5285H269.382L272.319 72.2654Z" fill="white"/>
<path d="M284.206 72.2292H285V78.5644H284.206V72.2292Z" fill="white"/>
<path d="M208.859 80.8682H209.653V87.2033H208.859V80.8682Z" fill="white"/>
<path d="M240.756 80.9041H242.741V81.58H241.6V86.4893H242.741V87.1652H240.756V80.9021V80.9041Z" fill="white"/>
<path d="M245.835 87.1674H243.851V86.4915H244.991V81.5822H243.851V80.9062H245.835V87.1694V87.1674Z" fill="white"/>
<path d="M283.34 80.8682H284.134V87.2033H283.34V80.8682Z" fill="white"/>
<path d="M210.794 89.543H211.682L214.619 95.8061H213.717L210.794 89.543Z" fill="white"/>
<path d="M215.183 95.3882H218.741V96.1441H215.183V95.3882Z" fill="white"/>
<path d="M219.666 95.3882H223.225V96.1441H219.666V95.3882Z" fill="white"/>
<path d="M224.146 95.3882H227.705V96.1441H224.146V95.3882Z" fill="white"/>
<path d="M228.63 95.3882H232.189V96.1441H228.63V95.3882Z" fill="white"/>
<path d="M233.11 95.3882H236.669V96.1441H233.11V95.3882Z" fill="white"/>
<path d="M237.594 95.3882H241.152V96.1441H237.594V95.3882Z" fill="white"/>
<path d="M242.076 95.3882H245.635V96.1441H242.076V95.3882Z" fill="white"/>
<path d="M246.558 95.3882H250.116V96.1441H246.558V95.3882Z" fill="white"/>
<path d="M251.041 95.3882H254.6V96.1441H251.041V95.3882Z" fill="white"/>
<path d="M255.521 95.3882H259.08V96.1441H255.521V95.3882Z" fill="white"/>
<path d="M260.005 95.3882H263.564V96.1441H260.005V95.3882Z" fill="white"/>
<path d="M264.487 95.3882H268.046V96.1441H264.487V95.3882Z" fill="white"/>
<path d="M268.969 95.3882H272.527V96.1441H268.969V95.3882Z" fill="white"/>
<path d="M273.451 95.3882H277.01V96.1441H273.451V95.3882Z" fill="white"/>
<path d="M280.51 89.543H281.399L278.467 95.8061H277.573L280.51 89.543Z" fill="white"/>
<path d="M224.032 104.027H227.591V104.783H224.032V104.027Z" fill="white"/>
<path d="M228.514 104.027H232.072V104.783H228.514V104.027Z" fill="white"/>
<path d="M232.996 104.027H236.555V104.783H232.996V104.027Z" fill="white"/>
<path d="M237.478 104.027H241.036V104.783H237.478V104.027Z" fill="white"/>
<path d="M241.96 104.027H245.519V104.783H241.96V104.027Z" fill="white"/>
<path d="M246.443 104.027H250.002V104.783H246.443V104.027Z" fill="white"/>
<path d="M250.924 104.027H254.483V104.783H250.924V104.027Z" fill="white"/>
<path d="M255.407 104.027H258.966V104.783H255.407V104.027Z" fill="white"/>
<path d="M259.888 104.027H263.446V104.783H259.888V104.027Z" fill="white"/>
<path d="M223.411 106.821H224.299L221.368 113.084H220.474L223.411 106.821Z" fill="white"/>
<path d="M266.009 106.821H266.897L269.834 113.084H268.932L266.009 106.821Z" fill="white"/>
<path d="M220.214 115.459H221.102L218.171 121.723H217.276L220.214 115.459Z" fill="white"/>
<path d="M269.207 115.459H270.095L273.032 121.723H272.13L269.207 115.459Z" fill="white"/>
<path d="M217.015 124.098H217.903L214.972 130.361H214.078L217.015 124.098Z" fill="white"/>
<path d="M272.404 124.098H273.292L276.23 130.361H275.327L272.404 124.098Z" fill="white"/>
<path d="M213.82 132.737H214.708L211.777 139H210.883L213.82 132.737Z" fill="white"/>
<path d="M278.799 132.737H279.687L282.624 139H281.722L278.799 132.737Z" fill="white"/>
<path d="M95.7012 9H99.2599V9.7559H95.7012V9Z" fill="#FF943F"/>
<path d="M100.185 9H103.743V9.7559H100.185V9Z" fill="#FF943F"/>
<path d="M104.667 9H108.226V9.7559H104.667V9Z" fill="#FF943F"/>
<path d="M109.148 9H112.707V9.7559H109.148V9Z" fill="#FF943F"/>
<path d="M113.631 9H117.19V9.7559H113.631V9Z" fill="#FF943F"/>
<path d="M118.112 9H121.671V9.7559H118.112V9Z" fill="#FF943F"/>
<path d="M122.595 9H126.153V9.7559H122.595V9Z" fill="#FF943F"/>
<path d="M127.078 9H130.637V9.7559H127.078V9Z" fill="#FF943F"/>
<path d="M131.559 9H135.117V9.7559H131.559V9Z" fill="#FF943F"/>
<path d="M136.042 9H139.601V9.7559H136.042V9Z" fill="#FF943F"/>
<path d="M91.8835 11.7937H92.7716L89.8405 18.0568H88.9463L91.8835 11.7937Z" fill="#FF943F"/>
<path d="M140.878 11.7937H141.766L144.703 18.0568H143.801L140.878 11.7937Z" fill="#FF943F"/>
<path d="M86.9258 20.3965H87.7197V26.7316H86.9258V20.3965Z" fill="#FF943F"/>
<path d="M95.8174 22.2102H99.5706V22.9521H95.8174V22.2102ZM95.8174 23.894H99.5706V24.6359H95.8174V23.894Z" fill="#FF943F"/>
<path d="M100.445 22.2102H104.198V22.9521H100.445V22.2102ZM100.445 23.894H104.198V24.6359H100.445V23.894Z" fill="#FF943F"/>
<path d="M105.07 22.2102H108.823V22.9521H105.07V22.2102ZM105.07 23.894H108.823V24.6359H105.07V23.894Z" fill="#FF943F"/>
<path d="M109.697 22.2102H113.45V22.9521H109.697V22.2102ZM109.697 23.894H113.45V24.6359H109.697V23.894Z" fill="#FF943F"/>
<path d="M114.323 22.2102H118.076V22.9521H114.323V22.2102ZM114.323 23.894H118.076V24.6359H114.323V23.894Z" fill="#FF943F"/>
<path d="M118.95 22.2102H122.703V22.9521H118.95V22.2102ZM118.95 23.894H122.703V24.6359H118.95V23.894Z" fill="#FF943F"/>
<path d="M123.577 22.2102H127.33V22.9521H123.577V22.2102ZM123.577 23.894H127.33V24.6359H123.577V23.894Z" fill="#FF943F"/>
<path d="M128.203 22.2102H131.956V22.9521H128.203V22.2102ZM128.203 23.894H131.956V24.6359H128.203V23.894Z" fill="#FF943F"/>
<path d="M132.83 22.2102H136.583V22.9521H132.83V22.2102ZM132.83 23.894H136.583V24.6359H132.83V23.894Z" fill="#FF943F"/>
<path d="M144.695 20.3965H145.489V26.7316H144.695V20.3965Z" fill="#FF943F"/>
<path d="M86.9258 29.0352H87.7197V35.3703H86.9258V29.0352Z" fill="#FF943F"/>
<path d="M95.8174 30.8489H99.5706V31.5908H95.8174V30.8489ZM95.8174 32.5326H99.5706V33.2745H95.8174V32.5326Z" fill="#FF943F"/>
<path d="M100.445 30.8489H104.198V31.5908H100.445V30.8489ZM100.445 32.5326H104.198V33.2745H100.445V32.5326Z" fill="#FF943F"/>
<path d="M105.07 30.8489H108.823V31.5908H105.07V30.8489ZM105.07 32.5326H108.823V33.2745H105.07V32.5326Z" fill="#FF943F"/>
<path d="M109.697 30.8489H113.45V31.5908H109.697V30.8489ZM109.697 32.5326H113.45V33.2745H109.697V32.5326Z" fill="#FF943F"/>
<path d="M114.323 30.8489H118.076V31.5908H114.323V30.8489ZM114.323 32.5326H118.076V33.2745H114.323V32.5326Z" fill="#FF943F"/>
<path d="M118.95 30.8489H122.703V31.5908H118.95V30.8489ZM118.95 32.5326H122.703V33.2745H118.95V32.5326Z" fill="#FF943F"/>
<path d="M123.577 30.8489H127.33V31.5908H123.577V30.8489ZM123.577 32.5326H127.33V33.2745H123.577V32.5326Z" fill="#FF943F"/>
<path d="M128.203 30.8489H131.956V31.5908H128.203V30.8489ZM128.203 32.5326H131.956V33.2745H128.203V32.5326Z" fill="#FF943F"/>
<path d="M132.83 30.8489H136.583V31.5908H132.83V30.8489ZM132.83 32.5326H136.583V33.2745H132.83V32.5326Z" fill="#FF943F"/>
<path d="M144.695 29.0352H145.489V35.3703H144.695V29.0352Z" fill="#FF943F"/>
<path d="M88.8604 37.71H89.7485L92.6857 43.9731H91.7835L88.8604 37.71Z" fill="#FF943F"/>
<path d="M96.3311 43.5552H99.8898V44.3111H96.3311V43.5552Z" fill="#FF943F"/>
<path d="M100.812 43.5552H104.37V44.3111H100.812V43.5552Z" fill="#FF943F"/>
<path d="M105.295 43.5552H108.854V44.3111H105.295V43.5552Z" fill="#FF943F"/>
<path d="M109.775 43.5552H113.334V44.3111H109.775V43.5552Z" fill="#FF943F"/>
<path d="M114.259 43.5552H117.817V44.3111H114.259V43.5552Z" fill="#FF943F"/>
<path d="M118.741 43.5552H122.3V44.3111H118.741V43.5552Z" fill="#FF943F"/>
<path d="M123.223 43.5552H126.781V44.3111H123.223V43.5552Z" fill="#FF943F"/>
<path d="M127.705 43.5552H131.264V44.3111H127.705V43.5552Z" fill="#FF943F"/>
<path d="M132.187 43.5552H135.745V44.3111H132.187V43.5552Z" fill="#FF943F"/>
<path d="M142.444 37.71H143.332L140.401 43.9731H139.507L142.444 37.71Z" fill="#FF943F"/>
<path d="M111.069 46.3489H111.957L109.026 52.612H108.132L111.069 46.3489Z" fill="#FF943F"/>
<path d="M107.871 54.9875H108.759L105.828 61.2507H104.934L107.871 54.9875Z" fill="#FF943F"/>
<path d="M155.682 54.7576H159.24V55.5135H155.682V54.7576Z" fill="#FF943F"/>
<path d="M160.163 54.7576H163.722V55.5135H160.163V54.7576Z" fill="#FF943F"/>
<path d="M164.646 54.7576H168.204V55.5135H164.646V54.7576Z" fill="#FF943F"/>
<path d="M169.127 54.7576H172.686V55.5135H169.127V54.7576Z" fill="#FF943F"/>
<path d="M173.609 54.7576H177.168V55.5135H173.609V54.7576Z" fill="#FF943F"/>
<path d="M178.093 54.7576H181.651V55.5135H178.093V54.7576Z" fill="#FF943F"/>
<path d="M182.573 54.7576H186.132V55.5135H182.573V54.7576Z" fill="#FF943F"/>
<path d="M151.862 57.5491H152.75L149.819 63.8122H148.925L151.862 57.5491Z" fill="#FF943F"/>
<path d="M188.067 57.5491H188.956L191.893 63.8122H190.991L188.067 57.5491Z" fill="#FF943F"/>
<path d="M146.904 66.1521H147.698V72.4872H146.904V66.1521Z" fill="#FF943F"/>
<path d="M155.796 67.9678H159.549V68.7097H155.796V67.9678ZM155.796 69.6515H159.549V70.3934H155.796V69.6515Z" fill="#FF943F"/>
<path d="M160.424 67.9678H164.177V68.7097H160.424V67.9678ZM160.424 69.6515H164.177V70.3934H160.424V69.6515Z" fill="#FF943F"/>
<path d="M165.049 67.9678H168.802V68.7097H165.049V67.9678ZM165.049 69.6515H168.802V70.3934H165.049V69.6515Z" fill="#FF943F"/>
<path d="M169.676 67.9678H173.429V68.7097H169.676V67.9678ZM169.676 69.6515H173.429V70.3934H169.676V69.6515Z" fill="#FF943F"/>
<path d="M174.304 67.9678H178.057V68.7097H174.304V67.9678ZM174.304 69.6515H178.057V70.3934H174.304V69.6515Z" fill="#FF943F"/>
<path d="M178.929 67.9678H182.682V68.7097H178.929V67.9678ZM178.929 69.6515H182.682V70.3934H178.929V69.6515Z" fill="#FF943F"/>
<path d="M190.796 66.1521H191.59V72.4872H190.796V66.1521Z" fill="#FF943F"/>
<path d="M148.839 74.8267H149.727L152.664 81.0898H151.762L148.839 74.8267Z" fill="#FF943F"/>
<path d="M156.31 80.6741H159.868V81.43H156.31V80.6741Z" fill="#FF943F"/>
<path d="M160.79 80.6741H164.349V81.43H160.79V80.6741Z" fill="#FF943F"/>
<path d="M165.273 80.6741H168.832V81.43H165.273V80.6741Z" fill="#FF943F"/>
<path d="M169.756 80.6741H173.315V81.43H169.756V80.6741Z" fill="#FF943F"/>
<path d="M174.237 80.6741H177.796V81.43H174.237V80.6741Z" fill="#FF943F"/>
<path d="M178.72 80.6741H182.278V81.43H178.72V80.6741Z" fill="#FF943F"/>
<path d="M188.975 74.8267H189.863L186.932 81.0898H186.038L188.975 74.8267Z" fill="#FF943F"/>
<path d="M190.802 77.8665H193.162V78.6583H190.802V77.8665Z" fill="#FF943F"/>
<path d="M194.771 77.8665H197.131V78.6583H194.771V77.8665Z" fill="#FF943F"/>
<path d="M198.741 77.8665H201.101V78.6583H198.741V77.8665Z" fill="#FF943F"/>
<path d="M29.333 68.8877H32.8917V69.6436H29.333V68.8877Z" fill="white"/>
<path d="M33.8135 68.8877H37.3722V69.6436H33.8135V68.8877Z" fill="white"/>
<path d="M38.2969 68.8877H41.8556V69.6436H38.2969V68.8877Z" fill="white"/>
<path d="M42.7773 68.8877H46.336V69.6436H42.7773V68.8877Z" fill="white"/>
<path d="M47.2607 68.8877H50.8194V69.6436H47.2607V68.8877Z" fill="white"/>
<path d="M51.7432 68.8877H55.3019V69.6436H51.7432V68.8877Z" fill="white"/>
<path d="M56.2246 68.8877H59.7833V69.6436H56.2246V68.8877Z" fill="white"/>
<path d="M60.708 68.8877H64.2667V69.6436H60.708V68.8877Z" fill="white"/>
<path d="M65.1885 68.8877H68.7472V69.6436H65.1885V68.8877Z" fill="white"/>
<path d="M69.6719 68.8877H73.2306V69.6436H69.6719V68.8877Z" fill="white"/>
<path d="M74.1543 68.8877H77.713V69.6436H74.1543V68.8877Z" fill="white"/>
<path d="M78.6357 68.8877H82.1944V69.6436H78.6357V68.8877Z" fill="white"/>
<path d="M83.1182 68.8877H86.6769V69.6436H83.1182V68.8877Z" fill="white"/>
<path d="M87.5996 68.8877H91.1583V69.6436H87.5996V68.8877Z" fill="white"/>
<path d="M92.082 68.8877H95.6407V69.6436H92.082V68.8877Z" fill="white"/>
<path d="M96.5654 68.8877H100.124V69.6436H96.5654V68.8877Z" fill="white"/>
<path d="M101.046 68.8877H104.605V69.6436H101.046V68.8877Z" fill="white"/>
<path d="M105.529 68.8877H109.088V69.6436H105.529V68.8877Z" fill="white"/>
<path d="M110.01 68.8877H113.568V69.6436H110.01V68.8877Z" fill="white"/>
<path d="M114.493 68.8877H118.052V69.6436H114.493V68.8877Z" fill="white"/>
<path d="M29 71.6814H29.8882L32.8254 77.9445H31.9231L29 71.6814Z" fill="white"/>
<path d="M40.0146 74.719H42.3744V75.5109H40.0146V74.719Z" fill="white"/>
<path d="M43.9844 74.719H46.3441V75.5109H43.9844V74.719Z" fill="white"/>
<path d="M47.9541 74.719H50.3139V75.5109H47.9541V74.719Z" fill="white"/>
<path d="M51.9238 74.719H54.2836V75.5109H51.9238V74.719Z" fill="white"/>
<path d="M55.8936 74.719H58.2533V75.5109H55.8936V74.719Z" fill="white"/>
<path d="M59.8633 74.719H62.2231V75.5109H59.8633V74.719Z" fill="white"/>
<path d="M63.833 74.719H66.1928V75.5109H63.833V74.719Z" fill="white"/>
<path d="M67.8027 74.719H70.1625V75.5109H67.8027V74.719Z" fill="white"/>
<path d="M71.7725 74.719H74.1322V75.5109H71.7725V74.719Z" fill="white"/>
<path d="M75.7422 74.719H78.102V75.5109H75.7422V74.719Z" fill="white"/>
<path d="M79.7119 74.719H82.0717V75.5109H79.7119V74.719Z" fill="white"/>
<path d="M83.6816 74.719H86.0414V75.5109H83.6816V74.719Z" fill="white"/>
<path d="M87.6514 74.719H90.0111V75.5109H87.6514V74.719Z" fill="white"/>
<path d="M91.6211 74.719H93.9809V75.5109H91.6211V74.719Z" fill="white"/>
<path d="M95.5908 74.719H97.9506V75.5109H95.5908V74.719Z" fill="white"/>
<path d="M99.5605 74.719H101.92V75.5109H99.5605V74.719Z" fill="white"/>
<path d="M103.53 74.719H105.89V75.5109H103.53V74.719Z" fill="white"/>
<path d="M107.5 74.719H109.86V75.5109H107.5V74.719Z" fill="white"/>
<path d="M111.47 74.719H113.829V75.5109H111.47V74.719Z" fill="white"/>
<path d="M117.841 71.6814H118.729L121.666 77.9445H120.764L117.841 71.6814Z" fill="white"/>
<path d="M33.3447 80.2842H34.1387V86.6193H33.3447V80.2842Z" fill="white"/>
<path d="M39.8848 80.2842H40.6787V86.6193H39.8848V80.2842Z" fill="white"/>
<path d="M119.965 80.2842H120.759V86.6193H119.965V80.2842Z" fill="white"/>
<path d="M126.502 80.2842H127.296V86.6193H126.502V80.2842Z" fill="white"/>
<path d="M35.2793 88.959H36.1675L39.1047 95.2221H38.2024L35.2793 88.959Z" fill="white"/>
<path d="M42.3027 88.959H43.1909L46.1281 95.2221H45.2259L42.3027 88.959Z" fill="white"/>
<path d="M63.4859 94.1663C63.1351 93.9483 62.8604 93.6404 62.6639 93.2404C62.4674 92.8405 62.3672 92.3865 62.3672 91.8726C62.3672 91.3587 62.4654 90.9027 62.6639 90.5048C62.8604 90.1069 63.1351 89.7989 63.4859 89.5789C63.8368 89.361 64.2418 89.251 64.6989 89.251C65.156 89.251 65.563 89.361 65.9179 89.5789C66.2747 89.7969 66.5514 90.1049 66.7479 90.5048C66.9444 90.9027 67.0446 91.3587 67.0446 91.8726C67.0446 92.3865 66.9464 92.8425 66.7479 93.2404C66.5514 93.6384 66.2747 93.9463 65.9179 94.1663C65.561 94.3843 65.156 94.4943 64.6989 94.4943C64.2418 94.4943 63.8368 94.3843 63.4859 94.1663ZM65.4126 93.4244C65.6151 93.2824 65.7695 93.0784 65.8778 92.8125C65.986 92.5465 66.0402 92.2306 66.0402 91.8666C66.0402 91.5027 65.986 91.1947 65.8778 90.9307C65.7695 90.6668 65.6151 90.4648 65.4126 90.3228C65.2101 90.1809 64.9716 90.1109 64.6989 90.1109C64.4262 90.1109 64.1957 90.1809 63.9952 90.3228C63.7947 90.4648 63.6403 90.6668 63.53 90.9307C63.4198 91.1947 63.3636 91.5067 63.3636 91.8666C63.3636 92.2266 63.4198 92.5465 63.53 92.8125C63.6403 93.0784 63.7967 93.2824 63.9952 93.4244C64.1957 93.5664 64.4302 93.6364 64.6989 93.6364C64.9675 93.6364 65.2121 93.5664 65.4126 93.4244Z" fill="white"/>
<path d="M70.9707 94.8042H74.5294V95.5601H70.9707V94.8042Z" fill="white"/>
<path d="M75.4531 94.8042H79.0118V95.5601H75.4531V94.8042Z" fill="white"/>
<path d="M79.9346 94.8042H83.4933V95.5601H79.9346V94.8042Z" fill="white"/>
<path d="M84.418 94.8042H87.9767V95.5601H84.418V94.8042Z" fill="white"/>
<path d="M88.8984 94.8042H92.4571V95.5601H88.8984V94.8042Z" fill="white"/>
<path d="M93.3818 94.8042H96.9405V95.5601H93.3818V94.8042Z" fill="white"/>
<path d="M97.8643 94.8042H101.423V95.5601H97.8643V94.8042Z" fill="white"/>
<path d="M102.346 94.8042H105.904V95.5601H102.346V94.8042Z" fill="white"/>
<path d="M107.55 94.1663C107.2 93.9483 106.925 93.6404 106.728 93.2404C106.532 92.8405 106.432 92.3865 106.432 91.8726C106.432 91.3587 106.53 90.9027 106.728 90.5048C106.925 90.1069 107.2 89.7989 107.55 89.5789C107.901 89.361 108.306 89.251 108.763 89.251C109.22 89.251 109.627 89.361 109.982 89.5789C110.339 89.7969 110.616 90.1049 110.812 90.5048C111.009 90.9027 111.109 91.3587 111.109 91.8726C111.109 92.3865 111.011 92.8425 110.812 93.2404C110.616 93.6384 110.337 93.9463 109.982 94.1663C109.625 94.3843 109.22 94.4943 108.763 94.4943C108.306 94.4943 107.901 94.3843 107.55 94.1663ZM109.477 93.4244C109.68 93.2824 109.834 93.0784 109.942 92.8125C110.05 92.5465 110.105 92.2306 110.105 91.8666C110.105 91.5027 110.05 91.1947 109.942 90.9307C109.834 90.6668 109.68 90.4648 109.477 90.3228C109.275 90.1809 109.036 90.1109 108.763 90.1109C108.491 90.1109 108.26 90.1809 108.06 90.3228C107.859 90.4648 107.705 90.6668 107.594 90.9307C107.484 91.1947 107.428 91.5067 107.428 91.8666C107.428 92.2266 107.484 92.5465 107.594 92.8125C107.705 93.0784 107.861 93.2824 108.06 93.4244C108.258 93.5664 108.495 93.6364 108.763 93.6364C109.032 93.6364 109.277 93.5664 109.477 93.4244Z" fill="white"/>
<path d="M120.98 88.959H121.869L124.806 95.2221H123.904L120.98 88.959Z" fill="white"/>
<path d="M128.004 88.959H128.892L131.829 95.2221H130.927L128.004 88.959Z" fill="white"/>
<path d="M39.7402 97.5618H40.5342V103.897H39.7402V97.5618Z" fill="white"/>
<path d="M46.2783 97.5618H47.0723V103.897H46.2783V97.5618Z" fill="white"/>
<path d="M70.7402 97.5977H71.6284L74.5656 103.861H73.6634L70.7402 97.5977Z" fill="white"/>
<path d="M75.1289 103.443H78.6876V104.199H75.1289V103.443Z" fill="white"/>
<path d="M80.4258 97.5618H81.2197V103.897H80.4258V97.5618Z" fill="white"/>
<path d="M82.9521 103.443H86.5109V104.199H82.9521V103.443Z" fill="white"/>
<path d="M88.249 97.5618H89.043V103.897H88.249V97.5618Z" fill="white"/>
<path d="M90.7754 103.443H94.3341V104.199H90.7754V103.443Z" fill="white"/>
<path d="M96.0742 97.5618H96.8682V103.897H96.0742V97.5618Z" fill="white"/>
<path d="M98.6006 103.443H102.159V104.199H98.6006V103.443Z" fill="white"/>
<path d="M103.897 97.5618H104.691V103.897H103.897V97.5618Z" fill="white"/>
<path d="M126.424 97.5618H127.218V103.897H126.424V97.5618Z" fill="white"/>
<path d="M132.962 97.5618H133.756V103.897H132.962V97.5618Z" fill="white"/>
<path d="M41.6748 106.237H42.563L45.5002 112.5H44.598L41.6748 106.237Z" fill="white"/>
<path d="M48.6963 106.237H49.5845L52.5216 112.5H51.6194L48.6963 106.237Z" fill="white"/>
<path d="M129.261 106.237H130.149L133.086 112.5H132.184L129.261 106.237Z" fill="white"/>
<path d="M136.282 106.237H137.17L140.108 112.5H139.205L136.282 106.237Z" fill="white"/>
<path d="M46.1338 114.839H46.9277V121.174H46.1338V114.839Z" fill="white"/>
<path d="M52.6738 114.839H53.4678V121.174H52.6738V114.839Z" fill="white"/>
<path d="M55.2002 120.72H58.7589V121.476H55.2002V120.72Z" fill="white"/>
<path d="M59.6826 120.72H63.2413V121.476H59.6826V120.72Z" fill="white"/>
<path d="M64.1641 120.72H67.7228V121.476H64.1641V120.72Z" fill="white"/>
<path d="M68.6465 120.72H72.2052V121.476H68.6465V120.72Z" fill="white"/>
<path d="M73.1279 120.72H76.6866V121.476H73.1279V120.72Z" fill="white"/>
<path d="M77.6113 120.72H81.17V121.476H77.6113V120.72Z" fill="white"/>
<path d="M82.0938 120.72H85.6525V121.476H82.0938V120.72Z" fill="white"/>
<path d="M86.5752 120.72H90.1339V121.476H86.5752V120.72Z" fill="white"/>
<path d="M91.0576 120.72H94.6163V121.476H91.0576V120.72Z" fill="white"/>
<path d="M95.5391 120.72H99.0978V121.476H95.5391V120.72Z" fill="white"/>
<path d="M100.021 120.72H103.58V121.476H100.021V120.72Z" fill="white"/>
<path d="M104.505 120.72H108.064V121.476H104.505V120.72Z" fill="white"/>
<path d="M108.985 120.72H112.544V121.476H108.985V120.72Z" fill="white"/>
<path d="M113.469 120.72H117.027V121.476H113.469V120.72Z" fill="white"/>
<path d="M117.949 120.72H121.508V121.476H117.949V120.72Z" fill="white"/>
<path d="M122.433 120.72H125.991V121.476H122.433V120.72Z" fill="white"/>
<path d="M126.915 120.72H130.474V121.476H126.915V120.72Z" fill="white"/>
<path d="M131.396 120.72H134.955V121.476H131.396V120.72Z" fill="white"/>
<path d="M136.695 114.839H137.489V121.174H136.695V114.839Z" fill="white"/>
<path d="M143.233 114.839H144.027V121.174H143.233V114.839Z" fill="white"/>
<path d="M48.0684 123.514H48.9565L51.8937 129.777H50.9915L48.0684 123.514Z" fill="white"/>
<path d="M52.457 129.359H56.0157V130.115H52.457V129.359Z" fill="white"/>
<path d="M56.9404 129.359H60.4991V130.115H56.9404V129.359Z" fill="white"/>
<path d="M61.4209 129.359H64.9796V130.115H61.4209V129.359Z" fill="white"/>
<path d="M65.9043 129.359H69.463V130.115H65.9043V129.359Z" fill="white"/>
<path d="M70.3848 129.359H73.9435V130.115H70.3848V129.359Z" fill="white"/>
<path d="M74.8682 129.359H78.4269V130.115H74.8682V129.359Z" fill="white"/>
<path d="M79.3516 129.359H82.9103V130.115H79.3516V129.359Z" fill="white"/>
<path d="M83.832 129.359H87.3907V130.115H83.832V129.359Z" fill="white"/>
<path d="M88.3154 129.359H91.8741V130.115H88.3154V129.359Z" fill="white"/>
<path d="M92.7959 129.359H96.3546V130.115H92.7959V129.359Z" fill="white"/>
<path d="M97.2793 129.359H100.838V130.115H97.2793V129.359Z" fill="white"/>
<path d="M101.762 129.359H105.32V130.115H101.762V129.359Z" fill="white"/>
<path d="M106.243 129.359H109.802V130.115H106.243V129.359Z" fill="white"/>
<path d="M110.726 129.359H114.284V130.115H110.726V129.359Z" fill="white"/>
<path d="M115.207 129.359H118.766V130.115H115.207V129.359Z" fill="white"/>
<path d="M119.689 129.359H123.248V130.115H119.689V129.359Z" fill="white"/>
<path d="M124.173 129.359H127.732V130.115H124.173V129.359Z" fill="white"/>
<path d="M128.653 129.359H132.212V130.115H128.653V129.359Z" fill="white"/>
<path d="M139.083 123.514H139.971L142.908 129.777H142.006L139.083 123.514Z" fill="white"/>
<path d="M146.106 123.514H146.995L149.932 129.777H149.03L146.106 123.514Z" fill="white"/>
<path d="M150.495 129.359H154.054V130.115H150.495V129.359Z" fill="white"/>
<path d="M154.976 129.359H158.534V130.115H154.976V129.359Z" fill="white"/>
<path d="M159.459 129.359H163.018V130.115H159.459V129.359Z" fill="white"/>
<path d="M163.942 129.359H167.501V130.115H163.942V129.359Z" fill="white"/>
<path d="M168.423 129.359H171.982V130.115H168.423V129.359Z" fill="white"/>
<path d="M172.906 129.359H176.465V130.115H172.906V129.359Z" fill="white"/>
<path d="M177.387 129.359H180.945V130.115H177.387V129.359Z" fill="white"/>
<path d="M181.87 129.359H185.429V130.115H181.87V129.359Z" fill="white"/>
<path d="M186.353 129.359H189.911V130.115H186.353V129.359Z" fill="white"/>
<path d="M190.834 129.359H194.393V130.115H190.834V129.359Z" fill="white"/>
<path d="M195.316 129.359H198.875V130.115H195.316V129.359Z" fill="white"/>
<path d="M52.5293 132.117H53.3232V138.452H52.5293V132.117Z" fill="white"/>
<path d="M55.0557 137.998H58.6144V138.754H55.0557V137.998Z" fill="white"/>
<path d="M59.5391 137.998H63.0978V138.754H59.5391V137.998Z" fill="white"/>
<path d="M64.0195 137.998H67.5782V138.754H64.0195V137.998Z" fill="white"/>
<path d="M68.5029 137.998H72.0616V138.754H68.5029V137.998Z" fill="white"/>
<path d="M72.9834 137.998H76.5421V138.754H72.9834V137.998Z" fill="white"/>
<path d="M77.4668 137.998H81.0255V138.754H77.4668V137.998Z" fill="white"/>
<path d="M81.9492 137.998H85.5079V138.754H81.9492V137.998Z" fill="white"/>
<path d="M86.4307 137.998H89.9894V138.754H86.4307V137.998Z" fill="white"/>
<path d="M90.9131 137.998H94.4718V138.754H90.9131V137.998Z" fill="white"/>
<path d="M95.3945 137.998H98.9532V138.754H95.3945V137.998Z" fill="white"/>
<path d="M99.877 137.998H103.436V138.754H99.877V137.998Z" fill="white"/>
<path d="M104.36 137.998H107.919V138.754H104.36V137.998Z" fill="white"/>
<path d="M109.657 132.117H110.451V138.452H109.657V132.117Z" fill="white"/>
<path d="M112.184 137.998H115.742V138.754H112.184V137.998Z" fill="white"/>
<path d="M116.666 137.998H120.225V138.754H116.666V137.998Z" fill="white"/>
<path d="M121.147 137.998H124.706V138.754H121.147V137.998Z" fill="white"/>
<path d="M125.63 137.998H129.189V138.754H125.63V137.998Z" fill="white"/>
<path d="M130.111 137.998H133.67V138.754H130.111V137.998Z" fill="white"/>
<path d="M134.594 137.998H138.152V138.754H134.594V137.998Z" fill="white"/>
<path d="M139.077 137.998H142.636V138.754H139.077V137.998Z" fill="white"/>
<path d="M143.559 137.998H147.117V138.754H143.559V137.998Z" fill="white"/>
<path d="M148.041 137.998H151.6V138.754H148.041V137.998Z" fill="white"/>
<path d="M152.522 137.998H156.081V138.754H152.522V137.998Z" fill="white"/>
<path d="M157.005 137.998H160.564V138.754H157.005V137.998Z" fill="white"/>
<path d="M161.488 137.998H165.047V138.754H161.488V137.998Z" fill="white"/>
<path d="M165.969 137.998H169.527V138.754H165.969V137.998Z" fill="white"/>
<path d="M170.452 137.998H174.011V138.754H170.452V137.998Z" fill="white"/>
<path d="M174.933 137.998H178.491V138.754H174.933V137.998Z" fill="white"/>
<path d="M179.416 137.998H182.975V138.754H179.416V137.998Z" fill="white"/>
<path d="M183.898 137.998H187.457V138.754H183.898V137.998Z" fill="white"/>
<path d="M188.38 137.998H191.939V138.754H188.38V137.998Z" fill="white"/>
<path d="M192.862 137.998H196.421V138.754H192.862V137.998Z" fill="white"/>
<path d="M198.159 132.117H198.953V138.452H198.159V132.117Z" fill="white"/>
</g>
<defs>
<clipPath id="clip0_6364_2435">
<rect width="256" height="130" fill="white" transform="translate(29 9)"/>
</clipPath>
</defs>
</svg>
