<svg width="472" height="457" viewBox="0 0 472 457" fill="none" xmlns="http://www.w3.org/2000/svg">
<rect width="472" height="457" rx="12" fill="#3B2E29"/>
<g clip-path="url(#clip0_6364_6155)">
<path d="M57.816 103.249L59.567 101.297L59.7625 101.625L57.1748 101.033L57.716 99.4913L60.0581 100.526L59.7625 100.709L59.4988 98.1324H61.136L60.8722 100.709L60.5948 100.526L62.9369 99.4913L63.4599 101.033L60.9222 101.607L61.0541 101.297L62.8369 103.249L61.4771 104.17L60.1673 101.935H60.4765L59.1668 104.17L57.807 103.249H57.816Z" fill="white"/>
<path d="M28 123.882H36.5136V125.574H28V123.882ZM31.3745 120.549H33.1573V128.971H31.3745V120.549Z" fill="white"/>
<path d="M123.09 142.646L124.841 140.695L125.037 141.023L122.449 140.43L122.99 138.889L125.333 139.924L125.037 140.106L124.773 137.53H126.41L126.147 140.106L125.869 139.924L128.211 138.889L128.734 140.43L126.197 141.005L126.329 140.695L128.111 142.646L126.751 143.567L125.442 141.333H125.751L124.441 143.567L123.081 142.646H123.09Z" fill="white"/>
<path d="M50.5621 162.345L52.3131 160.393L52.5086 160.722L49.9209 160.129L50.4621 158.588L52.8042 159.623L52.5086 159.805L52.2448 157.229H53.8821L53.6183 159.805L53.3409 159.623L55.683 158.588L56.206 160.129L53.6683 160.703L53.8002 160.393L55.583 162.345L54.2232 163.266L52.9134 161.032H53.2226L51.9129 163.266L50.553 162.345H50.5621Z" fill="white"/>
<path d="M116.428 177.908H118.902V180.106H116.428V177.908Z" fill="white"/>
<path d="M86.0215 202.677H94.535V204.369H86.0215V202.677ZM89.396 199.344H91.1787V207.766H89.396V199.344Z" fill="white"/>
<path d="M49.7568 222.376H58.2704V224.068H49.7568V222.376ZM53.1313 219.043H54.9141V227.465H53.1313V219.043Z" fill="white"/>
<path d="M115.036 242.075H123.55V243.767H115.036V242.075ZM118.406 238.742H120.189V247.164H118.406V238.742Z" fill="white"/>
<path d="M140.837 241.14L142.587 239.188L142.783 239.517L140.195 238.924L140.737 237.383L143.079 238.418L142.783 238.6L142.519 236.024H144.156L143.893 238.6L143.615 238.418L145.957 237.383L146.48 238.924L143.943 239.499L144.075 239.188L145.857 241.14L144.498 242.061L143.188 239.827H143.497L142.187 242.061L140.827 241.14H140.837Z" fill="white"/>
<path d="M157.291 237.004H159.765V239.202H157.291V237.004Z" fill="white"/>
<path d="M87.4131 256.703H89.8871V258.901H87.4131V256.703Z" fill="white"/>
<path d="M101.921 276.402H104.395V278.6H101.921V276.402Z" fill="white"/>
<path d="M130.327 280.538L132.078 278.586L132.273 278.914L129.686 278.321L130.227 276.78L132.569 277.815L132.273 277.998L132.009 275.421H133.647L133.383 277.998L133.106 277.815L135.448 276.78L135.971 278.321L133.433 278.896L133.565 278.586L135.348 280.538L133.988 281.459L132.678 279.224H132.987L131.678 281.459L130.318 280.538H130.327Z" fill="white"/>
<path d="M72.319 300.236L74.0699 298.285L74.2655 298.613L71.6777 298.02L72.2189 296.479L74.5611 297.514L74.2655 297.697L74.0017 295.12H75.6389L75.3751 297.697L75.0977 297.514L77.4398 296.479L77.9628 298.02L75.4252 298.595L75.557 298.285L77.3398 300.236L75.98 301.158L74.6702 298.923H74.9795L73.6697 301.158L72.3099 300.236H72.319Z" fill="white"/>
<path d="M412.829 104.17L411.52 101.935H411.829L410.519 104.17L409.159 103.249L410.942 101.297L411.074 101.607L408.536 101.033L409.059 99.4913L411.401 100.526L411.124 100.709L410.86 98.1324H412.497L412.234 100.709L411.938 100.526L414.28 99.4913L414.821 101.033L412.234 101.625L412.429 101.297L414.18 103.249L412.82 104.17H412.829Z" fill="white"/>
<path d="M444 125.574H435.486V123.882H444V125.574ZM440.625 128.971H438.843V120.549H440.625V128.971Z" fill="white"/>
<path d="M347.549 143.567L346.239 141.333H346.548L345.239 143.567L343.879 142.646L345.662 140.695L345.794 141.005L343.256 140.43L343.779 138.889L346.121 139.924L345.844 140.106L345.58 137.53H347.217L346.953 140.106L346.658 139.924L349 138.889L349.541 140.43L346.953 141.023L347.149 140.695L348.9 142.646L347.54 143.567H347.549Z" fill="white"/>
<path d="M420.078 163.266L418.769 161.032H419.078L417.768 163.266L416.408 162.345L418.191 160.393L418.323 160.703L415.785 160.129L416.308 158.588L418.65 159.623L418.373 159.805L418.109 157.229H419.746L419.483 159.805L419.187 159.623L421.529 158.588L422.07 160.129L419.483 160.722L419.678 160.393L421.429 162.345L420.069 163.266H420.078Z" fill="white"/>
<path d="M355.572 180.106H353.098V177.908H355.572V180.106Z" fill="white"/>
<path d="M385.978 204.369H377.465V202.677H385.978V204.369ZM382.604 207.766H380.821V199.344H382.604V207.766Z" fill="white"/>
<path d="M422.243 224.068H413.729V222.376H422.243V224.068ZM418.869 227.465H417.086V219.043H418.869V227.465Z" fill="white"/>
<path d="M356.964 243.767H348.45V242.075H356.964V243.767ZM353.594 247.164H351.811V238.742H353.594V247.164Z" fill="white"/>
<path d="M329.804 242.061L328.494 239.827H328.803L327.494 242.061L326.134 241.14L327.917 239.188L328.048 239.499L325.511 238.924L326.034 237.383L328.376 238.418L328.098 238.6L327.835 236.024H329.472L329.208 238.6L328.913 238.418L331.255 237.383L331.796 238.924L329.208 239.517L329.404 239.188L331.155 241.14L329.795 242.061H329.804Z" fill="white"/>
<path d="M314.709 239.202H312.235V237.004H314.709V239.202Z" fill="white"/>
<path d="M384.587 258.901H382.113V256.703H384.587V258.901Z" fill="white"/>
<path d="M370.079 278.6H367.605V276.402H370.079V278.6Z" fill="white"/>
<path d="M340.314 281.459L339.004 279.224H339.313L338.003 281.459L336.644 280.538L338.426 278.586L338.558 278.896L336.021 278.321L336.544 276.78L338.886 277.815L338.608 277.998L338.344 275.421H339.982L339.718 277.998L339.422 277.815L341.764 276.78L342.306 278.321L339.718 278.914L339.913 278.586L341.664 280.538L340.305 281.459H340.314Z" fill="white"/>
<path d="M398.321 301.158L397.012 298.923H397.321L396.011 301.158L394.651 300.236L396.434 298.285L396.566 298.595L394.028 298.02L394.551 296.479L396.893 297.514L396.616 297.697L396.352 295.12H397.989L397.726 297.697L397.43 297.514L399.772 296.479L400.313 298.02L397.726 298.613L397.921 298.285L399.672 300.236L398.312 301.158H398.321Z" fill="white"/>
<path d="M145.989 328.772H154.062V330.496H145.989V328.772Z" fill="white"/>
<path d="M156.158 328.772H164.231V330.496H156.158V328.772Z" fill="white"/>
<path d="M166.322 328.772H174.395V330.496H166.322V328.772Z" fill="white"/>
<path d="M176.491 328.772H184.564V330.496H176.491V328.772Z" fill="white"/>
<path d="M186.66 328.772H194.733V330.496H186.66V328.772Z" fill="white"/>
<path d="M196.825 328.772H204.898V330.496H196.825V328.772Z" fill="white"/>
<path d="M206.994 328.772H215.067V330.496H206.994V328.772Z" fill="white"/>
<path d="M217.158 328.772H225.231V330.496H217.158V328.772Z" fill="white"/>
<path d="M227.327 328.772H235.4V330.496H227.327V328.772Z" fill="white"/>
<path d="M237.496 328.772H245.569V330.496H237.496V328.772Z" fill="white"/>
<path d="M247.661 328.772H255.734V330.496H247.661V328.772Z" fill="white"/>
<path d="M257.83 328.772H265.902V330.496H257.83V328.772Z" fill="white"/>
<path d="M267.994 328.772H276.067V330.496H267.994V328.772Z" fill="white"/>
<path d="M278.163 328.772H286.236V330.496H278.163V328.772Z" fill="white"/>
<path d="M288.332 328.772H296.404V330.496H288.332V328.772Z" fill="white"/>
<path d="M298.496 328.772H306.569V330.496H298.496V328.772Z" fill="white"/>
<path d="M308.665 328.772H316.737V330.496H308.665V328.772Z" fill="white"/>
<path d="M318.83 328.772H326.902V330.496H318.83V328.772Z" fill="white"/>
<path d="M147.84 335.06H149.641V349.506H147.84V335.06Z" fill="white"/>
<path d="M329.49 335.06H331.291V349.506H329.49V335.06Z" fill="white"/>
<path d="M147.84 354.759H149.641V369.205H147.84V354.759Z" fill="white"/>
<path d="M153.57 368.17H161.643V369.893H153.57V368.17Z" fill="white"/>
<path d="M163.739 368.17H171.812V369.893H163.739V368.17Z" fill="white"/>
<path d="M173.904 368.17H181.977V369.893H173.904V368.17Z" fill="white"/>
<path d="M184.073 368.17H192.146V369.893H184.073V368.17Z" fill="white"/>
<path d="M194.237 368.17H202.31V369.893H194.237V368.17Z" fill="white"/>
<path d="M204.406 368.17H212.479V369.893H204.406V368.17Z" fill="white"/>
<path d="M214.575 368.17H222.648V369.893H214.575V368.17Z" fill="white"/>
<path d="M224.739 368.17H232.812V369.893H224.739V368.17Z" fill="white"/>
<path d="M234.908 368.17H242.981V369.893H234.908V368.17Z" fill="white"/>
<path d="M245.073 368.17H253.146V369.893H245.073V368.17Z" fill="white"/>
<path d="M255.242 368.17H263.315V369.893H255.242V368.17Z" fill="white"/>
<path d="M265.411 368.17H273.484V369.893H265.411V368.17Z" fill="white"/>
<path d="M275.575 368.17H283.648V369.893H275.575V368.17Z" fill="white"/>
<path d="M285.744 368.17H293.817V369.893H285.744V368.17Z" fill="white"/>
<path d="M295.909 368.17H303.982V369.893H295.909V368.17Z" fill="white"/>
<path d="M306.078 368.17H314.151V369.893H306.078V368.17Z" fill="white"/>
<path d="M316.247 368.17H324.319V369.893H316.247V368.17Z" fill="white"/>
<path d="M328.262 354.759H330.063V369.205H328.262V354.759Z" fill="white"/>
<path d="M169.597 374.458H171.398V388.904H169.597V374.458Z" fill="white"/>
<path d="M307.733 374.458H309.534V388.904H307.733V374.458Z" fill="white"/>
<path d="M169.597 394.157H171.398V408.602H169.597V394.157Z" fill="white"/>
<path d="M307.733 394.157H309.534V408.602H307.733V394.157Z" fill="white"/>
<path d="M169.597 413.855H171.398V428.301H169.597V413.855Z" fill="white"/>
<path d="M307.733 413.855H309.534V428.301H307.733V413.855Z" fill="white"/>
<path d="M169.597 433.554H171.398V448H169.597V433.554Z" fill="white"/>
<path d="M307.733 433.554H309.534V448H307.733V433.554Z" fill="white"/>
<path d="M197.271 9H205.343V10.7236H197.271V9Z" fill="#FF943F"/>
<path d="M265.461 9H273.533V10.7236H265.461V9Z" fill="#FF943F"/>
<path d="M188.612 15.3702H190.626L183.978 29.6519H181.949L188.612 15.3702Z" fill="#FF943F"/>
<path d="M205.457 15.3702H207.472L214.134 29.6519H212.088L205.457 15.3702Z" fill="#FF943F"/>
<path d="M264.51 15.3702H266.525L259.876 29.6519H257.848L264.51 15.3702Z" fill="#FF943F"/>
<path d="M281.36 15.3702H283.375L290.038 29.6519H287.991L281.36 15.3702Z" fill="#FF943F"/>
<path d="M174.104 35.069H176.119L169.47 49.3506H167.441L174.104 35.069Z" fill="#FF943F"/>
<path d="M215.053 35.9718H217.527V38.1697H215.053V35.9718Z" fill="#FF943F"/>
<path d="M221.747 41.9955H227.1V43.8012H221.747V41.9955Z" fill="#FF943F"/>
<path d="M230.752 41.9955H236.105V43.8012H230.752V41.9955Z" fill="#FF943F"/>
<path d="M239.757 41.9955H245.11V43.8012H239.757V41.9955Z" fill="#FF943F"/>
<path d="M249.303 35.9718H251.777V38.1697H249.303V35.9718Z" fill="#FF943F"/>
<path d="M290.461 35.069H292.476L299.138 49.3506H297.092L290.461 35.069Z" fill="#FF943F"/>
<path d="M166.85 54.7677H168.865L162.216 69.0493H160.188L166.85 54.7677Z" fill="#FF943F"/>
<path d="M299.742 54.7677H301.757L308.419 69.0493H306.373L299.742 54.7677Z" fill="#FF943F"/>
<path d="M159.601 74.4666H161.616L154.967 88.7482H152.938L159.601 74.4666Z" fill="#FF943F"/>
<path d="M306.996 74.4666H309.011L315.673 88.7482H313.627L306.996 74.4666Z" fill="#FF943F"/>
<path d="M152.347 94.1653H154.362L147.713 108.447H145.685L152.347 94.1653Z" fill="#FF943F"/>
<path d="M314.25 94.1653H316.265L322.927 108.447H320.881L314.25 94.1653Z" fill="#FF943F"/>
<path d="M145.748 113.864H147.763L154.425 128.146H152.379L145.748 113.864Z" fill="#FF943F"/>
<path d="M320.849 113.864H322.864L316.215 128.146H314.187L320.849 113.864Z" fill="#FF943F"/>
<path d="M152.738 133.563H154.753L161.416 147.844H159.369L152.738 133.563Z" fill="#FF943F"/>
<path d="M313.332 133.563H315.346L308.697 147.844H306.669L313.332 133.563Z" fill="#FF943F"/>
<path d="M167.246 153.262H169.261L175.923 167.543H173.877L167.246 153.262Z" fill="#FF943F"/>
<path d="M177.196 166.59H185.269V168.314H177.196V166.59Z" fill="#FF943F"/>
<path d="M210.337 163.125H212.925V165.651H210.337V163.125Z" fill="#FF943F"/>
<path d="M253.691 163.125H256.279V165.651H253.691V163.125Z" fill="#FF943F"/>
<path d="M288.578 166.59H296.651V168.314H288.578V166.59Z" fill="#FF943F"/>
<path d="M304.59 153.262H306.605L299.956 167.543H297.928L304.59 153.262Z" fill="#FF943F"/>
<path d="M189.003 172.96H191.018L197.68 187.242H195.634L189.003 172.96Z" fill="#FF943F"/>
<path d="M200.363 182.828H202.951V185.354H200.363V182.828Z" fill="#FF943F"/>
<path d="M207.849 182.828H210.436V185.354H207.849V182.828Z" fill="#FF943F"/>
<path d="M213.92 186.289H221.992V188.013H213.92V186.289Z" fill="#FF943F"/>
<path d="M245.847 186.289H253.919V188.013H245.847V186.289Z" fill="#FF943F"/>
<path d="M257.421 182.828H260.009V185.354H257.421V182.828Z" fill="#FF943F"/>
<path d="M264.906 182.828H267.494V185.354H264.906V182.828Z" fill="#FF943F"/>
<path d="M276.822 172.96H278.836L272.188 187.242H270.159L276.822 172.96Z" fill="#FF943F"/>
<path d="M175.669 58.598H177.47V73.0438H175.669V58.598Z" fill="#FF943F"/>
<path d="M181.398 72.0087H189.471V73.7323H181.398V72.0087Z" fill="#FF943F"/>
<path d="M191.567 72.0087H199.64V73.7323H191.567V72.0087Z" fill="#FF943F"/>
<path d="M201.732 72.0087H209.805V73.7323H201.732V72.0087Z" fill="#FF943F"/>
<path d="M248.166 72.0087H256.238V73.7323H248.166V72.0087Z" fill="#FF943F"/>
<path d="M258.33 72.0087H266.403V73.7323H258.33V72.0087Z" fill="#FF943F"/>
<path d="M268.499 72.0087H276.571V73.7323H268.499V72.0087Z" fill="#FF943F"/>
<path d="M280.515 58.598H282.316V73.0438H280.515V58.598Z" fill="#FF943F"/>
<path d="M216.321 78.3789H218.336L224.999 92.6605H222.952L216.321 78.3789Z" fill="#FF943F"/>
<path d="M246.365 78.3789H248.379L241.73 92.6605H239.702L246.365 78.3789Z" fill="#FF943F"/>
<path d="M181.071 111.406H189.144V113.13H181.071V111.406Z" fill="#FF943F"/>
<path d="M191.235 111.406H199.308V113.13H191.235V111.406Z" fill="#FF943F"/>
<path d="M201.404 111.406H209.477V113.13H201.404V111.406Z" fill="#FF943F"/>
<path d="M217.417 98.0776H219.432L212.783 112.359H210.755L217.417 98.0776Z" fill="#FF943F"/>
<path d="M220.774 111.406H228.847V113.13H220.774V111.406Z" fill="#FF943F"/>
<path d="M230.938 111.406H239.011V113.13H230.938V111.406Z" fill="#FF943F"/>
<path d="M241.107 111.406H249.18V113.13H241.107V111.406Z" fill="#FF943F"/>
<path d="M250.521 98.0776H252.536L259.199 112.359H257.152L250.521 98.0776Z" fill="#FF943F"/>
<path d="M260.477 111.406H268.549V113.13H260.477V111.406Z" fill="#FF943F"/>
<path d="M270.646 111.406H278.718V113.13H270.646V111.406Z" fill="#FF943F"/>
<path d="M280.81 111.406H288.882V113.13H280.81V111.406Z" fill="#FF943F"/>
<path d="M172.408 118.141H174.422L167.773 132.423H165.745L172.408 118.141Z" fill="#FF943F"/>
<path d="M221.197 118.141H223.212L229.875 132.423H227.828L221.197 118.141Z" fill="#FF943F"/>
<path d="M243.991 118.141H246.005L239.356 132.423H237.328L243.991 118.141Z" fill="#FF943F"/>
<path d="M289.847 118.141H291.861L298.524 132.423H296.477L289.847 118.141Z" fill="#FF943F"/>
<path d="M173.817 147.429H181.89V149.153H173.817V147.429Z" fill="#FF943F"/>
<path d="M210.605 134.101H212.62L219.283 148.382H217.236L210.605 134.101Z" fill="#FF943F"/>
<path d="M220.561 147.429H228.633V149.153H220.561V147.429Z" fill="#FF943F"/>
<path d="M232.575 134.019H234.376V148.465H232.575V134.019Z" fill="#FF943F"/>
<path d="M238.306 147.429H246.378V149.153H238.306V147.429Z" fill="#FF943F"/>
<path d="M254.319 134.101H256.334L249.685 148.382H247.656L254.319 134.101Z" fill="#FF943F"/>
<path d="M279.437 147.429H287.509V149.153H279.437V147.429Z" fill="#FF943F"/>
<path d="M187.307 150.061H189.321L195.984 164.342H193.937L187.307 150.061Z" fill="#FF943F"/>
<path d="M197.262 163.389H205.334V165.113H197.262V163.389Z" fill="#FF943F"/>
<path d="M258.198 163.389H266.271V165.113H258.198V163.389Z" fill="#FF943F"/>
<path d="M274.211 150.061H276.226L269.577 164.342H267.549L274.211 150.061Z" fill="#FF943F"/>
<path d="M197.116 105.205C196.32 104.708 195.697 104.006 195.251 103.094C194.806 102.182 194.578 101.147 194.578 99.9746C194.578 98.8027 194.801 97.7631 195.251 96.8556C195.697 95.9482 196.32 95.246 197.116 94.7444C197.912 94.2474 198.83 93.9966 199.867 93.9966C200.904 93.9966 201.827 94.2474 202.632 94.7444C203.442 95.2414 204.069 95.9437 204.515 96.8556C204.961 97.7631 205.188 98.8027 205.188 99.9746C205.188 101.147 204.965 102.186 204.515 103.094C204.065 104.001 203.442 104.703 202.632 105.205C201.823 105.702 200.904 105.953 199.867 105.953C198.83 105.953 197.912 105.702 197.116 105.205ZM201.486 103.513C201.946 103.189 202.296 102.724 202.541 102.118C202.787 101.511 202.91 100.791 202.91 99.9609C202.91 99.131 202.787 98.4288 202.541 97.8269C202.296 97.225 201.946 96.7644 201.486 96.4407C201.027 96.1169 200.486 95.9573 199.867 95.9573C199.249 95.9573 198.726 96.1169 198.271 96.4407C197.816 96.7644 197.466 97.225 197.216 97.8269C196.966 98.4288 196.838 99.1402 196.838 99.9609C196.838 100.782 196.966 101.511 197.216 102.118C197.466 102.724 197.821 103.189 198.271 103.513C198.726 103.837 199.258 103.996 199.867 103.996C200.477 103.996 201.032 103.837 201.486 103.513Z" fill="#FF943F"/>
<path d="M259.708 105.205C258.912 104.708 258.289 104.006 257.843 103.094C257.397 102.182 257.17 101.147 257.17 99.9746C257.17 98.8027 257.393 97.7631 257.843 96.8556C258.289 95.9482 258.912 95.246 259.708 94.7444C260.503 94.2474 261.422 93.9966 262.459 93.9966C263.496 93.9966 264.419 94.2474 265.224 94.7444C266.034 95.2414 266.661 95.9437 267.107 96.8556C267.553 97.7631 267.78 98.8027 267.78 99.9746C267.78 101.147 267.557 102.186 267.107 103.094C266.657 104.001 266.034 104.703 265.224 105.205C264.415 105.702 263.496 105.953 262.459 105.953C261.422 105.953 260.503 105.702 259.708 105.205ZM264.078 103.513C264.537 103.189 264.888 102.724 265.133 102.118C265.379 101.511 265.502 100.791 265.502 99.9609C265.502 99.131 265.379 98.4288 265.133 97.8269C264.888 97.225 264.537 96.7644 264.078 96.4407C263.619 96.1169 263.078 95.9573 262.459 95.9573C261.841 95.9573 261.318 96.1169 260.863 96.4407C260.408 96.7644 260.058 97.225 259.808 97.8269C259.558 98.4288 259.43 99.1402 259.43 99.9609C259.43 100.782 259.558 101.511 259.808 102.118C260.058 102.724 260.413 103.189 260.863 103.513C261.318 103.837 261.85 103.996 262.459 103.996C263.068 103.996 263.623 103.837 264.078 103.513Z" fill="#FF943F"/>
<path d="M158.036 179.062H160.051L166.713 193.343H164.667L158.036 179.062Z" fill="#FF943F"/>
<path d="M167.991 192.39H176.064V194.114H167.991V192.39Z" fill="#FF943F"/>
<path d="M294.203 192.39H302.276V194.114H294.203V192.39Z" fill="#FF943F"/>
<path d="M310.216 179.062H312.231L305.582 193.343H303.554L310.216 179.062Z" fill="#FF943F"/>
<path d="M174.067 208.496L179.88 205.345L179.898 205.919L174.067 202.782V200.698L181.353 204.752V206.526L174.067 210.58V208.496Z" fill="#FF943F"/>
<path d="M183.035 198.76H185.05L191.712 213.042H189.666L183.035 198.76Z" fill="#FF943F"/>
<path d="M190.849 198.76H192.863L199.526 213.042H197.479L190.849 198.76Z" fill="#FF943F"/>
<path d="M201.572 208.496L207.384 205.345L207.403 205.919L201.572 202.782V200.698L208.858 204.752V206.526L201.572 210.58V208.496Z" fill="#FF943F"/>
<path d="M212.064 208.496L217.877 205.345L217.895 205.919L212.064 202.782V200.698L219.35 204.752V206.526L212.064 210.58V208.496Z" fill="#FF943F"/>
<path d="M222.561 208.496L228.373 205.345L228.391 205.919L222.561 202.782V200.698L229.846 204.752V206.526L222.561 210.58V208.496Z" fill="#FF943F"/>
<path d="M233.694 208.628H236.282V211.154H233.694V208.628Z" fill="#FF943F"/>
<path d="M247.397 210.58L240.111 206.526V204.752L247.397 200.698V202.782L241.567 205.919L241.585 205.345L247.397 208.496V210.58Z" fill="#FF943F"/>
<path d="M257.893 210.58L250.607 206.526V204.752L257.893 200.698V202.782L252.063 205.919L252.081 205.345L257.893 208.496V210.58Z" fill="#FF943F"/>
<path d="M268.385 210.58L261.1 206.526V204.752L268.385 200.698V202.782L262.555 205.919L262.573 205.345L268.385 208.496V210.58Z" fill="#FF943F"/>
<path d="M277.094 198.76H279.109L272.46 213.042H270.432L277.094 198.76Z" fill="#FF943F"/>
<path d="M284.908 198.76H286.922L280.273 213.042H278.245L284.908 198.76Z" fill="#FF943F"/>
<path d="M295.89 210.58L288.604 206.526V204.752L295.89 200.698V202.782L290.06 205.919L290.078 205.345L295.89 208.496V210.58Z" fill="#FF943F"/>
<path d="M211.969 218.459H213.984L207.335 232.741H205.307L211.969 218.459Z" fill="#FF943F"/>
<path d="M257.825 218.459H259.84L266.502 232.741H264.456L257.825 218.459Z" fill="#FF943F"/>
<path d="M201.209 238.076H203.01V252.522H201.209V238.076Z" fill="#FF943F"/>
<path d="M266.816 238.076H268.617V252.522H266.816V238.076Z" fill="#FF943F"/>
<path d="M205.37 257.857H207.385L214.047 272.138H212.001L205.37 257.857Z" fill="#FF943F"/>
<path d="M215.325 271.185H223.398V272.909H215.325V271.185Z" fill="#FF943F"/>
<path d="M225.489 271.185H233.562V272.909H225.489V271.185Z" fill="#FF943F"/>
<path d="M235.658 271.185H243.731V272.909H235.658V271.185Z" fill="#FF943F"/>
<path d="M245.823 271.185H253.896V272.909H245.823V271.185Z" fill="#FF943F"/>
<path d="M261.836 257.857H263.851L257.202 272.138H255.174L261.836 257.857Z" fill="#FF943F"/>
<path d="M247.173 224.446H249.188L242.539 238.728H240.511L247.173 224.446Z" fill="white"/>
<path d="M221.765 244.145H223.779L230.442 258.427H228.395L221.765 244.145Z" fill="white"/>
<path d="M237.564 244.145H239.579L232.93 258.427H230.901L237.564 244.145Z" fill="white"/>
<path d="M178.628 274.008H180.643L173.994 288.289H171.966L178.628 274.008Z" fill="white"/>
<path d="M181.23 274.008H183.245L189.908 288.289H187.861L181.23 274.008Z" fill="white"/>
<path d="M191.186 287.336H199.258V289.06H191.186V287.336Z" fill="white"/>
<path d="M230.251 273.926H232.052V288.372H230.251V273.926Z" fill="white"/>
<path d="M237.832 273.926H239.633V288.372H237.832V273.926Z" fill="white"/>
<path d="M272.573 287.336H280.646V289.06H272.573V287.336Z" fill="white"/>
<path d="M288.586 274.008H290.601L283.952 288.289H281.924L288.586 274.008Z" fill="white"/>
<path d="M291.188 274.008H293.202L299.865 288.289H297.818L291.188 274.008Z" fill="white"/>
<path d="M167.382 293.625H169.183V308.07H167.382V293.625Z" fill="white"/>
<path d="M201.108 293.707H203.123L209.786 307.988H207.739L201.108 293.707Z" fill="white"/>
<path d="M211.063 307.035H219.136V308.759H211.063V307.035Z" fill="white"/>
<path d="M230.333 293.625H232.134V308.07H230.333V293.625Z" fill="white"/>
<path d="M237.914 293.625H239.715V308.07H237.914V293.625Z" fill="white"/>
<path d="M250.898 307.035H258.971V308.759H250.898V307.035Z" fill="white"/>
<path d="M266.907 293.707H268.921L262.272 307.988H260.244L266.907 293.707Z" fill="white"/>
<path d="M301.125 293.625H302.926V308.07H301.125V293.625Z" fill="white"/>
<path d="M171.771 313.405H173.785L180.448 327.687H178.401L171.771 313.405Z" fill="white"/>
<path d="M194.951 313.405H196.966L203.628 327.687H201.582L194.951 313.405Z" fill="white"/>
<path d="M218.136 313.405H220.15L226.813 327.687H224.767L218.136 313.405Z" fill="white"/>
<path d="M229.942 313.323H231.743V327.769H229.942V313.323Z" fill="white"/>
<path d="M237.519 313.323H239.319V327.769H237.519V313.323Z" fill="white"/>
<path d="M249.093 313.405H251.108L244.459 327.687H242.431L249.093 313.405Z" fill="white"/>
<path d="M272.8 313.405H274.815L268.166 327.687H266.138L272.8 313.405Z" fill="white"/>
<path d="M296.508 313.405H298.523L291.874 327.687H289.846L296.508 313.405Z" fill="white"/>
</g>
<defs>
<clipPath id="clip0_6364_6155">
<rect width="416" height="439" fill="white" transform="translate(28 9)"/>
</clipPath>
</defs>
</svg>
