<svg width="341" height="148" viewBox="0 0 341 148" fill="none" xmlns="http://www.w3.org/2000/svg">
<g clip-path="url(#clip0_6266_12577)">
<rect width="341" height="148" rx="12" fill="#3B2E29"/>
<g clip-path="url(#clip1_6266_12577)">
<path d="M212.022 6.75769H216.473V7.70632H212.022V6.75769Z" fill="white"/>
<path d="M217.626 6.75769H222.077V7.70632H217.626V6.75769Z" fill="white"/>
<path d="M200.023 17.5992H204.474V18.5479H200.023V17.5992Z" fill="white"/>
<path d="M208.853 10.261H209.964L206.298 18.121H205.18L208.853 10.261Z" fill="white"/>
<path d="M218.7 17.5992H223.151V18.5479H218.7V17.5992Z" fill="white"/>
<path d="M227.744 10.261H228.855L232.528 18.121H231.4L227.744 10.261Z" fill="white"/>
<path d="M199.246 21.1023H200.357L196.691 28.9624H195.572L199.246 21.1023Z" fill="white"/>
<path d="M216.315 21.1023H217.426L213.76 28.9624H212.642L216.315 21.1023Z" fill="white"/>
<path d="M234.129 24.3924H238.823V25.3234H234.129V24.3924ZM235.987 22.5579H236.97V27.1931H235.987V22.5579Z" fill="white"/>
<path d="M195.247 31.944H196.358L192.692 39.804H191.573L195.247 31.944Z" fill="white"/>
<path d="M212.534 31.944H213.645L217.319 39.804H216.19L212.534 31.944Z" fill="white"/>
<path d="M191.249 42.7853H192.36L188.694 50.6453H187.575L191.249 42.7853Z" fill="white"/>
<path d="M216.534 42.7853H217.645L221.319 50.6453H220.19L216.534 42.7853Z" fill="white"/>
<path d="M172.031 60.9647H176.482V61.9133H172.031V60.9647Z" fill="white"/>
<path d="M177.637 60.9647H182.088V61.9133H177.637V60.9647Z" fill="white"/>
<path d="M186.466 53.6271H187.577L183.911 61.4871H182.793L186.466 53.6271Z" fill="white"/>
<path d="M188.316 60.9647H192.767V61.9133H188.316V60.9647Z" fill="white"/>
<path d="M193.92 60.9647H198.371V61.9133H193.92V60.9647Z" fill="white"/>
<path d="M199.528 60.9647H203.979V61.9133H199.528V60.9647Z" fill="white"/>
<path d="M205.133 60.9647H209.584V61.9133H205.133V60.9647Z" fill="white"/>
<path d="M210.738 60.9647H215.189V61.9133H210.738V60.9647Z" fill="white"/>
<path d="M216.345 60.9647H220.796V61.9133H216.345V60.9647Z" fill="white"/>
<path d="M221.537 53.6271H222.648L226.321 61.4871H225.193L221.537 53.6271Z" fill="white"/>
<path d="M227.024 60.9647H231.475V61.9133H227.024V60.9647Z" fill="white"/>
<path d="M232.628 60.9647H237.079V61.9133H232.628V60.9647Z" fill="white"/>
<path d="M184.434 67.2439L185.399 66.1698L185.507 66.3504L184.08 66.0242L184.378 65.176L185.67 65.7456L185.507 65.846L185.361 64.4281H186.264L186.119 65.846L185.966 65.7456L187.257 65.176L187.545 66.0242L186.146 66.3404L186.219 66.1698L187.202 67.2439L186.452 67.7508L185.73 66.5211H185.901L185.178 67.7508L184.429 67.2439H184.434Z" fill="white"/>
<path d="M195.999 64.468H197.11L193.444 72.3281H192.325L195.999 64.468Z" fill="white"/>
<path d="M202.252 67.2439L203.217 66.1698L203.325 66.3504L201.898 66.0242L202.197 65.176L203.488 65.7456L203.325 65.846L203.18 64.4281H204.082L203.937 65.846L203.784 65.7456L205.075 65.176L205.364 66.0242L203.965 66.3404L204.037 66.1698L205.02 67.2439L204.271 67.7508L203.548 66.5211H203.719L202.997 67.7508L202.247 67.2439H202.252Z" fill="white"/>
<path d="M220.926 66.3856C221.187 67.0481 221.32 67.7282 221.32 68.4284C221.32 68.8927 221.262 69.3519 221.149 69.8062C221.034 70.2604 220.861 70.7021 220.63 71.1287C220.4 71.5553 220.109 71.9569 219.76 72.3308H218.687C219.031 71.9519 219.314 71.5528 219.535 71.1337C219.758 70.7146 219.921 70.2805 220.026 69.8338C220.131 69.3845 220.184 68.9203 220.184 68.4384C220.184 67.7508 220.061 67.0757 219.813 66.4107C219.567 65.7456 219.191 65.0982 218.685 64.4733H219.758C220.274 65.0881 220.666 65.7256 220.926 66.3881V66.3856Z" fill="white"/>
<path d="M234.895 71.8064H239.345V72.755H234.895V71.8064Z" fill="white"/>
<path d="M240.501 71.8064H244.952V72.755H240.501V71.8064Z" fill="white"/>
<path d="M183.252 75.3098H184.362L180.696 83.1699H179.578L183.252 75.3098Z" fill="white"/>
<path d="M187.261 77.0263C187.156 76.9837 187.023 76.9184 186.86 76.8281C186.739 76.7678 186.642 76.7202 186.566 76.6875C186.491 76.6549 186.418 76.6373 186.346 76.6373C186.25 76.6373 186.178 76.6649 186.133 76.7227C186.088 76.7804 186.065 76.8632 186.065 76.9711V77.0339H185.343V76.8808C185.343 76.5495 185.431 76.2935 185.604 76.1128C185.779 75.9321 186.012 75.8418 186.308 75.8418C186.424 75.8418 186.536 75.8669 186.647 75.9146C186.757 75.9623 186.89 76.03 187.04 76.1128C187.148 76.1731 187.243 76.2207 187.324 76.2534C187.404 76.286 187.477 76.3036 187.537 76.3036C187.627 76.3036 187.692 76.276 187.735 76.2182C187.778 76.1605 187.798 76.0752 187.798 75.9597V75.897H188.492V76.1128C188.492 76.4391 188.412 76.6825 188.249 76.8456C188.086 77.0088 187.868 77.0891 187.59 77.0891C187.474 77.0891 187.366 77.069 187.261 77.0263Z" fill="white"/>
<path d="M192.064 77.0263C191.958 76.9837 191.826 76.9184 191.663 76.8281C191.542 76.7678 191.444 76.7202 191.369 76.6875C191.294 76.6549 191.221 76.6373 191.149 76.6373C191.053 76.6373 190.981 76.6649 190.935 76.7227C190.89 76.7804 190.868 76.8632 190.868 76.9711V77.0339H190.146V76.8808C190.146 76.5495 190.233 76.2935 190.406 76.1128C190.582 75.9321 190.815 75.8418 191.111 75.8418C191.226 75.8418 191.339 75.8669 191.449 75.9146C191.56 75.9623 191.693 76.03 191.843 76.1128C191.951 76.1731 192.046 76.2207 192.126 76.2534C192.207 76.286 192.279 76.3036 192.34 76.3036C192.43 76.3036 192.495 76.276 192.538 76.2182C192.58 76.1605 192.6 76.0752 192.6 75.9597V75.897H193.295V76.1128C193.295 76.4391 193.215 76.6825 193.052 76.8456C192.889 77.0088 192.671 77.0891 192.392 77.0891C192.277 77.0891 192.169 77.069 192.064 77.0263Z" fill="white"/>
<path d="M196.868 77.0263C196.763 76.9837 196.63 76.9184 196.467 76.8281C196.347 76.7678 196.249 76.7202 196.174 76.6875C196.099 76.6549 196.026 76.6373 195.953 76.6373C195.858 76.6373 195.785 76.6649 195.74 76.7227C195.695 76.7804 195.672 76.8632 195.672 76.9711V77.0339H194.95V76.8808C194.95 76.5495 195.038 76.2935 195.211 76.1128C195.387 75.9321 195.62 75.8418 195.916 75.8418C196.031 75.8418 196.144 75.8669 196.254 75.9146C196.364 75.9623 196.497 76.03 196.648 76.1128C196.756 76.1731 196.851 76.2207 196.931 76.2534C197.011 76.286 197.084 76.3036 197.144 76.3036C197.235 76.3036 197.3 76.276 197.342 76.2182C197.385 76.1605 197.405 76.0752 197.405 75.9597V75.897H198.1V76.1128C198.1 76.4391 198.019 76.6825 197.856 76.8456C197.693 77.0088 197.475 77.0891 197.197 77.0891C197.082 77.0891 196.974 77.069 196.868 77.0263Z" fill="white"/>
<path d="M201.671 77.0263C201.566 76.9837 201.433 76.9184 201.27 76.8281C201.15 76.7678 201.052 76.7202 200.977 76.6875C200.901 76.6549 200.829 76.6373 200.756 76.6373C200.661 76.6373 200.588 76.6649 200.543 76.7227C200.498 76.7804 200.475 76.8632 200.475 76.9711V77.0339H199.753V76.8808C199.753 76.5495 199.841 76.2935 200.014 76.1128C200.189 75.9321 200.422 75.8418 200.718 75.8418C200.834 75.8418 200.947 75.8669 201.057 75.9146C201.167 75.9623 201.3 76.03 201.451 76.1128C201.558 76.1731 201.654 76.2207 201.734 76.2534C201.814 76.286 201.887 76.3036 201.947 76.3036C202.037 76.3036 202.102 76.276 202.145 76.2182C202.188 76.1605 202.208 76.0752 202.208 75.9597V75.897H202.902V76.1128C202.902 76.4391 202.822 76.6825 202.659 76.8456C202.496 77.0088 202.278 77.0891 202 77.0891C201.884 77.0891 201.777 77.069 201.671 77.0263Z" fill="white"/>
<path d="M203.895 75.3098H205.005L208.679 83.1699H207.55L203.895 75.3098Z" fill="white"/>
<path d="M216.461 75.3098H217.571L213.905 83.1699H212.787L216.461 75.3098Z" fill="white"/>
<path d="M218.312 82.6477H222.763V83.5963H218.312V82.6477Z" fill="white"/>
<path d="M227.14 75.3098H228.251L224.585 83.1699H223.467L227.14 75.3098Z" fill="white"/>
<path d="M244.428 75.3098H245.539L249.212 83.1699H248.084L244.428 75.3098Z" fill="white"/>
<path d="M175.253 86.151H176.363L172.697 94.0111H171.579L175.253 86.151Z" fill="white"/>
<path d="M197.098 93.4894H201.549V94.438H197.098V93.4894Z" fill="white"/>
<path d="M205.927 86.151H207.038L203.372 94.0111H202.254L205.927 86.151Z" fill="white"/>
<path d="M227.215 86.151H228.326L231.999 94.0111H230.871L227.215 86.151Z" fill="white"/>
<path d="M251.778 86.151H252.889L249.223 94.0111H248.104L251.778 86.151Z" fill="white"/>
<path d="M169.05 96.9474H170.043V104.898H169.05V96.9474Z" fill="white"/>
<path d="M188.206 104.331H192.657V105.279H188.206V104.331Z" fill="white"/>
<path d="M197.035 96.9928H198.146L194.48 104.853H193.361L197.035 96.9928Z" fill="white"/>
<path d="M231.896 96.9474H232.889V104.898H231.896V96.9474Z" fill="white"/>
<path d="M235.057 104.331H239.507V105.279H235.057V104.331Z" fill="white"/>
<path d="M243.884 96.9928H244.995L241.329 104.853H240.211L243.884 96.9928Z" fill="white"/>
<path d="M167.256 107.834H168.366L164.7 115.694H163.582L167.256 107.834Z" fill="white"/>
<path d="M181.102 115.172H185.552V116.121H181.102V115.172Z" fill="white"/>
<path d="M189.931 107.834H191.042L187.376 115.694H186.258L189.931 107.834Z" fill="white"/>
<path d="M235.212 107.834H236.323L239.996 115.694H238.868L235.212 107.834Z" fill="white"/>
<path d="M165.051 118.633H166.044V126.583H165.051V118.633Z" fill="white"/>
<path d="M172.21 126.013H176.661V126.962H172.21V126.013Z" fill="white"/>
<path d="M181.039 118.676H182.15L178.484 126.536H177.365L181.039 118.676Z" fill="white"/>
<path d="M187.912 118.633H188.905V126.583H187.912V118.633Z" fill="white"/>
<path d="M238.495 118.676H239.606L243.279 126.536H242.151L238.495 118.676Z" fill="white"/>
<path d="M167.995 132.807H172.689V133.738H167.995V132.807ZM169.856 130.973H170.839V135.608H169.856V130.973Z" fill="white"/>
<path d="M186.834 129.472H187.827V137.422H186.834V129.472Z" fill="white"/>
<path d="M243.001 129.472H243.994V137.422H243.001V129.472Z" fill="white"/>
<path d="M185.044 140.313H186.037V148.264H185.044V140.313Z" fill="white"/>
<path d="M188.981 142.644H190.408V144.035H188.981V142.644ZM188.981 145.789H190.408V147.179H188.981V145.789Z" fill="#FF943F"/>
<path d="M193.115 142.644H194.542V144.035H193.115V142.644ZM193.115 145.789H194.542V147.179H193.115V145.789Z" fill="#FF943F"/>
<path d="M197.251 142.644H198.678V144.035H197.251V142.644ZM197.251 145.789H198.678V147.179H197.251V145.789Z" fill="#FF943F"/>
<path d="M201.383 142.644H202.81V144.035H201.383V142.644ZM201.383 145.789H202.81V147.179H201.383V145.789Z" fill="#FF943F"/>
<path d="M205.52 142.644H206.946V144.035H205.52V142.644ZM205.52 145.789H206.946V147.179H205.52V145.789Z" fill="#FF943F"/>
<path d="M209.655 142.644H211.082V144.035H209.655V142.644ZM209.655 145.789H211.082V147.179H209.655V145.789Z" fill="#FF943F"/>
<path d="M213.789 142.644H215.216V144.035H213.789V142.644ZM213.789 145.789H215.216V147.179H213.789V145.789Z" fill="#FF943F"/>
<path d="M217.925 142.644H219.352V144.035H217.925V142.644ZM217.925 145.789H219.352V147.179H217.925V145.789Z" fill="#FF943F"/>
<path d="M222.055 142.644H223.481V144.035H222.055V142.644ZM222.055 145.789H223.481V147.179H222.055V145.789Z" fill="#FF943F"/>
<path d="M226.19 142.644H227.617V144.035H226.19V142.644ZM226.19 145.789H227.617V147.179H226.19V145.789Z" fill="#FF943F"/>
<path d="M230.324 142.644H231.751V144.035H230.324V142.644ZM230.324 145.789H231.751V147.179H230.324V145.789Z" fill="#FF943F"/>
<path d="M234.462 142.644H235.889V144.035H234.462V142.644ZM234.462 145.789H235.889V147.179H234.462V145.789Z" fill="#FF943F"/>
<path d="M238.597 142.644H240.023V144.035H238.597V142.644ZM238.597 145.789H240.023V147.179H238.597V145.789Z" fill="#FF943F"/>
<path d="M242.729 142.644H244.155V144.035H242.729V142.644ZM242.729 145.789H244.155V147.179H242.729V145.789Z" fill="#FF943F"/>
<path d="M245.583 140.359H246.694L250.367 148.219H249.239L245.583 140.359Z" fill="white"/>
<path d="M268.886 22.3668H273.337V23.3154H268.886V22.3668Z" fill="white"/>
<path d="M274.494 22.3668H278.945V23.3154H274.494V22.3668Z" fill="white"/>
<path d="M280.101 22.3668H284.551V23.3154H280.101V22.3668Z" fill="white"/>
<path d="M264.853 26.6509H269.547V27.582H264.853V26.6509ZM266.711 24.8164H267.694V29.4516H266.711V24.8164Z" fill="white"/>
<path d="M282.637 26.6509H287.331V27.582H282.637V26.6509ZM284.495 24.8164H285.478V29.4516H284.495V24.8164Z" fill="white"/>
<path d="M261.91 31.6499H262.903V39.6003H261.91V31.6499Z" fill="white"/>
<path d="M290.086 31.6499H291.079V39.6003H290.086V31.6499Z" fill="white"/>
<path d="M264.853 45.8239H269.547V46.755H264.853V45.8239ZM266.711 43.9894H267.694V48.6246H266.711V43.9894Z" fill="white"/>
<path d="M270.676 49.8721H275.127V50.8207H270.676V49.8721Z" fill="white"/>
<path d="M276.278 49.8721H280.729V50.8207H276.278V49.8721Z" fill="white"/>
<path d="M281.851 45.8239H286.545V46.755H281.851V45.8239ZM283.709 43.9894H284.692V48.6246H283.709V43.9894Z" fill="white"/>
<path d="M273.906 53.3329H274.899V61.2833H273.906V53.3329Z" fill="white"/>
<path d="M273.906 64.1742H274.899V72.1246H273.906V64.1742Z" fill="white"/>
<path d="M273.906 75.0159H274.899V82.9663H273.906V75.0159Z" fill="white"/>
<path d="M273.906 85.8569H274.899V93.8073H273.906V85.8569Z" fill="white"/>
<path d="M273.906 96.6986H274.899V104.649H273.906V96.6986Z" fill="white"/>
<path d="M265.558 113.013H266.984V114.404H265.558V113.013Z" fill="white"/>
<path d="M269.684 113.013H271.11V114.404H269.684V113.013Z" fill="white"/>
<path d="M274.05 107.54H275.043V115.49H274.05V107.54Z" fill="white"/>
<path d="M277.21 114.921H281.661V115.87H277.21V114.921Z" fill="white"/>
<path d="M261.706 124.369C261.445 123.707 261.312 123.027 261.312 122.327C261.312 121.862 261.37 121.403 261.483 120.949C261.598 120.495 261.771 120.053 262.002 119.626C262.233 119.2 262.524 118.798 262.872 118.424H263.945C263.602 118.803 263.319 119.202 263.098 119.621C262.875 120.04 262.712 120.475 262.606 120.921C262.501 121.37 262.448 121.835 262.448 122.317C262.448 123.004 262.571 123.679 262.82 124.344C263.065 125.009 263.441 125.657 263.948 126.282H262.875C262.358 125.667 261.967 125.029 261.706 124.367V124.369Z" fill="white"/>
<path d="M280.632 118.424H281.743L285.416 126.284H284.288L280.632 118.424Z" fill="white"/>
<path d="M264.329 129.268H265.44L269.113 137.128H267.985L264.329 129.268Z" fill="white"/>
<path d="M269.816 136.604H274.267V137.552H269.816V136.604Z" fill="white"/>
<path d="M275.422 136.604H279.873V137.552H275.422V136.604Z" fill="white"/>
<path d="M284.252 129.268H285.362L281.696 137.128H280.578L284.252 129.268Z" fill="white"/>
<path d="M273.906 140.062H274.899V148.012H273.906V140.062Z" fill="white"/>
<path d="M49.5488 18.3113H53.9997V19.2599H49.5488V18.3113Z" fill="#FF943F"/>
<path d="M55.1543 18.3113H59.6051V19.2599H55.1543V18.3113Z" fill="#FF943F"/>
<path d="M60.7588 18.3113H65.2096V19.2599H60.7588V18.3113Z" fill="#FF943F"/>
<path d="M66.3662 18.3113H70.8171V19.2599H66.3662V18.3113Z" fill="#FF943F"/>
<path d="M71.9746 18.3113H76.4255V19.2599H71.9746V18.3113Z" fill="#FF943F"/>
<path d="M77.5791 18.3113H82.0299V19.2599H77.5791V18.3113Z" fill="#FF943F"/>
<path d="M83.1807 18.3113H87.6315V19.2599H83.1807V18.3113Z" fill="#FF943F"/>
<path d="M88.7852 18.3113H93.236V19.2599H88.7852V18.3113Z" fill="#FF943F"/>
<path d="M94.3936 18.3113H98.8444V19.2599H94.3936V18.3113Z" fill="#FF943F"/>
<path d="M100.001 18.3113H104.452V19.2599H100.001V18.3113Z" fill="#FF943F"/>
<path d="M105.605 18.3113H110.056V19.2599H105.605V18.3113Z" fill="#FF943F"/>
<path d="M111.212 18.3113H115.663V19.2599H111.212V18.3113Z" fill="#FF943F"/>
<path d="M116.815 18.3113H121.266V19.2599H116.815V18.3113Z" fill="#FF943F"/>
<path d="M122.424 18.3113H126.875V19.2599H122.424V18.3113Z" fill="#FF943F"/>
<path d="M44.7731 21.8171H45.884L42.218 29.6772H41.0996L44.7731 21.8171Z" fill="#FF943F"/>
<path d="M130.039 21.8171H131.15L134.823 29.6772H133.695L130.039 21.8171Z" fill="#FF943F"/>
<path d="M40.7741 32.6587H41.8849L38.2189 40.5187H37.1006L40.7741 32.6587Z" fill="#FF943F"/>
<path d="M58.6211 39.9943H63.0719V40.9429H58.6211V39.9943Z" fill="#FF943F"/>
<path d="M64.2246 39.9943H68.6755V40.9429H64.2246V39.9943Z" fill="#FF943F"/>
<path d="M69.833 39.9943H74.2839V40.9429H69.833V39.9943Z" fill="#FF943F"/>
<path d="M75.4395 39.9943H79.8903V40.9429H75.4395V39.9943Z" fill="#FF943F"/>
<path d="M81.043 39.9943H85.4938V40.9429H81.043V39.9943Z" fill="#FF943F"/>
<path d="M86.6475 39.9943H91.0983V40.9429H86.6475V39.9943Z" fill="#FF943F"/>
<path d="M92.2559 39.9943H96.7067V40.9429H92.2559V39.9943Z" fill="#FF943F"/>
<path d="M97.8594 39.9943H102.31V40.9429H97.8594V39.9943Z" fill="#FF943F"/>
<path d="M103.466 39.9943H107.917V40.9429H103.466V39.9943Z" fill="#FF943F"/>
<path d="M109.073 39.9943H113.524V40.9429H109.073V39.9943Z" fill="#FF943F"/>
<path d="M134.112 32.6587H135.223L138.897 40.5187H137.768L134.112 32.6587Z" fill="#FF943F"/>
<path d="M36.7741 43.5H37.8849L34.2189 51.3601H33.1006L36.7741 43.5Z" fill="#FF943F"/>
<path d="M138.042 43.5H139.153L142.826 51.3601H141.698L138.042 43.5Z" fill="#FF943F"/>
<path d="M30.5732 54.2963H31.5662V62.2467H30.5732V54.2963Z" fill="#FF943F"/>
<path d="M57.7266 61.6772H62.1774V62.6259H57.7266V61.6772Z" fill="#FF943F"/>
<path d="M63.3311 61.6772H67.7819V62.6259H63.3311V61.6772Z" fill="#FF943F"/>
<path d="M68.9365 61.6772H73.3874V62.6259H68.9365V61.6772Z" fill="#FF943F"/>
<path d="M74.5449 61.6772H78.9958V62.6259H74.5449V61.6772Z" fill="#FF943F"/>
<path d="M80.1514 61.6772H84.6022V62.6259H80.1514V61.6772Z" fill="#FF943F"/>
<path d="M85.7549 61.6772H90.2057V62.6259H85.7549V61.6772Z" fill="#FF943F"/>
<path d="M91.3594 61.6772H95.8102V62.6259H91.3594V61.6772Z" fill="#FF943F"/>
<path d="M96.9678 61.6772H101.419V62.6259H96.9678V61.6772Z" fill="#FF943F"/>
<path d="M102.573 61.6772H107.024V62.6259H102.573V61.6772Z" fill="#FF943F"/>
<path d="M108.178 61.6772H112.629V62.6259H108.178V61.6772Z" fill="#FF943F"/>
<path d="M142.799 54.2963H143.792V62.2467H142.799V54.2963Z" fill="#FF943F"/>
<path d="M30.5732 65.1381H31.5662V73.0885H30.5732V65.1381Z" fill="#FF943F"/>
<path d="M142.726 65.1381H143.719V73.0885H142.726V65.1381Z" fill="#FF943F"/>
<path d="M32.9932 76.0242H34.104L37.7775 83.8842H36.6491L32.9932 76.0242Z" fill="#FF943F"/>
<path d="M58.3311 83.36H62.7819V84.3086H58.3311V83.36Z" fill="#FF943F"/>
<path d="M63.9375 83.36H68.3883V84.3086H63.9375V83.36Z" fill="#FF943F"/>
<path d="M69.5439 83.36H73.9948V84.3086H69.5439V83.36Z" fill="#FF943F"/>
<path d="M75.1475 83.36H79.5983V84.3086H75.1475V83.36Z" fill="#FF943F"/>
<path d="M80.752 83.36H85.2028V84.3086H80.752V83.36Z" fill="#FF943F"/>
<path d="M86.3604 83.36H90.8112V84.3086H86.3604V83.36Z" fill="#FF943F"/>
<path d="M91.9658 83.36H96.4167V84.3086H91.9658V83.36Z" fill="#FF943F"/>
<path d="M97.5703 83.36H102.021V84.3086H97.5703V83.36Z" fill="#FF943F"/>
<path d="M145.629 72.2438H150.08V73.1924H145.629V72.2438Z" fill="#FF943F"/>
<path d="M103.179 83.36H107.63V84.3086H103.179V83.36Z" fill="#FF943F"/>
<path d="M151.236 72.2438H155.687V73.1924H151.236V72.2438Z" fill="#FF943F"/>
<path d="M108.782 83.36H113.233V84.3086H108.782V83.36Z" fill="#FF943F"/>
<path d="M156.841 72.2438H161.292V73.1924H156.841V72.2438Z" fill="#FF943F"/>
<path d="M141.605 76.0242H142.716L139.05 83.8842H137.932L141.605 76.0242Z" fill="#FF943F"/>
<path d="M36.9922 86.866H38.103L41.7765 94.726H40.6482L36.9922 86.866Z" fill="#FF943F"/>
<path d="M137.532 86.866H138.643L134.977 94.726H133.858L137.532 86.866Z" fill="#FF943F"/>
<path d="M40.9893 97.7072H42.1001L45.7736 105.567H44.6452L40.9893 97.7072Z" fill="#FF943F"/>
<path d="M50.332 105.043H54.7829V105.992H50.332V105.043Z" fill="#FF943F"/>
<path d="M55.9385 105.043H60.3893V105.992H55.9385V105.043Z" fill="#FF943F"/>
<path d="M61.5449 105.043H65.9958V105.992H61.5449V105.043Z" fill="#FF943F"/>
<path d="M67.1494 105.043H71.6003V105.992H67.1494V105.043Z" fill="#FF943F"/>
<path d="M72.7568 105.043H77.2077V105.992H72.7568V105.043Z" fill="#FF943F"/>
<path d="M78.3613 105.043H82.8122V105.992H78.3613V105.043Z" fill="#FF943F"/>
<path d="M83.9688 105.043H88.4196V105.992H83.9688V105.043Z" fill="#FF943F"/>
<path d="M89.5752 105.043H94.026V105.992H89.5752V105.043Z" fill="#FF943F"/>
<path d="M95.1797 105.043H99.6305V105.992H95.1797V105.043Z" fill="#FF943F"/>
<path d="M100.787 105.043H105.238V105.992H100.787V105.043Z" fill="#FF943F"/>
<path d="M106.392 105.043H110.842V105.992H106.392V105.043Z" fill="#FF943F"/>
<path d="M111.998 105.043H116.449V105.992H111.998V105.043Z" fill="#FF943F"/>
<path d="M117.605 105.043H122.056V105.992H117.605V105.043Z" fill="#FF943F"/>
<path d="M123.206 105.043H127.657V105.992H123.206V105.043Z" fill="#FF943F"/>
<path d="M132.038 97.7072H133.149L129.483 105.567H128.364L132.038 97.7072Z" fill="#FF943F"/>
</g>
</g>
<defs>
<clipPath id="clip0_6266_12577">
<rect width="341" height="148" rx="12" fill="white"/>
</clipPath>
<clipPath id="clip1_6266_12577">
<rect width="303.82" height="240" fill="white" transform="translate(17.0898 -15.8462)"/>
</clipPath>
</defs>
</svg>
