<svg width="339" height="148" viewBox="0 0 339 148" fill="none" xmlns="http://www.w3.org/2000/svg">
<rect width="339" height="148" rx="12" fill="#3B2E29"/>
<g clip-path="url(#clip0_6364_2915)">
<path d="M69.9217 11H71.2163L66.9439 20.177H65.6406L69.9217 11Z" fill="white"/>
<path d="M150.654 11H151.949L156.23 20.177H154.915L150.654 11Z" fill="#F79345"/>
<path d="M166.204 19.5647H171.391V20.6723H166.204V19.5647Z" fill="#F79345"/>
<path d="M182.562 15.4507H186.002V16.611H182.562V15.4507Z" fill="#F79345"/>
<path d="M258.526 17.3406H260.189V18.9638H258.526V17.3406Z" fill="#F79345"/>
<path d="M60.6033 23.658H61.8979L57.6256 32.835H56.3223L60.6033 23.658Z" fill="white"/>
<path d="M68.6074 23.6052H69.7646V32.8877H68.6074V23.6052Z" fill="white"/>
<path d="M95.5908 32.2227H100.778V33.3302H95.5908V32.2227Z" fill="white"/>
<path d="M102.125 32.2227H107.312V33.3302H102.125V32.2227Z" fill="white"/>
<path d="M108.659 32.2227H113.846V33.3302H108.659V32.2227Z" fill="#F79345"/>
<path d="M115.19 32.2227H120.377V33.3302H115.19V32.2227Z" fill="#F79345"/>
<path d="M121.725 32.2227H126.912V33.3302H121.725V32.2227Z" fill="#F79345"/>
<path d="M152.747 23.6052H153.904V32.8877H152.747V23.6052Z" fill="#F79345"/>
<path d="M161.596 28.1086H165.035V29.269H161.596V28.1086Z" fill="#F79345"/>
<path d="M176.672 26.8957L177.797 25.6416L177.923 25.8526L176.26 25.4717L176.608 24.4813L178.112 25.1464L177.923 25.2636L177.753 23.6082H178.805L178.636 25.2636L178.457 25.1464L179.962 24.4813L180.298 25.4717L178.668 25.8409L178.752 25.6416L179.898 26.8957L179.024 27.4876L178.183 26.0518H178.381L177.54 27.4876L176.666 26.8957H176.672Z" fill="#F79345"/>
<path d="M191.052 32.2227H196.239V33.3302H191.052V32.2227Z" fill="#F79345"/>
<path d="M220.844 27.4964H226.314V28.5834H220.844V27.4964ZM223.012 25.3574H224.158V30.7693H223.012V25.3574Z" fill="#F79345"/>
<path d="M237.454 28.1086H240.894V29.269H237.454V28.1086Z" fill="#F79345"/>
<path d="M51.2811 36.3159H52.5756L48.3033 45.4929H47L51.2811 36.3159Z" fill="white"/>
<path d="M68.6074 36.2632H69.7646V45.5457H68.6074V36.2632Z" fill="white"/>
<path d="M81.6113 44.8804H86.7983V45.9879H81.6113V44.8804Z" fill="white"/>
<path d="M91.9002 36.3159H93.1948L88.9225 45.4929H87.6191L91.9002 36.3159Z" fill="white"/>
<path d="M110.488 36.2632H111.645V45.5457H110.488V36.2632Z" fill="#F79345"/>
<path d="M132.16 36.3159H133.455L137.736 45.4929H136.421L132.16 36.3159Z" fill="#F79345"/>
<path d="M138.557 44.8804H143.744V45.9879H138.557V44.8804Z" fill="#F79345"/>
<path d="M155.6 36.2632H156.757V45.5457H155.6V36.2632Z" fill="#F79345"/>
<path d="M167.948 36.3159H169.243L173.524 45.4929H172.209L167.948 36.3159Z" fill="#F79345"/>
<path d="M183.457 40.1543H188.927V41.2414H183.457V40.1543ZM185.622 38.0154H186.768V43.4272H185.622V38.0154Z" fill="#F79345"/>
<path d="M200.067 40.7666H203.507V41.9269H200.067V40.7666Z" fill="#F79345"/>
<path d="M243.409 42.6565H245.072V44.2798H243.409V42.6565Z" fill="#F79345"/>
<path d="M270.487 44.8804H275.674V45.9879H270.487V44.8804Z" fill="#F79345"/>
<path d="M47.041 48.9739H48.3356L52.6166 58.1509H51.3016L47.041 48.9739Z" fill="white"/>
<path d="M71.2607 48.9739H72.5553L76.8364 58.1509H75.5214L71.2607 48.9739Z" fill="white"/>
<path d="M81.4119 48.9739H82.7065L78.4342 58.1509H77.1309L81.4119 48.9739Z" fill="white"/>
<path d="M106.207 59.2847H109.647V60.445H106.207V59.2847Z" fill="white"/>
<path d="M110.679 48.9211H111.836V58.2036H110.679V48.9211Z" fill="#F79345"/>
<path d="M112.867 59.2847H116.307V60.445H112.867V59.2847Z" fill="#F79345"/>
<path d="M143.457 48.9739H144.752L149.033 58.1509H147.718L143.457 48.9739Z" fill="#F79345"/>
<path d="M153.609 48.9739H154.904L150.631 58.1509H149.328L153.609 48.9739Z" fill="#F79345"/>
<path d="M173.504 48.9739H174.798L170.526 58.1509H169.223L173.504 48.9739Z" fill="#F79345"/>
<path d="M189.641 57.5383H194.828V58.6459H189.641V57.5383Z" fill="#F79345"/>
<path d="M205.999 53.4246H209.439V54.5849H205.999V53.4246Z" fill="#F79345"/>
<path d="M220.561 52.8123H226.031V53.8994H220.561V52.8123ZM222.726 50.6733H223.871V56.0852H222.726V50.6733Z" fill="#F79345"/>
<path d="M241.832 53.4246H245.272V54.5849H241.832V53.4246Z" fill="#F79345"/>
<path d="M289.561 53.4246H293V54.5849H289.561V53.4246Z" fill="#F79345"/>
<path d="M56.1934 63.0381H57.4879L61.769 72.2151H60.454L56.1934 63.0381Z" fill="white"/>
<path d="M62.5898 71.6028H67.7768V72.7104H62.5898V71.6028Z" fill="white"/>
<path d="M72.8797 63.0381H74.1743L69.902 72.2151H68.5986L72.8797 63.0381Z" fill="white"/>
<path d="M104.13 69.5137C103.791 68.6552 103.621 67.7703 103.621 66.8649C103.621 66.2643 103.694 65.6665 103.843 65.0776C103.992 64.4886 104.214 63.9143 104.515 63.3606C104.816 62.8068 105.19 62.2852 105.643 61.8018H107.034C106.59 62.294 106.225 62.8126 105.936 63.3547C105.646 63.8968 105.436 64.4593 105.298 65.0424C105.161 65.6255 105.094 66.2291 105.094 66.8532C105.094 67.744 105.255 68.62 105.573 69.4844C105.892 70.3488 106.38 71.1868 107.034 71.9984H105.643C104.974 71.2014 104.469 70.3722 104.13 69.5137Z" fill="white"/>
<path d="M108.574 71.6028H113.761V72.7104H108.574V71.6028Z" fill="#F79345"/>
<path d="M118.204 64.2865C118.543 65.145 118.712 66.0299 118.712 66.9352C118.712 67.5359 118.639 68.1337 118.49 68.7226C118.341 69.3115 118.119 69.8858 117.818 70.4396C117.517 70.9934 117.143 71.515 116.69 71.9984H115.299C115.743 71.5062 116.108 70.9875 116.398 70.4455C116.687 69.9034 116.897 69.3408 117.035 68.7578C117.172 68.1747 117.239 67.5711 117.239 66.947C117.239 66.0562 117.078 65.1801 116.76 64.3158C116.441 63.4514 115.953 62.6134 115.299 61.8018H116.69C117.359 62.5987 117.865 63.4279 118.204 64.2865Z" fill="#F79345"/>
<path d="M147.992 63.0381H149.287L153.568 72.2151H152.253L147.992 63.0381Z" fill="#F79345"/>
<path d="M154.39 71.6028H159.577V72.7104H154.39V71.6028Z" fill="#F79345"/>
<path d="M164.679 63.0381H165.973L161.701 72.2151H160.397L164.679 63.0381Z" fill="#F79345"/>
<path d="M172.273 69.3789H173.936V71.0022H172.273V69.3789Z" fill="#F79345"/>
<path d="M181.616 65.7075H183.279V67.3308H181.616V65.7075ZM181.616 69.3789H183.279V71.0022H181.616V69.3789Z" fill="#F79345"/>
<path d="M200.015 67.489H203.454V68.6493H200.015V67.489Z" fill="#F79345"/>
<path d="M228.597 71.6028H233.784V72.7104H228.597V71.6028Z" fill="#F79345"/>
<path d="M254.245 66.2758L255.37 65.0218L255.496 65.2327L253.833 64.8518L254.181 63.8614L255.686 64.5266L255.496 64.6438L255.326 62.9883H256.378L256.209 64.6438L256.031 64.5266L257.535 63.8614L257.872 64.8518L256.241 65.221L256.326 65.0218L257.471 66.2758L256.597 66.8677L255.756 65.432H255.955L255.113 66.8677L254.239 66.2758H254.245Z" fill="#F79345"/>
<path d="M283.386 69.3789H285.048V71.0022H283.386V69.3789Z" fill="#F79345"/>
<path d="M67.3564 75.6433H68.5137V84.9258H67.3564V75.6433Z" fill="white"/>
<path d="M110.352 75.6433H111.509V84.9258H110.352V75.6433Z" fill="#F79345"/>
<path d="M153.831 80.147H157.271V81.3073H153.831V80.147Z" fill="#F79345"/>
<path d="M163.772 84.2607H168.959V85.3683H163.772V84.2607Z" fill="#F79345"/>
<path d="M175.471 80.147H178.91V81.3073H175.471V80.147Z" fill="#F79345"/>
<path d="M185.371 79.5345H190.842V80.6215H185.371V79.5345ZM187.536 77.3955H188.682V82.8074H187.536V77.3955Z" fill="#F79345"/>
<path d="M206.917 82.0369H208.58V83.6601H206.917V82.0369Z" fill="#F79345"/>
<path d="M67.3564 88.3013H68.5137V97.5838H67.3564V88.3013Z" fill="white"/>
<path d="M71.0381 96.9187H76.2251V98.0263H71.0381V96.9187Z" fill="white"/>
<path d="M110.424 88.3013H111.581V97.5838H110.424V88.3013Z" fill="#F79345"/>
<path d="M146.73 96.9187H151.917V98.0263H146.73V96.9187Z" fill="#F79345"/>
<path d="M154.451 88.3013H155.608V97.5838H154.451V88.3013Z" fill="#F79345"/>
<path d="M163.574 94.6948H165.237V96.3181H163.574V94.6948Z" fill="#F79345"/>
<path d="M172.516 92.8047H175.955V93.965H172.516V92.8047Z" fill="#F79345"/>
<path d="M182.96 92.8047H186.399V93.965H182.96V92.8047Z" fill="#F79345"/>
<path d="M235.321 91.5917L236.446 90.3377L236.572 90.5486L234.909 90.1677L235.257 89.1774L236.762 89.8425L236.572 89.9597L236.402 88.3042H237.454L237.285 89.9597L237.107 89.8425L238.612 89.1774L238.948 90.1677L237.317 90.5369L237.402 90.3377L238.547 91.5917L237.674 92.1836L236.832 90.7479H237.031L236.189 92.1836L235.315 91.5917H235.321Z" fill="#F79345"/>
<path d="M264.461 94.6948H266.124V96.3181H264.461V94.6948Z" fill="#F79345"/>
<path d="M74.8369 101.012H76.1315L80.4125 110.189H79.0975L74.8369 101.012Z" fill="white"/>
<path d="M81.2314 109.577H86.4184V110.684H81.2314V109.577Z" fill="white"/>
<path d="M110.415 100.959H111.572V110.242H110.415V100.959Z" fill="#F79345"/>
<path d="M132.738 109.577H137.925V110.684H132.738V109.577Z" fill="#F79345"/>
<path d="M144.437 105.463H147.876V106.623H144.437V105.463Z" fill="#F79345"/>
<path d="M159.544 105.463H162.983V106.623H159.544V105.463Z" fill="#F79345"/>
<path d="M178.805 109.577H183.992V110.684H178.805V109.577Z" fill="#F79345"/>
<path d="M190.505 105.463H193.944V106.623H190.505V105.463Z" fill="#F79345"/>
<path d="M210.546 107.353H212.209V108.976H210.546V107.353Z" fill="#F79345"/>
<path d="M224.146 105.463H227.586V106.623H224.146V105.463Z" fill="#F79345"/>
<path d="M88.8174 113.67H90.1119L94.393 122.847H93.078L88.8174 113.67Z" fill="white"/>
<path d="M95.2139 122.234H100.401V123.342H95.2139V122.234Z" fill="white"/>
<path d="M110.573 113.617H111.73V122.9H110.573V113.617Z" fill="#F79345"/>
<path d="M118.916 122.234H124.103V123.342H118.916V122.234Z" fill="#F79345"/>
<path d="M130.067 117.508H135.538V118.595H130.067V117.508ZM132.233 115.369H133.378V120.781H132.233V115.369Z" fill="#F79345"/>
<path d="M146.172 122.234H151.359V123.342H146.172V122.234Z" fill="#F79345"/>
<path d="M167.159 116.908L168.284 115.654L168.41 115.865L166.747 115.484L167.095 114.493L168.6 115.158L168.41 115.276L168.24 113.62H169.292L169.123 115.276L168.945 115.158L170.45 114.493L170.786 115.484L169.155 115.853L169.24 115.654L170.385 116.908L169.512 117.5L168.67 116.064H168.869L168.027 117.5L167.153 116.908H167.159Z" fill="#F79345"/>
<path d="M200.14 117.508H205.61V118.595H200.14V117.508ZM202.308 115.369H203.453V120.781H202.308V115.369Z" fill="#F79345"/>
<path d="M239.549 122.234H244.736V123.342H239.549V122.234Z" fill="#F79345"/>
<path d="M274.549 118.121H277.988V119.281H274.549V118.121Z" fill="#F79345"/>
<path d="M102.797 126.328H104.091L108.373 135.505H107.058L102.797 126.328Z" fill="white"/>
<path d="M110.384 126.275H111.541V135.557H110.384V126.275Z" fill="#F79345"/>
<path d="M117.82 126.328H119.115L114.842 135.505H113.539L117.82 126.328Z" fill="#F79345"/>
<path d="M120.883 132.668H122.546V134.292H120.883V132.668Z" fill="#F79345"/>
<path d="M139.145 130.779H142.584V131.939H139.145V130.779Z" fill="#F79345"/>
<path d="M154.652 128.997H156.315V130.62H154.652V128.997ZM154.652 132.668H156.315V134.292H154.652V132.668Z" fill="#F79345"/>
<path d="M167.888 134.893H173.075V136H167.888V134.893Z" fill="#F79345"/>
<path d="M179.585 130.779H183.024V131.939H179.585V130.779Z" fill="#F79345"/>
<path d="M190.032 130.779H193.472V131.939H190.032V130.779Z" fill="#F79345"/>
<path d="M213.953 134.893H219.14V136H213.953V134.893Z" fill="#F79345"/>
<path d="M230.587 132.668H232.25V134.292H230.587V132.668Z" fill="#F79345"/>
</g>
<defs>
<clipPath id="clip0_6364_2915">
<rect width="246" height="125" fill="white" transform="translate(47 11)"/>
</clipPath>
</defs>
</svg>
