<svg width="472" height="457" viewBox="0 0 472 457" fill="none" xmlns="http://www.w3.org/2000/svg">
<rect width="472" height="457" rx="12" fill="#3B2E29"/>
<g clip-path="url(#clip0_6364_4902)">
<path d="M295.862 66H305.423V68.0382H295.862V66Z" fill="white"/>
<path d="M307.901 66H317.462V68.0382H307.901V66Z" fill="white"/>
<path d="M319.945 66H329.506V68.0382H319.945V66Z" fill="white"/>
<path d="M331.984 66H341.545V68.0382H331.984V66Z" fill="white"/>
<path d="M344.028 66H353.589V68.0382H344.028V66Z" fill="white"/>
<path d="M356.072 66H365.633V68.0382H356.072V66Z" fill="white"/>
<path d="M368.111 66H377.672V68.0382H368.111V66Z" fill="white"/>
<path d="M380.155 66H389.716V68.0382H380.155V66Z" fill="white"/>
<path d="M392.194 66H401.755V68.0382H392.194V66Z" fill="white"/>
<path d="M404.238 66H413.799V68.0382H404.238V66Z" fill="white"/>
<path d="M289.463 73.4355H291.596V90.5173H289.463V73.4355Z" fill="white"/>
<path d="M313.121 89.2932H322.682V91.3314H313.121V89.2932Z" fill="white"/>
<path d="M325.003 89.2932H334.564V91.3314H325.003V89.2932Z" fill="white"/>
<path d="M336.892 89.2932H346.453V91.3314H336.892V89.2932Z" fill="white"/>
<path d="M348.779 89.2932H358.34V91.3314H348.779V89.2932Z" fill="white"/>
<path d="M360.667 89.2932H370.228V91.3314H360.667V89.2932Z" fill="white"/>
<path d="M372.555 89.2932H382.116V91.3314H372.555V89.2932Z" fill="white"/>
<path d="M420.371 73.4355H422.504V90.5173H420.371V73.4355Z" fill="white"/>
<path d="M115.464 112.586H125.025V114.625H115.464V112.586Z" fill="white"/>
<path d="M127.503 112.586H137.064V114.625H127.503V112.586Z" fill="white"/>
<path d="M139.547 112.586H149.108V114.625H139.547V112.586Z" fill="white"/>
<path d="M151.592 112.586H161.153V114.625H151.592V112.586Z" fill="white"/>
<path d="M163.63 112.586H173.191V114.625H163.63V112.586Z" fill="white"/>
<path d="M175.674 112.586H185.235V114.625H175.674V112.586Z" fill="white"/>
<path d="M187.713 112.586H197.274V114.625H187.713V112.586Z" fill="white"/>
<path d="M199.757 112.586H209.318V114.625H199.757V112.586Z" fill="white"/>
<path d="M211.802 112.586H221.363V114.625H211.802V112.586Z" fill="white"/>
<path d="M223.84 112.586H233.401V114.625H223.84V112.586Z" fill="white"/>
<path d="M235.884 112.586H245.445V114.625H235.884V112.586Z" fill="white"/>
<path d="M247.923 112.586H257.484V114.625H247.923V112.586Z" fill="white"/>
<path d="M261.637 108.489H264.702V111.476H261.637V108.489Z" fill="white"/>
<path d="M270.498 108.489H273.563V111.476H270.498V108.489Z" fill="white"/>
<path d="M279.358 108.489H282.423V111.476H279.358V108.489Z" fill="white"/>
<path d="M288.741 96.7288H290.874V113.81H288.741V96.7288Z" fill="white"/>
<path d="M313.644 105.016H319.983V107.151H313.644V105.016Z" fill="white"/>
<path d="M324.309 105.016H330.648V107.151H324.309V105.016Z" fill="white"/>
<path d="M334.974 105.016H341.314V107.151H334.974V105.016Z" fill="white"/>
<path d="M345.639 105.016H351.979V107.151H345.639V105.016Z" fill="white"/>
<path d="M356.304 105.016H362.644V107.151H356.304V105.016Z" fill="white"/>
<path d="M366.969 105.016H373.309V107.151H366.969V105.016Z" fill="white"/>
<path d="M421.847 96.7288H423.98V113.81H421.847V96.7288Z" fill="white"/>
<path d="M109.065 120.022H111.198V137.104H109.065V120.022Z" fill="white"/>
<path d="M116.784 128.309H123.124V130.445H116.784V128.309Z" fill="white"/>
<path d="M127.449 128.309H133.789V130.445H127.449V128.309Z" fill="white"/>
<path d="M138.114 128.309H144.454V130.445H138.114V128.309Z" fill="white"/>
<path d="M148.779 128.309H155.119V130.445H148.779V128.309Z" fill="white"/>
<path d="M159.445 128.309H165.785V130.445H159.445V128.309Z" fill="white"/>
<path d="M170.11 128.309H176.45V130.445H170.11V128.309Z" fill="white"/>
<path d="M180.775 128.309H187.115V130.445H180.775V128.309Z" fill="white"/>
<path d="M191.44 128.309H197.78V130.445H191.44V128.309Z" fill="white"/>
<path d="M202.105 128.309H208.445V130.445H202.105V128.309Z" fill="white"/>
<path d="M212.771 128.309H219.11V130.445H212.771V128.309Z" fill="white"/>
<path d="M223.437 128.309H229.776V130.445H223.437V128.309Z" fill="white"/>
<path d="M234.102 128.309H240.441V130.445H234.102V128.309Z" fill="white"/>
<path d="M244.767 128.309H251.106V130.445H244.767V128.309Z" fill="white"/>
<path d="M255.432 128.309H261.772V130.445H255.432V128.309Z" fill="white"/>
<path d="M266.097 128.309H272.437V130.445H266.097V128.309Z" fill="white"/>
<path d="M276.762 128.309H283.102V130.445H276.762V128.309Z" fill="white"/>
<path d="M288.688 120.022H290.821V137.104H288.688V120.022Z" fill="white"/>
<path d="M313.584 128.309H319.924V130.445H313.584V128.309Z" fill="white"/>
<path d="M324.249 128.309H330.589V130.445H324.249V128.309Z" fill="white"/>
<path d="M334.914 128.309H341.254V130.445H334.914V128.309Z" fill="white"/>
<path d="M345.58 128.309H351.92V130.445H345.58V128.309Z" fill="white"/>
<path d="M421.556 120.022H423.689V137.104H421.556V120.022Z" fill="white"/>
<path d="M109.065 143.315H111.198V160.397H109.065V143.315Z" fill="white"/>
<path d="M118.045 143.315H120.178V160.397H118.045V143.315Z" fill="white"/>
<path d="M290.239 143.315H292.372V160.397H290.239V143.315Z" fill="white"/>
<path d="M423.883 143.315H426.016V160.397H423.883V143.315Z" fill="white"/>
<path d="M109.065 166.608H111.198V183.69H109.065V166.608Z" fill="white"/>
<path d="M118.045 166.608H120.178V183.69H118.045V166.608Z" fill="white"/>
<path d="M290.239 166.608H292.372V183.69H290.239V166.608Z" fill="white"/>
<path d="M423.474 166.608H425.607V183.69H423.474V166.608Z" fill="white"/>
<path d="M109.065 189.902H111.198V206.983H109.065V189.902Z" fill="white"/>
<path d="M118.045 189.902H120.178V206.983H118.045V189.902Z" fill="white"/>
<path d="M290.239 189.902H292.372V206.983H290.239V189.902Z" fill="white"/>
<path d="M401.696 120.119H404.082L396.207 137.007H393.805L401.696 120.119Z" fill="#FF943F"/>
<path d="M387.524 143.412H389.91L382.035 160.3H379.633L387.524 143.412Z" fill="#FF943F"/>
<path d="M338.771 166.706H341.158L349.049 183.593H346.625L338.771 166.706Z" fill="#FF943F"/>
<path d="M374.354 166.706H376.74L368.865 183.593H366.463L374.354 166.706Z" fill="#FF943F"/>
<path d="M347.362 189.999H349.749L357.64 206.886H355.216L347.362 189.999Z" fill="#FF943F"/>
<path d="M366.075 189.999H368.461L360.586 206.886H358.184L366.075 189.999Z" fill="#FF943F"/>
<path d="M423.786 189.902H425.919V206.983H423.786V189.902Z" fill="white"/>
<path d="M109.065 213.195H111.198V230.277H109.065V213.195Z" fill="white"/>
<path d="M118.045 213.195H120.178V230.277H118.045V213.195Z" fill="white"/>
<path d="M290.239 213.195H292.372V230.277H290.239V213.195Z" fill="white"/>
<path d="M297.026 229.053H306.587V231.091H297.026V229.053Z" fill="white"/>
<path d="M309.064 229.053H318.625V231.091H309.064V229.053Z" fill="white"/>
<path d="M321.108 229.053H330.669V231.091H321.108V229.053Z" fill="white"/>
<path d="M333.147 229.053H342.708V231.091H333.147V229.053Z" fill="white"/>
<path d="M345.191 229.053H354.752V231.091H345.191V229.053Z" fill="white"/>
<path d="M357.236 229.053H366.797V231.091H357.236V229.053Z" fill="white"/>
<path d="M369.274 229.053H378.835V231.091H369.274V229.053Z" fill="white"/>
<path d="M381.318 229.053H390.879V231.091H381.318V229.053Z" fill="white"/>
<path d="M393.357 229.053H402.918V231.091H393.357V229.053Z" fill="white"/>
<path d="M405.401 229.053H414.962V231.091H405.401V229.053Z" fill="white"/>
<path d="M423.764 213.195H425.897V230.277H423.764V213.195Z" fill="white"/>
<path d="M109.065 236.488H111.198V253.57H109.065V236.488Z" fill="white"/>
<path d="M118.045 236.488H120.178V253.57H118.045V236.488Z" fill="white"/>
<path d="M124.831 252.346H134.392V254.384H124.831V252.346Z" fill="white"/>
<path d="M136.87 252.346H146.431V254.384H136.87V252.346Z" fill="white"/>
<path d="M148.914 252.346H158.475V254.384H148.914V252.346Z" fill="white"/>
<path d="M160.953 252.346H170.514V254.384H160.953V252.346Z" fill="white"/>
<path d="M172.997 252.346H182.558V254.384H172.997V252.346Z" fill="white"/>
<path d="M185.041 252.346H194.602V254.384H185.041V252.346Z" fill="white"/>
<path d="M197.08 252.346H206.641V254.384H197.08V252.346Z" fill="white"/>
<path d="M209.124 252.346H218.685V254.384H209.124V252.346Z" fill="white"/>
<path d="M221.163 252.346H230.724V254.384H221.163V252.346Z" fill="white"/>
<path d="M233.207 252.346H242.768V254.384H233.207V252.346Z" fill="white"/>
<path d="M245.251 252.346H254.812V254.384H245.251V252.346Z" fill="white"/>
<path d="M257.29 252.346H266.851V254.384H257.29V252.346Z" fill="white"/>
<path d="M269.334 252.346H278.895V254.384H269.334V252.346Z" fill="white"/>
<path d="M281.373 252.346H290.934V254.384H281.373V252.346Z" fill="white"/>
<path d="M293.417 252.346H302.978V254.384H293.417V252.346Z" fill="white"/>
<path d="M305.461 252.346H315.022V254.384H305.461V252.346Z" fill="white"/>
<path d="M317.5 252.346H327.061V254.384H317.5V252.346Z" fill="white"/>
<path d="M329.544 252.346H339.105V254.384H329.544V252.346Z" fill="white"/>
<path d="M343.253 248.248H346.318V251.235H343.253V248.248Z" fill="white"/>
<path d="M352.113 248.248H355.178V251.235H352.113V248.248Z" fill="white"/>
<path d="M361.502 236.488H363.635V253.57H361.502V236.488Z" fill="white"/>
<path d="M370.476 236.488H372.609V253.57H370.476V236.488Z" fill="white"/>
<path d="M109.065 259.781H111.198V276.863H109.065V259.781Z" fill="white"/>
<path d="M115.853 275.639H125.414V277.677H115.853V275.639Z" fill="white"/>
<path d="M127.891 275.639H137.452V277.677H127.891V275.639Z" fill="white"/>
<path d="M139.936 275.639H149.497V277.677H139.936V275.639Z" fill="white"/>
<path d="M151.979 275.639H161.54V277.677H151.979V275.639Z" fill="white"/>
<path d="M164.018 275.639H173.579V277.677H164.018V275.639Z" fill="white"/>
<path d="M176.062 275.639H185.623V277.677H176.062V275.639Z" fill="white"/>
<path d="M188.101 275.639H197.662V277.677H188.101V275.639Z" fill="white"/>
<path d="M200.145 275.639H209.706V277.677H200.145V275.639Z" fill="white"/>
<path d="M212.189 275.639H221.75V277.677H212.189V275.639Z" fill="white"/>
<path d="M224.228 275.639H233.789V277.677H224.228V275.639Z" fill="white"/>
<path d="M236.272 275.639H245.833V277.677H236.272V275.639Z" fill="white"/>
<path d="M248.311 275.639H257.872V277.677H248.311V275.639Z" fill="white"/>
<path d="M260.354 275.639H269.915V277.677H260.354V275.639Z" fill="white"/>
<path d="M272.399 275.639H281.96V277.677H272.399V275.639Z" fill="white"/>
<path d="M284.438 275.639H293.998V277.677H284.438V275.639Z" fill="white"/>
<path d="M296.481 275.639H306.042V277.677H296.481V275.639Z" fill="white"/>
<path d="M308.521 275.639H318.081V277.677H308.521V275.639Z" fill="white"/>
<path d="M320.564 275.639H330.125V277.677H320.564V275.639Z" fill="white"/>
<path d="M332.609 275.639H342.17V277.677H332.609V275.639Z" fill="white"/>
<path d="M344.647 275.639H354.208V277.677H344.647V275.639Z" fill="white"/>
<path d="M356.691 275.639H366.252V277.677H356.691V275.639Z" fill="white"/>
<path d="M370.923 259.781H373.056V276.863H370.923V259.781Z" fill="white"/>
<path d="M105.203 283.172H107.589L99.7139 300.059H97.3115L105.203 283.172Z" fill="white"/>
<path d="M117.441 295.595H127.353V297.827H117.441V295.595ZM121.147 286.606L121.573 286.741C121.379 287.156 121.061 287.534 120.625 287.879C120.183 288.224 119.693 288.499 119.144 288.715C118.594 288.93 118.05 289.06 117.506 289.114V286.822C118.4 286.693 119.224 286.369 119.989 285.851C120.754 285.334 121.282 284.795 121.578 284.239H123.652V297.827H121.153V286.606H121.147Z" fill="white"/>
<path d="M146.965 295.476C147.309 294.802 147.778 294.187 148.381 293.632C148.984 293.077 149.744 292.521 150.66 291.96L151.823 291.243C152.561 290.736 153.105 290.262 153.45 289.809C153.8 289.356 153.972 288.86 153.972 288.316C153.972 287.89 153.881 287.512 153.692 287.189C153.504 286.865 153.234 286.617 152.879 286.439C152.523 286.261 152.109 286.175 151.629 286.175C150.816 286.175 150.169 286.423 149.701 286.914C149.232 287.404 148.979 288.057 148.952 288.876H146.453C146.464 287.96 146.701 287.129 147.153 286.391C147.606 285.652 148.225 285.07 149.006 284.644C149.787 284.218 150.676 284.002 151.672 284.002C152.669 284.002 153.514 284.185 154.252 284.557C154.99 284.924 155.556 285.436 155.96 286.089C156.359 286.741 156.563 287.496 156.563 288.348C156.563 288.941 156.445 289.502 156.202 290.019C155.965 290.537 155.599 291.033 155.109 291.513C154.619 291.993 153.978 292.462 153.191 292.931L151.834 293.729L151.715 293.826C151.058 294.225 150.563 294.586 150.24 294.904C149.916 295.223 149.69 295.589 149.561 295.999L148.92 295.589H156.795V297.822H146.383C146.437 296.926 146.631 296.145 146.975 295.471L146.965 295.476Z" fill="white"/>
<path d="M178.427 297.514C177.614 297.153 176.967 296.635 176.499 295.972C176.025 295.304 175.777 294.538 175.75 293.67H178.271C178.336 294.381 178.621 294.937 179.122 295.33C179.628 295.724 180.318 295.924 181.196 295.924C181.998 295.924 182.65 295.74 183.156 295.368C183.663 295.002 183.91 294.5 183.91 293.864C183.91 293.449 183.808 293.104 183.598 292.823C183.393 292.543 183.108 292.333 182.752 292.192C182.397 292.052 181.988 291.977 181.519 291.977H180.14V289.782H181.228C181.95 289.782 182.526 289.62 182.946 289.297C183.366 288.973 183.577 288.531 183.577 287.976C183.577 287.598 183.48 287.275 183.286 286.995C183.092 286.714 182.822 286.504 182.472 286.353C182.122 286.202 181.718 286.132 181.25 286.132C180.474 286.132 179.86 286.331 179.407 286.725C178.955 287.119 178.696 287.647 178.632 288.305H176.111C176.138 287.474 176.375 286.736 176.827 286.083C177.28 285.431 177.894 284.919 178.669 284.552C179.445 284.185 180.318 283.997 181.287 283.997C182.203 283.997 183.033 284.158 183.77 284.482C184.508 284.805 185.085 285.248 185.505 285.814C185.925 286.374 186.135 287.016 186.135 287.728C186.135 288.348 185.979 288.882 185.661 289.329C185.343 289.777 184.939 290.122 184.438 290.37C183.937 290.618 183.41 290.758 182.839 290.796L183.129 290.639C183.814 290.693 184.411 290.871 184.912 291.184C185.419 291.497 185.807 291.89 186.087 292.37C186.367 292.85 186.501 293.384 186.501 293.982C186.501 294.797 186.264 295.514 185.785 296.139C185.306 296.759 184.665 297.234 183.867 297.568C183.065 297.897 182.176 298.064 181.19 298.064C180.156 298.064 179.23 297.881 178.416 297.52L178.427 297.514Z" fill="white"/>
<path d="M212.092 286.294L212.889 286.428L207.46 292.931L207.169 292.581H216.692V294.657H205.289V292.209L212.151 284.229H214.554V297.816H212.092V286.288V286.294Z" fill="white"/>
<path d="M237.969 297.552C237.215 297.218 236.611 296.743 236.164 296.134C235.717 295.525 235.459 294.818 235.378 294.02H237.899C238.001 294.613 238.292 295.077 238.771 295.406C239.251 295.735 239.849 295.902 240.576 295.902C241.093 295.902 241.551 295.805 241.944 295.611C242.337 295.417 242.639 295.12 242.844 294.727C243.048 294.333 243.156 293.864 243.156 293.319C243.156 292.775 243.054 292.311 242.844 291.923C242.633 291.535 242.337 291.238 241.944 291.039C241.551 290.839 241.088 290.737 240.56 290.737C240.032 290.737 239.563 290.85 239.116 291.076C238.669 291.303 238.303 291.599 238.023 291.961H235.793L236.471 284.234H245.16V286.445H237.462L238.588 285.63L238.2 290.542L237.872 290.445C238.297 289.901 238.814 289.469 239.412 289.157C240.01 288.844 240.694 288.682 241.459 288.682C242.289 288.682 243.032 288.871 243.689 289.254C244.346 289.637 244.864 290.176 245.23 290.866C245.596 291.556 245.785 292.349 245.785 293.244C245.785 294.214 245.564 295.061 245.127 295.789C244.686 296.511 244.072 297.072 243.285 297.466C242.499 297.859 241.594 298.059 240.57 298.059C239.547 298.059 238.739 297.892 237.98 297.552H237.969Z" fill="white"/>
<path d="M267.551 297.245C266.711 296.7 266.065 295.913 265.612 294.889C265.16 293.859 264.934 292.64 264.934 291.227C264.934 289.815 265.176 288.504 265.661 287.415C266.146 286.321 266.83 285.48 267.718 284.892C268.607 284.304 269.62 284.008 270.773 284.008C271.651 284.008 272.432 284.164 273.11 284.482C273.789 284.8 274.333 285.237 274.748 285.792C275.162 286.348 275.426 286.979 275.545 287.674H273.024C272.895 287.194 272.642 286.828 272.27 286.569C271.893 286.31 271.419 286.181 270.837 286.181C270.062 286.181 269.421 286.418 268.909 286.898C268.397 287.378 268.025 288.025 267.783 288.839C267.546 289.653 267.438 290.586 267.465 291.632L267.018 291.729C267.573 290.823 268.203 290.138 268.898 289.669C269.598 289.205 270.39 288.968 271.284 288.968C272.178 288.968 272.895 289.157 273.552 289.529C274.209 289.901 274.726 290.419 275.092 291.071C275.459 291.723 275.647 292.473 275.647 293.314C275.647 294.209 275.426 295.013 274.99 295.73C274.548 296.447 273.945 297.013 273.17 297.428C272.394 297.843 271.51 298.048 270.514 298.048C269.388 298.048 268.408 297.779 267.568 297.234L267.551 297.245ZM271.823 295.563C272.205 295.336 272.502 295.034 272.717 294.662C272.933 294.285 273.035 293.864 273.035 293.4C273.035 292.937 272.943 292.543 272.755 292.187C272.566 291.831 272.297 291.551 271.952 291.341C271.602 291.136 271.166 291.028 270.632 291.028C270.099 291.028 269.636 291.136 269.2 291.346C268.758 291.562 268.413 291.853 268.16 292.22C267.907 292.586 267.783 292.98 267.783 293.395C267.783 293.81 267.896 294.225 268.122 294.608C268.349 294.991 268.666 295.298 269.081 295.541C269.496 295.778 269.965 295.902 270.498 295.902C271.031 295.902 271.446 295.789 271.828 295.563H271.823Z" fill="white"/>
<path d="M297.597 292.818C298.157 291.357 298.847 290.095 299.655 289.033C300.463 287.97 301.389 287.005 302.44 286.143L302.731 286.455H294.646V284.245H304.707V286.574C302.973 287.933 301.691 289.518 300.856 291.33C300.021 293.141 299.542 295.309 299.413 297.832H296.563C296.692 295.956 297.037 294.284 297.603 292.823L297.597 292.818Z" fill="white"/>
<path d="M326.259 297.574C325.462 297.25 324.837 296.787 324.379 296.177C323.921 295.568 323.689 294.851 323.689 294.02C323.689 293.465 323.83 292.958 324.115 292.494C324.4 292.036 324.804 291.659 325.338 291.368C325.866 291.076 326.49 290.904 327.201 290.855L327.126 290.952C326.517 290.877 325.973 290.699 325.499 290.419C325.02 290.138 324.637 289.782 324.357 289.351C324.072 288.92 323.932 288.424 323.932 287.868C323.932 287.081 324.147 286.396 324.584 285.819C325.015 285.242 325.618 284.795 326.388 284.482C327.158 284.164 328.02 284.008 328.979 284.008C329.938 284.008 330.8 284.164 331.57 284.471C332.34 284.784 332.938 285.226 333.374 285.808C333.805 286.391 334.015 287.07 334.005 287.847C334.005 288.402 333.864 288.903 333.59 289.34C333.31 289.782 332.933 290.138 332.448 290.419C331.963 290.699 331.424 290.877 330.827 290.952L330.751 290.855C331.462 290.909 332.082 291.076 332.604 291.368C333.127 291.659 333.531 292.036 333.805 292.494C334.085 292.953 334.22 293.46 334.22 294.02C334.22 294.851 333.994 295.568 333.541 296.177C333.089 296.787 332.469 297.25 331.678 297.574C330.886 297.897 329.992 298.059 328.984 298.059C327.977 298.059 327.072 297.897 326.28 297.574H326.259ZM330.88 295.439C331.371 295.061 331.618 294.554 331.618 293.907C331.618 293.26 331.376 292.769 330.891 292.392C330.406 292.015 329.765 291.831 328.963 291.831C328.16 291.831 327.53 292.02 327.034 292.392C326.539 292.764 326.286 293.271 326.286 293.907C326.286 294.543 326.534 295.066 327.034 295.439C327.53 295.816 328.176 295.999 328.963 295.999C329.749 295.999 330.39 295.811 330.88 295.439ZM330.773 289.346C331.231 288.995 331.462 288.526 331.462 287.928C331.462 287.383 331.236 286.935 330.783 286.59C330.331 286.24 329.722 286.067 328.963 286.067C328.203 286.067 327.589 286.24 327.131 286.58C326.674 286.925 326.442 287.372 326.442 287.928C326.442 288.521 326.674 288.995 327.131 289.346C327.589 289.696 328.203 289.869 328.963 289.869C329.722 289.869 330.315 289.696 330.778 289.346H330.773Z" fill="white"/>
<path d="M356.024 297.563C355.307 297.234 354.725 296.775 354.278 296.193C353.831 295.611 353.562 294.942 353.476 294.193H355.997C356.099 294.737 356.374 295.153 356.81 295.444C357.252 295.735 357.79 295.88 358.437 295.88C359.482 295.88 360.263 295.438 360.774 294.559C361.286 293.681 361.545 292.462 361.561 290.909C361.054 291.61 360.5 292.133 359.886 292.489C359.272 292.845 358.566 293.023 357.763 293.023C356.912 293.023 356.158 292.839 355.506 292.467C354.855 292.101 354.343 291.588 353.977 290.936C353.61 290.284 353.422 289.545 353.422 288.715C353.422 287.809 353.643 287 354.079 286.288C354.521 285.576 355.129 285.016 355.91 284.611C356.691 284.201 357.575 284.002 358.555 284.002C359.681 284.002 360.661 284.272 361.491 284.816C362.32 285.361 362.967 286.148 363.408 287.183C363.855 288.218 364.076 289.469 364.076 290.931C364.076 292.392 363.845 293.681 363.376 294.754C362.913 295.827 362.256 296.646 361.41 297.207C360.564 297.768 359.573 298.053 358.431 298.053C357.537 298.053 356.735 297.886 356.018 297.557L356.024 297.563ZM359.843 290.656C360.273 290.44 360.613 290.16 360.861 289.804C361.108 289.448 361.227 289.054 361.227 288.628C361.227 288.202 361.114 287.819 360.888 287.442C360.661 287.065 360.343 286.757 359.939 286.52C359.53 286.283 359.067 286.159 358.555 286.159C358.043 286.159 357.623 286.267 357.225 286.477C356.832 286.693 356.524 286.984 356.314 287.361C356.099 287.739 355.997 288.165 355.997 288.644C355.997 289.097 356.088 289.496 356.277 289.847C356.465 290.197 356.735 290.472 357.09 290.672C357.446 290.871 357.876 290.974 358.377 290.974C358.921 290.974 359.406 290.866 359.843 290.656Z" fill="white"/>
<path d="M373.697 283.172H376.083L383.975 300.059H381.551L373.697 283.172Z" fill="white"/>
<path d="M79.4341 306.465H81.8203L73.9453 323.352H71.543L79.4341 306.465Z" fill="white"/>
<path d="M98.6694 318.381L99.0357 318.613C98.6102 319.454 98.0877 320.117 97.4629 320.603C96.8434 321.088 96.1701 321.331 95.4483 321.331C94.6835 321.331 94.0317 321.115 93.4877 320.689C92.9436 320.263 92.5289 319.664 92.2488 318.893C91.9633 318.122 91.8232 317.238 91.8232 316.246C91.8232 315.254 91.9633 314.353 92.2488 313.598C92.5343 312.844 92.9436 312.25 93.4823 311.825C94.0209 311.399 94.6619 311.183 95.4106 311.183C96.1216 311.183 96.7949 311.415 97.4359 311.884C98.0769 312.348 98.6048 313.011 99.0142 313.863L98.7233 314.154V311.377H101.126V324.42H98.6641V318.381H98.6694ZM97.3121 318.866C97.7107 318.618 98.05 318.268 98.3193 317.81C98.5886 317.351 98.7287 316.828 98.7287 316.246C98.7287 315.664 98.5886 315.13 98.3032 314.682C98.0177 314.235 97.6729 313.89 97.2636 313.642C96.8542 313.394 96.4718 313.275 96.1109 313.275C95.75 313.275 95.4322 313.383 95.1628 313.604C94.8935 313.825 94.6835 314.154 94.5326 314.596C94.3818 315.038 94.3118 315.577 94.3118 316.224C94.3118 317.206 94.4788 317.955 94.8181 318.467C95.1521 318.98 95.6045 319.233 96.1755 319.233C96.5364 319.233 96.9188 319.109 97.3174 318.866H97.3121Z" fill="white"/>
<path d="M120.253 311.377H122.655L124.422 319.335H124.056L125.898 311.377H128.397L130.299 319.314H129.949L131.672 311.377H134.058L131.559 321.12H128.844L127.024 313.453H127.277L125.435 321.12H122.682L120.258 311.377H120.253Z" fill="white"/>
<path d="M154.926 320.732C154.188 320.317 153.623 319.729 153.219 318.963C152.82 318.198 152.615 317.314 152.615 316.305C152.615 315.297 152.815 314.386 153.208 313.615C153.601 312.844 154.161 312.245 154.883 311.819C155.605 311.393 156.445 311.177 157.404 311.177C158.363 311.177 159.165 311.382 159.855 311.798C160.544 312.213 161.077 312.79 161.444 313.523C161.81 314.262 161.998 315.103 161.998 316.046V316.607H154.204V314.822H160.237L159.44 315.577V315.114C159.44 314.494 159.251 313.997 158.869 313.631C158.486 313.264 157.991 313.075 157.388 313.075C157 313.075 156.639 313.173 156.3 313.367C155.96 313.561 155.696 313.814 155.497 314.122C155.298 314.434 155.185 314.779 155.158 315.168C155.147 315.453 155.136 315.658 155.136 315.788C155.136 315.917 155.125 316.111 155.098 316.37C155.109 317.303 155.335 318.031 155.766 318.554C156.197 319.077 156.784 319.341 157.522 319.341C158.039 319.341 158.47 319.233 158.81 319.023C159.154 318.807 159.386 318.494 159.515 318.079H161.902C161.708 319.05 161.223 319.837 160.447 320.435C159.672 321.039 158.68 321.336 157.479 321.336C156.51 321.336 155.659 321.131 154.921 320.716L154.926 320.732Z" fill="white"/>
<path d="M182.148 311.377H184.572V314.504L184.281 313.998C184.632 313.146 185.084 312.455 185.639 311.938C186.194 311.42 186.84 311.161 187.578 311.161C188.214 311.161 188.736 311.312 189.151 311.609C189.566 311.905 189.867 312.315 190.061 312.844C190.255 313.367 190.352 313.981 190.352 314.677C190.352 314.963 190.347 315.2 190.33 315.394H188.138V315.044C188.138 314.499 188.014 314.084 187.772 313.793C187.524 313.501 187.179 313.356 186.727 313.356C186.35 313.356 186 313.491 185.671 313.755C185.343 314.019 185.084 314.386 184.896 314.849C184.707 315.313 184.615 315.831 184.615 316.402V321.12H182.154V311.377H182.148Z" fill="white"/>
<path d="M208.543 311.377H216.709V313.28H208.543V311.377ZM211.743 320.392C211.188 319.907 210.908 319.19 210.908 318.246V309.085L213.369 307.764V317.664C213.369 318.155 213.482 318.511 213.709 318.732C213.935 318.953 214.333 319.061 214.899 319.061H217.517V321.12H214.22C213.121 321.12 212.292 320.878 211.737 320.392H211.743Z" fill="white"/>
<path d="M235.766 322.344H237.781C238.287 322.344 238.648 322.285 238.874 322.172C239.1 322.053 239.283 321.81 239.429 321.433L239.854 320.387L239.914 321.746L235.863 311.382H238.481L241.196 319.071H240.555L243.269 311.382H245.866L241.578 322.29C241.384 322.797 241.142 323.207 240.851 323.525C240.56 323.843 240.215 324.07 239.822 324.215C239.429 324.355 238.96 324.431 238.416 324.431H235.761V322.355L235.766 322.344Z" fill="white"/>
<path d="M266.63 320.856C266.145 320.554 265.779 320.107 265.525 319.524C265.272 318.942 265.148 318.257 265.148 317.465V311.372H267.61V316.747C267.61 317.589 267.734 318.198 267.987 318.57C268.24 318.947 268.65 319.131 269.221 319.131C269.635 319.131 270.018 319.012 270.373 318.769C270.729 318.532 271.014 318.182 271.235 317.723C271.456 317.265 271.564 316.731 271.564 316.122V311.366H274.025V321.109H271.601V318.354L271.989 318.667C271.612 319.406 271.106 320.031 270.465 320.538C269.824 321.05 269.124 321.304 268.359 321.304C267.685 321.304 267.109 321.153 266.624 320.845L266.63 320.856Z" fill="white"/>
<path d="M294.214 319.255H300.554V321.12H294.214V319.255ZM294.462 311.377H298.496V313.221H294.462V311.377ZM295.916 307.532H298.846V310.131H295.916V307.532ZM296.131 311.377H298.593V320.5H296.131V311.377Z" fill="white"/>
<path d="M322.31 320.71C321.588 320.285 321.028 319.686 320.634 318.915C320.241 318.144 320.042 317.27 320.042 316.284C320.042 315.297 320.241 314.402 320.634 313.636C321.028 312.871 321.588 312.267 322.31 311.83C323.031 311.399 323.866 311.177 324.809 311.177C325.752 311.177 326.624 311.393 327.351 311.83C328.073 312.261 328.633 312.865 329.021 313.636C329.409 314.407 329.603 315.292 329.603 316.284C329.603 317.276 329.409 318.144 329.021 318.915C328.633 319.686 328.079 320.285 327.351 320.71C326.63 321.136 325.779 321.352 324.809 321.352C323.839 321.352 323.031 321.136 322.31 320.71ZM326.042 318.985C326.387 318.737 326.646 318.387 326.829 317.928C327.012 317.47 327.098 316.92 327.098 316.289C327.098 315.319 326.899 314.558 326.495 314.008C326.096 313.458 325.531 313.183 324.809 313.183C324.346 313.183 323.942 313.307 323.597 313.55C323.252 313.793 322.994 314.154 322.811 314.618C322.627 315.081 322.541 315.642 322.541 316.289C322.541 317.249 322.741 317.998 323.145 318.543C323.549 319.087 324.103 319.357 324.814 319.357C325.294 319.357 325.703 319.233 326.048 318.99L326.042 318.985Z" fill="white"/>
<path d="M349.555 311.377H351.979V314.154L351.688 313.863C352.086 313.011 352.609 312.348 353.25 311.884C353.891 311.42 354.569 311.183 355.297 311.183C356.024 311.183 356.692 311.399 357.225 311.825C357.764 312.25 358.173 312.844 358.458 313.598C358.744 314.353 358.884 315.238 358.884 316.246C358.884 317.254 358.744 318.128 358.458 318.893C358.173 319.664 357.758 320.263 357.209 320.689C356.659 321.115 356.008 321.331 355.259 321.331C354.769 321.331 354.3 321.223 353.864 321.002C353.422 320.781 353.018 320.468 352.641 320.058C352.264 319.648 351.936 319.168 351.65 318.613L352.016 318.381V324.42H349.555V311.377ZM355.518 318.899C355.798 318.672 356.008 318.338 356.159 317.89C356.309 317.443 356.379 316.893 356.379 316.23C356.379 315.259 356.223 314.526 355.905 314.024C355.588 313.523 355.151 313.275 354.596 313.275C354.236 313.275 353.848 313.399 353.444 313.642C353.034 313.89 352.69 314.235 352.404 314.682C352.119 315.13 351.979 315.647 351.979 316.246C351.979 316.844 352.113 317.351 352.388 317.81C352.657 318.268 352.997 318.624 353.395 318.866C353.794 319.109 354.176 319.233 354.537 319.233C354.898 319.233 355.237 319.12 355.518 318.893V318.899Z" fill="white"/>
<path d="M371.37 306.465H376.703V308.287H373.638V321.525H376.703V323.347H371.37V306.459V306.465Z" fill="white"/>
<path d="M395.318 306.465H397.705L405.596 323.352H403.172L395.318 306.465Z" fill="white"/>
<path d="M53.6656 329.758H56.0518L48.1768 346.646H45.7744L53.6656 329.758Z" fill="white"/>
<path d="M76.3586 344.257C75.863 344.009 75.4698 343.659 75.1843 343.2C74.8988 342.742 74.7588 342.208 74.7588 341.599C74.7588 340.618 75.0874 339.874 75.7391 339.367C76.3909 338.86 77.3174 338.596 78.5239 338.569L81.201 338.509V338.278C81.201 337.631 81.034 337.151 80.7054 336.833C80.3769 336.514 79.9082 336.358 79.2996 336.358C78.6909 336.358 78.2061 336.487 77.8722 336.746C77.5436 337.005 77.3658 337.318 77.3389 337.679H74.8557C74.9204 337.097 75.1412 336.558 75.5237 336.056C75.9061 335.56 76.4232 335.161 77.0857 334.87C77.7429 334.579 78.5024 334.433 79.3534 334.433C80.2691 334.433 81.0448 334.6 81.6696 334.94C82.2945 335.28 82.7685 335.743 83.0863 336.336C83.4041 336.93 83.5603 337.625 83.5603 338.412V341.75C83.5603 342.241 83.598 342.742 83.668 343.254C83.738 343.767 83.835 344.149 83.9481 344.408H81.5619C81.5619 344.408 81.5565 344.349 81.5403 344.311C81.4649 343.998 81.4003 343.643 81.3572 343.244C81.3141 342.845 81.298 342.424 81.3087 341.982L81.6589 342.311C81.4003 342.985 80.964 343.535 80.3499 343.971C79.7359 344.403 78.9764 344.624 78.0715 344.624C77.4251 344.624 76.8541 344.5 76.3532 344.257H76.3586ZM80.2853 342.316C80.7485 342.047 81.0556 341.669 81.1956 341.189V340.278L78.7502 340.337C78.2438 340.364 77.856 340.467 77.5759 340.65C77.2958 340.833 77.1612 341.114 77.1612 341.502C77.1612 341.89 77.3066 342.192 77.5975 342.402C77.8883 342.618 78.2708 342.721 78.7502 342.721C79.305 342.721 79.8167 342.586 80.2799 342.311L80.2853 342.316Z" fill="white"/>
<path d="M105.758 344.219C105.079 343.934 104.54 343.551 104.147 343.065C103.754 342.58 103.517 342.019 103.441 341.389H105.903C105.957 341.831 106.189 342.17 106.603 342.408C107.018 342.645 107.541 342.769 108.176 342.769C108.747 342.769 109.194 342.666 109.523 342.467C109.851 342.267 110.018 342.003 110.018 341.68C110.018 341.41 109.916 341.189 109.717 341.022C109.517 340.855 109.162 340.731 108.661 340.655L106.743 340.342C105.828 340.202 105.117 339.884 104.621 339.399C104.125 338.914 103.872 338.315 103.872 337.603C103.872 336.983 104.045 336.439 104.395 335.975C104.745 335.511 105.23 335.145 105.849 334.88C106.469 334.616 107.185 334.481 108.004 334.481C109.221 334.481 110.218 334.756 110.999 335.306C111.78 335.856 112.238 336.611 112.367 337.566H109.905C109.841 337.167 109.641 336.849 109.302 336.622C108.963 336.396 108.521 336.282 107.966 336.282C107.411 336.282 107.002 336.385 106.706 336.584C106.409 336.784 106.259 337.043 106.259 337.35C106.259 337.62 106.355 337.835 106.549 337.992C106.743 338.148 107.072 338.261 107.541 338.342L109.539 338.612C110.482 338.752 111.209 339.075 111.71 339.571C112.216 340.068 112.464 340.698 112.464 341.464C112.464 342.1 112.291 342.656 111.941 343.136C111.591 343.615 111.09 343.987 110.428 344.252C109.771 344.516 109 344.651 108.122 344.651C107.244 344.651 106.447 344.51 105.768 344.225L105.758 344.219Z" fill="white"/>
<path d="M133.67 343.988C133.126 343.562 132.711 342.963 132.431 342.192C132.146 341.421 132.006 340.537 132.006 339.545C132.006 338.553 132.146 337.652 132.431 336.897C132.717 336.142 133.126 335.549 133.665 335.123C134.204 334.697 134.845 334.482 135.593 334.482C136.073 334.482 136.53 334.584 136.972 334.794C137.414 334.999 137.823 335.307 138.206 335.706C138.588 336.105 138.922 336.59 139.202 337.161L138.852 337.453V330.831H141.314V344.419H138.911V341.664L139.224 341.896C138.809 342.748 138.292 343.421 137.662 343.907C137.031 344.392 136.358 344.635 135.636 344.635C134.871 344.635 134.22 344.419 133.676 343.993L133.67 343.988ZM137.489 342.16C137.888 341.912 138.227 341.561 138.497 341.103C138.766 340.645 138.906 340.122 138.906 339.539C138.906 338.957 138.766 338.423 138.48 337.976C138.195 337.528 137.85 337.183 137.441 336.935C137.031 336.687 136.649 336.568 136.288 336.568C135.927 336.568 135.609 336.676 135.34 336.897C135.071 337.118 134.861 337.447 134.71 337.889C134.559 338.332 134.489 338.871 134.489 339.518C134.489 340.499 134.656 341.249 134.995 341.761C135.329 342.273 135.782 342.526 136.353 342.526C136.714 342.526 137.096 342.402 137.495 342.16H137.489Z" fill="white"/>
<path d="M169.275 334.67H177.732V336.574H169.275V334.67ZM172.728 331.521C173.234 331.058 173.951 330.82 174.883 330.82H178.411V332.837H175.443C175.093 332.837 174.84 332.923 174.678 333.09C174.516 333.257 174.436 333.516 174.436 333.867V344.408H171.974V333.576C171.974 332.67 172.227 331.985 172.728 331.516V331.521Z" fill="white"/>
<path d="M199.057 347.568C198.4 347.314 197.872 346.958 197.484 346.489C197.096 346.026 196.854 345.476 196.768 344.839H199.251C199.353 345.201 199.58 345.492 199.919 345.702C200.264 345.918 200.721 346.02 201.303 346.02C202.003 346.02 202.553 345.837 202.962 345.476C203.372 345.114 203.571 344.564 203.571 343.826V341.324L203.921 341.615C203.495 342.418 202.978 343.049 202.37 343.508C201.761 343.966 201.088 344.198 200.355 344.198C199.623 344.198 198.992 343.993 198.438 343.588C197.883 343.179 197.452 342.613 197.15 341.879C196.849 341.146 196.692 340.316 196.692 339.383C196.692 338.45 196.843 337.576 197.15 336.838C197.452 336.099 197.883 335.522 198.432 335.102C198.982 334.681 199.612 334.471 200.323 334.471C200.813 334.471 201.287 334.579 201.739 334.789C202.192 335.005 202.607 335.312 202.989 335.722C203.372 336.131 203.695 336.633 203.97 337.226L203.619 337.458V334.665H206.043V343.75C206.043 345.082 205.634 346.117 204.81 346.845C203.991 347.579 202.849 347.94 201.389 347.94C200.495 347.94 199.72 347.816 199.062 347.562L199.057 347.568ZM202.23 341.841C202.623 341.604 202.957 341.265 203.226 340.833C203.495 340.402 203.636 339.917 203.636 339.388C203.636 338.86 203.495 338.358 203.221 337.922C202.941 337.49 202.601 337.151 202.203 336.913C201.804 336.676 201.422 336.552 201.061 336.552C200.7 336.552 200.371 336.66 200.08 336.87C199.79 337.086 199.563 337.404 199.402 337.83C199.24 338.256 199.159 338.768 199.159 339.361C199.159 340.256 199.343 340.952 199.703 341.448C200.064 341.944 200.538 342.197 201.12 342.197C201.47 342.197 201.842 342.079 202.235 341.836L202.23 341.841Z" fill="white"/>
<path d="M226.539 330.826H229.001V337.425L228.651 337.097C229.011 336.374 229.518 335.754 230.164 335.242C230.811 334.729 231.522 334.476 232.297 334.476C232.971 334.476 233.536 334.632 234.005 334.94C234.468 335.252 234.823 335.695 235.071 336.272C235.319 336.848 235.437 337.544 235.437 338.358V344.413H232.976V339.075C232.976 338.234 232.847 337.625 232.588 337.253C232.33 336.875 231.915 336.692 231.349 336.692C230.934 336.692 230.552 336.811 230.196 337.053C229.841 337.291 229.555 337.641 229.335 338.094C229.114 338.547 229.006 339.075 229.006 339.685V344.419H226.544V330.831L226.539 330.826Z" fill="white"/>
<path d="M254.597 345.654H257.193C257.425 345.654 257.624 345.61 257.796 345.53C257.969 345.449 258.087 345.314 258.163 345.131C258.238 344.947 258.281 344.737 258.281 344.489V334.665H260.743V345.05C260.743 345.891 260.489 346.543 259.989 347.012C259.482 347.476 258.787 347.713 257.893 347.713H254.597V345.654ZM255.916 334.67H260.646V336.514H255.916V334.67ZM258.066 330.826H260.974V333.425H258.066V330.826Z" fill="white"/>
<path d="M281.857 330.826H284.319V344.413H281.857V330.826ZM283.84 339.442L288.531 334.665H291.461L287.352 338.779L286.21 339.69L283.861 341.982L283.84 339.437V339.442ZM285.601 339.345L287.346 337.851L291.731 344.413H288.822L285.601 339.345Z" fill="white"/>
<path d="M318.976 342.548H325.569V344.413H318.976V342.548ZM319.169 330.826H323.495V332.67H319.169V330.826ZM321.028 331.311H323.489V343.95H321.028V331.311Z" fill="white"/>
<path d="M346.781 334.67H349.846V337.657H346.781V334.67ZM346.781 341.426H349.846V344.413H346.781V341.426Z" fill="white"/>
<path d="M365.93 332.379C365.666 332.6 365.531 332.939 365.531 333.409V333.678H367.007V336.665H363.942V333.716C363.942 333.08 364.039 332.546 364.233 332.104C364.427 331.662 364.745 331.316 365.192 331.063C365.639 330.81 366.242 330.68 367.007 330.664V332.023C366.555 332.034 366.194 332.152 365.93 332.373V332.379Z" fill="white"/>
<path d="M384.944 346.646H379.611V344.823H382.676V331.586H379.611V329.764H384.944V346.651V346.646Z" fill="white"/>
<path d="M413.584 329.758H415.97L423.861 346.646H421.437L413.584 329.758Z" fill="white"/>
<path d="M27.8912 353.052H30.2774L22.4024 369.939H20L27.8912 353.052Z" fill="white"/>
<path d="M49.0654 365.841L55.4268 359.279L55.68 359.899H49.2055V357.958H57.6999V359.975L51.4732 366.38L51.22 365.76H57.8346V367.701H49.0708V365.836L49.0654 365.841Z" fill="white"/>
<path d="M89.5551 361.9L89.4959 363.318L85.5584 357.958H88.4294L90.891 361.43H90.347L92.7924 357.958H95.6418L91.6882 363.296L91.6289 361.9L95.9327 367.701H93.0617L90.25 363.744H90.9502L88.1385 367.701H85.2891L89.5551 361.9Z" fill="white"/>
<path d="M125.547 367.297C124.836 366.871 124.287 366.272 123.899 365.512C123.511 364.746 123.317 363.868 123.317 362.87C123.317 361.873 123.517 360.988 123.91 360.223C124.303 359.452 124.858 358.853 125.569 358.416C126.28 357.985 127.115 357.764 128.068 357.764C128.919 357.764 129.673 357.926 130.325 358.249C130.977 358.573 131.499 359.02 131.887 359.597C132.275 360.174 132.507 360.843 132.587 361.608H130.088C130.024 361.064 129.813 360.622 129.458 360.277C129.102 359.931 128.634 359.764 128.052 359.764C127.6 359.764 127.206 359.888 126.867 360.131C126.533 360.379 126.275 360.73 126.091 361.188C125.908 361.646 125.822 362.201 125.822 362.849C125.822 363.83 126.021 364.59 126.425 365.129C126.824 365.669 127.384 365.933 128.095 365.933C128.677 365.933 129.135 365.749 129.474 365.388C129.808 365.027 130.018 364.547 130.094 363.954H132.555C132.464 364.741 132.227 365.437 131.839 366.041C131.451 366.644 130.934 367.108 130.287 367.437C129.641 367.766 128.892 367.933 128.036 367.933C127.093 367.933 126.264 367.717 125.553 367.292L125.547 367.297Z" fill="white"/>
<path d="M151.338 357.963H153.935L156.746 365.749H156.202L159.052 357.963H161.648L157.732 367.707H155.114L151.333 357.963H151.338Z" fill="white"/>
<path d="M193.756 367.588C193.309 367.367 192.905 367.054 192.534 366.645C192.167 366.235 191.839 365.75 191.553 365.178L191.882 364.946V367.701H189.458V354.114H191.92V360.735L191.591 360.444C192.006 359.592 192.528 358.929 193.164 358.465C193.8 358.001 194.478 357.764 195.2 357.764C195.922 357.764 196.595 357.98 197.128 358.406C197.662 358.832 198.076 359.425 198.362 360.18C198.647 360.935 198.787 361.819 198.787 362.827C198.787 363.835 198.647 364.709 198.362 365.475C198.076 366.246 197.662 366.844 197.112 367.27C196.563 367.696 195.911 367.912 195.162 367.912C194.672 367.912 194.203 367.804 193.756 367.583V367.588ZM195.421 365.485C195.701 365.259 195.911 364.925 196.062 364.477C196.213 364.03 196.283 363.48 196.283 362.816C196.283 361.846 196.126 361.113 195.809 360.611C195.491 360.115 195.055 359.862 194.5 359.862C194.139 359.862 193.751 359.986 193.347 360.228C192.943 360.471 192.593 360.821 192.307 361.269C192.022 361.716 191.882 362.234 191.882 362.833C191.882 363.431 192.017 363.938 192.291 364.396C192.561 364.855 192.9 365.21 193.299 365.453C193.697 365.701 194.08 365.82 194.44 365.82C194.801 365.82 195.141 365.706 195.421 365.48V365.485Z" fill="white"/>
<path d="M227.233 357.963H229.657V360.719L229.291 360.406C229.652 359.667 230.158 359.042 230.805 358.535C231.451 358.028 232.157 357.769 232.916 357.769C233.589 357.769 234.166 357.92 234.64 358.228C235.119 358.53 235.485 358.977 235.744 359.559C236.003 360.142 236.132 360.827 236.132 361.619V367.712H233.67V362.336C233.67 361.495 233.541 360.886 233.282 360.514C233.024 360.136 232.609 359.953 232.044 359.953C231.645 359.953 231.262 360.072 230.902 360.314C230.541 360.557 230.25 360.902 230.029 361.36C229.808 361.819 229.7 362.352 229.7 362.962V367.717H227.239V357.974L227.233 357.963Z" fill="white"/>
<path d="M264.465 357.963H266.813V360.368L266.544 360.212C266.829 359.462 267.217 358.864 267.718 358.427C268.214 357.985 268.79 357.769 269.437 357.769C269.9 357.769 270.309 357.883 270.659 358.109C271.009 358.335 271.29 358.648 271.505 359.042C271.72 359.435 271.866 359.905 271.941 360.449L271.575 360.217C271.844 359.495 272.264 358.902 272.835 358.449C273.406 357.996 274.058 357.769 274.796 357.769C275.367 357.769 275.852 357.909 276.25 358.184C276.649 358.465 276.956 358.875 277.161 359.419C277.365 359.964 277.473 360.622 277.473 361.398V367.707H275.087V361.711C275.087 361.118 274.985 360.665 274.775 360.352C274.564 360.039 274.247 359.888 273.805 359.888C273.509 359.888 273.229 359.985 272.97 360.18C272.712 360.374 272.512 360.659 272.367 361.031C272.227 361.409 272.151 361.851 272.151 362.369V367.707H269.803V361.765C269.803 361.145 269.695 360.676 269.485 360.357C269.27 360.039 268.952 359.883 268.526 359.883C268.23 359.883 267.955 359.98 267.702 360.174C267.449 360.368 267.244 360.654 267.093 361.026C266.937 361.403 266.862 361.846 266.862 362.363V367.701H264.476V357.958L264.465 357.963Z" fill="white"/>
<path d="M314.478 367.027L305.849 362.234V360.136L314.478 355.343V357.807L307.572 361.517L307.594 360.837L314.478 364.563V367.027Z" fill="white"/>
<path d="M344.551 364.563L351.435 360.837L351.456 361.517L344.551 357.807V355.343L353.18 360.136V362.234L344.551 367.027V364.563Z" fill="white"/>
<path d="M384.847 362.029C384.938 361.7 385.094 361.387 385.321 361.096C385.547 360.805 385.859 360.498 386.263 360.174L387.06 359.495C387.346 359.247 387.572 358.993 387.739 358.729C387.906 358.465 387.992 358.141 387.992 357.769C387.992 357.225 387.825 356.788 387.497 356.459C387.168 356.13 386.683 355.963 386.053 355.963C385.423 355.963 384.954 356.157 384.577 356.545C384.2 356.934 384.017 357.44 384.017 358.061V358.179H381.652V358.023C381.652 357.246 381.835 356.545 382.196 355.915C382.557 355.289 383.08 354.793 383.758 354.432C384.437 354.071 385.234 353.887 386.155 353.887C387.023 353.887 387.782 354.044 388.445 354.362C389.102 354.68 389.614 355.122 389.969 355.694C390.325 356.265 390.502 356.923 390.502 357.672C390.502 358.357 390.352 358.95 390.055 359.446C389.759 359.942 389.307 360.438 388.698 360.929L387.884 361.571C387.551 361.84 387.308 362.115 387.168 362.396C387.028 362.676 386.953 362.994 386.953 363.355V363.55H384.723V363.199C384.723 362.746 384.766 362.353 384.857 362.024L384.847 362.029ZM384.362 364.854H387.33V367.707H384.362V364.854Z" fill="white"/>
<path d="M410.152 360.115H420.236V362.115H410.152V360.115ZM414.149 356.173H416.261V366.132H414.149V356.173Z" fill="white"/>
<path d="M438.636 353.052H441.022L448.913 369.939H446.489L438.636 353.052Z" fill="white"/>
<path d="M22.6396 381.257H25.7045V384.244H22.6396V381.257ZM22.6396 388.008H25.7045V390.995H22.6396V388.008Z" fill="white"/>
<path d="M31.5166 381.257H34.5815V384.244H31.5166V381.257ZM31.5166 388.008H34.5815V390.995H31.5166V388.008Z" fill="white"/>
<path d="M40.3984 381.257H43.4633V384.244H40.3984V381.257ZM40.3984 388.008H43.4633V390.995H40.3984V388.008Z" fill="white"/>
<path d="M49.2812 381.257H52.3461V384.244H49.2812V381.257ZM49.2812 388.008H52.3461V390.995H49.2812V388.008Z" fill="white"/>
<path d="M58.1631 381.257H61.228V384.244H58.1631V381.257ZM58.1631 388.008H61.228V390.995H58.1631V388.008Z" fill="white"/>
<path d="M67.0449 381.257H70.1098V384.244H67.0449V381.257ZM67.0449 388.008H70.1098V390.995H67.0449V388.008Z" fill="white"/>
<path d="M75.9219 381.257H78.9868V384.244H75.9219V381.257ZM75.9219 388.008H78.9868V390.995H75.9219V388.008Z" fill="white"/>
<path d="M84.8047 381.257H87.8696V384.244H84.8047V381.257ZM84.8047 388.008H87.8696V390.995H84.8047V388.008Z" fill="white"/>
<path d="M93.6865 381.257H96.7514V384.244H93.6865V381.257ZM93.6865 388.008H96.7514V390.995H93.6865V388.008Z" fill="white"/>
<path d="M102.569 381.257H105.634V384.244H102.569V381.257ZM102.569 388.008H105.634V390.995H102.569V388.008Z" fill="white"/>
<path d="M111.451 381.257H114.516V384.244H111.451V381.257ZM111.451 388.008H114.516V390.995H111.451V388.008Z" fill="white"/>
<path d="M120.328 381.257H123.393V384.244H120.328V381.257ZM120.328 388.008H123.393V390.995H120.328V388.008Z" fill="white"/>
<path d="M129.211 381.257H132.276V384.244H129.211V381.257ZM129.211 388.008H132.276V390.995H129.211V388.008Z" fill="white"/>
<path d="M138.093 381.257H141.158V384.244H138.093V381.257ZM138.093 388.008H141.158V390.995H138.093V388.008Z" fill="white"/>
<path d="M146.976 381.257H150.04V384.244H146.976V381.257ZM146.976 388.008H150.04V390.995H146.976V388.008Z" fill="white"/>
<path d="M155.857 381.257H158.922V384.244H155.857V381.257ZM155.857 388.008H158.922V390.995H155.857V388.008Z" fill="white"/>
<path d="M164.734 381.257H167.799V384.244H164.734V381.257ZM164.734 388.008H167.799V390.995H164.734V388.008Z" fill="white"/>
<path d="M173.616 381.257H176.681V384.244H173.616V381.257ZM173.616 388.008H176.681V390.995H173.616V388.008Z" fill="white"/>
<path d="M182.499 381.257H185.564V384.244H182.499V381.257ZM182.499 388.008H185.564V390.995H182.499V388.008Z" fill="white"/>
<path d="M191.381 381.257H194.446V384.244H191.381V381.257ZM191.381 388.008H194.446V390.995H191.381V388.008Z" fill="white"/>
<path d="M200.264 381.257H203.329V384.244H200.264V381.257ZM200.264 388.008H203.329V390.995H200.264V388.008Z" fill="white"/>
<path d="M209.141 381.257H212.206V384.244H209.141V381.257ZM209.141 388.008H212.206V390.995H209.141V388.008Z" fill="white"/>
<path d="M218.022 381.257H221.087V384.244H218.022V381.257ZM218.022 388.008H221.087V390.995H218.022V388.008Z" fill="white"/>
<path d="M226.905 381.257H229.97V384.244H226.905V381.257ZM226.905 388.008H229.97V390.995H226.905V388.008Z" fill="white"/>
<path d="M235.787 381.257H238.852V384.244H235.787V381.257ZM235.787 388.008H238.852V390.995H235.787V388.008Z" fill="white"/>
<path d="M244.67 381.257H247.735V384.244H244.67V381.257ZM244.67 388.008H247.735V390.995H244.67V388.008Z" fill="white"/>
<path d="M253.547 381.257H256.612V384.244H253.547V381.257ZM253.547 388.008H256.612V390.995H253.547V388.008Z" fill="white"/>
<path d="M262.429 381.257H265.494V384.244H262.429V381.257ZM262.429 388.008H265.494V390.995H262.429V388.008Z" fill="white"/>
<path d="M271.311 381.257H274.375V384.244H271.311V381.257ZM271.311 388.008H274.375V390.995H271.311V388.008Z" fill="white"/>
<path d="M280.193 381.257H283.258V384.244H280.193V381.257ZM280.193 388.008H283.258V390.995H280.193V388.008Z" fill="white"/>
<path d="M289.075 381.257H292.14V384.244H289.075V381.257ZM289.075 388.008H292.14V390.995H289.075V388.008Z" fill="white"/>
<path d="M297.952 381.257H301.017V384.244H297.952V381.257ZM297.952 388.008H301.017V390.995H297.952V388.008Z" fill="white"/>
<path d="M306.835 381.257H309.9V384.244H306.835V381.257ZM306.835 388.008H309.9V390.995H306.835V388.008Z" fill="white"/>
<path d="M315.717 381.257H318.782V384.244H315.717V381.257ZM315.717 388.008H318.782V390.995H315.717V388.008Z" fill="white"/>
<path d="M324.6 381.257H327.665V384.244H324.6V381.257ZM324.6 388.008H327.665V390.995H324.6V388.008Z" fill="white"/>
<path d="M333.481 381.257H336.546V384.244H333.481V381.257ZM333.481 388.008H336.546V390.995H333.481V388.008Z" fill="white"/>
<path d="M342.358 381.257H345.423V384.244H342.358V381.257ZM342.358 388.008H345.423V390.995H342.358V388.008Z" fill="white"/>
<path d="M351.241 381.257H354.306V384.244H351.241V381.257ZM351.241 388.008H354.306V390.995H351.241V388.008Z" fill="white"/>
<path d="M360.123 381.257H363.188V384.244H360.123V381.257ZM360.123 388.008H363.188V390.995H360.123V388.008Z" fill="white"/>
<path d="M369.005 381.257H372.07V384.244H369.005V381.257ZM369.005 388.008H372.07V390.995H369.005V388.008Z" fill="white"/>
<path d="M377.888 381.257H380.953V384.244H377.888V381.257ZM377.888 388.008H380.953V390.995H377.888V388.008Z" fill="white"/>
<path d="M386.765 381.257H389.83V384.244H386.765V381.257ZM386.765 388.008H389.83V390.995H386.765V388.008Z" fill="white"/>
<path d="M395.646 381.257H398.711V384.244H395.646V381.257ZM395.646 388.008H398.711V390.995H395.646V388.008Z" fill="white"/>
<path d="M404.529 381.257H407.594V384.244H404.529V381.257ZM404.529 388.008H407.594V390.995H404.529V388.008Z" fill="white"/>
<path d="M413.411 381.257H416.476V384.244H413.411V381.257ZM413.411 388.008H416.476V390.995H413.411V388.008Z" fill="white"/>
<path d="M422.294 381.257H425.359V384.244H422.294V381.257ZM422.294 388.008H425.359V390.995H422.294V388.008Z" fill="white"/>
<path d="M431.171 381.257H434.236V384.244H431.171V381.257ZM431.171 388.008H434.236V390.995H431.171V388.008Z" fill="white"/>
<path d="M440.053 381.257H443.118V384.244H440.053V381.257ZM440.053 388.008H443.118V390.995H440.053V388.008Z" fill="white"/>
<path d="M448.936 381.257H452V384.244H448.936V381.257ZM448.936 388.008H452V390.995H448.936V388.008Z" fill="white"/>
</g>
<defs>
<clipPath id="clip0_6364_4902">
<rect width="432" height="325" fill="white" transform="translate(20 66)"/>
</clipPath>
</defs>
</svg>
