<svg width="341" height="148" viewBox="0 0 341 148" fill="none" xmlns="http://www.w3.org/2000/svg">
<rect width="341" height="148" rx="12" fill="#3B2E29"/>
<g clip-path="url(#clip0_6364_2189)">
<path d="M178.666 6H182.605V6.84035H178.666V6Z" fill="white"/>
<path d="M183.626 6H187.565V6.84035H183.626V6Z" fill="white"/>
<path d="M188.589 6H192.528V6.84035H188.589V6Z" fill="white"/>
<path d="M193.549 6H197.488V6.84035H193.549V6Z" fill="white"/>
<path d="M198.512 6H202.451V6.84035H198.512V6Z" fill="white"/>
<path d="M203.475 6H207.414V6.84035H203.475V6Z" fill="white"/>
<path d="M208.435 6H212.374V6.84035H208.435V6Z" fill="white"/>
<path d="M213.397 6H217.337V6.84035H213.397V6Z" fill="white"/>
<path d="M218.357 6H222.297V6.84035H218.357V6Z" fill="white"/>
<path d="M223.32 6H227.26V6.84035H223.32V6Z" fill="white"/>
<path d="M176.029 9.06567H176.908V16.1086H176.029V9.06567Z" fill="white"/>
<path d="M185.776 15.604H189.716V16.4444H185.776V15.604Z" fill="white"/>
<path d="M190.673 15.604H194.612V16.4444H190.673V15.604Z" fill="white"/>
<path d="M195.571 15.604H199.511V16.4444H195.571V15.604Z" fill="white"/>
<path d="M200.469 15.604H204.408V16.4444H200.469V15.604Z" fill="white"/>
<path d="M205.367 15.604H209.307V16.4444H205.367V15.604Z" fill="white"/>
<path d="M210.266 15.604H214.205V16.4444H210.266V15.604Z" fill="white"/>
<path d="M229.968 9.06567H230.847V16.1086H229.968V9.06567Z" fill="white"/>
<path d="M104.335 25.208H108.274V26.0484H104.335V25.208Z" fill="white"/>
<path d="M109.295 25.208H113.234V26.0484H109.295V25.208Z" fill="white"/>
<path d="M114.258 25.208H118.197V26.0484H114.258V25.208Z" fill="white"/>
<path d="M119.221 25.208H123.16V26.0484H119.221V25.208Z" fill="white"/>
<path d="M124.181 25.208H128.12V26.0484H124.181V25.208Z" fill="white"/>
<path d="M129.144 25.208H133.083V26.0484H129.144V25.208Z" fill="white"/>
<path d="M134.104 25.208H138.043V26.0484H134.104V25.208Z" fill="white"/>
<path d="M139.066 25.208H143.006V26.0484H139.066V25.208Z" fill="white"/>
<path d="M144.029 25.208H147.969V26.0484H144.029V25.208Z" fill="white"/>
<path d="M148.989 25.208H152.929V26.0484H148.989V25.208Z" fill="white"/>
<path d="M153.952 25.208H157.892V26.0484H153.952V25.208Z" fill="white"/>
<path d="M158.913 25.208H162.853V26.0484H158.913V25.208Z" fill="white"/>
<path d="M164.563 23.5183H165.826V24.7499H164.563V23.5183Z" fill="white"/>
<path d="M168.214 23.5183H169.477V24.7499H168.214V23.5183Z" fill="white"/>
<path d="M171.865 23.5183H173.128V24.7499H171.865V23.5183Z" fill="white"/>
<path d="M175.731 18.6697H176.61V25.7126H175.731V18.6697Z" fill="white"/>
<path d="M185.992 22.0867H188.604V22.967H185.992V22.0867Z" fill="white"/>
<path d="M190.387 22.0867H192.999V22.967H190.387V22.0867Z" fill="white"/>
<path d="M194.781 22.0867H197.394V22.967H194.781V22.0867Z" fill="white"/>
<path d="M199.175 22.0867H201.787V22.967H199.175V22.0867Z" fill="white"/>
<path d="M203.569 22.0867H206.182V22.967H203.569V22.0867Z" fill="white"/>
<path d="M207.964 22.0867H210.576V22.967H207.964V22.0867Z" fill="white"/>
<path d="M230.575 18.6697H231.454V25.7126H230.575V18.6697Z" fill="white"/>
<path d="M101.698 28.2737H102.577V35.3166H101.698V28.2737Z" fill="white"/>
<path d="M104.879 31.6907H107.491V32.571H104.879V31.6907Z" fill="white"/>
<path d="M109.273 31.6907H111.886V32.571H109.273V31.6907Z" fill="white"/>
<path d="M113.668 31.6907H116.28V32.571H113.668V31.6907Z" fill="white"/>
<path d="M118.062 31.6907H120.674V32.571H118.062V31.6907Z" fill="white"/>
<path d="M122.456 31.6907H125.068V32.571H122.456V31.6907Z" fill="white"/>
<path d="M126.851 31.6907H129.463V32.571H126.851V31.6907Z" fill="white"/>
<path d="M131.245 31.6907H133.857V32.571H131.245V31.6907Z" fill="white"/>
<path d="M135.64 31.6907H138.252V32.571H135.64V31.6907Z" fill="white"/>
<path d="M140.034 31.6907H142.646V32.571H140.034V31.6907Z" fill="white"/>
<path d="M144.429 31.6907H147.041V32.571H144.429V31.6907Z" fill="white"/>
<path d="M148.823 31.6907H151.436V32.571H148.823V31.6907Z" fill="white"/>
<path d="M153.218 31.6907H155.83V32.571H153.218V31.6907Z" fill="white"/>
<path d="M157.612 31.6907H160.225V32.571H157.612V31.6907Z" fill="white"/>
<path d="M162.007 31.6907H164.619V32.571H162.007V31.6907Z" fill="white"/>
<path d="M166.401 31.6907H169.014V32.571H166.401V31.6907Z" fill="white"/>
<path d="M170.796 31.6907H173.408V32.571H170.796V31.6907Z" fill="white"/>
<path d="M175.709 28.2737H176.588V35.3166H175.709V28.2737Z" fill="white"/>
<path d="M185.968 31.6907H188.58V32.571H185.968V31.6907Z" fill="white"/>
<path d="M190.362 31.6907H192.975V32.571H190.362V31.6907Z" fill="white"/>
<path d="M194.757 31.6907H197.369V32.571H194.757V31.6907Z" fill="white"/>
<path d="M199.15 31.6907H201.763V32.571H199.15V31.6907Z" fill="white"/>
<path d="M230.456 28.2737H231.335V35.3166H230.456V28.2737Z" fill="white"/>
<path d="M101.698 37.8777H102.577V44.9206H101.698V37.8777Z" fill="white"/>
<path d="M105.398 37.8777H106.277V44.9206H105.398V37.8777Z" fill="white"/>
<path d="M176.349 37.8777H177.228V44.9206H176.349V37.8777Z" fill="white"/>
<path d="M231.415 37.8777H232.294V44.9206H231.415V37.8777Z" fill="white"/>
<path d="M101.698 47.4817H102.577V54.5246H101.698V47.4817Z" fill="white"/>
<path d="M105.398 47.4817H106.277V54.5246H105.398V47.4817Z" fill="white"/>
<path d="M176.349 47.4817H177.228V54.5246H176.349V47.4817Z" fill="white"/>
<path d="M231.246 47.4817H232.125V54.5246H231.246V47.4817Z" fill="white"/>
<path d="M101.698 57.0857H102.577V64.1286H101.698V57.0857Z" fill="white"/>
<path d="M105.398 57.0857H106.277V64.1286H105.398V57.0857Z" fill="white"/>
<path d="M176.349 57.0857H177.228V64.1286H176.349V57.0857Z" fill="white"/>
<path d="M222.273 28.3137H223.256L220.011 35.2766H219.021L222.273 28.3137Z" fill="#FF943F"/>
<path d="M216.433 37.9177H217.416L214.172 44.8806H213.182L216.433 37.9177Z" fill="#FF943F"/>
<path d="M196.346 47.5217H197.329L200.58 54.4846H199.582L196.346 47.5217Z" fill="#FF943F"/>
<path d="M211.007 47.5217H211.991L208.746 54.4846H207.756L211.007 47.5217Z" fill="#FF943F"/>
<path d="M199.886 57.1257H200.869L204.12 64.0886H203.122L199.886 57.1257Z" fill="#FF943F"/>
<path d="M207.595 57.1257H208.578L205.334 64.0886H204.344L207.595 57.1257Z" fill="#FF943F"/>
<path d="M231.375 57.0857H232.254V64.1286H231.375V57.0857Z" fill="white"/>
<path d="M101.698 66.6897H102.577V73.7326H101.698V66.6897Z" fill="white"/>
<path d="M105.398 66.6897H106.277V73.7326H105.398V66.6897Z" fill="white"/>
<path d="M176.349 66.6897H177.228V73.7326H176.349V66.6897Z" fill="white"/>
<path d="M179.145 73.2278H183.084V74.0681H179.145V73.2278Z" fill="white"/>
<path d="M184.105 73.2278H188.045V74.0681H184.105V73.2278Z" fill="white"/>
<path d="M189.068 73.2278H193.008V74.0681H189.068V73.2278Z" fill="white"/>
<path d="M194.028 73.2278H197.968V74.0681H194.028V73.2278Z" fill="white"/>
<path d="M198.991 73.2278H202.931V74.0681H198.991V73.2278Z" fill="white"/>
<path d="M203.954 73.2278H207.894V74.0681H203.954V73.2278Z" fill="white"/>
<path d="M208.914 73.2278H212.854V74.0681H208.914V73.2278Z" fill="white"/>
<path d="M213.877 73.2278H217.816V74.0681H213.877V73.2278Z" fill="white"/>
<path d="M218.837 73.2278H222.776V74.0681H218.837V73.2278Z" fill="white"/>
<path d="M223.8 73.2278H227.739V74.0681H223.8V73.2278Z" fill="white"/>
<path d="M231.366 66.6897H232.245V73.7326H231.366V66.6897Z" fill="white"/>
<path d="M101.698 76.2937H102.577V83.3366H101.698V76.2937Z" fill="white"/>
<path d="M105.398 76.2937H106.277V83.3366H105.398V76.2937Z" fill="white"/>
<path d="M108.194 82.8318H112.134V83.6721H108.194V82.8318Z" fill="white"/>
<path d="M113.155 82.8318H117.095V83.6721H113.155V82.8318Z" fill="white"/>
<path d="M118.117 82.8318H122.057V83.6721H118.117V82.8318Z" fill="white"/>
<path d="M123.078 82.8318H127.018V83.6721H123.078V82.8318Z" fill="white"/>
<path d="M128.04 82.8318H131.98V83.6721H128.04V82.8318Z" fill="white"/>
<path d="M133.003 82.8318H136.942V83.6721H133.003V82.8318Z" fill="white"/>
<path d="M137.964 82.8318H141.903V83.6721H137.964V82.8318Z" fill="white"/>
<path d="M142.926 82.8318H146.865V83.6721H142.926V82.8318Z" fill="white"/>
<path d="M147.887 82.8318H151.826V83.6721H147.887V82.8318Z" fill="white"/>
<path d="M152.85 82.8318H156.789V83.6721H152.85V82.8318Z" fill="white"/>
<path d="M157.812 82.8318H161.751V83.6721H157.812V82.8318Z" fill="white"/>
<path d="M162.772 82.8318H166.712V83.6721H162.772V82.8318Z" fill="white"/>
<path d="M167.735 82.8318H171.675V83.6721H167.735V82.8318Z" fill="white"/>
<path d="M172.695 82.8318H176.635V83.6721H172.695V82.8318Z" fill="white"/>
<path d="M177.658 82.8318H181.598V83.6721H177.658V82.8318Z" fill="white"/>
<path d="M182.62 82.8318H186.56V83.6721H182.62V82.8318Z" fill="white"/>
<path d="M187.581 82.8318H191.521V83.6721H187.581V82.8318Z" fill="white"/>
<path d="M192.544 82.8318H196.483V83.6721H192.544V82.8318Z" fill="white"/>
<path d="M198.192 81.1423H199.455V82.374H198.192V81.1423Z" fill="white"/>
<path d="M201.843 81.1423H203.106V82.374H201.843V81.1423Z" fill="white"/>
<path d="M205.712 76.2937H206.591V83.3366H205.712V76.2937Z" fill="white"/>
<path d="M209.409 76.2937H210.288V83.3366H209.409V76.2937Z" fill="white"/>
<path d="M101.698 85.8975H102.577V92.9404H101.698V85.8975Z" fill="white"/>
<path d="M104.495 92.4358H108.435V93.2761H104.495V92.4358Z" fill="white"/>
<path d="M109.455 92.4358H113.395V93.2761H109.455V92.4358Z" fill="white"/>
<path d="M114.418 92.4358H118.357V93.2761H114.418V92.4358Z" fill="white"/>
<path d="M119.38 92.4358H123.319V93.2761H119.38V92.4358Z" fill="white"/>
<path d="M124.341 92.4358H128.28V93.2761H124.341V92.4358Z" fill="white"/>
<path d="M129.304 92.4358H133.243V93.2761H129.304V92.4358Z" fill="white"/>
<path d="M134.264 92.4358H138.203V93.2761H134.264V92.4358Z" fill="white"/>
<path d="M139.227 92.4358H143.166V93.2761H139.227V92.4358Z" fill="white"/>
<path d="M144.189 92.4358H148.129V93.2761H144.189V92.4358Z" fill="white"/>
<path d="M149.149 92.4358H153.089V93.2761H149.149V92.4358Z" fill="white"/>
<path d="M154.112 92.4358H158.052V93.2761H154.112V92.4358Z" fill="white"/>
<path d="M159.072 92.4358H163.012V93.2761H159.072V92.4358Z" fill="white"/>
<path d="M164.035 92.4358H167.975V93.2761H164.035V92.4358Z" fill="white"/>
<path d="M168.998 92.4358H172.938V93.2761H168.998V92.4358Z" fill="white"/>
<path d="M173.958 92.4358H177.897V93.2761H173.958V92.4358Z" fill="white"/>
<path d="M178.921 92.4358H182.86V93.2761H178.921V92.4358Z" fill="white"/>
<path d="M183.881 92.4358H187.82V93.2761H183.881V92.4358Z" fill="white"/>
<path d="M188.844 92.4358H192.783V93.2761H188.844V92.4358Z" fill="white"/>
<path d="M193.807 92.4358H197.746V93.2761H193.807V92.4358Z" fill="white"/>
<path d="M198.767 92.4358H202.706V93.2761H198.767V92.4358Z" fill="white"/>
<path d="M203.729 92.4358H207.669V93.2761H203.729V92.4358Z" fill="white"/>
<path d="M209.593 85.8975H210.472V92.9404H209.593V85.8975Z" fill="white"/>
<path d="M100.107 95.5415H101.09L97.8453 102.504H96.8555L100.107 95.5415Z" fill="white"/>
<path d="M105.149 100.664H109.233V101.584H105.149V100.664ZM106.676 96.9577L106.852 97.0132C106.772 97.1844 106.641 97.34 106.461 97.4823C106.279 97.6246 106.077 97.738 105.851 97.8269C105.624 97.9158 105.4 97.9692 105.176 97.9914V97.0466C105.544 96.9932 105.884 96.8598 106.199 96.6464C106.514 96.433 106.732 96.2107 106.854 95.9817H107.708V101.584H106.679V96.9577H106.676Z" fill="white"/>
<path d="M117.314 100.615C117.456 100.337 117.649 100.084 117.898 99.8546C118.146 99.6256 118.459 99.3966 118.836 99.1654L119.316 98.8697C119.62 98.6607 119.844 98.4651 119.986 98.2784C120.13 98.0916 120.201 97.8871 120.201 97.6625C120.201 97.4869 120.164 97.3313 120.086 97.1979C120.008 97.0645 119.897 96.9623 119.751 96.8889C119.604 96.8155 119.433 96.78 119.236 96.78C118.901 96.78 118.634 96.8822 118.441 97.0845C118.248 97.2868 118.144 97.5558 118.133 97.8938H117.103C117.108 97.5158 117.205 97.1735 117.392 96.8689C117.578 96.5643 117.833 96.3242 118.155 96.1486C118.477 95.973 118.843 95.884 119.254 95.884C119.664 95.884 120.013 95.9596 120.317 96.113C120.621 96.2642 120.854 96.4754 121.02 96.7444C121.185 97.0134 121.269 97.3246 121.269 97.6759C121.269 97.9204 121.22 98.1516 121.12 98.3651C121.023 98.5785 120.872 98.783 120.67 98.9809C120.468 99.1787 120.204 99.3721 119.88 99.5656L119.32 99.8946L119.271 99.9346C119.001 100.099 118.796 100.248 118.663 100.379C118.53 100.51 118.437 100.662 118.384 100.831L118.12 100.662H121.364V101.582H117.074C117.096 101.213 117.176 100.891 117.318 100.613L117.314 100.615Z" fill="white"/>
<path d="M130.278 101.455C129.943 101.306 129.676 101.093 129.483 100.819C129.288 100.544 129.186 100.228 129.175 99.8699H130.213C130.24 100.163 130.358 100.392 130.564 100.555C130.773 100.717 131.057 100.799 131.419 100.799C131.749 100.799 132.018 100.724 132.227 100.57C132.435 100.419 132.537 100.212 132.537 99.9499C132.537 99.7788 132.495 99.6365 132.409 99.5209C132.324 99.4053 132.207 99.3186 132.06 99.2608C131.914 99.203 131.745 99.1718 131.552 99.1718H130.984V98.267H131.432C131.729 98.267 131.967 98.2003 132.14 98.0669C132.313 97.9336 132.4 97.7513 132.4 97.5223C132.4 97.3667 132.36 97.2333 132.28 97.1177C132.2 97.0021 132.089 96.9154 131.945 96.8531C131.8 96.7909 131.634 96.762 131.441 96.762C131.121 96.762 130.868 96.8442 130.682 97.0065C130.495 97.1688 130.389 97.3867 130.362 97.6579H129.324C129.335 97.3155 129.432 97.011 129.619 96.742C129.805 96.473 130.058 96.2617 130.378 96.1106C130.697 95.9594 131.057 95.8816 131.456 95.8816C131.834 95.8816 132.175 95.9483 132.48 96.0817C132.784 96.2151 133.021 96.3974 133.194 96.6308C133.367 96.862 133.454 97.1266 133.454 97.42C133.454 97.6757 133.389 97.8958 133.259 98.0803C133.128 98.2648 132.961 98.4071 132.755 98.5093C132.548 98.6116 132.331 98.6694 132.096 98.685L132.215 98.6205C132.497 98.6427 132.744 98.7161 132.95 98.845C133.159 98.974 133.318 99.1363 133.434 99.3341C133.549 99.532 133.605 99.7521 133.605 99.9989C133.605 100.335 133.507 100.63 133.31 100.888C133.112 101.144 132.848 101.339 132.519 101.477C132.189 101.613 131.823 101.682 131.416 101.682C130.99 101.682 130.609 101.606 130.273 101.457L130.278 101.455Z" fill="white"/>
<path d="M144.149 96.8288L144.477 96.8843L142.24 99.5654L142.12 99.4209H146.044V100.277H141.346V99.2675L144.173 95.9773H145.163V101.58H144.149V96.8265V96.8288Z" fill="white"/>
<path d="M154.812 101.471C154.501 101.333 154.252 101.137 154.068 100.886C153.884 100.635 153.777 100.344 153.744 100.015H154.783C154.825 100.259 154.945 100.45 155.142 100.586C155.34 100.721 155.586 100.79 155.886 100.79C156.099 100.79 156.288 100.75 156.45 100.67C156.612 100.59 156.736 100.468 156.82 100.306C156.905 100.143 156.949 99.95 156.949 99.7255C156.949 99.501 156.907 99.3098 156.82 99.1497C156.734 98.9896 156.612 98.8674 156.45 98.7851C156.288 98.7028 156.097 98.6606 155.879 98.6606C155.662 98.6606 155.469 98.7073 155.284 98.8007C155.1 98.894 154.949 99.0163 154.834 99.1653H153.915L154.195 95.9795H157.775V96.891H154.603L155.067 96.5553L154.907 98.5806L154.772 98.5406C154.947 98.316 155.16 98.1382 155.406 98.0092C155.653 97.8803 155.935 97.8136 156.25 97.8136C156.592 97.8136 156.898 97.8914 157.169 98.0492C157.439 98.2071 157.653 98.4294 157.803 98.714C157.954 98.9985 158.032 99.3253 158.032 99.6944C158.032 100.095 157.941 100.444 157.761 100.744C157.579 101.042 157.326 101.273 157.002 101.435C156.678 101.597 156.305 101.68 155.884 101.68C155.462 101.68 155.129 101.611 154.816 101.471H154.812Z" fill="white"/>
<path d="M167.001 101.344C166.654 101.12 166.388 100.795 166.202 100.373C166.015 99.9479 165.922 99.4455 165.922 98.863C165.922 98.2806 166.022 97.7403 166.221 97.2913C166.421 96.84 166.703 96.4931 167.069 96.2508C167.436 96.0085 167.853 95.8862 168.328 95.8862C168.689 95.8862 169.011 95.9507 169.291 96.0819C169.571 96.213 169.795 96.3931 169.966 96.6221C170.137 96.8511 170.245 97.1112 170.294 97.398H169.255C169.202 97.2001 169.098 97.0489 168.945 96.9422C168.789 96.8355 168.594 96.7822 168.354 96.7822C168.035 96.7822 167.771 96.88 167.56 97.0778C167.349 97.2757 167.196 97.5425 167.096 97.8782C166.998 98.2139 166.954 98.5985 166.965 99.0298L166.781 99.0698C167.009 98.6963 167.269 98.4139 167.555 98.2205C167.844 98.0293 168.17 97.9315 168.539 97.9315C168.907 97.9315 169.202 98.0093 169.473 98.1627C169.744 98.3161 169.957 98.5296 170.108 98.7986C170.259 99.0676 170.336 99.3766 170.336 99.7234C170.336 100.092 170.245 100.424 170.066 100.719C169.884 101.015 169.635 101.248 169.315 101.42C168.996 101.591 168.632 101.675 168.221 101.675C167.757 101.675 167.353 101.564 167.007 101.34L167.001 101.344ZM168.761 100.65C168.918 100.557 169.04 100.433 169.129 100.279C169.218 100.124 169.26 99.9501 169.26 99.7589C169.26 99.5678 169.222 99.4055 169.144 99.2587C169.067 99.112 168.956 98.9964 168.814 98.9097C168.67 98.8252 168.49 98.7808 168.27 98.7808C168.05 98.7808 167.859 98.8252 167.68 98.9119C167.498 99.0009 167.356 99.1209 167.251 99.2721C167.147 99.4232 167.096 99.5855 167.096 99.7567C167.096 99.9279 167.143 100.099 167.236 100.257C167.329 100.415 167.46 100.541 167.631 100.642C167.802 100.739 167.995 100.79 168.215 100.79C168.434 100.79 168.605 100.744 168.763 100.65H168.761Z" fill="white"/>
<path d="M179.38 99.5187C179.611 98.9162 179.895 98.396 180.228 97.958C180.561 97.5201 180.943 97.1221 181.376 96.7664L181.495 96.8954H178.164V95.9839H182.31V96.9443C181.595 97.5045 181.067 98.1581 180.723 98.9051C180.379 99.6521 180.182 100.546 180.128 101.586H178.954C179.007 100.813 179.149 100.123 179.383 99.5209L179.38 99.5187Z" fill="white"/>
<path d="M191.19 101.48C190.861 101.346 190.604 101.155 190.415 100.904C190.226 100.653 190.131 100.357 190.131 100.015C190.131 99.7856 190.189 99.5766 190.306 99.3855C190.424 99.1965 190.59 99.0409 190.81 98.9208C191.028 98.8008 191.285 98.7296 191.578 98.7096L191.547 98.7496C191.296 98.7185 191.072 98.6451 190.877 98.5295C190.679 98.4139 190.521 98.2672 190.406 98.0894C190.288 97.9115 190.231 97.707 190.231 97.478C190.231 97.1534 190.32 96.8711 190.499 96.6332C190.677 96.3953 190.925 96.2108 191.243 96.0819C191.56 95.9507 191.915 95.8862 192.31 95.8862C192.705 95.8862 193.06 95.9507 193.378 96.0774C193.695 96.2064 193.942 96.3887 194.121 96.6288C194.299 96.8689 194.385 97.149 194.381 97.4691C194.381 97.6981 194.323 97.9048 194.21 98.0849C194.095 98.2672 193.939 98.4139 193.74 98.5295C193.54 98.6451 193.318 98.7185 193.072 98.7496L193.041 98.7096C193.333 98.7319 193.589 98.8008 193.804 98.9208C194.019 99.0409 194.186 99.1965 194.299 99.3855C194.414 99.5744 194.47 99.7834 194.47 100.015C194.47 100.357 194.377 100.653 194.19 100.904C194.004 101.155 193.749 101.346 193.422 101.48C193.096 101.613 192.728 101.68 192.313 101.68C191.898 101.68 191.525 101.613 191.198 101.48H191.19ZM193.094 100.599C193.296 100.444 193.398 100.235 193.398 99.9679C193.398 99.7011 193.298 99.4988 193.098 99.3432C192.898 99.1876 192.634 99.112 192.304 99.112C191.973 99.112 191.713 99.1898 191.509 99.3432C191.305 99.4966 191.201 99.7056 191.201 99.9679C191.201 100.23 191.303 100.446 191.509 100.599C191.713 100.755 191.98 100.831 192.304 100.831C192.628 100.831 192.892 100.753 193.094 100.599ZM193.049 98.0871C193.238 97.9426 193.333 97.7492 193.333 97.5025C193.333 97.2779 193.24 97.0934 193.054 96.9511C192.867 96.8066 192.617 96.7355 192.304 96.7355C191.991 96.7355 191.738 96.8066 191.549 96.9467C191.36 97.0889 191.265 97.2735 191.265 97.5025C191.265 97.747 191.36 97.9426 191.549 98.0871C191.738 98.2316 191.991 98.3028 192.304 98.3028C192.617 98.3028 192.861 98.2316 193.052 98.0871H193.049Z" fill="white"/>
<path d="M203.455 101.475C203.16 101.34 202.92 101.151 202.736 100.911C202.551 100.67 202.441 100.395 202.405 100.086H203.444C203.486 100.31 203.599 100.481 203.779 100.602C203.961 100.722 204.183 100.782 204.449 100.782C204.88 100.782 205.201 100.599 205.412 100.237C205.623 99.8746 205.73 99.3721 205.736 98.7319C205.528 99.0209 205.299 99.2365 205.046 99.3833C204.793 99.53 204.502 99.6034 204.172 99.6034C203.821 99.6034 203.51 99.5278 203.242 99.3744C202.973 99.2232 202.762 99.012 202.611 98.743C202.46 98.474 202.383 98.1694 202.383 97.8271C202.383 97.4536 202.474 97.1201 202.654 96.8266C202.836 96.5332 203.086 96.302 203.408 96.1352C203.73 95.9663 204.094 95.884 204.498 95.884C204.962 95.884 205.366 95.9952 205.708 96.2197C206.049 96.4443 206.316 96.7688 206.498 97.1957C206.682 97.6225 206.773 98.1383 206.773 98.7408C206.773 99.3432 206.677 99.8746 206.484 100.317C206.293 100.759 206.023 101.097 205.674 101.329C205.326 101.56 204.917 101.678 204.447 101.678C204.078 101.678 203.748 101.609 203.453 101.473L203.455 101.475ZM205.028 98.6274C205.206 98.5385 205.346 98.4229 205.448 98.2761C205.55 98.1294 205.599 97.9671 205.599 97.7915C205.599 97.6159 205.552 97.458 205.459 97.3024C205.366 97.1468 205.235 97.0201 205.068 96.9222C204.9 96.8244 204.709 96.7733 204.498 96.7733C204.287 96.7733 204.114 96.8178 203.95 96.9045C203.788 96.9934 203.661 97.1134 203.575 97.2691C203.486 97.4247 203.444 97.6003 203.444 97.7982C203.444 97.9849 203.481 98.1494 203.559 98.2939C203.637 98.4384 203.748 98.5518 203.894 98.6341C204.041 98.7163 204.218 98.7586 204.425 98.7586C204.649 98.7586 204.849 98.7141 205.028 98.6274Z" fill="white"/>
<path d="M210.736 95.5415H211.72L214.971 102.504H213.972L210.736 95.5415Z" fill="white"/>
<path d="M89.4888 105.146H90.472L87.2272 112.108H86.2373L89.4888 105.146Z" fill="white"/>
<path d="M97.4146 110.059L97.5656 110.154C97.3902 110.501 97.1749 110.775 96.9175 110.975C96.6623 111.175 96.3848 111.275 96.0874 111.275C95.7723 111.275 95.5037 111.186 95.2796 111.01C95.0554 110.835 94.8845 110.588 94.7691 110.27C94.6515 109.952 94.5938 109.587 94.5938 109.178C94.5938 108.769 94.6515 108.398 94.7691 108.087C94.8867 107.776 95.0554 107.531 95.2773 107.355C95.4993 107.18 95.7634 107.091 96.0719 107.091C96.3649 107.091 96.6423 107.186 96.9064 107.38C97.1705 107.571 97.388 107.844 97.5567 108.196L97.4368 108.316V107.171H98.4267V112.549H97.4124V110.059H97.4146ZM96.8553 110.259C97.0196 110.157 97.1594 110.012 97.2704 109.823C97.3813 109.634 97.4391 109.418 97.4391 109.178C97.4391 108.938 97.3813 108.718 97.2637 108.534C97.1461 108.349 97.004 108.207 96.8354 108.105C96.6667 108.002 96.5091 107.953 96.3604 107.953C96.2117 107.953 96.0808 107.998 95.9698 108.089C95.8588 108.18 95.7723 108.316 95.7101 108.498C95.648 108.68 95.6191 108.903 95.6191 109.169C95.6191 109.574 95.6879 109.883 95.8277 110.094C95.9654 110.305 96.1518 110.41 96.387 110.41C96.5357 110.41 96.6933 110.359 96.8576 110.259H96.8553Z" fill="white"/>
<path d="M106.308 107.171H107.297L108.025 110.452H107.875L108.634 107.171H109.663L110.447 110.443H110.303L111.013 107.171H111.996L110.966 111.188H109.848L109.097 108.027H109.202L108.443 111.188H107.309L106.31 107.171H106.308Z" fill="white"/>
<path d="M120.595 111.028C120.291 110.857 120.058 110.615 119.891 110.299C119.727 109.983 119.643 109.619 119.643 109.203C119.643 108.787 119.725 108.411 119.887 108.093C120.049 107.776 120.28 107.529 120.577 107.353C120.874 107.178 121.221 107.089 121.616 107.089C122.011 107.089 122.341 107.173 122.625 107.344C122.91 107.515 123.129 107.753 123.28 108.056C123.431 108.36 123.509 108.707 123.509 109.096V109.327H120.297V108.591H122.783L122.455 108.903V108.712C122.455 108.456 122.377 108.251 122.219 108.1C122.062 107.949 121.858 107.871 121.609 107.871C121.449 107.871 121.3 107.911 121.161 107.991C121.021 108.071 120.912 108.176 120.83 108.302C120.748 108.431 120.701 108.574 120.69 108.734C120.686 108.852 120.681 108.936 120.681 108.989C120.681 109.043 120.677 109.123 120.666 109.23C120.67 109.614 120.763 109.914 120.941 110.13C121.118 110.346 121.36 110.454 121.664 110.454C121.878 110.454 122.055 110.41 122.195 110.323C122.337 110.234 122.432 110.105 122.486 109.934H123.469C123.389 110.334 123.189 110.659 122.87 110.906C122.55 111.155 122.142 111.277 121.647 111.277C121.247 111.277 120.897 111.193 120.592 111.021L120.595 111.028Z" fill="white"/>
<path d="M131.812 107.171H132.81V108.46L132.69 108.251C132.835 107.9 133.021 107.616 133.25 107.402C133.478 107.189 133.745 107.082 134.049 107.082C134.311 107.082 134.526 107.144 134.697 107.267C134.868 107.389 134.992 107.558 135.072 107.776C135.152 107.991 135.192 108.245 135.192 108.532C135.192 108.649 135.189 108.747 135.183 108.827H134.28V108.683C134.28 108.458 134.228 108.287 134.129 108.167C134.027 108.047 133.884 107.987 133.698 107.987C133.543 107.987 133.398 108.042 133.263 108.151C133.128 108.26 133.021 108.411 132.943 108.603C132.866 108.794 132.828 109.007 132.828 109.243V111.188H131.814V107.171H131.812Z" fill="white"/>
<path d="M142.687 107.171H146.051V107.956H142.687V107.171ZM144.005 110.888C143.776 110.688 143.661 110.392 143.661 110.003V106.226L144.675 105.681V109.763C144.675 109.965 144.722 110.112 144.815 110.203C144.908 110.294 145.072 110.339 145.305 110.339H146.384V111.188H145.026C144.573 111.188 144.231 111.088 144.003 110.888H144.005Z" fill="white"/>
<path d="M153.904 111.693H154.734C154.942 111.693 155.091 111.668 155.184 111.622C155.277 111.573 155.353 111.473 155.413 111.317L155.588 110.886L155.613 111.446L153.944 107.173H155.022L156.141 110.343H155.877L156.995 107.173H158.065L156.298 111.671C156.218 111.879 156.119 112.048 155.999 112.18C155.879 112.311 155.737 112.404 155.575 112.464C155.413 112.522 155.22 112.553 154.996 112.553H153.901V111.697L153.904 111.693Z" fill="white"/>
<path d="M166.621 111.079C166.421 110.955 166.27 110.77 166.166 110.53C166.062 110.29 166.011 110.008 166.011 109.681V107.169H167.025V109.385C167.025 109.732 167.076 109.983 167.18 110.137C167.285 110.292 167.453 110.368 167.689 110.368C167.86 110.368 168.017 110.319 168.164 110.219C168.31 110.121 168.428 109.977 168.519 109.788C168.61 109.599 168.654 109.379 168.654 109.127V107.167H169.668V111.184H168.67V110.048L168.829 110.177C168.674 110.481 168.465 110.739 168.201 110.948C167.937 111.159 167.649 111.264 167.334 111.264C167.056 111.264 166.819 111.202 166.619 111.075L166.621 111.079Z" fill="white"/>
<path d="M177.986 110.419H180.599V111.188H177.986V110.419ZM178.088 107.171H179.751V107.931H178.088V107.171ZM178.688 105.586H179.895V106.657H178.688V105.586ZM178.776 107.171H179.791V110.932H178.776V107.171Z" fill="white"/>
<path d="M189.563 111.019C189.266 110.844 189.035 110.597 188.873 110.279C188.711 109.961 188.629 109.601 188.629 109.194C188.629 108.787 188.711 108.418 188.873 108.102C189.035 107.787 189.266 107.538 189.563 107.358C189.861 107.18 190.205 107.089 190.593 107.089C190.981 107.089 191.341 107.178 191.641 107.358C191.938 107.535 192.169 107.784 192.329 108.102C192.488 108.42 192.568 108.785 192.568 109.194C192.568 109.603 192.488 109.961 192.329 110.279C192.169 110.597 191.94 110.844 191.641 111.019C191.343 111.195 190.993 111.284 190.593 111.284C190.194 111.284 189.861 111.195 189.563 111.019ZM191.101 110.308C191.243 110.205 191.35 110.061 191.425 109.872C191.501 109.683 191.536 109.456 191.536 109.196C191.536 108.796 191.454 108.483 191.288 108.256C191.124 108.029 190.89 107.916 190.593 107.916C190.402 107.916 190.236 107.967 190.094 108.067C189.952 108.167 189.845 108.316 189.77 108.507C189.694 108.698 189.659 108.929 189.659 109.196C189.659 109.592 189.741 109.901 189.907 110.125C190.074 110.35 190.302 110.461 190.595 110.461C190.793 110.461 190.962 110.41 191.104 110.31L191.101 110.308Z" fill="white"/>
<path d="M200.789 107.171H201.788V108.316L201.668 108.196C201.832 107.844 202.047 107.571 202.312 107.38C202.576 107.189 202.855 107.091 203.155 107.091C203.455 107.091 203.73 107.18 203.95 107.355C204.171 107.531 204.34 107.776 204.458 108.087C204.575 108.398 204.633 108.763 204.633 109.178C204.633 109.594 204.575 109.954 204.458 110.27C204.34 110.588 204.169 110.835 203.943 111.01C203.716 111.186 203.448 111.275 203.139 111.275C202.937 111.275 202.744 111.23 202.565 111.139C202.383 111.048 202.216 110.919 202.061 110.75C201.905 110.581 201.77 110.383 201.652 110.154L201.803 110.059V112.549H200.789V107.171ZM203.246 110.272C203.361 110.179 203.448 110.041 203.51 109.856C203.572 109.672 203.601 109.445 203.601 109.172C203.601 108.772 203.537 108.469 203.406 108.262C203.275 108.056 203.095 107.953 202.866 107.953C202.718 107.953 202.558 108.005 202.391 108.105C202.223 108.207 202.081 108.349 201.963 108.534C201.846 108.718 201.788 108.932 201.788 109.178C201.788 109.425 201.843 109.634 201.956 109.823C202.067 110.012 202.207 110.159 202.372 110.259C202.536 110.359 202.693 110.41 202.842 110.41C202.991 110.41 203.131 110.363 203.246 110.27V110.272Z" fill="white"/>
<path d="M209.777 105.146H211.975V105.897H210.712V111.355H211.975V112.106H209.777V105.143V105.146Z" fill="white"/>
<path d="M219.645 105.146H220.628L223.879 112.108H222.88L219.645 105.146Z" fill="white"/>
<path d="M78.8716 114.75H79.8548L76.61 121.712H75.6201L78.8716 114.75Z" fill="white"/>
<path d="M88.2217 120.728C88.0175 120.625 87.8555 120.481 87.7378 120.292C87.6202 120.103 87.5625 119.883 87.5625 119.632C87.5625 119.227 87.6979 118.92 87.9664 118.711C88.235 118.502 88.6167 118.393 89.1139 118.382L90.2169 118.358V118.262C90.2169 117.995 90.1481 117.797 90.0127 117.666C89.8774 117.535 89.6843 117.471 89.4335 117.471C89.1827 117.471 88.9829 117.524 88.8453 117.631C88.7099 117.737 88.6367 117.866 88.6256 118.015H87.6024C87.6291 117.775 87.7201 117.553 87.8777 117.346C88.0352 117.142 88.2483 116.977 88.5213 116.857C88.7921 116.737 89.105 116.677 89.4557 116.677C89.833 116.677 90.1526 116.746 90.41 116.886C90.6675 117.026 90.8628 117.217 90.9937 117.462C91.1247 117.706 91.189 117.993 91.189 118.318V119.694C91.189 119.896 91.2046 120.103 91.2334 120.314C91.2623 120.525 91.3022 120.683 91.3488 120.79H90.3656C90.3656 120.79 90.3634 120.765 90.3568 120.75C90.3257 120.621 90.299 120.474 90.2813 120.31C90.2635 120.145 90.2569 119.972 90.2613 119.789L90.4056 119.925C90.299 120.203 90.1193 120.43 89.8663 120.61C89.6132 120.788 89.3003 120.879 88.9274 120.879C88.6611 120.879 88.4259 120.828 88.2194 120.728H88.2217ZM89.8396 119.927C90.0305 119.816 90.157 119.66 90.2147 119.463V119.087L89.2071 119.111C88.9985 119.122 88.8387 119.165 88.7233 119.24C88.6078 119.316 88.5524 119.431 88.5524 119.592C88.5524 119.752 88.6123 119.876 88.7321 119.963C88.852 120.052 89.0096 120.094 89.2071 120.094C89.4357 120.094 89.6465 120.038 89.8374 119.925L89.8396 119.927Z" fill="white"/>
<path d="M100.335 120.712C100.056 120.594 99.8336 120.436 99.6716 120.236C99.5096 120.036 99.4119 119.805 99.3809 119.545H100.395C100.417 119.727 100.513 119.867 100.684 119.965C100.855 120.063 101.07 120.114 101.332 120.114C101.567 120.114 101.751 120.072 101.887 119.989C102.022 119.907 102.091 119.798 102.091 119.665C102.091 119.554 102.049 119.463 101.966 119.394C101.884 119.325 101.738 119.274 101.531 119.243L100.741 119.114C100.364 119.056 100.071 118.925 99.8669 118.725C99.6627 118.524 99.5584 118.278 99.5584 117.984C99.5584 117.729 99.6294 117.504 99.7737 117.313C99.918 117.122 100.118 116.97 100.373 116.862C100.628 116.753 100.923 116.697 101.261 116.697C101.762 116.697 102.173 116.81 102.495 117.037C102.817 117.264 103.005 117.575 103.058 117.969H102.044C102.018 117.804 101.935 117.673 101.796 117.58C101.656 117.486 101.474 117.44 101.245 117.44C101.017 117.44 100.848 117.482 100.726 117.564C100.604 117.646 100.542 117.753 100.542 117.88C100.542 117.991 100.582 118.08 100.661 118.144C100.741 118.209 100.877 118.255 101.07 118.289L101.893 118.4C102.282 118.458 102.581 118.591 102.788 118.796C102.996 119 103.098 119.26 103.098 119.576C103.098 119.838 103.027 120.067 102.883 120.265C102.739 120.463 102.532 120.616 102.259 120.725C101.989 120.834 101.671 120.89 101.31 120.89C100.948 120.89 100.619 120.832 100.34 120.714L100.335 120.712Z" fill="white"/>
<path d="M111.836 120.616C111.612 120.441 111.441 120.194 111.326 119.876C111.208 119.558 111.15 119.194 111.15 118.784C111.15 118.375 111.208 118.004 111.326 117.693C111.443 117.382 111.612 117.137 111.834 116.962C112.056 116.786 112.32 116.697 112.629 116.697C112.826 116.697 113.015 116.739 113.197 116.826C113.379 116.91 113.547 117.037 113.705 117.202C113.863 117.366 114 117.566 114.116 117.802L113.971 117.922V115.192H114.986V120.794H113.996V119.658L114.124 119.754C113.954 120.105 113.74 120.383 113.481 120.583C113.221 120.783 112.944 120.883 112.646 120.883C112.331 120.883 112.063 120.794 111.838 120.619L111.836 120.616ZM113.41 119.863C113.574 119.76 113.714 119.616 113.825 119.427C113.936 119.238 113.993 119.022 113.993 118.782C113.993 118.542 113.936 118.322 113.818 118.138C113.701 117.953 113.558 117.811 113.39 117.708C113.221 117.606 113.064 117.557 112.915 117.557C112.766 117.557 112.635 117.602 112.524 117.693C112.413 117.784 112.327 117.92 112.265 118.102C112.202 118.284 112.174 118.507 112.174 118.773C112.174 119.178 112.242 119.487 112.382 119.698C112.52 119.909 112.706 120.014 112.941 120.014C113.09 120.014 113.248 119.963 113.412 119.863H113.41Z" fill="white"/>
<path d="M126.507 116.775H129.991V117.56H126.507V116.775ZM127.929 115.477C128.138 115.285 128.433 115.188 128.817 115.188H130.271V116.019H129.048C128.904 116.019 128.8 116.055 128.733 116.123C128.666 116.192 128.633 116.299 128.633 116.444V120.79H127.619V116.324C127.619 115.95 127.723 115.668 127.929 115.474V115.477Z" fill="white"/>
<path d="M138.778 122.093C138.507 121.988 138.29 121.841 138.13 121.648C137.97 121.457 137.87 121.23 137.835 120.968H138.858C138.9 121.117 138.993 121.237 139.133 121.323C139.275 121.412 139.464 121.455 139.704 121.455C139.992 121.455 140.218 121.379 140.387 121.23C140.556 121.081 140.638 120.854 140.638 120.55V119.518L140.782 119.638C140.607 119.97 140.394 120.23 140.143 120.419C139.892 120.608 139.615 120.703 139.313 120.703C139.011 120.703 138.751 120.619 138.523 120.452C138.294 120.283 138.117 120.05 137.992 119.747C137.868 119.445 137.804 119.103 137.804 118.718C137.804 118.333 137.866 117.973 137.992 117.669C138.117 117.364 138.294 117.126 138.521 116.953C138.747 116.779 139.007 116.693 139.3 116.693C139.502 116.693 139.697 116.737 139.883 116.824C140.07 116.913 140.241 117.039 140.398 117.208C140.556 117.377 140.689 117.584 140.802 117.829L140.658 117.924V116.773H141.657V120.519C141.657 121.068 141.488 121.495 141.148 121.795C140.811 122.097 140.341 122.246 139.739 122.246C139.371 122.246 139.051 122.195 138.78 122.09L138.778 122.093ZM140.085 119.732C140.247 119.634 140.385 119.494 140.496 119.316C140.607 119.138 140.665 118.938 140.665 118.72C140.665 118.502 140.607 118.296 140.494 118.115C140.378 117.938 140.238 117.798 140.074 117.7C139.91 117.602 139.752 117.551 139.604 117.551C139.455 117.551 139.32 117.595 139.2 117.682C139.08 117.771 138.987 117.902 138.92 118.078C138.853 118.253 138.82 118.464 138.82 118.709C138.82 119.078 138.896 119.365 139.044 119.569C139.193 119.774 139.388 119.878 139.628 119.878C139.772 119.878 139.925 119.829 140.087 119.729L140.085 119.732Z" fill="white"/>
<path d="M150.102 115.19H151.116V117.911L150.972 117.775C151.12 117.477 151.329 117.222 151.595 117.01C151.862 116.799 152.155 116.695 152.474 116.695C152.752 116.695 152.985 116.759 153.178 116.886C153.369 117.015 153.515 117.197 153.617 117.435C153.719 117.673 153.768 117.96 153.768 118.295V120.792H152.754V118.591C152.754 118.244 152.701 117.993 152.594 117.84C152.487 117.684 152.317 117.608 152.084 117.608C151.913 117.608 151.755 117.657 151.609 117.757C151.462 117.855 151.344 118 151.253 118.186C151.162 118.373 151.118 118.591 151.118 118.842V120.794H150.104V115.192L150.102 115.19Z" fill="white"/>
<path d="M161.662 121.303H162.732C162.827 121.303 162.909 121.286 162.98 121.252C163.051 121.219 163.1 121.163 163.131 121.088C163.162 121.012 163.18 120.925 163.18 120.823V116.773H164.194V121.054C164.194 121.401 164.09 121.67 163.884 121.864C163.675 122.055 163.389 122.153 163.02 122.153H161.662V121.303ZM162.206 116.775H164.155V117.535H162.206V116.775ZM163.091 115.19H164.29V116.261H163.091V115.19Z" fill="white"/>
<path d="M172.896 115.19H173.91V120.792H172.896V115.19ZM173.712 118.742L175.645 116.773H176.853L175.159 118.469L174.689 118.845L173.721 119.789L173.712 118.74V118.742ZM174.438 118.702L175.157 118.086L176.964 120.792H175.765L174.438 118.702Z" fill="white"/>
<path d="M188.189 120.023H190.906V120.792H188.189V120.023ZM188.269 115.19H190.052V115.95H188.269V115.19ZM189.035 115.39H190.049V120.601H189.035V115.39Z" fill="white"/>
<path d="M199.646 116.775H200.908V118.007H199.646V116.775ZM199.646 119.561H200.908V120.792H199.646V119.561Z" fill="white"/>
<path d="M207.536 115.83C207.427 115.921 207.372 116.061 207.372 116.255V116.366H207.98V117.597H206.717V116.381C206.717 116.119 206.757 115.899 206.837 115.717C206.917 115.534 207.047 115.392 207.232 115.288C207.416 115.183 207.664 115.13 207.98 115.123V115.683C207.793 115.688 207.645 115.737 207.536 115.828V115.83Z" fill="white"/>
<path d="M215.37 121.712H213.173V120.961H214.436V115.503H213.173V114.752H215.37V121.715V121.712Z" fill="white"/>
<path d="M227.171 114.75H228.154L231.406 121.712H230.407L227.171 114.75Z" fill="white"/>
<path d="M68.2515 124.354H69.2347L65.9899 131.316H65L68.2515 124.354Z" fill="white"/>
<path d="M76.9756 129.627L79.5967 126.921L79.701 127.177H77.0333V126.376H80.5333V127.208L77.9677 129.849L77.8634 129.593H80.5888V130.394H76.9778V129.624L76.9756 129.627Z" fill="white"/>
<path d="M93.6592 128.002L93.6347 128.586L92.0123 126.376H93.1953L94.2096 127.808H93.9854L94.993 126.376H96.1671L94.538 128.577L94.5136 128.002L96.2869 130.394H95.104L93.9455 128.762H94.234L93.0754 130.394H91.9014L93.6592 128.002Z" fill="white"/>
<path d="M108.489 130.227C108.196 130.052 107.97 129.805 107.81 129.491C107.65 129.176 107.57 128.813 107.57 128.402C107.57 127.991 107.652 127.626 107.814 127.31C107.976 126.992 108.205 126.746 108.498 126.566C108.791 126.388 109.135 126.297 109.528 126.297C109.879 126.297 110.189 126.363 110.458 126.497C110.726 126.63 110.942 126.815 111.101 127.053C111.261 127.29 111.357 127.566 111.39 127.882H110.36C110.333 127.657 110.247 127.475 110.1 127.333C109.954 127.19 109.761 127.121 109.521 127.121C109.335 127.121 109.173 127.173 109.033 127.273C108.895 127.375 108.789 127.519 108.713 127.708C108.638 127.897 108.602 128.126 108.602 128.393C108.602 128.798 108.684 129.111 108.851 129.333C109.015 129.556 109.246 129.665 109.539 129.665C109.779 129.665 109.967 129.589 110.107 129.44C110.245 129.291 110.331 129.093 110.362 128.849H111.377C111.339 129.173 111.241 129.46 111.081 129.709C110.922 129.958 110.709 130.149 110.442 130.285C110.176 130.421 109.867 130.489 109.515 130.489C109.126 130.489 108.784 130.401 108.491 130.225L108.489 130.227Z" fill="white"/>
<path d="M119.116 126.379H120.186L121.345 129.589H121.121L122.295 126.379H123.364L121.751 130.396H120.672L119.114 126.379H119.116Z" fill="white"/>
<path d="M136.594 130.347C136.41 130.256 136.244 130.127 136.091 129.958C135.94 129.789 135.804 129.589 135.687 129.353L135.822 129.258V130.394H134.823V124.792H135.838V127.522L135.702 127.401C135.873 127.05 136.088 126.777 136.35 126.586C136.612 126.394 136.892 126.297 137.189 126.297C137.487 126.297 137.764 126.385 137.984 126.561C138.203 126.737 138.374 126.981 138.492 127.293C138.61 127.604 138.667 127.968 138.667 128.384C138.667 128.8 138.61 129.16 138.492 129.476C138.374 129.794 138.203 130.04 137.977 130.216C137.751 130.392 137.482 130.481 137.174 130.481C136.972 130.481 136.779 130.436 136.594 130.345V130.347ZM137.28 129.48C137.396 129.387 137.482 129.249 137.544 129.064C137.606 128.88 137.635 128.653 137.635 128.38C137.635 127.979 137.571 127.677 137.44 127.47C137.309 127.266 137.129 127.161 136.901 127.161C136.752 127.161 136.592 127.213 136.426 127.313C136.259 127.413 136.115 127.557 135.997 127.742C135.88 127.926 135.822 128.14 135.822 128.386C135.822 128.633 135.877 128.842 135.991 129.031C136.102 129.22 136.241 129.367 136.406 129.467C136.57 129.569 136.728 129.618 136.876 129.618C137.025 129.618 137.165 129.571 137.28 129.478V129.48Z" fill="white"/>
<path d="M150.388 126.379H151.386V127.515L151.236 127.386C151.384 127.081 151.593 126.823 151.859 126.615C152.125 126.406 152.416 126.299 152.729 126.299C153.007 126.299 153.244 126.361 153.439 126.488C153.637 126.612 153.788 126.797 153.894 127.037C154.001 127.277 154.054 127.559 154.054 127.886V130.398H153.04V128.182C153.04 127.835 152.987 127.584 152.88 127.43C152.774 127.275 152.603 127.199 152.37 127.199C152.205 127.199 152.048 127.248 151.899 127.348C151.75 127.448 151.631 127.59 151.54 127.779C151.449 127.968 151.404 128.189 151.404 128.44V130.401H150.39V126.383L150.388 126.379Z" fill="white"/>
<path d="M165.729 126.379H166.696V127.37L166.585 127.306C166.703 126.997 166.863 126.75 167.069 126.57C167.273 126.388 167.511 126.299 167.777 126.299C167.968 126.299 168.137 126.346 168.281 126.439C168.425 126.532 168.541 126.661 168.629 126.823C168.718 126.986 168.778 127.179 168.809 127.404L168.658 127.308C168.769 127.01 168.942 126.766 169.178 126.579C169.413 126.392 169.681 126.299 169.985 126.299C170.221 126.299 170.42 126.357 170.585 126.47C170.749 126.586 170.875 126.755 170.96 126.979C171.044 127.204 171.088 127.475 171.088 127.795V130.396H170.105V127.924C170.105 127.679 170.063 127.493 169.976 127.364C169.89 127.235 169.759 127.173 169.577 127.173C169.455 127.173 169.34 127.213 169.233 127.293C169.126 127.373 169.044 127.49 168.984 127.644C168.927 127.799 168.896 127.982 168.896 128.195V130.396H167.928V127.946C167.928 127.691 167.884 127.497 167.797 127.366C167.708 127.235 167.577 127.17 167.402 127.17C167.28 127.17 167.167 127.21 167.062 127.29C166.958 127.37 166.874 127.488 166.812 127.642C166.747 127.797 166.716 127.98 166.716 128.193V130.394H165.733V126.377L165.729 126.379Z" fill="white"/>
<path d="M186.336 130.116L182.78 128.14V127.275L186.336 125.298V126.314L183.49 127.844L183.499 127.564L186.336 129.1V130.116Z" fill="white"/>
<path d="M198.727 129.1L201.563 127.564L201.572 127.844L198.727 126.314V125.298L202.282 127.275V128.14L198.727 130.116V129.1Z" fill="white"/>
<path d="M215.331 128.055C215.369 127.919 215.433 127.79 215.526 127.67C215.619 127.55 215.748 127.424 215.914 127.29L216.243 127.01C216.361 126.908 216.454 126.803 216.523 126.694C216.591 126.585 216.627 126.452 216.627 126.299C216.627 126.074 216.558 125.894 216.423 125.758C216.287 125.623 216.088 125.554 215.828 125.554C215.568 125.554 215.375 125.634 215.22 125.794C215.064 125.954 214.989 126.163 214.989 126.419V126.468H214.015V126.403C214.015 126.083 214.09 125.794 214.239 125.534C214.388 125.276 214.603 125.071 214.882 124.923C215.162 124.774 215.491 124.698 215.87 124.698C216.227 124.698 216.54 124.762 216.813 124.894C217.084 125.025 217.295 125.207 217.441 125.443C217.588 125.678 217.661 125.95 217.661 126.259C217.661 126.541 217.599 126.786 217.477 126.99C217.355 127.195 217.168 127.399 216.918 127.601L216.583 127.866C216.445 127.977 216.345 128.091 216.287 128.206C216.23 128.322 216.199 128.453 216.199 128.602V128.682H215.28V128.537C215.28 128.351 215.297 128.188 215.335 128.053L215.331 128.055ZM215.131 129.22H216.354V130.396H215.131V129.22Z" fill="white"/>
<path d="M225.757 127.266H229.912V128.091H225.757V127.266ZM227.404 125.641H228.274V129.747H227.404V125.641Z" fill="white"/>
<path d="M237.493 124.354H238.476L241.728 131.316H240.729L237.493 124.354Z" fill="white"/>
<path d="M66.0879 135.983H67.3507V137.214H66.0879V135.983ZM66.0879 138.766H67.3507V139.998H66.0879V138.766Z" fill="white"/>
<path d="M69.7451 135.983H71.008V137.214H69.7451V135.983ZM69.7451 138.766H71.008V139.998H69.7451V138.766Z" fill="white"/>
<path d="M73.4053 135.983H74.6681V137.214H73.4053V135.983ZM73.4053 138.766H74.6681V139.998H73.4053V138.766Z" fill="white"/>
<path d="M77.0645 135.983H78.3273V137.214H77.0645V135.983ZM77.0645 138.766H78.3273V139.998H77.0645V138.766Z" fill="white"/>
<path d="M80.7246 135.983H81.9875V137.214H80.7246V135.983ZM80.7246 138.766H81.9875V139.998H80.7246V138.766Z" fill="white"/>
<path d="M84.3848 135.983H85.6476V137.214H84.3848V135.983ZM84.3848 138.766H85.6476V139.998H84.3848V138.766Z" fill="white"/>
<path d="M88.042 135.983H89.3048V137.214H88.042V135.983ZM88.042 138.766H89.3048V139.998H88.042V138.766Z" fill="white"/>
<path d="M91.7021 135.983H92.965V137.214H91.7021V135.983ZM91.7021 138.766H92.965V139.998H91.7021V138.766Z" fill="white"/>
<path d="M95.3613 135.983H96.6242V137.214H95.3613V135.983ZM95.3613 138.766H96.6242V139.998H95.3613V138.766Z" fill="white"/>
<path d="M99.0215 135.983H100.284V137.214H99.0215V135.983ZM99.0215 138.766H100.284V139.998H99.0215V138.766Z" fill="white"/>
<path d="M102.682 135.983H103.944V137.214H102.682V135.983ZM102.682 138.766H103.944V139.998H102.682V138.766Z" fill="white"/>
<path d="M106.339 135.983H107.602V137.214H106.339V135.983ZM106.339 138.766H107.602V139.998H106.339V138.766Z" fill="white"/>
<path d="M109.999 135.983H111.262V137.214H109.999V135.983ZM109.999 138.766H111.262V139.998H109.999V138.766Z" fill="white"/>
<path d="M113.658 135.983H114.921V137.214H113.658V135.983ZM113.658 138.766H114.921V139.998H113.658V138.766Z" fill="white"/>
<path d="M117.318 135.983H118.581V137.214H117.318V135.983ZM117.318 138.766H118.581V139.998H117.318V138.766Z" fill="white"/>
<path d="M120.979 135.983H122.241V137.214H120.979V135.983ZM120.979 138.766H122.241V139.998H120.979V138.766Z" fill="white"/>
<path d="M124.636 135.983H125.899V137.214H124.636V135.983ZM124.636 138.766H125.899V139.998H124.636V138.766Z" fill="white"/>
<path d="M128.296 135.983H129.559V137.214H128.296V135.983ZM128.296 138.766H129.559V139.998H128.296V138.766Z" fill="white"/>
<path d="M131.956 135.983H133.219V137.214H131.956V135.983ZM131.956 138.766H133.219V139.998H131.956V138.766Z" fill="white"/>
<path d="M135.615 135.983H136.878V137.214H135.615V135.983ZM135.615 138.766H136.878V139.998H135.615V138.766Z" fill="white"/>
<path d="M139.275 135.983H140.538V137.214H139.275V135.983ZM139.275 138.766H140.538V139.998H139.275V138.766Z" fill="white"/>
<path d="M142.933 135.983H144.195V137.214H142.933V135.983ZM142.933 138.766H144.195V139.998H142.933V138.766Z" fill="white"/>
<path d="M146.593 135.983H147.856V137.214H146.593V135.983ZM146.593 138.766H147.856V139.998H146.593V138.766Z" fill="white"/>
<path d="M150.253 135.983H151.516V137.214H150.253V135.983ZM150.253 138.766H151.516V139.998H150.253V138.766Z" fill="white"/>
<path d="M153.912 135.983H155.175V137.214H153.912V135.983ZM153.912 138.766H155.175V139.998H153.912V138.766Z" fill="white"/>
<path d="M157.572 135.983H158.835V137.214H157.572V135.983ZM157.572 138.766H158.835V139.998H157.572V138.766Z" fill="white"/>
<path d="M161.229 135.983H162.492V137.214H161.229V135.983ZM161.229 138.766H162.492V139.998H161.229V138.766Z" fill="white"/>
<path d="M164.89 135.983H166.153V137.214H164.89V135.983ZM164.89 138.766H166.153V139.998H164.89V138.766Z" fill="white"/>
<path d="M168.55 135.983H169.813V137.214H168.55V135.983ZM168.55 138.766H169.813V139.998H168.55V138.766Z" fill="white"/>
<path d="M172.209 135.983H173.472V137.214H172.209V135.983ZM172.209 138.766H173.472V139.998H172.209V138.766Z" fill="white"/>
<path d="M175.869 135.983H177.132V137.214H175.869V135.983ZM175.869 138.766H177.132V139.998H175.869V138.766Z" fill="white"/>
<path d="M179.526 135.983H180.789V137.214H179.526V135.983ZM179.526 138.766H180.789V139.998H179.526V138.766Z" fill="white"/>
<path d="M183.187 135.983H184.449V137.214H183.187V135.983ZM183.187 138.766H184.449V139.998H183.187V138.766Z" fill="white"/>
<path d="M186.847 135.983H188.11V137.214H186.847V135.983ZM186.847 138.766H188.11V139.998H186.847V138.766Z" fill="white"/>
<path d="M190.506 135.983H191.769V137.214H190.506V135.983ZM190.506 138.766H191.769V139.998H190.506V138.766Z" fill="white"/>
<path d="M194.166 135.983H195.429V137.214H194.166V135.983ZM194.166 138.766H195.429V139.998H194.166V138.766Z" fill="white"/>
<path d="M197.823 135.983H199.086V137.214H197.823V135.983ZM197.823 138.766H199.086V139.998H197.823V138.766Z" fill="white"/>
<path d="M201.483 135.983H202.746V137.214H201.483V135.983ZM201.483 138.766H202.746V139.998H201.483V138.766Z" fill="white"/>
<path d="M205.144 135.983H206.406V137.214H205.144V135.983ZM205.144 138.766H206.406V139.998H205.144V138.766Z" fill="white"/>
<path d="M208.803 135.983H210.066V137.214H208.803V135.983ZM208.803 138.766H210.066V139.998H208.803V138.766Z" fill="white"/>
<path d="M212.463 135.983H213.726V137.214H212.463V135.983ZM212.463 138.766H213.726V139.998H212.463V138.766Z" fill="white"/>
<path d="M216.12 135.983H217.383V137.214H216.12V135.983ZM216.12 138.766H217.383V139.998H216.12V138.766Z" fill="white"/>
<path d="M219.78 135.983H221.043V137.214H219.78V135.983ZM219.78 138.766H221.043V139.998H219.78V138.766Z" fill="white"/>
<path d="M223.44 135.983H224.703V137.214H223.44V135.983ZM223.44 138.766H224.703V139.998H223.44V138.766Z" fill="white"/>
<path d="M227.1 135.983H228.362V137.214H227.1V135.983ZM227.1 138.766H228.362V139.998H227.1V138.766Z" fill="white"/>
<path d="M230.76 135.983H232.023V137.214H230.76V135.983ZM230.76 138.766H232.023V139.998H230.76V138.766Z" fill="white"/>
<path d="M234.418 135.983H235.681V137.214H234.418V135.983ZM234.418 138.766H235.681V139.998H234.418V138.766Z" fill="white"/>
<path d="M238.077 135.983H239.34V137.214H238.077V135.983ZM238.077 138.766H239.34V139.998H238.077V138.766Z" fill="white"/>
<path d="M241.737 135.983H243V137.214H241.737V135.983ZM241.737 138.766H243V139.998H241.737V138.766Z" fill="white"/>
</g>
<defs>
<clipPath id="clip0_6364_2189">
<rect width="178" height="134" fill="white" transform="translate(65 6)"/>
</clipPath>
</defs>
</svg>
