<svg width="472" height="457" viewBox="0 0 472 457" fill="none" xmlns="http://www.w3.org/2000/svg">
<rect width="472" height="457" rx="12" fill="#332824"/>
<g clip-path="url(#clip0_6364_5396)">
<path d="M356.772 65H364.159V66.5756H356.772V65Z" fill="white"/>
<path d="M352.215 83.666C351.966 83.5243 351.774 83.3325 351.645 83.0824C351.516 82.8323 351.45 82.5572 351.45 82.2571V79.5268C351.45 79.235 351.408 78.9932 351.321 78.7973C351.233 78.6014 351.109 78.443 350.938 78.318C350.767 78.1929 350.538 78.1054 350.247 78.0554V76.6756C350.576 76.6339 350.826 76.5589 350.996 76.4505C351.167 76.3422 351.283 76.1921 351.35 76.0004C351.416 75.8086 351.446 75.5502 351.446 75.2209V72.4447C351.446 71.9737 351.591 71.5861 351.887 71.2818C352.182 70.9775 352.582 70.8232 353.094 70.8232H355.536V72.203H353.934C353.664 72.203 353.472 72.2613 353.356 72.3739C353.239 72.4864 353.185 72.6782 353.185 72.9366V75.4126C353.185 75.8711 353.139 76.2171 353.044 76.4464C352.948 76.6756 352.752 76.8799 352.453 77.0633C352.153 77.2425 351.662 77.4593 350.984 77.7094V77.23C351.641 77.3592 352.128 77.5093 352.436 77.6719C352.744 77.8386 352.948 78.0429 353.044 78.2888C353.139 78.5347 353.185 78.9015 353.185 79.3934V81.7652C353.185 82.0236 353.243 82.2112 353.356 82.3279C353.468 82.4446 353.664 82.4988 353.934 82.4988H355.536V83.8786H353.094C352.752 83.8786 352.461 83.8077 352.211 83.6701L352.215 83.666Z" fill="white"/>
<path d="M357.639 83.0073H365.025V84.583H357.639V83.0073Z" fill="white"/>
<path d="M370.448 71.0317C370.698 71.1734 370.889 71.3651 371.018 71.6152C371.147 71.8654 371.214 72.1405 371.214 72.4406V75.1709C371.214 75.4627 371.255 75.7044 371.343 75.9003C371.426 76.0962 371.555 76.2546 371.725 76.3797C371.896 76.5047 372.125 76.5923 372.416 76.6423V78.022C372.088 78.0637 371.838 78.1387 371.667 78.2471C371.497 78.3555 371.38 78.5056 371.313 78.6973C371.247 78.889 371.218 79.1475 371.218 79.4768V82.2529C371.218 82.7239 371.072 83.1116 370.777 83.4159C370.481 83.7202 370.082 83.8744 369.57 83.8744H367.127V82.4947H368.729C369 82.4947 369.191 82.4363 369.308 82.3238C369.424 82.2071 369.478 82.0195 369.478 81.7611V79.285C369.478 78.8265 369.524 78.4806 369.62 78.2513C369.715 78.022 369.911 77.8178 370.211 77.6344C370.51 77.4551 371.001 77.2384 371.68 76.9883V77.4676C371.022 77.3384 370.535 77.1884 370.227 77.0258C369.919 76.8591 369.715 76.6548 369.62 76.4089C369.524 76.1629 369.478 75.7961 369.478 75.3043V72.9325C369.478 72.674 369.42 72.4864 369.308 72.3697C369.191 72.253 369 72.1988 368.729 72.1988H367.127V70.8191H369.57C369.907 70.8191 370.202 70.89 370.452 71.0275L370.448 71.0317Z" fill="white"/>
<path d="M361.504 88.7556H363.152V101.961H361.504V88.7556Z" fill="white"/>
<path d="M303.675 119.022H311.062V120.598H303.675V119.022Z" fill="white"/>
<path d="M312.98 119.022H320.367V120.598H312.98V119.022Z" fill="white"/>
<path d="M322.281 119.022H329.668V120.598H322.281V119.022Z" fill="white"/>
<path d="M331.587 119.022H338.974V120.598H331.587V119.022Z" fill="white"/>
<path d="M340.892 119.022H348.278V120.598H340.892V119.022Z" fill="white"/>
<path d="M350.193 119.022H357.58V120.598H350.193V119.022Z" fill="white"/>
<path d="M361.192 106.763H362.84V119.968H361.192V106.763Z" fill="white"/>
<path d="M366.436 119.022H373.822V120.598H366.436V119.022Z" fill="white"/>
<path d="M375.737 119.022H383.124V120.598H375.737V119.022Z" fill="white"/>
<path d="M385.042 119.022H392.429V120.598H385.042V119.022Z" fill="white"/>
<path d="M394.343 119.022H401.73V120.598H394.343V119.022Z" fill="white"/>
<path d="M403.648 119.022H411.035V120.598H403.648V119.022Z" fill="white"/>
<path d="M412.954 119.022H420.341V120.598H412.954V119.022Z" fill="white"/>
<path d="M422.255 119.022H429.642V120.598H422.255V119.022Z" fill="white"/>
<path d="M295.752 124.845H297.596L291.511 137.901H289.655L295.752 124.845Z" fill="white"/>
<path d="M312.094 137.029H319.481V138.605H312.094V137.029Z" fill="white"/>
<path d="M321.399 137.029H328.786V138.605H321.399V137.029Z" fill="white"/>
<path d="M330.704 137.029H338.091V138.605H330.704V137.029Z" fill="white"/>
<path d="M340.006 137.029H347.393V138.605H340.006V137.029Z" fill="white"/>
<path d="M349.311 137.029H356.697V138.605H349.311V137.029Z" fill="white"/>
<path d="M358.612 137.029H365.999V138.605H358.612V137.029Z" fill="white"/>
<path d="M367.917 137.029H375.304V138.605H367.917V137.029Z" fill="white"/>
<path d="M377.223 137.029H384.609V138.605H377.223V137.029Z" fill="white"/>
<path d="M386.523 137.029H393.91V138.605H386.523V137.029Z" fill="white"/>
<path d="M395.829 137.029H403.216V138.605H395.829V137.029Z" fill="white"/>
<path d="M430.749 124.845H432.593L438.689 137.901H436.817L430.749 124.845Z" fill="white"/>
<path d="M285.46 142.778H287.108V155.983H285.46V142.778Z" fill="white"/>
<path d="M309.322 142.853H311.166L305.082 155.908H303.226L309.322 142.853Z" fill="white"/>
<path d="M411.019 142.853H412.862L418.959 155.908H417.086L411.019 142.853Z" fill="white"/>
<path d="M441.494 142.778H443.142V155.983H441.494V142.778Z" fill="white"/>
<path d="M285.46 160.785H287.108V173.99H285.46V160.785Z" fill="white"/>
<path d="M299.031 160.785H300.679V173.99H299.031V160.785Z" fill="white"/>
<path d="M319.469 171.714C318.74 171.26 318.17 170.618 317.762 169.784C317.355 168.951 317.146 168.005 317.146 166.933C317.146 165.862 317.35 164.912 317.762 164.082C318.17 163.253 318.74 162.611 319.469 162.152C320.197 161.698 321.038 161.469 321.986 161.469C322.935 161.469 323.78 161.698 324.517 162.152C325.257 162.606 325.832 163.248 326.24 164.082C326.647 164.912 326.855 165.862 326.855 166.933C326.855 168.005 326.652 168.955 326.24 169.784C325.832 170.614 325.257 171.256 324.517 171.714C323.776 172.169 322.935 172.398 321.986 172.398C321.038 172.398 320.197 172.169 319.469 171.714ZM323.468 170.172C323.888 169.876 324.209 169.451 324.433 168.897C324.658 168.342 324.77 167.684 324.77 166.925C324.77 166.166 324.658 165.524 324.433 164.974C324.209 164.424 323.888 164.003 323.468 163.707C323.048 163.411 322.552 163.265 321.986 163.265C321.42 163.265 320.942 163.411 320.526 163.707C320.11 164.003 319.789 164.424 319.56 164.974C319.331 165.524 319.215 166.175 319.215 166.925C319.215 167.675 319.331 168.342 319.56 168.897C319.789 169.451 320.114 169.876 320.526 170.172C320.942 170.468 321.429 170.614 321.986 170.614C322.544 170.614 323.052 170.468 323.468 170.172Z" fill="white"/>
<path d="M383.378 171.714C382.65 171.26 382.079 170.618 381.672 169.784C381.264 168.955 381.056 168.005 381.056 166.933C381.056 165.862 381.26 164.912 381.672 164.082C382.079 163.253 382.65 162.611 383.378 162.152C384.106 161.698 384.947 161.469 385.896 161.469C386.844 161.469 387.689 161.698 388.426 162.152C389.167 162.606 389.741 163.248 390.149 164.082C390.557 164.912 390.765 165.862 390.765 166.933C390.765 168.005 390.561 168.955 390.149 169.784C389.737 170.614 389.167 171.256 388.426 171.714C387.685 172.173 386.844 172.398 385.896 172.398C384.947 172.398 384.106 172.169 383.378 171.714ZM387.377 170.172C387.797 169.876 388.118 169.451 388.343 168.897C388.567 168.342 388.68 167.684 388.68 166.925C388.68 166.166 388.567 165.524 388.343 164.974C388.118 164.424 387.797 164.003 387.377 163.707C386.957 163.411 386.462 163.265 385.896 163.265C385.33 163.265 384.851 163.411 384.435 163.707C384.019 164.003 383.698 164.424 383.469 164.974C383.24 165.524 383.124 166.175 383.124 166.925C383.124 167.675 383.24 168.342 383.469 168.897C383.698 169.451 384.023 169.876 384.435 170.172C384.851 170.468 385.338 170.614 385.896 170.614C386.453 170.614 386.961 170.468 387.377 170.172Z" fill="white"/>
<path d="M420.52 160.785H422.168V173.99H420.52V160.785Z" fill="white"/>
<path d="M440.729 160.785H442.377V173.99H440.729V160.785Z" fill="white"/>
<path d="M285.46 178.792H287.108V191.998H285.46V178.792Z" fill="white"/>
<path d="M303.047 178.867H304.89L310.987 191.923H309.114L303.047 178.867Z" fill="white"/>
<path d="M312.156 191.052H319.543V192.627H312.156V191.052Z" fill="white"/>
<path d="M321.458 191.052H328.845V192.627H321.458V191.052Z" fill="white"/>
<path d="M330.763 191.052H338.149V192.627H330.763V191.052Z" fill="white"/>
<path d="M340.068 191.052H347.455V192.627H340.068V191.052Z" fill="white"/>
<path d="M349.369 191.052H356.756V192.627H349.369V191.052Z" fill="white"/>
<path d="M358.675 191.052H366.062V192.627H358.675V191.052Z" fill="white"/>
<path d="M367.976 191.052H375.362V192.627H367.976V191.052Z" fill="white"/>
<path d="M377.281 191.052H384.668V192.627H377.281V191.052Z" fill="white"/>
<path d="M386.586 191.052H393.973V192.627H386.586V191.052Z" fill="white"/>
<path d="M395.887 191.052H403.274V192.627H395.887V191.052Z" fill="white"/>
<path d="M417.178 178.867H419.021L412.937 191.923H411.081L417.178 178.867Z" fill="white"/>
<path d="M441.852 178.792H443.5V191.998H441.852V178.792Z" fill="white"/>
<path d="M285.46 196.8H287.108V210.005H285.46V196.8Z" fill="white"/>
<path d="M351.662 196.875H355.782V198.283H353.414V208.517H355.782V209.926H351.662V196.87V196.875Z" fill="white"/>
<path d="M362.208 209.93H358.088V208.521H360.456V198.288H358.088V196.879H362.208V209.934V209.93Z" fill="white"/>
<path d="M440.054 196.8H441.702V210.005H440.054V196.8Z" fill="white"/>
<path d="M289.472 214.882H291.315L297.412 227.937H295.539L289.472 214.882Z" fill="white"/>
<path d="M298.581 227.066H305.968V228.642H298.581V227.066Z" fill="white"/>
<path d="M307.887 227.066H315.274V228.642H307.887V227.066Z" fill="white"/>
<path d="M317.188 227.066H324.574V228.642H317.188V227.066Z" fill="white"/>
<path d="M326.493 227.066H333.88V228.642H326.493V227.066Z" fill="white"/>
<path d="M335.798 227.066H343.185V228.642H335.798V227.066Z" fill="white"/>
<path d="M345.1 227.066H352.486V228.642H345.1V227.066Z" fill="white"/>
<path d="M354.404 227.066H361.791V228.642H354.404V227.066Z" fill="white"/>
<path d="M363.706 227.066H371.093V228.642H363.706V227.066Z" fill="white"/>
<path d="M373.011 227.066H380.398V228.642H373.011V227.066Z" fill="white"/>
<path d="M382.316 227.066H389.703V228.642H382.316V227.066Z" fill="white"/>
<path d="M391.617 227.066H399.004V228.642H391.617V227.066Z" fill="white"/>
<path d="M400.923 227.066H408.31V228.642H400.923V227.066Z" fill="white"/>
<path d="M410.224 227.066H417.61V228.642H410.224V227.066Z" fill="white"/>
<path d="M419.529 227.066H426.916V228.642H419.529V227.066Z" fill="white"/>
<path d="M434.182 214.882H436.025L429.941 227.937H428.085L434.182 214.882Z" fill="white"/>
<path d="M363.469 245.073H370.856V246.649H363.469V245.073Z" fill="white"/>
<path d="M372.77 245.073H380.156V246.649H372.77V245.073Z" fill="white"/>
<path d="M382.075 245.073H389.462V246.649H382.075V245.073Z" fill="white"/>
<path d="M391.38 245.073H398.767V246.649H391.38V245.073Z" fill="white"/>
<path d="M404.081 250.897H405.925L412.021 263.952H410.149L404.081 250.897Z" fill="white"/>
<path d="M410.719 268.904H412.562L418.659 281.959H416.786L410.719 268.904Z" fill="white"/>
<path d="M417.356 286.911H419.2L425.297 299.967H423.424L417.356 286.911Z" fill="white"/>
<path d="M430.632 304.919H432.475L438.572 317.974H436.699L430.632 304.919Z" fill="white"/>
<path d="M122.136 120.668H129.523V122.244H122.136V120.668Z" fill="#FF943F"/>
<path d="M131.44 120.668H138.827V122.244H131.44V120.668Z" fill="#FF943F"/>
<path d="M140.742 120.668H148.129V122.244H140.742V120.668Z" fill="#FF943F"/>
<path d="M150.047 120.668H157.434V122.244H150.047V120.668Z" fill="#FF943F"/>
<path d="M159.348 120.668H166.734V122.244H159.348V120.668Z" fill="#FF943F"/>
<path d="M168.653 120.668H176.04V122.244H168.653V120.668Z" fill="#FF943F"/>
<path d="M177.959 120.668H185.346V122.244H177.959V120.668Z" fill="#FF943F"/>
<path d="M187.26 120.668H194.647V122.244H187.26V120.668Z" fill="#FF943F"/>
<path d="M196.565 120.668H203.952V122.244H196.565V120.668Z" fill="#FF943F"/>
<path d="M205.866 120.668H213.253V122.244H205.866V120.668Z" fill="#FF943F"/>
<path d="M114.212 126.488H116.056L109.971 139.543H108.115L114.212 126.488Z" fill="#FF943F"/>
<path d="M215.904 126.488H217.748L223.845 139.543H221.972L215.904 126.488Z" fill="#FF943F"/>
<path d="M103.916 144.42H105.564V157.625H103.916V144.42Z" fill="#FF943F"/>
<path d="M122.377 148.205H130.167V149.751H122.377V148.205ZM122.377 151.714H130.167V153.261H122.377V151.714Z" fill="#FF943F"/>
<path d="M131.978 148.205H139.768V149.751H131.978V148.205ZM131.978 151.714H139.768V153.261H131.978V151.714Z" fill="#FF943F"/>
<path d="M141.582 148.205H149.372V149.751H141.582V148.205ZM141.582 151.714H149.372V153.261H141.582V151.714Z" fill="#FF943F"/>
<path d="M151.184 148.205H158.974V149.751H151.184V148.205ZM151.184 151.714H158.974V153.261H151.184V151.714Z" fill="#FF943F"/>
<path d="M160.788 148.205H168.579V149.751H160.788V148.205ZM160.788 151.714H168.579V153.261H160.788V151.714Z" fill="#FF943F"/>
<path d="M170.393 148.205H178.183V149.751H170.393V148.205ZM170.393 151.714H178.183V153.261H170.393V151.714Z" fill="#FF943F"/>
<path d="M179.994 148.205H187.785V149.751H179.994V148.205ZM179.994 151.714H187.785V153.261H179.994V151.714Z" fill="#FF943F"/>
<path d="M189.599 148.205H197.389V149.751H189.599V148.205ZM189.599 151.714H197.389V153.261H189.599V151.714Z" fill="#FF943F"/>
<path d="M199.199 148.205H206.99V149.751H199.199V148.205ZM199.199 151.714H206.99V153.261H199.199V151.714Z" fill="#FF943F"/>
<path d="M223.832 144.42H225.48V157.625H223.832V144.42Z" fill="#FF943F"/>
<path d="M103.916 162.427H105.564V175.633H103.916V162.427Z" fill="#FF943F"/>
<path d="M122.377 166.212H130.167V167.758H122.377V166.212ZM122.377 169.722H130.167V171.268H122.377V169.722Z" fill="#FF943F"/>
<path d="M131.978 166.212H139.768V167.758H131.978V166.212ZM131.978 169.722H139.768V171.268H131.978V169.722Z" fill="#FF943F"/>
<path d="M141.582 166.212H149.372V167.758H141.582V166.212ZM141.582 169.722H149.372V171.268H141.582V169.722Z" fill="#FF943F"/>
<path d="M151.184 166.212H158.974V167.758H151.184V166.212ZM151.184 169.722H158.974V171.268H151.184V169.722Z" fill="#FF943F"/>
<path d="M160.788 166.212H168.579V167.758H160.788V166.212ZM160.788 169.722H168.579V171.268H160.788V169.722Z" fill="#FF943F"/>
<path d="M170.393 166.212H178.183V167.758H170.393V166.212ZM170.393 169.722H178.183V171.268H170.393V169.722Z" fill="#FF943F"/>
<path d="M179.994 166.212H187.785V167.758H179.994V166.212ZM179.994 169.722H187.785V171.268H179.994V169.722Z" fill="#FF943F"/>
<path d="M189.599 166.212H197.389V167.758H189.599V166.212ZM189.599 169.722H197.389V171.268H189.599V169.722Z" fill="#FF943F"/>
<path d="M199.199 166.212H206.99V167.758H199.199V166.212ZM199.199 169.722H206.99V171.268H199.199V169.722Z" fill="#FF943F"/>
<path d="M223.832 162.427H225.48V175.633H223.832V162.427Z" fill="#FF943F"/>
<path d="M107.932 180.51H109.775L115.872 193.565H113.999L107.932 180.51Z" fill="#FF943F"/>
<path d="M123.438 192.698H130.824V194.273H123.438V192.698Z" fill="#FF943F"/>
<path d="M132.743 192.698H140.13V194.273H132.743V192.698Z" fill="#FF943F"/>
<path d="M142.044 192.698H149.431V194.273H142.044V192.698Z" fill="#FF943F"/>
<path d="M151.35 192.698H158.736V194.273H151.35V192.698Z" fill="#FF943F"/>
<path d="M160.655 192.698H168.042V194.273H160.655V192.698Z" fill="#FF943F"/>
<path d="M169.956 192.698H177.343V194.273H169.956V192.698Z" fill="#FF943F"/>
<path d="M179.261 192.698H186.648V194.273H179.261V192.698Z" fill="#FF943F"/>
<path d="M188.562 192.698H195.949V194.273H188.562V192.698Z" fill="#FF943F"/>
<path d="M197.867 192.698H205.254V194.273H197.867V192.698Z" fill="#FF943F"/>
<path d="M219.154 180.51H220.998L214.914 193.565H213.058L219.154 180.51Z" fill="#FF943F"/>
<path d="M154.029 198.517H155.873L149.789 211.572H147.933L154.029 198.517Z" fill="#FF943F"/>
<path d="M147.392 216.524H149.235L143.151 229.579H141.295L147.392 216.524Z" fill="#FF943F"/>
<path d="M278.644 251.484H286.03V253.06H278.644V251.484Z" fill="#FF943F"/>
<path d="M287.944 251.484H295.331V253.06H287.944V251.484Z" fill="#FF943F"/>
<path d="M297.25 251.484H304.637V253.06H297.25V251.484Z" fill="#FF943F"/>
<path d="M306.551 251.484H313.938V253.06H306.551V251.484Z" fill="#FF943F"/>
<path d="M315.855 251.484H323.242V253.06H315.855V251.484Z" fill="#FF943F"/>
<path d="M325.161 251.484H332.548V253.06H325.161V251.484Z" fill="#FF943F"/>
<path d="M334.462 251.484H341.849V253.06H334.462V251.484Z" fill="#FF943F"/>
<path d="M270.716 257.308H272.559L266.475 270.363H264.619L270.716 257.308Z" fill="#FF943F"/>
<path d="M345.865 257.308H347.709L353.806 270.363H351.933L345.865 257.308Z" fill="#FF943F"/>
<path d="M260.424 275.24H262.072V288.445H260.424V275.24Z" fill="#FF943F"/>
<path d="M278.881 279.021H286.671V280.567H278.881V279.021ZM278.881 282.53H286.671V284.077H278.881V282.53Z" fill="#FF943F"/>
<path d="M288.485 279.021H296.276V280.567H288.485V279.021ZM288.485 282.53H296.276V284.077H288.485V282.53Z" fill="#FF943F"/>
<path d="M298.086 279.021H305.876V280.567H298.086V279.021ZM298.086 282.53H305.876V284.077H298.086V282.53Z" fill="#FF943F"/>
<path d="M307.691 279.021H315.482V280.567H307.691V279.021ZM307.691 282.53H315.482V284.077H307.691V282.53Z" fill="#FF943F"/>
<path d="M317.296 279.021H325.086V280.567H317.296V279.021ZM317.296 282.53H325.086V284.077H317.296V282.53Z" fill="#FF943F"/>
<path d="M326.896 279.021H334.687V280.567H326.896V279.021ZM326.896 282.53H334.687V284.077H326.896V282.53Z" fill="#FF943F"/>
<path d="M351.529 275.24H353.177V288.445H351.529V275.24Z" fill="#FF943F"/>
<path d="M264.439 293.322H266.283L272.38 306.378H270.507L264.439 293.322Z" fill="#FF943F"/>
<path d="M279.945 305.506H287.332V307.082H279.945V305.506Z" fill="#FF943F"/>
<path d="M289.247 305.506H296.634V307.082H289.247V305.506Z" fill="#FF943F"/>
<path d="M298.552 305.506H305.939V307.082H298.552V305.506Z" fill="#FF943F"/>
<path d="M307.857 305.506H315.244V307.082H307.857V305.506Z" fill="#FF943F"/>
<path d="M317.158 305.506H324.545V307.082H317.158V305.506Z" fill="#FF943F"/>
<path d="M326.464 305.506H333.851V307.082H326.464V305.506Z" fill="#FF943F"/>
<path d="M347.75 293.322H349.594L343.509 306.378H341.653L347.75 293.322Z" fill="#FF943F"/>
<path d="M349.686 240.121H351.529L345.445 253.177H343.589L349.686 240.121Z" fill="#FF943F"/>
<path d="M29.1904 246.366H36.5772V247.941H29.1904V246.366Z" fill="white"/>
<path d="M38.4922 246.366H45.879V247.941H38.4922V246.366Z" fill="white"/>
<path d="M47.7969 246.366H55.1837V247.941H47.7969V246.366Z" fill="white"/>
<path d="M57.0986 246.366H64.4854V247.941H57.0986V246.366Z" fill="white"/>
<path d="M66.4033 246.366H73.7901V247.941H66.4033V246.366Z" fill="white"/>
<path d="M75.709 246.366H83.0958V247.941H75.709V246.366Z" fill="white"/>
<path d="M85.0098 246.366H92.3966V247.941H85.0098V246.366Z" fill="white"/>
<path d="M94.3154 246.366H101.702V247.941H94.3154V246.366Z" fill="white"/>
<path d="M103.616 246.366H111.003V247.941H103.616V246.366Z" fill="white"/>
<path d="M112.922 246.366H120.309V247.941H112.922V246.366Z" fill="white"/>
<path d="M122.227 246.366H129.613V247.941H122.227V246.366Z" fill="white"/>
<path d="M131.528 246.366H138.915V247.941H131.528V246.366Z" fill="white"/>
<path d="M140.833 246.366H148.22V247.941H140.833V246.366Z" fill="white"/>
<path d="M150.135 246.366H157.522V247.941H150.135V246.366Z" fill="white"/>
<path d="M159.439 246.366H166.826V247.941H159.439V246.366Z" fill="white"/>
<path d="M168.745 246.366H176.132V247.941H168.745V246.366Z" fill="white"/>
<path d="M178.046 246.366H185.433V247.941H178.046V246.366Z" fill="white"/>
<path d="M187.352 246.366H194.738V247.941H187.352V246.366Z" fill="white"/>
<path d="M196.652 246.366H204.039V247.941H196.652V246.366Z" fill="white"/>
<path d="M205.958 246.366H213.345V247.941H205.958V246.366Z" fill="white"/>
<path d="M28.5 252.189H30.3436L36.4403 265.244H34.5676L28.5 252.189Z" fill="white"/>
<path d="M51.3633 258.521H56.2614V260.171H51.3633V258.521Z" fill="white"/>
<path d="M59.6035 258.521H64.5017V260.171H59.6035V258.521Z" fill="white"/>
<path d="M67.8438 258.521H72.7419V260.171H67.8438V258.521Z" fill="white"/>
<path d="M76.083 258.521H80.9812V260.171H76.083V258.521Z" fill="white"/>
<path d="M84.3232 258.521H89.2214V260.171H84.3232V258.521Z" fill="white"/>
<path d="M92.5635 258.521H97.4616V260.171H92.5635V258.521Z" fill="white"/>
<path d="M100.803 258.521H105.701V260.171H100.803V258.521Z" fill="white"/>
<path d="M109.043 258.521H113.941V260.171H109.043V258.521Z" fill="white"/>
<path d="M117.283 258.521H122.181V260.171H117.283V258.521Z" fill="white"/>
<path d="M125.522 258.521H130.421V260.171H125.522V258.521Z" fill="white"/>
<path d="M133.763 258.521H138.661V260.171H133.763V258.521Z" fill="white"/>
<path d="M142.003 258.521H146.901V260.171H142.003V258.521Z" fill="white"/>
<path d="M150.242 258.521H155.14V260.171H150.242V258.521Z" fill="white"/>
<path d="M158.482 258.521H163.381V260.171H158.482V258.521Z" fill="white"/>
<path d="M166.723 258.521H171.621V260.171H166.723V258.521Z" fill="white"/>
<path d="M174.962 258.521H179.86V260.171H174.962V258.521Z" fill="white"/>
<path d="M183.202 258.521H188.1V260.171H183.202V258.521Z" fill="white"/>
<path d="M191.442 258.521H196.341V260.171H191.442V258.521Z" fill="white"/>
<path d="M199.682 258.521H204.58V260.171H199.682V258.521Z" fill="white"/>
<path d="M212.907 252.189H214.751L220.848 265.244H218.975L212.907 252.189Z" fill="white"/>
<path d="M37.5186 270.121H39.1665V283.327H37.5186V270.121Z" fill="white"/>
<path d="M51.0928 270.121H52.7408V283.327H51.0928V270.121Z" fill="white"/>
<path d="M217.314 270.121H218.962V283.327H217.314V270.121Z" fill="white"/>
<path d="M230.886 270.121H232.534V283.327H230.886V270.121Z" fill="white"/>
<path d="M41.5342 288.204H43.3778L49.4745 301.259H47.6017L41.5342 288.204Z" fill="white"/>
<path d="M56.1123 288.204H57.9559L64.0526 301.259H62.1799L56.1123 288.204Z" fill="white"/>
<path d="M100.083 299.062C99.3546 298.608 98.7845 297.966 98.3767 297.132C97.9688 296.299 97.7607 295.352 97.7607 294.281C97.7607 293.21 97.9647 292.259 98.3767 291.43C98.7845 290.6 99.3546 289.959 100.083 289.5C100.811 289.046 101.652 288.816 102.601 288.816C103.549 288.816 104.394 289.046 105.131 289.5C105.872 289.954 106.446 290.596 106.854 291.43C107.262 292.259 107.47 293.21 107.47 294.281C107.47 295.352 107.266 296.303 106.854 297.132C106.446 297.962 105.872 298.604 105.131 299.062C104.39 299.517 103.549 299.746 102.601 299.746C101.652 299.746 100.811 299.517 100.083 299.062ZM104.082 297.516C104.502 297.22 104.823 296.795 105.048 296.24C105.272 295.686 105.385 295.027 105.385 294.269C105.385 293.51 105.272 292.868 105.048 292.318C104.823 291.768 104.502 291.347 104.082 291.051C103.662 290.755 103.167 290.609 102.601 290.609C102.035 290.609 101.556 290.755 101.14 291.051C100.724 291.347 100.403 291.768 100.174 292.318C99.9456 292.868 99.829 293.518 99.829 294.269C99.829 295.019 99.9456 295.686 100.174 296.24C100.403 296.795 100.728 297.22 101.14 297.516C101.556 297.812 102.043 297.958 102.601 297.958C103.158 297.958 103.666 297.812 104.082 297.516Z" fill="white"/>
<path d="M115.618 300.388H123.005V301.963H115.618V300.388Z" fill="white"/>
<path d="M124.924 300.388H132.311V301.963H124.924V300.388Z" fill="white"/>
<path d="M134.225 300.388H141.611V301.963H134.225V300.388Z" fill="white"/>
<path d="M143.53 300.388H150.917V301.963H143.53V300.388Z" fill="white"/>
<path d="M152.831 300.388H160.218V301.963H152.831V300.388Z" fill="white"/>
<path d="M162.137 300.388H169.524V301.963H162.137V300.388Z" fill="white"/>
<path d="M171.441 300.388H178.828V301.963H171.441V300.388Z" fill="white"/>
<path d="M180.743 300.388H188.13V301.963H180.743V300.388Z" fill="white"/>
<path d="M191.546 299.062C190.818 298.608 190.247 297.966 189.84 297.132C189.432 296.299 189.224 295.352 189.224 294.281C189.224 293.21 189.428 292.259 189.84 291.43C190.247 290.6 190.818 289.959 191.546 289.5C192.274 289.046 193.115 288.816 194.064 288.816C195.012 288.816 195.857 289.046 196.594 289.5C197.335 289.954 197.909 290.596 198.317 291.43C198.724 292.259 198.933 293.21 198.933 294.281C198.933 295.352 198.729 296.303 198.317 297.132C197.909 297.962 197.33 298.604 196.594 299.062C195.853 299.517 195.012 299.746 194.064 299.746C193.115 299.746 192.274 299.517 191.546 299.062ZM195.545 297.516C195.965 297.22 196.286 296.795 196.511 296.24C196.735 295.686 196.848 295.027 196.848 294.269C196.848 293.51 196.735 292.868 196.511 292.318C196.286 291.768 195.965 291.347 195.545 291.051C195.125 290.755 194.63 290.609 194.064 290.609C193.498 290.609 193.019 290.755 192.603 291.051C192.187 291.347 191.866 291.768 191.637 292.318C191.408 292.868 191.292 293.518 191.292 294.269C191.292 295.019 191.408 295.686 191.637 296.24C191.866 296.795 192.191 297.22 192.603 297.516C193.015 297.812 193.506 297.958 194.064 297.958C194.621 297.958 195.129 297.812 195.545 297.516Z" fill="white"/>
<path d="M219.425 288.204H221.268L227.365 301.259H225.492L219.425 288.204Z" fill="white"/>
<path d="M234.003 288.204H235.847L241.943 301.259H240.071L234.003 288.204Z" fill="white"/>
<path d="M50.7939 306.136H52.4419V319.341H50.7939V306.136Z" fill="white"/>
<path d="M64.3643 306.136H66.0122V319.341H64.3643V306.136Z" fill="white"/>
<path d="M115.14 306.211H116.983L123.08 319.266H121.207L115.14 306.211Z" fill="white"/>
<path d="M124.249 318.395H131.636V319.971H124.249V318.395Z" fill="white"/>
<path d="M135.244 306.136H136.892V319.341H135.244V306.136Z" fill="white"/>
<path d="M140.488 318.395H147.875V319.971H140.488V318.395Z" fill="white"/>
<path d="M151.482 306.136H153.13V319.341H151.482V306.136Z" fill="white"/>
<path d="M156.727 318.395H164.113V319.971H156.727V318.395Z" fill="white"/>
<path d="M167.726 306.136H169.374V319.341H167.726V306.136Z" fill="white"/>
<path d="M172.969 318.395H180.356V319.971H172.969V318.395Z" fill="white"/>
<path d="M183.964 306.136H185.612V319.341H183.964V306.136Z" fill="white"/>
<path d="M230.723 306.136H232.371V319.341H230.723V306.136Z" fill="white"/>
<path d="M244.294 306.136H245.942V319.341H244.294V306.136Z" fill="white"/>
<path d="M54.8096 324.218H56.6531L62.7498 337.274H60.8771L54.8096 324.218Z" fill="white"/>
<path d="M69.3828 324.218H71.2264L77.3231 337.274H75.4504L69.3828 324.218Z" fill="white"/>
<path d="M236.611 324.218H238.455L244.552 337.274H242.679L236.611 324.218Z" fill="white"/>
<path d="M251.186 324.218H253.029L259.126 337.274H257.253L251.186 324.218Z" fill="white"/>
<path d="M64.0645 342.151H65.7124V355.356H64.0645V342.151Z" fill="white"/>
<path d="M77.6396 342.151H79.2876V355.356H77.6396V342.151Z" fill="white"/>
<path d="M82.8838 354.41H90.2706V355.985H82.8838V354.41Z" fill="white"/>
<path d="M92.1885 354.41H99.5753V355.985H92.1885V354.41Z" fill="white"/>
<path d="M101.49 354.41H108.877V355.985H101.49V354.41Z" fill="white"/>
<path d="M110.795 354.41H118.182V355.985H110.795V354.41Z" fill="white"/>
<path d="M120.096 354.41H127.482V355.985H120.096V354.41Z" fill="white"/>
<path d="M129.401 354.41H136.788V355.985H129.401V354.41Z" fill="white"/>
<path d="M138.707 354.41H146.094V355.985H138.707V354.41Z" fill="white"/>
<path d="M148.008 354.41H155.395V355.985H148.008V354.41Z" fill="white"/>
<path d="M157.313 354.41H164.7V355.985H157.313V354.41Z" fill="white"/>
<path d="M166.614 354.41H174.001V355.985H166.614V354.41Z" fill="white"/>
<path d="M175.92 354.41H183.307V355.985H175.92V354.41Z" fill="white"/>
<path d="M185.225 354.41H192.611V355.985H185.225V354.41Z" fill="white"/>
<path d="M194.525 354.41H201.912V355.985H194.525V354.41Z" fill="white"/>
<path d="M203.831 354.41H211.218V355.985H203.831V354.41Z" fill="white"/>
<path d="M213.132 354.41H220.519V355.985H213.132V354.41Z" fill="white"/>
<path d="M222.438 354.41H229.824V355.985H222.438V354.41Z" fill="white"/>
<path d="M231.743 354.41H239.13V355.985H231.743V354.41Z" fill="white"/>
<path d="M241.044 354.41H248.431V355.985H241.044V354.41Z" fill="white"/>
<path d="M252.043 342.151H253.691V355.356H252.043V342.151Z" fill="white"/>
<path d="M265.613 342.151H267.261V355.356H265.613V342.151Z" fill="white"/>
<path d="M68.0811 360.233H69.9246L76.0213 373.288H74.1486L68.0811 360.233Z" fill="white"/>
<path d="M77.1904 372.417H84.5772V373.993H77.1904V372.417Z" fill="white"/>
<path d="M86.4961 372.417H93.8829V373.993H86.4961V372.417Z" fill="white"/>
<path d="M95.7969 372.417H103.184V373.993H95.7969V372.417Z" fill="white"/>
<path d="M105.102 372.417H112.488V373.993H105.102V372.417Z" fill="white"/>
<path d="M114.403 372.417H121.79V373.993H114.403V372.417Z" fill="white"/>
<path d="M123.708 372.417H131.095V373.993H123.708V372.417Z" fill="white"/>
<path d="M133.014 372.417H140.4V373.993H133.014V372.417Z" fill="white"/>
<path d="M142.314 372.417H149.701V373.993H142.314V372.417Z" fill="white"/>
<path d="M151.62 372.417H159.007V373.993H151.62V372.417Z" fill="white"/>
<path d="M160.921 372.417H168.308V373.993H160.921V372.417Z" fill="white"/>
<path d="M170.227 372.417H177.613V373.993H170.227V372.417Z" fill="white"/>
<path d="M179.531 372.417H186.918V373.993H179.531V372.417Z" fill="white"/>
<path d="M188.833 372.417H196.22V373.993H188.833V372.417Z" fill="white"/>
<path d="M198.138 372.417H205.524V373.993H198.138V372.417Z" fill="white"/>
<path d="M207.439 372.417H214.826V373.993H207.439V372.417Z" fill="white"/>
<path d="M216.744 372.417H224.131V373.993H216.744V372.417Z" fill="white"/>
<path d="M226.05 372.417H233.437V373.993H226.05V372.417Z" fill="white"/>
<path d="M235.351 372.417H242.737V373.993H235.351V372.417Z" fill="white"/>
<path d="M256.999 360.233H258.843L264.939 373.288H263.067L256.999 360.233Z" fill="white"/>
<path d="M271.577 360.233H273.421L279.517 373.288H277.645L271.577 360.233Z" fill="white"/>
<path d="M280.687 372.417H288.073V373.993H280.687V372.417Z" fill="white"/>
<path d="M289.988 372.417H297.375V373.993H289.988V372.417Z" fill="white"/>
<path d="M299.293 372.417H306.68V373.993H299.293V372.417Z" fill="white"/>
<path d="M308.599 372.417H315.985V373.993H308.599V372.417Z" fill="white"/>
<path d="M317.899 372.417H325.286V373.993H317.899V372.417Z" fill="white"/>
<path d="M327.205 372.417H334.592V373.993H327.205V372.417Z" fill="white"/>
<path d="M336.506 372.417H343.893V373.993H336.506V372.417Z" fill="white"/>
<path d="M345.812 372.417H353.198V373.993H345.812V372.417Z" fill="white"/>
<path d="M355.116 372.417H362.503V373.993H355.116V372.417Z" fill="white"/>
<path d="M364.418 372.417H371.805V373.993H364.418V372.417Z" fill="white"/>
<path d="M373.723 372.417H381.109V373.993H373.723V372.417Z" fill="white"/>
<path d="M77.3398 378.165H78.9878V391.371H77.3398V378.165Z" fill="white"/>
<path d="M82.584 390.425H89.9708V392H82.584V390.425Z" fill="white"/>
<path d="M91.8887 390.425H99.2755V392H91.8887V390.425Z" fill="white"/>
<path d="M101.19 390.425H108.577V392H101.19V390.425Z" fill="white"/>
<path d="M110.495 390.425H117.882V392H110.495V390.425Z" fill="white"/>
<path d="M119.797 390.425H127.184V392H119.797V390.425Z" fill="white"/>
<path d="M129.102 390.425H136.488V392H129.102V390.425Z" fill="white"/>
<path d="M138.407 390.425H145.794V392H138.407V390.425Z" fill="white"/>
<path d="M147.708 390.425H155.095V392H147.708V390.425Z" fill="white"/>
<path d="M157.014 390.425H164.4V392H157.014V390.425Z" fill="white"/>
<path d="M166.314 390.425H173.701V392H166.314V390.425Z" fill="white"/>
<path d="M175.62 390.425H183.007V392H175.62V390.425Z" fill="white"/>
<path d="M184.925 390.425H192.312V392H184.925V390.425Z" fill="white"/>
<path d="M195.92 378.165H197.568V391.371H195.92V378.165Z" fill="white"/>
<path d="M201.163 390.425H208.55V392H201.163V390.425Z" fill="white"/>
<path d="M210.469 390.425H217.856V392H210.469V390.425Z" fill="white"/>
<path d="M219.77 390.425H227.156V392H219.77V390.425Z" fill="white"/>
<path d="M229.075 390.425H236.462V392H229.075V390.425Z" fill="white"/>
<path d="M238.376 390.425H245.763V392H238.376V390.425Z" fill="white"/>
<path d="M247.682 390.425H255.068V392H247.682V390.425Z" fill="white"/>
<path d="M256.986 390.425H264.373V392H256.986V390.425Z" fill="white"/>
<path d="M266.288 390.425H273.675V392H266.288V390.425Z" fill="white"/>
<path d="M275.593 390.425H282.98V392H275.593V390.425Z" fill="white"/>
<path d="M284.895 390.425H292.281V392H284.895V390.425Z" fill="white"/>
<path d="M294.199 390.425H301.586V392H294.199V390.425Z" fill="white"/>
<path d="M303.505 390.425H310.892V392H303.505V390.425Z" fill="white"/>
<path d="M312.806 390.425H320.192V392H312.806V390.425Z" fill="white"/>
<path d="M322.111 390.425H329.498V392H322.111V390.425Z" fill="white"/>
<path d="M331.412 390.425H338.799V392H331.412V390.425Z" fill="white"/>
<path d="M340.718 390.425H348.105V392H340.718V390.425Z" fill="white"/>
<path d="M350.022 390.425H357.409V392H350.022V390.425Z" fill="white"/>
<path d="M359.324 390.425H366.711V392H359.324V390.425Z" fill="white"/>
<path d="M368.629 390.425H376.016V392H368.629V390.425Z" fill="white"/>
<path d="M379.624 378.165H381.272V391.371H379.624V378.165Z" fill="white"/>
</g>
<defs>
<clipPath id="clip0_6364_5396">
<rect width="415" height="327" fill="white" transform="translate(28.5 65)"/>
</clipPath>
</defs>
</svg>
