<svg width="472" height="457" viewBox="0 0 472 457" fill="none" xmlns="http://www.w3.org/2000/svg">
<rect width="472" height="457" rx="12" fill="#332824"/>
<g clip-path="url(#clip0_6314_1380)">
<path d="M145.938 264.979H147.994L154.795 279.544H152.706L145.938 264.979Z" fill="white"/>
<path d="M153.908 264.979H155.965L162.765 279.544H160.676L153.908 264.979Z" fill="white"/>
<path d="M161.883 264.979H163.939L170.74 279.544H168.651L161.883 264.979Z" fill="white"/>
<path d="M169.854 264.979H171.91L178.711 279.544H176.622L169.854 264.979Z" fill="white"/>
<path d="M195.788 275.042H198.429V277.619H195.788V275.042Z" fill="white"/>
<path d="M153.072 285.069H155.129L161.929 299.635H159.84L153.072 285.069Z" fill="white"/>
<path d="M163.233 298.667H171.473V300.425H163.233V298.667Z" fill="white"/>
<path d="M173.613 298.667H181.853V300.425H173.613V298.667Z" fill="white"/>
<path d="M189.958 285.069H192.014L185.228 299.635H183.157L189.958 285.069Z" fill="white"/>
<path d="M58.5605 211.182H67.2504V212.907H58.5605V211.182ZM62.0049 207.782H63.8246V216.371H62.0049V207.782Z" fill="#FF943F"/>
<path d="M76.8129 208.177C76.4694 207.847 76.293 207.428 76.293 206.912C76.293 206.396 76.4647 205.973 76.8129 205.638C77.1564 205.303 77.5974 205.136 78.1312 205.136C78.6651 205.136 79.106 205.303 79.4496 205.638C79.7931 205.973 79.9695 206.396 79.9695 206.912C79.9695 207.428 79.7931 207.833 79.4449 208.168C79.0921 208.503 78.6558 208.67 78.1312 208.67C77.6067 208.67 77.1564 208.507 76.8129 208.177ZM78.6418 207.405C78.7718 207.275 78.8322 207.112 78.8322 206.912C78.8322 206.698 78.7672 206.531 78.6418 206.401C78.5119 206.27 78.3448 206.21 78.1312 206.21C77.9177 206.21 77.7645 206.275 77.6392 206.401C77.5092 206.531 77.4488 206.698 77.4488 206.912C77.4488 207.112 77.5138 207.28 77.6392 207.405C77.7691 207.535 77.9316 207.596 78.1312 207.596C78.3448 207.596 78.5119 207.531 78.6418 207.405Z" fill="#FF943F"/>
<path d="M96.3977 230.318L98.1849 228.328L98.3845 228.663L95.7432 228.058L96.2956 226.486L98.6862 227.542L98.3845 227.728L98.1152 225.101H99.7864L99.5171 227.728L99.234 227.542L101.625 226.486L102.158 228.058L99.5682 228.644L99.7028 228.328L101.523 230.318L100.135 231.258L98.7976 228.979H99.1133L97.7764 231.258L96.3884 230.318H96.3977Z" fill="#FF943F"/>
<path d="M120.713 228.268C120.37 227.937 120.193 227.519 120.193 227.003C120.193 226.486 120.365 226.063 120.713 225.728C121.057 225.394 121.498 225.226 122.032 225.226C122.565 225.226 123.006 225.394 123.35 225.728C123.693 226.063 123.87 226.486 123.87 227.003C123.87 227.519 123.693 227.923 123.345 228.258C122.993 228.593 122.556 228.76 122.032 228.76C121.507 228.76 121.057 228.598 120.713 228.268ZM122.542 227.496C122.672 227.365 122.733 227.203 122.733 227.003C122.733 226.789 122.668 226.621 122.542 226.491C122.412 226.361 122.245 226.3 122.032 226.3C121.832 226.3 121.665 226.365 121.54 226.491C121.414 226.617 121.349 226.789 121.349 227.003C121.349 227.203 121.414 227.37 121.54 227.496C121.67 227.626 121.832 227.686 122.032 227.686C122.245 227.686 122.412 227.621 122.542 227.496Z" fill="#FF943F"/>
<path d="M157.826 235.239H160.467V237.815H157.826V235.239Z" fill="#FF943F"/>
<path d="M202.315 228.268C201.971 227.937 201.795 227.519 201.795 227.003C201.795 226.486 201.967 226.063 202.315 225.728C202.658 225.394 203.099 225.226 203.633 225.226C204.167 225.226 204.608 225.394 204.952 225.728C205.295 226.063 205.471 226.486 205.471 227.003C205.471 227.519 205.295 227.923 204.947 228.258C204.594 228.593 204.158 228.76 203.633 228.76C203.109 228.76 202.658 228.598 202.315 228.268ZM204.144 227.496C204.274 227.365 204.334 227.203 204.334 227.003C204.334 226.789 204.269 226.621 204.144 226.491C204.014 226.361 203.847 226.3 203.633 226.3C203.434 226.3 203.266 226.365 203.141 226.491C203.016 226.617 202.951 226.789 202.951 227.003C202.951 227.203 203.016 227.37 203.141 227.496C203.271 227.626 203.434 227.686 203.633 227.686C203.847 227.686 204.014 227.621 204.144 227.496Z" fill="#FF943F"/>
<path d="M67.5014 248.358C67.1578 248.028 66.9814 247.609 66.9814 247.093C66.9814 246.577 67.1532 246.154 67.5014 245.819C67.8449 245.484 68.2859 245.316 68.8197 245.316C69.3535 245.316 69.7945 245.484 70.138 245.819C70.4815 246.154 70.6579 246.577 70.6579 247.093C70.6579 247.609 70.4815 248.014 70.1334 248.349C69.7852 248.683 69.3442 248.851 68.8197 248.851C68.2951 248.851 67.8449 248.688 67.5014 248.358ZM69.335 247.586C69.4649 247.456 69.5253 247.293 69.5253 247.093C69.5253 246.879 69.4603 246.712 69.335 246.581C69.205 246.451 69.0379 246.391 68.8243 246.391C68.6108 246.391 68.4576 246.456 68.3323 246.581C68.2023 246.712 68.142 246.879 68.142 247.093C68.142 247.293 68.2069 247.46 68.3323 247.586C68.4623 247.716 68.6247 247.777 68.8243 247.777C69.0379 247.777 69.205 247.711 69.335 247.586Z" fill="#FF943F"/>
<path d="M125.526 251.362H134.216V253.087H125.526V251.362ZM128.966 247.962H130.786V256.552H128.966V247.962Z" fill="#FF943F"/>
<path d="M145.176 248.358C144.833 248.028 144.656 247.609 144.656 247.093C144.656 246.577 144.828 246.154 145.176 245.819C145.52 245.484 145.961 245.316 146.495 245.316C147.028 245.316 147.469 245.484 147.813 245.819C148.156 246.154 148.333 246.577 148.333 247.093C148.333 247.609 148.156 248.014 147.808 248.349C147.46 248.683 147.019 248.851 146.495 248.851C145.97 248.851 145.52 248.688 145.176 248.358ZM147.005 247.586C147.135 247.456 147.195 247.293 147.195 247.093C147.195 246.879 147.13 246.712 147.005 246.581C146.875 246.451 146.708 246.391 146.495 246.391C146.295 246.391 146.128 246.456 146.002 246.581C145.877 246.707 145.812 246.879 145.812 247.093C145.812 247.293 145.877 247.46 146.002 247.586C146.128 247.711 146.295 247.777 146.495 247.777C146.708 247.777 146.875 247.711 147.005 247.586Z" fill="#FF943F"/>
<path d="M180.989 251.362H189.679V253.087H180.989V251.362ZM184.434 247.962H186.253V256.552H184.434V247.962Z" fill="#FF943F"/>
<path d="M88.9934 270.499L90.7806 268.508L90.9802 268.843L88.3389 268.239L88.8913 266.667L91.2819 267.723L90.9802 267.909L90.7109 265.281H92.3821L92.1128 267.909L91.8297 267.723L94.2203 266.667L94.7542 268.239L92.1639 268.825L92.2985 268.508L94.1182 270.499L92.7302 271.438L91.3933 269.16H91.709L90.3721 271.438L88.9841 270.499H88.9934Z" fill="#FF943F"/>
<path d="M105.905 268.448C105.561 268.118 105.385 267.699 105.385 267.183C105.385 266.667 105.557 266.244 105.905 265.909C106.248 265.574 106.689 265.407 107.223 265.407C107.757 265.407 108.198 265.574 108.541 265.909C108.885 266.244 109.061 266.667 109.061 267.183C109.061 267.699 108.885 268.104 108.537 268.439C108.184 268.774 107.748 268.941 107.223 268.941C106.698 268.941 106.248 268.778 105.905 268.448ZM107.734 267.676C107.864 267.546 107.924 267.383 107.924 267.183C107.924 266.969 107.859 266.802 107.734 266.672C107.604 266.541 107.437 266.481 107.223 266.481C107.009 266.481 106.856 266.546 106.731 266.672C106.601 266.802 106.541 266.969 106.541 267.183C106.541 267.383 106.606 267.551 106.731 267.676C106.856 267.802 107.023 267.867 107.223 267.867C107.437 267.867 107.604 267.802 107.734 267.676Z" fill="#FF943F"/>
<path d="M132.592 291.543H141.282V293.268H132.592V291.543ZM136.036 288.143H137.856V296.733H136.036V288.143Z" fill="#FF943F"/>
<path d="M60.1019 328.719C59.7584 328.389 59.582 327.97 59.582 327.454C59.582 326.938 59.7538 326.515 60.1019 326.18C60.4455 325.845 60.8864 325.677 61.4203 325.677C61.9541 325.677 62.3951 325.845 62.7386 326.18C63.0821 326.515 63.2585 326.938 63.2585 327.454C63.2585 327.97 63.0821 328.375 62.734 328.71C62.3858 329.044 61.9448 329.212 61.4203 329.212C60.8957 329.212 60.4455 329.049 60.1019 328.719ZM61.9309 327.947C62.0609 327.817 62.1212 327.654 62.1212 327.454C62.1212 327.24 62.0562 327.073 61.9309 326.942C61.8009 326.812 61.6338 326.752 61.4203 326.752C61.2067 326.752 61.0536 326.817 60.9282 326.942C60.7982 327.073 60.7379 327.24 60.7379 327.454C60.7379 327.654 60.8029 327.821 60.9282 327.947C61.0582 328.077 61.2207 328.138 61.4203 328.138C61.6338 328.138 61.8009 328.073 61.9309 327.947Z" fill="#FF943F"/>
<path d="M315.641 48.1431H323.88V49.901H315.641V48.1431Z" fill="white"/>
<path d="M326.021 48.1431H334.26V49.901H326.021V48.1431Z" fill="white"/>
<path d="M293.434 68.2334H301.673V69.9913H293.434V68.2334Z" fill="white"/>
<path d="M309.778 54.6353H311.835L305.048 69.2007H302.978L309.778 54.6353Z" fill="white"/>
<path d="M328.008 68.2334H336.247V69.9913H328.008V68.2334Z" fill="white"/>
<path d="M344.751 54.6353H346.807L353.608 69.2007H351.519L344.751 54.6353Z" fill="white"/>
<path d="M291.994 74.7256H294.05L287.264 89.2911H285.193L291.994 74.7256Z" fill="white"/>
<path d="M323.597 74.7256H325.654L318.867 89.2911H316.797L323.597 74.7256Z" fill="white"/>
<path d="M356.57 80.8224H365.26V82.5477H356.57V80.8224ZM360.01 77.4229H361.83V86.0124H360.01V77.4229Z" fill="white"/>
<path d="M284.591 94.8157H286.647L279.86 109.381H277.79L284.591 94.8157Z" fill="white"/>
<path d="M316.593 94.8157H318.649L325.45 109.381H323.361L316.593 94.8157Z" fill="white"/>
<path d="M277.191 114.906H279.248L272.461 129.471H270.391L277.191 114.906Z" fill="white"/>
<path d="M323.997 114.906H326.053L332.854 129.471H330.765L323.997 114.906Z" fill="white"/>
<path d="M241.609 148.594H249.849V150.352H241.609V148.594Z" fill="white"/>
<path d="M251.989 148.594H260.229V150.352H251.989V148.594Z" fill="white"/>
<path d="M268.334 134.996H270.39L263.604 149.562H261.533L268.334 134.996Z" fill="white"/>
<path d="M271.76 148.594H279.999V150.352H271.76V148.594Z" fill="white"/>
<path d="M282.135 148.594H290.374V150.352H282.135V148.594Z" fill="white"/>
<path d="M292.515 148.594H300.754V150.352H292.515V148.594Z" fill="white"/>
<path d="M302.89 148.594H311.129V150.352H302.89V148.594Z" fill="white"/>
<path d="M313.269 148.594H321.508V150.352H313.269V148.594Z" fill="white"/>
<path d="M323.648 148.594H331.888V150.352H323.648V148.594Z" fill="white"/>
<path d="M333.258 134.996H335.314L342.115 149.562H340.026L333.258 134.996Z" fill="white"/>
<path d="M343.414 148.594H351.654V150.352H343.414V148.594Z" fill="white"/>
<path d="M353.794 148.594H362.034V150.352H353.794V148.594Z" fill="white"/>
<path d="M264.573 160.23L266.361 158.24L266.56 158.575L263.919 157.97L264.471 156.398L266.862 157.454L266.56 157.64L266.291 155.012H267.962L267.693 157.64L267.41 157.454L269.8 156.398L270.334 157.97L267.744 158.556L267.879 158.24L269.698 160.23L268.31 161.17L266.973 158.891H267.289L265.952 161.17L264.564 160.23H264.573Z" fill="white"/>
<path d="M285.978 155.087H288.035L281.248 169.652H279.178L285.978 155.087Z" fill="white"/>
<path d="M297.56 160.23L299.347 158.24L299.547 158.575L296.905 157.97L297.458 156.398L299.848 157.454L299.547 157.64L299.277 155.012H300.948L300.679 157.64L300.396 157.454L302.787 156.398L303.321 157.97L300.73 158.556L300.865 158.24L302.685 160.23L301.297 161.17L299.96 158.891H300.275L298.938 161.17L297.551 160.23H297.56Z" fill="white"/>
<path d="M332.129 158.64C332.612 159.867 332.858 161.128 332.858 162.425C332.858 163.286 332.752 164.137 332.543 164.978C332.329 165.82 332.009 166.639 331.582 167.429C331.155 168.22 330.616 168.964 329.971 169.657H327.984C328.62 168.955 329.145 168.215 329.553 167.438C329.966 166.662 330.268 165.857 330.463 165.029C330.658 164.197 330.755 163.337 330.755 162.444C330.755 161.17 330.528 159.919 330.068 158.686C329.613 157.454 328.917 156.254 327.979 155.096H329.966C330.923 156.235 331.647 157.417 332.129 158.644V158.64Z" fill="white"/>
<path d="M357.99 168.685H366.23V170.443H357.99V168.685Z" fill="white"/>
<path d="M368.365 168.685H376.605V170.443H368.365V168.685Z" fill="white"/>
<path d="M262.383 175.177H264.439L257.652 189.742H255.582L262.383 175.177Z" fill="white"/>
<path d="M269.81 178.358C269.615 178.279 269.369 178.158 269.067 177.99C268.844 177.879 268.663 177.791 268.524 177.73C268.385 177.67 268.25 177.637 268.116 177.637C267.939 177.637 267.805 177.688 267.721 177.795C267.637 177.902 267.596 178.056 267.596 178.256V178.372H266.259V178.088C266.259 177.474 266.421 177 266.742 176.665C267.067 176.33 267.498 176.163 268.046 176.163C268.26 176.163 268.468 176.209 268.673 176.298C268.877 176.386 269.123 176.512 269.401 176.665C269.601 176.777 269.777 176.865 269.926 176.926C270.075 176.986 270.209 177.019 270.321 177.019C270.488 177.019 270.608 176.967 270.687 176.86C270.766 176.753 270.803 176.595 270.803 176.381V176.265H272.089V176.665C272.089 177.27 271.941 177.721 271.639 178.023C271.337 178.325 270.933 178.474 270.418 178.474C270.205 178.474 270.005 178.437 269.81 178.358Z" fill="white"/>
<path d="M278.7 178.358C278.505 178.279 278.259 178.158 277.957 177.99C277.734 177.879 277.553 177.791 277.414 177.73C277.274 177.67 277.14 177.637 277.005 177.637C276.829 177.637 276.694 177.688 276.611 177.795C276.527 177.902 276.485 178.056 276.485 178.256V178.372H275.148V178.088C275.148 177.474 275.311 177 275.631 176.665C275.956 176.33 276.388 176.163 276.936 176.163C277.149 176.163 277.358 176.209 277.562 176.298C277.767 176.386 278.013 176.512 278.291 176.665C278.491 176.777 278.667 176.865 278.816 176.926C278.964 176.986 279.099 177.019 279.21 177.019C279.377 177.019 279.498 176.967 279.577 176.86C279.656 176.753 279.693 176.595 279.693 176.381V176.265H280.979V176.665C280.979 177.27 280.83 177.721 280.529 178.023C280.227 178.325 279.823 178.474 279.308 178.474C279.094 178.474 278.895 178.437 278.7 178.358Z" fill="white"/>
<path d="M287.594 178.358C287.399 178.279 287.153 178.158 286.851 177.99C286.629 177.879 286.448 177.791 286.308 177.73C286.169 177.67 286.034 177.637 285.9 177.637C285.723 177.637 285.589 177.688 285.505 177.795C285.422 177.902 285.38 178.056 285.38 178.256V178.372H284.043V178.088C284.043 177.474 284.205 177 284.526 176.665C284.851 176.33 285.282 176.163 285.83 176.163C286.044 176.163 286.253 176.209 286.457 176.298C286.661 176.386 286.907 176.512 287.186 176.665C287.385 176.777 287.562 176.865 287.71 176.926C287.859 176.986 287.993 177.019 288.105 177.019C288.272 177.019 288.393 176.967 288.471 176.86C288.55 176.753 288.588 176.595 288.588 176.381V176.265H289.873V176.665C289.873 177.27 289.725 177.721 289.423 178.023C289.121 178.325 288.718 178.474 288.202 178.474C287.989 178.474 287.789 178.437 287.594 178.358Z" fill="white"/>
<path d="M296.483 178.358C296.288 178.279 296.042 178.158 295.74 177.99C295.517 177.879 295.336 177.791 295.197 177.73C295.058 177.67 294.923 177.637 294.788 177.637C294.612 177.637 294.477 177.688 294.394 177.795C294.31 177.902 294.269 178.056 294.269 178.256V178.372H292.932V178.088C292.932 177.474 293.094 177 293.414 176.665C293.739 176.33 294.171 176.163 294.719 176.163C294.932 176.163 295.141 176.209 295.346 176.298C295.55 176.386 295.796 176.512 296.074 176.665C296.274 176.777 296.45 176.865 296.599 176.926C296.747 176.986 296.882 177.019 296.993 177.019C297.161 177.019 297.281 176.967 297.36 176.86C297.439 176.753 297.476 176.595 297.476 176.381V176.265H298.762V176.665C298.762 177.27 298.614 177.721 298.312 178.023C298.01 178.325 297.606 178.474 297.091 178.474C296.877 178.474 296.678 178.437 296.483 178.358Z" fill="white"/>
<path d="M300.601 175.177H302.657L309.458 189.742H307.369L300.601 175.177Z" fill="white"/>
<path d="M323.862 175.177H325.919L319.132 189.742H317.062L323.862 175.177Z" fill="white"/>
<path d="M327.288 188.775H335.528V190.533H327.288V188.775Z" fill="white"/>
<path d="M343.633 175.177H345.689L338.902 189.742H336.832L343.633 175.177Z" fill="white"/>
<path d="M375.635 175.177H377.691L384.492 189.742H382.403L375.635 175.177Z" fill="white"/>
<path d="M247.575 195.267H249.631L242.845 209.833H240.774L247.575 195.267Z" fill="white"/>
<path d="M288.017 208.865H296.256V210.623H288.017V208.865Z" fill="white"/>
<path d="M304.361 195.267H306.418L299.631 209.833H297.561L304.361 195.267Z" fill="white"/>
<path d="M343.768 195.267H345.824L352.625 209.833H350.536L343.768 195.267Z" fill="white"/>
<path d="M389.24 195.267H391.296L384.51 209.833H382.439L389.24 195.267Z" fill="white"/>
<path d="M236.095 215.274H237.933V230.007H236.095V215.274Z" fill="white"/>
<path d="M271.556 228.956H279.795V230.714H271.556V228.956Z" fill="white"/>
<path d="M287.9 215.357H289.957L283.17 229.923H281.1L287.9 215.357Z" fill="white"/>
<path d="M352.438 215.274H354.277V230.007H352.438V215.274Z" fill="white"/>
<path d="M358.287 228.956H366.527V230.714H358.287V228.956Z" fill="white"/>
<path d="M374.632 215.357H376.688L369.901 229.923H367.831L374.632 215.357Z" fill="white"/>
<path d="M232.771 235.448H234.828L228.041 250.013H225.971L232.771 235.448Z" fill="white"/>
<path d="M258.404 249.046H266.644V250.804H258.404V249.046Z" fill="white"/>
<path d="M274.749 235.448H276.805L270.019 250.013H267.948L274.749 235.448Z" fill="white"/>
<path d="M358.575 235.448H360.632L367.432 250.013H365.343L358.575 235.448Z" fill="white"/>
<path d="M228.691 255.459H230.53V270.192H228.691V255.459Z" fill="white"/>
<path d="M241.944 269.136H250.184V270.894H241.944V269.136Z" fill="white"/>
<path d="M258.289 255.538H260.345L253.559 270.104H251.488L258.289 255.538Z" fill="white"/>
<path d="M271.008 255.459H272.846V270.192H271.008V255.459Z" fill="white"/>
<path d="M364.656 255.538H366.713L373.513 270.104H371.424L364.656 255.538Z" fill="white"/>
<path d="M234.141 281.725H242.831V283.451H234.141V281.725ZM237.585 278.326H239.405V286.915H237.585V278.326Z" fill="white"/>
<path d="M269.017 275.545H270.855V290.278H269.017V275.545Z" fill="white"/>
<path d="M372.993 275.545H374.831V290.278H372.993V275.545Z" fill="white"/>
<path d="M265.707 295.635H267.545V310.368H265.707V295.635Z" fill="white"/>
<path d="M272.994 299.955H275.635V302.532H272.994V299.955ZM272.994 305.782H275.635V308.359H272.994V305.782Z" fill="#FF943F"/>
<path d="M280.649 299.955H283.291V302.532H280.649V299.955ZM280.649 305.782H283.291V308.359H280.649V305.782Z" fill="#FF943F"/>
<path d="M288.304 299.955H290.945V302.532H288.304V299.955ZM288.304 305.782H290.945V308.359H288.304V305.782Z" fill="#FF943F"/>
<path d="M295.954 299.955H298.595V302.532H295.954V299.955ZM295.954 305.782H298.595V308.359H295.954V305.782Z" fill="#FF943F"/>
<path d="M303.608 299.955H306.25V302.532H303.608V299.955ZM303.608 305.782H306.25V308.359H303.608V305.782Z" fill="#FF943F"/>
<path d="M311.264 299.955H313.905V302.532H311.264V299.955ZM311.264 305.782H313.905V308.359H311.264V305.782Z" fill="#FF943F"/>
<path d="M318.918 299.955H321.559V302.532H318.918V299.955ZM318.918 305.782H321.559V308.359H318.918V305.782Z" fill="#FF943F"/>
<path d="M326.573 299.955H329.215V302.532H326.573V299.955ZM326.573 305.782H329.215V308.359H326.573V305.782Z" fill="#FF943F"/>
<path d="M334.223 299.955H336.864V302.532H334.223V299.955ZM334.223 305.782H336.864V308.359H334.223V305.782Z" fill="#FF943F"/>
<path d="M341.878 299.955H344.519V302.532H341.878V299.955ZM341.878 305.782H344.519V308.359H341.878V305.782Z" fill="#FF943F"/>
<path d="M349.532 299.955H352.174V302.532H349.532V299.955ZM349.532 305.782H352.174V308.359H349.532V305.782Z" fill="#FF943F"/>
<path d="M357.188 299.955H359.829V302.532H357.188V299.955ZM357.188 305.782H359.829V308.359H357.188V305.782Z" fill="#FF943F"/>
<path d="M364.842 299.955H367.483V302.532H364.842V299.955ZM364.842 305.782H367.483V308.359H364.842V305.782Z" fill="#FF943F"/>
<path d="M372.492 299.955H375.134V302.532H372.492V299.955ZM372.492 305.782H375.134V308.359H372.492V305.782Z" fill="#FF943F"/>
<path d="M377.774 295.719H379.831L386.631 310.284H384.542L377.774 295.719Z" fill="white"/>
<path d="M265.707 315.725H267.545V330.458H265.707V315.725Z" fill="white"/>
<path d="M384.491 315.725H386.329V330.458H384.491V315.725Z" fill="white"/>
<path d="M265.707 335.816H267.545V350.549H265.707V335.816Z" fill="white"/>
<path d="M388.972 335.899H391.028L397.829 350.465H395.74L388.972 335.899Z" fill="white"/>
<path d="M265.707 355.906H267.545V370.639H265.707V355.906Z" fill="white"/>
<path d="M396.375 355.99H398.431L405.232 370.555H403.143L396.375 355.99Z" fill="white"/>
<path d="M265.707 375.996H267.545V390.729H265.707V375.996Z" fill="white"/>
<path d="M406.704 375.996H408.542V390.729H406.704V375.996Z" fill="white"/>
<path d="M265.707 396.086H267.545V410.819H265.707V396.086Z" fill="white"/>
<path d="M411.179 396.17H413.235L420.036 410.736H417.947L411.179 396.17Z" fill="white"/>
<path d="M265.707 416.177H267.545V430.91H265.707V416.177Z" fill="white"/>
<path d="M418.583 416.26H420.639L427.44 430.826H425.351L418.583 416.26Z" fill="white"/>
<path d="M265.707 436.267H267.545V451H265.707V436.267Z" fill="white"/>
<path d="M433.391 436.351H435.447L442.248 450.916H440.159L433.391 436.351Z" fill="white"/>
<path d="M420.923 77.0693H429.162V78.8272H420.923V77.0693Z" fill="white"/>
<path d="M431.303 77.0693H439.542V78.8272H431.303V77.0693Z" fill="white"/>
<path d="M441.678 77.0693H449.917V78.8272H441.678V77.0693Z" fill="white"/>
<path d="M413.454 85.0077H422.144V86.733H413.454V85.0077ZM416.894 81.6082H418.714V90.1977H416.894V81.6082Z" fill="white"/>
<path d="M446.375 85.0077H455.065V86.733H446.375V85.0077ZM449.815 81.6082H451.634V90.1977H449.815V81.6082Z" fill="white"/>
<path d="M408.004 94.2717H409.842V109.005H408.004V94.2717Z" fill="white"/>
<path d="M460.162 94.2717H462V109.005H460.162V94.2717Z" fill="white"/>
<path d="M413.454 120.538H422.144V122.263H413.454V120.538ZM416.894 117.138H418.714V125.728H416.894V117.138Z" fill="white"/>
<path d="M424.232 128.039H432.472V129.797H424.232V128.039Z" fill="white"/>
<path d="M434.607 128.039H442.847V129.797H434.607V128.039Z" fill="white"/>
<path d="M444.922 120.538H453.612V122.263H444.922V120.538ZM448.362 117.138H450.181V125.728H448.362V117.138Z" fill="white"/>
<path d="M430.217 134.452H432.055V149.185H430.217V134.452Z" fill="white"/>
<path d="M430.217 154.542H432.055V169.275H430.217V154.542Z" fill="white"/>
<path d="M430.217 174.633H432.055V189.366H430.217V174.633Z" fill="white"/>
<path d="M430.217 194.723H432.055V209.456H430.217V194.723Z" fill="white"/>
<path d="M430.217 214.813H432.055V229.546H430.217V214.813Z" fill="white"/>
<path d="M414.759 245.047H417.4V247.623H414.759V245.047Z" fill="white"/>
<path d="M422.395 245.047H425.036V247.623H422.395V245.047Z" fill="white"/>
<path d="M430.481 234.904H432.32V249.637H430.481V234.904Z" fill="white"/>
<path d="M436.33 248.581H444.57V250.339H436.33V248.581Z" fill="white"/>
<path d="M407.628 266.09C407.145 264.862 406.899 263.602 406.899 262.305C406.899 261.444 407.006 260.593 407.215 259.751C407.429 258.91 407.749 258.091 408.176 257.301C408.603 256.51 409.142 255.766 409.787 255.073H411.774C411.138 255.775 410.613 256.515 410.205 257.291C409.791 258.068 409.49 258.872 409.295 259.7C409.1 260.533 409.002 261.393 409.002 262.286C409.002 263.56 409.23 264.811 409.689 266.044C410.144 267.276 410.841 268.476 411.778 269.634H409.791C408.835 268.494 408.111 267.313 407.628 266.085V266.09Z" fill="white"/>
<path d="M442.662 255.073H444.719L451.519 269.638H449.43L442.662 255.073Z" fill="white"/>
<path d="M412.483 275.168H414.54L421.34 289.733H419.251L412.483 275.168Z" fill="white"/>
<path d="M422.646 288.761H430.885V290.519H422.646V288.761Z" fill="white"/>
<path d="M433.021 288.761H441.26V290.519H433.021V288.761Z" fill="white"/>
<path d="M449.365 275.168H451.421L444.635 289.733H442.564L449.365 275.168Z" fill="white"/>
<path d="M430.217 295.17H432.055V309.903H430.217V295.17Z" fill="white"/>
<path d="M430.217 315.26H432.055V329.993H430.217V315.26Z" fill="white"/>
<path d="M430.217 335.355H432.055V350.088H430.217V335.355Z" fill="white"/>
<path d="M430.217 355.446H432.055V370.178H430.217V355.446Z" fill="white"/>
<path d="M430.217 375.536H432.055V390.269H430.217V375.536Z" fill="white"/>
<path d="M430.217 395.621H432.055V410.354H430.217V395.621Z" fill="white"/>
<path d="M430.217 415.712H432.055V430.445H430.217V415.712Z" fill="white"/>
<path d="M430.217 435.807H432.055V450.54H430.217V435.807Z" fill="white"/>
<path d="M45.126 6H53.3656V7.7579H45.126V6Z" fill="#FF943F"/>
<path d="M55.5059 6H63.7455V7.7579H55.5059V6Z" fill="#FF943F"/>
<path d="M65.8809 6H74.1205V7.7579H65.8809V6Z" fill="#FF943F"/>
<path d="M76.2607 6H84.5004V7.7579H76.2607V6Z" fill="#FF943F"/>
<path d="M86.6396 6H94.8793V7.7579H86.6396V6Z" fill="#FF943F"/>
<path d="M97.0146 6H105.254V7.7579H97.0146V6Z" fill="#FF943F"/>
<path d="M107.395 6H115.634V7.7579H107.395V6Z" fill="#FF943F"/>
<path d="M117.77 6H126.009V7.7579H117.77V6Z" fill="#FF943F"/>
<path d="M128.149 6H136.389V7.7579H128.149V6Z" fill="#FF943F"/>
<path d="M138.528 6H146.768V7.7579H138.528V6Z" fill="#FF943F"/>
<path d="M148.903 6H157.143V7.7579H148.903V6Z" fill="#FF943F"/>
<path d="M159.283 6H167.523V7.7579H159.283V6Z" fill="#FF943F"/>
<path d="M169.658 6H177.898V7.7579H169.658V6Z" fill="#FF943F"/>
<path d="M180.038 6H188.278V7.7579H180.038V6Z" fill="#FF943F"/>
<path d="M36.2879 12.4968H38.3443L31.5577 27.0623H29.4873L36.2879 12.4968Z" fill="#FF943F"/>
<path d="M194.141 12.4968H196.197L202.998 27.0623H200.909L194.141 12.4968Z" fill="#FF943F"/>
<path d="M28.8836 32.5872H30.94L24.1534 47.1526H22.083L28.8836 32.5872Z" fill="#FF943F"/>
<path d="M61.9209 46.1807H70.1605V47.9386H61.9209V46.1807Z" fill="#FF943F"/>
<path d="M72.3008 46.1807H80.5404V47.9386H72.3008V46.1807Z" fill="#FF943F"/>
<path d="M82.6758 46.1807H90.9154V47.9386H82.6758V46.1807Z" fill="#FF943F"/>
<path d="M93.0557 46.1807H101.295V47.9386H93.0557V46.1807Z" fill="#FF943F"/>
<path d="M103.435 46.1807H111.674V47.9386H103.435V46.1807Z" fill="#FF943F"/>
<path d="M113.81 46.1807H122.049V47.9386H113.81V46.1807Z" fill="#FF943F"/>
<path d="M124.189 46.1807H132.429V47.9386H124.189V46.1807Z" fill="#FF943F"/>
<path d="M134.564 46.1807H142.804V47.9386H134.564V46.1807Z" fill="#FF943F"/>
<path d="M144.944 46.1807H153.184V47.9386H144.944V46.1807Z" fill="#FF943F"/>
<path d="M155.323 46.1807H163.563V47.9386H155.323V46.1807Z" fill="#FF943F"/>
<path d="M201.679 32.5872H203.735L210.536 47.1526H208.447L201.679 32.5872Z" fill="#FF943F"/>
<path d="M21.4793 52.6775H23.5357L16.7491 67.243H14.6787L21.4793 52.6775Z" fill="#FF943F"/>
<path d="M208.948 52.6775H211.005L217.805 67.243H215.716L208.948 52.6775Z" fill="#FF943F"/>
<path d="M10 72.6841H11.8382V87.417H10V72.6841Z" fill="#FF943F"/>
<path d="M60.2686 86.3611H68.5082V88.119H60.2686V86.3611Z" fill="#FF943F"/>
<path d="M70.6436 86.3611H78.8832V88.119H70.6436V86.3611Z" fill="#FF943F"/>
<path d="M81.0234 86.3611H89.2631V88.119H81.0234V86.3611Z" fill="#FF943F"/>
<path d="M91.4023 86.3611H99.642V88.119H91.4023V86.3611Z" fill="#FF943F"/>
<path d="M101.777 86.3611H110.017V88.119H101.777V86.3611Z" fill="#FF943F"/>
<path d="M112.157 86.3611H120.397V88.119H112.157V86.3611Z" fill="#FF943F"/>
<path d="M122.532 86.3611H130.772V88.119H122.532V86.3611Z" fill="#FF943F"/>
<path d="M132.912 86.3611H141.152V88.119H132.912V86.3611Z" fill="#FF943F"/>
<path d="M143.291 86.3611H151.531V88.119H143.291V86.3611Z" fill="#FF943F"/>
<path d="M153.666 86.3611H161.906V88.119H153.666V86.3611Z" fill="#FF943F"/>
<path d="M217.755 72.6841H219.593V87.417H217.755V72.6841Z" fill="#FF943F"/>
<path d="M10 92.7742H11.8382V107.507H10V92.7742Z" fill="#FF943F"/>
<path d="M217.62 92.7742H219.458V107.507H217.62V92.7742Z" fill="#FF943F"/>
<path d="M14.4795 112.948H16.5359L23.3365 127.514H21.2476L14.4795 112.948Z" fill="#FF943F"/>
<path d="M61.3877 126.542H69.6273V128.3H61.3877V126.542Z" fill="#FF943F"/>
<path d="M71.7666 126.542H80.0062V128.3H71.7666V126.542Z" fill="#FF943F"/>
<path d="M82.1416 126.542H90.3812V128.3H82.1416V126.542Z" fill="#FF943F"/>
<path d="M92.5215 126.542H100.761V128.3H92.5215V126.542Z" fill="#FF943F"/>
<path d="M102.896 126.542H111.136V128.3H102.896V126.542Z" fill="#FF943F"/>
<path d="M113.276 126.542H121.516V128.3H113.276V126.542Z" fill="#FF943F"/>
<path d="M123.655 126.542H131.895V128.3H123.655V126.542Z" fill="#FF943F"/>
<path d="M134.03 126.542H142.27V128.3H134.03V126.542Z" fill="#FF943F"/>
<path d="M144.41 126.542H152.65V128.3H144.41V126.542Z" fill="#FF943F"/>
<path d="M154.785 126.542H163.025V128.3H154.785V126.542Z" fill="#FF943F"/>
<path d="M215.55 112.948H217.606L210.819 127.514H208.749L215.55 112.948Z" fill="#FF943F"/>
<path d="M21.8838 133.039H23.9402L30.7408 147.604H28.6519L21.8838 133.039Z" fill="#FF943F"/>
<path d="M208.011 133.039H210.067L203.28 147.604H201.21L208.011 133.039Z" fill="#FF943F"/>
<path d="M29.2832 153.129H31.3396L38.1402 167.694H36.0513L29.2832 153.129Z" fill="#FF943F"/>
<path d="M46.5791 166.722H54.8187V168.48H46.5791V166.722Z" fill="#FF943F"/>
<path d="M56.959 166.722H65.1986V168.48H56.959V166.722Z" fill="#FF943F"/>
<path d="M67.3389 166.722H75.5785V168.48H67.3389V166.722Z" fill="#FF943F"/>
<path d="M77.7139 166.722H85.9535V168.48H77.7139V166.722Z" fill="#FF943F"/>
<path d="M88.0928 166.722H96.3324V168.48H88.0928V166.722Z" fill="#FF943F"/>
<path d="M98.4678 166.722H106.707V168.48H98.4678V166.722Z" fill="#FF943F"/>
<path d="M108.848 166.722H117.087V168.48H108.848V166.722Z" fill="#FF943F"/>
<path d="M119.228 166.722H127.467V168.48H119.228V166.722Z" fill="#FF943F"/>
<path d="M129.603 166.722H137.842V168.48H129.603V166.722Z" fill="#FF943F"/>
<path d="M139.981 166.722H148.221V168.48H139.981V166.722Z" fill="#FF943F"/>
<path d="M150.356 166.722H158.596V168.48H150.356V166.722Z" fill="#FF943F"/>
<path d="M160.736 166.722H168.976V168.48H160.736V166.722Z" fill="#FF943F"/>
<path d="M171.116 166.722H179.356V168.48H171.116V166.722Z" fill="#FF943F"/>
<path d="M181.491 166.722H189.731V168.48H181.491V166.722Z" fill="#FF943F"/>
<path d="M197.836 153.129H199.892L193.106 167.694H191.035L197.836 153.129Z" fill="#FF943F"/>
<path d="M200.49 153.129H202.547L209.347 167.694H207.258L200.49 153.129Z" fill="#FF943F"/>
<path d="M214.361 173.219H216.418L223.218 187.785H221.129L214.361 173.219Z" fill="#FF943F"/>
</g>
<defs>
<clipPath id="clip0_6314_1380">
<rect width="452" height="445" fill="white" transform="translate(10 6)"/>
</clipPath>
</defs>
</svg>
