<svg width="341" height="148" viewBox="0 0 341 148" fill="none" xmlns="http://www.w3.org/2000/svg">
<rect width="341" height="148" rx="12" fill="#3B2E29"/>
<g clip-path="url(#clip0_6364_2675)">
<path d="M248.025 23.7643H252.22V24.6591H248.025V23.7643Z" fill="white"/>
<path d="M253.31 23.7643H257.505V24.6591H253.31V23.7643Z" fill="white"/>
<path d="M258.592 23.7643H262.787V24.6591H258.592V23.7643Z" fill="white"/>
<path d="M245.26 27.0286H246.196V34.5276H245.26V27.0286Z" fill="white"/>
<path d="M264.275 27.0286H265.211V34.5276H264.275V27.0286Z" fill="white"/>
<path d="M245.303 37.2545H246.239V44.7536H245.303V37.2545Z" fill="white"/>
<path d="M264.318 37.2545H265.254V44.7536H264.318V37.2545Z" fill="white"/>
<path d="M267.705 40.8928H270.487V41.8302H267.705V40.8928Z" fill="white"/>
<path d="M272.385 40.8928H275.166V41.8302H272.385V40.8928Z" fill="white"/>
<path d="M277.063 40.8928H279.845V41.8302H277.063V40.8928Z" fill="white"/>
<path d="M281.743 40.8928H284.525V41.8302H281.743V40.8928Z" fill="white"/>
<path d="M286.423 40.8928H289.205V41.8302H286.423V40.8928Z" fill="white"/>
<path d="M291.103 40.8928H293.884V41.8302H291.103V40.8928Z" fill="white"/>
<path d="M295.782 40.8928H298.564V41.8302H295.782V40.8928Z" fill="white"/>
<path d="M300.462 40.8928H303.244V41.8302H300.462V40.8928Z" fill="white"/>
<path d="M305.141 40.8928H307.922V41.8302H305.141V40.8928Z" fill="white"/>
<path d="M309.82 40.8928H312.602V41.8302H309.82V40.8928Z" fill="white"/>
<path d="M314.5 40.8928H317.282V41.8302H314.5V40.8928Z" fill="white"/>
<path d="M319.18 40.8928H321.961V41.8302H319.18V40.8928Z" fill="white"/>
<path d="M323.859 40.8928H326.641V41.8302H323.859V40.8928Z" fill="white"/>
<path d="M328.539 40.8928H331.321V41.8302H328.539V40.8928Z" fill="white"/>
<path d="M333.218 40.8928H335.999V41.8302H333.218V40.8928Z" fill="white"/>
<path d="M245.345 47.4806H246.281V54.9797H245.345V47.4806Z" fill="white"/>
<path d="M264.36 47.4806H265.296V54.9797H264.36V47.4806Z" fill="white"/>
<path d="M245.385 57.7065H246.321V65.2056H245.385V57.7065Z" fill="white"/>
<path d="M264.401 57.7065H265.337V65.2056H264.401V57.7065Z" fill="white"/>
<path d="M245.428 67.9326H246.364V75.4317H245.428V67.9326Z" fill="white"/>
<path d="M264.443 67.9326H265.379V75.4317H264.443V67.9326Z" fill="white"/>
<path d="M245.47 78.1586H246.406V85.6576H245.47V78.1586Z" fill="white"/>
<path d="M264.486 78.1586H265.422V85.6576H264.486V78.1586Z" fill="white"/>
<path d="M245.513 88.3845H246.449V95.8836H245.513V88.3845Z" fill="white"/>
<path d="M264.528 88.3845H265.464V95.8836H264.528V88.3845Z" fill="white"/>
<path d="M245.556 98.6106H246.492V106.11H245.556V98.6106Z" fill="white"/>
<path d="M264.571 98.6106H265.507V106.11H264.571V98.6106Z" fill="white"/>
<path d="M267.549 105.572H271.744V106.467H267.549V105.572Z" fill="white"/>
<path d="M272.831 105.572H277.026V106.467H272.831V105.572Z" fill="white"/>
<path d="M278.115 105.572H282.31V106.467H278.115V105.572Z" fill="white"/>
<path d="M283.4 105.572H287.595V106.467H283.4V105.572Z" fill="white"/>
<path d="M288.683 105.572H292.878V106.467H288.683V105.572Z" fill="white"/>
<path d="M293.967 105.572H298.162V106.467H293.967V105.572Z" fill="white"/>
<path d="M299.252 105.572H303.447V106.467H299.252V105.572Z" fill="white"/>
<path d="M304.534 105.572H308.729V106.467H304.534V105.572Z" fill="white"/>
<path d="M309.818 105.572H314.013V106.467H309.818V105.572Z" fill="white"/>
<path d="M315.101 105.572H319.296V106.467H315.101V105.572Z" fill="white"/>
<path d="M320.385 105.572H324.58V106.467H320.385V105.572Z" fill="white"/>
<path d="M325.667 105.572H329.862V106.467H325.667V105.572Z" fill="white"/>
<path d="M330.952 105.572H335.147V106.467H330.952V105.572Z" fill="white"/>
<path d="M245.598 108.837H246.534V116.336H245.598V108.837Z" fill="white"/>
<path d="M264.613 108.837H265.549V116.336H264.613V108.837Z" fill="white"/>
<path d="M245.641 119.062H246.577V126.562H245.641V119.062Z" fill="white"/>
<path d="M248.618 126.024H252.813V126.919H248.618V126.024Z" fill="white"/>
<path d="M253.9 126.024H258.095V126.919H253.9V126.024Z" fill="white"/>
<path d="M259.185 126.024H263.38V126.919H259.185V126.024Z" fill="white"/>
<path d="M265.429 119.062H266.365V126.562H265.429V119.062Z" fill="white"/>
<path d="M152.314 5H156.509V5.89478H152.314V5Z" fill="#FF943F"/>
<path d="M187.752 5H191.947V5.89478H187.752V5Z" fill="#FF943F"/>
<path d="M147.815 8.30688H148.862L145.407 15.7207H144.353L147.815 8.30688Z" fill="#FF943F"/>
<path d="M156.569 8.30688H157.616L161.079 15.7207H160.015L156.569 8.30688Z" fill="#FF943F"/>
<path d="M187.257 8.30688H188.304L184.849 15.7207H183.795L187.257 8.30688Z" fill="#FF943F"/>
<path d="M196.014 8.30688H197.061L200.523 15.7207H199.46L196.014 8.30688Z" fill="#FF943F"/>
<path d="M140.276 18.5328H141.323L137.868 25.9467H136.813L140.276 18.5328Z" fill="#FF943F"/>
<path d="M161.556 19.0016H162.841V20.1425H161.556V19.0016Z" fill="#FF943F"/>
<path d="M165.034 22.1285H167.816V23.0659H165.034V22.1285Z" fill="#FF943F"/>
<path d="M169.714 22.1285H172.496V23.0659H169.714V22.1285Z" fill="#FF943F"/>
<path d="M174.394 22.1285H177.175V23.0659H174.394V22.1285Z" fill="#FF943F"/>
<path d="M179.354 19.0016H180.64V20.1425H179.354V19.0016Z" fill="#FF943F"/>
<path d="M200.743 18.5328H201.79L205.253 25.9467H204.189L200.743 18.5328Z" fill="#FF943F"/>
<path d="M136.506 28.7589H137.553L134.098 36.1728H133.044L136.506 28.7589Z" fill="#FF943F"/>
<path d="M205.566 28.7589H206.613L210.076 36.1728H209.012L205.566 28.7589Z" fill="#FF943F"/>
<path d="M132.737 38.9849H133.784L130.328 46.3987H129.274L132.737 38.9849Z" fill="#FF943F"/>
<path d="M209.337 38.9849H210.384L213.846 46.3987H212.783L209.337 38.9849Z" fill="#FF943F"/>
<path d="M128.969 49.2109H130.016L126.561 56.6248H125.507L128.969 49.2109Z" fill="#FF943F"/>
<path d="M213.106 49.2109H214.153L217.616 56.6248H216.552L213.106 49.2109Z" fill="#FF943F"/>
<path d="M125.54 59.4369H126.587L130.049 66.8507H128.986L125.54 59.4369Z" fill="#FF943F"/>
<path d="M216.536 59.4369H217.583L214.127 66.8507H213.073L216.536 59.4369Z" fill="#FF943F"/>
<path d="M129.173 69.6628H130.22L133.682 77.0767H132.619L129.173 69.6628Z" fill="#FF943F"/>
<path d="M212.628 69.6628H213.675L210.22 77.0767H209.166L212.628 69.6628Z" fill="#FF943F"/>
<path d="M136.712 79.8889H137.759L141.221 87.3028H140.158L136.712 79.8889Z" fill="#FF943F"/>
<path d="M141.885 86.808H146.08V87.7028H141.885V86.808Z" fill="#FF943F"/>
<path d="M159.104 85.009H160.449V86.3204H159.104V85.009Z" fill="#FF943F"/>
<path d="M181.635 85.009H182.98V86.3204H181.635V85.009Z" fill="#FF943F"/>
<path d="M199.765 86.808H203.96V87.7028H199.765V86.808Z" fill="#FF943F"/>
<path d="M208.086 79.8889H209.133L205.678 87.3028H204.624L208.086 79.8889Z" fill="#FF943F"/>
<path d="M148.019 90.1149H149.066L152.528 97.5287H151.464L148.019 90.1149Z" fill="#FF943F"/>
<path d="M153.922 95.235H155.267V96.5464H153.922V95.235Z" fill="#FF943F"/>
<path d="M157.812 95.235H159.157V96.5464H157.812V95.235Z" fill="#FF943F"/>
<path d="M160.967 97.0339H165.162V97.9287H160.967V97.0339Z" fill="#FF943F"/>
<path d="M177.559 97.0339H181.754V97.9287H177.559V97.0339Z" fill="#FF943F"/>
<path d="M183.573 95.235H184.918V96.5464H183.573V95.235Z" fill="#FF943F"/>
<path d="M187.463 95.235H188.808V96.5464H187.463V95.235Z" fill="#FF943F"/>
<path d="M193.656 90.1149H194.703L191.247 97.5287H190.193L193.656 90.1149Z" fill="#FF943F"/>
<path d="M141.089 30.7473H142.025V38.2464H141.089V30.7473Z" fill="#FF943F"/>
<path d="M144.066 37.709H148.261V38.6038H144.066V37.709Z" fill="#FF943F"/>
<path d="M149.351 37.709H153.546V38.6038H149.351V37.709Z" fill="#FF943F"/>
<path d="M154.633 37.709H158.828V38.6038H154.633V37.709Z" fill="#FF943F"/>
<path d="M178.764 37.709H182.959V38.6038H178.764V37.709Z" fill="#FF943F"/>
<path d="M184.046 37.709H188.241V38.6038H184.046V37.709Z" fill="#FF943F"/>
<path d="M189.33 37.709H193.525V38.6038H189.33V37.709Z" fill="#FF943F"/>
<path d="M195.574 30.7473H196.51V38.2464H195.574V30.7473Z" fill="#FF943F"/>
<path d="M162.215 41.0159H163.262L166.724 48.4297H165.661L162.215 41.0159Z" fill="#FF943F"/>
<path d="M177.828 41.0159H178.875L175.419 48.4297H174.365L177.828 41.0159Z" fill="#FF943F"/>
<path d="M143.896 58.161H148.092V59.0558H143.896V58.161Z" fill="#FF943F"/>
<path d="M149.179 58.161H153.374V59.0558H149.179V58.161Z" fill="#FF943F"/>
<path d="M154.463 58.161H158.658V59.0558H154.463V58.161Z" fill="#FF943F"/>
<path d="M162.785 51.2419H163.832L160.376 58.6558H159.322L162.785 51.2419Z" fill="#FF943F"/>
<path d="M164.528 58.161H168.723V59.0558H164.528V58.161Z" fill="#FF943F"/>
<path d="M169.811 58.161H174.006V59.0558H169.811V58.161Z" fill="#FF943F"/>
<path d="M175.096 58.161H179.291V59.0558H175.096V58.161Z" fill="#FF943F"/>
<path d="M179.987 51.2419H181.034L184.497 58.6558H183.433L179.987 51.2419Z" fill="#FF943F"/>
<path d="M185.161 58.161H189.356V59.0558H185.161V58.161Z" fill="#FF943F"/>
<path d="M190.445 58.161H194.64V59.0558H190.445V58.161Z" fill="#FF943F"/>
<path d="M195.728 58.161H199.923V59.0558H195.728V58.161Z" fill="#FF943F"/>
<path d="M139.394 61.6573H140.441L136.986 69.0712H135.932L139.394 61.6573Z" fill="#FF943F"/>
<path d="M164.748 61.6573H165.795L169.257 69.0712H168.194L164.748 61.6573Z" fill="#FF943F"/>
<path d="M176.594 61.6573H177.641L174.186 69.0712H173.132L176.594 61.6573Z" fill="#FF943F"/>
<path d="M200.424 61.6573H201.471L204.933 69.0712H203.87L200.424 61.6573Z" fill="#FF943F"/>
<path d="M140.127 76.8613H144.322V77.7561H140.127V76.8613Z" fill="#FF943F"/>
<path d="M159.244 69.9423H160.291L163.754 77.3561H162.69L159.244 69.9423Z" fill="#FF943F"/>
<path d="M164.418 76.8613H168.613V77.7561H164.418V76.8613Z" fill="#FF943F"/>
<path d="M170.664 69.8997H171.6V77.3987H170.664V69.8997Z" fill="#FF943F"/>
<path d="M173.64 76.8613H177.835V77.7561H173.64V76.8613Z" fill="#FF943F"/>
<path d="M181.961 69.9423H183.008L179.553 77.3561H178.499L181.961 69.9423Z" fill="#FF943F"/>
<path d="M195.014 76.8613H199.209V77.7561H195.014V76.8613Z" fill="#FF943F"/>
<path d="M147.139 78.2272H148.186L151.648 85.641H150.585L147.139 78.2272Z" fill="#FF943F"/>
<path d="M152.31 85.1464H156.505V86.0411H152.31V85.1464Z" fill="#FF943F"/>
<path d="M183.978 85.1464H188.173V86.0411H183.978V85.1464Z" fill="#FF943F"/>
<path d="M192.298 78.2272H193.345L189.89 85.641H188.836L192.298 78.2272Z" fill="#FF943F"/>
<path d="M152.235 54.9416C151.821 54.6836 151.497 54.3191 151.266 53.848C151.034 53.377 150.916 52.8373 150.916 52.2289C150.916 51.6206 151.032 51.0809 151.266 50.6098C151.497 50.1387 151.821 49.7742 152.235 49.5138C152.648 49.2534 153.126 49.1256 153.665 49.1256C154.203 49.1256 154.683 49.2558 155.102 49.5138C155.522 49.7718 155.848 50.1364 156.08 50.6098C156.312 51.0809 156.43 51.6206 156.43 52.2289C156.43 52.8373 156.314 53.377 156.08 53.848C155.848 54.3191 155.522 54.6836 155.102 54.9416C154.681 55.1997 154.203 55.3299 153.665 55.3299C153.126 55.3299 152.648 55.1997 152.235 54.9416ZM154.506 54.0634C154.745 53.8954 154.927 53.6539 155.054 53.3391C155.182 53.0243 155.246 52.6503 155.246 52.2194C155.246 51.7886 155.182 51.4241 155.054 51.1116C154.927 50.7992 154.745 50.5601 154.506 50.392C154.267 50.224 153.986 50.1411 153.665 50.1411C153.343 50.1411 153.071 50.224 152.835 50.392C152.599 50.5601 152.417 50.7992 152.287 51.1116C152.157 51.4241 152.091 51.7934 152.091 52.2194C152.091 52.6455 152.157 53.0243 152.287 53.3391C152.417 53.6539 152.601 53.8954 152.835 54.0634C153.071 54.2315 153.348 54.3144 153.665 54.3144C153.981 54.3144 154.27 54.2315 154.506 54.0634Z" fill="#FF943F"/>
<path d="M184.762 54.9416C184.349 54.6836 184.025 54.3191 183.793 53.848C183.562 53.377 183.443 52.8373 183.443 52.2289C183.443 51.6206 183.559 51.0809 183.793 50.6098C184.025 50.1387 184.349 49.7742 184.762 49.5138C185.176 49.2558 185.653 49.1256 186.192 49.1256C186.731 49.1256 187.211 49.2558 187.629 49.5138C188.05 49.7718 188.376 50.1364 188.607 50.6098C188.839 51.0809 188.957 51.6206 188.957 52.2289C188.957 52.8373 188.841 53.377 188.607 53.848C188.373 54.3191 188.05 54.6836 187.629 54.9416C187.208 55.1997 186.731 55.3299 186.192 55.3299C185.653 55.3299 185.176 55.1997 184.762 54.9416ZM187.033 54.0634C187.272 53.8954 187.454 53.6539 187.582 53.3391C187.709 53.0243 187.773 52.6503 187.773 52.2194C187.773 51.7886 187.709 51.4241 187.582 51.1116C187.454 50.7992 187.272 50.5601 187.033 50.392C186.795 50.224 186.513 50.1411 186.192 50.1411C185.871 50.1411 185.599 50.224 185.362 50.392C185.126 50.5601 184.944 50.7992 184.814 51.1116C184.684 51.4241 184.618 51.7934 184.618 52.2194C184.618 52.6455 184.684 53.0243 184.814 53.3391C184.944 53.6539 185.128 53.8954 185.362 54.0634C185.599 54.2315 185.875 54.3144 186.192 54.3144C186.509 54.3144 186.797 54.2315 187.033 54.0634Z" fill="#FF943F"/>
<path d="M131.926 93.2821H132.973L136.435 100.696H135.372L131.926 93.2821Z" fill="#FF943F"/>
<path d="M137.1 100.201H141.295V101.096H137.1V100.201Z" fill="#FF943F"/>
<path d="M202.688 100.201H206.884V101.096H202.688V100.201Z" fill="#FF943F"/>
<path d="M211.009 93.2821H212.056L208.601 100.696H207.547L211.009 93.2821Z" fill="#FF943F"/>
<path d="M140.257 108.562L143.277 106.926L143.287 107.225L140.257 105.596V104.514L144.043 106.619V107.539L140.257 109.644V108.562Z" fill="#FF943F"/>
<path d="M144.917 103.508H145.964L149.426 110.922H148.363L144.917 103.508Z" fill="#FF943F"/>
<path d="M148.978 103.508H150.025L153.487 110.922H152.423L148.978 103.508Z" fill="#FF943F"/>
<path d="M154.551 108.562L157.571 106.926L157.581 107.225L154.551 105.596V104.514L158.337 106.619V107.539L154.551 109.644V108.562Z" fill="#FF943F"/>
<path d="M160.003 108.562L163.023 106.926L163.033 107.225L160.003 105.596V104.514L163.789 106.619V107.539L160.003 109.644V108.562Z" fill="#FF943F"/>
<path d="M165.458 108.562L168.478 106.926L168.488 107.225L165.458 105.596V104.514L169.244 106.619V107.539L165.458 109.644V108.562Z" fill="#FF943F"/>
<path d="M171.243 108.631H172.588V109.942H171.243V108.631Z" fill="#FF943F"/>
<path d="M178.364 109.644L174.578 107.539V106.619L178.364 104.514V105.596L175.334 107.225L175.344 106.926L178.364 108.562V109.644Z" fill="#FF943F"/>
<path d="M183.818 109.644L180.032 107.539V106.619L183.818 104.514V105.596L180.789 107.225L180.798 106.926L183.818 108.562V109.644Z" fill="#FF943F"/>
<path d="M189.272 109.644L185.485 107.539V106.619L189.272 104.514V105.596L186.242 107.225L186.251 106.926L189.272 108.562V109.644Z" fill="#FF943F"/>
<path d="M193.797 103.508H194.844L191.389 110.922H190.335L193.797 103.508Z" fill="#FF943F"/>
<path d="M197.858 103.508H198.905L195.45 110.922H194.396L197.858 103.508Z" fill="#FF943F"/>
<path d="M203.565 109.644L199.779 107.539V106.619L203.565 104.514V105.596L200.536 107.225L200.545 106.926L203.565 108.562V109.644Z" fill="#FF943F"/>
<path d="M159.954 113.734H161.001L157.545 121.148H156.491L159.954 113.734Z" fill="#FF943F"/>
<path d="M183.783 113.734H184.83L188.293 121.148H187.229L183.783 113.734Z" fill="#FF943F"/>
<path d="M154.361 123.917H155.297V131.417H154.361V123.917Z" fill="#FF943F"/>
<path d="M188.456 123.917H189.392V131.417H188.456V123.917Z" fill="#FF943F"/>
<path d="M156.524 134.186H157.571L161.034 141.6H159.97L156.524 134.186Z" fill="#FF943F"/>
<path d="M161.697 141.105H165.892V142H161.697V141.105Z" fill="#FF943F"/>
<path d="M166.979 141.105H171.175V142H166.979V141.105Z" fill="#FF943F"/>
<path d="M172.265 141.105H176.46V142H172.265V141.105Z" fill="#FF943F"/>
<path d="M177.547 141.105H181.742V142H177.547V141.105Z" fill="#FF943F"/>
<path d="M185.868 134.186H186.915L183.459 141.6H182.405L185.868 134.186Z" fill="#FF943F"/>
<path d="M178.249 116.842H179.295L175.84 124.256H174.786L178.249 116.842Z" fill="white"/>
<path d="M165.044 127.068H166.091L169.553 134.482H168.49L165.044 127.068Z" fill="white"/>
<path d="M173.254 127.068H174.301L170.846 134.482H169.792L173.254 127.068Z" fill="white"/>
<path d="M78.3828 23.9844H82.5778V24.8792H78.3828V23.9844Z" fill="white"/>
<path d="M83.667 23.9844H87.862V24.8792H83.667V23.9844Z" fill="white"/>
<path d="M88.9492 23.9844H93.1442V24.8792H88.9492V23.9844Z" fill="white"/>
<path d="M75.5752 27.2487H76.5111V34.7477H75.5752V27.2487Z" fill="white"/>
<path d="M94.5908 27.2487H95.5267V34.7477H94.5908V27.2487Z" fill="white"/>
<path d="M3.40918 41.1129H6.1909V42.0503H3.40918V41.1129Z" fill="white"/>
<path d="M8.08887 41.1129H10.8706V42.0503H8.08887V41.1129Z" fill="white"/>
<path d="M12.7676 41.1129H15.5493V42.0503H12.7676V41.1129Z" fill="white"/>
<path d="M17.4473 41.1129H20.229V42.0503H17.4473V41.1129Z" fill="white"/>
<path d="M22.127 41.1129H24.9087V42.0503H22.127V41.1129Z" fill="white"/>
<path d="M26.8066 41.1129H29.5884V42.0503H26.8066V41.1129Z" fill="white"/>
<path d="M31.4863 41.1129H34.268V42.0503H31.4863V41.1129Z" fill="white"/>
<path d="M36.165 41.1129H38.9468V42.0503H36.165V41.1129Z" fill="white"/>
<path d="M40.8447 41.1129H43.6264V42.0503H40.8447V41.1129Z" fill="white"/>
<path d="M45.5244 41.1129H48.3061V42.0503H45.5244V41.1129Z" fill="white"/>
<path d="M50.2041 41.1129H52.9858V42.0503H50.2041V41.1129Z" fill="white"/>
<path d="M54.8838 41.1129H57.6655V42.0503H54.8838V41.1129Z" fill="white"/>
<path d="M59.5635 41.1129H62.3452V42.0503H59.5635V41.1129Z" fill="white"/>
<path d="M64.2422 41.1129H67.0239V42.0503H64.2422V41.1129Z" fill="white"/>
<path d="M68.9219 41.1129H71.7036V42.0503H68.9219V41.1129Z" fill="white"/>
<path d="M74.1543 37.4746H75.0902V44.9737H74.1543V37.4746Z" fill="white"/>
<path d="M93.1709 37.4746H94.1068V44.9737H93.1709V37.4746Z" fill="white"/>
<path d="M75.5752 47.7007H76.5111V55.1998H75.5752V47.7007Z" fill="white"/>
<path d="M94.5908 47.7007H95.5267V55.1998H94.5908V47.7007Z" fill="white"/>
<path d="M75.5752 57.9266H76.5111V65.4257H75.5752V57.9266Z" fill="white"/>
<path d="M94.5908 57.9266H95.5267V65.4257H94.5908V57.9266Z" fill="white"/>
<path d="M75.5752 68.1526H76.5111V75.6517H75.5752V68.1526Z" fill="white"/>
<path d="M94.5908 68.1526H95.5267V75.6517H94.5908V68.1526Z" fill="white"/>
<path d="M75.5752 78.3787H76.5111V85.8777H75.5752V78.3787Z" fill="white"/>
<path d="M94.5908 78.3787H95.5267V85.8777H94.5908V78.3787Z" fill="white"/>
<path d="M75.5752 88.6046H76.5111V96.1037H75.5752V88.6046Z" fill="white"/>
<path d="M94.5908 88.6046H95.5267V96.1037H94.5908V88.6046Z" fill="white"/>
<path d="M3 105.792H7.19503V106.687H3V105.792Z" fill="white"/>
<path d="M8.28418 105.792H12.4792V106.687H8.28418V105.792Z" fill="white"/>
<path d="M13.5664 105.792H17.7614V106.687H13.5664V105.792Z" fill="white"/>
<path d="M18.8516 105.792H23.0466V106.687H18.8516V105.792Z" fill="white"/>
<path d="M24.1338 105.792H28.3288V106.687H24.1338V105.792Z" fill="white"/>
<path d="M29.418 105.792H33.613V106.687H29.418V105.792Z" fill="white"/>
<path d="M34.7021 105.792H38.8972V106.687H34.7021V105.792Z" fill="white"/>
<path d="M39.9844 105.792H44.1794V106.687H39.9844V105.792Z" fill="white"/>
<path d="M45.2695 105.792H49.4646V106.687H45.2695V105.792Z" fill="white"/>
<path d="M50.5518 105.792H54.7468V106.687H50.5518V105.792Z" fill="white"/>
<path d="M55.8359 105.792H60.031V106.687H55.8359V105.792Z" fill="white"/>
<path d="M61.1211 105.792H65.3161V106.687H61.1211V105.792Z" fill="white"/>
<path d="M66.4023 105.792H70.5974V106.687H66.4023V105.792Z" fill="white"/>
<path d="M76.417 98.8307H77.3529V106.33H76.417V98.8307Z" fill="white"/>
<path d="M95.4326 98.8307H96.3685V106.33H95.4326V98.8307Z" fill="white"/>
<path d="M75.5752 109.057H76.5111V116.556H75.5752V109.057Z" fill="white"/>
<path d="M94.5908 109.057H95.5267V116.556H94.5908V109.057Z" fill="white"/>
<path d="M75.5752 119.283H76.5111V126.782H75.5752V119.283Z" fill="white"/>
<path d="M78.5527 126.244H82.7478V127.139H78.5527V126.244Z" fill="white"/>
<path d="M83.8379 126.244H88.0329V127.139H83.8379V126.244Z" fill="white"/>
<path d="M89.1201 126.244H93.3151V127.139H89.1201V126.244Z" fill="white"/>
<path d="M95.3662 119.283H96.3021V126.782H95.3662V119.283Z" fill="white"/>
</g>
<defs>
<clipPath id="clip0_6364_2675">
<rect width="333" height="137" fill="white" transform="translate(3 5)"/>
</clipPath>
</defs>
</svg>
