<svg width="472" height="457" viewBox="0 0 472 457" fill="none" xmlns="http://www.w3.org/2000/svg">
<rect width="472" height="457" rx="12" fill="#332824"/>
<g clip-path="url(#clip0_6364_6523)">
<path d="M62.2883 94H65.2413L55.4955 114.85H52.5225L62.2883 94Z" fill="white"/>
<path d="M246.452 94H249.405L259.171 114.85H256.171L246.452 94Z" fill="#F79345"/>
<path d="M281.923 113.459H293.755V115.975H281.923V113.459Z" fill="#F79345"/>
<path d="M308.607 104.112H316.453V106.749H308.607V104.112Z" fill="#F79345"/>
<path d="M354.323 108.406H358.116V112.094H354.323V108.406Z" fill="#F79345"/>
<path d="M41.0305 122.759H43.9835L34.2377 143.609H31.2646L41.0305 122.759Z" fill="white"/>
<path d="M59.2891 122.639H61.9288V143.729H59.2891V122.639Z" fill="white"/>
<path d="M120.844 142.218H132.676V144.734H120.844V142.218Z" fill="white"/>
<path d="M135.749 142.218H147.581V144.734H135.749V142.218Z" fill="white"/>
<path d="M150.654 142.218H162.487V144.734H150.654V142.218Z" fill="#F79345"/>
<path d="M165.553 142.218H177.385V144.734H165.553V142.218Z" fill="#F79345"/>
<path d="M180.458 142.218H192.29V144.734H180.458V142.218Z" fill="#F79345"/>
<path d="M251.226 122.639H253.865V143.729H251.226V122.639Z" fill="#F79345"/>
<path d="M271.41 132.871H279.256V135.507H271.41V132.871Z" fill="#F79345"/>
<path d="M305.8 130.115L308.367 127.259L308.653 127.739L304.86 126.873L305.654 124.623L309.087 126.134L308.653 126.4L308.267 122.639H310.667L310.28 126.4L309.873 126.134L313.306 124.623L314.073 126.873L310.353 127.712L310.547 127.259L313.16 130.115L311.166 131.46L309.247 128.198H309.7L307.78 131.46L305.787 130.115H305.8Z" fill="#F79345"/>
<path d="M327.972 142.218H339.804V144.734H327.972V142.218Z" fill="#F79345"/>
<path d="M364.042 131.48H376.521V133.95H364.042V131.48ZM368.982 126.62H371.595V138.916H368.982V126.62Z" fill="#F79345"/>
<path d="M412.564 132.871H420.41V135.507H412.564V132.871Z" fill="#F79345"/>
<path d="M19.7658 151.518H22.7189L12.9731 172.368H10L19.7658 151.518Z" fill="white"/>
<path d="M59.2891 151.398H61.9288V172.488H59.2891V151.398Z" fill="white"/>
<path d="M88.9531 170.977H100.785V173.493H88.9531V170.977Z" fill="white"/>
<path d="M112.424 151.518H115.377L105.631 172.368H102.658L112.424 151.518Z" fill="white"/>
<path d="M154.827 151.398H157.467V172.488H154.827V151.398Z" fill="#F79345"/>
<path d="M204.263 151.518H207.216L216.982 172.368H213.982L204.263 151.518Z" fill="#F79345"/>
<path d="M218.854 170.977H230.687V173.493H218.854V170.977Z" fill="#F79345"/>
<path d="M257.731 151.398H260.371V172.488H257.731V151.398Z" fill="#F79345"/>
<path d="M285.902 151.518H288.855L298.621 172.368H295.621L285.902 151.518Z" fill="#F79345"/>
<path d="M310.646 160.239H323.125V162.708H310.646V160.239ZM315.586 155.379H318.199V167.675H315.586V155.379Z" fill="#F79345"/>
<path d="M348.537 161.63H356.383V164.266H348.537V161.63Z" fill="#F79345"/>
<path d="M383.62 165.924H387.413V169.612H383.62V165.924Z" fill="#F79345"/>
<path d="M413.498 170.977H425.33V173.493H413.498V170.977Z" fill="#F79345"/>
<path d="M10.0938 180.276H13.0468L22.8126 201.127H19.8129L10.0938 180.276Z" fill="white"/>
<path d="M65.3418 180.276H68.2949L78.0607 201.127H75.0609L65.3418 180.276Z" fill="white"/>
<path d="M88.5002 180.276H91.4533L81.7074 201.127H78.7344L88.5002 180.276Z" fill="white"/>
<path d="M145.062 203.703H152.907V206.339H145.062V203.703Z" fill="white"/>
<path d="M155.261 180.157H157.901V201.247H155.261V180.157Z" fill="#F79345"/>
<path d="M160.253 203.703H168.099V206.339H160.253V203.703Z" fill="#F79345"/>
<path d="M230.034 180.276H232.987L242.753 201.127H239.753L230.034 180.276Z" fill="#F79345"/>
<path d="M253.192 180.276H256.145L246.399 201.127H243.426L253.192 180.276Z" fill="#F79345"/>
<path d="M290.009 199.735H301.841V202.252H290.009V199.735Z" fill="#F79345"/>
<path d="M316.693 190.389H324.539V193.025H316.693V190.389Z" fill="#F79345"/>
<path d="M339.277 188.997H351.756V191.467H339.277V188.997ZM344.217 184.138H346.83V196.433H344.217V184.138Z" fill="#F79345"/>
<path d="M377.168 190.389H385.014V193.025H377.168V190.389Z" fill="#F79345"/>
<path d="M454.154 190.389H462V193.025H454.154V190.389Z" fill="#F79345"/>
<path d="M30.9717 212.23H33.9248L43.6906 233.081H40.6908L30.9717 212.23Z" fill="white"/>
<path d="M45.5635 231.689H57.3958V234.206H45.5635V231.689Z" fill="white"/>
<path d="M69.0344 212.23H71.9874L62.2416 233.081H59.2686L69.0344 212.23Z" fill="white"/>
<path d="M140.322 226.943C139.549 224.992 139.162 222.982 139.162 220.925C139.162 219.56 139.329 218.202 139.669 216.864C140.009 215.526 140.515 214.228 141.202 212.963C141.889 211.705 142.742 210.52 143.775 209.421H146.948C145.935 210.54 145.102 211.718 144.442 212.95C143.782 214.181 143.302 215.459 142.988 216.784C142.675 218.109 142.522 219.48 142.522 220.898C142.522 222.922 142.888 224.913 143.615 226.876C144.342 228.84 145.455 230.744 146.948 232.588H143.775C142.249 230.777 141.095 228.894 140.322 226.943Z" fill="white"/>
<path d="M150.461 231.689H162.293V234.206H150.461V231.689Z" fill="#F79345"/>
<path d="M172.426 215.067C173.199 217.017 173.586 219.028 173.586 221.085C173.586 222.449 173.419 223.807 173.079 225.146C172.739 226.484 172.233 227.788 171.546 229.047C170.859 230.305 170.006 231.49 168.973 232.588H165.8C166.813 231.47 167.646 230.292 168.306 229.06C168.966 227.828 169.446 226.55 169.759 225.225C170.073 223.901 170.226 222.529 170.226 221.111C170.226 219.088 169.859 217.097 169.133 215.133C168.406 213.169 167.293 211.265 165.8 209.421H168.973C170.499 211.232 171.653 213.116 172.426 215.067Z" fill="#F79345"/>
<path d="M240.38 212.23H243.333L253.099 233.081H250.099L240.38 212.23Z" fill="#F79345"/>
<path d="M254.972 231.689H266.804V234.206H254.972V231.689Z" fill="#F79345"/>
<path d="M278.443 212.23H281.396L271.65 233.081H268.677L278.443 212.23Z" fill="#F79345"/>
<path d="M285.422 226.637H289.215V230.325H285.422V226.637Z" fill="#F79345"/>
<path d="M306.733 218.295H310.526V221.983H306.733V218.295ZM306.733 226.637H310.526V230.325H306.733V226.637Z" fill="#F79345"/>
<path d="M338.078 222.343H345.924V224.979H338.078V222.343Z" fill="#F79345"/>
<path d="M382.014 231.689H393.846V234.206H382.014V231.689Z" fill="#F79345"/>
<path d="M419.257 219.587L421.824 216.738L422.11 217.217L418.317 216.352L419.111 214.102L422.544 215.613L422.11 215.879L421.724 212.118H424.124L423.737 215.879L423.33 215.613L426.763 214.102L427.53 216.352L423.81 217.19L424.004 216.738L426.617 219.587L424.623 220.932L422.704 217.67H423.157L421.237 220.932L419.244 219.587H419.257Z" fill="#F79345"/>
<path d="M56.4355 240.87H59.0753V261.959H56.4355V240.87Z" fill="white"/>
<path d="M154.514 240.87H157.153V261.959H154.514V240.87Z" fill="#F79345"/>
<path d="M252.545 260.448H264.377V262.965H252.545V260.448Z" fill="#F79345"/>
<path d="M268.604 251.102H276.449V253.738H268.604V251.102Z" fill="#F79345"/>
<path d="M291.182 249.71H303.661V252.18H291.182V249.71ZM296.128 244.851H298.741V257.146H296.128V244.851Z" fill="#F79345"/>
<path d="M319.066 255.396H322.859V259.084H319.066V255.396Z" fill="#F79345"/>
<path d="M56.4355 269.628H59.0753V290.718H56.4355V269.628Z" fill="white"/>
<path d="M64.835 289.207H76.6672V291.723H64.835V289.207Z" fill="white"/>
<path d="M154.681 269.628H157.32V290.718H154.681V269.628Z" fill="#F79345"/>
<path d="M237.5 289.207H249.332V291.723H237.5V289.207Z" fill="#F79345"/>
<path d="M254.465 284.154H258.258V287.842H254.465V284.154Z" fill="#F79345"/>
<path d="M274.863 279.86H282.709V282.497H274.863V279.86Z" fill="#F79345"/>
<path d="M362.409 277.105L364.975 274.255L365.262 274.735L361.469 273.869L362.262 271.619L365.695 273.13L365.262 273.397L364.875 269.635H367.275L366.888 273.397L366.482 273.13L369.915 271.619L370.681 273.869L366.962 274.708L367.155 274.255L369.768 277.105L367.775 278.449L365.855 275.187H366.308L364.388 278.449L362.395 277.105H362.409Z" fill="#F79345"/>
<path d="M428.883 284.154H432.676V287.842H428.883V284.154Z" fill="#F79345"/>
<path d="M73.501 298.507H76.454L86.2198 319.357H83.2201L73.501 298.507Z" fill="white"/>
<path d="M88.0859 317.966H99.9182V320.482H88.0859V317.966Z" fill="white"/>
<path d="M154.66 298.387H157.3V319.477H154.66V298.387Z" fill="#F79345"/>
<path d="M205.583 317.966H217.415V320.482H205.583V317.966Z" fill="#F79345"/>
<path d="M232.267 308.619H240.113V311.255H232.267V308.619Z" fill="#F79345"/>
<path d="M266.73 308.619H274.576V311.255H266.73V308.619Z" fill="#F79345"/>
<path d="M289.408 317.966H301.24V320.482H289.408V317.966Z" fill="#F79345"/>
<path d="M326.726 308.619H334.572V311.255H326.726V308.619Z" fill="#F79345"/>
<path d="M361.809 312.913H365.602V316.601H361.809V312.913Z" fill="#F79345"/>
<path d="M392.84 308.619H400.686V311.255H392.84V308.619Z" fill="#F79345"/>
<path d="M105.392 327.266H108.345L118.11 348.116H115.111L105.392 327.266Z" fill="white"/>
<path d="M119.983 346.725H131.816V349.241H119.983V346.725Z" fill="white"/>
<path d="M155.021 327.146H157.66V348.236H155.021V327.146Z" fill="#F79345"/>
<path d="M174.052 346.725H185.884V349.241H174.052V346.725Z" fill="#F79345"/>
<path d="M199.49 335.987H211.969V338.456H199.49V335.987ZM204.43 331.127H207.043V343.423H204.43V331.127Z" fill="#F79345"/>
<path d="M225.595 346.725H237.427V349.241H225.595V346.725Z" fill="#F79345"/>
<path d="M252.212 334.622L254.779 331.773L255.065 332.252L251.272 331.387L252.066 329.137L255.499 330.648L255.065 330.914L254.679 327.153H257.079L256.692 330.914L256.285 330.648L259.718 329.137L260.485 331.387L256.765 332.226L256.959 331.773L259.572 334.622L257.579 335.967L255.659 332.705H256.112L254.192 335.967L252.199 334.622H252.212Z" fill="#F79345"/>
<path d="M274.29 335.987H286.769V338.456H274.29V335.987ZM279.23 331.127H281.843V343.423H279.23V331.127Z" fill="#F79345"/>
<path d="M300.401 346.725H312.234V349.241H300.401V346.725Z" fill="#F79345"/>
<path d="M327.085 337.378H334.931V340.014H327.085V337.378Z" fill="#F79345"/>
<path d="M137.282 356.025H140.235L150.001 376.875H147.001L137.282 356.025Z" fill="white"/>
<path d="M154.587 355.905H157.227V376.995H154.587V355.905Z" fill="#F79345"/>
<path d="M171.552 356.025H174.505L164.759 376.875H161.786L171.552 356.025Z" fill="#F79345"/>
<path d="M188.258 366.137H196.104V368.773H188.258V366.137Z" fill="#F79345"/>
<path d="M210.936 375.483H222.768V378H210.936V375.483Z" fill="#F79345"/>
<path d="M345 366.137H352.846V368.773H345V366.137Z" fill="#F79345"/>
<path d="M317.167 394H320.96V397.688H317.167V394Z" fill="#F79345"/>
<path d="M258.252 393H266.098V395.636H258.252V393Z" fill="#F79345"/>
<path d="M282.083 377H289.929V379.636H282.083V377Z" fill="#F79345"/>
</g>
<defs>
<clipPath id="clip0_6364_6523">
<rect width="452" height="304" fill="white" transform="translate(10 94)"/>
</clipPath>
</defs>
</svg>
