<svg width="119" height="153" viewBox="0 0 119 153" fill="none" xmlns="http://www.w3.org/2000/svg">
<path d="M115.466 93.8664C115.466 125.05 90.3348 150.32 59.3463 150.32C28.3577 150.32 3.22656 125.05 3.22656 93.8664C3.22656 78.2078 9.55657 55.659 19.8323 37.0216C24.9653 27.7116 31.0536 19.4324 37.7749 13.4929C44.4977 7.55201 51.7849 4.00928 59.3463 4.00928C66.9076 4.00928 74.1948 7.55201 80.9176 13.4929C87.6389 19.4324 93.7272 27.7116 98.8603 37.0216C109.136 55.659 115.466 78.2078 115.466 93.8664Z" fill="url(#paint0_linear_6380_26676)" stroke="#451E11" stroke-width="2"/>
<path d="M84.4727 130.992H95.3254V133.315H84.4727V130.992Z" fill="#974EF2"/>
<path d="M88.6747 113.551H91.0737L72.1861 146.681H69.7871L88.6747 113.551Z" fill="#974EF2"/>
<path d="M79.5468 113.551H81.9458L63.0582 146.681H60.6592L79.5468 113.551Z" fill="#974EF2"/>
<path d="M35.5176 113.552H37.9166L56.8042 146.681H54.4052L35.5176 113.552Z" fill="#974EF2"/>
<path d="M26.3896 113.551H28.7887L47.6763 146.681H45.2772L26.3896 113.551Z" fill="#974EF2"/>
<path d="M22.1016 130.992H32.9543V133.315H22.1016V130.992Z" fill="#974EF2"/>
<path d="M92.0898 113.053H109.15V115.147H92.0898V113.053Z" fill="#974EF2"/>
<path d="M74.624 98.9248H85.4768V101.248H74.624V98.9248Z" fill="#974EF2"/>
<path d="M55.1042 92.2609L58.6075 87.8437L58.6456 88.1864L53.3145 86.7774L53.9999 84.7973L59.2549 86.8536L58.8741 87.1202L58.4552 81.2939H60.5877L60.2069 87.1202L59.8642 86.8917L65.043 84.7973L65.7285 86.7774L60.4735 88.1483L60.5115 87.8437L63.9006 92.2609L62.4155 93.5556L59.2549 88.491H59.8642L56.6274 93.5556L55.1042 92.2609Z" fill="#974EF2"/>
<path d="M33.5244 98.9243H44.3772V101.247H33.5244V98.9243Z" fill="#974EF2"/>
<path d="M9.8916 113.052H26.9514V115.147H9.8916V113.052Z" fill="#974EF2"/>
<path d="M105.073 80.319C104.134 80.319 103.309 80.1412 102.598 79.7858C101.887 79.4304 101.075 78.9227 100.161 78.2626C99.3737 77.6788 98.7264 77.2599 98.2186 77.006C97.7109 76.7268 97.1397 76.5871 96.505 76.5871C95.7181 76.5871 95.0707 76.841 94.563 77.3487C94.0806 77.8565 93.8395 78.6181 93.8395 79.6335V80.0524H91.4785V79.405C91.4785 78.3388 91.707 77.4376 92.164 76.7014C92.6209 75.9398 93.2302 75.3686 93.9918 74.9878C94.7534 74.607 95.5911 74.4166 96.505 74.4166C97.419 74.4166 98.2313 74.5943 98.9422 74.9497C99.653 75.3051 100.491 75.8255 101.455 76.511C102.217 77.0695 102.839 77.4884 103.321 77.7676C103.829 78.0215 104.362 78.1484 104.921 78.1484C105.708 78.1484 106.33 77.9072 106.787 77.4249C107.269 76.9172 107.51 76.1175 107.51 75.0259V74.6831H109.757V75.3305C109.757 76.4221 109.541 77.3487 109.109 78.1103C108.678 78.8465 108.107 79.405 107.396 79.7858C106.685 80.1412 105.911 80.319 105.073 80.319ZM105.073 71.751C104.134 71.751 103.309 71.5733 102.598 71.2179C101.887 70.8625 101.075 70.3547 100.161 69.6947C99.3737 69.1108 98.7264 68.6919 98.2186 68.4381C97.7109 68.1588 97.1397 68.0192 96.505 68.0192C95.7181 68.0192 95.0707 68.273 94.563 68.7808C94.0806 69.2885 93.8395 70.0501 93.8395 71.0656V71.4844H91.4785V70.8371C91.4785 69.7709 91.707 68.8696 92.164 68.1334C92.6209 67.3718 93.2302 66.8006 93.9918 66.4198C94.7534 66.039 95.5911 65.8486 96.505 65.8486C97.419 65.8486 98.2313 66.0263 98.9422 66.3817C99.653 66.7372 100.491 67.2576 101.455 67.943C102.217 68.5015 102.839 68.9204 103.321 69.1997C103.829 69.4535 104.362 69.5805 104.921 69.5805C105.708 69.5805 106.33 69.3393 106.787 68.8569C107.269 68.3492 107.51 67.5495 107.51 66.4579V66.1152H109.757V66.7625C109.757 67.8542 109.541 68.7808 109.109 69.5424C108.678 70.2786 108.107 70.8371 107.396 71.2179C106.685 71.5733 105.911 71.751 105.073 71.751Z" fill="#974EF2"/>
<path d="M79.9179 57.4336C80.6541 57.4336 81.2887 57.6113 81.8219 57.9667C82.3804 58.2967 82.7992 58.7537 83.0785 59.3376C83.3577 59.9215 83.4974 60.5815 83.4974 61.3177V69.3907C83.4974 70.2284 83.6116 70.8631 83.8401 71.2946C84.0686 71.7262 84.4747 72.0562 85.0586 72.2847C85.6425 72.5132 86.5184 72.6909 87.6861 72.8178V75.4073C86.4168 75.4834 85.4902 75.6104 84.9063 75.7881C84.3478 75.9658 83.967 76.2831 83.7639 76.7401C83.5862 77.1716 83.4974 77.8571 83.4974 78.7964V86.6789C83.4974 87.7959 83.18 88.7225 82.5454 89.4587C81.9107 90.1949 81.0349 90.563 79.9179 90.563H73.2158V88.6971H78.8516C79.6894 88.6971 80.286 88.5067 80.6414 88.1259C81.0222 87.7705 81.2126 87.212 81.2126 86.4504V79.2152V79.0629C81.2126 77.8951 81.3268 76.9939 81.5553 76.3593C81.8092 75.6992 82.3296 75.1661 83.1166 74.7599C83.9035 74.3537 85.1094 74.0364 86.7341 73.8079V74.3029C85.0586 74.0237 83.8274 73.6937 83.0404 73.3129C82.2788 72.9067 81.7838 72.399 81.5553 71.7897C81.3268 71.155 81.2126 70.2411 81.2126 69.0479V61.5462C81.2126 60.7846 81.0222 60.2261 80.6414 59.8707C80.286 59.4899 79.6894 59.2995 78.8516 59.2995H73.2158V57.4336H79.9179Z" fill="#974EF2"/>
<path d="M39.1228 90.563C38.3866 90.563 37.7392 90.3853 37.1807 90.0299C36.6476 89.6999 36.2414 89.2429 35.9621 88.659C35.6829 88.0751 35.5433 87.4151 35.5433 86.6789V78.606C35.5433 77.7682 35.429 77.1335 35.2006 76.702C34.9721 76.2704 34.5659 75.9404 33.982 75.7119C33.3981 75.4834 32.5223 75.3057 31.3545 75.1788V72.5894C32.6238 72.5132 33.5377 72.3863 34.0962 72.2086C34.6801 72.0309 35.0609 71.7262 35.2386 71.2946C35.4417 70.8377 35.5433 70.1396 35.5433 69.2003V61.3177C35.5433 60.2007 35.8606 59.2741 36.4953 58.5379C37.1299 57.8017 38.0058 57.4336 39.1228 57.4336H45.8248V59.2995H40.189C39.3512 59.2995 38.742 59.4899 38.3612 59.8707C38.0058 60.2261 37.8281 60.7846 37.8281 61.5462V68.7814V68.9337C37.8281 70.1015 37.7011 71.0154 37.4473 71.6754C37.2188 72.3101 36.7111 72.8305 35.9241 73.2367C35.1371 73.6429 33.9312 73.9602 32.3065 74.1887V73.6937C33.982 73.9729 35.2006 74.3156 35.9621 74.7218C36.7491 75.1026 37.2569 75.6104 37.4853 76.245C37.7138 76.8543 37.8281 77.7555 37.8281 78.9487V86.4504C37.8281 87.212 38.0058 87.7705 38.3612 88.1259C38.742 88.5067 39.3512 88.6971 40.189 88.6971H45.8248V90.563H39.1228Z" fill="#974EF2"/>
<path d="M22.8748 80.3194C21.9355 80.3194 21.1104 80.1417 20.3996 79.7863C19.6888 79.4309 18.8764 78.9232 17.9625 78.2631C17.1755 77.6792 16.5281 77.2604 16.0204 77.0065C15.5127 76.7272 14.9415 76.5876 14.3068 76.5876C13.5198 76.5876 12.8725 76.8415 12.3647 77.3492C11.8824 77.8569 11.6412 78.6185 11.6412 79.634V80.0529H9.28027V79.4055C9.28027 78.3393 9.50875 77.4381 9.96571 76.7019C10.4227 75.9403 11.0319 75.3691 11.7935 74.9883C12.5551 74.6075 13.3929 74.4171 14.3068 74.4171C15.2207 74.4171 16.0331 74.5948 16.7439 74.9502C17.4547 75.3056 18.2925 75.826 19.2572 76.5115C20.0188 77.07 20.6407 77.4888 21.1231 77.7681C21.6308 78.022 22.1639 78.1489 22.7224 78.1489C23.5094 78.1489 24.1314 77.9077 24.5884 77.4254C25.0707 76.9177 25.3119 76.118 25.3119 75.0264V74.6836H27.5586V75.331C27.5586 76.4226 27.3428 77.3492 26.9112 78.1108C26.4796 78.847 25.9085 79.4055 25.1976 79.7863C24.4868 80.1417 23.7125 80.3194 22.8748 80.3194ZM22.8748 71.7515C21.9355 71.7515 21.1104 71.5738 20.3996 71.2184C19.6888 70.863 18.8764 70.3552 17.9625 69.6952C17.1755 69.1113 16.5281 68.6924 16.0204 68.4385C15.5127 68.1593 14.9415 68.0197 14.3068 68.0197C13.5198 68.0197 12.8725 68.2735 12.3647 68.7813C11.8824 69.289 11.6412 70.0506 11.6412 71.0661V71.4849H9.28027V70.8376C9.28027 69.7713 9.50875 68.8701 9.96571 68.1339C10.4227 67.3723 11.0319 66.8011 11.7935 66.4203C12.5551 66.0395 13.3929 65.8491 14.3068 65.8491C15.2207 65.8491 16.0331 66.0268 16.7439 66.3822C17.4547 66.7376 18.2925 67.2581 19.2572 67.9435C20.0188 68.502 20.6407 68.9209 21.1231 69.2001C21.6308 69.454 22.1639 69.5809 22.7224 69.5809C23.5094 69.5809 24.1314 69.3398 24.5884 68.8574C25.0707 68.3497 25.3119 67.55 25.3119 66.4584V66.1157H27.5586V66.763C27.5586 67.8547 27.3428 68.7813 26.9112 69.5429C26.4796 70.2791 25.9085 70.8376 25.1976 71.2184C24.4868 71.5738 23.7125 71.7515 22.8748 71.7515Z" fill="#974EF2"/>
<path d="M57.4277 57.7555H61.6165V62.1346H57.4277V57.7555ZM57.4277 43.1709H61.6165V47.5501H57.4277V43.1709Z" fill="#974EF2"/>
<path d="M69.7891 9.33301H72.1881L91.0757 42.4624H88.6766L69.7891 9.33301Z" fill="#974EF2"/>
<path d="M54.3415 20.1096L57.8449 15.6923L57.8829 16.035L52.5518 14.6261L53.2372 12.6459L58.4922 14.7022L58.1114 14.9688L57.6925 9.14258H59.825L59.4442 14.9688L59.1015 14.7403L64.2803 12.6459L64.9658 14.6261L59.7108 15.9969L59.7488 15.6923L63.1379 20.1096L61.6528 21.4043L58.4922 16.3397H59.1015L55.8647 21.4043L54.3415 20.1096Z" fill="#974EF2"/>
<path d="M46.4716 9.3335H48.8706L29.983 42.4629H27.584L46.4716 9.3335Z" fill="#974EF2"/>
<defs>
<linearGradient id="paint0_linear_6380_26676" x1="79.09" y1="54.7655" x2="3.67319" y2="171.351" gradientUnits="userSpaceOnUse">
<stop stop-color="#DEC5FB"/>
<stop offset="1" stop-color="#C088F2"/>
</linearGradient>
</defs>
</svg>
