<svg width="174" height="200" viewBox="0 0 174 200" fill="none" xmlns="http://www.w3.org/2000/svg">
<g clip-path="url(#clip0_6380_26698)">
<path d="M140.994 164.723C139.343 154.233 137.011 152.791 137.011 152.791C140.049 149.477 147.077 138.226 146.929 136.918C146.782 135.611 145.229 135.611 145.229 135.611C145.229 135.611 148.298 131.1 147.875 129.129C147.66 128.123 146.997 128.129 146.997 128.129C146.997 128.129 147.654 127.294 147.648 126.324C147.648 125.355 137.735 94.3151 128.939 79.5718C120.15 64.8163 109.488 52.0555 105.235 53.5409C100.969 55.014 101.472 75.4042 101.472 75.4042C86.1764 73.796 73.029 76.4538 73.029 76.4538C73.029 76.4538 77.08 48.1334 65.1663 53.5839C40.2587 71.5618 28.1117 126.036 27.1604 129.915C25.9144 134.353 28.7255 134.193 28.7255 134.193C28.7255 134.193 26.3379 134.85 27.1788 138.183C28.0258 141.51 34.753 146.61 34.753 146.61C34.753 146.61 32.261 146.929 31.9479 148.39C31.8374 148.924 32.6783 150.262 35.0046 152.613C37.8587 155.498 32.2732 162.378 32.2732 162.378C32.2732 162.378 45.5495 164.656 44.1071 165.19C43.2294 165.521 66.5596 172.463 67.4987 174.894H107.242L140.976 164.729L140.994 164.723Z" fill="#FF943F"/>
<path d="M73.6974 114.429C73.6974 114.429 73.145 110.01 69.7016 110.01C66.2582 110.01 66.0557 116.178 66.0557 116.178" stroke="#49250D" stroke-width="1.65723" stroke-miterlimit="10" stroke-linecap="round"/>
<path d="M102.129 114.429C102.129 114.429 102.681 110.01 106.125 110.01C109.568 110.01 109.771 116.178 109.771 116.178" stroke="#49250D" stroke-width="1.65723" stroke-miterlimit="10" stroke-linecap="round"/>
<path d="M59.3108 153.086L61.9562 155.258C70.9728 161.716 70.5984 168.743 69.8803 173.844L107.487 172.113C107.414 171.352 106.56 166.497 106.524 165.779C106.315 161.482 108.561 157.37 112.336 155.301C124.913 148.409 130.91 129.338 128.786 125.269C126.552 120.972 124.201 119.677 118.566 119.861C112.932 120.045 104.492 122.654 100.318 120.8C96.1444 118.947 94.9291 109.58 95.1992 105.419C95.457 101.257 99.4834 100.895 106.358 101.699C113.232 102.503 116.835 100.244 118.13 98.1881C119.426 96.1197 118.173 87.9194 114.976 88.2754C111.784 88.6375 113.257 90.8533 112.711 93.8977C112.164 96.9483 101.932 95.5059 95.9726 95.8066C90.0065 96.1074 87.1524 103.442 87.1524 103.442C83.6108 95.5918 77.0371 95.7146 67.9775 96.3774C58.9241 97.0342 62.3 91.1541 60.8391 89.6994C59.3783 88.2447 55.4194 87.8457 55.3396 93.3699C55.2598 98.894 59.4274 101.57 64.0124 101.975C68.5975 102.374 78.148 100.576 79.2099 104.829C80.548 110.218 78.8785 122.108 72.1206 122.335C68.4501 122.457 63.4232 121.015 60.5506 120.297C57.6781 119.579 48.5572 114.515 44.6534 126.085C40.7497 137.655 59.3231 153.086 59.3231 153.086L59.3047 153.098L59.3108 153.086Z" fill="white"/>
<path d="M79.1243 136.427C79.1243 136.427 81.7329 143.867 88.6319 143.142C95.5371 142.424 96.4946 135.869 96.4946 135.869C96.4946 135.869 90.326 138.318 87.9875 133.819C87.9875 133.819 86.9256 138.404 79.1182 136.415L79.1304 136.427H79.1243Z" fill="#49250D"/>
<path d="M87.9317 118.081C96.2056 118.008 97.6849 119.904 96.4204 121.997C95.156 124.09 89.6626 129.025 87.9747 129.031C86.2745 129.031 81.6772 124.827 79.9831 122.82C78.2829 120.813 78.0128 118.186 87.9378 118.093V118.081H87.9317Z" fill="#49250D"/>
<path d="M90.2085 127.963C87.9743 129.025 88.1769 136.237 93.7808 135.74C98.0159 135.163 96.7577 132.444 98.4272 132.401C100.17 132.358 99.3356 137.213 94.0079 137.882C88.6925 138.551 87.9682 135.071 87.9682 135.071L87.9375 126.018L90.2147 127.976L90.2024 127.963H90.2085Z" fill="#49250D"/>
<path d="M85.6975 127.981C87.944 129.025 87.7905 136.231 82.1866 135.789C77.9392 135.243 79.1913 132.511 77.5218 132.493C75.7786 132.462 76.6564 137.305 81.9841 137.931C87.3118 138.557 87.9992 135.065 87.9992 135.065L87.9685 126.011L85.7098 127.981H85.6975Z" fill="#49250D"/>
<path d="M130.008 168.025C135.949 163.815 139 159.764 139.497 158.413C140.528 155.602 138.846 152.748 137.005 152.797C135.096 152.846 128.786 162.605 112.104 168.031H129.996L130.008 168.019V168.025Z" fill="#964EF1"/>
<path d="M44.5986 168.026H64.1909C45.5562 162.164 36.4598 151.22 35.0174 152.595C35.0174 152.595 33.2251 153.368 33.2374 156.222C33.2496 158.899 37.3498 163.557 44.5925 168.026H44.6048H44.5986Z" fill="#964EF1"/>
<path d="M106.781 76.4786C105.701 65.455 104.97 59.8388 108.088 60.8577C111.2 61.8888 119.48 76.7303 117.197 78.3077C114.907 79.8729 106.793 78.4489 106.781 76.4725V76.4786Z" fill="#F57100"/>
<path d="M67.8789 76.638C68.8671 65.602 69.5607 59.9797 66.4549 61.0292C63.3552 62.0788 55.1857 77.0001 57.4812 78.5407C59.7768 80.0936 67.885 78.6021 67.8789 76.6257V76.638Z" fill="#F57100"/>
<path d="M106.812 76.4786C105.732 65.455 105.001 59.8388 108.119 60.8577C111.231 61.8888 119.511 76.7303 117.228 78.3077C114.939 79.8729 106.824 78.4489 106.812 76.4725V76.4786Z" fill="#F57100"/>
<path d="M67.916 76.638C68.9042 65.602 69.5978 59.9797 66.492 61.0292C63.3923 62.0788 55.2228 77.0001 57.5184 78.5407C59.8139 80.0936 67.9221 78.6021 67.916 76.6257V76.638Z" fill="#F57100"/>
<path d="M27.4987 168.025C26.5596 165.595 26.0072 163.41 26.8911 163.078C28.3335 162.544 32.2986 162.36 32.2986 162.36C32.2986 162.36 37.8841 155.486 35.0299 152.595C32.7037 150.244 31.8566 148.906 31.9733 148.372C32.2801 146.911 34.7783 146.592 34.7783 146.592C34.7783 146.592 28.0511 141.491 27.2041 138.164C26.3571 134.838 28.7508 134.175 28.7508 134.175H28.7079C28.3764 134.175 26.0318 134.034 27.1857 129.897C28.1309 126.024 40.2779 71.5557 65.1794 53.5655C66.2228 53.0929 67.1496 52.8658 67.9599 52.8658C76.4056 52.8658 73.0359 76.4354 73.0359 76.4354C73.0359 76.4354 80.7942 74.8702 91.3207 74.8702C94.5063 74.8702 97.9374 75.0114 101.479 75.3858C101.479 75.3858 100.976 54.9956 105.242 53.5225C105.469 53.4427 105.714 53.412 105.972 53.412C110.631 53.412 120.629 65.5897 128.965 79.5596C137.76 94.3028 147.661 125.355 147.673 126.312C147.673 127.282 147.022 128.117 147.022 128.117C147.022 128.117 147.679 128.117 147.9 129.117C148.324 131.093 145.255 135.599 145.255 135.599C145.255 135.599 146.801 135.599 146.943 136.906C147.09 138.213 140.062 149.477 137.024 152.779C137.024 152.779 137.705 157.53 139.35 168.013H141.443C140.185 160.028 139.473 155.277 139.209 153.417C140.94 151.324 143.235 147.893 144.935 145.174C149.189 138.367 149.079 137.305 149.005 136.667C148.925 135.906 148.612 135.273 148.182 134.795C149.232 132.929 150.306 130.455 149.926 128.675C149.846 128.282 149.711 127.932 149.545 127.632C149.668 127.233 149.754 126.779 149.741 126.294C149.729 124.532 139.448 93.0814 130.745 78.5038C129.087 75.7234 114.301 51.3558 105.978 51.3558C105.481 51.3558 105.021 51.4295 104.579 51.5829C101.817 52.5405 100.368 56.5056 99.7174 64.8531C99.4719 68.0387 99.4167 71.1138 99.4105 73.127C96.7835 72.9183 94.0767 72.8079 91.333 72.8079C84.3604 72.8079 78.6214 73.4769 75.4174 73.9495C75.9453 68.6034 76.4915 57.4569 72.594 52.964C71.3664 51.5523 69.7705 50.8096 67.966 50.8096C66.8305 50.8096 65.609 51.1103 64.3323 51.6934L64.1482 51.7732L63.9825 51.896C53.5787 59.4149 44.1509 73.7347 35.9813 94.487C33.1088 101.791 28.9227 113.668 25.3259 128.804L25.1909 129.381C24.5955 131.523 24.6937 133.242 25.4978 134.482C24.9699 135.525 24.7673 136.912 25.2093 138.655C25.8476 141.178 28.7324 144.137 30.9789 146.113C30.4817 146.598 30.1135 147.193 29.96 147.924C29.7022 149.17 30.2055 150.624 33.5752 154.025C34.367 154.829 33.029 157.885 31.249 160.341C29.8495 160.445 27.4496 160.672 26.1913 161.132C25.4732 161.403 24.9147 161.955 24.6262 162.71C24.2272 163.772 24.4727 165.552 25.3136 168.013H27.5171L27.5049 168.025H27.4987Z" fill="#49250D"/>
<path d="M138.478 151.705C138.478 151.705 141.454 154.203 139.981 159.402" stroke="#49250D" stroke-width="1.98867" stroke-miterlimit="10"/>
<path d="M33.8936 151.827C33.8936 151.827 30.9167 154.325 32.3898 159.524" stroke="#49250D" stroke-width="1.98867" stroke-miterlimit="10"/>
<path d="M34.6614 152.656C34.6614 152.656 32.8691 153.429 32.8691 156.283C32.8691 162.599 55.4382 179.969 88.7487 180.006C122.673 180.049 137.944 162.047 139.116 158.886C140.16 156.074 138.49 153.22 136.655 153.263C134.016 153.325 122.931 171.849 87.8158 171.849C52.7007 171.849 36.644 150.802 34.6798 152.668L34.6675 152.656H34.6614Z" fill="#974EF2"/>
<path d="M90.3017 199.746C97.6795 199.746 103.664 193.945 103.664 186.795C103.664 179.644 97.6795 173.844 90.3017 173.844C82.9239 173.844 76.9395 179.644 76.9395 186.795C76.9395 193.945 82.9239 199.746 90.3017 199.746Z" fill="#974EF2"/>
<path d="M97.8201 184.653L89.1964 193.277C88.5457 193.927 87.5084 193.927 86.8578 193.277L81.2846 187.703C80.8856 187.304 80.8856 186.641 81.2846 186.242L82.5735 184.953C82.9725 184.555 83.6354 184.555 84.0344 184.953L88.024 188.943L95.0581 181.909C95.457 181.51 96.1199 181.51 96.5189 181.909L97.8078 183.198C98.2068 183.597 98.2068 184.26 97.8078 184.659H97.8201V184.653Z" fill="white"/>
<path d="M134.053 171.824C135.741 185.518 166.075 183.425 169.782 175.501C173.483 167.577 168.487 157.093 154.763 157.093C141.038 157.093 132.378 158.137 134.053 171.824Z" fill="white"/>
<path d="M154.762 157.093C168.486 157.093 173.489 167.583 169.781 175.501C168.001 179.313 160.047 181.774 152.08 181.774C143.511 181.774 134.924 178.92 134.052 171.824C132.365 158.131 141.025 157.093 154.762 157.093ZM154.762 155.037C146.089 155.037 138.588 155.399 134.623 159.88C132.193 162.617 131.346 166.619 132.015 172.076C132.714 177.76 138.361 183.842 152.092 183.842C159.838 183.842 169.253 181.504 171.653 176.385C173.752 171.892 173.433 166.754 170.819 162.63C167.707 157.738 161.998 155.037 154.768 155.037H154.756H154.762Z" fill="#49250D"/>
<path d="M38.9752 171.824C37.2873 185.518 6.9537 183.425 3.2464 175.501C-0.454765 167.577 4.5415 157.093 18.2659 157.093C31.9903 157.093 40.6509 158.137 38.9752 171.824Z" fill="white"/>
<path d="M18.2662 157.093C31.9906 157.093 40.6512 158.137 38.9755 171.824C38.0978 178.92 29.517 181.774 20.9485 181.774C12.9876 181.774 5.03284 179.313 3.24671 175.501C-0.454457 167.577 4.54181 157.093 18.2662 157.093ZM18.2662 155.037C11.0357 155.037 5.32746 157.738 2.21554 162.63C-0.411491 166.748 -0.718387 171.892 1.38078 176.385C3.7807 181.516 13.1963 183.842 20.9423 183.842C34.6728 183.842 40.3197 177.766 41.0194 172.076C41.6885 166.613 40.8414 162.617 38.4108 159.88C34.4457 155.399 26.9452 155.037 18.2723 155.037H18.26H18.2662Z" fill="#49250D"/>
<path d="M46.1577 133.573C51.69 133.573 56.1748 129.088 56.1748 123.556C56.1748 118.024 51.69 113.539 46.1577 113.539C40.6254 113.539 36.1406 118.024 36.1406 123.556C36.1406 129.088 40.6254 133.573 46.1577 133.573Z" fill="#EB9091"/>
<path d="M129.559 133.573C135.091 133.573 139.576 129.088 139.576 123.556C139.576 118.024 135.091 113.539 129.559 113.539C124.027 113.539 119.542 118.024 119.542 123.556C119.542 129.088 124.027 133.573 129.559 133.573Z" fill="#EB9091"/>
<path d="M131.609 119.468L163.404 110.01" stroke="#49250D" stroke-width="1.98867" stroke-miterlimit="10"/>
<path d="M133.636 127.178C133.636 127.178 155.438 129.031 168.603 131.057" stroke="#49250D" stroke-width="1.98867" stroke-miterlimit="10"/>
<path d="M43.5053 119.468L11.7109 110.01" stroke="#49250D" stroke-width="1.98867" stroke-miterlimit="10"/>
<path d="M41.4794 127.178C41.4794 127.178 19.6775 129.031 6.51172 131.057" stroke="#49250D" stroke-width="1.98867" stroke-miterlimit="10"/>
<path d="M131.61 26.5404C137.109 17.2844 135.845 4.42549 128.222 1.98874C120.598 -0.448015 110.17 -0.331395 101.012 20.3595C95.1507 33.5929 91.3145 74.8765 91.3145 74.8765H104.996C110.545 67.9345 126.104 35.7964 131.604 26.5404H131.61Z" fill="white" stroke="#49250D" stroke-width="1.98867" stroke-miterlimit="10"/>
<path d="M95.2429 74.8764C94.7642 69.205 101.203 39.8657 107.605 27.9827C113.479 17.0879 118.665 12.6748 123.551 15.6762C128.099 18.4751 121.544 32.3897 119.187 36.9932C115.492 44.2114 111.717 49.7355 108.126 56.2294C102.486 66.4368 101.485 75.3981 101.485 75.3981L95.2491 74.8703L95.2429 74.8764Z" fill="#EB9091"/>
<path d="M84.6223 71.4885C84.6223 71.4885 84.4014 41.2163 78.9386 27.8172C73.4759 14.4181 66.0858 13.2765 58.2477 13.9517C53.4479 14.3629 47.3713 15.2222 42.3628 18.371C42.3628 18.371 35.519 18.285 33.782 20.7954C32.7999 22.2194 35.0832 23.9994 35.0832 23.9994C35.0832 23.9994 32.6097 24.8649 31.6153 26.252C31.3268 26.651 32.7754 27.0807 32.4562 27.5655C30.001 31.2422 26.8707 37.0486 27.951 41.4495C31.6828 56.647 53.9266 48.3854 53.9266 48.3854C53.9266 48.3854 62.845 67.5418 68.3937 74.4838L84.6285 71.4885H84.6223Z" fill="white" stroke="#49250D" stroke-width="1.98867" stroke-miterlimit="10"/>
<path d="M78.9334 69.8739C79.854 58.9975 74.0783 31.6286 67.6212 28.8604L56.1064 40.5285L71.5187 71.0769L78.9272 69.8739H78.9334Z" fill="#EB9091"/>
<path d="M73.9918 32.4942C73.9918 32.4942 69.4866 40.3998 58.3954 45.9424C47.3042 51.4849 34.2488 51.3806 30.4372 43.2355C26.6256 35.0905 38.7418 24.8648 38.7418 24.8648L58.868 17.0635" fill="white"/>
<path d="M53.3066 48.999C53.3066 48.999 66.5339 45.1505 73.9914 32.4941" stroke="#49250D" stroke-width="1.98867" stroke-miterlimit="10"/>
<path d="M38.8841 90.7185L41.2226 84.8261C41.2226 84.8261 63.0245 71.6787 86.5082 71.6787C113.368 71.6787 127.964 81.1188 132.377 83.6967C132.401 83.709 135.01 88.8894 134.985 88.8833C132.469 88.2204 108.918 77.8964 87.2017 77.8964C68.5363 77.8964 38.8841 90.7185 38.8779 90.7185H38.8841Z" fill="white" stroke="#49250D" stroke-width="1.98867" stroke-miterlimit="10"/>
</g>
<defs>
<clipPath id="clip0_6380_26698">
<rect width="173.034" height="200" fill="white"/>
</clipPath>
</defs>
</svg>
