<svg width="180" height="105" viewBox="0 0 180 105" fill="none" xmlns="http://www.w3.org/2000/svg">
<g clip-path="url(#clip0_6261_3473)">
<rect y="0.407471" width="180" height="104" rx="4" fill="#3B2E29"/>
<g clip-path="url(#clip1_6261_3473)">
<path d="M147.253 14.1223H149.616V14.6224H147.253V14.1223Z" fill="white"/>
<path d="M145.797 20.0463C145.717 20.0013 145.656 19.9405 145.614 19.8611C145.573 19.7817 145.552 19.6944 145.552 19.5992V18.7327C145.552 18.6401 145.538 18.5633 145.51 18.5012C145.483 18.439 145.443 18.3887 145.388 18.349C145.333 18.3093 145.26 18.2816 145.167 18.2657V17.8278C145.272 17.8146 145.352 17.7908 145.407 17.7564C145.461 17.722 145.498 17.6743 145.52 17.6135C145.541 17.5526 145.55 17.4706 145.55 17.3661V16.4851C145.55 16.3356 145.597 16.2125 145.692 16.116C145.786 16.0194 145.914 15.9705 146.078 15.9705H146.859V16.4083H146.347C146.26 16.4083 146.199 16.4269 146.162 16.4626C146.124 16.4983 146.107 16.5591 146.107 16.6412V17.427C146.107 17.5725 146.092 17.6823 146.062 17.755C146.031 17.8278 145.968 17.8926 145.873 17.9508C145.777 18.0077 145.62 18.0765 145.403 18.1559V18.0037C145.613 18.0448 145.769 18.0924 145.867 18.144C145.966 18.1969 146.031 18.2617 146.062 18.3398C146.092 18.4178 146.107 18.5342 146.107 18.6903V19.4431C146.107 19.5251 146.126 19.5846 146.162 19.6216C146.197 19.6587 146.26 19.6759 146.347 19.6759H146.859V20.1138H146.078C145.968 20.1138 145.875 20.0913 145.795 20.0476L145.797 20.0463Z" fill="white"/>
<path d="M147.531 19.8372H149.894V20.3372H147.531V19.8372Z" fill="white"/>
<path d="M151.629 16.0365C151.709 16.0814 151.77 16.1423 151.811 16.2217C151.853 16.301 151.874 16.3884 151.874 16.4836V17.3501C151.874 17.4427 151.887 17.5194 151.915 17.5816C151.942 17.6438 151.983 17.694 152.038 17.7337C152.092 17.7734 152.165 17.8012 152.259 17.8171V18.255C152.153 18.2682 152.074 18.292 152.019 18.3264C151.964 18.3608 151.927 18.4084 151.906 18.4693C151.884 18.5301 151.875 18.6121 151.875 18.7166V19.5977C151.875 19.7472 151.829 19.8702 151.734 19.9668C151.64 20.0634 151.512 20.1123 151.348 20.1123H150.566V19.6744H151.079C151.166 19.6744 151.227 19.6559 151.264 19.6202C151.301 19.5831 151.319 19.5236 151.319 19.4416V18.6558C151.319 18.5103 151.333 18.4005 151.364 18.3277C151.395 18.255 151.457 18.1901 151.553 18.1319C151.649 18.075 151.806 18.0063 152.023 17.9269V18.079C151.813 18.038 151.657 17.9904 151.558 17.9388C151.46 17.8859 151.395 17.821 151.364 17.743C151.333 17.6649 151.319 17.5485 151.319 17.3924V16.6397C151.319 16.5577 151.3 16.4982 151.264 16.4611C151.227 16.4241 151.166 16.4069 151.079 16.4069H150.566V15.969H151.348C151.456 15.969 151.55 15.9915 151.63 16.0351L151.629 16.0365Z" fill="white"/>
<path d="M148.769 21.6614H149.296V25.8523H148.769V21.6614Z" fill="white"/>
<path d="M130.268 31.2671H132.631V31.7671H130.268V31.2671Z" fill="white"/>
<path d="M133.244 31.2671H135.607V31.7671H133.244V31.2671Z" fill="white"/>
<path d="M136.22 31.2671H138.583V31.7671H136.22V31.2671Z" fill="white"/>
<path d="M139.197 31.2671H141.56V31.7671H139.197V31.2671Z" fill="white"/>
<path d="M142.173 31.2671H144.536V31.7671H142.173V31.2671Z" fill="white"/>
<path d="M145.149 31.2671H147.513V31.7671H145.149V31.2671Z" fill="white"/>
<path d="M148.667 27.3765H149.194V31.5674H148.667V27.3765Z" fill="white"/>
<path d="M150.345 31.2671H152.708V31.7671H150.345V31.2671Z" fill="white"/>
<path d="M153.321 31.2671H155.684V31.7671H153.321V31.2671Z" fill="white"/>
<path d="M156.299 31.2671H158.662V31.7671H156.299V31.2671Z" fill="white"/>
<path d="M159.274 31.2671H161.638V31.7671H159.274V31.2671Z" fill="white"/>
<path d="M162.251 31.2671H164.614V31.7671H162.251V31.2671Z" fill="white"/>
<path d="M165.227 31.2671H167.59V31.7671H165.227V31.2671Z" fill="white"/>
<path d="M168.204 31.2671H170.567V31.7671H168.204V31.2671Z" fill="white"/>
<path d="M127.733 33.115H128.323L126.376 37.2583H125.782L127.733 33.115Z" fill="white"/>
<path d="M132.961 36.9819H135.324V37.482H132.961V36.9819Z" fill="white"/>
<path d="M135.938 36.9819H138.301V37.482H135.938V36.9819Z" fill="white"/>
<path d="M138.913 36.9819H141.276V37.482H138.913V36.9819Z" fill="white"/>
<path d="M141.891 36.9819H144.254V37.482H141.891V36.9819Z" fill="white"/>
<path d="M144.867 36.9819H147.23V37.482H144.867V36.9819Z" fill="white"/>
<path d="M147.843 36.9819H150.206V37.482H147.843V36.9819Z" fill="white"/>
<path d="M150.819 36.9819H153.183V37.482H150.819V36.9819Z" fill="white"/>
<path d="M153.796 36.9819H156.159V37.482H153.796V36.9819Z" fill="white"/>
<path d="M156.772 36.9819H159.136V37.482H156.772V36.9819Z" fill="white"/>
<path d="M159.749 36.9819H162.112V37.482H159.749V36.9819Z" fill="white"/>
<path d="M170.921 33.115H171.511L173.461 37.2583H172.862L170.921 33.115Z" fill="white"/>
<path d="M124.438 38.8062H124.966V42.9971H124.438V38.8062Z" fill="white"/>
<path d="M132.074 38.8301H132.663L130.717 42.9734H130.123L132.074 38.8301Z" fill="white"/>
<path d="M164.609 38.8301H165.199L167.15 42.9734H166.551L164.609 38.8301Z" fill="white"/>
<path d="M174.357 38.8062H174.885V42.9971H174.357V38.8062Z" fill="white"/>
<path d="M124.438 44.521H124.966V48.7119H124.438V44.521Z" fill="white"/>
<path d="M128.781 44.521H129.308V48.7119H128.781V44.521Z" fill="white"/>
<path d="M135.318 47.9897C135.085 47.8455 134.903 47.6418 134.772 47.3772C134.642 47.1126 134.575 46.8123 134.575 46.4723C134.575 46.1324 134.64 45.8307 134.772 45.5675C134.903 45.3042 135.085 45.1005 135.318 44.955C135.551 44.8108 135.82 44.738 136.124 44.738C136.427 44.738 136.697 44.8108 136.933 44.955C137.17 45.0992 137.354 45.3029 137.484 45.5675C137.615 45.8307 137.681 46.1324 137.681 46.4723C137.681 46.8123 137.616 47.114 137.484 47.3772C137.354 47.6405 137.17 47.8442 136.933 47.9897C136.696 48.1339 136.427 48.2067 136.124 48.2067C135.82 48.2067 135.551 48.1339 135.318 47.9897ZM136.599 47.5002C136.733 47.4063 136.836 47.2714 136.908 47.0954C136.98 46.9195 137.016 46.7105 137.016 46.4697C137.016 46.2289 136.98 46.0252 136.908 45.8506C136.836 45.676 136.733 45.5424 136.599 45.4484C136.464 45.3545 136.306 45.3082 136.125 45.3082C135.944 45.3082 135.791 45.3545 135.658 45.4484C135.524 45.5424 135.422 45.676 135.349 45.8506C135.276 46.0252 135.238 46.2316 135.238 46.4697C135.238 46.7078 135.276 46.9195 135.349 47.0954C135.422 47.2714 135.526 47.4063 135.658 47.5002C135.791 47.5942 135.947 47.6405 136.125 47.6405C136.303 47.6405 136.466 47.5942 136.599 47.5002Z" fill="white"/>
<path d="M155.766 47.9897C155.533 47.8455 155.351 47.6418 155.22 47.3772C155.09 47.114 155.023 46.8123 155.023 46.4723C155.023 46.1324 155.089 45.8307 155.22 45.5675C155.351 45.3042 155.533 45.1005 155.766 44.955C155.999 44.8108 156.268 44.738 156.572 44.738C156.875 44.738 157.146 44.8108 157.381 44.955C157.618 45.0992 157.802 45.3029 157.933 45.5675C158.063 45.8307 158.13 46.1324 158.13 46.4723C158.13 46.8123 158.064 47.114 157.933 47.3772C157.801 47.6405 157.618 47.8442 157.381 47.9897C157.144 48.1352 156.875 48.2067 156.572 48.2067C156.268 48.2067 155.999 48.1339 155.766 47.9897ZM157.046 47.5002C157.18 47.4063 157.283 47.2714 157.355 47.0954C157.427 46.9195 157.463 46.7105 157.463 46.4697C157.463 46.2289 157.427 46.0252 157.355 45.8506C157.283 45.676 157.18 45.5424 157.046 45.4484C156.911 45.3545 156.753 45.3082 156.572 45.3082C156.391 45.3082 156.238 45.3545 156.105 45.4484C155.971 45.5424 155.869 45.676 155.796 45.8506C155.722 46.0252 155.685 46.2316 155.685 46.4697C155.685 46.7078 155.722 46.9195 155.796 47.0954C155.869 47.2714 155.973 47.4063 156.105 47.5002C156.238 47.5942 156.393 47.6405 156.572 47.6405C156.75 47.6405 156.913 47.5942 157.046 47.5002Z" fill="white"/>
<path d="M167.647 44.521H168.175V48.7119H167.647V44.521Z" fill="white"/>
<path d="M174.113 44.521H174.641V48.7119H174.113V44.521Z" fill="white"/>
<path d="M124.438 50.2361H124.966V54.427H124.438V50.2361Z" fill="white"/>
<path d="M130.066 50.2598H130.656L132.607 54.4031H132.008L130.066 50.2598Z" fill="white"/>
<path d="M132.98 54.1267H135.344V54.6268H132.98V54.1267Z" fill="white"/>
<path d="M135.956 54.1267H138.319V54.6268H135.956V54.1267Z" fill="white"/>
<path d="M138.934 54.1267H141.297V54.6268H138.934V54.1267Z" fill="white"/>
<path d="M141.909 54.1267H144.272V54.6268H141.909V54.1267Z" fill="white"/>
<path d="M144.886 54.1267H147.249V54.6268H144.886V54.1267Z" fill="white"/>
<path d="M147.863 54.1267H150.226V54.6268H147.863V54.1267Z" fill="white"/>
<path d="M150.839 54.1267H153.202V54.6268H150.839V54.1267Z" fill="white"/>
<path d="M153.815 54.1267H156.179V54.6268H153.815V54.1267Z" fill="white"/>
<path d="M156.791 54.1267H159.154V54.6268H156.791V54.1267Z" fill="white"/>
<path d="M159.768 54.1267H162.131V54.6268H159.768V54.1267Z" fill="white"/>
<path d="M166.579 50.2598H167.169L165.223 54.4031H164.629L166.579 50.2598Z" fill="white"/>
<path d="M174.473 50.2361H175V54.427H174.473V50.2361Z" fill="white"/>
<path d="M124.438 55.9509H124.966V60.1419H124.438V55.9509Z" fill="white"/>
<path d="M145.619 55.9747H146.937V56.4219H146.18V59.6696H146.937V60.1167H145.619V55.9734V55.9747Z" fill="white"/>
<path d="M148.993 60.1181H147.675V59.6709H148.432V56.4232H147.675V55.9761H148.993V60.1194V60.1181Z" fill="white"/>
<path d="M173.897 55.9509H174.425V60.1419H173.897V55.9509Z" fill="white"/>
<path d="M125.724 61.6897H126.313L128.264 65.833H127.665L125.724 61.6897Z" fill="white"/>
<path d="M128.638 65.5564H131.001V66.0565H128.638V65.5564Z" fill="white"/>
<path d="M131.614 65.5564H133.977V66.0565H131.614V65.5564Z" fill="white"/>
<path d="M134.59 65.5564H136.953V66.0565H134.59V65.5564Z" fill="white"/>
<path d="M137.567 65.5564H139.931V66.0565H137.567V65.5564Z" fill="white"/>
<path d="M140.543 65.5564H142.906V66.0565H140.543V65.5564Z" fill="white"/>
<path d="M143.52 65.5564H145.883V66.0565H143.52V65.5564Z" fill="white"/>
<path d="M146.497 65.5564H148.86V66.0565H146.497V65.5564Z" fill="white"/>
<path d="M149.473 65.5564H151.836V66.0565H149.473V65.5564Z" fill="white"/>
<path d="M152.449 65.5564H154.812V66.0565H152.449V65.5564Z" fill="white"/>
<path d="M155.425 65.5564H157.788V66.0565H155.425V65.5564Z" fill="white"/>
<path d="M158.402 65.5564H160.766V66.0565H158.402V65.5564Z" fill="white"/>
<path d="M161.379 65.5564H163.742V66.0565H161.379V65.5564Z" fill="white"/>
<path d="M164.354 65.5564H166.718V66.0565H164.354V65.5564Z" fill="white"/>
<path d="M167.332 65.5564H169.695V66.0565H167.332V65.5564Z" fill="white"/>
<path d="M172.02 61.6897H172.61L170.663 65.833H170.069L172.02 61.6897Z" fill="white"/>
<path d="M134.515 71.2712H136.878V71.7713H134.515V71.2712Z" fill="white"/>
<path d="M137.49 71.2712H139.853V71.7713H137.49V71.2712Z" fill="white"/>
<path d="M140.467 71.2712H142.83V71.7713H140.467V71.2712Z" fill="white"/>
<path d="M143.442 71.2712H145.806V71.7713H143.442V71.2712Z" fill="white"/>
<path d="M146.42 71.2712H148.783V71.7713H146.42V71.2712Z" fill="white"/>
<path d="M149.396 71.2712H151.76V71.7713H149.396V71.2712Z" fill="white"/>
<path d="M152.372 71.2712H154.735V71.7713H152.372V71.2712Z" fill="white"/>
<path d="M155.35 71.2712H157.713V71.7713H155.35V71.2712Z" fill="white"/>
<path d="M158.325 71.2712H160.688V71.7713H158.325V71.2712Z" fill="white"/>
<path d="M134.102 73.1194H134.692L132.745 77.2627H132.151L134.102 73.1194Z" fill="white"/>
<path d="M162.39 73.1194H162.979L164.93 77.2627H164.331L162.39 73.1194Z" fill="white"/>
<path d="M131.978 78.8342H132.568L130.621 82.9775H130.027L131.978 78.8342Z" fill="white"/>
<path d="M164.513 78.8342H165.103L167.053 82.9775H166.454L164.513 78.8342Z" fill="white"/>
<path d="M129.855 84.5493H130.445L128.498 88.6926H127.904L129.855 84.5493Z" fill="white"/>
<path d="M166.637 84.5493H167.227L169.177 88.6926H168.578L166.637 84.5493Z" fill="white"/>
<path d="M127.733 90.2642H128.323L126.376 94.4075H125.782L127.733 90.2642Z" fill="white"/>
<path d="M170.883 90.2642H171.473L173.423 94.4075H172.824L170.883 90.2642Z" fill="white"/>
<path d="M49.293 8.40747H51.6562V8.90752H49.293V8.40747Z" fill="#FF943F"/>
<path d="M52.2705 8.40747H54.6337V8.90752H52.2705V8.40747Z" fill="#FF943F"/>
<path d="M55.2471 8.40747H57.6103V8.90752H55.2471V8.40747Z" fill="#FF943F"/>
<path d="M58.2227 8.40747H60.5859V8.90752H58.2227V8.40747Z" fill="#FF943F"/>
<path d="M61.2002 8.40747H63.5634V8.90752H61.2002V8.40747Z" fill="#FF943F"/>
<path d="M64.1758 8.40747H66.539V8.90752H64.1758V8.40747Z" fill="#FF943F"/>
<path d="M67.1523 8.40747H69.5155V8.90752H67.1523V8.40747Z" fill="#FF943F"/>
<path d="M70.1289 8.40747H72.4921V8.90752H70.1289V8.40747Z" fill="#FF943F"/>
<path d="M73.1055 8.40747H75.4687V8.90752H73.1055V8.40747Z" fill="#FF943F"/>
<path d="M76.082 8.40747H78.4452V8.90752H76.082V8.40747Z" fill="#FF943F"/>
<path d="M46.7581 10.2556H47.3479L45.4014 14.3989H44.8076L46.7581 10.2556Z" fill="#FF943F"/>
<path d="M79.293 10.2556H79.8828L81.8332 14.3989H81.2341L79.293 10.2556Z" fill="#FF943F"/>
<path d="M43.4658 15.9465H43.993V20.1375H43.4658V15.9465Z" fill="#FF943F"/>
<path d="M49.3701 17.1465H51.8625V17.6373H49.3701V17.1465ZM49.3701 18.2604H51.8625V18.7512H49.3701V18.2604Z" fill="#FF943F"/>
<path d="M52.4434 17.1465H54.9357V17.6373H52.4434V17.1465ZM52.4434 18.2604H54.9357V18.7512H52.4434V18.2604Z" fill="#FF943F"/>
<path d="M55.5146 17.1465H58.007V17.6373H55.5146V17.1465ZM55.5146 18.2604H58.007V18.7512H55.5146V18.2604Z" fill="#FF943F"/>
<path d="M58.5879 17.1465H61.0802V17.6373H58.5879V17.1465ZM58.5879 18.2604H61.0802V18.7512H58.5879V18.2604Z" fill="#FF943F"/>
<path d="M61.6592 17.1465H64.1515V17.6373H61.6592V17.1465ZM61.6592 18.2604H64.1515V18.7512H61.6592V18.2604Z" fill="#FF943F"/>
<path d="M64.7324 17.1465H67.2248V17.6373H64.7324V17.1465ZM64.7324 18.2604H67.2248V18.7512H64.7324V18.2604Z" fill="#FF943F"/>
<path d="M67.8047 17.1465H70.297V17.6373H67.8047V17.1465ZM67.8047 18.2604H70.297V18.7512H67.8047V18.2604Z" fill="#FF943F"/>
<path d="M70.876 17.1465H73.3683V17.6373H70.876V17.1465ZM70.876 18.2604H73.3683V18.7512H70.876V18.2604Z" fill="#FF943F"/>
<path d="M73.9492 17.1465H76.4416V17.6373H73.9492V17.1465ZM73.9492 18.2604H76.4416V18.7512H73.9492V18.2604Z" fill="#FF943F"/>
<path d="M81.8281 15.9465H82.3554V20.1375H81.8281V15.9465Z" fill="#FF943F"/>
<path d="M43.4658 21.6616H43.993V25.8525H43.4658V21.6616Z" fill="#FF943F"/>
<path d="M49.3701 22.8613H51.8625V23.3521H49.3701V22.8613ZM49.3701 23.9752H51.8625V24.466H49.3701V23.9752Z" fill="#FF943F"/>
<path d="M52.4434 22.8613H54.9357V23.3521H52.4434V22.8613ZM52.4434 23.9752H54.9357V24.466H52.4434V23.9752Z" fill="#FF943F"/>
<path d="M55.5146 22.8613H58.007V23.3521H55.5146V22.8613ZM55.5146 23.9752H58.007V24.466H55.5146V23.9752Z" fill="#FF943F"/>
<path d="M58.5879 22.8613H61.0802V23.3521H58.5879V22.8613ZM58.5879 23.9752H61.0802V24.466H58.5879V23.9752Z" fill="#FF943F"/>
<path d="M61.6592 22.8613H64.1515V23.3521H61.6592V22.8613ZM61.6592 23.9752H64.1515V24.466H61.6592V23.9752Z" fill="#FF943F"/>
<path d="M64.7324 22.8613H67.2248V23.3521H64.7324V22.8613ZM64.7324 23.9752H67.2248V24.466H64.7324V23.9752Z" fill="#FF943F"/>
<path d="M67.8047 22.8613H70.297V23.3521H67.8047V22.8613ZM67.8047 23.9752H70.297V24.466H67.8047V23.9752Z" fill="#FF943F"/>
<path d="M70.876 22.8613H73.3683V23.3521H70.876V22.8613ZM70.876 23.9752H73.3683V24.466H70.876V23.9752Z" fill="#FF943F"/>
<path d="M73.9492 22.8613H76.4416V23.3521H73.9492V22.8613ZM73.9492 23.9752H76.4416V24.466H73.9492V23.9752Z" fill="#FF943F"/>
<path d="M81.8281 21.6616H82.3554V25.8525H81.8281V21.6616Z" fill="#FF943F"/>
<path d="M44.751 27.4001H45.3408L47.2912 31.5434H46.6921L44.751 27.4001Z" fill="#FF943F"/>
<path d="M49.7109 31.2671H52.0741V31.7671H49.7109V31.2671Z" fill="#FF943F"/>
<path d="M52.6865 31.2671H55.0497V31.7671H52.6865V31.2671Z" fill="#FF943F"/>
<path d="M55.6641 31.2671H58.0273V31.7671H55.6641V31.2671Z" fill="#FF943F"/>
<path d="M58.6396 31.2671H61.0028V31.7671H58.6396V31.2671Z" fill="#FF943F"/>
<path d="M61.6162 31.2671H63.9794V31.7671H61.6162V31.2671Z" fill="#FF943F"/>
<path d="M64.5938 31.2671H66.957V31.7671H64.5938V31.2671Z" fill="#FF943F"/>
<path d="M67.5693 31.2671H69.9325V31.7671H67.5693V31.2671Z" fill="#FF943F"/>
<path d="M70.5459 31.2671H72.9091V31.7671H70.5459V31.2671Z" fill="#FF943F"/>
<path d="M73.5215 31.2671H75.8847V31.7671H73.5215V31.2671Z" fill="#FF943F"/>
<path d="M80.3333 27.4001H80.9231L78.9766 31.5434H78.3828L80.3333 27.4001Z" fill="#FF943F"/>
<path d="M59.4983 33.1152H60.0881L58.1416 37.2585H57.5479L59.4983 33.1152Z" fill="#FF943F"/>
<path d="M57.3743 38.8301H57.9641L56.0176 42.9734H55.4238L57.3743 38.8301Z" fill="#FF943F"/>
<path d="M89.125 38.678H91.4882V39.178H89.125V38.678Z" fill="#FF943F"/>
<path d="M92.1006 38.678H94.4638V39.178H92.1006V38.678Z" fill="#FF943F"/>
<path d="M95.0771 38.678H97.4403V39.178H95.0771V38.678Z" fill="#FF943F"/>
<path d="M98.0527 38.678H100.416V39.178H98.0527V38.678Z" fill="#FF943F"/>
<path d="M101.03 38.678H103.393V39.178H101.03V38.678Z" fill="#FF943F"/>
<path d="M104.007 38.678H106.37V39.178H104.007V38.678Z" fill="#FF943F"/>
<path d="M106.982 38.678H109.346V39.178H106.982V38.678Z" fill="#FF943F"/>
<path d="M86.5882 40.5247H87.178L85.2315 44.668H84.6377L86.5882 40.5247Z" fill="#FF943F"/>
<path d="M110.631 40.5247H111.221L113.171 44.668H112.572L110.631 40.5247Z" fill="#FF943F"/>
<path d="M83.2959 46.2158H83.8231V50.4068H83.2959V46.2158Z" fill="#FF943F"/>
<path d="M89.2002 47.417H91.6925V47.9078H89.2002V47.417ZM89.2002 48.5309H91.6925V49.0217H89.2002V48.5309Z" fill="#FF943F"/>
<path d="M92.2734 47.417H94.7658V47.9078H92.2734V47.417ZM92.2734 48.5309H94.7658V49.0217H92.2734V48.5309Z" fill="#FF943F"/>
<path d="M95.3447 47.417H97.8371V47.9078H95.3447V47.417ZM95.3447 48.5309H97.8371V49.0217H95.3447V48.5309Z" fill="#FF943F"/>
<path d="M98.418 47.417H100.91V47.9078H98.418V47.417ZM98.418 48.5309H100.91V49.0217H98.418V48.5309Z" fill="#FF943F"/>
<path d="M101.49 47.417H103.983V47.9078H101.49V47.417ZM101.49 48.5309H103.983V49.0217H101.49V48.5309Z" fill="#FF943F"/>
<path d="M104.562 47.417H107.055V47.9078H104.562V47.417ZM104.562 48.5309H107.055V49.0217H104.562V48.5309Z" fill="#FF943F"/>
<path d="M112.442 46.2158H112.97V50.4068H112.442V46.2158Z" fill="#FF943F"/>
<path d="M84.5811 51.9546H85.1709L87.1213 56.0979H86.5222L84.5811 51.9546Z" fill="#FF943F"/>
<path d="M89.541 55.8228H91.9042V56.3228H89.541V55.8228Z" fill="#FF943F"/>
<path d="M92.5166 55.8228H94.8798V56.3228H92.5166V55.8228Z" fill="#FF943F"/>
<path d="M95.4941 55.8228H97.8573V56.3228H95.4941V55.8228Z" fill="#FF943F"/>
<path d="M98.4707 55.8228H100.834V56.3228H98.4707V55.8228Z" fill="#FF943F"/>
<path d="M101.446 55.8228H103.809V56.3228H101.446V55.8228Z" fill="#FF943F"/>
<path d="M104.424 55.8228H106.787V56.3228H104.424V55.8228Z" fill="#FF943F"/>
<path d="M111.234 51.9546H111.823L109.877 56.0979H109.283L111.234 51.9546Z" fill="#FF943F"/>
<path d="M112.446 53.9653H114.013V54.4892H112.446V53.9653Z" fill="#FF943F"/>
<path d="M115.083 53.9653H116.65V54.4892H115.083V53.9653Z" fill="#FF943F"/>
<path d="M117.719 53.9653H119.286V54.4892H117.719V53.9653Z" fill="#FF943F"/>
<path d="M5.2207 48.0254H7.5839V48.5254H5.2207V48.0254Z" fill="white"/>
<path d="M8.19629 48.0254H10.5595V48.5254H8.19629V48.0254Z" fill="white"/>
<path d="M11.1738 48.0254H13.537V48.5254H11.1738V48.0254Z" fill="white"/>
<path d="M14.1494 48.0254H16.5126V48.5254H14.1494V48.0254Z" fill="white"/>
<path d="M17.126 48.0254H19.4892V48.5254H17.126V48.0254Z" fill="white"/>
<path d="M20.1035 48.0254H22.4667V48.5254H20.1035V48.0254Z" fill="white"/>
<path d="M23.0791 48.0254H25.4423V48.5254H23.0791V48.0254Z" fill="white"/>
<path d="M26.0557 48.0254H28.4189V48.5254H26.0557V48.0254Z" fill="white"/>
<path d="M29.0312 48.0254H31.3945V48.5254H29.0312V48.0254Z" fill="white"/>
<path d="M32.0088 48.0254H34.372V48.5254H32.0088V48.0254Z" fill="white"/>
<path d="M34.9854 48.0254H37.3486V48.5254H34.9854V48.0254Z" fill="white"/>
<path d="M37.9609 48.0254H40.3241V48.5254H37.9609V48.0254Z" fill="white"/>
<path d="M40.9375 48.0254H43.3007V48.5254H40.9375V48.0254Z" fill="white"/>
<path d="M43.9141 48.0254H46.2773V48.5254H43.9141V48.0254Z" fill="white"/>
<path d="M46.8906 48.0254H49.2538V48.5254H46.8906V48.0254Z" fill="white"/>
<path d="M49.8672 48.0254H52.2304V48.5254H49.8672V48.0254Z" fill="white"/>
<path d="M52.8428 48.0254H55.206V48.5254H52.8428V48.0254Z" fill="white"/>
<path d="M55.8203 48.0254H58.1835V48.5254H55.8203V48.0254Z" fill="white"/>
<path d="M58.7959 48.0254H61.1591V48.5254H58.7959V48.0254Z" fill="white"/>
<path d="M61.7725 48.0254H64.1357V48.5254H61.7725V48.0254Z" fill="white"/>
<path d="M5 49.8735H5.5898L7.54027 54.0168H6.94115L5 49.8735Z" fill="white"/>
<path d="M12.3145 51.8831H13.8815V52.4069H12.3145V51.8831Z" fill="white"/>
<path d="M14.9512 51.8831H16.5182V52.4069H14.9512V51.8831Z" fill="white"/>
<path d="M17.5869 51.8831H19.1539V52.4069H17.5869V51.8831Z" fill="white"/>
<path d="M20.2227 51.8831H21.7897V52.4069H20.2227V51.8831Z" fill="white"/>
<path d="M22.8594 51.8831H24.4264V52.4069H22.8594V51.8831Z" fill="white"/>
<path d="M25.4951 51.8831H27.0622V52.4069H25.4951V51.8831Z" fill="white"/>
<path d="M28.1318 51.8831H29.6989V52.4069H28.1318V51.8831Z" fill="white"/>
<path d="M30.7676 51.8831H32.3346V52.4069H30.7676V51.8831Z" fill="white"/>
<path d="M33.4033 51.8831H34.9704V52.4069H33.4033V51.8831Z" fill="white"/>
<path d="M36.04 51.8831H37.6071V52.4069H36.04V51.8831Z" fill="white"/>
<path d="M38.6758 51.8831H40.2428V52.4069H38.6758V51.8831Z" fill="white"/>
<path d="M41.3125 51.8831H42.8795V52.4069H41.3125V51.8831Z" fill="white"/>
<path d="M43.9482 51.8831H45.5153V52.4069H43.9482V51.8831Z" fill="white"/>
<path d="M46.584 51.8831H48.151V52.4069H46.584V51.8831Z" fill="white"/>
<path d="M49.2207 51.8831H50.7877V52.4069H49.2207V51.8831Z" fill="white"/>
<path d="M51.8564 51.8831H53.4235V52.4069H51.8564V51.8831Z" fill="white"/>
<path d="M54.4932 51.8831H56.0602V52.4069H54.4932V51.8831Z" fill="white"/>
<path d="M57.1289 51.8831H58.6959V52.4069H57.1289V51.8831Z" fill="white"/>
<path d="M59.7646 51.8831H61.3317V52.4069H59.7646V51.8831Z" fill="white"/>
<path d="M63.9961 49.8735H64.5859L66.5364 54.0168H65.9372L63.9961 49.8735Z" fill="white"/>
<path d="M7.88477 55.5645H8.41199V59.7554H7.88477V55.5645Z" fill="white"/>
<path d="M12.2285 55.5645H12.7557V59.7554H12.2285V55.5645Z" fill="white"/>
<path d="M65.4062 55.5645H65.9335V59.7554H65.4062V55.5645Z" fill="white"/>
<path d="M69.748 55.5645H70.2753V59.7554H69.748V55.5645Z" fill="white"/>
<path d="M9.16992 61.3032H9.75972L11.7102 65.4465H11.1111L9.16992 61.3032Z" fill="white"/>
<path d="M13.834 61.3032H14.4238L16.3743 65.4465H15.7751L13.834 61.3032Z" fill="white"/>
<path d="M27.9011 64.748C27.6681 64.6038 27.4857 64.4001 27.3552 64.1355C27.2248 63.8709 27.1582 63.5706 27.1582 63.2307C27.1582 62.8907 27.2234 62.589 27.3552 62.3258C27.4857 62.0625 27.6681 61.8588 27.9011 61.7133C28.1341 61.5691 28.403 61.4963 28.7066 61.4963C29.0102 61.4963 29.2804 61.5691 29.5161 61.7133C29.7531 61.8575 29.9368 62.0612 30.0673 62.3258C30.1977 62.589 30.2643 62.8907 30.2643 63.2307C30.2643 63.5706 30.1991 63.8723 30.0673 64.1355C29.9368 64.3988 29.7531 64.6025 29.5161 64.748C29.2791 64.8922 29.0102 64.965 28.7066 64.965C28.403 64.965 28.1341 64.8922 27.9011 64.748ZM29.1806 64.2572C29.315 64.1633 29.4176 64.0284 29.4895 63.8524C29.5613 63.6765 29.5973 63.4675 29.5973 63.2267C29.5973 62.9859 29.5613 62.7822 29.4895 62.6076C29.4176 62.4329 29.315 62.2993 29.1806 62.2054C29.0461 62.1115 28.8877 62.0652 28.7066 62.0652C28.5255 62.0652 28.3724 62.1115 28.2393 62.2054C28.1061 62.2993 28.0036 62.4329 27.9304 62.6076C27.8572 62.7822 27.8199 62.9886 27.8199 63.2267C27.8199 63.4648 27.8572 63.6765 27.9304 63.8524C28.0036 64.0284 28.1075 64.1633 28.2393 64.2572C28.3724 64.3511 28.5282 64.3974 28.7066 64.3974C28.885 64.3974 29.0474 64.3511 29.1806 64.2572Z" fill="white"/>
<path d="M32.8711 65.1702H35.2343V65.6702H32.8711V65.1702Z" fill="white"/>
<path d="M35.8477 65.1702H38.2109V65.6702H35.8477V65.1702Z" fill="white"/>
<path d="M38.8232 65.1702H41.1864V65.6702H38.8232V65.1702Z" fill="white"/>
<path d="M41.8008 65.1702H44.164V65.6702H41.8008V65.1702Z" fill="white"/>
<path d="M44.7764 65.1702H47.1396V65.6702H44.7764V65.1702Z" fill="white"/>
<path d="M47.7529 65.1702H50.1161V65.6702H47.7529V65.1702Z" fill="white"/>
<path d="M50.7305 65.1702H53.0937V65.6702H50.7305V65.1702Z" fill="white"/>
<path d="M53.7061 65.1702H56.0693V65.6702H53.7061V65.1702Z" fill="white"/>
<path d="M57.1619 64.748C56.9289 64.6038 56.7465 64.4001 56.616 64.1355C56.4855 63.8709 56.4189 63.5706 56.4189 63.2307C56.4189 62.8907 56.4842 62.589 56.616 62.3258C56.7465 62.0625 56.9289 61.8588 57.1619 61.7133C57.3948 61.5691 57.6638 61.4963 57.9673 61.4963C58.2709 61.4963 58.5412 61.5691 58.7768 61.7133C59.0138 61.8575 59.1975 62.0612 59.328 62.3258C59.4585 62.589 59.5251 62.8907 59.5251 63.2307C59.5251 63.5706 59.4598 63.8723 59.328 64.1355C59.1975 64.3988 59.0125 64.6025 58.7768 64.748C58.5398 64.8922 58.2709 64.965 57.9673 64.965C57.6638 64.965 57.3948 64.8922 57.1619 64.748ZM58.4413 64.2572C58.5758 64.1633 58.6783 64.0284 58.7502 63.8524C58.8221 63.6765 58.858 63.4675 58.858 63.2267C58.858 62.9859 58.8221 62.7822 58.7502 62.6076C58.6783 62.4329 58.5758 62.2993 58.4413 62.2054C58.3068 62.1115 58.1484 62.0652 57.9673 62.0652C57.7863 62.0652 57.6332 62.1115 57.5 62.2054C57.3669 62.2993 57.2644 62.4329 57.1911 62.6076C57.1179 62.7822 57.0806 62.9886 57.0806 63.2267C57.0806 63.4648 57.1179 63.6765 57.1911 63.8524C57.2644 64.0284 57.3682 64.1633 57.5 64.2572C57.6318 64.3511 57.7889 64.3974 57.9673 64.3974C58.1457 64.3974 58.3082 64.3511 58.4413 64.2572Z" fill="white"/>
<path d="M66.0811 61.3032H66.6709L68.6213 65.4465H68.0222L66.0811 61.3032Z" fill="white"/>
<path d="M70.7451 61.3032H71.3349L73.2854 65.4465H72.6863L70.7451 61.3032Z" fill="white"/>
<path d="M12.1318 66.9944H12.6591V71.1853H12.1318V66.9944Z" fill="white"/>
<path d="M16.4736 66.9944H17.0009V71.1853H16.4736V66.9944Z" fill="white"/>
<path d="M32.7178 67.0181H33.3076L35.258 71.1614H34.6589L32.7178 67.0181Z" fill="white"/>
<path d="M35.6328 70.885H37.996V71.3851H35.6328V70.885Z" fill="white"/>
<path d="M39.1504 66.9944H39.6776V71.1853H39.1504V66.9944Z" fill="white"/>
<path d="M40.8271 70.885H43.1903V71.3851H40.8271V70.885Z" fill="white"/>
<path d="M44.3447 66.9944H44.872V71.1853H44.3447V66.9944Z" fill="white"/>
<path d="M46.0225 70.885H48.3857V71.3851H46.0225V70.885Z" fill="white"/>
<path d="M49.541 66.9944H50.0682V71.1853H49.541V66.9944Z" fill="white"/>
<path d="M51.2188 70.885H53.582V71.3851H51.2188V70.885Z" fill="white"/>
<path d="M54.7363 66.9944H55.2636V71.1853H54.7363V66.9944Z" fill="white"/>
<path d="M69.6953 66.9944H70.2225V71.1853H69.6953V66.9944Z" fill="white"/>
<path d="M74.0371 66.9944H74.5643V71.1853H74.0371V66.9944Z" fill="white"/>
<path d="M13.417 72.7332H14.0068L15.9573 76.8765H15.3581L13.417 72.7332Z" fill="white"/>
<path d="M18.0791 72.7332H18.6689L20.6194 76.8765H20.0203L18.0791 72.7332Z" fill="white"/>
<path d="M71.5801 72.7332H72.1699L74.1204 76.8765H73.5212L71.5801 72.7332Z" fill="white"/>
<path d="M76.2422 72.7332H76.832L78.7825 76.8765H78.1833L76.2422 72.7332Z" fill="white"/>
<path d="M16.3779 78.4241H16.9052V82.615H16.3779V78.4241Z" fill="white"/>
<path d="M20.7207 78.4241H21.2479V82.615H20.7207V78.4241Z" fill="white"/>
<path d="M22.3984 82.3147H24.7616V82.8148H22.3984V82.3147Z" fill="white"/>
<path d="M25.375 82.3147H27.7382V82.8148H25.375V82.3147Z" fill="white"/>
<path d="M28.3516 82.3147H30.7148V82.8148H28.3516V82.3147Z" fill="white"/>
<path d="M31.3281 82.3147H33.6913V82.8148H31.3281V82.3147Z" fill="white"/>
<path d="M34.3037 82.3147H36.6669V82.8148H34.3037V82.3147Z" fill="white"/>
<path d="M37.2803 82.3147H39.6435V82.8148H37.2803V82.3147Z" fill="white"/>
<path d="M40.2578 82.3147H42.621V82.8148H40.2578V82.3147Z" fill="white"/>
<path d="M43.2334 82.3147H45.5966V82.8148H43.2334V82.3147Z" fill="white"/>
<path d="M46.21 82.3147H48.5732V82.8148H46.21V82.3147Z" fill="white"/>
<path d="M49.1855 82.3147H51.5487V82.8148H49.1855V82.3147Z" fill="white"/>
<path d="M52.1631 82.3147H54.5263V82.8148H52.1631V82.3147Z" fill="white"/>
<path d="M55.1396 82.3147H57.5028V82.8148H55.1396V82.3147Z" fill="white"/>
<path d="M58.1152 82.3147H60.4784V82.8148H58.1152V82.3147Z" fill="white"/>
<path d="M61.0928 82.3147H63.456V82.8148H61.0928V82.3147Z" fill="white"/>
<path d="M64.0684 82.3147H66.4316V82.8148H64.0684V82.3147Z" fill="white"/>
<path d="M67.0449 82.3147H69.4081V82.8148H67.0449V82.3147Z" fill="white"/>
<path d="M70.0215 82.3147H72.3847V82.8148H70.0215V82.3147Z" fill="white"/>
<path d="M72.998 82.3147H75.3612V82.8148H72.998V82.3147Z" fill="white"/>
<path d="M76.5166 78.4241H77.0438V82.615H76.5166V78.4241Z" fill="white"/>
<path d="M80.8584 78.4241H81.3856V82.615H80.8584V78.4241Z" fill="white"/>
<path d="M17.6631 84.1628H18.2529L20.2034 88.3061H19.6042L17.6631 84.1628Z" fill="white"/>
<path d="M20.5771 88.0298H22.9403V88.5298H20.5771V88.0298Z" fill="white"/>
<path d="M23.5537 88.0298H25.9169V88.5298H23.5537V88.0298Z" fill="white"/>
<path d="M26.5293 88.0298H28.8925V88.5298H26.5293V88.0298Z" fill="white"/>
<path d="M29.5068 88.0298H31.87V88.5298H29.5068V88.0298Z" fill="white"/>
<path d="M32.4824 88.0298H34.8456V88.5298H32.4824V88.0298Z" fill="white"/>
<path d="M35.459 88.0298H37.8222V88.5298H35.459V88.0298Z" fill="white"/>
<path d="M38.4365 88.0298H40.7997V88.5298H38.4365V88.0298Z" fill="white"/>
<path d="M41.4121 88.0298H43.7753V88.5298H41.4121V88.0298Z" fill="white"/>
<path d="M44.3887 88.0298H46.7519V88.5298H44.3887V88.0298Z" fill="white"/>
<path d="M47.3643 88.0298H49.7275V88.5298H47.3643V88.0298Z" fill="white"/>
<path d="M50.3418 88.0298H52.705V88.5298H50.3418V88.0298Z" fill="white"/>
<path d="M53.3184 88.0298H55.6816V88.5298H53.3184V88.0298Z" fill="white"/>
<path d="M56.2939 88.0298H58.6571V88.5298H56.2939V88.0298Z" fill="white"/>
<path d="M59.2715 88.0298H61.6347V88.5298H59.2715V88.0298Z" fill="white"/>
<path d="M62.2471 88.0298H64.6103V88.5298H62.2471V88.0298Z" fill="white"/>
<path d="M65.2236 88.0298H67.5868V88.5298H65.2236V88.0298Z" fill="white"/>
<path d="M68.2002 88.0298H70.5634V88.5298H68.2002V88.0298Z" fill="white"/>
<path d="M71.1758 88.0298H73.539V88.5298H71.1758V88.0298Z" fill="white"/>
<path d="M78.1025 84.1628H78.6923L80.6428 88.3061H80.0437L78.1025 84.1628Z" fill="white"/>
<path d="M82.7656 84.1628H83.3554L85.3059 88.3061H84.7068L82.7656 84.1628Z" fill="white"/>
<path d="M85.6807 88.0298H88.0439V88.5298H85.6807V88.0298Z" fill="white"/>
<path d="M88.6562 88.0298H91.0195V88.5298H88.6562V88.0298Z" fill="white"/>
<path d="M91.6328 88.0298H93.996V88.5298H91.6328V88.0298Z" fill="white"/>
<path d="M94.6104 88.0298H96.9736V88.5298H94.6104V88.0298Z" fill="white"/>
<path d="M97.5859 88.0298H99.9491V88.5298H97.5859V88.0298Z" fill="white"/>
<path d="M100.562 88.0298H102.926V88.5298H100.562V88.0298Z" fill="white"/>
<path d="M103.538 88.0298H105.901V88.5298H103.538V88.0298Z" fill="white"/>
<path d="M106.515 88.0298H108.878V88.5298H106.515V88.0298Z" fill="white"/>
<path d="M109.492 88.0298H111.855V88.5298H109.492V88.0298Z" fill="white"/>
<path d="M112.468 88.0298H114.831V88.5298H112.468V88.0298Z" fill="white"/>
<path d="M115.444 88.0298H117.808V88.5298H115.444V88.0298Z" fill="white"/>
<path d="M20.625 89.854H21.1522V94.0449H20.625V89.854Z" fill="white"/>
<path d="M22.3027 93.7446H24.6659V94.2447H22.3027V93.7446Z" fill="white"/>
<path d="M25.2793 93.7446H27.6425V94.2447H25.2793V93.7446Z" fill="white"/>
<path d="M28.2549 93.7446H30.6181V94.2447H28.2549V93.7446Z" fill="white"/>
<path d="M31.2324 93.7446H33.5956V94.2447H31.2324V93.7446Z" fill="white"/>
<path d="M34.208 93.7446H36.5712V94.2447H34.208V93.7446Z" fill="white"/>
<path d="M37.1846 93.7446H39.5478V94.2447H37.1846V93.7446Z" fill="white"/>
<path d="M40.1621 93.7446H42.5253V94.2447H40.1621V93.7446Z" fill="white"/>
<path d="M43.1377 93.7446H45.5009V94.2447H43.1377V93.7446Z" fill="white"/>
<path d="M46.1143 93.7446H48.4775V94.2447H46.1143V93.7446Z" fill="white"/>
<path d="M49.0898 93.7446H51.453V94.2447H49.0898V93.7446Z" fill="white"/>
<path d="M52.0674 93.7446H54.4306V94.2447H52.0674V93.7446Z" fill="white"/>
<path d="M55.0439 93.7446H57.4071V94.2447H55.0439V93.7446Z" fill="white"/>
<path d="M58.5615 89.854H59.0888V94.0449H58.5615V89.854Z" fill="white"/>
<path d="M60.2393 93.7446H62.6025V94.2447H60.2393V93.7446Z" fill="white"/>
<path d="M63.2158 93.7446H65.579V94.2447H63.2158V93.7446Z" fill="white"/>
<path d="M66.1914 93.7446H68.5546V94.2447H66.1914V93.7446Z" fill="white"/>
<path d="M69.1689 93.7446H71.5321V94.2447H69.1689V93.7446Z" fill="white"/>
<path d="M72.1445 93.7446H74.5077V94.2447H72.1445V93.7446Z" fill="white"/>
<path d="M75.1211 93.7446H77.4843V94.2447H75.1211V93.7446Z" fill="white"/>
<path d="M78.0977 93.7446H80.4609V94.2447H78.0977V93.7446Z" fill="white"/>
<path d="M81.0742 93.7446H83.4374V94.2447H81.0742V93.7446Z" fill="white"/>
<path d="M84.0508 93.7446H86.414V94.2447H84.0508V93.7446Z" fill="white"/>
<path d="M87.0264 93.7446H89.3896V94.2447H87.0264V93.7446Z" fill="white"/>
<path d="M90.0029 93.7446H92.3661V94.2447H90.0029V93.7446Z" fill="white"/>
<path d="M92.9805 93.7446H95.3437V94.2447H92.9805V93.7446Z" fill="white"/>
<path d="M95.9561 93.7446H98.3193V94.2447H95.9561V93.7446Z" fill="white"/>
<path d="M98.9326 93.7446H101.296V94.2447H98.9326V93.7446Z" fill="white"/>
<path d="M101.908 93.7446H104.271V94.2447H101.908V93.7446Z" fill="white"/>
<path d="M104.886 93.7446H107.249V94.2447H104.886V93.7446Z" fill="white"/>
<path d="M107.862 93.7446H110.226V94.2447H107.862V93.7446Z" fill="white"/>
<path d="M110.838 93.7446H113.201V94.2447H110.838V93.7446Z" fill="white"/>
<path d="M113.815 93.7446H116.179V94.2447H113.815V93.7446Z" fill="white"/>
<path d="M117.333 89.854H117.86V94.0449H117.333V89.854Z" fill="white"/>
</g>
</g>
<defs>
<clipPath id="clip0_6261_3473">
<rect y="0.407471" width="180" height="104" rx="4" fill="white"/>
</clipPath>
<clipPath id="clip1_6261_3473">
<rect width="170" height="94" fill="white" transform="translate(5 0.407471)"/>
</clipPath>
</defs>
</svg>
