<svg width="180" height="105" viewBox="0 0 180 105" fill="none" xmlns="http://www.w3.org/2000/svg">
<rect y="0.407471" width="180" height="104" rx="4" fill="#3B2E29"/>
<g clip-path="url(#clip0_6261_3465)">
<path d="M106.074 8.40747H108.642V8.95934H106.074V8.40747Z" fill="white"/>
<path d="M109.307 8.40747H111.874V8.95934H109.307V8.40747Z" fill="white"/>
<path d="M112.541 8.40747H115.108V8.95934H112.541V8.40747Z" fill="white"/>
<path d="M115.773 8.40747H118.341V8.95934H115.773V8.40747Z" fill="white"/>
<path d="M119.008 8.40747H121.575V8.95934H119.008V8.40747Z" fill="white"/>
<path d="M122.241 8.40747H124.809V8.95934H122.241V8.40747Z" fill="white"/>
<path d="M125.475 8.40747H128.042V8.95934H125.475V8.40747Z" fill="white"/>
<path d="M128.708 8.40747H131.275V8.95934H128.708V8.40747Z" fill="white"/>
<path d="M131.941 8.40747H134.509V8.95934H131.941V8.40747Z" fill="white"/>
<path d="M135.175 8.40747H137.742V8.95934H135.175V8.40747Z" fill="white"/>
<path d="M104.355 10.4209H104.928V15.0461H104.355V10.4209Z" fill="white"/>
<path d="M110.708 14.7146H113.275V15.2665H110.708V14.7146Z" fill="white"/>
<path d="M113.899 14.7146H116.467V15.2665H113.899V14.7146Z" fill="white"/>
<path d="M117.091 14.7146H119.658V15.2665H117.091V14.7146Z" fill="white"/>
<path d="M120.283 14.7146H122.851V15.2665H120.283V14.7146Z" fill="white"/>
<path d="M123.476 14.7146H126.043V15.2665H123.476V14.7146Z" fill="white"/>
<path d="M126.668 14.7146H129.235V15.2665H126.668V14.7146Z" fill="white"/>
<path d="M139.507 10.4209H140.08V15.0461H139.507V10.4209Z" fill="white"/>
<path d="M57.6338 21.0217H60.2011V21.5736H57.6338V21.0217Z" fill="white"/>
<path d="M60.8662 21.0217H63.4335V21.5736H60.8662V21.0217Z" fill="white"/>
<path d="M64.1006 21.0217H66.6679V21.5736H64.1006V21.0217Z" fill="white"/>
<path d="M67.335 21.0217H69.9023V21.5736H67.335V21.0217Z" fill="white"/>
<path d="M70.5674 21.0217H73.1347V21.5736H70.5674V21.0217Z" fill="white"/>
<path d="M73.8018 21.0217H76.3691V21.5736H73.8018V21.0217Z" fill="white"/>
<path d="M77.0342 21.0217H79.6015V21.5736H77.0342V21.0217Z" fill="white"/>
<path d="M80.2686 21.0217H82.8359V21.5736H80.2686V21.0217Z" fill="white"/>
<path d="M83.502 21.0217H86.0693V21.5736H83.502V21.0217Z" fill="white"/>
<path d="M86.7344 21.0217H89.3017V21.5736H86.7344V21.0217Z" fill="white"/>
<path d="M89.9688 21.0217H92.536V21.5736H89.9688V21.0217Z" fill="white"/>
<path d="M93.2012 21.0217H95.7685V21.5736H93.2012V21.0217Z" fill="white"/>
<path d="M96.8838 19.9121H97.7068V20.7209H96.8838V19.9121Z" fill="white"/>
<path d="M99.2637 19.9121H100.087V20.7209H99.2637V19.9121Z" fill="white"/>
<path d="M101.643 19.9121H102.466V20.7209H101.643V19.9121Z" fill="white"/>
<path d="M104.162 16.7278H104.735V21.353H104.162V16.7278Z" fill="white"/>
<path d="M110.849 18.9719H112.551V19.5501H110.849V18.9719Z" fill="white"/>
<path d="M113.713 18.9719H115.415V19.5501H113.713V18.9719Z" fill="white"/>
<path d="M116.576 18.9719H118.279V19.5501H116.576V18.9719Z" fill="white"/>
<path d="M119.44 18.9719H121.143V19.5501H119.44V18.9719Z" fill="white"/>
<path d="M122.304 18.9719H124.006V19.5501H122.304V18.9719Z" fill="white"/>
<path d="M125.168 18.9719H126.87V19.5501H125.168V18.9719Z" fill="white"/>
<path d="M139.903 16.7278H140.476V21.353H139.903V16.7278Z" fill="white"/>
<path d="M55.916 23.0349H56.4888V27.6601H55.916V23.0349Z" fill="white"/>
<path d="M57.9883 25.2791H59.6907V25.8572H57.9883V25.2791Z" fill="white"/>
<path d="M60.8525 25.2791H62.5549V25.8572H60.8525V25.2791Z" fill="white"/>
<path d="M63.7158 25.2791H65.4182V25.8572H63.7158V25.2791Z" fill="white"/>
<path d="M66.5801 25.2791H68.2825V25.8572H66.5801V25.2791Z" fill="white"/>
<path d="M69.4434 25.2791H71.1457V25.8572H69.4434V25.2791Z" fill="white"/>
<path d="M72.3076 25.2791H74.01V25.8572H72.3076V25.2791Z" fill="white"/>
<path d="M75.1709 25.2791H76.8733V25.8572H75.1709V25.2791Z" fill="white"/>
<path d="M78.0352 25.2791H79.7375V25.8572H78.0352V25.2791Z" fill="white"/>
<path d="M80.8984 25.2791H82.6008V25.8572H80.8984V25.2791Z" fill="white"/>
<path d="M83.7627 25.2791H85.4651V25.8572H83.7627V25.2791Z" fill="white"/>
<path d="M86.626 25.2791H88.3284V25.8572H86.626V25.2791Z" fill="white"/>
<path d="M89.4902 25.2791H91.1926V25.8572H89.4902V25.2791Z" fill="white"/>
<path d="M92.3535 25.2791H94.0559V25.8572H92.3535V25.2791Z" fill="white"/>
<path d="M95.2178 25.2791H96.9201V25.8572H95.2178V25.2791Z" fill="white"/>
<path d="M98.082 25.2791H99.7844V25.8572H98.082V25.2791Z" fill="white"/>
<path d="M100.945 25.2791H102.648V25.8572H100.945V25.2791Z" fill="white"/>
<path d="M104.147 23.0349H104.72V27.6601H104.147V23.0349Z" fill="white"/>
<path d="M110.833 25.2791H112.535V25.8572H110.833V25.2791Z" fill="white"/>
<path d="M113.696 25.2791H115.399V25.8572H113.696V25.2791Z" fill="white"/>
<path d="M116.561 25.2791H118.263V25.8572H116.561V25.2791Z" fill="white"/>
<path d="M119.424 25.2791H121.126V25.8572H119.424V25.2791Z" fill="white"/>
<path d="M139.825 23.0349H140.398V27.6601H139.825V23.0349Z" fill="white"/>
<path d="M55.916 29.342H56.4888V33.9672H55.916V29.342Z" fill="white"/>
<path d="M58.3271 29.342H58.8999V33.9672H58.3271V29.342Z" fill="white"/>
<path d="M104.564 29.342H105.137V33.9672H104.564V29.342Z" fill="white"/>
<path d="M140.45 29.342H141.023V33.9672H140.45V29.342Z" fill="white"/>
<path d="M55.916 35.6492H56.4888V40.2744H55.916V35.6492Z" fill="white"/>
<path d="M58.3271 35.6492H58.8999V40.2744H58.3271V35.6492Z" fill="white"/>
<path d="M104.564 35.6492H105.137V40.2744H104.564V35.6492Z" fill="white"/>
<path d="M140.34 35.6492H140.913V40.2744H140.34V35.6492Z" fill="white"/>
<path d="M55.916 41.9563H56.4888V46.5815H55.916V41.9563Z" fill="white"/>
<path d="M58.3271 41.9563H58.8999V46.5815H58.3271V41.9563Z" fill="white"/>
<path d="M104.564 41.9563H105.137V46.5815H104.564V41.9563Z" fill="white"/>
<path d="M134.492 23.0613H135.133L133.018 27.6339H132.373L134.492 23.0613Z" fill="#FF943F"/>
<path d="M130.686 29.3684H131.327L129.212 33.941H128.567L130.686 29.3684Z" fill="#FF943F"/>
<path d="M117.596 35.6755H118.236L120.355 40.2482H119.705L117.596 35.6755Z" fill="#FF943F"/>
<path d="M127.15 35.6755H127.791L125.676 40.2482H125.031L127.15 35.6755Z" fill="#FF943F"/>
<path d="M119.902 41.9824H120.543L122.662 46.5551H122.011L119.902 41.9824Z" fill="#FF943F"/>
<path d="M124.928 41.9824H125.568L123.454 46.5551H122.809L124.928 41.9824Z" fill="#FF943F"/>
<path d="M140.424 41.9563H140.997V46.5815H140.424V41.9563Z" fill="white"/>
<path d="M55.916 48.2634H56.4888V52.8886H55.916V48.2634Z" fill="white"/>
<path d="M58.3271 48.2634H58.8999V52.8886H58.3271V48.2634Z" fill="white"/>
<path d="M104.564 48.2634H105.137V52.8886H104.564V48.2634Z" fill="white"/>
<path d="M106.387 52.5571H108.954V53.109H106.387V52.5571Z" fill="white"/>
<path d="M109.619 52.5571H112.186V53.109H109.619V52.5571Z" fill="white"/>
<path d="M112.854 52.5571H115.421V53.109H112.854V52.5571Z" fill="white"/>
<path d="M116.086 52.5571H118.653V53.109H116.086V52.5571Z" fill="white"/>
<path d="M119.32 52.5571H121.888V53.109H119.32V52.5571Z" fill="white"/>
<path d="M122.554 52.5571H125.121V53.109H122.554V52.5571Z" fill="white"/>
<path d="M125.787 52.5571H128.354V53.109H125.787V52.5571Z" fill="white"/>
<path d="M129.021 52.5571H131.588V53.109H129.021V52.5571Z" fill="white"/>
<path d="M132.254 52.5571H134.821V53.109H132.254V52.5571Z" fill="white"/>
<path d="M135.487 52.5571H138.055V53.109H135.487V52.5571Z" fill="white"/>
<path d="M140.418 48.2634H140.991V52.8886H140.418V48.2634Z" fill="white"/>
<path d="M55.916 54.5703H56.4888V59.1955H55.916V54.5703Z" fill="white"/>
<path d="M58.3271 54.5703H58.8999V59.1955H58.3271V54.5703Z" fill="white"/>
<path d="M60.1494 58.8643H62.7167V59.4161H60.1494V58.8643Z" fill="white"/>
<path d="M63.3818 58.8643H65.9491V59.4161H63.3818V58.8643Z" fill="white"/>
<path d="M66.6162 58.8643H69.1835V59.4161H66.6162V58.8643Z" fill="white"/>
<path d="M69.8486 58.8643H72.4159V59.4161H69.8486V58.8643Z" fill="white"/>
<path d="M73.083 58.8643H75.6503V59.4161H73.083V58.8643Z" fill="white"/>
<path d="M76.3164 58.8643H78.8837V59.4161H76.3164V58.8643Z" fill="white"/>
<path d="M79.5488 58.8643H82.1161V59.4161H79.5488V58.8643Z" fill="white"/>
<path d="M82.7832 58.8643H85.3505V59.4161H82.7832V58.8643Z" fill="white"/>
<path d="M86.0156 58.8643H88.5829V59.4161H86.0156V58.8643Z" fill="white"/>
<path d="M89.25 58.8643H91.8173V59.4161H89.25V58.8643Z" fill="white"/>
<path d="M92.4844 58.8643H95.0517V59.4161H92.4844V58.8643Z" fill="white"/>
<path d="M95.7168 58.8643H98.2841V59.4161H95.7168V58.8643Z" fill="white"/>
<path d="M98.9512 58.8643H101.518V59.4161H98.9512V58.8643Z" fill="white"/>
<path d="M102.184 58.8643H104.751V59.4161H102.184V58.8643Z" fill="white"/>
<path d="M105.418 58.8643H107.985V59.4161H105.418V58.8643Z" fill="white"/>
<path d="M108.651 58.8643H111.219V59.4161H108.651V58.8643Z" fill="white"/>
<path d="M111.884 58.8643H114.451V59.4161H111.884V58.8643Z" fill="white"/>
<path d="M115.118 58.8643H117.685V59.4161H115.118V58.8643Z" fill="white"/>
<path d="M118.799 57.7546H119.622V58.5635H118.799V57.7546Z" fill="white"/>
<path d="M121.179 57.7546H122.002V58.5635H121.179V57.7546Z" fill="white"/>
<path d="M123.699 54.5703H124.272V59.1955H123.699V54.5703Z" fill="white"/>
<path d="M126.109 54.5703H126.682V59.1955H126.109V54.5703Z" fill="white"/>
<path d="M55.916 60.8774H56.4888V65.5026H55.916V60.8774Z" fill="white"/>
<path d="M57.7383 65.1714H60.3056V65.7233H57.7383V65.1714Z" fill="white"/>
<path d="M60.9707 65.1714H63.538V65.7233H60.9707V65.1714Z" fill="white"/>
<path d="M64.2051 65.1714H66.7724V65.7233H64.2051V65.1714Z" fill="white"/>
<path d="M67.4385 65.1714H70.0058V65.7233H67.4385V65.1714Z" fill="white"/>
<path d="M70.6719 65.1714H73.2392V65.7233H70.6719V65.1714Z" fill="white"/>
<path d="M73.9053 65.1714H76.4726V65.7233H73.9053V65.1714Z" fill="white"/>
<path d="M77.1387 65.1714H79.706V65.7233H77.1387V65.1714Z" fill="white"/>
<path d="M80.3721 65.1714H82.9394V65.7233H80.3721V65.1714Z" fill="white"/>
<path d="M83.6064 65.1714H86.1737V65.7233H83.6064V65.1714Z" fill="white"/>
<path d="M86.8389 65.1714H89.4062V65.7233H86.8389V65.1714Z" fill="white"/>
<path d="M90.0732 65.1714H92.6405V65.7233H90.0732V65.1714Z" fill="white"/>
<path d="M93.3057 65.1714H95.873V65.7233H93.3057V65.1714Z" fill="white"/>
<path d="M96.54 65.1714H99.1073V65.7233H96.54V65.1714Z" fill="white"/>
<path d="M99.7734 65.1714H102.341V65.7233H99.7734V65.1714Z" fill="white"/>
<path d="M103.007 65.1714H105.574V65.7233H103.007V65.1714Z" fill="white"/>
<path d="M106.24 65.1714H108.808V65.7233H106.24V65.1714Z" fill="white"/>
<path d="M109.474 65.1714H112.041V65.7233H109.474V65.1714Z" fill="white"/>
<path d="M112.707 65.1714H115.274V65.7233H112.707V65.1714Z" fill="white"/>
<path d="M115.941 65.1714H118.509V65.7233H115.941V65.1714Z" fill="white"/>
<path d="M119.174 65.1714H121.741V65.7233H119.174V65.1714Z" fill="white"/>
<path d="M122.408 65.1714H124.976V65.7233H122.408V65.1714Z" fill="white"/>
<path d="M126.229 60.8774H126.802V65.5026H126.229V60.8774Z" fill="white"/>
<path d="M54.8787 67.2109H55.5194L53.4048 71.7836H52.7598L54.8787 67.2109Z" fill="white"/>
<path d="M58.165 70.5747H60.8264V71.1791H58.165V70.5747ZM59.1601 68.1409L59.2744 68.1774C59.2223 68.2898 59.137 68.392 59.0198 68.4855C58.9012 68.5789 58.7696 68.6534 58.6221 68.7118C58.4746 68.7702 58.3285 68.8052 58.1824 68.8198V68.1993C58.4225 68.1643 58.6438 68.0767 58.8492 67.9365C59.0546 67.7964 59.1963 67.6504 59.2758 67.5H59.8327V71.1791H59.1616V68.1409H59.1601Z" fill="white"/>
<path d="M66.0927 70.5426C66.1853 70.3601 66.3111 70.1937 66.4731 70.0433C66.6351 69.8929 66.8391 69.7426 67.0849 69.5907L67.3974 69.3965C67.5955 69.2593 67.7416 69.1308 67.8342 69.0082C67.9282 68.8855 67.9745 68.7512 67.9745 68.6038C67.9745 68.4884 67.9499 68.3862 67.8992 68.2986C67.8486 68.211 67.7763 68.1439 67.6808 68.0957C67.5854 68.0475 67.474 68.0242 67.3453 68.0242C67.1269 68.0242 66.9533 68.0913 66.8275 68.2242C66.7016 68.357 66.6337 68.5337 66.6264 68.7556H65.9553C65.9582 68.5074 66.0219 68.2826 66.1434 68.0826C66.2648 67.8825 66.4312 67.7249 66.6409 67.6095C66.8506 67.4942 67.0893 67.4358 67.3569 67.4358C67.6244 67.4358 67.8515 67.4854 68.0497 67.5862C68.2478 67.6854 68.3997 67.8241 68.5082 68.0008C68.6152 68.1775 68.6702 68.3819 68.6702 68.6125C68.6702 68.7731 68.6383 68.925 68.5732 69.0651C68.5096 69.2053 68.4113 69.3396 68.2796 69.4695C68.148 69.5995 67.9759 69.7265 67.7647 69.8535L67.4002 70.0696L67.3684 70.0959C67.192 70.2039 67.0589 70.3017 66.9721 70.3879C66.8853 70.474 66.8246 70.5733 66.7899 70.6842L66.6178 70.5733H68.7323V71.1777H65.9365C65.951 70.9354 66.0031 70.7237 66.0956 70.5412L66.0927 70.5426Z" fill="white"/>
<path d="M74.5401 71.0945C74.3217 70.9967 74.1482 70.8565 74.0223 70.6769C73.8951 70.4959 73.8285 70.2886 73.8213 70.0535H74.4982C74.5155 70.2462 74.5922 70.3966 74.7267 70.5032C74.8627 70.6098 75.0478 70.6638 75.2836 70.6638C75.4991 70.6638 75.6741 70.6142 75.81 70.5134C75.946 70.4141 76.0125 70.2784 76.0125 70.1061C76.0125 69.9937 75.9851 69.9002 75.9286 69.8243C75.8737 69.7484 75.797 69.6914 75.7016 69.6535C75.6061 69.6155 75.4962 69.5951 75.3703 69.5951H75.0001V69.0009H75.2922C75.4861 69.0009 75.6408 68.9571 75.7536 68.8695C75.8665 68.7819 75.9229 68.6622 75.9229 68.5118C75.9229 68.4096 75.8968 68.322 75.8448 68.2461C75.7927 68.1702 75.7204 68.1132 75.6264 68.0723C75.5323 68.0315 75.4239 68.0125 75.298 68.0125C75.0898 68.0125 74.9249 68.0665 74.8034 68.1731C74.6819 68.2797 74.6125 68.4227 74.5951 68.6008H73.9182C73.9254 68.376 73.9891 68.176 74.1106 67.9993C74.2321 67.8227 74.3969 67.684 74.6052 67.5847C74.8135 67.4854 75.0478 67.4343 75.3082 67.4343C75.554 67.4343 75.7768 67.4781 75.9749 67.5657C76.1731 67.6533 76.3278 67.773 76.4407 67.9263C76.5535 68.0782 76.6099 68.2519 76.6099 68.4446C76.6099 68.6125 76.5679 68.7571 76.4826 68.8782C76.3973 68.9994 76.2888 69.0929 76.1543 69.16C76.0198 69.2272 75.878 69.2651 75.7247 69.2754L75.8028 69.233C75.9865 69.2476 76.147 69.2958 76.2816 69.3805C76.4175 69.4652 76.5217 69.5717 76.5969 69.7017C76.6721 69.8316 76.7082 69.9761 76.7082 70.1382C76.7082 70.3587 76.6446 70.5528 76.5159 70.7222C76.3871 70.8901 76.215 71.0186 76.001 71.1091C75.7855 71.1981 75.5468 71.2434 75.2821 71.2434C75.0044 71.2434 74.7556 71.1938 74.5372 71.0959L74.5401 71.0945Z" fill="white"/>
<path d="M83.5807 68.0562L83.7947 68.0927L82.3368 69.8535L82.2587 69.7586H84.8159V70.3207H81.7539V69.6578L83.5966 67.4971H84.2417V71.1762H83.5807V68.0548V68.0562Z" fill="white"/>
<path d="M90.5287 71.1047C90.3262 71.0142 90.1642 70.8857 90.0442 70.7207C89.9241 70.5557 89.8547 70.3645 89.833 70.1484H90.5099C90.5374 70.309 90.6155 70.4345 90.7442 70.5236C90.8729 70.6127 91.0335 70.6579 91.2288 70.6579C91.3676 70.6579 91.4905 70.6316 91.5961 70.5791C91.7017 70.5265 91.7827 70.4462 91.8377 70.3396C91.8926 70.2331 91.9216 70.1061 91.9216 69.9586C91.9216 69.8111 91.8941 69.6856 91.8377 69.5805C91.7813 69.4753 91.7017 69.395 91.5961 69.341C91.4905 69.287 91.3662 69.2593 91.2244 69.2593C91.0827 69.2593 90.9568 69.2899 90.8368 69.3512C90.7167 69.4126 90.6184 69.4929 90.5432 69.5907H89.9444L90.1266 67.4985H92.4596V68.0971H90.3928L90.695 67.8767L90.5909 69.2067L90.5027 69.1804C90.6169 69.033 90.7558 68.9162 90.9163 68.8315C91.0769 68.7468 91.2606 68.703 91.466 68.703C91.6887 68.703 91.8883 68.7541 92.0647 68.8578C92.2412 68.9614 92.3801 69.1074 92.4784 69.2943C92.5768 69.4812 92.6274 69.6958 92.6274 69.9382C92.6274 70.201 92.5681 70.4302 92.4509 70.6273C92.3323 70.8229 92.1674 70.9747 91.9563 71.0813C91.7451 71.1879 91.5021 71.2419 91.2273 71.2419C90.9525 71.2419 90.7355 71.1967 90.5316 71.1047H90.5287Z" fill="white"/>
<path d="M98.4725 71.0215C98.2468 70.874 98.0733 70.6609 97.9518 70.3835C97.8303 70.1046 97.7695 69.7747 97.7695 69.3922C97.7695 69.0096 97.8346 68.6549 97.9648 68.36C98.095 68.0636 98.2787 67.8358 98.5173 67.6767C98.756 67.5176 99.0279 67.4373 99.3374 67.4373C99.5731 67.4373 99.7829 67.4796 99.9651 67.5657C100.147 67.6519 100.293 67.7701 100.405 67.9205C100.516 68.0709 100.587 68.2417 100.619 68.43H99.942C99.9073 68.3001 99.8393 68.2008 99.7395 68.1307C99.6382 68.0607 99.511 68.0256 99.3547 68.0256C99.1465 68.0256 98.9744 68.0899 98.837 68.2198C98.6995 68.3497 98.5997 68.5249 98.5347 68.7454C98.471 68.9658 98.4421 69.2184 98.4493 69.5017L98.3293 69.5279C98.4782 69.2827 98.6475 69.0972 98.8341 68.9702C99.0221 68.8447 99.2347 68.7804 99.4748 68.7804C99.7149 68.7804 99.9073 68.8315 100.084 68.9323C100.26 69.033 100.399 69.1732 100.497 69.3498C100.596 69.5265 100.646 69.7294 100.646 69.9572C100.646 70.1995 100.587 70.4171 100.47 70.6112C100.351 70.8054 100.189 70.9587 99.981 71.0711C99.7727 71.1835 99.5355 71.239 99.268 71.239C98.9657 71.239 98.7024 71.166 98.4768 71.0186L98.4725 71.0215ZM99.6194 70.566C99.7221 70.5047 99.8017 70.4229 99.8595 70.3222C99.9174 70.22 99.9449 70.1061 99.9449 69.9805C99.9449 69.855 99.9203 69.7484 99.8697 69.652C99.819 69.5557 99.7467 69.4798 99.6541 69.4228C99.5601 69.3673 99.443 69.3381 99.2998 69.3381C99.1566 69.3381 99.0322 69.3673 98.9151 69.4243C98.7965 69.4827 98.7039 69.5615 98.6359 69.6608C98.5679 69.7601 98.5347 69.8667 98.5347 69.9791C98.5347 70.0915 98.565 70.2039 98.6258 70.3076C98.6865 70.4112 98.7719 70.4944 98.8832 70.5601C98.9946 70.6244 99.1204 70.658 99.2636 70.658C99.4068 70.658 99.5182 70.6273 99.6209 70.566H99.6194Z" fill="white"/>
<path d="M106.54 69.8228C106.69 69.4272 106.875 69.0855 107.092 68.7979C107.309 68.5103 107.558 68.249 107.84 68.0154L107.918 68.1001H105.747V67.5015H108.449V68.1322C107.983 68.5001 107.639 68.9293 107.415 69.4199C107.191 69.9104 107.062 70.4973 107.027 71.1806H106.262C106.297 70.6725 106.389 70.2199 106.541 69.8243L106.54 69.8228Z" fill="white"/>
<path d="M114.236 71.1106C114.022 71.023 113.854 70.8974 113.731 70.7324C113.608 70.5674 113.546 70.3733 113.546 70.1484C113.546 69.9981 113.584 69.8608 113.66 69.7353C113.737 69.6112 113.845 69.509 113.988 69.4301C114.13 69.3513 114.298 69.3046 114.489 69.2914L114.469 69.3177C114.305 69.2973 114.159 69.2491 114.032 69.1732C113.903 69.0972 113.8 69.0009 113.725 68.8841C113.649 68.7673 113.611 68.633 113.611 68.4826C113.611 68.2694 113.669 68.084 113.786 67.9278C113.902 67.7716 114.064 67.6504 114.271 67.5657C114.477 67.4796 114.709 67.4373 114.966 67.4373C115.224 67.4373 115.455 67.4796 115.662 67.5628C115.869 67.6475 116.029 67.7672 116.146 67.9249C116.262 68.0826 116.319 68.2665 116.316 68.4768C116.316 68.6271 116.278 68.7629 116.204 68.8812C116.129 69.0009 116.028 69.0972 115.898 69.1732C115.768 69.2491 115.623 69.2973 115.462 69.3177L115.442 69.2914C115.633 69.306 115.799 69.3513 115.94 69.4301C116.08 69.509 116.188 69.6112 116.262 69.7353C116.337 69.8594 116.374 69.9966 116.374 70.1484C116.374 70.3733 116.313 70.5674 116.191 70.7324C116.07 70.8974 115.903 71.023 115.691 71.1106C115.478 71.1982 115.238 71.242 114.968 71.242C114.697 71.242 114.454 71.1982 114.242 71.1106H114.236ZM115.477 70.5324C115.608 70.4302 115.675 70.293 115.675 70.1178C115.675 69.9426 115.61 69.8097 115.48 69.7075C115.35 69.6053 115.177 69.5557 114.962 69.5557C114.746 69.5557 114.577 69.6068 114.444 69.7075C114.311 69.8083 114.243 69.9455 114.243 70.1178C114.243 70.29 114.31 70.4317 114.444 70.5324C114.577 70.6346 114.751 70.6842 114.962 70.6842C115.173 70.6842 115.345 70.6331 115.477 70.5324ZM115.448 68.8826C115.571 68.7877 115.633 68.6607 115.633 68.4987C115.633 68.3512 115.572 68.23 115.451 68.1366C115.329 68.0417 115.166 67.995 114.962 67.995C114.758 67.995 114.593 68.0417 114.47 68.1337C114.347 68.2271 114.285 68.3483 114.285 68.4987C114.285 68.6593 114.347 68.7877 114.47 68.8826C114.593 68.9775 114.758 69.0242 114.962 69.0242C115.166 69.0242 115.325 68.9775 115.449 68.8826H115.448Z" fill="white"/>
<path d="M122.229 71.1076C122.037 71.0186 121.88 70.8945 121.76 70.7368C121.64 70.5791 121.568 70.3981 121.545 70.1951H122.222C122.249 70.3426 122.323 70.455 122.44 70.5339C122.559 70.6127 122.703 70.6521 122.877 70.6521C123.157 70.6521 123.367 70.5324 123.505 70.2944C123.642 70.0564 123.711 69.7265 123.716 69.306C123.58 69.4958 123.431 69.6374 123.266 69.7338C123.101 69.8301 122.912 69.8783 122.696 69.8783C122.468 69.8783 122.265 69.8287 122.09 69.728C121.915 69.6287 121.778 69.49 121.679 69.3133C121.581 69.1367 121.53 68.9366 121.53 68.7118C121.53 68.4665 121.59 68.2475 121.707 68.0548C121.825 67.8621 121.989 67.7103 122.198 67.6008C122.408 67.4898 122.645 67.4358 122.909 67.4358C123.211 67.4358 123.474 67.5088 123.697 67.6562C123.92 67.8037 124.093 68.0169 124.212 68.2972C124.332 68.5775 124.391 68.9162 124.391 69.3119C124.391 69.7075 124.329 70.0564 124.203 70.347C124.079 70.6375 123.902 70.8594 123.675 71.0113C123.448 71.1631 123.182 71.2405 122.875 71.2405C122.635 71.2405 122.42 71.1952 122.227 71.1062L122.229 71.1076ZM123.254 69.2374C123.37 69.179 123.461 69.1031 123.528 69.0067C123.594 68.9104 123.626 68.8038 123.626 68.6885C123.626 68.5731 123.596 68.4695 123.535 68.3673C123.474 68.2651 123.389 68.1818 123.28 68.1176C123.17 68.0534 123.046 68.0198 122.909 68.0198C122.771 68.0198 122.658 68.049 122.551 68.1059C122.446 68.1643 122.363 68.2432 122.307 68.3454C122.249 68.4476 122.222 68.5629 122.222 68.6928C122.222 68.8155 122.246 68.9235 122.297 69.0184C122.347 69.1133 122.42 69.1878 122.515 69.2418C122.611 69.2958 122.726 69.3235 122.861 69.3235C123.007 69.3235 123.137 69.2943 123.254 69.2374Z" fill="white"/>
<path d="M126.975 67.2109H127.615L129.734 71.7836H129.083L126.975 67.2109Z" fill="white"/>
<path d="M47.9588 73.5181H48.5995L46.4849 78.0907H45.8398L47.9588 73.5181Z" fill="white"/>
<path d="M53.1245 76.7445L53.2228 76.8073C53.1086 77.035 52.9683 77.2146 52.8005 77.346C52.6341 77.4774 52.4534 77.5431 52.2595 77.5431C52.0542 77.5431 51.8791 77.4847 51.7331 77.3693C51.587 77.254 51.4756 77.0919 51.4004 76.8832C51.3237 76.6744 51.2861 76.435 51.2861 76.1663C51.2861 75.8977 51.3237 75.6539 51.4004 75.4495C51.4771 75.2451 51.587 75.0845 51.7316 74.9691C51.8763 74.8538 52.0484 74.7954 52.2494 74.7954C52.4403 74.7954 52.6211 74.8582 52.7932 74.9852C52.9654 75.1108 53.1071 75.2903 53.217 75.521L53.1389 75.5999V74.848H53.784V78.3796H53.123V76.7445H53.1245ZM52.76 76.8759C52.867 76.8087 52.9581 76.7138 53.0304 76.5897C53.1028 76.4656 53.1404 76.324 53.1404 76.1663C53.1404 76.0086 53.1028 75.8641 53.0261 75.7429C52.9495 75.6218 52.8569 75.5283 52.747 75.4612C52.637 75.394 52.5343 75.3619 52.4374 75.3619C52.3405 75.3619 52.2552 75.3911 52.1829 75.4509C52.1106 75.5108 52.0542 75.5999 52.0137 75.7196C51.9732 75.8393 51.9544 75.9853 51.9544 76.1605C51.9544 76.4262 51.9992 76.6291 52.0903 76.7678C52.18 76.9065 52.3015 76.9752 52.4548 76.9752C52.5517 76.9752 52.6544 76.9416 52.7614 76.8759H52.76Z" fill="white"/>
<path d="M58.9199 74.8481H59.565L60.0394 77.0031H59.9411L60.4357 74.8481H61.1068L61.6174 76.9972H61.5234L61.9862 74.8481H62.627L61.9558 77.4863H61.2269L60.738 75.4102H60.806L60.3113 77.4863H59.5722L58.9214 74.8481H58.9199Z" fill="white"/>
<path d="M68.2299 77.381C68.0317 77.2686 67.8798 77.1095 67.7714 76.9021C67.6643 76.6948 67.6094 76.4554 67.6094 76.1824C67.6094 75.9094 67.6629 75.6626 67.7685 75.4539C67.8741 75.2451 68.0245 75.083 68.2183 74.9677C68.4121 74.8523 68.6377 74.7939 68.8952 74.7939C69.1526 74.7939 69.3682 74.8494 69.5533 74.9618C69.7384 75.0743 69.8816 75.2305 69.98 75.429C70.0783 75.6291 70.1289 75.8568 70.1289 76.1123V76.2641H68.0361V75.7809H69.656L69.4419 75.9853V75.8597C69.4419 75.6918 69.3913 75.5575 69.2886 75.4582C69.1859 75.359 69.0528 75.3079 68.8909 75.3079C68.7867 75.3079 68.6898 75.3341 68.5987 75.3867C68.5076 75.4393 68.4367 75.5079 68.3832 75.5911C68.3297 75.6758 68.2993 75.7692 68.2921 75.8743C68.2892 75.9517 68.2863 76.0072 68.2863 76.0422C68.2863 76.0773 68.2834 76.1298 68.2761 76.1999C68.279 76.4525 68.3398 76.6496 68.4555 76.7912C68.5712 76.9328 68.7289 77.0043 68.927 77.0043C69.0659 77.0043 69.1816 76.9752 69.2727 76.9182C69.3653 76.8598 69.4275 76.7751 69.4622 76.6627H70.1029C70.0508 76.9255 69.9207 77.1387 69.7124 77.3007C69.5041 77.4642 69.238 77.5445 68.9154 77.5445C68.6551 77.5445 68.4266 77.4891 68.2284 77.3766L68.2299 77.381Z" fill="white"/>
<path d="M75.54 74.8479H76.1909V75.6947L76.1128 75.5575C76.2068 75.3268 76.3283 75.1399 76.4773 74.9998C76.6263 74.8596 76.7998 74.7896 76.998 74.7896C77.1686 74.7896 77.3089 74.8304 77.4203 74.9107C77.5317 74.991 77.6127 75.102 77.6648 75.2451C77.7168 75.3867 77.7429 75.5531 77.7429 75.7415C77.7429 75.8188 77.7414 75.8831 77.7371 75.9356H77.1484V75.8407C77.1484 75.6933 77.1151 75.5809 77.05 75.502C76.9835 75.4232 76.8909 75.3838 76.7695 75.3838C76.6682 75.3838 76.5742 75.4203 76.486 75.4918C76.3977 75.5633 76.3283 75.6626 76.2777 75.7882C76.2271 75.9137 76.2025 76.0539 76.2025 76.2086V77.4861H75.5415V74.8479H75.54Z" fill="white"/>
<path d="M82.627 74.8481H84.8196V75.3634H82.627V74.8481ZM83.4861 77.2891C83.3371 77.1577 83.2619 76.9636 83.2619 76.7081V74.2276L83.9229 73.8699V76.5504C83.9229 76.6832 83.9533 76.7796 84.014 76.8395C84.0748 76.8993 84.1818 76.9285 84.3337 76.9285H85.0366V77.4862H84.1514C83.8564 77.4862 83.6336 77.4205 83.4846 77.2891H83.4861Z" fill="white"/>
<path d="M89.937 77.8175H90.4779C90.6139 77.8175 90.7108 77.8014 90.7715 77.7708C90.8323 77.7387 90.8815 77.673 90.9205 77.5708L91.0348 77.2875L91.0507 77.6554L89.963 74.8494H90.666L91.3949 76.9313H91.2228L91.9518 74.8494H92.6489L91.4976 77.8029C91.4456 77.9401 91.3805 78.0511 91.3024 78.1372C91.2243 78.2234 91.1317 78.2847 91.0261 78.3241C90.9205 78.3621 90.7947 78.3825 90.6486 78.3825H89.9355V77.8204L89.937 77.8175Z" fill="white"/>
<path d="M98.2249 77.4148C98.0947 77.333 97.9964 77.2118 97.9284 77.0542C97.8604 76.8965 97.8271 76.7111 97.8271 76.4964V74.8467H98.4881V76.3023C98.4881 76.53 98.5214 76.695 98.5894 76.7957C98.6574 76.8979 98.7673 76.9476 98.9206 76.9476C99.032 76.9476 99.1347 76.9155 99.2301 76.8498C99.3256 76.7855 99.4022 76.6906 99.4615 76.5665C99.5208 76.4424 99.5498 76.2979 99.5498 76.1329V74.8452H100.211V77.4834H99.5599V76.7373L99.664 76.822C99.5628 77.022 99.4268 77.1914 99.2547 77.3286C99.0826 77.4673 98.8946 77.5359 98.6892 77.5359C98.5084 77.5359 98.3536 77.4951 98.2235 77.4119L98.2249 77.4148Z" fill="white"/>
<path d="M105.632 76.9811H107.334V77.4863H105.632V76.9811ZM105.698 74.8481H106.782V75.3474H105.698V74.8481ZM106.089 73.8071H106.876V74.5108H106.089V73.8071ZM106.147 74.8481H106.808V77.3184H106.147V74.8481Z" fill="white"/>
<path d="M113.176 77.3752C112.982 77.2598 112.832 77.0978 112.726 76.889C112.621 76.6802 112.567 76.4437 112.567 76.1765C112.567 75.9094 112.621 75.667 112.726 75.4597C112.832 75.2524 112.982 75.0889 113.176 74.9706C113.37 74.8538 113.594 74.7939 113.847 74.7939C114.101 74.7939 114.335 74.8523 114.53 74.9706C114.724 75.0874 114.874 75.2509 114.978 75.4597C115.083 75.6685 115.135 75.9079 115.135 76.1765C115.135 76.4452 115.083 76.6802 114.978 76.889C114.874 77.0978 114.725 77.2598 114.53 77.3752C114.336 77.4905 114.108 77.5489 113.847 77.5489C113.587 77.5489 113.37 77.4905 113.176 77.3752ZM114.179 76.908C114.271 76.8408 114.341 76.7459 114.39 76.6218C114.439 76.4977 114.462 76.3488 114.462 76.178C114.462 75.9152 114.409 75.7093 114.3 75.5604C114.193 75.4115 114.041 75.3371 113.847 75.3371C113.723 75.3371 113.615 75.3706 113.522 75.4363C113.429 75.502 113.36 75.5999 113.311 75.7254C113.262 75.851 113.238 76.0028 113.238 76.178C113.238 76.4379 113.292 76.6408 113.4 76.7883C113.509 76.9357 113.658 77.0087 113.849 77.0087C113.978 77.0087 114.088 76.9752 114.18 76.9095L114.179 76.908Z" fill="white"/>
<path d="M120.491 74.848H121.142V75.5999L121.064 75.521C121.171 75.2903 121.311 75.1108 121.483 74.9852C121.656 74.8596 121.838 74.7954 122.033 74.7954C122.228 74.7954 122.408 74.8538 122.551 74.9691C122.695 75.0845 122.805 75.2451 122.882 75.4495C122.959 75.6539 122.996 75.8933 122.996 76.1663C122.996 76.4393 122.959 76.6759 122.882 76.8832C122.805 77.0919 122.694 77.254 122.547 77.3693C122.399 77.4847 122.224 77.5431 122.023 77.5431C121.891 77.5431 121.765 77.5139 121.648 77.454C121.53 77.3942 121.421 77.3095 121.32 77.1985C121.219 77.0876 121.131 76.9576 121.054 76.8073L121.152 76.7445V78.3796H120.491V74.848ZM122.092 76.8846C122.168 76.8233 122.224 76.7328 122.264 76.6116C122.305 76.4904 122.324 76.3415 122.324 76.1619C122.324 75.8991 122.282 75.7006 122.196 75.5648C122.111 75.429 121.994 75.3619 121.845 75.3619C121.748 75.3619 121.644 75.3955 121.535 75.4612C121.426 75.5283 121.333 75.6218 121.256 75.7429C121.18 75.8641 121.142 76.0043 121.142 76.1663C121.142 76.3284 121.178 76.4656 121.252 76.5897C121.324 76.7138 121.415 76.8102 121.522 76.8759C121.63 76.9416 121.732 76.9752 121.829 76.9752C121.926 76.9752 122.017 76.9445 122.092 76.8832V76.8846Z" fill="white"/>
<path d="M126.35 73.5181H127.782V74.0115H126.959V77.5958H127.782V78.0892H126.35V73.5166V73.5181Z" fill="white"/>
<path d="M132.78 73.5181H133.421L135.54 78.0907H134.889L132.78 73.5181Z" fill="white"/>
<path d="M41.0398 79.8252H41.6806L39.566 84.3978H38.9209L41.0398 79.8252Z" fill="white"/>
<path d="M47.1337 83.7509C47.0006 83.6837 46.895 83.5888 46.8184 83.4647C46.7417 83.3406 46.7041 83.1961 46.7041 83.0311C46.7041 82.7654 46.7923 82.5639 46.9673 82.4267C47.1424 82.2895 47.3911 82.2179 47.7151 82.2106L48.434 82.1946V82.1318C48.434 81.9566 48.3891 81.8266 48.3009 81.7405C48.2127 81.6544 48.0868 81.612 47.9234 81.612C47.7599 81.612 47.6298 81.6471 47.5401 81.7172C47.4519 81.7872 47.4041 81.8719 47.3969 81.9697H46.7301C46.7475 81.812 46.8068 81.6661 46.9095 81.5303C47.0122 81.396 47.151 81.2879 47.3289 81.2091C47.5054 81.1302 47.7093 81.0908 47.9379 81.0908C48.1837 81.0908 48.392 81.1361 48.5598 81.2281C48.7276 81.32 48.8548 81.4456 48.9402 81.6062C49.0255 81.7668 49.0675 81.9551 49.0675 82.1683V83.072C49.0675 83.2049 49.0776 83.3406 49.0964 83.4793C49.1152 83.618 49.1412 83.7217 49.1716 83.7918H48.5309C48.5309 83.7918 48.5294 83.7757 48.5251 83.7655C48.5048 83.6808 48.4875 83.5845 48.4759 83.4764C48.4643 83.3684 48.46 83.2545 48.4629 83.1348L48.5569 83.2238C48.4875 83.4063 48.3703 83.5553 48.2054 83.6735C48.0405 83.7903 47.8366 83.8502 47.5936 83.8502C47.4201 83.8502 47.2667 83.8166 47.1322 83.7509H47.1337ZM48.1881 83.2253C48.3125 83.1523 48.3949 83.0501 48.4325 82.9202V82.6734L47.7759 82.6895C47.6399 82.6968 47.5358 82.7245 47.4606 82.7742C47.3853 82.8238 47.3492 82.8997 47.3492 83.0049C47.3492 83.11 47.3882 83.1917 47.4663 83.2487C47.5444 83.3071 47.6471 83.3348 47.7759 83.3348C47.9248 83.3348 48.0622 83.2983 48.1866 83.2238L48.1881 83.2253Z" fill="white"/>
<path d="M55.0272 83.7407C54.845 83.6633 54.7003 83.5597 54.5947 83.4283C54.4892 83.2969 54.4255 83.145 54.4053 82.9742H55.0663C55.0807 83.0939 55.1429 83.1859 55.2543 83.2502C55.3657 83.3144 55.506 83.348 55.6766 83.348C55.8299 83.348 55.95 83.3202 56.0382 83.2662C56.1264 83.2122 56.1713 83.1407 56.1713 83.0531C56.1713 82.9801 56.1438 82.9202 56.0903 82.875C56.0368 82.8297 55.9413 82.7961 55.8068 82.7757L55.2919 82.691C55.046 82.653 54.8551 82.5669 54.722 82.4355C54.589 82.3041 54.521 82.142 54.521 81.9493C54.521 81.7814 54.5673 81.634 54.6613 81.5084C54.7553 81.3829 54.8855 81.2836 55.0518 81.212C55.2181 81.1405 55.4105 81.104 55.6303 81.104C55.9572 81.104 56.2248 81.1785 56.4345 81.3274C56.6442 81.4763 56.7672 81.6807 56.8019 81.9391H56.1409C56.1236 81.8311 56.07 81.7449 55.9789 81.6836C55.8878 81.6223 55.7692 81.5916 55.6202 81.5916C55.4712 81.5916 55.3613 81.6194 55.2818 81.6734C55.2022 81.7274 55.1617 81.7975 55.1617 81.8807C55.1617 81.9537 55.1878 82.0121 55.2398 82.0544C55.2919 82.0968 55.3801 82.1274 55.506 82.1493L56.0426 82.2223C56.2957 82.2603 56.4909 82.3479 56.6254 82.4822C56.7614 82.6165 56.8279 82.7874 56.8279 82.9947C56.8279 83.167 56.7817 83.3173 56.6876 83.4473C56.5936 83.5772 56.4591 83.6779 56.2812 83.7495C56.1048 83.821 55.8979 83.8575 55.6622 83.8575C55.4264 83.8575 55.2123 83.8196 55.0301 83.7422L55.0272 83.7407Z" fill="white"/>
<path d="M62.5231 83.6781C62.377 83.5627 62.2656 83.4007 62.1904 83.1919C62.1138 82.9831 62.0762 82.7437 62.0762 82.475C62.0762 82.2064 62.1138 81.9626 62.1904 81.7582C62.2671 81.5538 62.377 81.3932 62.5217 81.2779C62.6663 81.1625 62.8384 81.1041 63.0395 81.1041C63.1682 81.1041 63.2911 81.1319 63.4097 81.1888C63.5283 81.2443 63.6382 81.3275 63.7409 81.4355C63.8436 81.5436 63.9333 81.675 64.0085 81.8297L63.9145 81.9086V80.1157H64.5755V83.7949H63.9304V83.0488L64.0143 83.1116C63.9029 83.3423 63.7641 83.5248 63.5949 83.6562C63.4256 83.7876 63.2448 83.8533 63.051 83.8533C62.8456 83.8533 62.6706 83.7949 62.5245 83.6795L62.5231 83.6781ZM63.5486 83.1831C63.6556 83.116 63.7467 83.0211 63.819 82.897C63.8914 82.7729 63.929 82.6313 63.929 82.4736C63.929 82.3159 63.8914 82.1714 63.8147 82.0502C63.738 81.929 63.6455 81.8356 63.5356 81.7684C63.4256 81.7013 63.3229 81.6691 63.226 81.6691C63.1291 81.6691 63.0438 81.6983 62.9715 81.7582C62.8992 81.8181 62.8427 81.9071 62.8022 82.0268C62.7618 82.1465 62.7429 82.2925 62.7429 82.4677C62.7429 82.7335 62.7878 82.9364 62.8789 83.0751C62.9686 83.2138 63.0901 83.2824 63.2434 83.2824C63.3403 83.2824 63.443 83.2488 63.55 83.1831H63.5486Z" fill="white"/>
<path d="M72.083 81.1552H74.3538V81.6706H72.083V81.1552ZM73.0101 80.3026C73.1461 80.177 73.3385 80.1128 73.5887 80.1128H74.536V80.6588H73.7391C73.6451 80.6588 73.5771 80.6822 73.5337 80.7274C73.4903 80.7727 73.4686 80.8428 73.4686 80.9377V83.7919H72.8076V80.8588C72.8076 80.6136 72.8756 80.4281 73.0101 80.3011V80.3026Z" fill="white"/>
<path d="M80.0803 84.6474C79.9038 84.5787 79.7621 84.4824 79.6579 84.3554C79.5538 84.2298 79.4887 84.0809 79.4656 83.9086H80.1323C80.1598 84.0064 80.2206 84.0853 80.3117 84.1422C80.4043 84.2006 80.5272 84.2283 80.6834 84.2283C80.8714 84.2283 81.019 84.1787 81.1289 84.0809C81.2388 83.9831 81.2923 83.8341 81.2923 83.6341V82.9567L81.3863 83.0355C81.2721 83.2531 81.1332 83.4239 80.9698 83.548C80.8063 83.6721 80.6255 83.7349 80.4288 83.7349C80.2321 83.7349 80.0629 83.6794 79.9139 83.5699C79.765 83.4589 79.6493 83.3056 79.5683 83.1071C79.4873 82.9085 79.4453 82.6837 79.4453 82.4311C79.4453 82.1785 79.4858 81.942 79.5683 81.742C79.6493 81.542 79.765 81.3858 79.9125 81.2719C80.06 81.158 80.2292 81.1011 80.4202 81.1011C80.5518 81.1011 80.6791 81.1303 80.8006 81.1872C80.9221 81.2456 81.0334 81.3288 81.1361 81.4398C81.2388 81.5507 81.3256 81.6865 81.3994 81.8471L81.3053 81.9099V81.1536H81.9562V83.6137C81.9562 83.9743 81.8463 84.2546 81.625 84.4517C81.4051 84.6503 81.0985 84.7481 80.7065 84.7481C80.4664 84.7481 80.2582 84.7145 80.0817 84.6459L80.0803 84.6474ZM80.9322 83.0969C81.0378 83.0326 81.1274 82.9406 81.1998 82.8238C81.2721 82.707 81.3097 82.5756 81.3097 82.4326C81.3097 82.2895 81.2721 82.1537 81.1983 82.0355C81.1231 81.9187 81.032 81.8267 80.9249 81.7624C80.8179 81.6982 80.7152 81.6646 80.6183 81.6646C80.5214 81.6646 80.4332 81.6938 80.3551 81.7508C80.277 81.8092 80.2162 81.8953 80.1728 82.0106C80.1294 82.126 80.1077 82.2647 80.1077 82.4253C80.1077 82.6676 80.1569 82.856 80.2538 82.9903C80.3507 83.1246 80.478 83.1932 80.6342 83.1932C80.7282 83.1932 80.828 83.1611 80.9336 83.0954L80.9322 83.0969Z" fill="white"/>
<path d="M87.459 80.1143H88.12V81.9013L88.026 81.8122C88.1229 81.6166 88.2588 81.4487 88.4324 81.31C88.606 81.1713 88.7969 81.1027 89.0051 81.1027C89.1859 81.1027 89.3378 81.145 89.4636 81.2282C89.588 81.3129 89.6835 81.4326 89.75 81.5888C89.8166 81.7451 89.8484 81.9334 89.8484 82.1538V83.7934H89.1874V82.348C89.1874 82.1203 89.1527 81.9553 89.0833 81.8546C89.0138 81.7524 88.9025 81.7027 88.7506 81.7027C88.6392 81.7027 88.5365 81.7348 88.4411 81.8005C88.3456 81.8648 88.2689 81.9597 88.2096 82.0823C88.1503 82.2049 88.1214 82.348 88.1214 82.513V83.7949H87.4604V80.1157L87.459 80.1143Z" fill="white"/>
<path d="M94.9932 84.1292H95.6903C95.7525 84.1292 95.806 84.1175 95.8523 84.0956C95.8986 84.0737 95.9304 84.0372 95.9507 83.9876C95.9709 83.9379 95.9825 83.881 95.9825 83.8138V81.1538H96.6435V83.9657C96.6435 84.1934 96.5755 84.3701 96.441 84.4971C96.305 84.6227 96.1184 84.6869 95.8783 84.6869H94.9932V84.1292ZM95.3475 81.1552H96.6174V81.6545H95.3475V81.1552ZM95.9246 80.1143H96.7057V80.818H95.9246V80.1143Z" fill="white"/>
<path d="M102.313 80.1143H102.974V83.7934H102.313V80.1143ZM102.846 82.4473L104.106 81.1538H104.892L103.789 82.2677L103.482 82.5145L102.852 83.1349L102.846 82.4458V82.4473ZM103.319 82.421L103.787 82.0166L104.965 83.7934H104.184L103.319 82.421Z" fill="white"/>
<path d="M112.28 83.2882H114.051V83.7934H112.28V83.2882ZM112.332 80.1143H113.494V80.6136H112.332V80.1143ZM112.831 80.2457H113.492V83.6678H112.831V80.2457Z" fill="white"/>
<path d="M119.747 81.155H120.57V81.9639H119.747V81.155ZM119.747 82.9844H120.57V83.7932H119.747V82.9844Z" fill="white"/>
<path d="M124.888 80.5346C124.817 80.5944 124.781 80.6864 124.781 80.8134V80.8864H125.177V81.6953H124.354V80.8967C124.354 80.7244 124.381 80.5798 124.433 80.4601C124.485 80.3404 124.57 80.247 124.69 80.1783C124.81 80.1097 124.972 80.0747 125.177 80.0703V80.4382C125.056 80.4411 124.959 80.4733 124.888 80.5331V80.5346Z" fill="white"/>
<path d="M129.994 84.3978H128.562V83.9044H129.385V80.3201H128.562V79.8267H129.994V84.3993V84.3978Z" fill="white"/>
<path d="M137.685 79.8252H138.325L140.444 84.3978H139.793L137.685 79.8252Z" fill="white"/>
<path d="M34.1189 86.1321H34.7597L32.6451 90.7047H32L34.1189 86.1321Z" fill="white"/>
<path d="M39.8047 89.5952L41.5128 87.8184L41.5808 87.9863H39.8423V87.4607H42.1232V88.0067L40.4512 89.7412L40.3832 89.5733H42.1594V90.0989H39.8061V89.5937L39.8047 89.5952Z" fill="white"/>
<path d="M50.6768 88.5279L50.6609 88.9119L49.6036 87.4607H50.3745L51.0355 88.4009H50.8894L51.546 87.4607H52.3112L51.2495 88.9061L51.2336 88.5279L52.3893 90.0989H51.6184L50.8634 89.0273H51.0514L50.2964 90.0989H49.5312L50.6768 88.5279Z" fill="white"/>
<path d="M60.342 89.9894C60.151 89.8741 60.0035 89.712 59.8994 89.5062C59.7952 89.2989 59.7432 89.0609 59.7432 88.7908C59.7432 88.5207 59.7967 88.2813 59.9023 88.074C60.0078 87.8652 60.1568 87.7031 60.3477 87.5849C60.5387 87.4681 60.7629 87.4082 61.0189 87.4082C61.2474 87.4082 61.4499 87.452 61.6249 87.5396C61.7999 87.6272 61.9402 87.7484 62.0443 87.9046C62.1485 88.0608 62.2107 88.2418 62.2324 88.4492H61.5612C61.5439 88.3017 61.4875 88.182 61.392 88.0886C61.2966 87.9951 61.1707 87.9499 61.0145 87.9499C60.893 87.9499 60.7874 87.9834 60.6963 88.0491C60.6066 88.1163 60.5372 88.2112 60.488 88.3353C60.4389 88.4594 60.4157 88.6098 60.4157 88.785C60.4157 89.0507 60.4692 89.2565 60.5777 89.4025C60.6847 89.5485 60.8352 89.6201 61.0261 89.6201C61.1823 89.6201 61.3052 89.5704 61.3964 89.4726C61.486 89.3748 61.5424 89.2449 61.5627 89.0843H62.2237C62.1991 89.2974 62.1355 89.4858 62.0313 89.6493C61.9272 89.8128 61.7883 89.9383 61.6148 90.0274C61.4412 90.1165 61.2402 90.1617 61.0102 90.1617C60.7571 90.1617 60.5343 90.1033 60.3434 89.988L60.342 89.9894Z" fill="white"/>
<path d="M67.2671 87.4622H67.9642L68.7192 89.5704H68.5731L69.3383 87.4622H70.0354L68.9839 90.1003H68.281L67.2656 87.4622H67.2671Z" fill="white"/>
<path d="M78.6571 90.0682C78.5371 90.0083 78.4286 89.9236 78.3288 89.8127C78.2305 89.7017 78.1422 89.5703 78.0656 89.4155L78.1538 89.3528V90.0988H77.5029V86.4197H78.1639V88.2125L78.0757 88.1337C78.1871 87.903 78.3274 87.7234 78.498 87.5979C78.6687 87.4723 78.8509 87.4081 79.0448 87.4081C79.2386 87.4081 79.4194 87.4665 79.5626 87.5818C79.7057 87.6972 79.8171 87.8578 79.8938 88.0621C79.9704 88.2665 80.008 88.506 80.008 88.779C80.008 89.052 79.9704 89.2885 79.8938 89.4958C79.8171 89.7046 79.7057 89.8667 79.5582 89.982C79.4107 90.0973 79.2357 90.1557 79.0346 90.1557C78.903 90.1557 78.7772 90.1266 78.6571 90.0667V90.0682ZM79.1041 89.4988C79.1793 89.4374 79.2357 89.3469 79.2762 89.2257C79.3167 89.1046 79.3355 88.9556 79.3355 88.7761C79.3355 88.5133 79.2935 88.3147 79.2082 88.1789C79.1229 88.0446 79.0057 87.976 78.8567 87.976C78.7598 87.976 78.6557 88.0096 78.5472 88.0753C78.4387 88.141 78.3447 88.2359 78.2681 88.3571C78.1914 88.4782 78.1538 88.6184 78.1538 88.7805C78.1538 88.9425 78.19 89.0797 78.2637 89.2038C78.336 89.3279 78.4272 89.4243 78.5342 89.49C78.6412 89.5572 78.7439 89.5893 78.8408 89.5893C78.9377 89.5893 79.0288 89.5586 79.1041 89.4973V89.4988Z" fill="white"/>
<path d="M87.6465 87.4622H88.2973V88.2083L88.199 88.1236C88.2959 87.9236 88.4319 87.7542 88.6054 87.617C88.779 87.4797 88.9685 87.4097 89.1724 87.4097C89.3532 87.4097 89.508 87.4505 89.6352 87.5338C89.764 87.6155 89.8623 87.7367 89.9317 87.8944C90.0012 88.0521 90.0359 88.2375 90.0359 88.4521V90.1019H89.3749V88.6463C89.3749 88.4185 89.3402 88.2535 89.2708 88.1528C89.2013 88.0506 89.09 88.001 88.9381 88.001C88.8311 88.001 88.7284 88.0331 88.6315 88.0988C88.5346 88.1645 88.4564 88.2579 88.3971 88.382C88.3378 88.5061 88.3089 88.6506 88.3089 88.8156V90.1033H87.6479V87.4651L87.6465 87.4622Z" fill="white"/>
<path d="M97.6436 87.4622H98.2742V88.1134L98.2018 88.071C98.2785 87.8681 98.3826 87.706 98.5172 87.5878C98.6502 87.4681 98.805 87.4097 98.9785 87.4097C99.1029 87.4097 99.2129 87.4403 99.3069 87.5016C99.4009 87.563 99.4761 87.6476 99.534 87.7542C99.5918 87.8608 99.6309 87.9878 99.6511 88.1353L99.5528 88.0725C99.6251 87.8769 99.7379 87.7163 99.8912 87.5936C100.045 87.471 100.22 87.4097 100.418 87.4097C100.571 87.4097 100.701 87.4476 100.808 87.5221C100.915 87.598 100.998 87.709 101.053 87.8564C101.108 88.0039 101.137 88.182 101.137 88.3922V90.1004H100.496V88.4769C100.496 88.3163 100.468 88.1937 100.412 88.109C100.355 88.0243 100.27 87.9834 100.152 87.9834C100.072 87.9834 99.9968 88.0097 99.9274 88.0623C99.8579 88.1148 99.8044 88.1922 99.7654 88.293C99.7278 88.3951 99.7075 88.5149 99.7075 88.655V90.1004H99.0769V88.4915C99.0769 88.3236 99.048 88.1966 98.9916 88.1105C98.9337 88.0243 98.8484 87.982 98.7341 87.982C98.6546 87.982 98.5808 88.0083 98.5128 88.0608C98.4448 88.1134 98.3899 88.1908 98.3494 88.2915C98.3074 88.3937 98.2872 88.5134 98.2872 88.6536V90.0989H97.6464V87.4608L97.6436 87.4622Z" fill="white"/>
<path d="M111.073 89.9164L108.756 88.6185V88.0506L111.073 86.7527V87.4199L109.219 88.4244L109.224 88.2404L111.073 89.2492V89.9164Z" fill="white"/>
<path d="M119.147 89.2492L120.996 88.2404L121.002 88.4244L119.147 87.4199V86.7527L121.465 88.0506V88.6185L119.147 89.9164V89.2492Z" fill="white"/>
<path d="M129.968 88.563C129.993 88.4739 130.035 88.3892 130.095 88.3104C130.156 88.2315 130.24 88.1483 130.348 88.0607L130.563 87.8768C130.639 87.8096 130.7 87.741 130.745 87.6695C130.79 87.5979 130.813 87.5103 130.813 87.4096C130.813 87.2621 130.768 87.1439 130.68 87.0548C130.591 86.9658 130.461 86.9205 130.292 86.9205C130.123 86.9205 129.997 86.973 129.896 87.0782C129.794 87.1833 129.745 87.3205 129.745 87.4884V87.5205H129.11V87.4782C129.11 87.268 129.16 87.0782 129.256 86.9074C129.353 86.738 129.494 86.6037 129.676 86.5059C129.858 86.408 130.072 86.3584 130.32 86.3584C130.552 86.3584 130.756 86.4007 130.934 86.4869C131.111 86.573 131.248 86.6927 131.344 86.8475C131.439 87.0023 131.487 87.1804 131.487 87.3833C131.487 87.5687 131.446 87.7293 131.367 87.8636C131.287 87.998 131.166 88.1323 131.002 88.2651L130.784 88.4389C130.694 88.5119 130.629 88.5863 130.591 88.6622C130.554 88.7382 130.534 88.8243 130.534 88.9221V88.9747H129.935V88.8798C129.935 88.7571 129.946 88.6506 129.971 88.5615L129.968 88.563ZM129.838 89.328H130.635V90.1003H129.838V89.328Z" fill="white"/>
<path d="M136.764 88.0448H139.471V88.5864H136.764V88.0448ZM137.837 86.9775H138.404V89.6741H137.837V86.9775Z" fill="white"/>
<path d="M144.411 86.1321H145.052L147.171 90.7047H146.52L144.411 86.1321Z" fill="white"/>
<path d="M32.709 93.7693H33.532V94.5781H32.709V93.7693ZM32.709 95.5972H33.532V96.406H32.709V95.5972Z" fill="white"/>
<path d="M35.0928 93.7693H35.9158V94.5781H35.0928V93.7693ZM35.0928 95.5972H35.9158V96.406H35.0928V95.5972Z" fill="white"/>
<path d="M37.4775 93.7693H38.3005V94.5781H37.4775V93.7693ZM37.4775 95.5972H38.3005V96.406H37.4775V95.5972Z" fill="white"/>
<path d="M39.8623 93.7693H40.6853V94.5781H39.8623V93.7693ZM39.8623 95.5972H40.6853V96.406H39.8623V95.5972Z" fill="white"/>
<path d="M42.2471 93.7693H43.0701V94.5781H42.2471V93.7693ZM42.2471 95.5972H43.0701V96.406H42.2471V95.5972Z" fill="white"/>
<path d="M44.6328 93.7693H45.4558V94.5781H44.6328V93.7693ZM44.6328 95.5972H45.4558V96.406H44.6328V95.5972Z" fill="white"/>
<path d="M47.0166 93.7693H47.8396V94.5781H47.0166V93.7693ZM47.0166 95.5972H47.8396V96.406H47.0166V95.5972Z" fill="white"/>
<path d="M49.4014 93.7693H50.2243V94.5781H49.4014V93.7693ZM49.4014 95.5972H50.2243V96.406H49.4014V95.5972Z" fill="white"/>
<path d="M51.7861 93.7693H52.6091V94.5781H51.7861V93.7693ZM51.7861 95.5972H52.6091V96.406H51.7861V95.5972Z" fill="white"/>
<path d="M54.1709 93.7693H54.9939V94.5781H54.1709V93.7693ZM54.1709 95.5972H54.9939V96.406H54.1709V95.5972Z" fill="white"/>
<path d="M56.5566 93.7693H57.3796V94.5781H56.5566V93.7693ZM56.5566 95.5972H57.3796V96.406H56.5566V95.5972Z" fill="white"/>
<path d="M58.9404 93.7693H59.7634V94.5781H58.9404V93.7693ZM58.9404 95.5972H59.7634V96.406H58.9404V95.5972Z" fill="white"/>
<path d="M61.3252 93.7693H62.1482V94.5781H61.3252V93.7693ZM61.3252 95.5972H62.1482V96.406H61.3252V95.5972Z" fill="white"/>
<path d="M63.71 93.7693H64.5329V94.5781H63.71V93.7693ZM63.71 95.5972H64.5329V96.406H63.71V95.5972Z" fill="white"/>
<path d="M66.0947 93.7693H66.9177V94.5781H66.0947V93.7693ZM66.0947 95.5972H66.9177V96.406H66.0947V95.5972Z" fill="white"/>
<path d="M68.4805 93.7693H69.3035V94.5781H68.4805V93.7693ZM68.4805 95.5972H69.3035V96.406H68.4805V95.5972Z" fill="white"/>
<path d="M70.8643 93.7693H71.6872V94.5781H70.8643V93.7693ZM70.8643 95.5972H71.6872V96.406H70.8643V95.5972Z" fill="white"/>
<path d="M73.249 93.7693H74.072V94.5781H73.249V93.7693ZM73.249 95.5972H74.072V96.406H73.249V95.5972Z" fill="white"/>
<path d="M75.6338 93.7693H76.4568V94.5781H75.6338V93.7693ZM75.6338 95.5972H76.4568V96.406H75.6338V95.5972Z" fill="white"/>
<path d="M78.0186 93.7693H78.8415V94.5781H78.0186V93.7693ZM78.0186 95.5972H78.8415V96.406H78.0186V95.5972Z" fill="white"/>
<path d="M80.4043 93.7693H81.2273V94.5781H80.4043V93.7693ZM80.4043 95.5972H81.2273V96.406H80.4043V95.5972Z" fill="white"/>
<path d="M82.7881 93.7693H83.6111V94.5781H82.7881V93.7693ZM82.7881 95.5972H83.6111V96.406H82.7881V95.5972Z" fill="white"/>
<path d="M85.1729 93.7693H85.9958V94.5781H85.1729V93.7693ZM85.1729 95.5972H85.9958V96.406H85.1729V95.5972Z" fill="white"/>
<path d="M87.5576 93.7693H88.3806V94.5781H87.5576V93.7693ZM87.5576 95.5972H88.3806V96.406H87.5576V95.5972Z" fill="white"/>
<path d="M89.9424 93.7693H90.7654V94.5781H89.9424V93.7693ZM89.9424 95.5972H90.7654V96.406H89.9424V95.5972Z" fill="white"/>
<path d="M92.3281 93.7693H93.1511V94.5781H92.3281V93.7693ZM92.3281 95.5972H93.1511V96.406H92.3281V95.5972Z" fill="white"/>
<path d="M94.7119 93.7693H95.5349V94.5781H94.7119V93.7693ZM94.7119 95.5972H95.5349V96.406H94.7119V95.5972Z" fill="white"/>
<path d="M97.0967 93.7693H97.9197V94.5781H97.0967V93.7693ZM97.0967 95.5972H97.9197V96.406H97.0967V95.5972Z" fill="white"/>
<path d="M99.4814 93.7693H100.304V94.5781H99.4814V93.7693ZM99.4814 95.5972H100.304V96.406H99.4814V95.5972Z" fill="white"/>
<path d="M101.867 93.7693H102.69V94.5781H101.867V93.7693ZM101.867 95.5972H102.69V96.406H101.867V95.5972Z" fill="white"/>
<path d="M104.252 93.7693H105.075V94.5781H104.252V93.7693ZM104.252 95.5972H105.075V96.406H104.252V95.5972Z" fill="white"/>
<path d="M106.636 93.7693H107.459V94.5781H106.636V93.7693ZM106.636 95.5972H107.459V96.406H106.636V95.5972Z" fill="white"/>
<path d="M109.021 93.7693H109.843V94.5781H109.021V93.7693ZM109.021 95.5972H109.843V96.406H109.021V95.5972Z" fill="white"/>
<path d="M111.405 93.7693H112.228V94.5781H111.405V93.7693ZM111.405 95.5972H112.228V96.406H111.405V95.5972Z" fill="white"/>
<path d="M113.791 93.7693H114.614V94.5781H113.791V93.7693ZM113.791 95.5972H114.614V96.406H113.791V95.5972Z" fill="white"/>
<path d="M116.176 93.7693H116.999V94.5781H116.176V93.7693ZM116.176 95.5972H116.999V96.406H116.176V95.5972Z" fill="white"/>
<path d="M118.56 93.7693H119.383V94.5781H118.56V93.7693ZM118.56 95.5972H119.383V96.406H118.56V95.5972Z" fill="white"/>
<path d="M120.944 93.7693H121.767V94.5781H120.944V93.7693ZM120.944 95.5972H121.767V96.406H120.944V95.5972Z" fill="white"/>
<path d="M123.329 93.7693H124.152V94.5781H123.329V93.7693ZM123.329 95.5972H124.152V96.406H123.329V95.5972Z" fill="white"/>
<path d="M125.715 93.7693H126.538V94.5781H125.715V93.7693ZM125.715 95.5972H126.538V96.406H125.715V95.5972Z" fill="white"/>
<path d="M128.1 93.7693H128.923V94.5781H128.1V93.7693ZM128.1 95.5972H128.923V96.406H128.1V95.5972Z" fill="white"/>
<path d="M130.483 93.7693H131.306V94.5781H130.483V93.7693ZM130.483 95.5972H131.306V96.406H130.483V95.5972Z" fill="white"/>
<path d="M132.868 93.7693H133.691V94.5781H132.868V93.7693ZM132.868 95.5972H133.691V96.406H132.868V95.5972Z" fill="white"/>
<path d="M135.253 93.7693H136.076V94.5781H135.253V93.7693ZM135.253 95.5972H136.076V96.406H135.253V95.5972Z" fill="white"/>
<path d="M137.639 93.7693H138.462V94.5781H137.639V93.7693ZM137.639 95.5972H138.462V96.406H137.639V95.5972Z" fill="white"/>
<path d="M140.023 93.7693H140.846V94.5781H140.023V93.7693ZM140.023 95.5972H140.846V96.406H140.023V95.5972Z" fill="white"/>
<path d="M142.407 93.7693H143.23V94.5781H142.407V93.7693ZM142.407 95.5972H143.23V96.406H142.407V95.5972Z" fill="white"/>
<path d="M144.792 93.7693H145.615V94.5781H144.792V93.7693ZM144.792 95.5972H145.615V96.406H144.792V95.5972Z" fill="white"/>
<path d="M147.177 93.7693H148V94.5781H147.177V93.7693ZM147.177 95.5972H148V96.406H147.177V95.5972Z" fill="white"/>
</g>
<defs>
<clipPath id="clip0_6261_3465">
<rect width="116" height="88" fill="white" transform="translate(32 8.40747)"/>
</clipPath>
</defs>
</svg>
