<svg width="180" height="105" viewBox="0 0 180 105" fill="none" xmlns="http://www.w3.org/2000/svg">
<rect y="0.407471" width="180" height="104" rx="4" fill="#3B2E29"/>
<g clip-path="url(#clip0_6261_3505)">
<path d="M24.1882 13.4075H25.046L22.2151 19.501H21.3516L24.1882 13.4075Z" fill="white"/>
<path d="M77.6816 13.4075H78.5394L81.3761 19.501H80.5047L77.6816 13.4075Z" fill="#F79345"/>
<path d="M87.9844 19.0945H91.4213V19.8299H87.9844V19.0945Z" fill="#F79345"/>
<path d="M98.8242 16.3628H101.103V17.1332H98.8242V16.3628Z" fill="#F79345"/>
<path d="M149.157 17.6177H150.259V18.6955H149.157V17.6177Z" fill="#F79345"/>
<path d="M18.0134 21.8123H18.8712L16.0403 27.9058H15.1768L18.0134 21.8123Z" fill="white"/>
<path d="M23.3164 21.7773H24.0832V27.9409H23.3164V21.7773Z" fill="white"/>
<path d="M41.1963 27.4993H44.6332V28.2347H41.1963V27.4993Z" fill="white"/>
<path d="M45.5264 27.4993H48.9633V28.2347H45.5264V27.4993Z" fill="white"/>
<path d="M49.8555 27.4993H53.2924V28.2347H49.8555V27.4993Z" fill="#F79345"/>
<path d="M54.1836 27.4993H57.6205V28.2347H54.1836V27.4993Z" fill="#F79345"/>
<path d="M58.5127 27.4993H61.9496V28.2347H58.5127V27.4993Z" fill="#F79345"/>
<path d="M79.0684 21.7773H79.8351V27.9409H79.0684V21.7773Z" fill="#F79345"/>
<path d="M84.9316 24.7676H87.2106V25.538H84.9316V24.7676Z" fill="#F79345"/>
<path d="M94.9205 23.9622L95.6659 23.1295L95.7492 23.2696L94.6475 23.0167L94.8779 22.3591L95.8751 22.8007L95.7492 22.8785L95.6369 21.7793H96.334L96.2217 22.8785L96.1035 22.8007L97.1007 22.3591L97.3234 23.0167L96.243 23.2618L96.2991 23.1295L97.0581 23.9622L96.4792 24.3552L95.9215 23.4019H96.0532L95.4956 24.3552L94.9166 23.9622H94.9205Z" fill="#F79345"/>
<path d="M104.449 27.4993H107.886V28.2347H104.449V27.4993Z" fill="#F79345"/>
<path d="M124.189 24.3609H127.814V25.0827H124.189V24.3609ZM125.626 22.9407H126.385V26.5341H125.626V22.9407Z" fill="#F79345"/>
<path d="M135.195 24.7676H137.474V25.538H135.195V24.7676Z" fill="#F79345"/>
<path d="M11.8367 30.2173H12.6944L9.86358 36.3108H9L11.8367 30.2173Z" fill="white"/>
<path d="M23.3164 30.1821H24.0832V36.3457H23.3164V30.1821Z" fill="white"/>
<path d="M31.9336 35.9041H35.3705V36.6395H31.9336V35.9041Z" fill="white"/>
<path d="M38.7507 30.2173H39.6085L36.7776 36.3108H35.9141L38.7507 30.2173Z" fill="white"/>
<path d="M51.0674 30.1821H51.8342V36.3457H51.0674V30.1821Z" fill="#F79345"/>
<path d="M65.4268 30.2173H66.2845L69.1212 36.3108H68.2499L65.4268 30.2173Z" fill="#F79345"/>
<path d="M69.666 35.9041H73.1029V36.6395H69.666V35.9041Z" fill="#F79345"/>
<path d="M80.958 30.1821H81.7248V36.3457H80.958V30.1821Z" fill="#F79345"/>
<path d="M89.1406 30.2173H89.9984L92.835 36.3108H91.9637L89.1406 30.2173Z" fill="#F79345"/>
<path d="M99.417 32.766H103.042V33.4878H99.417V32.766ZM100.852 31.3457H101.611V34.9392H100.852V31.3457Z" fill="#F79345"/>
<path d="M110.423 33.1726H112.702V33.9431H110.423V33.1726Z" fill="#F79345"/>
<path d="M139.142 34.4275H140.243V35.5053H139.142V34.4275Z" fill="#F79345"/>
<path d="M157.083 35.9041H160.52V36.6395H157.083V35.9041Z" fill="#F79345"/>
<path d="M9.02734 38.6221H9.88512L12.7218 44.7156H11.8504L9.02734 38.6221Z" fill="white"/>
<path d="M25.0752 38.6221H25.933L28.7696 44.7156H27.8983L25.0752 38.6221Z" fill="white"/>
<path d="M31.8015 38.6221H32.6593L29.8284 44.7156H28.9648L31.8015 38.6221Z" fill="white"/>
<path d="M48.2314 45.4685H50.5104V46.239H48.2314V45.4685Z" fill="white"/>
<path d="M51.1934 38.5872H51.9601V44.7507H51.1934V38.5872Z" fill="#F79345"/>
<path d="M52.6436 45.4685H54.9226V46.239H52.6436V45.4685Z" fill="#F79345"/>
<path d="M72.9131 38.6221H73.7709L76.6075 44.7156H75.7362L72.9131 38.6221Z" fill="#F79345"/>
<path d="M79.6394 38.6221H80.4972L77.6663 44.7156H76.8027L79.6394 38.6221Z" fill="#F79345"/>
<path d="M92.822 38.6221H93.6798L90.8489 44.7156H89.9854L92.822 38.6221Z" fill="#F79345"/>
<path d="M103.514 44.3091H106.951V45.0445H103.514V44.3091Z" fill="#F79345"/>
<path d="M114.354 41.5774H116.633V42.3478H114.354V41.5774Z" fill="#F79345"/>
<path d="M124.002 41.1708H127.627V41.8926H124.002V41.1708ZM125.437 39.7505H126.196V43.344H125.437V39.7505Z" fill="#F79345"/>
<path d="M138.096 41.5774H140.375V42.3478H138.096V41.5774Z" fill="#F79345"/>
<path d="M169.721 41.5774H172V42.3478H169.721V41.5774Z" fill="#F79345"/>
<path d="M15.0918 47.9607H15.9496L18.7862 54.0542H17.9149L15.0918 47.9607Z" fill="white"/>
<path d="M19.3301 53.6477H22.767V54.3831H19.3301V53.6477Z" fill="white"/>
<path d="M26.1482 47.9607H27.0059L24.1751 54.0542H23.3115L26.1482 47.9607Z" fill="white"/>
<path d="M46.8545 52.2606C46.6299 51.6906 46.5176 51.103 46.5176 50.5018C46.5176 50.103 46.566 49.7061 46.6647 49.315C46.7635 48.924 46.9106 48.5426 47.1101 48.1749C47.3095 47.8072 47.5574 47.4609 47.8575 47.1399H48.7792C48.4848 47.4667 48.2428 47.8111 48.0511 48.171C47.8594 48.531 47.72 48.9045 47.629 49.2917C47.538 49.6789 47.4935 50.0796 47.4935 50.4941C47.4935 51.0855 47.6 51.6672 47.811 52.2412C48.0221 52.8151 48.3454 53.3716 48.7792 53.9105H47.8575C47.4141 53.3813 47.0791 52.8307 46.8545 52.2606Z" fill="white"/>
<path d="M49.7998 53.6477H53.2367V54.3831H49.7998V53.6477Z" fill="#F79345"/>
<path d="M56.1795 48.7897C56.4042 49.3598 56.5165 49.9473 56.5165 50.5485C56.5165 50.9474 56.4681 51.3443 56.3693 51.7353C56.2706 52.1264 56.1234 52.5077 55.924 52.8754C55.7245 53.2431 55.4767 53.5895 55.1766 53.9105H54.2549C54.5492 53.5836 54.7912 53.2393 54.9829 52.8793C55.1746 52.5194 55.314 52.1458 55.405 51.7587C55.496 51.3715 55.5406 50.9707 55.5406 50.5563C55.5406 49.9649 55.4341 49.3831 55.223 48.8092C55.012 48.2352 54.6886 47.6788 54.2549 47.1399H55.1766C55.62 47.6691 55.9549 48.2197 56.1795 48.7897Z" fill="#F79345"/>
<path d="M75.918 47.9607H76.7757L79.6124 54.0542H78.7411L75.918 47.9607Z" fill="#F79345"/>
<path d="M80.1562 53.6477H83.5931V54.3831H80.1562V53.6477Z" fill="#F79345"/>
<path d="M86.9744 47.9607H87.8321L85.0013 54.0542H84.1377L86.9744 47.9607Z" fill="#F79345"/>
<path d="M92.0068 52.1711H93.1086V53.249H92.0068V52.1711Z" fill="#F79345"/>
<path d="M98.1963 49.7332H99.298V50.811H98.1963V49.7332ZM98.1963 52.171H99.298V53.2488H98.1963V52.171Z" fill="#F79345"/>
<path d="M110.388 50.916H112.667V51.6865H110.388V50.916Z" fill="#F79345"/>
<path d="M129.326 53.6477H132.763V54.3831H129.326V53.6477Z" fill="#F79345"/>
<path d="M146.321 50.1107L147.066 49.278L147.15 49.418L146.048 49.1651L146.278 48.5075L147.275 48.9492L147.15 49.027L147.037 47.9277H147.734L147.622 49.027L147.504 48.9492L148.501 48.5075L148.724 49.1651L147.643 49.4103L147.7 49.278L148.459 50.1107L147.88 50.5037L147.322 49.5503H147.454L146.896 50.5037L146.317 50.1107H146.321Z" fill="#F79345"/>
<path d="M165.63 52.1711H166.732V53.249H165.63V52.1711Z" fill="#F79345"/>
<path d="M22.4883 56.3306H23.255V62.4941H22.4883V56.3306Z" fill="white"/>
<path d="M50.9766 56.3306H51.7433V62.4941H50.9766V56.3306Z" fill="#F79345"/>
<path d="M79.7861 59.321H82.0651V60.0915H79.7861V59.321Z" fill="#F79345"/>
<path d="M86.374 62.0525H89.8109V62.7879H86.374V62.0525Z" fill="#F79345"/>
<path d="M94.125 59.321H96.404V60.0915H94.125V59.321Z" fill="#F79345"/>
<path d="M100.685 58.9144H104.309V59.6362H100.685V58.9144ZM102.119 57.4941H102.878V61.0876H102.119V57.4941Z" fill="#F79345"/>
<path d="M114.961 60.5759H116.063V61.6538H114.961V60.5759Z" fill="#F79345"/>
<path d="M22.4883 64.7356H23.255V70.8992H22.4883V64.7356Z" fill="white"/>
<path d="M24.9277 70.4575H28.3646V71.1929H24.9277V70.4575Z" fill="white"/>
<path d="M51.0254 64.7356H51.7922V70.8992H51.0254V64.7356Z" fill="#F79345"/>
<path d="M75.0811 70.4575H78.518V71.1929H75.0811V70.4575Z" fill="#F79345"/>
<path d="M80.1973 64.7356H80.964V70.8992H80.1973V64.7356Z" fill="#F79345"/>
<path d="M86.2422 68.9807H87.3439V70.0586H86.2422V68.9807Z" fill="#F79345"/>
<path d="M92.167 67.7258H94.446V68.4963H92.167V67.7258Z" fill="#F79345"/>
<path d="M99.0879 67.7258H101.367V68.4963H99.0879V67.7258Z" fill="#F79345"/>
<path d="M133.782 66.9205L134.527 66.0878L134.611 66.2279L133.509 65.9749L133.739 65.3173L134.736 65.759L134.611 65.8368L134.498 64.7375H135.195L135.083 65.8368L134.965 65.759L135.962 65.3173L136.185 65.9749L135.104 66.2201L135.16 66.0878L135.919 66.9205L135.341 67.3135L134.783 66.3602H134.915L134.357 67.3135L133.778 66.9205H133.782Z" fill="#F79345"/>
<path d="M153.09 68.9807H154.192V70.0586H153.09V68.9807Z" fill="#F79345"/>
<path d="M27.4453 73.1753H28.3031L31.1397 79.2688H30.2684L27.4453 73.1753Z" fill="white"/>
<path d="M31.6816 78.8623H35.1185V79.5977H31.6816V78.8623Z" fill="white"/>
<path d="M51.0195 73.1404H51.7863V79.304H51.0195V73.1404Z" fill="#F79345"/>
<path d="M65.8105 78.8623H69.2474V79.5977H65.8105V78.8623Z" fill="#F79345"/>
<path d="M73.5615 76.1306H75.8405V76.9011H73.5615V76.1306Z" fill="#F79345"/>
<path d="M83.5723 76.1306H85.8513V76.9011H83.5723V76.1306Z" fill="#F79345"/>
<path d="M96.334 78.8623H99.7709V79.5977H96.334V78.8623Z" fill="#F79345"/>
<path d="M104.087 76.1306H106.366V76.9011H104.087V76.1306Z" fill="#F79345"/>
<path d="M117.366 77.3857H118.468V78.4636H117.366V77.3857Z" fill="#F79345"/>
<path d="M126.377 76.1306H128.656V76.9011H126.377V76.1306Z" fill="#F79345"/>
<path d="M36.708 81.5803H37.5658L40.4024 87.6739H39.5311L36.708 81.5803Z" fill="white"/>
<path d="M40.9463 87.2671H44.3832V88.0025H40.9463V87.2671Z" fill="white"/>
<path d="M51.124 81.5452H51.8908V87.7087H51.124V81.5452Z" fill="#F79345"/>
<path d="M56.6523 87.2671H60.0892V88.0025H56.6523V87.2671Z" fill="#F79345"/>
<path d="M64.041 84.129H67.6657V84.8508H64.041V84.129ZM65.4758 82.7087H66.2348V86.3022H65.4758V82.7087Z" fill="#F79345"/>
<path d="M74.7119 87.2671H78.1488V88.0025H74.7119V87.2671Z" fill="#F79345"/>
<path d="M88.6177 83.7301L89.3632 82.8973L89.4465 83.0374L88.3447 82.7845L88.5751 82.1269L89.5723 82.5685L89.4465 82.6464L89.3342 81.5471H90.0312L89.9189 82.6464L89.8008 82.5685L90.798 82.1269L91.0207 82.7845L89.9402 83.0296L89.9964 82.8973L90.7554 83.7301L90.1764 84.1231L89.6188 83.1697H89.7505L89.1928 84.1231L88.6139 83.7301H88.6177Z" fill="#F79345"/>
<path d="M110.471 84.129H114.095V84.8508H110.471V84.129ZM111.907 82.7087H112.666V86.3022H111.907V82.7087Z" fill="#F79345"/>
<path d="M136.583 87.2671H140.02V88.0025H136.583V87.2671Z" fill="#F79345"/>
<path d="M159.774 84.5356H162.053V85.3061H159.774V84.5356Z" fill="#F79345"/>
<path d="M45.9717 89.9851H46.8295L49.6661 96.0786H48.7948L45.9717 89.9851Z" fill="white"/>
<path d="M50.998 89.9502H51.7648V96.1138H50.998V89.9502Z" fill="#F79345"/>
<path d="M55.9255 89.9851H56.7833L53.9524 96.0786H53.0889L55.9255 89.9851Z" fill="#F79345"/>
<path d="M57.9551 94.1953H59.0568V95.2732H57.9551V94.1953Z" fill="#F79345"/>
<path d="M70.0547 92.9404H72.3337V93.7109H70.0547V92.9404Z" fill="#F79345"/>
<path d="M80.3311 91.7576H81.4328V92.8354H80.3311V91.7576ZM80.3311 94.1954H81.4328V95.2732H80.3311V94.1954Z" fill="#F79345"/>
<path d="M89.0996 95.6721H92.5365V96.4075H89.0996V95.6721Z" fill="#F79345"/>
<path d="M96.8506 92.9404H99.1296V93.7109H96.8506V92.9404Z" fill="#F79345"/>
<path d="M103.773 92.9404H106.052V93.7109H103.773V92.9404Z" fill="#F79345"/>
<path d="M119.624 95.6721H123.061V96.4075H119.624V95.6721Z" fill="#F79345"/>
<path d="M130.645 94.1953H131.746V95.2732H130.645V94.1953Z" fill="#F79345"/>
</g>
<defs>
<clipPath id="clip0_6261_3505">
<rect width="163" height="96" fill="white" transform="translate(8.5 0.407471)"/>
</clipPath>
</defs>
</svg>
