<svg width="145" height="113" viewBox="0 0 145 113" fill="none" xmlns="http://www.w3.org/2000/svg">
<g clip-path="url(#clip0_6388_2958)">
<g clip-path="url(#clip1_6388_2958)">
<path d="M94.7041 8.26538H98.4286V9.0626H94.7041V8.26538Z" fill="white"/>
<path d="M92.4075 17.7097C92.2816 17.638 92.1851 17.541 92.1201 17.4144C92.055 17.2879 92.0215 17.1487 92.0215 16.9968V15.6154C92.0215 15.4677 92.0005 15.3454 91.9564 15.2463C91.9123 15.1472 91.8494 15.067 91.7634 15.0038C91.6773 14.9405 91.5619 14.8962 91.415 14.8709V14.1728C91.5808 14.1517 91.7067 14.1137 91.7927 14.0589C91.8788 14.0041 91.9375 13.9281 91.9711 13.8311C92.0047 13.7341 92.0194 13.6033 92.0194 13.4367V12.0321C92.0194 11.7938 92.0928 11.5976 92.2418 11.4437C92.3908 11.2897 92.5922 11.2117 92.8503 11.2117H94.082V11.9098H93.2741C93.1377 11.9098 93.0412 11.9393 92.9825 11.9962C92.9237 12.0532 92.8964 12.1502 92.8964 12.281V13.5337C92.8964 13.7657 92.8734 13.9408 92.8251 14.0568C92.7768 14.1728 92.6782 14.2761 92.5271 14.3689C92.3761 14.4596 92.1285 14.5693 91.7864 14.6958V14.4533C92.118 14.5187 92.3635 14.5946 92.5188 14.6769C92.674 14.7612 92.7768 14.8646 92.8251 14.989C92.8734 15.1134 92.8964 15.299 92.8964 15.5479V16.7479C92.8964 16.8787 92.9258 16.9736 92.9825 17.0327C93.0391 17.0917 93.1377 17.1191 93.2741 17.1191H94.082V17.8172H92.8503C92.6782 17.8172 92.5313 17.7814 92.4054 17.7118L92.4075 17.7097Z" fill="white"/>
<path d="M95.1416 17.3765H98.8661V18.1737H95.1416V17.3765Z" fill="white"/>
<path d="M101.6 11.3175C101.726 11.3892 101.823 11.4862 101.888 11.6128C101.953 11.7393 101.986 11.8785 101.986 12.0304V13.4118C101.986 13.5595 102.007 13.6818 102.051 13.7809C102.093 13.88 102.158 13.9602 102.244 14.0234C102.33 14.0867 102.446 14.131 102.593 14.1563V14.8544C102.427 14.8755 102.301 14.9135 102.215 14.9683C102.129 15.0231 102.07 15.0991 102.037 15.1961C102.003 15.2931 101.988 15.4239 101.988 15.5905V16.9951C101.988 17.2334 101.915 17.4296 101.766 17.5835C101.617 17.7375 101.416 17.8155 101.157 17.8155H99.9258V17.1174H100.734C100.87 17.1174 100.967 17.0879 101.025 17.031C101.084 16.9719 101.111 16.877 101.111 16.7462V15.4935C101.111 15.2615 101.134 15.0864 101.183 14.9704C101.231 14.8544 101.33 14.7511 101.481 14.6583C101.632 14.5676 101.879 14.4579 102.221 14.3314V14.5739C101.89 14.5085 101.644 14.4326 101.489 14.3503C101.334 14.266 101.231 14.1626 101.183 14.0382C101.134 13.9138 101.111 13.7282 101.111 13.4793V12.2793C101.111 12.1485 101.082 12.0536 101.025 11.9945C100.967 11.9355 100.87 11.9081 100.734 11.9081H99.9258V11.21H101.157C101.327 11.21 101.476 11.2458 101.602 11.3154L101.6 11.3175Z" fill="white"/>
<path d="M97.0898 20.2849H97.9208V26.9664H97.0898V20.2849Z" fill="white"/>
<path d="M67.9316 35.5989H71.6561V36.3961H67.9316V35.5989Z" fill="white"/>
<path d="M72.624 35.5989H76.3485V36.3961H72.624V35.5989Z" fill="white"/>
<path d="M77.3135 35.5989H81.038V36.3961H77.3135V35.5989Z" fill="white"/>
<path d="M82.0049 35.5989H85.7294V36.3961H82.0049V35.5989Z" fill="white"/>
<path d="M86.6973 35.5989H90.4218V36.3961H86.6973V35.5989Z" fill="white"/>
<path d="M91.3877 35.5989H95.1122V36.3961H91.3877V35.5989Z" fill="white"/>
<path d="M96.9336 29.396H97.7645V36.0775H96.9336V29.396Z" fill="white"/>
<path d="M99.5771 35.5989H103.302V36.3961H99.5771V35.5989Z" fill="white"/>
<path d="M104.267 35.5989H107.991V36.3961H104.267V35.5989Z" fill="white"/>
<path d="M108.958 35.5989H112.683V36.3961H108.958V35.5989Z" fill="white"/>
<path d="M113.647 35.5989H117.372V36.3961H113.647V35.5989Z" fill="white"/>
<path d="M118.34 35.5989H122.064V36.3961H118.34V35.5989Z" fill="white"/>
<path d="M123.031 35.5989H126.756V36.3961H123.031V35.5989Z" fill="white"/>
<path d="M127.721 35.5989H131.445V36.3961H127.721V35.5989Z" fill="white"/>
<path d="M63.9373 38.5449H64.8669L61.7991 45.1505H60.8633L63.9373 38.5449Z" fill="white"/>
<path d="M72.1768 44.71H75.9013V45.5072H72.1768V44.71Z" fill="white"/>
<path d="M76.8691 44.71H80.5936V45.5072H76.8691V44.71Z" fill="white"/>
<path d="M81.5605 44.71H85.285V45.5072H81.5605V44.71Z" fill="white"/>
<path d="M86.25 44.71H89.9745V45.5072H86.25V44.71Z" fill="white"/>
<path d="M90.9424 44.71H94.6669V45.5072H90.9424V44.71Z" fill="white"/>
<path d="M95.6328 44.71H99.3573V45.5072H95.6328V44.71Z" fill="white"/>
<path d="M100.322 44.71H104.047V45.5072H100.322V44.71Z" fill="white"/>
<path d="M105.015 44.71H108.739V45.5072H105.015V44.71Z" fill="white"/>
<path d="M109.705 44.71H113.43V45.5072H109.705V44.71Z" fill="white"/>
<path d="M114.397 44.71H118.122V45.5072H114.397V44.71Z" fill="white"/>
<path d="M132.004 38.5449H132.933L136.007 45.1505H135.063L132.004 38.5449Z" fill="white"/>
<path d="M58.748 47.6187H59.579V54.3001H58.748V47.6187Z" fill="white"/>
<path d="M70.7801 47.656H71.7096L68.6419 54.2616H67.7061L70.7801 47.656Z" fill="white"/>
<path d="M122.057 47.656H122.986L126.06 54.2616H125.116L122.057 47.656Z" fill="white"/>
<path d="M137.422 47.6187H138.253V54.3001H137.422V47.6187Z" fill="white"/>
<path d="M58.748 56.7297H59.579V63.4112H58.748V56.7297Z" fill="white"/>
<path d="M65.5918 56.7297H66.4227V63.4112H65.5918V56.7297Z" fill="white"/>
<path d="M75.8955 62.2595C75.5283 62.0296 75.2408 61.7048 75.0352 61.283C74.8295 60.8612 74.7246 60.3824 74.7246 59.8404C74.7246 59.2984 74.8274 58.8175 75.0352 58.3978C75.2408 57.9781 75.5283 57.6533 75.8955 57.4213C76.2627 57.1914 76.6865 57.0754 77.1649 57.0754C77.6434 57.0754 78.0693 57.1914 78.4407 57.4213C78.8142 57.6512 79.1038 57.976 79.3094 58.3978C79.5151 58.8175 79.62 59.2984 79.62 59.8404C79.62 60.3824 79.5171 60.8633 79.3094 61.283C79.1038 61.7027 78.8142 62.0275 78.4407 62.2595C78.0672 62.4894 77.6434 62.6054 77.1649 62.6054C76.6865 62.6054 76.2627 62.4894 75.8955 62.2595ZM77.9119 61.4792C78.1239 61.3294 78.2854 61.1143 78.3987 60.8338C78.5121 60.5533 78.5687 60.22 78.5687 59.8362C78.5687 59.4524 78.5121 59.1276 78.3987 58.8492C78.2854 58.5708 78.1239 58.3577 77.9119 58.208C77.7 58.0583 77.4503 57.9844 77.1649 57.9844C76.8796 57.9844 76.6383 58.0583 76.4284 58.208C76.2186 58.3577 76.057 58.5708 75.9416 58.8492C75.8262 59.1276 75.7675 59.4566 75.7675 59.8362C75.7675 60.2158 75.8262 60.5533 75.9416 60.8338C76.057 61.1143 76.2207 61.3294 76.4284 61.4792C76.6383 61.6289 76.8838 61.7027 77.1649 61.7027C77.4461 61.7027 77.7021 61.6289 77.9119 61.4792Z" fill="white"/>
<path d="M108.118 62.2595C107.751 62.0296 107.463 61.7048 107.258 61.283C107.052 60.8633 106.947 60.3824 106.947 59.8404C106.947 59.2984 107.05 58.8175 107.258 58.3978C107.463 57.9781 107.751 57.6533 108.118 57.4213C108.485 57.1914 108.909 57.0754 109.388 57.0754C109.866 57.0754 110.292 57.1914 110.663 57.4213C111.037 57.6512 111.326 57.976 111.532 58.3978C111.738 58.8175 111.843 59.2984 111.843 59.8404C111.843 60.3824 111.74 60.8633 111.532 61.283C111.324 61.7027 111.037 62.0275 110.663 62.2595C110.29 62.4915 109.866 62.6054 109.388 62.6054C108.909 62.6054 108.485 62.4894 108.118 62.2595ZM110.135 61.4792C110.347 61.3294 110.508 61.1143 110.621 60.8338C110.735 60.5533 110.791 60.22 110.791 59.8362C110.791 59.4524 110.735 59.1276 110.621 58.8492C110.508 58.5708 110.347 58.3577 110.135 58.208C109.923 58.0583 109.673 57.9844 109.388 57.9844C109.102 57.9844 108.861 58.0583 108.651 58.208C108.441 58.3577 108.28 58.5708 108.164 58.8492C108.049 59.1276 107.99 59.4566 107.99 59.8362C107.99 60.2158 108.049 60.5533 108.164 60.8338C108.28 61.1143 108.443 61.3294 108.651 61.4792C108.861 61.6289 109.106 61.7027 109.388 61.7027C109.669 61.7027 109.925 61.6289 110.135 61.4792Z" fill="white"/>
<path d="M126.847 56.7297H127.678V63.4112H126.847V56.7297Z" fill="white"/>
<path d="M137.034 56.7297H137.865V63.4112H137.034V56.7297Z" fill="white"/>
<path d="M58.748 65.8408H59.579V72.5223H58.748V65.8408Z" fill="white"/>
<path d="M67.6162 65.8787H68.5458L71.6198 72.4842H70.6755L67.6162 65.8787Z" fill="white"/>
<path d="M72.21 72.0435H75.9345V72.8407H72.21V72.0435Z" fill="white"/>
<path d="M76.8984 72.0435H80.6229V72.8407H76.8984V72.0435Z" fill="white"/>
<path d="M81.5898 72.0435H85.3143V72.8407H81.5898V72.0435Z" fill="white"/>
<path d="M86.2822 72.0435H90.0067V72.8407H86.2822V72.0435Z" fill="white"/>
<path d="M90.9727 72.0435H94.6972V72.8407H90.9727V72.0435Z" fill="white"/>
<path d="M95.6621 72.0435H99.3866V72.8407H95.6621V72.0435Z" fill="white"/>
<path d="M100.353 72.0435H104.077V72.8407H100.353V72.0435Z" fill="white"/>
<path d="M105.045 72.0435H108.769V72.8407H105.045V72.0435Z" fill="white"/>
<path d="M109.736 72.0435H113.461V72.8407H109.736V72.0435Z" fill="white"/>
<path d="M114.426 72.0435H118.15V72.8407H114.426V72.0435Z" fill="white"/>
<path d="M125.162 65.8787H126.091L123.024 72.4842H122.088L125.162 65.8787Z" fill="white"/>
<path d="M137.603 65.8408H138.433V72.5223H137.603V65.8408Z" fill="white"/>
<path d="M58.748 74.9519H59.579V81.6334H58.748V74.9519Z" fill="white"/>
<path d="M92.127 74.9894H94.2043V75.7023H93.0103V80.88H94.2043V81.5929H92.127V74.9873V74.9894Z" fill="white"/>
<path d="M97.4455 81.5954H95.3682V80.8825H96.5621V75.7048H95.3682V74.9919H97.4455V81.5975V81.5954Z" fill="white"/>
<path d="M136.695 74.9519H137.526V81.6334H136.695V74.9519Z" fill="white"/>
<path d="M60.7715 84.1008H61.701L64.7751 90.7064H63.8308L60.7715 84.1008Z" fill="white"/>
<path d="M65.3652 90.2656H69.0897V91.0628H65.3652V90.2656Z" fill="white"/>
<path d="M70.0547 90.2656H73.7792V91.0628H70.0547V90.2656Z" fill="white"/>
<path d="M74.7451 90.2656H78.4696V91.0628H74.7451V90.2656Z" fill="white"/>
<path d="M79.4375 90.2656H83.162V91.0628H79.4375V90.2656Z" fill="white"/>
<path d="M84.1289 90.2656H87.8534V91.0628H84.1289V90.2656Z" fill="white"/>
<path d="M88.8184 90.2656H92.5429V91.0628H88.8184V90.2656Z" fill="white"/>
<path d="M93.5107 90.2656H97.2352V91.0628H93.5107V90.2656Z" fill="white"/>
<path d="M98.2002 90.2656H101.925V91.0628H98.2002V90.2656Z" fill="white"/>
<path d="M102.892 90.2656H106.616V91.0628H102.892V90.2656Z" fill="white"/>
<path d="M107.584 90.2656H111.308V91.0628H107.584V90.2656Z" fill="white"/>
<path d="M112.273 90.2656H115.998V91.0628H112.273V90.2656Z" fill="white"/>
<path d="M116.965 90.2656H120.689V91.0628H116.965V90.2656Z" fill="white"/>
<path d="M121.656 90.2656H125.381V91.0628H121.656V90.2656Z" fill="white"/>
<path d="M126.348 90.2656H130.072V91.0628H126.348V90.2656Z" fill="white"/>
<path d="M133.735 84.1008H134.665L131.597 90.7064H130.661L133.735 84.1008Z" fill="white"/>
<path d="M98.0801 99.3767H101.805V100.174H98.0801V99.3767Z" fill="white"/>
<path d="M102.771 99.3767H106.495V100.174H102.771V99.3767Z" fill="white"/>
<path d="M107.463 99.3767H111.187V100.174H107.463V99.3767Z" fill="white"/>
<path d="M112.154 99.3767H115.879V100.174H112.154V99.3767Z" fill="white"/>
<path d="M116.937 102.323H117.866L120.94 108.929H119.996L116.937 102.323Z" fill="white"/>
<path d="M121.904 111.434H122.834L125.908 118.04H124.964L121.904 111.434Z" fill="white"/>
<path d="M96.8193 99.4258H93.0948V100.223H96.8193V99.4258Z" fill="white"/>
<path d="M92.1299 99.4258H88.4054V100.223H92.1299V99.4258Z" fill="white"/>
<path d="M87.4375 99.4258H83.713V100.223H87.4375V99.4258Z" fill="white"/>
<path d="M82.7451 99.4258H79.0206V100.223H82.7451V99.4258Z" fill="white"/>
<path d="M77.9629 102.372H77.0333L73.9593 108.978H74.9036L77.9629 102.372Z" fill="white"/>
<path d="M72.9951 111.483H72.0656L68.9915 118.089H69.9358L72.9951 111.483Z" fill="white"/>
<path d="M57.2168 7.99048H53.4923V8.7877H57.2168V7.99048Z" fill="#FF943F"/>
<path d="M52.5244 7.99048H48.7999V8.7877H52.5244V7.99048Z" fill="#FF943F"/>
<path d="M47.8359 7.99048H44.1114V8.7877H47.8359V7.99048Z" fill="#FF943F"/>
<path d="M43.1426 7.99048H39.4181V8.7877H43.1426V7.99048Z" fill="#FF943F"/>
<path d="M38.4541 7.99048H34.7296V8.7877H38.4541V7.99048Z" fill="#FF943F"/>
<path d="M33.7627 7.99048H30.0382V8.7877H33.7627V7.99048Z" fill="#FF943F"/>
<path d="M29.0693 7.99048H25.3448V8.7877H29.0693V7.99048Z" fill="#FF943F"/>
<path d="M24.3799 7.99048H20.6554V8.7877H24.3799V7.99048Z" fill="#FF943F"/>
<path d="M19.6875 7.99048H15.963V8.7877H19.6875V7.99048Z" fill="#FF943F"/>
<path d="M14.998 7.99048H11.2736V8.7877H14.998V7.99048Z" fill="#FF943F"/>
<path d="M61.2121 10.9348H60.2826L63.3503 17.5404H64.2861L61.2121 10.9348Z" fill="#FF943F"/>
<path d="M9.9375 10.9348H9.00795L5.93393 17.5404H6.87817L9.9375 10.9348Z" fill="#FF943F"/>
<path d="M66.4023 20.0081H65.5714V26.6896H66.4023V20.0081Z" fill="#FF943F"/>
<path d="M66.4023 27.9905H65.5714V34.672H66.4023V27.9905Z" fill="#FF943F"/>
<path d="M57.0957 21.9231H53.1677V22.7056H57.0957V21.9231ZM57.0957 23.6989H53.1677V24.4814H57.0957V23.6989Z" fill="#FF943F"/>
<path d="M52.2549 21.9231H48.3269V22.7056H52.2549V21.9231ZM52.2549 23.6989H48.3269V24.4814H52.2549V23.6989Z" fill="#FF943F"/>
<path d="M47.4121 21.9231H43.4841V22.7056H47.4121V21.9231ZM47.4121 23.6989H43.4841V24.4814H47.4121V23.6989Z" fill="#FF943F"/>
<path d="M42.5713 21.9231H38.6433V22.7056H42.5713V21.9231ZM42.5713 23.6989H38.6433V24.4814H42.5713V23.6989Z" fill="#FF943F"/>
<path d="M37.7275 21.9231H33.7995V22.7056H37.7275V21.9231ZM37.7275 23.6989H33.7995V24.4814H37.7275V23.6989Z" fill="#FF943F"/>
<path d="M32.8848 21.9231H28.9567V22.7056H32.8848V21.9231ZM32.8848 23.6989H28.9567V24.4814H32.8848V23.6989Z" fill="#FF943F"/>
<path d="M28.0439 21.9231H24.1159V22.7056H28.0439V21.9231ZM28.0439 23.6989H24.1159V24.4814H28.0439V23.6989Z" fill="#FF943F"/>
<path d="M23.2002 21.9231H19.2722V22.7056H23.2002V21.9231ZM23.2002 23.6989H19.2722V24.4814H23.2002V23.6989Z" fill="#FF943F"/>
<path d="M18.3594 21.9231H14.4313V22.7056H18.3594V21.9231ZM18.3594 23.6989H14.4313V24.4814H18.3594V23.6989Z" fill="#FF943F"/>
<path d="M5.93848 20.0081H5.10755V26.6896H5.93848V20.0081Z" fill="#FF943F"/>
<path d="M38.4023 46.1191H37.5714V52.8006H38.4023V46.1191Z" fill="#FF943F"/>
<path d="M38.4023 61.9905H37.5714V68.672H38.4023V61.9905Z" fill="#FF943F"/>
<path d="M38.4023 53.9905H37.5714V60.672H38.4023V53.9905Z" fill="#FF943F"/>
<path d="M57.0957 31.0342H53.1677V31.8166H57.0957V31.0342ZM57.0957 32.81H53.1677V33.5925H57.0957V32.81Z" fill="#FF943F"/>
<path d="M52.2549 31.0342H48.3269V31.8166H52.2549V31.0342ZM52.2549 32.81H48.3269V33.5925H52.2549V32.81Z" fill="#FF943F"/>
<path d="M47.4121 31.0342H43.4841V31.8166H47.4121V31.0342ZM47.4121 32.81H43.4841V33.5925H47.4121V32.81Z" fill="#FF943F"/>
<path d="M42.5713 31.0342H38.6433V31.8166H42.5713V31.0342ZM42.5713 32.81H38.6433V33.5925H42.5713V32.81Z" fill="#FF943F"/>
<path d="M37.7275 31.0342H33.7995V31.8166H37.7275V31.0342ZM37.7275 32.81H33.7995V33.5925H37.7275V32.81Z" fill="#FF943F"/>
<path d="M32.8848 31.0342H28.9567V31.8166H32.8848V31.0342ZM32.8848 32.81H28.9567V33.5925H32.8848V32.81Z" fill="#FF943F"/>
<path d="M28.0439 31.0342H24.1159V31.8166H28.0439V31.0342ZM28.0439 32.81H24.1159V33.5925H28.0439V32.81Z" fill="#FF943F"/>
<path d="M23.2002 31.0342H19.2722V31.8166H23.2002V31.0342ZM23.2002 32.81H19.2722V33.5925H23.2002V32.81Z" fill="#FF943F"/>
<path d="M18.3594 31.0342H14.4313V31.8166H18.3594V31.0342ZM18.3594 32.81H14.4313V33.5925H18.3594V32.81Z" fill="#FF943F"/>
<path d="M5.93848 29.1191H5.10755V35.8006H5.93848V29.1191Z" fill="#FF943F"/>
<path d="M56.5586 44.4348H52.8341V45.232H56.5586V44.4348Z" fill="#FF943F"/>
<path d="M56.5586 72.9905H52.8341V73.7877H56.5586V72.9905Z" fill="#FF943F"/>
<path d="M51.8682 44.4348H48.1437V45.232H51.8682V44.4348Z" fill="#FF943F"/>
<path d="M51.8682 72.9905H48.1437V73.7877H51.8682V72.9905Z" fill="#FF943F"/>
<path d="M47.1777 44.4348H43.4532V45.232H47.1777V44.4348Z" fill="#FF943F"/>
<path d="M47.1777 72.9905H43.4532V73.7877H47.1777V72.9905Z" fill="#FF943F"/>
<path d="M42.4863 44.4348H38.7618V45.232H42.4863V44.4348Z" fill="#FF943F"/>
<path d="M42.4863 72.9905H38.7618V73.7877H42.4863V72.9905Z" fill="#FF943F"/>
<path d="M37.7939 44.4348H34.0695V45.232H37.7939V44.4348Z" fill="#FF943F"/>
<path d="M33.1045 44.4348H29.38V45.232H33.1045V44.4348Z" fill="#FF943F"/>
<path d="M28.4131 44.4348H24.6886V45.232H28.4131V44.4348Z" fill="#FF943F"/>
<path d="M23.7236 44.4348H19.9991V45.232H23.7236V44.4348Z" fill="#FF943F"/>
<path d="M19.0322 44.4348H15.3077V45.232H19.0322V44.4348Z" fill="#FF943F"/>
<path d="M8.29903 38.2683H7.36948L10.4372 44.8739H11.373L8.29903 38.2683Z" fill="#FF943F"/>
</g>
</g>
<defs>
<clipPath id="clip0_6388_2958">
<rect x="0.470703" y="0.477539" width="144" height="112" rx="7.5267" fill="white"/>
</clipPath>
<clipPath id="clip1_6388_2958">
<rect width="169.863" height="126.468" fill="white" transform="translate(-30.8926 7.99048)"/>
</clipPath>
</defs>
</svg>
