<svg width="180" height="105" viewBox="0 0 180 105" fill="none" xmlns="http://www.w3.org/2000/svg">
<g clip-path="url(#clip0_6261_3497)">
<rect y="0.407471" width="180" height="104" rx="4" fill="#3B2E29"/>
<g clip-path="url(#clip1_6261_3497)">
<path d="M142.558 18.1453H145.392V18.7527H142.558V18.1453Z" fill="white"/>
<path d="M146.129 18.1453H148.963V18.7527H146.129V18.1453Z" fill="white"/>
<path d="M149.697 18.1453H152.532V18.7527H149.697V18.1453Z" fill="white"/>
<path d="M140.689 20.3611H141.322V25.4517H140.689V20.3611Z" fill="white"/>
<path d="M153.538 20.3611H154.17V25.4517H153.538V20.3611Z" fill="white"/>
<path d="M140.718 27.303H141.35V32.3936H140.718V27.303Z" fill="white"/>
<path d="M153.566 27.303H154.199V32.3936H153.566V27.303Z" fill="white"/>
<path d="M155.855 29.7727H157.735V30.409H155.855V29.7727Z" fill="white"/>
<path d="M159.017 29.7727H160.896V30.409H159.017V29.7727Z" fill="white"/>
<path d="M162.179 29.7727H164.058V30.409H162.179V29.7727Z" fill="white"/>
<path d="M165.341 29.7727H167.22V30.409H165.341V29.7727Z" fill="white"/>
<path d="M168.503 29.7727H170.382V30.409H168.503V29.7727Z" fill="white"/>
<path d="M171.664 29.7727H173.544V30.409H171.664V29.7727Z" fill="white"/>
<path d="M174.826 29.7727H176.706V30.409H174.826V29.7727Z" fill="white"/>
<path d="M177.988 29.7727H179.868V30.409H177.988V29.7727Z" fill="white"/>
<path d="M140.747 34.2446H141.379V39.3352H140.747V34.2446Z" fill="white"/>
<path d="M153.596 34.2446H154.228V39.3352H153.596V34.2446Z" fill="white"/>
<path d="M140.774 41.1863H141.407V46.2769H140.774V41.1863Z" fill="white"/>
<path d="M153.623 41.1863H154.255V46.2769H153.623V41.1863Z" fill="white"/>
<path d="M140.803 48.1282H141.435V53.2188H140.803V48.1282Z" fill="white"/>
<path d="M153.651 48.1282H154.284V53.2188H153.651V48.1282Z" fill="white"/>
<path d="M140.832 55.0698H141.464V60.1604H140.832V55.0698Z" fill="white"/>
<path d="M153.68 55.0698H154.312V60.1604H153.68V55.0698Z" fill="white"/>
<path d="M140.86 62.0115H141.493V67.1021H140.86V62.0115Z" fill="white"/>
<path d="M153.709 62.0115H154.341V67.1021H153.709V62.0115Z" fill="white"/>
<path d="M140.889 68.9534H141.521V74.044H140.889V68.9534Z" fill="white"/>
<path d="M153.737 68.9534H154.37V74.044H153.737V68.9534Z" fill="white"/>
<path d="M155.75 73.6792H158.584V74.2866H155.75V73.6792Z" fill="white"/>
<path d="M159.318 73.6792H162.153V74.2866H159.318V73.6792Z" fill="white"/>
<path d="M162.89 73.6792H165.724V74.2866H162.89V73.6792Z" fill="white"/>
<path d="M166.46 73.6792H169.294V74.2866H166.46V73.6792Z" fill="white"/>
<path d="M170.029 73.6792H172.864V74.2866H170.029V73.6792Z" fill="white"/>
<path d="M173.6 73.6792H176.434V74.2866H173.6V73.6792Z" fill="white"/>
<path d="M177.17 73.6792H180.004V74.2866H177.17V73.6792Z" fill="white"/>
<path d="M140.918 75.895H141.55V80.9856H140.918V75.895Z" fill="white"/>
<path d="M153.767 75.895H154.399V80.9856H153.767V75.895Z" fill="white"/>
<path d="M140.946 82.8367H141.579V87.9273H140.946V82.8367Z" fill="white"/>
<path d="M142.959 87.5627H145.793V88.1701H142.959V87.5627Z" fill="white"/>
<path d="M146.527 87.5627H149.362V88.1701H146.527V87.5627Z" fill="white"/>
<path d="M150.099 87.5627H152.933V88.1701H150.099V87.5627Z" fill="white"/>
<path d="M154.317 82.8369H154.95V87.9275H154.317V82.8369Z" fill="white"/>
<path d="M77.8877 5.40747H80.7222V6.01487H77.8877V5.40747Z" fill="#FF943F"/>
<path d="M101.832 5.40747H104.667V6.01487H101.832V5.40747Z" fill="#FF943F"/>
<path d="M74.8472 7.65234H75.5547L73.22 12.6851H72.5078L74.8472 7.65234Z" fill="#FF943F"/>
<path d="M80.7627 7.65234H81.4701L83.8096 12.6851H83.091L80.7627 7.65234Z" fill="#FF943F"/>
<path d="M101.498 7.65234H102.205L99.8704 12.6851H99.1582L101.498 7.65234Z" fill="#FF943F"/>
<path d="M107.414 7.65234H108.121L110.461 12.6851H109.742L107.414 7.65234Z" fill="#FF943F"/>
<path d="M69.7535 14.594H70.4609L68.1263 19.6268H67.4141L69.7535 14.594Z" fill="#FF943F"/>
<path d="M84.1318 14.9121H85.0005V15.6866H84.1318V14.9121Z" fill="#FF943F"/>
<path d="M86.4824 17.0349H88.362V17.6712H86.4824V17.0349Z" fill="#FF943F"/>
<path d="M89.6445 17.0349H91.5241V17.6712H89.6445V17.0349Z" fill="#FF943F"/>
<path d="M92.8057 17.0349H94.6852V17.6712H92.8057V17.0349Z" fill="#FF943F"/>
<path d="M96.1582 14.9121H97.0269V15.6866H96.1582V14.9121Z" fill="#FF943F"/>
<path d="M110.609 14.594H111.317L113.656 19.6268H112.938L110.609 14.594Z" fill="#FF943F"/>
<path d="M67.2066 21.5356H67.9141L65.5794 26.5684H64.8672L67.2066 21.5356Z" fill="#FF943F"/>
<path d="M113.869 21.5356H114.577L116.916 26.5684H116.197L113.869 21.5356Z" fill="#FF943F"/>
<path d="M64.6598 28.4775H65.3672L63.0325 33.5103H62.3203L64.6598 28.4775Z" fill="#FF943F"/>
<path d="M116.416 28.4775H117.123L119.463 33.5103H118.744L116.416 28.4775Z" fill="#FF943F"/>
<path d="M62.1139 35.4192H62.8213L60.4866 40.4519H59.7744L62.1139 35.4192Z" fill="#FF943F"/>
<path d="M118.963 35.4192H119.67L122.01 40.4519H121.291L118.963 35.4192Z" fill="#FF943F"/>
<path d="M59.7969 42.3611H60.5043L62.8437 47.3938H62.1251L59.7969 42.3611Z" fill="#FF943F"/>
<path d="M121.28 42.3611H121.987L119.653 47.3938H118.94L121.28 42.3611Z" fill="#FF943F"/>
<path d="M62.251 49.3027H62.9584L65.2978 54.3355H64.5792L62.251 49.3027Z" fill="#FF943F"/>
<path d="M118.64 49.3027H119.348L117.013 54.3355H116.301L118.64 49.3027Z" fill="#FF943F"/>
<path d="M67.3457 56.2444H68.0531L70.3926 61.2771H69.674L67.3457 56.2444Z" fill="#FF943F"/>
<path d="M70.8408 60.9414H73.6753V61.5488H70.8408V60.9414Z" fill="#FF943F"/>
<path d="M82.4756 59.7202H83.3842V60.6104H82.4756V59.7202Z" fill="#FF943F"/>
<path d="M97.6992 59.7202H98.6078V60.6104H97.6992V59.7202Z" fill="#FF943F"/>
<path d="M109.948 60.9414H112.783V61.5488H109.948V60.9414Z" fill="#FF943F"/>
<path d="M115.571 56.2444H116.278L113.944 61.2771H113.231L115.571 56.2444Z" fill="#FF943F"/>
<path d="M74.9844 63.1863H75.6918L78.0312 68.219H77.3126L74.9844 63.1863Z" fill="#FF943F"/>
<path d="M78.9736 66.6619H79.8823V67.5521H78.9736V66.6619Z" fill="#FF943F"/>
<path d="M81.6025 66.6619H82.5112V67.5521H81.6025V66.6619Z" fill="#FF943F"/>
<path d="M83.7344 67.8831H86.5689V68.4905H83.7344V67.8831Z" fill="#FF943F"/>
<path d="M94.9443 67.8831H97.7788V68.4905H94.9443V67.8831Z" fill="#FF943F"/>
<path d="M99.0088 66.6619H99.9174V67.5521H99.0088V66.6619Z" fill="#FF943F"/>
<path d="M101.637 66.6619H102.545V67.5521H101.637V66.6619Z" fill="#FF943F"/>
<path d="M105.821 63.1863H106.528L104.194 68.219H103.481L105.821 63.1863Z" fill="#FF943F"/>
<path d="M70.3027 22.8855H70.9351V27.9761H70.3027V22.8855Z" fill="#FF943F"/>
<path d="M72.3145 27.6113H75.1489V28.2187H72.3145V27.6113Z" fill="#FF943F"/>
<path d="M75.8857 27.6113H78.7202V28.2187H75.8857V27.6113Z" fill="#FF943F"/>
<path d="M79.4541 27.6113H82.2886V28.2187H79.4541V27.6113Z" fill="#FF943F"/>
<path d="M95.7588 27.6113H98.5933V28.2187H95.7588V27.6113Z" fill="#FF943F"/>
<path d="M99.3281 27.6113H102.163V28.2187H99.3281V27.6113Z" fill="#FF943F"/>
<path d="M102.898 27.6113H105.733V28.2187H102.898V27.6113Z" fill="#FF943F"/>
<path d="M107.117 22.8855H107.75V27.9761H107.117V22.8855Z" fill="#FF943F"/>
<path d="M84.5771 29.8562H85.2846L87.624 34.889H86.9054L84.5771 29.8562Z" fill="#FF943F"/>
<path d="M95.1265 29.8562H95.834L93.4993 34.889H92.7871L95.1265 29.8562Z" fill="#FF943F"/>
<path d="M72.2002 41.4949H75.0347V42.1023H72.2002V41.4949Z" fill="#FF943F"/>
<path d="M75.7686 41.4949H78.603V42.1023H75.7686V41.4949Z" fill="#FF943F"/>
<path d="M79.3398 41.4949H82.1743V42.1023H79.3398V41.4949Z" fill="#FF943F"/>
<path d="M84.9625 36.7979H85.6699L83.3353 41.8306H82.623L84.9625 36.7979Z" fill="#FF943F"/>
<path d="M86.1406 41.4949H88.9751V42.1023H86.1406V41.4949Z" fill="#FF943F"/>
<path d="M89.71 41.4949H92.5444V42.1023H89.71V41.4949Z" fill="#FF943F"/>
<path d="M93.2803 41.4949H96.1148V42.1023H93.2803V41.4949Z" fill="#FF943F"/>
<path d="M96.5859 36.7979H97.2934L99.6328 41.8306H98.9142L96.5859 36.7979Z" fill="#FF943F"/>
<path d="M100.082 41.4949H102.917V42.1023H100.082V41.4949Z" fill="#FF943F"/>
<path d="M103.652 41.4949H106.487V42.1023H103.652V41.4949Z" fill="#FF943F"/>
<path d="M107.222 41.4949H110.056V42.1023H107.222V41.4949Z" fill="#FF943F"/>
<path d="M69.1578 43.8682H69.8652L67.5306 48.9009H66.8184L69.1578 43.8682Z" fill="#FF943F"/>
<path d="M86.2891 43.8682H86.9965L89.3359 48.9009H88.6173L86.2891 43.8682Z" fill="#FF943F"/>
<path d="M94.2926 43.8682H95L92.6653 48.9009H91.9531L94.2926 43.8682Z" fill="#FF943F"/>
<path d="M110.395 43.8682H111.102L113.441 48.9009H112.723L110.395 43.8682Z" fill="#FF943F"/>
<path d="M69.6533 54.1892H72.4878V54.7966H69.6533V54.1892Z" fill="#FF943F"/>
<path d="M82.5703 49.4922H83.2777L85.6172 54.5249H84.8986L82.5703 49.4922Z" fill="#FF943F"/>
<path d="M86.0654 54.1892H88.8999V54.7966H86.0654V54.1892Z" fill="#FF943F"/>
<path d="M90.2861 49.4634H90.9185V54.554H90.2861V49.4634Z" fill="#FF943F"/>
<path d="M92.2969 54.1892H95.1314V54.7966H92.2969V54.1892Z" fill="#FF943F"/>
<path d="M97.9195 49.4922H98.6269L96.2923 54.5249H95.5801L97.9195 49.4922Z" fill="#FF943F"/>
<path d="M106.739 54.1892H109.574V54.7966H106.739V54.1892Z" fill="#FF943F"/>
<path d="M74.3906 55.1165H75.098L77.4375 60.1492H76.7189L74.3906 55.1165Z" fill="#FF943F"/>
<path d="M77.8848 59.8132H80.7192V60.4206H77.8848V59.8132Z" fill="#FF943F"/>
<path d="M99.2812 59.8132H102.116V60.4206H99.2812V59.8132Z" fill="#FF943F"/>
<path d="M104.904 55.1165H105.611L103.277 60.1492H102.564L104.904 55.1165Z" fill="#FF943F"/>
<path d="M77.8334 39.3094C77.554 39.1343 77.3352 38.8868 77.1787 38.5671C77.0222 38.2473 76.9424 37.8809 76.9424 37.468C76.9424 37.055 77.0206 36.6886 77.1787 36.3688C77.3352 36.0491 77.554 35.8016 77.8334 35.6249C78.1129 35.4481 78.4355 35.3613 78.7996 35.3613C79.1637 35.3613 79.4878 35.4497 79.7705 35.6249C80.0547 35.8 80.2751 36.0475 80.4316 36.3688C80.5881 36.6886 80.6679 37.055 80.6679 37.468C80.6679 37.8809 80.5897 38.2473 80.4316 38.5671C80.2751 38.8868 80.0547 39.1343 79.7705 39.3094C79.4862 39.4846 79.1637 39.573 78.7996 39.573C78.4355 39.573 78.1129 39.4846 77.8334 39.3094ZM79.3681 38.7133C79.5293 38.5992 79.6523 38.4353 79.7385 38.2216C79.8248 38.0079 79.8679 37.754 79.8679 37.4615C79.8679 37.1691 79.8248 36.9216 79.7385 36.7095C79.6523 36.4974 79.5293 36.3351 79.3681 36.221C79.2068 36.1069 79.0167 36.0507 78.7996 36.0507C78.5824 36.0507 78.3987 36.1069 78.2391 36.221C78.0794 36.3351 77.9564 36.4974 77.8686 36.7095C77.7807 36.9216 77.736 37.1723 77.736 37.4615C77.736 37.7508 77.7807 38.0079 77.8686 38.2216C77.9564 38.4353 78.081 38.5992 78.2391 38.7133C78.3987 38.8274 78.5856 38.8836 78.7996 38.8836C79.0135 38.8836 79.2084 38.8274 79.3681 38.7133Z" fill="#FF943F"/>
<path d="M99.811 39.3094C99.5315 39.1343 99.3128 38.8868 99.1563 38.5671C98.9998 38.2473 98.9199 37.8809 98.9199 37.468C98.9199 37.055 98.9982 36.6886 99.1563 36.3688C99.3128 36.0491 99.5315 35.8016 99.811 35.6249C100.09 35.4497 100.413 35.3613 100.777 35.3613C101.141 35.3613 101.465 35.4497 101.748 35.6249C102.032 35.8 102.253 36.0475 102.409 36.3688C102.566 36.6886 102.645 37.055 102.645 37.468C102.645 37.8809 102.567 38.2473 102.409 38.5671C102.251 38.8868 102.032 39.1343 101.748 39.3094C101.464 39.4846 101.141 39.573 100.777 39.573C100.413 39.573 100.09 39.4846 99.811 39.3094ZM101.346 38.7133C101.507 38.5992 101.63 38.4353 101.716 38.2216C101.802 38.0079 101.845 37.754 101.845 37.4615C101.845 37.1691 101.802 36.9216 101.716 36.7095C101.63 36.4974 101.507 36.3351 101.346 36.221C101.184 36.1069 100.994 36.0507 100.777 36.0507C100.56 36.0507 100.376 36.1069 100.217 36.221C100.057 36.3351 99.9339 36.4974 99.8461 36.7095C99.7583 36.9216 99.7136 37.1723 99.7136 37.4615C99.7136 37.7508 99.7583 38.0079 99.8461 38.2216C99.9339 38.4353 100.059 38.5992 100.217 38.7133C100.376 38.8274 100.563 38.8836 100.777 38.8836C100.991 38.8836 101.186 38.8274 101.346 38.7133Z" fill="#FF943F"/>
<path d="M64.1113 65.3362H64.8187L67.1582 70.3689H66.4396L64.1113 65.3362Z" fill="#FF943F"/>
<path d="M67.6064 70.0332H70.4409V70.6406H67.6064V70.0332Z" fill="#FF943F"/>
<path d="M111.924 70.0332H114.758V70.6406H111.924V70.0332Z" fill="#FF943F"/>
<path d="M117.546 65.3362H118.254L115.919 70.3689H115.207L117.546 65.3362Z" fill="#FF943F"/>
<path d="M69.7402 75.7087L71.7811 74.5984L71.7874 74.8008L69.7402 73.6953V72.9609L72.2985 74.3895V75.0145L69.7402 76.4431V75.7087Z" fill="#FF943F"/>
<path d="M72.8896 72.2778H73.5971L75.9365 77.3106H75.2179L72.8896 72.2778Z" fill="#FF943F"/>
<path d="M75.6328 72.2778H76.3402L78.6797 77.3106H77.9611L75.6328 72.2778Z" fill="#FF943F"/>
<path d="M79.3984 75.7087L81.4393 74.5984L81.4456 74.8008L79.3984 73.6953V72.9609L81.9567 74.3895V75.0145L79.3984 76.4431V75.7087Z" fill="#FF943F"/>
<path d="M83.082 75.7087L85.1229 74.5984L85.1292 74.8008L83.082 73.6953V72.9609L85.6402 74.3895V75.0145L83.082 76.4431V75.7087Z" fill="#FF943F"/>
<path d="M86.7676 75.7087L88.8084 74.5984L88.8148 74.8008L86.7676 73.6953V72.9609L89.3258 74.3895V75.0145L86.7676 76.4431V75.7087Z" fill="#FF943F"/>
<path d="M90.6768 75.7551H91.5854V76.6453H90.6768V75.7551Z" fill="#FF943F"/>
<path d="M95.4889 76.4431L92.9307 75.0145V74.3895L95.4889 72.9609V73.6953L93.4417 74.8008L93.4481 74.5984L95.4889 75.7087V76.4431Z" fill="#FF943F"/>
<path d="M99.1744 76.4431L96.6162 75.0145V74.3895L99.1744 72.9609V73.6953L97.1272 74.8008L97.1336 74.5984L99.1744 75.7087V76.4431Z" fill="#FF943F"/>
<path d="M102.858 76.4431L100.3 75.0145V74.3895L102.858 72.9609V73.6953L100.811 74.8008L100.817 74.5984L102.858 75.7087V76.4431Z" fill="#FF943F"/>
<path d="M105.917 72.2778H106.624L104.289 77.3106H103.577L105.917 72.2778Z" fill="#FF943F"/>
<path d="M108.66 72.2778H109.367L107.033 77.3106H106.32L108.66 72.2778Z" fill="#FF943F"/>
<path d="M112.516 76.4431L109.958 75.0145V74.3895L112.516 72.9609V73.6953L110.469 74.8008L110.475 74.5984L112.516 75.7087V76.4431Z" fill="#FF943F"/>
<path d="M83.0484 79.2197H83.7559L81.4212 84.2525H80.709L83.0484 79.2197Z" fill="#FF943F"/>
<path d="M99.1504 79.2197H99.8578L102.197 84.2525H101.479L99.1504 79.2197Z" fill="#FF943F"/>
<path d="M79.2705 86.1326H79.9029V91.2232H79.2705V86.1326Z" fill="#FF943F"/>
<path d="M102.308 86.1326H102.94V91.2232H102.308V86.1326Z" fill="#FF943F"/>
<path d="M80.7314 93.103H81.4389L83.7783 98.1358H83.0597L80.7314 93.103Z" fill="#FF943F"/>
<path d="M84.2275 97.8H87.062V98.4075H84.2275V97.8Z" fill="#FF943F"/>
<path d="M87.7959 97.8H90.6304V98.4075H87.7959V97.8Z" fill="#FF943F"/>
<path d="M91.3672 97.8H94.2017V98.4075H91.3672V97.8Z" fill="#FF943F"/>
<path d="M94.9365 97.8H97.771V98.4075H94.9365V97.8Z" fill="#FF943F"/>
<path d="M100.559 93.103H101.267L98.9319 98.1358H98.2197L100.559 93.103Z" fill="#FF943F"/>
<path d="M95.4098 81.3296H96.1172L93.7825 86.3623H93.0703L95.4098 81.3296Z" fill="white"/>
<path d="M86.4883 88.2712H87.1957L89.5351 93.304H88.8165L86.4883 88.2712Z" fill="white"/>
<path d="M92.0357 88.2712H92.7432L90.4085 93.304H89.6963L92.0357 88.2712Z" fill="white"/>
<path d="M27.9346 18.2947H30.769V18.9021H27.9346V18.2947Z" fill="white"/>
<path d="M31.5049 18.2947H34.3394V18.9021H31.5049V18.2947Z" fill="white"/>
<path d="M35.0742 18.2947H37.9087V18.9021H35.0742V18.2947Z" fill="white"/>
<path d="M26.0371 20.5105H26.6695V25.6011H26.0371V20.5105Z" fill="white"/>
<path d="M38.8857 20.5105H39.5181V25.6011H38.8857V20.5105Z" fill="white"/>
<path d="M-0.59082 29.9221H1.28872V30.5584H-0.59082V29.9221Z" fill="white"/>
<path d="M2.57129 29.9221H4.45083V30.5584H2.57129V29.9221Z" fill="white"/>
<path d="M5.73242 29.9221H7.61196V30.5584H5.73242V29.9221Z" fill="white"/>
<path d="M8.89453 29.9221H10.7741V30.5584H8.89453V29.9221Z" fill="white"/>
<path d="M12.0566 29.9221H13.9362V30.5584H12.0566V29.9221Z" fill="white"/>
<path d="M15.2188 29.9221H17.0983V30.5584H15.2188V29.9221Z" fill="white"/>
<path d="M18.3799 29.9221H20.2594V30.5584H18.3799V29.9221Z" fill="white"/>
<path d="M21.542 29.9221H23.4215V30.5584H21.542V29.9221Z" fill="white"/>
<path d="M25.0771 27.4524H25.7095V32.543H25.0771V27.4524Z" fill="white"/>
<path d="M37.9258 27.4524H38.5581V32.543H37.9258V27.4524Z" fill="white"/>
<path d="M26.0371 34.394H26.6695V39.4847H26.0371V34.394Z" fill="white"/>
<path d="M38.8857 34.394H39.5181V39.4847H38.8857V34.394Z" fill="white"/>
<path d="M26.0371 41.3357H26.6695V46.4263H26.0371V41.3357Z" fill="white"/>
<path d="M38.8857 41.3357H39.5181V46.4263H38.8857V41.3357Z" fill="white"/>
<path d="M26.0371 48.2776H26.6695V53.3682H26.0371V48.2776Z" fill="white"/>
<path d="M38.8857 48.2776H39.5181V53.3682H38.8857V48.2776Z" fill="white"/>
<path d="M26.0371 55.2192H26.6695V60.3098H26.0371V55.2192Z" fill="white"/>
<path d="M38.8857 55.2192H39.5181V60.3098H38.8857V55.2192Z" fill="white"/>
<path d="M26.0371 62.1609H26.6695V67.2515H26.0371V62.1609Z" fill="white"/>
<path d="M38.8857 62.1609H39.5181V67.2515H38.8857V62.1609Z" fill="white"/>
<path d="M-1.5791 73.8286H1.25538V74.436H-1.5791V73.8286Z" fill="white"/>
<path d="M1.98926 73.8286H4.82373V74.436H1.98926V73.8286Z" fill="white"/>
<path d="M5.56055 73.8286H8.39502V74.436H5.56055V73.8286Z" fill="white"/>
<path d="M9.12988 73.8286H11.9644V74.436H9.12988V73.8286Z" fill="white"/>
<path d="M12.7002 73.8286H15.5347V74.436H12.7002V73.8286Z" fill="white"/>
<path d="M16.2705 73.8286H19.105V74.436H16.2705V73.8286Z" fill="white"/>
<path d="M19.8398 73.8286H22.6743V74.436H19.8398V73.8286Z" fill="white"/>
<path d="M26.6055 69.1028H27.2378V74.1934H26.6055V69.1028Z" fill="white"/>
<path d="M39.4541 69.1028H40.0865V74.1934H39.4541V69.1028Z" fill="white"/>
<path d="M26.0371 76.0444H26.6695V81.135H26.0371V76.0444Z" fill="white"/>
<path d="M38.8857 76.0444H39.5181V81.135H38.8857V76.0444Z" fill="white"/>
<path d="M26.0371 82.9863H26.6695V88.0769H26.0371V82.9863Z" fill="white"/>
<path d="M28.0498 87.7122H30.8843V88.3196H28.0498V87.7122Z" fill="white"/>
<path d="M31.6201 87.7122H34.4546V88.3196H31.6201V87.7122Z" fill="white"/>
<path d="M35.1895 87.7122H38.0239V88.3196H35.1895V87.7122Z" fill="white"/>
<path d="M39.4092 82.9863H40.0415V88.0769H39.4092V82.9863Z" fill="white"/>
</g>
</g>
<defs>
<clipPath id="clip0_6261_3497">
<rect y="0.407471" width="180" height="104" rx="4" fill="white"/>
</clipPath>
<clipPath id="clip1_6261_3497">
<rect width="225" height="98" fill="white" transform="translate(-22.5 0.407471)"/>
</clipPath>
</defs>
</svg>
