<svg width="145" height="113" viewBox="0 0 145 113" fill="none" xmlns="http://www.w3.org/2000/svg">
<g clip-path="url(#clip0_6388_3107)">
<path d="M25.6281 3.48145H26.6682L23.2356 10.8554H22.1885L25.6281 3.48145Z" fill="white"/>
<path d="M90.4922 3.48145H91.5323L94.9719 10.8554H93.9154L90.4922 3.48145Z" fill="#F79345"/>
<path d="M102.985 10.3633H107.153V11.2532H102.985V10.3633Z" fill="#F79345"/>
<path d="M112.384 7.05762H115.147V7.98996H112.384V7.05762Z" fill="#F79345"/>
<path d="M122.767 8.57642H124.103V9.88076H122.767V8.57642Z" fill="#F79345"/>
<path d="M18.1408 13.6526H19.1809L15.7483 21.0266H14.7012L18.1408 13.6526Z" fill="white"/>
<path d="M24.5723 13.6101H25.502V21.0689H24.5723V13.6101Z" fill="white"/>
<path d="M46.2529 20.5344H50.4204V21.4244H46.2529V20.5344Z" fill="white"/>
<path d="M51.501 20.5344H55.6684V21.4244H51.501V20.5344Z" fill="white"/>
<path d="M56.751 20.5344H60.9184V21.4244H56.751V20.5344Z" fill="#F79345"/>
<path d="M62 20.5344H66.1675V21.4244H62V20.5344Z" fill="#F79345"/>
<path d="M67.248 20.5344H71.4155V21.4244H67.248V20.5344Z" fill="#F79345"/>
<path d="M92.1729 13.6101H93.1026V21.0689H92.1729V13.6101Z" fill="#F79345"/>
<path d="M99.2832 17.2288H102.047V18.1611H99.2832V17.2288Z" fill="#F79345"/>
<path d="M111.395 16.2541L112.298 15.2441L112.399 15.4136L111.063 15.1075L111.343 14.3117L112.552 14.8462L112.399 14.9403L112.263 13.6101H113.108L112.972 14.9403L112.829 14.8462L114.038 14.3117L114.308 15.1075L112.998 15.4042L113.066 15.2441L113.987 16.2541L113.285 16.7297L112.608 15.576H112.768L112.092 16.7297L111.39 16.2541H111.395Z" fill="#F79345"/>
<path d="M123.901 16.7368H128.297V17.6103H123.901V16.7368ZM125.641 15.0181H126.561V19.3667H125.641V15.0181Z" fill="#F79345"/>
<path d="M10.6506 23.8232H11.6907L8.25808 31.1972H7.21094L10.6506 23.8232Z" fill="white"/>
<path d="M24.5723 23.7808H25.502V31.2395H24.5723V23.7808Z" fill="white"/>
<path d="M35.0195 30.7053H39.187V31.5953H35.0195V30.7053Z" fill="white"/>
<path d="M43.2863 23.8232H44.3264L40.8938 31.1972H39.8467L43.2863 23.8232Z" fill="white"/>
<path d="M58.2207 23.7808H59.1505V31.2395H58.2207V23.7808Z" fill="#F79345"/>
<path d="M75.6318 23.8232H76.6719L80.1115 31.1972H79.055L75.6318 23.8232Z" fill="#F79345"/>
<path d="M80.7725 30.7053H84.9399V31.5953H80.7725V30.7053Z" fill="#F79345"/>
<path d="M94.4648 23.7808H95.3946V31.2395H94.4648V23.7808Z" fill="#F79345"/>
<path d="M104.388 23.8232H105.428L108.867 31.1972H107.811L104.388 23.8232Z" fill="#F79345"/>
<path d="M113.102 26.9079H117.497V27.7814H113.102V26.9079ZM114.841 25.1892H115.762V29.5378H114.841V25.1892Z" fill="#F79345"/>
<path d="M120.729 27.3997H123.493V28.332H120.729V27.3997Z" fill="#F79345"/>
<path d="M134.028 30.7056H138.196V31.5955H134.028V30.7056Z" fill="#F79345"/>
<path d="M7.24316 33.9944H8.28327L11.7229 41.3684H10.6663L7.24316 33.9944Z" fill="white"/>
<path d="M26.7031 33.9944H27.7432L31.1828 41.3684H30.1263L26.7031 33.9944Z" fill="white"/>
<path d="M34.8595 33.9944H35.8996L32.4671 41.3684H31.4199L34.8595 33.9944Z" fill="white"/>
<path d="M54.7812 42.2798H57.5447V43.2121H54.7812V42.2798Z" fill="white"/>
<path d="M58.374 33.9519H59.3038V41.4107H58.374V33.9519Z" fill="#F79345"/>
<path d="M60.1318 42.2798H62.8953V43.2121H60.1318V42.2798Z" fill="#F79345"/>
<path d="M84.71 33.9944H85.7501L89.1897 41.3684H88.1331L84.71 33.9944Z" fill="#F79345"/>
<path d="M92.8664 33.9944H93.9065L90.4739 41.3684H89.4268L92.8664 33.9944Z" fill="#F79345"/>
<path d="M103.546 40.8762H107.713V41.7662H103.546V40.8762Z" fill="#F79345"/>
<path d="M110.657 37.571H113.421V38.5034H110.657V37.571Z" fill="#F79345"/>
<path d="M89.2109 100.49H93.6061V101.364H89.2109V100.49ZM90.9507 98.7717H91.8711V103.12H90.9507V98.7717Z" fill="#F79345"/>
<path d="M122.808 37.571H125.571V38.5034H122.808V37.571Z" fill="#F79345"/>
<path d="M14.5977 45.2957H15.6378L19.0774 52.6697H18.0208L14.5977 45.2957Z" fill="white"/>
<path d="M19.7373 52.1775H23.9048V53.0675H19.7373V52.1775Z" fill="white"/>
<path d="M28.0031 45.2957H29.0432L25.6106 52.6697H24.5635L28.0031 45.2957Z" fill="white"/>
<path d="M53.1117 50.4988C52.8393 49.809 52.7031 49.0979 52.7031 48.3704C52.7031 47.8878 52.7618 47.4075 52.8816 46.9342C53.0013 46.461 53.1797 46.0019 53.4216 45.5545C53.6634 45.1096 53.9639 44.6905 54.3278 44.302H55.4454C55.0886 44.6975 54.7951 45.1143 54.5626 45.5498C54.3302 45.9854 54.1611 46.4374 54.0508 46.906C53.9404 47.3745 53.8864 47.8595 53.8864 48.361C53.8864 49.0767 54.0156 49.7807 54.2715 50.4753C54.5274 51.1698 54.9195 51.8432 55.4454 52.4953H54.3278C53.7902 51.8549 53.384 51.1886 53.1117 50.4988Z" fill="white"/>
<path d="M56.6826 52.1775H60.8501V53.0675H56.6826V52.1775Z" fill="#F79345"/>
<path d="M64.4197 46.2985C64.6921 46.9884 64.8282 47.6994 64.8282 48.4269C64.8282 48.9096 64.7695 49.3899 64.6498 49.8631C64.5301 50.3363 64.3516 50.7978 64.1098 51.2428C63.868 51.6878 63.5674 52.1069 63.2035 52.4953H62.0859C62.4428 52.0998 62.7363 51.6831 62.9687 51.2475C63.2012 50.8119 63.3702 50.3599 63.4806 49.8914C63.5909 49.4228 63.6449 48.9378 63.6449 48.4363C63.6449 47.7206 63.5158 47.0166 63.2599 46.3221C63.004 45.6275 62.6119 44.9542 62.0859 44.302H63.2035C63.7412 44.9424 64.1474 45.6087 64.4197 46.2985Z" fill="#F79345"/>
<path d="M88.3535 45.2957H89.3936L92.8332 52.6697H91.7767L88.3535 45.2957Z" fill="#F79345"/>
<path d="M93.4922 52.1775H97.6596V53.0675H93.4922V52.1775Z" fill="#F79345"/>
<path d="M101.76 45.2957H102.8L99.3675 52.6697H98.3203L101.76 45.2957Z" fill="#F79345"/>
<path d="M104.219 50.3906H105.555V51.695H104.219V50.3906Z" fill="#F79345"/>
<path d="M111.725 47.4404H113.061V48.7448H111.725V47.4404ZM111.725 50.3905H113.061V51.6948H111.725V50.3905Z" fill="#F79345"/>
<path d="M119.332 48.8718H122.095V49.8042H119.332V48.8718Z" fill="#F79345"/>
<path d="M136.487 47.8973L137.391 46.8896L137.492 47.0591L136.156 46.753L136.436 45.9572L137.645 46.4917L137.492 46.5859L137.356 45.2556H138.201L138.065 46.5859L137.922 46.4917L139.131 45.9572L139.401 46.753L138.091 47.0497L138.159 46.8896L139.079 47.8973L138.377 48.3729L137.701 47.2192H137.861L137.185 48.3729L136.483 47.8973H136.487Z" fill="#F79345"/>
<path d="M23.5654 55.4243H24.4952V62.8831H23.5654V55.4243Z" fill="white"/>
<path d="M58.1104 55.4243H59.0401V62.8831H58.1104V55.4243Z" fill="#F79345"/>
<path d="M92.6377 62.3486H96.8051V63.2386H92.6377V62.3486Z" fill="#F79345"/>
<path d="M98.2939 59.043H101.057V59.9753H98.2939V59.043Z" fill="#F79345"/>
<path d="M106.246 58.551H110.641V59.4245H106.246V58.551ZM107.988 56.8323H108.909V61.1809H107.988V56.8323Z" fill="#F79345"/>
<path d="M116.067 60.5618H117.403V61.8661H116.067V60.5618Z" fill="#F79345"/>
<path d="M23.5654 65.5955H24.4952V73.0542H23.5654V65.5955Z" fill="white"/>
<path d="M26.5244 72.5198H30.6919V73.4097H26.5244V72.5198Z" fill="white"/>
<path d="M58.1699 65.5955H59.0997V73.0542H58.1699V65.5955Z" fill="#F79345"/>
<path d="M87.3389 72.5198H91.5063V73.4097H87.3389V72.5198Z" fill="#F79345"/>
<path d="M93.3135 70.7327H94.6494V72.037H93.3135V70.7327Z" fill="#F79345"/>
<path d="M100.499 69.2141H103.262V70.1465H100.499V69.2141Z" fill="#F79345"/>
<path d="M125.614 68.2393L126.518 67.2316L126.619 67.4011L125.283 67.0951L125.563 66.2993L126.772 66.8337L126.619 66.9279L126.483 65.5977H127.328L127.192 66.9279L127.049 66.8337L128.258 66.2993L128.528 67.0951L127.218 67.3917L127.286 67.2316L128.206 68.2393L127.504 68.7149L126.828 67.5612H126.988L126.312 68.7149L125.61 68.2393H125.614Z" fill="#F79345"/>
<path d="M29.5771 75.8086H30.6173L34.0569 83.1826H33.0003L29.5771 75.8086Z" fill="white"/>
<path d="M34.7139 82.6904H38.8813V83.5804H34.7139V82.6904Z" fill="white"/>
<path d="M58.1621 75.7661H59.0919V83.2249H58.1621V75.7661Z" fill="#F79345"/>
<path d="M76.0977 82.6904H80.2651V83.5804H76.0977V82.6904Z" fill="#F79345"/>
<path d="M85.4961 79.3853H88.2595V80.3176H85.4961V79.3853Z" fill="#F79345"/>
<path d="M91.915 79.3853H94.6785V80.3176H91.915V79.3853Z" fill="#F79345"/>
<path d="M99.9023 82.6904H104.07V83.5804H99.9023V82.6904Z" fill="#F79345"/>
<path d="M119.105 79.3853H121.869V80.3176H119.105V79.3853Z" fill="#F79345"/>
<path d="M135.239 80.9036H136.575V82.2079H135.239V80.9036Z" fill="#F79345"/>
<path d="M40.8096 85.9797H41.8497L45.2893 93.3537H44.2327L40.8096 85.9797Z" fill="white"/>
<path d="M45.9492 92.8616H50.1167V93.7515H45.9492V92.8616Z" fill="white"/>
<path d="M58.2891 85.9373H59.2188V93.396H58.2891V85.9373Z" fill="#F79345"/>
<path d="M64.9932 92.8616H69.1606V93.7515H64.9932V92.8616Z" fill="#F79345"/>
<path d="M73.9521 89.0639H78.3473V89.9374H73.9521V89.0639ZM75.6919 87.3452H76.6123V91.6938H75.6919V87.3452Z" fill="#F79345"/>
<path d="M80.8584 92.8616H85.0258V93.7515H80.8584V92.8616Z" fill="#F79345"/>
<path d="M87.9463 88.5811L88.8502 87.5734L88.9512 87.7429L87.6152 87.4369L87.8946 86.6411L89.1038 87.1755L88.9512 87.2697L88.815 85.9395H89.6602L89.524 87.2697L89.3808 87.1755L90.59 86.6411L90.86 87.4369L89.5499 87.7335L89.618 87.5734L90.5383 88.5811L89.8363 89.0567L89.1601 87.903H89.3198L88.6436 89.0567L87.9416 88.5811H87.9463Z" fill="#F79345"/>
<path d="M52.041 96.1509H53.0811L56.5207 103.525H55.4642L52.041 96.1509Z" fill="white"/>
<path d="M58.1367 96.1084H59.0665V103.567H58.1367V96.1084Z" fill="#F79345"/>
<path d="M64.1115 96.1509H65.1516L61.719 103.525H60.6719L64.1115 96.1509Z" fill="#F79345"/>
<path d="M69.9961 99.7273H72.7595V100.66H69.9961V99.7273Z" fill="#F79345"/>
<path d="M77.9824 103.033H82.1499V103.923H77.9824V103.033Z" fill="#F79345"/>
<path d="M102.97 103.569H105.733V104.501H102.97V103.569Z" fill="#F79345"/>
</g>
<defs>
<clipPath id="clip0_6388_3107">
<rect width="133" height="105" fill="white" transform="translate(6.37598 3.97754)"/>
</clipPath>
</defs>
</svg>
