<svg width="145" height="113" viewBox="0 0 145 113" fill="none" xmlns="http://www.w3.org/2000/svg">
<g clip-path="url(#clip0_6388_2283)">
<g clip-path="url(#clip1_6388_2283)">
<path d="M119.452 19.3455H122.57V20.0135H119.452V19.3455Z" fill="white"/>
<path d="M123.381 19.3455H126.498V20.0135H123.381V19.3455Z" fill="white"/>
<path d="M127.305 19.3455H130.422V20.0135H127.305V19.3455Z" fill="white"/>
<path d="M117.397 21.7827H118.093V27.3818H117.397V21.7827Z" fill="white"/>
<path d="M131.53 21.7827H132.226V27.3818H131.53V21.7827Z" fill="white"/>
<path d="M117.429 29.4175H118.124V35.0165H117.429V29.4175Z" fill="white"/>
<path d="M131.56 29.4175H132.255V35.0165H131.56V29.4175Z" fill="white"/>
<path d="M134.079 32.1345H136.146V32.8344H134.079V32.1345Z" fill="white"/>
<path d="M137.554 32.1345H139.621V32.8344H137.554V32.1345Z" fill="white"/>
<path d="M141.033 32.1345H143.1V32.8344H141.033V32.1345Z" fill="white"/>
<path d="M144.511 32.1345H146.578V32.8344H144.511V32.1345Z" fill="white"/>
<path d="M117.461 37.0527H118.156V42.6518H117.461V37.0527Z" fill="white"/>
<path d="M131.594 37.0527H132.289V42.6518H131.594V37.0527Z" fill="white"/>
<path d="M117.492 44.6875H118.188V50.2865H117.492V44.6875Z" fill="white"/>
<path d="M131.623 44.6875H132.319V50.2865H131.623V44.6875Z" fill="white"/>
<path d="M117.521 52.3232H118.217V57.9223H117.521V52.3232Z" fill="white"/>
<path d="M131.653 52.3232H132.349V57.9223H131.653V52.3232Z" fill="white"/>
<path d="M117.554 59.9583H118.249V65.5573H117.554V59.9583Z" fill="white"/>
<path d="M131.685 59.9583H132.38V65.5573H131.685V59.9583Z" fill="white"/>
<path d="M117.586 67.593H118.281V73.1921H117.586V67.593Z" fill="white"/>
<path d="M131.718 67.593H132.413V73.1921H131.718V67.593Z" fill="white"/>
<path d="M117.617 75.2283H118.313V80.8273H117.617V75.2283Z" fill="white"/>
<path d="M131.748 75.2283H132.444V80.8273H131.748V75.2283Z" fill="white"/>
<path d="M133.961 80.426H137.079V81.0941H133.961V80.426Z" fill="white"/>
<path d="M137.887 80.426H141.004V81.0941H137.887V80.426Z" fill="white"/>
<path d="M141.814 80.426H144.932V81.0941H141.814V80.426Z" fill="white"/>
<path d="M117.648 82.8633H118.344V88.4623H117.648V82.8633Z" fill="white"/>
<path d="M131.779 82.8633H132.475V88.4623H131.779V82.8633Z" fill="white"/>
<path d="M117.681 90.498H118.376V96.0971H117.681V90.498Z" fill="white"/>
<path d="M119.893 95.6963H123.01V96.3644H119.893V95.6963Z" fill="white"/>
<path d="M123.818 95.696H126.936V96.3641H123.818V95.696Z" fill="white"/>
<path d="M127.745 95.696H130.863V96.3641H127.745V95.696Z" fill="white"/>
<path d="M132.386 90.498H133.081V96.0971H132.386V90.498Z" fill="white"/>
<path d="M59.1201 5.33569H62.2377V6.00376H59.1201V5.33569Z" fill="#FF943F"/>
<path d="M85.4551 5.33569H88.5727V6.00376H85.4551V5.33569Z" fill="#FF943F"/>
<path d="M55.7752 7.80518H56.5533L53.9855 13.3406H53.2021L55.7752 7.80518Z" fill="#FF943F"/>
<path d="M62.2812 7.80518H63.0593L65.6324 13.3406H64.842L62.2812 7.80518Z" fill="#FF943F"/>
<path d="M85.0868 7.80518H85.8648L83.297 13.3406H82.5137L85.0868 7.80518Z" fill="#FF943F"/>
<path d="M91.5938 7.80518H92.3718L94.9449 13.3406H94.1546L91.5938 7.80518Z" fill="#FF943F"/>
<path d="M50.1727 15.4399H50.9508L48.383 20.9754H47.5996L50.1727 15.4399Z" fill="#FF943F"/>
<path d="M65.9863 15.7898H66.9418V16.6417H65.9863V15.7898Z" fill="#FF943F"/>
<path d="M68.5713 18.1248H70.6386V18.8246H68.5713V18.1248Z" fill="#FF943F"/>
<path d="M72.0498 18.1248H74.1171V18.8246H72.0498V18.1248Z" fill="#FF943F"/>
<path d="M75.5273 18.1248H77.5946V18.8246H75.5273V18.1248Z" fill="#FF943F"/>
<path d="M79.2148 15.7898H80.1703V16.6417H79.2148V15.7898Z" fill="#FF943F"/>
<path d="M95.1094 15.4399H95.8875L98.4606 20.9754H97.6702L95.1094 15.4399Z" fill="#FF943F"/>
<path d="M47.3719 23.075H48.15L45.5822 28.6104H44.7988L47.3719 23.075Z" fill="#FF943F"/>
<path d="M98.6934 23.075H99.4714L102.045 28.6104H101.254L98.6934 23.075Z" fill="#FF943F"/>
<path d="M44.5711 30.71H45.3492L42.7814 36.2454H41.998L44.5711 30.71Z" fill="#FF943F"/>
<path d="M101.495 30.71H102.273L104.846 36.2454H104.056L101.495 30.71Z" fill="#FF943F"/>
<path d="M41.7694 38.345H42.5475L39.9796 43.8804H39.1963L41.7694 38.345Z" fill="#FF943F"/>
<path d="M104.296 38.345H105.074L107.647 43.8804H106.857L104.296 38.345Z" fill="#FF943F"/>
<path d="M39.2227 45.9805H40.0007L42.5738 51.5159H41.7835L39.2227 45.9805Z" fill="#FF943F"/>
<path d="M106.847 45.9805H107.625L105.057 51.5159H104.273L106.847 45.9805Z" fill="#FF943F"/>
<path d="M41.9219 53.6155H42.7L45.2731 59.1509H44.4827L41.9219 53.6155Z" fill="#FF943F"/>
<path d="M103.941 53.6155H104.719L102.152 59.1509H101.368L103.941 53.6155Z" fill="#FF943F"/>
<path d="M47.5244 61.2502H48.3025L50.8756 66.7857H50.0852L47.5244 61.2502Z" fill="#FF943F"/>
<path d="M51.3682 66.4163H54.4857V67.0843H51.3682V66.4163Z" fill="#FF943F"/>
<path d="M64.1641 65.0732H65.1634V66.0524H64.1641V65.0732Z" fill="#FF943F"/>
<path d="M80.9092 65.0732H81.9086V66.0524H80.9092V65.0732Z" fill="#FF943F"/>
<path d="M94.3828 66.4163H97.5004V67.0843H94.3828V66.4163Z" fill="#FF943F"/>
<path d="M100.567 61.2502H101.345L98.7775 66.7857H97.9941L100.567 61.2502Z" fill="#FF943F"/>
<path d="M55.9258 68.8857H56.7039L59.277 74.4212H58.4866L55.9258 68.8857Z" fill="#FF943F"/>
<path d="M60.3135 72.7085H61.3129V73.6876H60.3135V72.7085Z" fill="#FF943F"/>
<path d="M63.2051 72.7085H64.2045V73.6876H63.2051V72.7085Z" fill="#FF943F"/>
<path d="M65.5488 74.0513H68.6664V74.7193H65.5488V74.0513Z" fill="#FF943F"/>
<path d="M77.8799 74.0513H80.9975V74.7193H77.8799V74.0513Z" fill="#FF943F"/>
<path d="M82.3506 72.7085H83.35V73.6876H82.3506V72.7085Z" fill="#FF943F"/>
<path d="M85.2402 72.7085H86.2396V73.6876H85.2402V72.7085Z" fill="#FF943F"/>
<path d="M89.8417 68.8857H90.6197L88.0519 74.4212H87.2686L89.8417 68.8857Z" fill="#FF943F"/>
<path d="M50.7773 24.5591H51.4729V30.1581H50.7773V24.5591Z" fill="#FF943F"/>
<path d="M52.9912 29.7568H56.1088V30.4249H52.9912V29.7568Z" fill="#FF943F"/>
<path d="M56.9199 29.7568H60.0375V30.4249H56.9199V29.7568Z" fill="#FF943F"/>
<path d="M60.8447 29.7568H63.9623V30.4249H60.8447V29.7568Z" fill="#FF943F"/>
<path d="M78.7764 29.7568H81.8939V30.4249H78.7764V29.7568Z" fill="#FF943F"/>
<path d="M82.7021 29.7568H85.8197V30.4249H82.7021V29.7568Z" fill="#FF943F"/>
<path d="M86.6299 29.7568H89.7475V30.4249H86.6299V29.7568Z" fill="#FF943F"/>
<path d="M91.2686 24.5591H91.9641V30.1581H91.2686V24.5591Z" fill="#FF943F"/>
<path d="M66.4795 32.2261H67.2576L69.8307 37.7615H69.0403L66.4795 32.2261Z" fill="#FF943F"/>
<path d="M78.0819 32.2261H78.86L76.2921 37.7615H75.5088L78.0819 32.2261Z" fill="#FF943F"/>
<path d="M52.8652 45.0269H55.9828V45.6949H52.8652V45.0269Z" fill="#FF943F"/>
<path d="M56.79 45.0269H59.9076V45.6949H56.79V45.0269Z" fill="#FF943F"/>
<path d="M60.7178 45.0269H63.8353V45.6949H60.7178V45.0269Z" fill="#FF943F"/>
<path d="M66.9032 39.8608H67.6813L65.1134 45.3963H64.3301L66.9032 39.8608Z" fill="#FF943F"/>
<path d="M68.1982 45.0269H71.3158V45.6949H68.1982V45.0269Z" fill="#FF943F"/>
<path d="M72.124 45.0269H75.2416V45.6949H72.124V45.0269Z" fill="#FF943F"/>
<path d="M76.0508 45.0269H79.1684V45.6949H76.0508V45.0269Z" fill="#FF943F"/>
<path d="M79.6865 39.8608H80.4646L83.0377 45.3963H82.2473L79.6865 39.8608Z" fill="#FF943F"/>
<path d="M83.5332 45.0269H86.6508V45.6949H83.5332V45.0269Z" fill="#FF943F"/>
<path d="M87.459 45.0269H90.5766V45.6949H87.459V45.0269Z" fill="#FF943F"/>
<path d="M91.3848 45.0269H94.5023V45.6949H91.3848V45.0269Z" fill="#FF943F"/>
<path d="M49.5184 47.6375H50.2965L47.7287 53.1729H46.9453L49.5184 47.6375Z" fill="#FF943F"/>
<path d="M68.3623 47.6375H69.1404L71.7135 53.1729H70.9231L68.3623 47.6375Z" fill="#FF943F"/>
<path d="M77.1639 47.6375H77.942L75.3742 53.1729H74.5908L77.1639 47.6375Z" fill="#FF943F"/>
<path d="M94.873 47.6375H95.6511L98.2242 53.1729H97.4338L94.873 47.6375Z" fill="#FF943F"/>
<path d="M50.0654 58.989H53.183V59.6571H50.0654V58.989Z" fill="#FF943F"/>
<path d="M64.2715 53.8228H65.0496L67.6227 59.3582H66.8323L64.2715 53.8228Z" fill="#FF943F"/>
<path d="M68.1162 58.989H71.2338V59.6571H68.1162V58.989Z" fill="#FF943F"/>
<path d="M72.7588 53.7913H73.4543V59.3903H72.7588V53.7913Z" fill="#FF943F"/>
<path d="M74.9697 58.989H78.0873V59.6571H74.9697V58.989Z" fill="#FF943F"/>
<path d="M81.1522 53.8228H81.9303L79.3625 59.3582H78.5791L81.1522 53.8228Z" fill="#FF943F"/>
<path d="M90.8545 58.989H93.9721V59.6571H90.8545V58.989Z" fill="#FF943F"/>
<path d="M55.2754 60.009H56.0535L58.6266 65.5444H57.8362L55.2754 60.009Z" fill="#FF943F"/>
<path d="M59.1172 65.1746H62.2348V65.8426H59.1172V65.1746Z" fill="#FF943F"/>
<path d="M82.6523 65.1746H85.7699V65.8426H82.6523V65.1746Z" fill="#FF943F"/>
<path d="M88.8348 60.009H89.6129L87.0451 65.5444H86.2617L88.8348 60.009Z" fill="#FF943F"/>
<path d="M59.0611 42.6242C58.7538 42.4315 58.5131 42.1594 58.341 41.8076C58.1689 41.4559 58.0811 41.053 58.0811 40.5988C58.0811 40.1446 58.1671 39.7416 58.341 39.3899C58.5131 39.0382 58.7538 38.766 59.0611 38.5716C59.3685 38.3772 59.7233 38.2817 60.1237 38.2817C60.5242 38.2817 60.8807 38.3789 61.1916 38.5716C61.5042 38.7642 61.7466 39.0364 61.9188 39.3899C62.0909 39.7416 62.1787 40.1446 62.1787 40.5988C62.1787 41.053 62.0926 41.4559 61.9188 41.8076C61.7466 42.1594 61.5042 42.4315 61.1916 42.6242C60.879 42.8168 60.5242 42.914 60.1237 42.914C59.7233 42.914 59.3685 42.8168 59.0611 42.6242ZM60.749 41.9685C60.9264 41.843 61.0616 41.6627 61.1565 41.4277C61.2513 41.1926 61.2987 40.9134 61.2987 40.5917C61.2987 40.27 61.2513 39.9979 61.1565 39.7646C61.0616 39.5313 60.9264 39.3528 60.749 39.2273C60.5716 39.1018 60.3626 39.0399 60.1237 39.0399C59.8849 39.0399 59.6829 39.1018 59.5072 39.2273C59.3316 39.3528 59.1964 39.5313 59.0998 39.7646C59.0032 39.9979 58.954 40.2736 58.954 40.5917C58.954 40.9098 59.0032 41.1926 59.0998 41.4277C59.1964 41.6627 59.3334 41.843 59.5072 41.9685C59.6829 42.094 59.8884 42.1558 60.1237 42.1558C60.3591 42.1558 60.5734 42.094 60.749 41.9685Z" fill="#FF943F"/>
<path d="M83.234 42.6242C82.9266 42.4315 82.686 42.1594 82.5138 41.8076C82.3417 41.4559 82.2539 41.053 82.2539 40.5988C82.2539 40.1446 82.34 39.7416 82.5138 39.3899C82.686 39.0382 82.9266 38.766 83.234 38.5716C83.5413 38.3789 83.8961 38.2817 84.2966 38.2817C84.697 38.2817 85.0536 38.3789 85.3645 38.5716C85.6771 38.7642 85.9195 39.0364 86.0916 39.3899C86.2637 39.7416 86.3515 40.1446 86.3515 40.5988C86.3515 41.053 86.2655 41.4559 86.0916 41.8076C85.9177 42.1594 85.6771 42.4315 85.3645 42.6242C85.0518 42.8168 84.697 42.914 84.2966 42.914C83.8961 42.914 83.5413 42.8168 83.234 42.6242ZM84.9218 41.9685C85.0992 41.843 85.2345 41.6627 85.3293 41.4277C85.4242 41.1926 85.4716 40.9134 85.4716 40.5917C85.4716 40.27 85.4242 39.9979 85.3293 39.7646C85.2345 39.5313 85.0992 39.3528 84.9218 39.2273C84.7445 39.1018 84.5354 39.0399 84.2966 39.0399C84.0577 39.0399 83.8557 39.1018 83.6801 39.2273C83.5044 39.3528 83.3692 39.5313 83.2726 39.7646C83.176 39.9979 83.1268 40.2736 83.1268 40.5917C83.1268 40.9098 83.176 41.1926 83.2726 41.4277C83.3692 41.6627 83.5062 41.843 83.6801 41.9685C83.8557 42.094 84.0612 42.1558 84.2966 42.1558C84.5319 42.1558 84.7462 42.094 84.9218 41.9685Z" fill="#FF943F"/>
<path d="M43.9688 71.25H44.7468L47.3199 76.7854H46.5296L43.9688 71.25Z" fill="#FF943F"/>
<path d="M47.8135 76.416H50.9311V77.0841H47.8135V76.416Z" fill="#FF943F"/>
<path d="M96.5576 76.416H99.6752V77.0841H96.5576V76.416Z" fill="#FF943F"/>
<path d="M102.741 71.25H103.519L100.951 76.7854H100.168L102.741 71.25Z" fill="#FF943F"/>
<path d="M50.1592 82.6584L52.4038 81.4372L52.4109 81.6599L50.1592 80.4439V79.6362L52.9729 81.2074V81.8949L50.1592 83.4661V82.6584Z" fill="#FF943F"/>
<path d="M53.625 78.885H54.4031L56.9762 84.4204H56.1858L53.625 78.885Z" fill="#FF943F"/>
<path d="M56.6426 78.885H57.4207L59.9938 84.4204H59.2034L56.6426 78.885Z" fill="#FF943F"/>
<path d="M60.7832 82.6584L63.0279 81.4372L63.0349 81.6599L60.7832 80.4439V79.6362L63.5969 81.2074V81.8949L60.7832 83.4661V82.6584Z" fill="#FF943F"/>
<path d="M64.834 82.6584L67.0786 81.4372L67.0857 81.6599L64.834 80.4439V79.6362L67.6477 81.2074V81.8949L64.834 83.4661V82.6584Z" fill="#FF943F"/>
<path d="M68.8887 82.6584L71.1333 81.4372L71.1404 81.6599L68.8887 80.4439V79.6362L71.7024 81.2074V81.8949L68.8887 83.4661V82.6584Z" fill="#FF943F"/>
<path d="M73.1885 82.709H74.1879V83.6881H73.1885V82.709Z" fill="#FF943F"/>
<path d="M78.4797 83.4661L75.666 81.8949V81.2074L78.4797 79.6362V80.4439L76.2281 81.6599L76.2351 81.4372L78.4797 82.6584V83.4661Z" fill="#FF943F"/>
<path d="M82.5344 83.4661L79.7207 81.8949V81.2074L82.5344 79.6362V80.4439L80.2827 81.6599L80.2898 81.4372L82.5344 82.6584V83.4661Z" fill="#FF943F"/>
<path d="M86.5852 83.4661L83.7715 81.8949V81.2074L86.5852 79.6362V80.4439L84.3335 81.6599L84.3406 81.4372L86.5852 82.6584V83.4661Z" fill="#FF943F"/>
<path d="M89.95 78.885H90.7281L88.1603 84.4204H87.377L89.95 78.885Z" fill="#FF943F"/>
<path d="M92.9666 78.885H93.7447L91.1769 84.4204H90.3936L92.9666 78.885Z" fill="#FF943F"/>
<path d="M97.2073 83.4661L94.3936 81.8949V81.2074L97.2073 79.6362V80.4439L94.9556 81.6599L94.9626 81.4372L97.2073 82.6584V83.4661Z" fill="#FF943F"/>
<path d="M64.7967 86.52H65.5748L63.007 92.0554H62.2236L64.7967 86.52Z" fill="#FF943F"/>
<path d="M82.5068 86.52H83.2849L85.858 92.0554H85.0676L82.5068 86.52Z" fill="#FF943F"/>
<path d="M60.6426 94.1235H61.3381V99.7226H60.6426V94.1235Z" fill="#FF943F"/>
<path d="M85.9785 94.1235H86.674V99.7226H85.9785V94.1235Z" fill="#FF943F"/>
<path d="M62.248 101.79H63.0261L65.5992 107.325H64.8088L62.248 101.79Z" fill="#FF943F"/>
<path d="M66.0938 106.956H69.2113V107.624H66.0938V106.956Z" fill="#FF943F"/>
<path d="M70.0195 106.956H73.1371V107.624H70.0195V106.956Z" fill="#FF943F"/>
<path d="M73.9482 106.956H77.0658V107.624H73.9482V106.956Z" fill="#FF943F"/>
<path d="M77.874 106.956H80.9916V107.624H77.874V106.956Z" fill="#FF943F"/>
<path d="M84.0575 101.79H84.8356L82.2677 107.325H81.4844L84.0575 101.79Z" fill="#FF943F"/>
<path d="M78.3954 88.8406H79.1734L76.6056 94.376H75.8223L78.3954 88.8406Z" fill="white"/>
<path d="M68.582 96.4753H69.3601L71.9332 102.011H71.1428L68.582 96.4753Z" fill="white"/>
<path d="M74.6844 96.4753H75.4625L72.8947 102.011H72.1113L74.6844 96.4753Z" fill="white"/>
<path d="M15.9795 19.5098H19.0971V20.1778H15.9795V19.5098Z" fill="white"/>
<path d="M19.9043 19.5098H23.0219V20.1778H19.9043V19.5098Z" fill="white"/>
<path d="M23.8301 19.5098H26.9477V20.1778H23.8301V19.5098Z" fill="white"/>
<path d="M13.8926 21.9465H14.5881V27.5456H13.8926V21.9465Z" fill="white"/>
<path d="M28.0234 21.9465H28.719V27.5456H28.0234V21.9465Z" fill="white"/>
<path d="M1.99219 32.2981H4.05945V32.998H1.99219V32.2981Z" fill="white"/>
<path d="M5.46973 32.2981H7.53698V32.998H5.46973V32.2981Z" fill="white"/>
<path d="M8.94629 32.2981H11.0136V32.998H8.94629V32.2981Z" fill="white"/>
<path d="M12.835 29.5818H13.5305V35.1808H12.835V29.5818Z" fill="white"/>
<path d="M26.9668 29.5818H27.6623V35.1808H26.9668V29.5818Z" fill="white"/>
<path d="M13.8926 37.2168H14.5881V42.8158H13.8926V37.2168Z" fill="white"/>
<path d="M28.0234 37.2168H28.719V42.8158H28.0234V37.2168Z" fill="white"/>
<path d="M13.8926 44.8516H14.5881V50.4506H13.8926V44.8516Z" fill="white"/>
<path d="M28.0234 44.8516H28.719V50.4506H28.0234V44.8516Z" fill="white"/>
<path d="M13.8926 52.4875H14.5881V58.0866H13.8926V52.4875Z" fill="white"/>
<path d="M28.0234 52.4875H28.719V58.0866H28.0234V52.4875Z" fill="white"/>
<path d="M13.8926 60.1226H14.5881V65.7216H13.8926V60.1226Z" fill="white"/>
<path d="M28.0234 60.1226H28.719V65.7216H28.0234V60.1226Z" fill="white"/>
<path d="M13.8926 67.7571H14.5881V73.3561H13.8926V67.7571Z" fill="white"/>
<path d="M28.0234 67.7571H28.719V73.3561H28.0234V67.7571Z" fill="white"/>
<path d="M-0.77832 80.5903H2.33926V81.2584H-0.77832V80.5903Z" fill="white"/>
<path d="M3.14746 80.5903H6.26504V81.2584H3.14746V80.5903Z" fill="white"/>
<path d="M7.07422 80.5903H10.1918V81.2584H7.07422V80.5903Z" fill="white"/>
<path d="M14.5156 75.3923H15.2112V80.9914H14.5156V75.3923Z" fill="white"/>
<path d="M28.6475 75.3923H29.343V80.9914H28.6475V75.3923Z" fill="white"/>
<path d="M13.8926 83.0276H14.5881V88.6266H13.8926V83.0276Z" fill="white"/>
<path d="M28.0234 83.0276H28.719V88.6266H28.0234V83.0276Z" fill="white"/>
<path d="M13.8926 90.6626H14.5881V96.2616H13.8926V90.6626Z" fill="white"/>
<path d="M16.1035 95.8601H19.2211V96.5282H16.1035V95.8601Z" fill="white"/>
<path d="M20.0312 95.8601H23.1488V96.5282H20.0312V95.8601Z" fill="white"/>
<path d="M23.958 95.8601H27.0756V96.5282H23.958V95.8601Z" fill="white"/>
<path d="M28.5977 90.6626H29.2932V96.2616H28.5977V90.6626Z" fill="white"/>
</g>
</g>
<defs>
<clipPath id="clip0_6388_2283">
<rect x="0.768555" y="0.477539" width="144" height="112" rx="7.5267" fill="white"/>
</clipPath>
<clipPath id="clip1_6388_2283">
<rect width="247.424" height="115" fill="white" transform="translate(-50.9434 -7.00952)"/>
</clipPath>
</defs>
</svg>
