<svg width="145" height="113" viewBox="0 0 145 113" fill="none" xmlns="http://www.w3.org/2000/svg">
<g clip-path="url(#clip0_6388_2706)">
<g clip-path="url(#clip1_6388_2706)">
<path d="M88.0859 8.99048H91.5164V9.72809H88.0859V8.99048Z" fill="white"/>
<path d="M92.4053 8.99048H95.8357V9.72809H92.4053V8.99048Z" fill="white"/>
<path d="M96.7275 8.99048H100.158V9.72809H96.7275V8.99048Z" fill="white"/>
<path d="M101.046 8.99048H104.476V9.72809H101.046V8.99048Z" fill="white"/>
<path d="M105.367 8.99048H108.798V9.72809H105.367V8.99048Z" fill="white"/>
<path d="M109.689 8.99048H113.12V9.72809H109.689V8.99048Z" fill="white"/>
<path d="M114.009 8.99048H117.439V9.72809H114.009V8.99048Z" fill="white"/>
<path d="M118.33 8.99048H121.761V9.72809H118.33V8.99048Z" fill="white"/>
<path d="M122.648 8.99048H126.079V9.72809H122.648V8.99048Z" fill="white"/>
<path d="M126.971 8.99048H130.401V9.72809H126.971V8.99048Z" fill="white"/>
<path d="M85.79 11.6814H86.5554V17.8633H85.79V11.6814Z" fill="white"/>
<path d="M94.2783 17.4204H97.7088V18.158H94.2783V17.4204Z" fill="white"/>
<path d="M98.542 17.4204H101.972V18.158H98.542V17.4204Z" fill="white"/>
<path d="M102.806 17.4204H106.236V18.158H102.806V17.4204Z" fill="white"/>
<path d="M107.072 17.4204H110.503V18.158H107.072V17.4204Z" fill="white"/>
<path d="M111.337 17.4204H114.767V18.158H111.337V17.4204Z" fill="white"/>
<path d="M115.604 17.4204H119.034V18.158H115.604V17.4204Z" fill="white"/>
<path d="M132.76 11.6814H133.525V17.8633H132.76V11.6814Z" fill="white"/>
<path d="M23.3604 25.8501H26.7908V26.5877H23.3604V25.8501Z" fill="white"/>
<path d="M27.6797 25.8501H31.1101V26.5877H27.6797V25.8501Z" fill="white"/>
<path d="M32 25.8501H35.4304V26.5877H32V25.8501Z" fill="white"/>
<path d="M36.3213 25.8501H39.7517V26.5877H36.3213V25.8501Z" fill="white"/>
<path d="M40.6416 25.8501H44.072V26.5877H40.6416V25.8501Z" fill="white"/>
<path d="M44.9629 25.8501H48.3933V26.5877H44.9629V25.8501Z" fill="white"/>
<path d="M49.2822 25.8501H52.7127V26.5877H49.2822V25.8501Z" fill="white"/>
<path d="M53.6025 25.8501H57.033V26.5877H53.6025V25.8501Z" fill="white"/>
<path d="M57.9248 25.8501H61.3552V26.5877H57.9248V25.8501Z" fill="white"/>
<path d="M62.2451 25.8501H65.6756V26.5877H62.2451V25.8501Z" fill="white"/>
<path d="M66.5654 25.8501H69.9959V26.5877H66.5654V25.8501Z" fill="white"/>
<path d="M70.8857 25.8501H74.3162V26.5877H70.8857V25.8501Z" fill="white"/>
<path d="M75.8057 24.3672H76.9053V25.4482H75.8057V24.3672Z" fill="white"/>
<path d="M78.9854 24.3672H80.085V25.4482H78.9854V24.3672Z" fill="white"/>
<path d="M82.1641 24.3672H83.2637V25.4482H82.1641V24.3672Z" fill="white"/>
<path d="M85.5312 20.1113H86.2966V26.2932H85.5312V20.1113Z" fill="white"/>
<path d="M94.4648 23.1104H96.7396V23.8831H94.4648V23.1104Z" fill="white"/>
<path d="M98.293 23.1104H100.568V23.8831H98.293V23.1104Z" fill="white"/>
<path d="M102.119 23.1104H104.394V23.8831H102.119V23.1104Z" fill="white"/>
<path d="M105.945 23.1104H108.22V23.8831H105.945V23.1104Z" fill="white"/>
<path d="M109.771 23.1104H112.046V23.8831H109.771V23.1104Z" fill="white"/>
<path d="M113.6 23.1104H115.874V23.8831H113.6V23.1104Z" fill="white"/>
<path d="M133.288 20.1113H134.053V26.2932H133.288V20.1113Z" fill="white"/>
<path d="M21.0645 28.5413H21.8298V34.7231H21.0645V28.5413Z" fill="white"/>
<path d="M23.832 31.5403H26.1068V32.313H23.832V31.5403Z" fill="white"/>
<path d="M27.6602 31.5403H29.9349V32.313H27.6602V31.5403Z" fill="white"/>
<path d="M31.4863 31.5403H33.7611V32.313H31.4863V31.5403Z" fill="white"/>
<path d="M35.3125 31.5403H37.5872V32.313H35.3125V31.5403Z" fill="white"/>
<path d="M39.1396 31.5403H41.4144V32.313H39.1396V31.5403Z" fill="white"/>
<path d="M42.9668 31.5403H45.2415V32.313H42.9668V31.5403Z" fill="white"/>
<path d="M46.793 31.5403H49.0677V32.313H46.793V31.5403Z" fill="white"/>
<path d="M50.6191 31.5403H52.8939V32.313H50.6191V31.5403Z" fill="white"/>
<path d="M54.4463 31.5403H56.721V32.313H54.4463V31.5403Z" fill="white"/>
<path d="M58.2734 31.5403H60.5482V32.313H58.2734V31.5403Z" fill="white"/>
<path d="M62.0996 31.5403H64.3743V32.313H62.0996V31.5403Z" fill="white"/>
<path d="M65.9258 31.5403H68.2005V32.313H65.9258V31.5403Z" fill="white"/>
<path d="M69.7539 31.5403H72.0286V32.313H69.7539V31.5403Z" fill="white"/>
<path d="M73.5791 31.5403H75.8538V32.313H73.5791V31.5403Z" fill="white"/>
<path d="M77.4062 31.5403H79.681V32.313H77.4062V31.5403Z" fill="white"/>
<path d="M81.2324 31.5403H83.5071V32.313H81.2324V31.5403Z" fill="white"/>
<path d="M85.5117 28.5413H86.277V34.7231H85.5117V28.5413Z" fill="white"/>
<path d="M94.4434 31.5403H96.7181V32.313H94.4434V31.5403Z" fill="white"/>
<path d="M98.2715 31.5403H100.546V32.313H98.2715V31.5403Z" fill="white"/>
<path d="M102.098 31.5403H104.372V32.313H102.098V31.5403Z" fill="white"/>
<path d="M105.925 31.5403H108.2V32.313H105.925V31.5403Z" fill="white"/>
<path d="M133.184 28.5413H133.949V34.7231H133.184V28.5413Z" fill="white"/>
<path d="M21.0645 36.9707H21.8298V43.1526H21.0645V36.9707Z" fill="white"/>
<path d="M24.2852 36.9707H25.0505V43.1526H24.2852V36.9707Z" fill="white"/>
<path d="M86.0674 36.9707H86.8327V43.1526H86.0674V36.9707Z" fill="white"/>
<path d="M134.02 36.9707H134.785V43.1526H134.02V36.9707Z" fill="white"/>
<path d="M21.0645 45.4006H21.8298V51.5825H21.0645V45.4006Z" fill="white"/>
<path d="M24.2852 45.4006H25.0505V51.5825H24.2852V45.4006Z" fill="white"/>
<path d="M86.0674 45.4006H86.8327V51.5825H86.0674V45.4006Z" fill="white"/>
<path d="M133.872 45.4006H134.637V51.5825H133.872V45.4006Z" fill="white"/>
<path d="M21.0645 53.8306H21.8298V60.0124H21.0645V53.8306Z" fill="white"/>
<path d="M24.2852 53.8306H25.0505V60.0124H24.2852V53.8306Z" fill="white"/>
<path d="M86.0674 53.8306H86.8327V60.0124H86.0674V53.8306Z" fill="white"/>
<path d="M126.058 28.5762H126.914L124.089 34.6878H123.227L126.058 28.5762Z" fill="#FF943F"/>
<path d="M120.973 37.0061H121.829L119.004 43.1177H118.142L120.973 37.0061Z" fill="#FF943F"/>
<path d="M103.48 45.436H104.337L107.168 51.5477H106.298L103.48 45.436Z" fill="#FF943F"/>
<path d="M116.247 45.436H117.103L114.278 51.5477H113.416L116.247 45.436Z" fill="#FF943F"/>
<path d="M106.563 53.8655H107.42L110.251 59.9771H109.381L106.563 53.8655Z" fill="#FF943F"/>
<path d="M113.277 53.8655H114.133L111.307 59.9771H110.445L113.277 53.8655Z" fill="#FF943F"/>
<path d="M133.984 53.8306H134.75V60.0124H133.984V53.8306Z" fill="white"/>
<path d="M21.0645 62.2605H21.8298V68.4424H21.0645V62.2605Z" fill="white"/>
<path d="M24.2852 62.2605H25.0505V68.4424H24.2852V62.2605Z" fill="white"/>
<path d="M86.0674 62.2605H86.8327V68.4424H86.0674V62.2605Z" fill="white"/>
<path d="M88.5029 67.9993H91.9334V68.7369H88.5029V67.9993Z" fill="white"/>
<path d="M92.8223 67.9993H96.2527V68.7369H92.8223V67.9993Z" fill="white"/>
<path d="M97.1445 67.9993H100.575V68.7369H97.1445V67.9993Z" fill="white"/>
<path d="M101.464 67.9993H104.894V68.7369H101.464V67.9993Z" fill="white"/>
<path d="M105.785 67.9993H109.216V68.7369H105.785V67.9993Z" fill="white"/>
<path d="M110.106 67.9993H113.537V68.7369H110.106V67.9993Z" fill="white"/>
<path d="M114.427 67.9993H117.857V68.7369H114.427V67.9993Z" fill="white"/>
<path d="M118.747 67.9993H122.178V68.7369H118.747V67.9993Z" fill="white"/>
<path d="M123.066 67.9993H126.497V68.7369H123.066V67.9993Z" fill="white"/>
<path d="M127.389 67.9993H130.819V68.7369H127.389V67.9993Z" fill="white"/>
<path d="M133.977 62.2605H134.742V68.4424H133.977V62.2605Z" fill="white"/>
<path d="M21.0645 70.6902H21.8298V76.8721H21.0645V70.6902Z" fill="white"/>
<path d="M24.2852 70.6902H25.0505V76.8721H24.2852V70.6902Z" fill="white"/>
<path d="M26.7207 76.4292H30.1511V77.1668H26.7207V76.4292Z" fill="white"/>
<path d="M31.0391 76.4292H34.4695V77.1668H31.0391V76.4292Z" fill="white"/>
<path d="M35.3613 76.4292H38.7918V77.1668H35.3613V76.4292Z" fill="white"/>
<path d="M39.6816 76.4292H43.1121V77.1668H39.6816V76.4292Z" fill="white"/>
<path d="M44.002 76.4292H47.4324V77.1668H44.002V76.4292Z" fill="white"/>
<path d="M48.3242 76.4292H51.7547V77.1668H48.3242V76.4292Z" fill="white"/>
<path d="M52.6426 76.4292H56.073V77.1668H52.6426V76.4292Z" fill="white"/>
<path d="M56.9648 76.4292H60.3953V77.1668H56.9648V76.4292Z" fill="white"/>
<path d="M61.2842 76.4292H64.7146V77.1668H61.2842V76.4292Z" fill="white"/>
<path d="M65.6055 76.4292H69.0359V77.1668H65.6055V76.4292Z" fill="white"/>
<path d="M69.9268 76.4292H73.3572V77.1668H69.9268V76.4292Z" fill="white"/>
<path d="M74.2461 76.4292H77.6765V77.1668H74.2461V76.4292Z" fill="white"/>
<path d="M78.5674 76.4292H81.9978V77.1668H78.5674V76.4292Z" fill="white"/>
<path d="M82.8877 76.4292H86.3181V77.1668H82.8877V76.4292Z" fill="white"/>
<path d="M87.208 76.4292H90.6384V77.1668H87.208V76.4292Z" fill="white"/>
<path d="M91.5293 76.4292H94.9597V77.1668H91.5293V76.4292Z" fill="white"/>
<path d="M95.8496 76.4292H99.2801V77.1668H95.8496V76.4292Z" fill="white"/>
<path d="M100.171 76.4292H103.601V77.1668H100.171V76.4292Z" fill="white"/>
<path d="M105.09 74.946H106.19V76.0271H105.09V74.946Z" fill="white"/>
<path d="M108.268 74.946H109.367V76.0271H108.268V74.946Z" fill="white"/>
<path d="M111.638 70.6902H112.403V76.8721H111.638V70.6902Z" fill="white"/>
<path d="M114.856 70.6902H115.622V76.8721H114.856V70.6902Z" fill="white"/>
<path d="M21.0645 79.1199H21.8298V85.3017H21.0645V79.1199Z" fill="white"/>
<path d="M23.499 84.8591H26.9295V85.5967H23.499V84.8591Z" fill="white"/>
<path d="M27.8184 84.8591H31.2488V85.5967H27.8184V84.8591Z" fill="white"/>
<path d="M32.1396 84.8591H35.5701V85.5967H32.1396V84.8591Z" fill="white"/>
<path d="M36.4609 84.8591H39.8914V85.5967H36.4609V84.8591Z" fill="white"/>
<path d="M40.7803 84.8591H44.2107V85.5967H40.7803V84.8591Z" fill="white"/>
<path d="M45.1025 84.8591H48.533V85.5967H45.1025V84.8591Z" fill="white"/>
<path d="M49.4209 84.8591H52.8513V85.5967H49.4209V84.8591Z" fill="white"/>
<path d="M53.7432 84.8591H57.1736V85.5967H53.7432V84.8591Z" fill="white"/>
<path d="M58.0635 84.8591H61.4939V85.5967H58.0635V84.8591Z" fill="white"/>
<path d="M62.3838 84.8591H65.8142V85.5967H62.3838V84.8591Z" fill="white"/>
<path d="M66.7061 84.8591H70.1365V85.5967H66.7061V84.8591Z" fill="white"/>
<path d="M71.0244 84.8591H74.4549V85.5967H71.0244V84.8591Z" fill="white"/>
<path d="M75.3457 84.8591H78.7761V85.5967H75.3457V84.8591Z" fill="white"/>
<path d="M79.667 84.8591H83.0974V85.5967H79.667V84.8591Z" fill="white"/>
<path d="M83.9873 84.8591H87.4177V85.5967H83.9873V84.8591Z" fill="white"/>
<path d="M88.3086 84.8591H91.739V85.5967H88.3086V84.8591Z" fill="white"/>
<path d="M92.627 84.8591H96.0574V85.5967H92.627V84.8591Z" fill="white"/>
<path d="M96.9482 84.8591H100.379V85.5967H96.9482V84.8591Z" fill="white"/>
<path d="M101.271 84.8591H104.701V85.5967H101.271V84.8591Z" fill="white"/>
<path d="M105.59 84.8591H109.02V85.5967H105.59V84.8591Z" fill="white"/>
<path d="M109.911 84.8591H113.342V85.5967H109.911V84.8591Z" fill="white"/>
<path d="M115.018 79.1199H115.783V85.3017H115.018V79.1199Z" fill="white"/>
<path d="M19.678 87.585H20.5342L17.7086 93.6966H16.8467L19.678 87.585Z" fill="white"/>
<path d="M24.0693 92.081H27.6254V92.8888H24.0693V92.081ZM25.399 88.8281L25.5517 88.8769C25.4821 89.0271 25.3681 89.1637 25.2115 89.2886C25.0531 89.4135 24.8772 89.513 24.6801 89.5911C24.4829 89.6691 24.2877 89.7159 24.0925 89.7355V88.9061C24.4133 88.8593 24.709 88.7422 24.9835 88.5549C25.2579 88.3676 25.4473 88.1724 25.5536 87.9714H26.2977V92.8888H25.4009V88.8281H25.399Z" fill="white"/>
<path d="M34.6619 92.038C34.7855 91.7941 34.9537 91.5716 35.1701 91.3706C35.3866 91.1696 35.6591 90.9686 35.9876 90.7657L36.4051 90.5062C36.6699 90.3227 36.8651 90.151 36.9888 89.9871C37.1144 89.8232 37.1762 89.6437 37.1762 89.4466C37.1762 89.2924 37.1434 89.1558 37.0757 89.0387C37.0081 88.9217 36.9114 88.8319 36.7839 88.7675C36.6563 88.7031 36.5075 88.6719 36.3355 88.6719C36.0437 88.6719 35.8118 88.7617 35.6436 88.9392C35.4755 89.1168 35.3847 89.3529 35.375 89.6495H34.4782C34.4821 89.3178 34.5671 89.0173 34.7295 88.7499C34.8918 88.4826 35.1141 88.2719 35.3943 88.1177C35.6746 87.9636 35.9934 87.8855 36.351 87.8855C36.7085 87.8855 37.0119 87.9518 37.2767 88.0865C37.5415 88.2192 37.7444 88.4046 37.8894 88.6407C38.0324 88.8768 38.1058 89.15 38.1058 89.4583C38.1058 89.6729 38.0633 89.8759 37.9763 90.0632C37.8913 90.2505 37.7599 90.4301 37.584 90.6037C37.4081 90.7774 37.1782 90.9472 36.896 91.1169L36.409 91.4057L36.3664 91.4409C36.1307 91.5853 35.9529 91.716 35.8369 91.8311C35.7209 91.9463 35.6398 92.0789 35.5934 92.2273L35.3634 92.0789H38.1889V92.8868H34.4531C34.4725 92.5629 34.542 92.2799 34.6657 92.036L34.6619 92.038Z" fill="white"/>
<path d="M45.9498 92.7753C45.658 92.6446 45.426 92.4573 45.2579 92.2173C45.0878 91.9753 44.9989 91.6982 44.9893 91.384H45.8937C45.9169 91.6416 46.0194 91.8426 46.1991 91.985C46.3808 92.1275 46.6281 92.1997 46.9432 92.1997C47.2311 92.1997 47.465 92.1333 47.6466 91.9987C47.8283 91.866 47.9172 91.6845 47.9172 91.4543C47.9172 91.304 47.8805 91.1791 47.8051 91.0777C47.7317 90.9762 47.6292 90.9001 47.5017 90.8494C47.3741 90.7986 47.2273 90.7713 47.0591 90.7713H46.5644V89.9771H46.9548C47.2137 89.9771 47.4205 89.9186 47.5713 89.8015C47.722 89.6844 47.7974 89.5244 47.7974 89.3234C47.7974 89.1868 47.7626 89.0697 47.693 88.9683C47.6235 88.8668 47.5268 88.7907 47.4012 88.736C47.2756 88.6814 47.1306 88.656 46.9625 88.656C46.6842 88.656 46.4639 88.7282 46.3015 88.8707C46.1392 89.0131 46.0464 89.2044 46.0232 89.4424H45.1187C45.1284 89.1419 45.2134 88.8746 45.3758 88.6385C45.5381 88.4024 45.7585 88.217 46.0368 88.0843C46.3151 87.9516 46.6281 87.8833 46.976 87.8833C47.3046 87.8833 47.6022 87.9418 47.867 88.0589C48.1317 88.176 48.3385 88.336 48.4893 88.5409C48.64 88.7439 48.7154 88.9761 48.7154 89.2336C48.7154 89.458 48.6593 89.6512 48.5453 89.8132C48.4313 89.9752 48.2863 90.1 48.1066 90.1898C47.9269 90.2796 47.7375 90.3303 47.5326 90.344L47.637 90.2874C47.8824 90.3069 48.097 90.3713 48.2767 90.4845C48.4584 90.5976 48.5975 90.7401 48.698 90.9137C48.7985 91.0874 48.8468 91.2806 48.8468 91.4972C48.8468 91.7919 48.7618 92.0514 48.5898 92.2777C48.4178 92.5022 48.1878 92.6739 47.9018 92.7949C47.6138 92.9139 47.2949 92.9744 46.9412 92.9744C46.5702 92.9744 46.2377 92.908 45.9459 92.7773L45.9498 92.7753Z" fill="white"/>
<path d="M58.0298 88.7146L58.3158 88.7634L56.3677 91.1168L56.2634 90.9899H59.6803V91.7412H55.5889V90.8553L58.0511 87.9673H58.913V92.8847H58.0298V88.7127V88.7146Z" fill="white"/>
<path d="M67.3134 92.7891C67.0428 92.6681 66.8264 92.4964 66.666 92.2759C66.5055 92.0554 66.4128 91.7997 66.3838 91.5109H67.2883C67.325 91.7256 67.4293 91.8934 67.6014 92.0124C67.7734 92.1315 67.9879 92.192 68.2488 92.192C68.4343 92.192 68.5986 92.1568 68.7397 92.0866C68.8808 92.0163 68.989 91.909 69.0624 91.7666C69.1359 91.6241 69.1745 91.4544 69.1745 91.2573C69.1745 91.0602 69.1378 90.8924 69.0624 90.7519C68.9871 90.6114 68.8808 90.504 68.7397 90.4318C68.5986 90.3596 68.4324 90.3226 68.243 90.3226C68.0536 90.3226 67.8855 90.3635 67.725 90.4455C67.5646 90.5275 67.4332 90.6348 67.3327 90.7655H66.5326L66.7761 87.9692H69.8935V88.7693H67.1317L67.5356 88.4746L67.3965 90.2523L67.2786 90.2172C67.4313 90.0201 67.6168 89.864 67.8313 89.7508C68.0459 89.6376 68.2913 89.5791 68.5657 89.5791C68.8634 89.5791 69.1301 89.6474 69.3659 89.7859C69.6016 89.9245 69.7872 90.1196 69.9186 90.3694C70.05 90.6192 70.1177 90.906 70.1177 91.2299C70.1177 91.5812 70.0384 91.8876 69.8819 92.151C69.7234 92.4125 69.5031 92.6154 69.2209 92.7579C68.9387 92.9003 68.6141 92.9725 68.2469 92.9725C67.8797 92.9725 67.5898 92.912 67.3173 92.7891H67.3134Z" fill="white"/>
<path d="M77.9275 92.678C77.6261 92.4809 77.3941 92.196 77.2318 91.8253C77.0695 91.4526 76.9883 91.0116 76.9883 90.5003C76.9883 89.9891 77.0753 89.5149 77.2492 89.1207C77.4231 88.7246 77.6686 88.4202 77.9875 88.2075C78.3063 87.9948 78.6697 87.8875 79.0833 87.8875C79.3983 87.8875 79.6785 87.944 79.922 88.0592C80.1655 88.1743 80.3607 88.3324 80.5096 88.5333C80.6584 88.7343 80.7531 88.9626 80.7956 89.2144H79.8911C79.8447 89.0407 79.7539 88.908 79.6205 88.8143C79.4853 88.7207 79.3152 88.6738 79.1065 88.6738C78.8282 88.6738 78.5982 88.7597 78.4146 88.9334C78.231 89.107 78.0976 89.3412 78.0107 89.6359C77.9256 89.9305 77.887 90.2681 77.8966 90.6467L77.7362 90.6818C77.9353 90.354 78.1614 90.1061 78.4107 89.9364C78.6619 89.7686 78.9461 89.6827 79.2669 89.6827C79.5877 89.6827 79.8447 89.751 80.0805 89.8856C80.3163 90.0203 80.5018 90.2076 80.6332 90.4437C80.7647 90.6798 80.8323 90.9511 80.8323 91.2555C80.8323 91.5794 80.7531 91.8702 80.5965 92.1297C80.4381 92.3892 80.2216 92.5941 79.9433 92.7444C79.665 92.8946 79.348 92.9688 78.9905 92.9688C78.5866 92.9688 78.2348 92.8712 77.9333 92.6741L77.9275 92.678ZM79.4601 92.0692C79.5974 91.9872 79.7036 91.878 79.781 91.7433C79.8583 91.6067 79.895 91.4545 79.895 91.2867C79.895 91.1189 79.8621 90.9764 79.7945 90.8476C79.7268 90.7189 79.6302 90.6174 79.5065 90.5413C79.3809 90.4671 79.2243 90.4281 79.033 90.4281C78.8417 90.4281 78.6755 90.4671 78.5189 90.5432C78.3605 90.6213 78.2368 90.7267 78.1459 90.8594C78.0551 90.992 78.0107 91.1345 78.0107 91.2848C78.0107 91.435 78.0512 91.5853 78.1324 91.7238C78.2136 91.8624 78.3276 91.9736 78.4764 92.0614C78.6252 92.1472 78.7934 92.1921 78.9847 92.1921C79.176 92.1921 79.3248 92.1511 79.4621 92.0692H79.4601Z" fill="white"/>
<path d="M88.7085 91.076C88.9095 90.5472 89.1569 90.0906 89.4468 89.7062C89.7367 89.3218 90.0691 88.9725 90.4459 88.6603L90.5503 88.7734H87.6494V87.9734H91.2596V88.8164C90.6373 89.3081 90.1773 89.8818 89.8777 90.5375C89.5782 91.1931 89.4062 91.9776 89.3598 92.8908H88.3374C88.3838 92.2117 88.5075 91.6068 88.7104 91.078L88.7085 91.076Z" fill="white"/>
<path d="M98.9912 92.797C98.7052 92.68 98.481 92.5122 98.3167 92.2917C98.1524 92.0711 98.0693 91.8116 98.0693 91.5111C98.0693 91.3101 98.1196 91.1267 98.222 90.9589C98.3245 90.793 98.4694 90.6564 98.6607 90.551C98.8501 90.4457 99.0743 90.3832 99.3294 90.3657L99.3024 90.4008C99.084 90.3735 98.8888 90.3091 98.7187 90.2076C98.5467 90.1061 98.4095 89.9773 98.309 89.8212C98.2066 89.6651 98.1563 89.4856 98.1563 89.2846C98.1563 88.9997 98.2336 88.7519 98.3902 88.5431C98.5448 88.3343 98.7612 88.1723 99.0376 88.0592C99.314 87.944 99.6232 87.8875 99.9672 87.8875C100.311 87.8875 100.62 87.944 100.897 88.0553C101.173 88.1684 101.388 88.3285 101.544 88.5392C101.699 88.7499 101.774 88.9958 101.77 89.2768C101.77 89.4778 101.72 89.6593 101.622 89.8173C101.521 89.9773 101.386 90.1061 101.212 90.2076C101.038 90.3091 100.845 90.3735 100.63 90.4008L100.603 90.3657C100.858 90.3852 101.08 90.4457 101.268 90.551C101.455 90.6564 101.6 90.793 101.699 90.9589C101.799 91.1247 101.848 91.3082 101.848 91.5111C101.848 91.8116 101.766 92.0711 101.604 92.2917C101.442 92.5122 101.22 92.68 100.935 92.797C100.651 92.9141 100.331 92.9727 99.9691 92.9727C99.6077 92.9727 99.283 92.9141 98.9989 92.797H98.9912ZM100.649 92.0243C100.825 91.8877 100.914 91.7043 100.914 91.4701C100.914 91.236 100.827 91.0584 100.653 90.9218C100.479 90.7852 100.249 90.7189 99.9614 90.7189C99.6734 90.7189 99.4473 90.7872 99.2695 90.9218C99.0917 91.0564 99.0009 91.2399 99.0009 91.4701C99.0009 91.7004 99.0898 91.8897 99.2695 92.0243C99.4473 92.1609 99.6792 92.2273 99.9614 92.2273C100.244 92.2273 100.474 92.159 100.649 92.0243ZM100.611 89.8193C100.775 89.6924 100.858 89.5227 100.858 89.3061C100.858 89.109 100.777 88.947 100.615 88.8221C100.452 88.6953 100.234 88.6329 99.9614 88.6329C99.6889 88.6329 99.4686 88.6953 99.3043 88.8182C99.14 88.9431 99.0569 89.1051 99.0569 89.3061C99.0569 89.5207 99.14 89.6924 99.3043 89.8193C99.4686 89.9461 99.6889 90.0086 99.9614 90.0086C100.234 90.0086 100.446 89.9461 100.613 89.8193H100.611Z" fill="white"/>
<path d="M109.672 92.7931C109.415 92.6741 109.206 92.5082 109.046 92.2975C108.885 92.0868 108.789 91.8448 108.758 91.5735H109.662C109.699 91.7706 109.797 91.9209 109.954 92.0263C110.112 92.1316 110.306 92.1843 110.538 92.1843C110.913 92.1843 111.193 92.0243 111.376 91.7062C111.56 91.3882 111.653 90.9472 111.659 90.3852C111.477 90.6389 111.278 90.8281 111.057 90.9569C110.837 91.0857 110.584 91.1501 110.296 91.1501C109.991 91.1501 109.72 91.0838 109.486 90.9491C109.252 90.8164 109.069 90.6311 108.937 90.3949C108.806 90.1588 108.738 89.8915 108.738 89.591C108.738 89.2631 108.818 88.9704 108.974 88.7129C109.133 88.4553 109.351 88.2524 109.631 88.106C109.911 87.9577 110.228 87.8855 110.58 87.8855C110.984 87.8855 111.336 87.9831 111.633 88.1802C111.931 88.3772 112.163 88.6621 112.321 89.0368C112.482 89.4115 112.561 89.8642 112.561 90.393C112.561 90.9218 112.478 91.3882 112.31 91.7765C112.144 92.1648 111.908 92.4614 111.604 92.6644C111.301 92.8673 110.945 92.9707 110.536 92.9707C110.215 92.9707 109.927 92.9102 109.67 92.7912L109.672 92.7931ZM111.042 90.2935C111.197 90.2154 111.318 90.1139 111.407 89.9852C111.496 89.8564 111.539 89.7139 111.539 89.5598C111.539 89.4056 111.498 89.2671 111.417 89.1305C111.336 88.9939 111.222 88.8826 111.077 88.7968C110.93 88.7109 110.764 88.666 110.58 88.666C110.396 88.666 110.246 88.7051 110.103 88.7812C109.962 88.8592 109.851 88.9646 109.776 89.1012C109.699 89.2378 109.662 89.3919 109.662 89.5656C109.662 89.7295 109.695 89.8739 109.763 90.0008C109.83 90.1276 109.927 90.2271 110.054 90.2993C110.182 90.3715 110.337 90.4086 110.516 90.4086C110.712 90.4086 110.885 90.3696 111.042 90.2935Z" fill="white"/>
<path d="M116.014 87.585H116.87L119.701 93.6966H118.831L116.014 87.585Z" fill="white"/>
<path d="M10.4319 96.0146H11.2881L8.46254 102.126H7.60059L10.4319 96.0146Z" fill="white"/>
<path d="M17.3333 100.327L17.4648 100.411C17.3121 100.716 17.1246 100.956 16.9004 101.131C16.6782 101.307 16.4366 101.395 16.1776 101.395C15.9032 101.395 15.6693 101.317 15.4741 101.162C15.2789 101.008 15.1301 100.792 15.0296 100.513C14.9272 100.234 14.877 99.9135 14.877 99.5545C14.877 99.1954 14.9272 98.8696 15.0296 98.5964C15.1321 98.3232 15.2789 98.1085 15.4722 97.9544C15.6655 97.8002 15.8955 97.7222 16.1641 97.7222C16.4192 97.7222 16.6608 97.8061 16.8908 97.9758C17.1208 98.1437 17.3102 98.3837 17.457 98.692L17.3527 98.7974V97.7924H18.2146V102.513H17.3314V100.327H17.3333ZM16.8463 100.503C16.9893 100.413 17.1111 100.286 17.2077 100.12C17.3044 99.9545 17.3546 99.7652 17.3546 99.5545C17.3546 99.3437 17.3044 99.1506 17.2019 98.9886C17.0995 98.8266 16.9758 98.7017 16.8289 98.612C16.682 98.5222 16.5448 98.4793 16.4153 98.4793C16.2859 98.4793 16.1718 98.5183 16.0752 98.5983C15.9786 98.6783 15.9032 98.7974 15.8491 98.9574C15.795 99.1174 15.7698 99.3125 15.7698 99.5467C15.7698 99.9018 15.8297 100.173 15.9515 100.358C16.0713 100.544 16.2337 100.636 16.4385 100.636C16.568 100.636 16.7052 100.591 16.8482 100.503H16.8463Z" fill="white"/>
<path d="M25.0771 97.7925H25.9391L26.573 100.673H26.4416L27.1026 97.7925H27.9993L28.6815 100.665H28.5559L29.1744 97.7925H30.0305L29.1338 101.319H28.1597L27.5065 98.5438H27.5973L26.9364 101.319H25.9488L25.0791 97.7925H25.0771Z" fill="white"/>
<path d="M37.5186 101.178C37.2538 101.028 37.0509 100.815 36.9059 100.538C36.7629 100.261 36.6895 99.9409 36.6895 99.576C36.6895 99.211 36.761 98.8813 36.902 98.6022C37.0431 98.3232 37.2441 98.1066 37.5031 97.9524C37.7621 97.7983 38.0636 97.7202 38.4076 97.7202C38.7516 97.7202 39.0396 97.7944 39.2869 97.9446C39.5343 98.0949 39.7256 98.3037 39.8571 98.5691C39.9885 98.8364 40.0561 99.1408 40.0561 99.4823V99.6852H37.2596V99.0393H39.4241L39.1381 99.3125V99.1447C39.1381 98.9203 39.0705 98.7408 38.9333 98.6081C38.796 98.4754 38.6182 98.4071 38.4018 98.4071C38.2626 98.4071 38.1331 98.4422 38.0114 98.5125C37.8896 98.5827 37.7949 98.6744 37.7234 98.7857C37.6519 98.8988 37.6113 99.0237 37.6017 99.1642C37.5978 99.2676 37.5939 99.3418 37.5939 99.3886C37.5939 99.4355 37.5901 99.5057 37.5804 99.5994C37.5843 99.9369 37.6654 100.2 37.8201 100.39C37.9747 100.579 38.1853 100.675 38.4501 100.675C38.6356 100.675 38.7902 100.636 38.912 100.559C39.0357 100.481 39.1188 100.368 39.1652 100.218H40.0213C39.9518 100.569 39.7778 100.854 39.4995 101.071C39.2212 101.289 38.8656 101.397 38.4346 101.397C38.0868 101.397 37.7814 101.322 37.5166 101.172L37.5186 101.178Z" fill="white"/>
<path d="M47.2852 97.7927H48.1548V98.9244L48.0505 98.741C48.1761 98.4327 48.3384 98.1829 48.5375 97.9956C48.7366 97.8083 48.9685 97.7146 49.2333 97.7146C49.4613 97.7146 49.6488 97.7692 49.7976 97.8766C49.9464 97.9839 50.0546 98.1322 50.1242 98.3234C50.1938 98.5127 50.2286 98.7352 50.2286 98.9869C50.2286 99.0903 50.2266 99.1762 50.2208 99.2464H49.4343V99.1196C49.4343 98.9225 49.3898 98.7722 49.3028 98.6669C49.2139 98.5615 49.0902 98.5088 48.9279 98.5088C48.7926 98.5088 48.667 98.5576 48.5491 98.6532C48.4312 98.7488 48.3384 98.8815 48.2708 99.0493C48.2032 99.2171 48.1703 99.4045 48.1703 99.6113V101.319H47.2871V97.7927H47.2852Z" fill="white"/>
<path d="M56.7559 97.7925H59.6857V98.4813H56.7559V97.7925ZM57.9039 101.055C57.7048 100.88 57.6043 100.62 57.6043 100.279V96.9632L58.4875 96.4851V100.068C58.4875 100.245 58.5281 100.374 58.6093 100.454C58.6904 100.534 58.8334 100.573 59.0364 100.573H59.9756V101.319H58.7929C58.3986 101.319 58.101 101.231 57.9019 101.055H57.9039Z" fill="white"/>
<path d="M66.5224 101.762H67.2452C67.4269 101.762 67.5564 101.74 67.6376 101.699C67.7187 101.656 67.7845 101.568 67.8366 101.432L67.9893 101.053L68.0106 101.545L66.5572 97.7944H67.4965L68.4705 100.577H68.2406L69.2146 97.7944H70.1461L68.6078 101.742C68.5382 101.925 68.4512 102.074 68.3469 102.189C68.2425 102.304 68.1188 102.386 67.9777 102.439C67.8366 102.489 67.6685 102.517 67.4733 102.517H66.5205V101.765L66.5224 101.762Z" fill="white"/>
<path d="M77.5969 101.223C77.423 101.114 77.2916 100.952 77.2007 100.741C77.1099 100.53 77.0654 100.283 77.0654 99.9958V97.7908H77.9486V99.7363C77.9486 100.041 77.9931 100.261 78.0839 100.396C78.1748 100.532 78.3216 100.599 78.5265 100.599C78.6753 100.599 78.8125 100.556 78.9401 100.468C79.0677 100.382 79.1701 100.255 79.2493 100.089C79.3286 99.9236 79.3672 99.7304 79.3672 99.5099V97.7888H80.2504V101.315H79.3807V100.318L79.5199 100.431C79.3846 100.698 79.2029 100.925 78.9729 101.108C78.743 101.293 78.4917 101.385 78.2173 101.385C77.9757 101.385 77.7689 101.331 77.595 101.219L77.5969 101.223Z" fill="white"/>
<path d="M87.4941 100.643H89.7689V101.319H87.4941V100.643ZM87.583 97.7924H89.0306V98.4598H87.583V97.7924ZM88.1049 96.4011H89.1562V97.3417H88.1049V96.4011ZM88.1822 97.7924H89.0654V101.094H88.1822V97.7924Z" fill="white"/>
<path d="M97.5754 101.17C97.3164 101.016 97.1154 100.799 96.9743 100.52C96.8332 100.241 96.7617 99.9252 96.7617 99.5681C96.7617 99.211 96.8332 98.8871 96.9743 98.61C97.1154 98.3329 97.3164 98.1144 97.5754 97.9563C97.8343 97.8002 98.1339 97.7202 98.4721 97.7202C98.8103 97.7202 99.1234 97.7983 99.3843 97.9563C99.6433 98.1124 99.8443 98.331 99.9834 98.61C100.123 98.8891 100.192 99.2091 100.192 99.5681C100.192 99.9272 100.123 100.241 99.9834 100.52C99.8443 100.799 99.6452 101.016 99.3843 101.17C99.1253 101.324 98.82 101.402 98.4721 101.402C98.1242 101.402 97.8343 101.324 97.5754 101.17ZM98.9147 100.546C99.0384 100.456 99.1311 100.329 99.1968 100.163C99.2626 99.9974 99.2935 99.7984 99.2935 99.5701C99.2935 99.2189 99.222 98.9437 99.077 98.7447C98.934 98.5456 98.7311 98.4461 98.4721 98.4461C98.3059 98.4461 98.1609 98.491 98.0373 98.5788C97.9136 98.6666 97.8208 98.7974 97.7551 98.9652C97.6894 99.133 97.6585 99.3359 97.6585 99.5701C97.6585 99.9174 97.73 100.189 97.8749 100.386C98.0199 100.583 98.2189 100.68 98.474 100.68C98.646 100.68 98.7929 100.636 98.9166 100.548L98.9147 100.546Z" fill="white"/>
<path d="M107.35 97.7924H108.219V98.7974L108.115 98.692C108.258 98.3837 108.445 98.1437 108.675 97.9758C108.905 97.808 109.149 97.7222 109.41 97.7222C109.671 97.7222 109.91 97.8002 110.102 97.9544C110.295 98.1085 110.442 98.3232 110.544 98.5964C110.647 98.8696 110.697 99.1896 110.697 99.5545C110.697 99.9194 110.647 100.236 110.544 100.513C110.442 100.792 110.293 101.008 110.096 101.162C109.899 101.317 109.665 101.395 109.396 101.395C109.22 101.395 109.052 101.356 108.896 101.276C108.737 101.196 108.592 101.082 108.457 100.934C108.322 100.786 108.204 100.612 108.101 100.411L108.233 100.327V102.513H107.35V97.7924ZM109.489 100.515C109.59 100.433 109.665 100.312 109.719 100.15C109.773 99.9877 109.798 99.7886 109.798 99.5486C109.798 99.1974 109.742 98.932 109.628 98.7505C109.514 98.5691 109.358 98.4793 109.159 98.4793C109.029 98.4793 108.89 98.5242 108.745 98.612C108.598 98.7017 108.474 98.8266 108.372 98.9886C108.27 99.1506 108.219 99.3379 108.219 99.5545C108.219 99.7711 108.268 99.9545 108.366 100.12C108.463 100.286 108.585 100.415 108.728 100.503C108.871 100.591 109.008 100.636 109.137 100.636C109.267 100.636 109.389 100.595 109.489 100.513V100.515Z" fill="white"/>
<path d="M115.178 96.0146H117.091V96.6742H115.991V101.465H117.091V102.124H115.178V96.0127V96.0146Z" fill="white"/>
<path d="M123.771 96.0146H124.627L127.458 102.126H126.588L123.771 96.0146Z" fill="white"/>
<path d="M9.32888 109.692C9.15107 109.602 9.00999 109.475 8.90756 109.309C8.80513 109.144 8.75488 108.95 8.75488 108.73C8.75488 108.375 8.87277 108.105 9.10662 107.922C9.34047 107.739 9.67289 107.643 10.1058 107.633L11.0663 107.612V107.528C11.0663 107.294 11.0064 107.12 10.8885 107.005C10.7706 106.89 10.6025 106.833 10.3841 106.833C10.1657 106.833 9.99177 106.88 9.87195 106.974C9.75406 107.067 9.69028 107.18 9.68062 107.311H8.78967C8.81286 107.1 8.8921 106.905 9.02932 106.724C9.16654 106.544 9.35207 106.4 9.58978 106.295C9.82557 106.189 10.0981 106.136 10.4034 106.136C10.732 106.136 11.0103 106.197 11.2345 106.32C11.4587 106.443 11.6287 106.611 11.7428 106.825C11.8568 107.04 11.9128 107.292 11.9128 107.577V108.784C11.9128 108.962 11.9264 109.144 11.9515 109.329C11.9766 109.514 12.0114 109.653 12.052 109.746H11.1958C11.1958 109.746 11.1939 109.725 11.1881 109.711C11.161 109.598 11.1378 109.469 11.1224 109.325C11.1069 109.181 11.1011 109.028 11.105 108.868L11.2306 108.987C11.1378 109.231 10.9813 109.43 10.761 109.588C10.5406 109.745 10.2681 109.825 9.94346 109.825C9.71154 109.825 9.50668 109.78 9.32695 109.692H9.32888ZM10.7378 108.989C10.904 108.892 11.0141 108.755 11.0644 108.582V108.252L10.187 108.273C10.0053 108.283 9.86615 108.32 9.76565 108.386C9.66516 108.453 9.61684 108.554 9.61684 108.695C9.61684 108.835 9.66902 108.944 9.77339 109.021C9.87775 109.099 10.015 109.136 10.187 109.136C10.386 109.136 10.5696 109.087 10.7358 108.987L10.7378 108.989Z" fill="white"/>
<path d="M19.8769 109.678C19.6334 109.575 19.4402 109.436 19.2991 109.26C19.158 109.085 19.073 108.882 19.0459 108.653H19.9291C19.9484 108.813 20.0315 108.936 20.1804 109.022C20.3292 109.108 20.5166 109.153 20.7447 109.153C20.9496 109.153 21.11 109.116 21.2279 109.044C21.3457 108.972 21.4057 108.876 21.4057 108.759C21.4057 108.661 21.3689 108.581 21.2974 108.521C21.2259 108.46 21.0984 108.415 20.9186 108.388L20.2306 108.275C19.9021 108.224 19.647 108.109 19.4691 107.933C19.2913 107.758 19.2005 107.541 19.2005 107.284C19.2005 107.059 19.2624 106.862 19.388 106.694C19.5136 106.527 19.6875 106.394 19.9098 106.298C20.132 106.203 20.3891 106.154 20.6828 106.154C21.1196 106.154 21.4772 106.253 21.7574 106.452C22.0376 106.651 22.2019 106.925 22.2483 107.27H21.3651C21.3419 107.126 21.2704 107.01 21.1486 106.928C21.0269 106.847 20.8684 106.806 20.6693 106.806C20.4703 106.806 20.3234 106.843 20.2171 106.915C20.1108 106.987 20.0567 107.081 20.0567 107.192C20.0567 107.289 20.0915 107.368 20.161 107.424C20.2306 107.481 20.3485 107.522 20.5166 107.551L21.2336 107.649C21.5719 107.699 21.8328 107.816 22.0125 107.996C22.1942 108.175 22.2831 108.404 22.2831 108.681C22.2831 108.911 22.2212 109.112 22.0956 109.286C21.97 109.459 21.7903 109.594 21.5525 109.69C21.3168 109.785 21.0404 109.834 20.7254 109.834C20.4103 109.834 20.1243 109.783 19.8808 109.68L19.8769 109.678Z" fill="white"/>
<path d="M29.8911 109.594C29.6959 109.44 29.5471 109.224 29.4466 108.944C29.3442 108.665 29.2939 108.345 29.2939 107.986C29.2939 107.627 29.3442 107.301 29.4466 107.028C29.5491 106.755 29.6959 106.54 29.8892 106.386C30.0825 106.232 30.3124 106.154 30.5811 106.154C30.7531 106.154 30.9174 106.191 31.0758 106.267C31.2343 106.341 31.3812 106.453 31.5184 106.597C31.6556 106.741 31.7755 106.917 31.876 107.124L31.7503 107.229V104.833H32.6336V109.75H31.7716V108.753L31.8837 108.837C31.7349 109.145 31.5493 109.389 31.3232 109.565C31.0971 109.741 30.8555 109.828 30.5965 109.828C30.3221 109.828 30.0883 109.75 29.8931 109.596L29.8911 109.594ZM31.2614 108.933C31.4044 108.843 31.5261 108.716 31.6228 108.55C31.7194 108.384 31.7697 108.195 31.7697 107.984C31.7697 107.774 31.7194 107.581 31.617 107.419C31.5146 107.257 31.3909 107.132 31.244 107.042C31.0971 106.952 30.9599 106.909 30.8304 106.909C30.7009 106.909 30.5869 106.948 30.4903 107.028C30.3936 107.108 30.3182 107.227 30.2641 107.387C30.21 107.547 30.1849 107.742 30.1849 107.977C30.1849 108.332 30.2448 108.603 30.3666 108.788C30.4864 108.974 30.6487 109.065 30.8536 109.065C30.9831 109.065 31.1203 109.021 31.2633 108.933H31.2614Z" fill="white"/>
<path d="M42.667 106.222H45.7012V106.911H42.667V106.222ZM43.9058 105.083C44.0875 104.915 44.3445 104.829 44.6789 104.829H45.9448V105.559H44.8799C44.7542 105.559 44.6634 105.59 44.6054 105.651C44.5475 105.711 44.5185 105.805 44.5185 105.932V109.747H43.6352V105.826C43.6352 105.498 43.7261 105.251 43.9058 105.081V105.083Z" fill="white"/>
<path d="M53.3523 110.89C53.1166 110.798 52.9272 110.669 52.788 110.5C52.6489 110.332 52.5619 110.133 52.531 109.903H53.4219C53.4586 110.033 53.5398 110.139 53.6616 110.215C53.7852 110.293 53.9495 110.33 54.1582 110.33C54.4095 110.33 54.6066 110.264 54.7535 110.133C54.9004 110.002 54.9719 109.803 54.9719 109.536V108.63L55.0975 108.736C54.9448 109.026 54.7593 109.255 54.5409 109.421C54.3225 109.586 54.0809 109.67 53.8181 109.67C53.5553 109.67 53.3291 109.596 53.1301 109.45C52.931 109.302 52.7764 109.097 52.6682 108.831C52.56 108.566 52.5039 108.265 52.5039 107.928C52.5039 107.59 52.558 107.274 52.6682 107.007C52.7764 106.739 52.931 106.531 53.1282 106.378C53.3253 106.226 53.5514 106.15 53.8065 106.15C53.9824 106.15 54.1525 106.189 54.3148 106.265C54.4771 106.343 54.6259 106.455 54.7632 106.603C54.9004 106.751 55.0163 106.933 55.1149 107.147L54.9893 107.231V106.22H55.859V109.508C55.859 109.99 55.7121 110.365 55.4164 110.628C55.1226 110.894 54.7129 111.025 54.1892 111.025C53.8684 111.025 53.5901 110.98 53.3543 110.888L53.3523 110.89ZM54.4907 108.818C54.6317 108.732 54.7516 108.609 54.8482 108.453C54.9448 108.297 54.9951 108.121 54.9951 107.93C54.9951 107.739 54.9448 107.557 54.8463 107.399C54.7458 107.243 54.624 107.12 54.481 107.034C54.338 106.948 54.2008 106.903 54.0713 106.903C53.9418 106.903 53.8239 106.942 53.7195 107.018C53.6152 107.097 53.534 107.212 53.476 107.366C53.418 107.52 53.3891 107.705 53.3891 107.92C53.3891 108.244 53.4548 108.496 53.5843 108.675C53.7137 108.855 53.8838 108.946 54.0925 108.946C54.2182 108.946 54.3515 108.904 54.4926 108.816L54.4907 108.818Z" fill="white"/>
<path d="M63.2119 104.831H64.0951V107.22L63.9695 107.1C64.099 106.839 64.2807 106.615 64.5126 106.429C64.7445 106.244 64.9996 106.152 65.2779 106.152C65.5195 106.152 65.7224 106.209 65.8906 106.32C66.0568 106.433 66.1843 106.593 66.2732 106.802C66.3621 107.011 66.4046 107.262 66.4046 107.557V109.748H65.5214V107.817C65.5214 107.512 65.475 107.292 65.3823 107.157C65.2895 107.02 65.1407 106.954 64.9378 106.954C64.789 106.954 64.6517 106.997 64.5242 107.085C64.3966 107.171 64.2942 107.298 64.215 107.461C64.1357 107.625 64.0971 107.817 64.0971 108.037V109.75H63.2138V104.833L63.2119 104.831Z" fill="white"/>
<path d="M73.2803 110.197H74.2118C74.2949 110.197 74.3664 110.182 74.4283 110.152C74.4901 110.123 74.5326 110.074 74.5597 110.008C74.5867 109.942 74.6022 109.866 74.6022 109.776V106.22H75.4854V109.979C75.4854 110.283 75.3946 110.519 75.2149 110.689C75.0332 110.857 74.7839 110.943 74.4631 110.943H73.2803V110.197ZM73.7538 106.222H75.4506V106.89H73.7538V106.222ZM74.5249 104.831H75.5685V105.772H74.5249V104.831Z" fill="white"/>
<path d="M83.0605 104.831H83.9438V109.748H83.0605V104.831ZM83.7718 107.949L85.4551 106.22H86.5064L85.0318 107.709L84.6221 108.039L83.7795 108.868L83.7718 107.947V107.949ZM84.4037 107.914L85.0299 107.374L86.6031 109.748H85.5595L84.4037 107.914Z" fill="white"/>
<path d="M96.3789 109.073H98.7445V109.748H96.3789V109.073ZM96.4485 104.831H98.0004V105.498H96.4485V104.831ZM97.1152 105.007H97.9985V109.581H97.1152V105.007Z" fill="white"/>
<path d="M106.355 106.222H107.455V107.303H106.355V106.222ZM106.355 108.667H107.455V109.748H106.355V108.667Z" fill="white"/>
<path d="M113.226 105.393C113.131 105.473 113.083 105.596 113.083 105.766V105.864H113.612V106.945H112.513V105.877C112.513 105.647 112.547 105.454 112.617 105.294C112.687 105.134 112.801 105.009 112.961 104.917C113.121 104.825 113.338 104.779 113.612 104.773V105.264C113.45 105.268 113.321 105.311 113.226 105.391V105.393Z" fill="white"/>
<path d="M120.047 110.556H118.134V109.897H119.233V105.106H118.134V104.447H120.047V110.558V110.556Z" fill="white"/>
<path d="M130.324 104.445H131.18L134.012 110.556H133.142L130.324 104.445Z" fill="white"/>
</g>
</g>
<defs>
<clipPath id="clip0_6388_2706">
<rect x="0.470703" y="0.113037" width="144" height="112" rx="7.5267" fill="white"/>
</clipPath>
<clipPath id="clip1_6388_2706">
<rect width="155" height="117.618" fill="white" transform="translate(-10.8926 8.99048)"/>
</clipPath>
</defs>
</svg>
