<svg width="180" height="105" viewBox="0 0 180 105" fill="none" xmlns="http://www.w3.org/2000/svg">
<g clip-path="url(#clip0_6261_3413)">
<rect y="0.407471" width="180" height="104" rx="4" fill="#3B2E29"/>
<g clip-path="url(#clip1_6261_3413)">
<path d="M117.487 19.7051H120.331V20.3103H117.487V19.7051Z" fill="white"/>
<path d="M121.069 19.7051H123.913V20.3103H121.069V19.7051Z" fill="white"/>
<path d="M109.822 26.6221H112.666V27.2273H109.822V26.6221Z" fill="white"/>
<path d="M115.463 21.9402H116.173L113.831 26.955H113.116L115.463 21.9402Z" fill="white"/>
<path d="M121.755 26.6221H124.599V27.2273H121.755V26.6221Z" fill="white"/>
<path d="M127.533 21.9402H128.243L130.59 26.955H129.869L127.533 21.9402Z" fill="white"/>
<path d="M109.326 28.8572H110.035L107.693 33.872H106.979L109.326 28.8572Z" fill="white"/>
<path d="M120.233 28.8574H120.943L118.6 33.8723H117.886L120.233 28.8574Z" fill="white"/>
<path d="M131.613 30.9563H134.612V31.5504H131.613V30.9563ZM132.8 29.7859H133.428V32.7432H132.8V29.7859Z" fill="white"/>
<path d="M106.771 35.7744H107.481L105.138 40.7893H104.424L106.771 35.7744Z" fill="white"/>
<path d="M117.815 35.7744H118.525L120.872 40.7893H120.151L117.815 35.7744Z" fill="white"/>
<path d="M104.216 42.6914H104.926L102.584 47.7063H101.869L104.216 42.6914Z" fill="white"/>
<path d="M120.371 42.6914H121.081L123.428 47.7063H122.707L120.371 42.6914Z" fill="white"/>
<path d="M91.9365 54.2903H94.7803V54.8955H91.9365V54.2903Z" fill="white"/>
<path d="M95.5186 54.2903H98.3623V54.8955H95.5186V54.2903Z" fill="white"/>
<path d="M101.16 49.6084H101.869L99.527 54.6232H98.8125L101.16 49.6084Z" fill="white"/>
<path d="M102.343 54.2903H105.187V54.8955H102.343V54.2903Z" fill="white"/>
<path d="M105.924 54.2903H108.768V54.8955H105.924V54.2903Z" fill="white"/>
<path d="M109.506 54.2903H112.35V54.8955H109.506V54.2903Z" fill="white"/>
<path d="M113.086 54.2903H115.93V54.8955H113.086V54.2903Z" fill="white"/>
<path d="M116.669 54.2903H119.513V54.8955H116.669V54.2903Z" fill="white"/>
<path d="M120.251 54.2903H123.095V54.8955H120.251V54.2903Z" fill="white"/>
<path d="M123.567 49.6084H124.277L126.624 54.6232H125.903L123.567 49.6084Z" fill="white"/>
<path d="M127.072 54.2903H129.916V54.8955H127.072V54.2903Z" fill="white"/>
<path d="M130.655 54.2903H133.499V54.8955H130.655V54.2903Z" fill="white"/>
<path d="M99.8616 58.2963L100.478 57.611L100.547 57.7262L99.6357 57.5181L99.8264 56.9769L100.651 57.3404L100.547 57.4044L100.454 56.4998H101.031L100.938 57.4044L100.841 57.3404L101.666 56.9769L101.85 57.5181L100.956 57.7198L101.002 57.611L101.63 58.2963L101.151 58.6197L100.69 57.8351H100.799L100.337 58.6197L99.8584 58.2963H99.8616Z" fill="white"/>
<path d="M107.249 56.5254H107.959L105.617 61.5402H104.902L107.249 56.5254Z" fill="white"/>
<path d="M111.247 58.2963L111.864 57.611L111.933 57.7262L111.021 57.5181L111.212 56.9769L112.037 57.3404L111.933 57.4044L111.84 56.4998H112.417L112.324 57.4044L112.226 57.3404L113.051 56.9769L113.236 57.5181L112.342 57.7198L112.388 57.611L113.016 58.2963L112.537 58.6197L112.076 57.8351H112.185L111.723 58.6197L111.244 58.2963H111.247Z" fill="white"/>
<path d="M123.178 57.7487C123.345 58.1714 123.43 58.6053 123.43 59.052C123.43 59.3482 123.393 59.6412 123.321 59.931C123.247 60.2208 123.137 60.5027 122.989 60.7748C122.842 61.047 122.656 61.3032 122.433 61.5418H121.748C121.967 61.3 122.148 61.0454 122.289 60.7781C122.432 60.5107 122.536 60.2337 122.603 59.9486C122.671 59.662 122.704 59.3658 122.704 59.0584C122.704 58.6197 122.626 58.189 122.467 57.7647C122.31 57.3404 122.07 56.9273 121.746 56.5286H122.432C122.762 56.9208 123.012 57.3275 123.178 57.7503V57.7487Z" fill="white"/>
<path d="M132.103 61.2073H134.946V61.8125H132.103V61.2073Z" fill="white"/>
<path d="M135.684 61.2073H138.527V61.8125H135.684V61.2073Z" fill="white"/>
<path d="M99.1059 63.4424H99.8156L97.4733 68.4572H96.7588L99.1059 63.4424Z" fill="white"/>
<path d="M101.67 64.5377C101.603 64.5105 101.518 64.4689 101.414 64.4112C101.337 64.3728 101.274 64.3424 101.226 64.3216C101.178 64.3008 101.132 64.2896 101.085 64.2896C101.024 64.2896 100.978 64.3072 100.949 64.344C100.92 64.3808 100.906 64.4337 100.906 64.5025V64.5425H100.444V64.4449C100.444 64.2335 100.5 64.0702 100.611 63.9549C100.723 63.8396 100.872 63.782 101.061 63.782C101.135 63.782 101.207 63.798 101.277 63.8284C101.348 63.8588 101.433 63.9021 101.529 63.9549C101.598 63.9933 101.659 64.0238 101.71 64.0446C101.761 64.0654 101.808 64.0766 101.846 64.0766C101.904 64.0766 101.946 64.059 101.973 64.0222C102 63.9853 102.013 63.9309 102.013 63.8572V63.8172H102.457V63.9549C102.457 64.1631 102.405 64.3184 102.301 64.4224C102.197 64.5265 102.058 64.5778 101.88 64.5778C101.806 64.5778 101.737 64.565 101.67 64.5377Z" fill="white"/>
<path d="M104.738 64.5375C104.671 64.5103 104.586 64.4686 104.482 64.411C104.405 64.3726 104.343 64.3421 104.295 64.3213C104.246 64.3005 104.2 64.2893 104.154 64.2893C104.093 64.2893 104.046 64.3069 104.017 64.3437C103.989 64.3806 103.974 64.4334 103.974 64.5023V64.5423H103.513V64.4446C103.513 64.2333 103.569 64.07 103.679 63.9547C103.791 63.8394 103.94 63.7817 104.13 63.7817C104.203 63.7817 104.275 63.7978 104.346 63.8282C104.416 63.8586 104.501 63.9018 104.597 63.9547C104.666 63.9931 104.727 64.0235 104.778 64.0443C104.83 64.0651 104.876 64.0764 104.915 64.0764C104.972 64.0764 105.014 64.0587 105.041 64.0219C105.068 63.9851 105.081 63.9306 105.081 63.857V63.817H105.525V63.9547C105.525 64.1628 105.474 64.3181 105.37 64.4222C105.265 64.5263 105.126 64.5775 104.948 64.5775C104.875 64.5775 104.806 64.5647 104.738 64.5375Z" fill="white"/>
<path d="M107.808 64.5377C107.74 64.5105 107.655 64.4689 107.551 64.4112C107.474 64.3728 107.412 64.3424 107.364 64.3216C107.316 64.3008 107.269 64.2896 107.223 64.2896C107.162 64.2896 107.116 64.3072 107.087 64.344C107.058 64.3808 107.043 64.4337 107.043 64.5025V64.5425H106.582V64.4449C106.582 64.2335 106.638 64.0702 106.749 63.9549C106.861 63.8396 107.01 63.782 107.199 63.782C107.273 63.782 107.345 63.798 107.415 63.8284C107.486 63.8588 107.571 63.9021 107.667 63.9549C107.736 63.9933 107.796 64.0238 107.848 64.0446C107.899 64.0654 107.945 64.0766 107.984 64.0766C108.042 64.0766 108.083 64.059 108.11 64.0222C108.138 63.9853 108.151 63.9309 108.151 63.8572V63.8172H108.594V63.9549C108.594 64.1631 108.543 64.3184 108.439 64.4224C108.335 64.5265 108.195 64.5778 108.018 64.5778C107.944 64.5778 107.875 64.565 107.808 64.5377Z" fill="white"/>
<path d="M110.875 64.5375C110.808 64.5103 110.723 64.4686 110.619 64.411C110.542 64.3726 110.479 64.3421 110.431 64.3213C110.383 64.3005 110.337 64.2893 110.29 64.2893C110.229 64.2893 110.183 64.3069 110.154 64.3437C110.125 64.3806 110.111 64.4334 110.111 64.5023V64.5423H109.649V64.4446C109.649 64.2333 109.705 64.07 109.816 63.9547C109.928 63.8394 110.077 63.7817 110.266 63.7817C110.34 63.7817 110.412 63.7978 110.483 63.8282C110.553 63.8586 110.638 63.9018 110.734 63.9547C110.803 63.9931 110.864 64.0235 110.915 64.0443C110.966 64.0651 111.013 64.0764 111.051 64.0764C111.109 64.0764 111.151 64.0587 111.178 64.0219C111.205 63.9851 111.218 63.9306 111.218 63.857V63.817H111.662V63.9547C111.662 64.1628 111.61 64.3181 111.506 64.4222C111.402 64.5263 111.263 64.5775 111.085 64.5775C111.011 64.5775 110.942 64.5647 110.875 64.5375Z" fill="white"/>
<path d="M112.296 63.4424H113.006L115.353 68.4572H114.632L112.296 63.4424Z" fill="white"/>
<path d="M120.325 63.4424H121.034L118.692 68.4572H117.978L120.325 63.4424Z" fill="white"/>
<path d="M121.507 68.1243H124.351V68.7295H121.507V68.1243Z" fill="white"/>
<path d="M127.148 63.4424H127.858L125.515 68.4572H124.801L127.148 63.4424Z" fill="white"/>
<path d="M138.193 63.4424H138.903L141.25 68.4572H140.529L138.193 63.4424Z" fill="white"/>
<path d="M93.9955 70.3594H94.7053L92.363 75.3742H91.6484L93.9955 70.3594Z" fill="white"/>
<path d="M107.953 75.0413H110.797V75.6465H107.953V75.0413Z" fill="white"/>
<path d="M113.594 70.3594H114.304L111.962 75.3742H111.247L113.594 70.3594Z" fill="white"/>
<path d="M127.194 70.3596H127.904L130.251 75.3745H129.53L127.194 70.3596Z" fill="white"/>
<path d="M142.889 70.3596H143.599L141.257 75.3745H140.542L142.889 70.3596Z" fill="white"/>
<path d="M90.0332 77.2478H90.6676V82.3203H90.0332V77.2478Z" fill="white"/>
<path d="M102.271 81.9583H105.115V82.5635H102.271V81.9583Z" fill="white"/>
<path d="M107.913 77.2766H108.622L106.28 82.2915H105.565L107.913 77.2766Z" fill="white"/>
<path d="M130.188 77.2478H130.822V82.3203H130.188V77.2478Z" fill="white"/>
<path d="M132.205 81.9583H135.049V82.5635H132.205V81.9583Z" fill="white"/>
<path d="M137.847 77.2766H138.557L136.215 82.2915H135.5L137.847 77.2766Z" fill="white"/>
<path d="M88.8862 84.1936H89.5959L87.2536 89.2084H86.5391L88.8862 84.1936Z" fill="white"/>
<path d="M97.7334 88.8755H100.577V89.4807H97.7334V88.8755Z" fill="white"/>
<path d="M103.373 84.1934H104.083L101.741 89.2082H101.026L103.373 84.1934Z" fill="white"/>
<path d="M132.306 84.1936H133.015L135.363 89.2084H134.642L132.306 84.1936Z" fill="white"/>
<path d="M87.4775 91.0833H88.112V96.1557H87.4775V91.0833Z" fill="white"/>
<path d="M92.0518 95.7925H94.8955V96.3977H92.0518V95.7925Z" fill="white"/>
<path d="M97.6928 91.1106H98.4025L96.0603 96.1254H95.3457L97.6928 91.1106Z" fill="white"/>
<path d="M102.083 91.0833H102.717V96.1557H102.083V91.0833Z" fill="white"/>
<path d="M134.404 91.1106H135.114L137.461 96.1254H136.74L134.404 91.1106Z" fill="white"/>
<path d="M89.3584 100.127H92.3576V100.721H89.3584V100.127ZM90.5472 98.9561H91.1752V101.913H90.5472V98.9561Z" fill="white"/>
<path d="M101.396 97.9988H102.03V103.071H101.396V97.9988Z" fill="white"/>
<path d="M137.282 97.9988H137.917V103.071H137.282V97.9988Z" fill="white"/>
<path d="M153.822 29.6643H156.666V30.2695H153.822V29.6643Z" fill="white"/>
<path d="M157.404 29.6643H160.248V30.2695H157.404V29.6643Z" fill="white"/>
<path d="M160.985 29.6643H163.829V30.2695H160.985V29.6643Z" fill="white"/>
<path d="M151.245 32.3975H154.244V32.9915H151.245V32.3975ZM152.432 31.2271H153.06V34.1844H152.432V31.2271Z" fill="white"/>
<path d="M162.606 32.3975H165.606V32.9915H162.606V32.3975ZM163.794 31.2271H164.422V34.1844H163.794V31.2271Z" fill="white"/>
<path d="M149.363 35.5869H149.998V40.6594H149.363V35.5869Z" fill="white"/>
<path d="M167.365 35.5869H168V40.6594H167.365V35.5869Z" fill="white"/>
<path d="M151.245 44.6304H154.244V45.2244H151.245V44.6304ZM152.432 43.46H153.06V46.4173H152.432V43.46Z" fill="white"/>
<path d="M154.964 47.2129H157.808V47.8181H154.964V47.2129Z" fill="white"/>
<path d="M158.546 47.2131H161.39V47.8184H158.546V47.2131Z" fill="white"/>
<path d="M162.105 44.6304H165.105V45.2244H162.105V44.6304ZM163.293 43.46H163.921V46.4173H163.293V43.46Z" fill="white"/>
<path d="M157.03 49.4211H157.665V54.4936H157.03V49.4211Z" fill="white"/>
<path d="M157.03 56.3381H157.665V61.4106H157.03V56.3381Z" fill="white"/>
<path d="M157.03 63.2551H157.665V68.3276H157.03V63.2551Z" fill="white"/>
<path d="M157.03 70.1721H157.665V75.2446H157.03V70.1721Z" fill="white"/>
<path d="M157.03 77.0891H157.665V82.1616H157.03V77.0891Z" fill="white"/>
<path d="M151.694 87.4983H152.606V88.3853H151.694V87.4983Z" fill="white"/>
<path d="M154.33 87.4983H155.242V88.3853H154.33V87.4983Z" fill="white"/>
<path d="M157.121 84.0063H157.756V89.0788H157.121V84.0063Z" fill="white"/>
<path d="M159.14 88.7151H161.983V89.3203H159.14V88.7151Z" fill="white"/>
<path d="M149.234 94.7436C149.067 94.3209 148.982 93.887 148.982 93.4402C148.982 93.144 149.019 92.851 149.091 92.5612C149.165 92.2714 149.276 91.9896 149.423 91.7174C149.57 91.4452 149.756 91.189 149.979 90.9504H150.665C150.445 91.1922 150.264 91.4468 150.123 91.7142C149.981 91.9816 149.876 92.2586 149.809 92.5436C149.742 92.8302 149.708 93.1264 149.708 93.4338C149.708 93.8726 149.787 94.3033 149.945 94.7276C150.102 95.1519 150.343 95.565 150.666 95.9637H149.981C149.651 95.5714 149.401 95.1647 149.234 94.742V94.7436Z" fill="white"/>
<path d="M161.325 90.9504H162.035L164.382 95.9653H163.661L161.325 90.9504Z" fill="white"/>
<path d="M150.91 97.8691H151.62L153.967 102.884H153.246L150.91 97.8691Z" fill="white"/>
<path d="M154.417 102.549H157.261V103.155H154.417V102.549Z" fill="white"/>
<path d="M157.998 102.549H160.842V103.155H157.998V102.549Z" fill="white"/>
<path d="M163.638 97.8691H164.348L162.006 102.884H161.291L163.638 97.8691Z" fill="white"/>
<path d="M24.124 5.19531H26.9678V5.80055H24.124V5.19531Z" fill="#FF943F"/>
<path d="M27.7061 5.19531H30.5498V5.80055H27.7061V5.19531Z" fill="#FF943F"/>
<path d="M31.2861 5.19531H34.1299V5.80055H31.2861V5.19531Z" fill="#FF943F"/>
<path d="M34.8691 5.19531H37.7129V5.80055H34.8691V5.19531Z" fill="#FF943F"/>
<path d="M38.4512 5.19531H41.2949V5.80055H38.4512V5.19531Z" fill="#FF943F"/>
<path d="M42.0312 5.19531H44.875V5.80055H42.0312V5.19531Z" fill="#FF943F"/>
<path d="M45.6143 5.19531H48.458V5.80055H45.6143V5.19531Z" fill="#FF943F"/>
<path d="M49.1943 5.19531H52.0381V5.80055H49.1943V5.19531Z" fill="#FF943F"/>
<path d="M52.7773 5.19531H55.6211V5.80055H52.7773V5.19531Z" fill="#FF943F"/>
<path d="M56.3594 5.19531H59.2031V5.80055H56.3594V5.19531Z" fill="#FF943F"/>
<path d="M59.9404 5.19531H62.7842V5.80055H59.9404V5.19531Z" fill="#FF943F"/>
<path d="M63.5225 5.19531H66.3662V5.80055H63.5225V5.19531Z" fill="#FF943F"/>
<path d="M67.1035 5.19531H69.9473V5.80055H67.1035V5.19531Z" fill="#FF943F"/>
<path d="M70.6855 5.19531H73.5293V5.80055H70.6855V5.19531Z" fill="#FF943F"/>
<path d="M21.0727 7.43213H21.7824L19.4401 12.447H18.7256L21.0727 7.43213Z" fill="#FF943F"/>
<path d="M75.5527 7.43213H76.2625L78.6096 12.447H77.8886L75.5527 7.43213Z" fill="#FF943F"/>
<path d="M18.518 14.3491H19.2277L16.8854 19.364H16.1709L18.518 14.3491Z" fill="#FF943F"/>
<path d="M29.9199 19.0295H32.7637V19.6348H29.9199V19.0295Z" fill="#FF943F"/>
<path d="M33.502 19.0293H36.3457V19.6345H33.502V19.0293Z" fill="#FF943F"/>
<path d="M37.083 19.0295H39.9268V19.6348H37.083V19.0295Z" fill="#FF943F"/>
<path d="M40.665 19.0293H43.5088V19.6345H40.665V19.0293Z" fill="#FF943F"/>
<path d="M44.2471 19.0295H47.0908V19.6348H44.2471V19.0295Z" fill="#FF943F"/>
<path d="M47.8281 19.0293H50.6719V19.6345H47.8281V19.0293Z" fill="#FF943F"/>
<path d="M51.4111 19.0295H54.2549V19.6348H51.4111V19.0295Z" fill="#FF943F"/>
<path d="M54.9912 19.0295H57.835V19.6348H54.9912V19.0295Z" fill="#FF943F"/>
<path d="M58.5742 19.0295H61.418V19.6348H58.5742V19.0295Z" fill="#FF943F"/>
<path d="M62.1562 19.0293H65V19.6345H62.1562V19.0293Z" fill="#FF943F"/>
<path d="M78.1543 14.3491H78.864L81.2111 19.364H80.4902L78.1543 14.3491Z" fill="#FF943F"/>
<path d="M15.9614 21.2664H16.6711L14.3288 26.2812H13.6143L15.9614 21.2664Z" fill="#FF943F"/>
<path d="M80.6641 21.2661H81.3738L83.7209 26.281H83L80.6641 21.2661Z" fill="#FF943F"/>
<path d="M12 28.1543H12.6344V33.2268H12V28.1543Z" fill="#FF943F"/>
<path d="M29.3496 32.8635H32.1934V33.4688H29.3496V32.8635Z" fill="#FF943F"/>
<path d="M32.9307 32.8633H35.7744V33.4685H32.9307V32.8633Z" fill="#FF943F"/>
<path d="M36.5127 32.8635H39.3565V33.4688H36.5127V32.8635Z" fill="#FF943F"/>
<path d="M40.0947 32.8633H42.9385V33.4685H40.0947V32.8633Z" fill="#FF943F"/>
<path d="M43.6748 32.8633H46.5186V33.4685H43.6748V32.8633Z" fill="#FF943F"/>
<path d="M47.2578 32.8633H50.1016V33.4685H47.2578V32.8633Z" fill="#FF943F"/>
<path d="M50.8379 32.8633H53.6817V33.4685H50.8379V32.8633Z" fill="#FF943F"/>
<path d="M54.4209 32.8635H57.2647V33.4688H54.4209V32.8635Z" fill="#FF943F"/>
<path d="M58.0029 32.8635H60.8467V33.4688H58.0029V32.8635Z" fill="#FF943F"/>
<path d="M61.584 32.8635H64.4277V33.4688H61.584V32.8635Z" fill="#FF943F"/>
<path d="M83.7031 28.1545H84.3376V33.227H83.7031V28.1545Z" fill="#FF943F"/>
<path d="M12 35.0715H12.6344V40.144H12V35.0715Z" fill="#FF943F"/>
<path d="M83.6562 35.0713H84.2907V40.1438H83.6562V35.0713Z" fill="#FF943F"/>
<path d="M13.5459 42.0173H14.2556L16.6027 47.0322H15.8818L13.5459 42.0173Z" fill="#FF943F"/>
<path d="M29.7354 46.6975H32.5791V47.3027H29.7354V46.6975Z" fill="#FF943F"/>
<path d="M33.3174 46.6975H36.1611V47.3027H33.3174V46.6975Z" fill="#FF943F"/>
<path d="M36.8984 46.6975H39.7422V47.3027H36.8984V46.6975Z" fill="#FF943F"/>
<path d="M40.4805 46.6975H43.3242V47.3027H40.4805V46.6975Z" fill="#FF943F"/>
<path d="M44.0615 46.6975H46.9053V47.3027H44.0615V46.6975Z" fill="#FF943F"/>
<path d="M47.6436 46.6975H50.4873V47.3027H47.6436V46.6975Z" fill="#FF943F"/>
<path d="M51.2266 46.6975H54.0703V47.3027H51.2266V46.6975Z" fill="#FF943F"/>
<path d="M54.8066 46.6975H57.6504V47.3027H54.8066V46.6975Z" fill="#FF943F"/>
<path d="M58.3896 46.6975H61.2334V47.3027H58.3896V46.6975Z" fill="#FF943F"/>
<path d="M61.9697 46.6975H64.8135V47.3027H61.9697V46.6975Z" fill="#FF943F"/>
<path d="M82.9418 42.0173H83.6516L81.3093 47.0322H80.5947L82.9418 42.0173Z" fill="#FF943F"/>
<path d="M16.1006 48.9343H16.8103L19.1574 53.9492H18.4365L16.1006 48.9343Z" fill="#FF943F"/>
<path d="M80.3403 48.9343H81.05L78.7077 53.9492H77.9932L80.3403 48.9343Z" fill="#FF943F"/>
<path d="M18.6553 55.8513H19.365L21.7121 60.8662H20.9912L18.6553 55.8513Z" fill="#FF943F"/>
<path d="M24.625 60.5315H27.4688V61.1367H24.625V60.5315Z" fill="#FF943F"/>
<path d="M28.207 60.5315H31.0508V61.1367H28.207V60.5315Z" fill="#FF943F"/>
<path d="M31.79 60.5315H34.6338V61.1367H31.79V60.5315Z" fill="#FF943F"/>
<path d="M35.3701 60.5315H38.2139V61.1367H35.3701V60.5315Z" fill="#FF943F"/>
<path d="M38.9521 60.5315H41.7959V61.1367H38.9521V60.5315Z" fill="#FF943F"/>
<path d="M42.5332 60.5315H45.377V61.1367H42.5332V60.5315Z" fill="#FF943F"/>
<path d="M46.1152 60.5315H48.959V61.1367H46.1152V60.5315Z" fill="#FF943F"/>
<path d="M49.6973 60.5315H52.541V61.1367H49.6973V60.5315Z" fill="#FF943F"/>
<path d="M53.2783 60.5315H56.1221V61.1367H53.2783V60.5315Z" fill="#FF943F"/>
<path d="M56.8604 60.5315H59.7041V61.1367H56.8604V60.5315Z" fill="#FF943F"/>
<path d="M60.4414 60.5315H63.2852V61.1367H60.4414V60.5315Z" fill="#FF943F"/>
<path d="M64.0244 60.5315H66.8682V61.1367H64.0244V60.5315Z" fill="#FF943F"/>
<path d="M67.6064 60.5315H70.4502V61.1367H67.6064V60.5315Z" fill="#FF943F"/>
<path d="M71.1875 60.5315H74.0313V61.1367H71.1875V60.5315Z" fill="#FF943F"/>
<path d="M76.8276 55.8513H77.5373L75.195 60.8662H74.4805L76.8276 55.8513Z" fill="#FF943F"/>
<path d="M77.7441 55.8513H78.4539L80.801 60.8662H80.08L77.7441 55.8513Z" fill="#FF943F"/>
<path d="M82.5312 62.7683H83.241L85.5881 67.7832H84.8671L82.5312 62.7683Z" fill="#FF943F"/>
</g>
</g>
<defs>
<clipPath id="clip0_6261_3413">
<rect y="0.407471" width="180" height="104" rx="4" fill="white"/>
</clipPath>
<clipPath id="clip1_6261_3413">
<rect width="156" height="158" fill="white" transform="translate(12 0.407471)"/>
</clipPath>
</defs>
</svg>
