<svg width="145" height="113" viewBox="0 0 145 113" fill="none" xmlns="http://www.w3.org/2000/svg">
<g clip-path="url(#clip0_6388_2514)">
<g clip-path="url(#clip1_6388_2514)">
<path d="M83.0869 8.10498H86.3803V8.80725H83.0869V8.10498Z" fill="white"/>
<path d="M87.2334 8.10498H90.5268V8.80725H87.2334V8.10498Z" fill="white"/>
<path d="M74.207 16.1309H77.5004V16.8331H74.207V16.1309Z" fill="white"/>
<path d="M80.7416 10.6985H81.5636L78.8509 16.5173H78.0234L80.7416 10.6985Z" fill="white"/>
<path d="M88.0293 16.1309H91.3227V16.8331H88.0293V16.1309Z" fill="white"/>
<path d="M94.7217 10.6985H95.5436L98.2618 16.5173H97.4269L94.7217 10.6985Z" fill="white"/>
<path d="M73.6342 18.7236H74.4562L71.7435 24.5424H70.916L73.6342 18.7236Z" fill="white"/>
<path d="M86.2631 18.7236H87.0851L84.3724 24.5424H83.5449L86.2631 18.7236Z" fill="white"/>
<path d="M99.4443 21.1598H102.918V21.8491H99.4443V21.1598ZM100.819 19.8018H101.547V23.2332H100.819V19.8018Z" fill="white"/>
<path d="M70.6752 26.7505H71.4972L68.7846 32.5693H67.957L70.6752 26.7505Z" fill="white"/>
<path d="M83.4668 26.7505H84.2888L87.0069 32.5693H86.172L83.4668 26.7505Z" fill="white"/>
<path d="M67.7143 34.7761H68.5362L65.8236 40.5949H64.9961L67.7143 34.7761Z" fill="white"/>
<path d="M86.4268 34.7761H87.2487L89.9669 40.5949H89.132L86.4268 34.7761Z" fill="white"/>
<path d="M53.4951 48.2336H56.7885V48.9359H53.4951V48.2336Z" fill="white"/>
<path d="M57.6445 48.2336H60.9379V48.9359H57.6445V48.2336Z" fill="white"/>
<path d="M64.1772 42.8022H64.9991L62.2865 48.621H61.459L64.1772 42.8022Z" fill="white"/>
<path d="M65.5469 48.2336H68.8402V48.9359H65.5469V48.2336Z" fill="white"/>
<path d="M69.6914 48.2336H72.9848V48.9359H69.6914V48.2336Z" fill="white"/>
<path d="M73.8428 48.2336H77.1361V48.9359H73.8428V48.2336Z" fill="white"/>
<path d="M77.9893 48.2336H81.2826V48.9359H77.9893V48.2336Z" fill="white"/>
<path d="M82.1357 48.2336H85.4291V48.9359H82.1357V48.2336Z" fill="white"/>
<path d="M86.2852 48.2336H89.5785V48.9359H86.2852V48.2336Z" fill="white"/>
<path d="M90.127 42.8022H90.9489L93.6671 48.621H92.8322L90.127 42.8022Z" fill="white"/>
<path d="M94.1875 48.2336H97.4809V48.9359H94.1875V48.2336Z" fill="white"/>
<path d="M98.334 48.2336H101.627V48.9359H98.334V48.2336Z" fill="white"/>
<path d="M62.6727 52.8824L63.3871 52.0872L63.4669 52.221L62.4111 51.9794L62.6319 51.3515L63.5875 51.7732L63.4669 51.8475L63.3593 50.7979H64.0272L63.9196 51.8475L63.8064 51.7732L64.7619 51.3515L64.9753 51.9794L63.94 52.2135L63.9938 52.0872L64.7211 52.8824L64.1664 53.2576L63.632 52.3473H63.7582L63.2238 53.2576L62.669 52.8824H62.6727Z" fill="white"/>
<path d="M71.2309 50.8276H72.0528L69.3402 56.6464H68.5127L71.2309 50.8276Z" fill="white"/>
<path d="M75.8573 52.8824L76.5717 52.0872L76.6514 52.221L75.5957 51.9794L75.8165 51.3515L76.772 51.7732L76.6514 51.8475L76.5438 50.7979H77.2118L77.1042 51.8475L76.991 51.7732L77.9465 51.3515L78.1599 51.9794L77.1246 52.2135L77.1784 52.0872L77.9057 52.8824L77.3509 53.2576L76.8166 52.3473H76.9427L76.4084 53.2576L75.8536 52.8824H75.8573Z" fill="white"/>
<path d="M89.6763 52.247C89.8693 52.7375 89.9676 53.2409 89.9676 53.7593C89.9676 54.103 89.925 54.443 89.8415 54.7792C89.7561 55.1155 89.6281 55.4425 89.4574 55.7583C89.2867 56.0741 89.0715 56.3714 88.8136 56.6482H88.0194C88.2736 56.3677 88.4833 56.0723 88.6466 55.762C88.8117 55.4518 88.9323 55.1304 89.0102 54.7997C89.0882 54.4671 89.1271 54.1234 89.1271 53.7667C89.1271 53.2576 89.0362 52.7579 88.8525 52.2656C88.6707 51.7732 88.3924 51.2939 88.0176 50.8313H88.8117C89.1939 51.2865 89.4834 51.7584 89.6763 52.2488V52.247Z" fill="white"/>
<path d="M100.012 56.2605H103.305V56.9628H100.012V56.2605Z" fill="white"/>
<path d="M104.158 56.2605H107.452V56.9628H104.158V56.2605Z" fill="white"/>
<path d="M61.7983 58.8535H62.6202L59.9076 64.6723H59.0801L61.7983 58.8535Z" fill="white"/>
<path d="M64.7641 60.1247C64.6862 60.0931 64.5879 60.0448 64.4673 59.9779C64.3782 59.9333 64.3058 59.898 64.2502 59.8739C64.1945 59.8497 64.1407 59.8367 64.0869 59.8367C64.0164 59.8367 63.9626 59.8572 63.9292 59.8999C63.8958 59.9426 63.8791 60.0039 63.8791 60.0838V60.1303H63.3447V60.017C63.3447 59.7717 63.4097 59.5822 63.5377 59.4485C63.6676 59.3147 63.8401 59.2478 64.0591 59.2478C64.1444 59.2478 64.2279 59.2664 64.3095 59.3017C64.3912 59.337 64.4895 59.3871 64.6009 59.4485C64.6806 59.493 64.7511 59.5283 64.8105 59.5525C64.8699 59.5766 64.9237 59.5896 64.9682 59.5896C65.035 59.5896 65.0833 59.5692 65.1148 59.5265C65.1463 59.4837 65.1612 59.4206 65.1612 59.3351V59.2887H65.6751V59.4485C65.6751 59.69 65.6158 59.8702 65.4952 59.9909C65.3746 60.1117 65.2131 60.1712 65.0072 60.1712C64.9218 60.1712 64.8421 60.1563 64.7641 60.1247Z" fill="white"/>
<path d="M68.3188 60.1247C68.2409 60.0931 68.1425 60.0448 68.0219 59.9779C67.9329 59.9333 67.8605 59.898 67.8049 59.8739C67.7492 59.8497 67.6954 59.8367 67.6416 59.8367C67.5711 59.8367 67.5173 59.8572 67.4839 59.8999C67.4505 59.9426 67.4338 60.0039 67.4338 60.0838V60.1303H66.8994V60.017C66.8994 59.7717 66.9643 59.5822 67.0924 59.4485C67.2223 59.3147 67.3948 59.2478 67.6137 59.2478C67.6991 59.2478 67.7826 59.2664 67.8642 59.3017C67.9459 59.337 68.0442 59.3871 68.1555 59.4485C68.2353 59.493 68.3058 59.5283 68.3652 59.5525C68.4246 59.5766 68.4784 59.5896 68.5229 59.5896C68.5897 59.5896 68.6379 59.5692 68.6695 59.5265C68.701 59.4837 68.7159 59.4206 68.7159 59.3351V59.2887H69.2298V59.4485C69.2298 59.69 69.1705 59.8702 69.0499 59.9909C68.9293 60.1117 68.7678 60.1712 68.5619 60.1712C68.4765 60.1712 68.3967 60.1563 68.3188 60.1247Z" fill="white"/>
<path d="M71.8745 60.1245C71.7966 60.0929 71.6982 60.0446 71.5776 59.9777C71.4886 59.9331 71.4162 59.8978 71.3605 59.8737C71.3049 59.8495 71.2511 59.8365 71.1972 59.8365C71.1267 59.8365 71.0729 59.8569 71.0395 59.8997C71.0061 59.9424 70.9894 60.0037 70.9894 60.0836V60.13H70.4551V60.0167C70.4551 59.7715 70.52 59.582 70.648 59.4482C70.7779 59.3144 70.9505 59.2476 71.1694 59.2476C71.2548 59.2476 71.3383 59.2661 71.4199 59.3014C71.5015 59.3367 71.5999 59.3869 71.7112 59.4482C71.791 59.4928 71.8615 59.5281 71.9209 59.5522C71.9802 59.5764 72.034 59.5894 72.0786 59.5894C72.1454 59.5894 72.1936 59.569 72.2252 59.5262C72.2567 59.4835 72.2715 59.4203 72.2715 59.3349V59.2884H72.7855V59.4482C72.7855 59.6897 72.7261 59.8699 72.6055 59.9907C72.4849 60.1115 72.3235 60.1709 72.1175 60.1709C72.0322 60.1709 71.9524 60.156 71.8745 60.1245Z" fill="white"/>
<path d="M75.4282 60.1245C75.3503 60.0929 75.2519 60.0446 75.1313 59.9777C75.0423 59.9331 74.9699 59.8978 74.9142 59.8737C74.8586 59.8495 74.8048 59.8365 74.751 59.8365C74.6805 59.8365 74.6266 59.8569 74.5933 59.8997C74.5599 59.9424 74.5432 60.0037 74.5432 60.0836V60.13H74.0088V60.0167C74.0088 59.7715 74.0737 59.582 74.2017 59.4482C74.3316 59.3144 74.5042 59.2476 74.7231 59.2476C74.8085 59.2476 74.892 59.2661 74.9736 59.3014C75.0552 59.3367 75.1536 59.3869 75.2649 59.4482C75.3447 59.4928 75.4152 59.5281 75.4746 59.5522C75.534 59.5764 75.5878 59.5894 75.6323 59.5894C75.6991 59.5894 75.7473 59.569 75.7789 59.5262C75.8104 59.4835 75.8252 59.4203 75.8252 59.3349V59.2884H76.3392V59.4482C76.3392 59.6897 76.2798 59.8699 76.1592 59.9907C76.0386 60.1115 75.8772 60.1709 75.6713 60.1709C75.5859 60.1709 75.5061 60.156 75.4282 60.1245Z" fill="white"/>
<path d="M77.0732 58.8535H77.8952L80.6134 64.6723H79.7784L77.0732 58.8535Z" fill="white"/>
<path d="M86.3715 58.8535H87.1935L84.4808 64.6723H83.6533L86.3715 58.8535Z" fill="white"/>
<path d="M87.7402 64.2859H91.0336V64.9882H87.7402V64.2859Z" fill="white"/>
<path d="M94.2719 58.8535H95.0939L92.3812 64.6723H91.5537L94.2719 58.8535Z" fill="white"/>
<path d="M107.065 58.8535H107.887L110.606 64.6723H109.771L107.065 58.8535Z" fill="white"/>
<path d="M55.8783 66.8794H56.7003L53.9877 72.6982H53.1602L55.8783 66.8794Z" fill="white"/>
<path d="M72.0439 72.3118H75.3373V73.014H72.0439V72.3118Z" fill="white"/>
<path d="M78.5756 66.8794H79.3976L76.6849 72.6982H75.8574L78.5756 66.8794Z" fill="white"/>
<path d="M94.3291 66.8794H95.1511L97.8693 72.6982H97.0343L94.3291 66.8794Z" fill="white"/>
<path d="M112.504 66.8794H113.326L110.614 72.6982H109.786L112.504 66.8794Z" fill="white"/>
<path d="M51.29 74.8721H52.0248V80.7577H51.29V74.8721Z" fill="white"/>
<path d="M65.4648 80.3376H68.7582V81.0399H65.4648V80.3376Z" fill="white"/>
<path d="M71.9975 74.9058H72.8194L70.1068 80.7245H69.2793L71.9975 74.9058Z" fill="white"/>
<path d="M97.791 74.8718H98.5258V80.7575H97.791V74.8718Z" fill="white"/>
<path d="M100.132 80.3376H103.425V81.0399H100.132V80.3376Z" fill="white"/>
<path d="M106.663 74.9058H107.484L104.772 80.7245H103.944L106.663 74.9058Z" fill="white"/>
<path d="M49.9623 82.9314H50.7843L48.0717 88.7502H47.2441L49.9623 82.9314Z" fill="white"/>
<path d="M60.208 88.3638H63.5014V89.066H60.208V88.3638Z" fill="white"/>
<path d="M66.7436 82.9314H67.5655L64.8529 88.7502H64.0254L66.7436 82.9314Z" fill="white"/>
<path d="M100.246 82.9314H101.068L103.786 88.7502H102.951L100.246 82.9314Z" fill="white"/>
<path d="M48.332 90.9263H49.0668V96.8119H48.332V90.9263Z" fill="white"/>
<path d="M53.6289 96.3892H56.9223V97.0914H53.6289V96.3892Z" fill="white"/>
<path d="M60.1625 90.9568H60.9845L58.2719 96.7756H57.4443L60.1625 90.9568Z" fill="white"/>
<path d="M65.2471 90.9263H65.9818V96.8119H65.2471V90.9263Z" fill="white"/>
<path d="M102.677 90.9568H103.499L106.217 96.7756H105.382L102.677 90.9568Z" fill="white"/>
<path d="M50.5098 101.419H53.9831V102.108H50.5098V101.419ZM51.8865 100.061H52.6138V103.492H51.8865V100.061Z" fill="white"/>
<path d="M64.4482 98.9502H65.183V104.836H64.4482V98.9502Z" fill="white"/>
<path d="M106.011 98.95H106.745V104.836H106.011V98.95Z" fill="white"/>
<path d="M63.123 106.976H63.8578V112.861H63.123V106.976Z" fill="white"/>
<path d="M66.041 108.702H67.0968V109.731H66.041V108.702ZM66.041 111.03H67.0968V112.059H66.041V111.03Z" fill="#FF943F"/>
<path d="M69.0996 108.702H70.1553V109.731H69.0996V108.702ZM69.0996 111.03H70.1553V112.059H69.0996V111.03Z" fill="#FF943F"/>
<path d="M72.1602 108.702H73.2159V109.731H72.1602V108.702ZM72.1602 111.03H73.2159V112.059H72.1602V111.03Z" fill="#FF943F"/>
<path d="M75.2158 108.702H76.2716V109.731H75.2158V108.702ZM75.2158 111.03H76.2716V112.059H75.2158V111.03Z" fill="#FF943F"/>
<path d="M78.2773 108.702H79.3331V109.731H78.2773V108.702ZM78.2773 111.03H79.3331V112.059H78.2773V111.03Z" fill="#FF943F"/>
<path d="M81.3379 108.702H82.3936V109.731H81.3379V108.702ZM81.3379 111.03H82.3936V112.059H81.3379V111.03Z" fill="#FF943F"/>
<path d="M84.3965 108.702H85.4522V109.731H84.3965V108.702ZM84.3965 111.03H85.4522V112.059H84.3965V111.03Z" fill="#FF943F"/>
<path d="M87.457 108.702H88.5128V109.731H87.457V108.702ZM87.457 111.03H88.5128V112.059H87.457V111.03Z" fill="#FF943F"/>
<path d="M90.5146 108.702H91.5704V109.731H90.5146V108.702ZM90.5146 111.03H91.5704V112.059H90.5146V111.03Z" fill="#FF943F"/>
<path d="M93.5752 108.702H94.6309V109.731H93.5752V108.702ZM93.5752 111.03H94.6309V112.059H93.5752V111.03Z" fill="#FF943F"/>
<path d="M96.6309 108.702H97.6866V109.731H96.6309V108.702ZM96.6309 111.03H97.6866V112.059H96.6309V111.03Z" fill="#FF943F"/>
<path d="M99.6924 108.702H100.748V109.731H99.6924V108.702ZM99.6924 111.03H100.748V112.059H99.6924V111.03Z" fill="#FF943F"/>
<path d="M102.754 108.702H103.81V109.731H102.754V108.702ZM102.754 111.03H103.81V112.059H102.754V111.03Z" fill="#FF943F"/>
<path d="M105.81 108.702H106.865V109.731H105.81V108.702ZM105.81 111.03H106.865V112.059H105.81V111.03Z" fill="#FF943F"/>
<path d="M107.919 107.009H108.741L111.459 112.828H110.624L107.919 107.009Z" fill="white"/>
<path d="M125.163 19.6599H128.456V20.3622H125.163V19.6599Z" fill="white"/>
<path d="M129.313 19.6599H132.607V20.3622H129.313V19.6599Z" fill="white"/>
<path d="M133.463 19.6599H136.756V20.3622H133.463V19.6599Z" fill="white"/>
<path d="M122.181 22.8315H125.654V23.5207H122.181V22.8315ZM123.556 21.4734H124.283V24.9048H123.556V21.4734Z" fill="white"/>
<path d="M135.339 22.8315H138.812V23.5207H135.339V22.8315ZM136.714 21.4734H137.441V24.9048H136.714V21.4734Z" fill="white"/>
<path d="M120.001 26.5325H120.736V32.4181H120.001V26.5325Z" fill="white"/>
<path d="M140.852 26.5325H141.586V32.4181H140.852V26.5325Z" fill="white"/>
<path d="M122.181 37.0248H125.654V37.7141H122.181V37.0248ZM123.556 35.6667H124.283V39.0982H123.556V35.6667Z" fill="white"/>
<path d="M126.488 40.0225H129.782V40.7247H126.488V40.0225Z" fill="white"/>
<path d="M130.634 40.0225H133.927V40.7247H130.634V40.0225Z" fill="white"/>
<path d="M134.757 37.0248H138.23V37.7141H134.757V37.0248ZM136.132 35.6667H136.859V39.0982H136.132V35.6667Z" fill="white"/>
<path d="M128.878 42.5842H129.613V48.4699H128.878V42.5842Z" fill="white"/>
<path d="M128.878 50.6099H129.613V56.4955H128.878V50.6099Z" fill="white"/>
<path d="M128.878 58.636H129.613V64.5217H128.878V58.636Z" fill="white"/>
<path d="M128.878 66.6616H129.613V72.5473H128.878V66.6616Z" fill="white"/>
<path d="M128.878 74.6877H129.613V80.5734H128.878V74.6877Z" fill="white"/>
<path d="M122.701 86.7654H123.757V87.7946H122.701V86.7654Z" fill="white"/>
<path d="M125.753 86.7654H126.809V87.7946H125.753V86.7654Z" fill="white"/>
<path d="M128.984 82.7134H129.719V88.599H128.984V82.7134Z" fill="white"/>
<path d="M131.324 88.1777H134.618V88.88H131.324V88.1777Z" fill="white"/>
<path d="M119.851 95.1725C119.658 94.682 119.56 94.1785 119.56 93.6602C119.56 93.3165 119.602 92.9765 119.686 92.6402C119.771 92.304 119.899 91.977 120.07 91.6611C120.241 91.3453 120.456 91.0481 120.714 90.7712H121.508C121.254 91.0518 121.044 91.3472 120.881 91.6574C120.715 91.9677 120.595 92.2891 120.517 92.6198C120.439 92.9524 120.4 93.2961 120.4 93.6528C120.4 94.1618 120.491 94.6616 120.675 95.1539C120.857 95.6462 121.135 96.1256 121.51 96.5882H120.715C120.333 96.133 120.044 95.6611 119.851 95.1706V95.1725Z" fill="white"/>
<path d="M133.854 90.7712H134.676L137.395 96.59H136.56L133.854 90.7712Z" fill="white"/>
<path d="M121.792 98.7988H122.614L125.332 104.618H124.497L121.792 98.7988Z" fill="white"/>
<path d="M125.853 104.229H129.146V104.932H125.853V104.229Z" fill="white"/>
<path d="M130 104.229H133.293V104.932H130V104.229Z" fill="white"/>
<path d="M136.533 98.7988H137.355L134.642 104.618H133.814L136.533 98.7988Z" fill="white"/>
<path d="M128.878 106.789H129.613V112.675H128.878V106.789Z" fill="white"/>
<path d="M16.7803 4.99048H20.0736V5.69275H16.7803V4.99048Z" fill="#FF943F"/>
<path d="M20.9277 4.99048H24.2211V5.69275H20.9277V4.99048Z" fill="#FF943F"/>
<path d="M25.0762 4.99048H28.3695V5.69275H25.0762V4.99048Z" fill="#FF943F"/>
<path d="M29.2236 4.99048H32.517V5.69275H29.2236V4.99048Z" fill="#FF943F"/>
<path d="M33.374 4.99048H36.6674V5.69275H33.374V4.99048Z" fill="#FF943F"/>
<path d="M37.7451 4.99048H41.0385V5.69275H37.7451V4.99048Z" fill="#FF943F"/>
<path d="M41.7021 4.99048H44.9955V5.69275H41.7021V4.99048Z" fill="#FF943F"/>
<path d="M11.8198 7.58594H12.6417L9.92908 13.4047H9.10156L11.8198 7.58594Z" fill="#FF943F"/>
<path d="M47.3379 7.58594H48.1598L50.878 13.4047H50.0431L47.3379 7.58594Z" fill="#FF943F"/>
<path d="M45.7021 46.9905H46.5241L49.2423 52.8093H48.4074L45.7021 46.9905Z" fill="#FF943F"/>
<path d="M7.29144 15.9548H8.11339L5.40076 21.7736H4.57324L7.29144 15.9548Z" fill="#FF943F"/>
<path d="M51.9785 15.9548H52.8005L55.5187 21.7736H54.6837L51.9785 15.9548Z" fill="#FF943F"/>
<path d="M14.7021 29.3181H17.9955V30.0204H14.7021V29.3181Z" fill="#FF943F"/>
<path d="M18.8486 29.3181H22.142V30.0204H18.8486V29.3181Z" fill="#FF943F"/>
<path d="M22.999 29.3181H26.2924V30.0204H22.999V29.3181Z" fill="#FF943F"/>
<path d="M27.1475 29.3181H30.4408V30.0204H27.1475V29.3181Z" fill="#FF943F"/>
<path d="M31.293 29.3181H34.5863V30.0204H31.293V29.3181Z" fill="#FF943F"/>
<path d="M35.4395 29.3181H38.7328V30.0204H35.4395V29.3181Z" fill="#FF943F"/>
<path d="M39.5898 29.3181H42.8832V30.0204H39.5898V29.3181Z" fill="#FF943F"/>
<path d="M43.7383 29.3181H47.0317V30.0204H43.7383V29.3181Z" fill="#FF943F"/>
<path d="M14.7021 21.6357H17.9955V22.338H14.7021V21.6357Z" fill="#FF943F"/>
<path d="M18.8486 21.6357H22.142V22.338H18.8486V21.6357Z" fill="#FF943F"/>
<path d="M22.999 21.6357H26.2924V22.338H22.999V21.6357Z" fill="#FF943F"/>
<path d="M27.1475 21.6357H30.4408V22.338H27.1475V21.6357Z" fill="#FF943F"/>
<path d="M31.293 21.6357H34.5863V22.338H31.293V21.6357Z" fill="#FF943F"/>
<path d="M35.4395 21.6357H38.7328V22.338H35.4395V21.6357Z" fill="#FF943F"/>
<path d="M39.5898 21.6357H42.8832V22.338H39.5898V21.6357Z" fill="#FF943F"/>
<path d="M43.7383 21.6357H47.0317V22.338H43.7383V21.6357Z" fill="#FF943F"/>
<path d="M2.70215 23.0112H3.4369V28.8969H2.70215V23.0112Z" fill="#FF943F"/>
<path d="M55.4443 23.0112H56.1791V28.8969H55.4443V23.0112Z" fill="#FF943F"/>
<path d="M4.49219 31.0703H5.31414L8.03233 36.8891H7.19739L4.49219 31.0703Z" fill="#FF943F"/>
<path d="M54.6166 31.0703H55.4386L52.726 36.8891H51.8984L54.6166 31.0703Z" fill="#FF943F"/>
<path d="M9.12891 39.5613H9.95086L12.6691 45.3801H11.8341L9.12891 39.5613Z" fill="#FF943F"/>
<path d="M14.2207 44.9919H17.5141V45.6942H14.2207V44.9919Z" fill="#FF943F"/>
<path d="M18.3691 44.9919H21.6625V45.6942H18.3691V44.9919Z" fill="#FF943F"/>
<path d="M22.5166 44.9919H25.81V45.6942H22.5166V44.9919Z" fill="#FF943F"/>
<path d="M26.666 44.9919H29.9594V45.6942H26.666V44.9919Z" fill="#FF943F"/>
<path d="M30.8145 44.9919H34.1078V45.6942H30.8145V44.9919Z" fill="#FF943F"/>
<path d="M35.46 44.9919H38.7533V45.6942H35.46V44.9919Z" fill="#FF943F"/>
<path d="M39.6055 44.9919H42.8988V45.6942H39.6055V44.9919Z" fill="#FF943F"/>
<path d="M43.5596 44.9919H46.8529V45.6942H43.5596V44.9919Z" fill="#FF943F"/>
<path d="M50.0952 39.5613H50.9171L48.2045 45.3801H47.377L50.0952 39.5613Z" fill="#FF943F"/>
</g>
</g>
<defs>
<clipPath id="clip0_6388_2514">
<rect x="0.768555" y="0.477539" width="144" height="112" rx="7.5267" fill="white"/>
</clipPath>
<clipPath id="clip1_6388_2514">
<rect width="180" height="168" fill="white" transform="translate(-29.2979 0.477539)"/>
</clipPath>
</defs>
</svg>
